<svg xmlns="http://www.w3.org/2000/svg" xmlns:xlink="http://www.w3.org/1999/xlink" contentStyleType="text/css" data-diagram-type="CLASS" height="711px" preserveAspectRatio="none" style="width:921px;height:711px;background:#FFFFFF;" version="1.1" viewBox="0 0 921 711" width="921px" zoomAndPan="magnify"><title>Utilisateurs &amp; Profil</title><defs/><g><text fill="#000000" font-family="sans-serif" font-size="14" font-weight="bold" lengthAdjust="spacing" textLength="129.917" x="388.562" y="24.5332">Utilisateurs &amp; Profil</text><!--cluster Auth--><g class="cluster" data-entity="Auth" data-source-line="9" data-uid="ent0008" id="cluster_Auth"><rect fill="none" height="404" rx="2.5" ry="2.5" style="stroke:#000000;stroke-width:1.5;" width="613" x="7" y="45.6094"/><text fill="#000000" font-family="sans-serif" font-size="14" font-weight="bold" lengthAdjust="spacing" textLength="160.2139" x="233.3931" y="62.1426">Authentification &amp; Profil</text></g><!--class Utilisateur--><g class="entity" data-entity="Utilisateur" data-source-line="11" data-uid="ent0009" id="entity_Utilisateur"><rect fill="#F1F1F1" height="128.0469" rx="2.5" ry="2.5" style="stroke:#181818;stroke-width:0.5;" width="222.5127" x="380.5" y="305.6094"/><ellipse cx="456.3857" cy="321.6094" fill="#ADD1B2" rx="11" ry="11" style="stroke:#181818;stroke-width:1;"/><path d="M459.1514,317.4844 Q459.3076,317.2656 459.4951,317.1563 Q459.6826,317.0469 459.9014,317.0469 Q460.2764,317.0469 460.5107,317.3125 Q460.7451,317.5625 460.7451,318.1719 L460.7451,319.625 Q460.7451,320.2344 460.5107,320.5 Q460.2764,320.7656 459.9014,320.7656 Q459.5576,320.7656 459.3545,320.5625 Q459.1514,320.375 459.042,319.8594 Q458.9951,319.5 458.8076,319.3125 Q458.4795,318.9375 457.8701,318.7188 Q457.2607,318.5 456.6357,318.5 Q455.8701,318.5 455.2295,318.8281 Q454.6045,319.1563 454.1045,319.9063 Q453.6201,320.6563 453.6201,321.6875 L453.6201,322.7813 Q453.6201,324.0156 454.5107,324.8438 Q455.4014,325.6563 456.9951,325.6563 Q457.9326,325.6563 458.5889,325.4063 Q458.9795,325.25 459.4014,324.8125 Q459.667,324.5469 459.8076,324.4688 Q459.9639,324.3906 460.167,324.3906 Q460.4951,324.3906 460.7451,324.6563 Q461.0107,324.9063 461.0107,325.25 Q461.0107,325.5938 460.667,326 Q460.167,326.5781 459.3701,326.9063 Q458.292,327.3594 456.9951,327.3594 Q455.4795,327.3594 454.2764,326.7344 Q453.292,326.2344 452.6045,325.1719 Q451.917,324.0938 451.917,322.8125 L451.917,321.6563 Q451.917,320.3281 452.5264,319.1875 Q453.1514,318.0313 454.2451,317.4219 Q455.3389,316.7969 456.5732,316.7969 Q457.3076,316.7969 457.9482,316.9688 Q458.6045,317.125 459.1514,317.4844 Z " fill="#000000"/><text fill="#000000" font-family="sans-serif" font-size="14" lengthAdjust="spacing" textLength="62.2412" x="476.8857" y="327.3379">Utilisateur</text><line style="stroke:#181818;stroke-width:0.5;" x1="381.5" x2="602.0127" y1="337.6094" y2="337.6094"/><text fill="#000000" font-family="sans-serif" font-size="14" lengthAdjust="spacing" textLength="79.7617" x="386.5" y="356.1426">+nom: String</text><text fill="#000000" font-family="sans-serif" font-size="14" lengthAdjust="spacing" textLength="85.9824" x="386.5" y="373.752">+email: String</text><text fill="#000000" font-family="sans-serif" font-size="14" lengthAdjust="spacing" textLength="87.5615" x="386.5" y="391.3613">+photo: String</text><text fill="#000000" font-family="sans-serif" font-size="14" lengthAdjust="spacing" textLength="165.3477" x="386.5" y="408.9707">+emailVerifieLe: DateTime</text><text fill="#000000" font-family="sans-serif" font-size="14" lengthAdjust="spacing" textLength="210.5127" x="386.5" y="426.5801">+derniereConnexionLe: DateTime</text></g><!--class Proprietaire--><g class="entity" data-entity="Proprietaire" data-source-line="21" data-uid="ent0011" id="entity_Proprietaire"><rect fill="#F1F1F1" height="145.6563" rx="2.5" ry="2.5" style="stroke:#181818;stroke-width:0.5;" width="172.6924" x="181.5" y="81.6094"/><ellipse cx="227.4136" cy="97.6094" fill="#ADD1B2" rx="11" ry="11" style="stroke:#181818;stroke-width:1;"/><path d="M230.1792,93.4844 Q230.3354,93.2656 230.5229,93.1563 Q230.7104,93.0469 230.9292,93.0469 Q231.3042,93.0469 231.5386,93.3125 Q231.7729,93.5625 231.7729,94.1719 L231.7729,95.625 Q231.7729,96.2344 231.5386,96.5 Q231.3042,96.7656 230.9292,96.7656 Q230.5854,96.7656 230.3823,96.5625 Q230.1792,96.375 230.0698,95.8594 Q230.0229,95.5 229.8354,95.3125 Q229.5073,94.9375 228.8979,94.7188 Q228.2886,94.5 227.6636,94.5 Q226.8979,94.5 226.2573,94.8281 Q225.6323,95.1563 225.1323,95.9063 Q224.6479,96.6563 224.6479,97.6875 L224.6479,98.7813 Q224.6479,100.0156 225.5386,100.8438 Q226.4292,101.6563 228.0229,101.6563 Q228.9604,101.6563 229.6167,101.4063 Q230.0073,101.25 230.4292,100.8125 Q230.6948,100.5469 230.8354,100.4688 Q230.9917,100.3906 231.1948,100.3906 Q231.5229,100.3906 231.7729,100.6563 Q232.0386,100.9063 232.0386,101.25 Q232.0386,101.5938 231.6948,102 Q231.1948,102.5781 230.3979,102.9063 Q229.3198,103.3594 228.0229,103.3594 Q226.5073,103.3594 225.3042,102.7344 Q224.3198,102.2344 223.6323,101.1719 Q222.9448,100.0938 222.9448,98.8125 L222.9448,97.6563 Q222.9448,96.3281 223.5542,95.1875 Q224.1792,94.0313 225.2729,93.4219 Q226.3667,92.7969 227.6011,92.7969 Q228.3354,92.7969 228.9761,92.9688 Q229.6323,93.125 230.1792,93.4844 Z " fill="#000000"/><text fill="#000000" font-family="sans-serif" font-size="14" lengthAdjust="spacing" textLength="72.3652" x="247.9136" y="103.3379">Proprietaire</text><line style="stroke:#181818;stroke-width:0.5;" x1="182.5" x2="353.1924" y1="113.6094" y2="113.6094"/><text fill="#000000" font-family="sans-serif" font-size="14" lengthAdjust="spacing" textLength="71.21" x="187.5" y="132.1426">+bio: String</text><text fill="#000000" font-family="sans-serif" font-size="14" lengthAdjust="spacing" textLength="160.6924" x="187.5" y="149.752">+titreProfessionnel: String</text><text fill="#000000" font-family="sans-serif" font-size="14" lengthAdjust="spacing" textLength="121.7891" x="187.5" y="167.3613">+localisation: String</text><text fill="#000000" font-family="sans-serif" font-size="14" lengthAdjust="spacing" textLength="103.0996" x="187.5" y="184.9707">+siteWeb: String</text><text fill="#000000" font-family="sans-serif" font-size="14" lengthAdjust="spacing" textLength="120.2373" x="187.5" y="202.5801">+urlLinkedin: String</text><text fill="#000000" font-family="sans-serif" font-size="14" lengthAdjust="spacing" textLength="109.334" x="187.5" y="220.1895">+urlGithub: String</text></g><!--class Competence--><g class="entity" data-entity="Competence" data-source-line="32" data-uid="ent0013" id="entity_Competence"><rect fill="#F1F1F1" height="92.8281" rx="2.5" ry="2.5" style="stroke:#181818;stroke-width:0.5;" width="122.1201" x="471" y="108.1094"/><ellipse cx="490.8335" cy="124.1094" fill="#ADD1B2" rx="11" ry="11" style="stroke:#181818;stroke-width:1;"/><path d="M493.5992,119.9844 Q493.7554,119.7656 493.9429,119.6563 Q494.1304,119.5469 494.3492,119.5469 Q494.7242,119.5469 494.9585,119.8125 Q495.1929,120.0625 495.1929,120.6719 L495.1929,122.125 Q495.1929,122.7344 494.9585,123 Q494.7242,123.2656 494.3492,123.2656 Q494.0054,123.2656 493.8023,123.0625 Q493.5992,122.875 493.4898,122.3594 Q493.4429,122 493.2554,121.8125 Q492.9273,121.4375 492.3179,121.2188 Q491.7085,121 491.0835,121 Q490.3179,121 489.6773,121.3281 Q489.0523,121.6563 488.5523,122.4063 Q488.0679,123.1563 488.0679,124.1875 L488.0679,125.2813 Q488.0679,126.5156 488.9585,127.3438 Q489.8492,128.1563 491.4429,128.1563 Q492.3804,128.1563 493.0367,127.9063 Q493.4273,127.75 493.8492,127.3125 Q494.1148,127.0469 494.2554,126.9688 Q494.4117,126.8906 494.6148,126.8906 Q494.9429,126.8906 495.1929,127.1563 Q495.4585,127.4063 495.4585,127.75 Q495.4585,128.0938 495.1148,128.5 Q494.6148,129.0781 493.8179,129.4063 Q492.7398,129.8594 491.4429,129.8594 Q489.9273,129.8594 488.7242,129.2344 Q487.7398,128.7344 487.0523,127.6719 Q486.3648,126.5938 486.3648,125.3125 L486.3648,124.1563 Q486.3648,122.8281 486.9742,121.6875 Q487.5992,120.5313 488.6929,119.9219 Q489.7867,119.2969 491.021,119.2969 Q491.7554,119.2969 492.396,119.4688 Q493.0523,119.625 493.5992,119.9844 Z " fill="#000000"/><text fill="#000000" font-family="sans-serif" font-size="14" lengthAdjust="spacing" textLength="79.3789" x="505.9077" y="129.8379">Competence</text><line style="stroke:#181818;stroke-width:0.5;" x1="472" x2="592.1201" y1="140.1094" y2="140.1094"/><text fill="#000000" font-family="sans-serif" font-size="14" lengthAdjust="spacing" textLength="79.7617" x="477" y="158.6426">+nom: String</text><text fill="#000000" font-family="sans-serif" font-size="14" lengthAdjust="spacing" textLength="110.1201" x="477" y="176.252">+categorie: String</text><text fill="#000000" font-family="sans-serif" font-size="14" lengthAdjust="spacing" textLength="85.9961" x="477" y="193.8613">+icone: String</text></g><!--class Domaine--><g class="entity" data-entity="Domaine" data-source-line="40" data-uid="ent0015" id="entity_Domaine"><rect fill="#F1F1F1" height="110.4375" rx="2.5" ry="2.5" style="stroke:#181818;stroke-width:0.5;" width="132.2305" x="23" y="314.6094"/><ellipse cx="57.8914" cy="330.6094" fill="#ADD1B2" rx="11" ry="11" style="stroke:#181818;stroke-width:1;"/><path d="M60.657,326.4844 Q60.8133,326.2656 61.0008,326.1563 Q61.1883,326.0469 61.407,326.0469 Q61.782,326.0469 62.0164,326.3125 Q62.2508,326.5625 62.2508,327.1719 L62.2508,328.625 Q62.2508,329.2344 62.0164,329.5 Q61.782,329.7656 61.407,329.7656 Q61.0633,329.7656 60.8602,329.5625 Q60.657,329.375 60.5477,328.8594 Q60.5008,328.5 60.3133,328.3125 Q59.9852,327.9375 59.3758,327.7188 Q58.7664,327.5 58.1414,327.5 Q57.3758,327.5 56.7352,327.8281 Q56.1102,328.1563 55.6102,328.9063 Q55.1258,329.6563 55.1258,330.6875 L55.1258,331.7813 Q55.1258,333.0156 56.0164,333.8438 Q56.907,334.6563 58.5008,334.6563 Q59.4383,334.6563 60.0945,334.4063 Q60.4852,334.25 60.907,333.8125 Q61.1727,333.5469 61.3133,333.4688 Q61.4695,333.3906 61.6727,333.3906 Q62.0008,333.3906 62.2508,333.6563 Q62.5164,333.9063 62.5164,334.25 Q62.5164,334.5938 62.1727,335 Q61.6727,335.5781 60.8758,335.9063 Q59.7977,336.3594 58.5008,336.3594 Q56.9852,336.3594 55.782,335.7344 Q54.7977,335.2344 54.1102,334.1719 Q53.4227,333.0938 53.4227,331.8125 L53.4227,330.6563 Q53.4227,329.3281 54.032,328.1875 Q54.657,327.0313 55.7508,326.4219 Q56.8445,325.7969 58.0789,325.7969 Q58.8133,325.7969 59.4539,325.9688 Q60.1102,326.125 60.657,326.4844 Z " fill="#000000"/><text fill="#000000" font-family="sans-serif" font-size="14" lengthAdjust="spacing" textLength="56.0273" x="76.3117" y="336.3379">Domaine</text><line style="stroke:#181818;stroke-width:0.5;" x1="24" x2="154.2305" y1="346.6094" y2="346.6094"/><text fill="#000000" font-family="sans-serif" font-size="14" lengthAdjust="spacing" textLength="79.7617" x="29" y="365.1426">+nom: String</text><text fill="#000000" font-family="sans-serif" font-size="14" lengthAdjust="spacing" textLength="78.21" x="29" y="382.752">+slug: String</text><text fill="#000000" font-family="sans-serif" font-size="14" lengthAdjust="spacing" textLength="120.2305" x="29" y="400.3613">+description: String</text><text fill="#000000" font-family="sans-serif" font-size="14" lengthAdjust="spacing" textLength="98.4443" x="29" y="417.9707">+couleur: String</text></g><!--class NiveauCompetence--><g class="entity" data-entity="NiveauCompetence" data-source-line="49" data-uid="ent0017" id="entity_NiveauCompetence"><rect fill="#F1F1F1" height="75.2188" rx="2.5" ry="2.5" style="stroke:#181818;stroke-width:0.5;" width="154.958" x="190.5" y="332.1094"/><ellipse cx="205.5" cy="348.1094" fill="#ADD1B2" rx="11" ry="11" style="stroke:#181818;stroke-width:1;"/><path d="M208.2656,343.9844 Q208.4219,343.7656 208.6094,343.6563 Q208.7969,343.5469 209.0156,343.5469 Q209.3906,343.5469 209.625,343.8125 Q209.8594,344.0625 209.8594,344.6719 L209.8594,346.125 Q209.8594,346.7344 209.625,347 Q209.3906,347.2656 209.0156,347.2656 Q208.6719,347.2656 208.4688,347.0625 Q208.2656,346.875 208.1563,346.3594 Q208.1094,346 207.9219,345.8125 Q207.5938,345.4375 206.9844,345.2188 Q206.375,345 205.75,345 Q204.9844,345 204.3438,345.3281 Q203.7188,345.6563 203.2188,346.4063 Q202.7344,347.1563 202.7344,348.1875 L202.7344,349.2813 Q202.7344,350.5156 203.625,351.3438 Q204.5156,352.1563 206.1094,352.1563 Q207.0469,352.1563 207.7031,351.9063 Q208.0938,351.75 208.5156,351.3125 Q208.7813,351.0469 208.9219,350.9688 Q209.0781,350.8906 209.2813,350.8906 Q209.6094,350.8906 209.8594,351.1563 Q210.125,351.4063 210.125,351.75 Q210.125,352.0938 209.7813,352.5 Q209.2813,353.0781 208.4844,353.4063 Q207.4063,353.8594 206.1094,353.8594 Q204.5938,353.8594 203.3906,353.2344 Q202.4063,352.7344 201.7188,351.6719 Q201.0313,350.5938 201.0313,349.3125 L201.0313,348.1563 Q201.0313,346.8281 201.6406,345.6875 Q202.2656,344.5313 203.3594,343.9219 Q204.4531,343.2969 205.6875,343.2969 Q206.4219,343.2969 207.0625,343.4688 Q207.7188,343.625 208.2656,343.9844 Z " fill="#000000"/><text fill="#000000" font-family="sans-serif" font-size="14" lengthAdjust="spacing" textLength="122.958" x="219.5" y="353.8379">NiveauCompetence</text><line style="stroke:#181818;stroke-width:0.5;" x1="191.5" x2="344.458" y1="364.1094" y2="364.1094"/><text fill="#000000" font-family="sans-serif" font-size="14" lengthAdjust="spacing" textLength="100.7891" x="196.5" y="382.6426">+niveau: Niveau</text><text fill="#000000" font-family="sans-serif" font-size="14" lengthAdjust="spacing" textLength="137.375" x="196.5" y="400.252">+estSurligne: Boolean</text></g><!--class Niveau--><g class="entity" data-entity="Niveau" data-source-line="2" data-uid="ent0002" id="entity_Niveau"><rect fill="#F1F1F1" height="110.4375" rx="2.5" ry="2.5" style="stroke:#181818;stroke-width:0.5;" width="93.7031" x="221" y="496.6094"/><ellipse cx="244.1558" cy="512.6094" fill="#EB937F" rx="11" ry="11" style="stroke:#181818;stroke-width:1;"/><path d="M243.0152,513.4063 L243.0152,515.9063 L247.3433,515.9063 L247.3433,514.9844 Q247.3433,514.375 247.5777,514.1094 Q247.8277,513.8438 248.2027,513.8438 Q248.5777,513.8438 248.8121,514.1094 Q249.0464,514.375 249.0464,514.9844 L249.0464,517.6094 L241.0464,517.6094 Q240.4214,517.6094 240.1558,517.375 Q239.9058,517.1406 239.9058,516.75 Q239.9058,516.375 240.1714,516.1406 Q240.4371,515.9063 241.0464,515.9063 L241.3121,515.9063 L241.3121,509.25 L241.0464,509.25 Q240.4214,509.25 240.1558,509.0156 Q239.9058,508.7813 239.9058,508.3906 Q239.9058,508.0156 240.1558,507.7813 Q240.4214,507.5469 241.0464,507.5469 L248.6714,507.5469 L248.6714,510.1406 Q248.6714,510.75 248.4371,511.0156 Q248.2183,511.2656 247.8277,511.2656 Q247.4527,511.2656 247.2183,511.0156 Q246.9839,510.75 246.9839,510.1406 L246.9839,509.25 L243.0152,509.25 L243.0152,511.7031 L244.4996,511.7031 Q244.4996,511.0469 244.6246,510.8594 Q244.8902,510.4531 245.3589,510.4531 Q245.7339,510.4531 245.9683,510.7188 Q246.2027,510.9688 246.2027,511.5781 L246.2027,513.5469 Q246.2027,514.0938 246.0777,514.2813 Q245.8121,514.6719 245.3589,514.6719 Q244.8902,514.6719 244.6246,514.2656 Q244.4996,514.0781 244.4996,513.4063 L243.0152,513.4063 Z " fill="#000000"/><text fill="#000000" font-family="sans-serif" font-size="14" lengthAdjust="spacing" textLength="43.5791" x="259.9682" y="518.3379">Niveau</text><line style="stroke:#181818;stroke-width:0.5;" x1="222" x2="313.7031" y1="528.6094" y2="528.6094"/><text fill="#000000" font-family="sans-serif" font-size="14" lengthAdjust="spacing" textLength="56.8203" x="227" y="547.1426">D&#233;butant</text><text fill="#000000" font-family="sans-serif" font-size="14" lengthAdjust="spacing" textLength="81.7031" x="227" y="564.752">Interm&#233;diaire</text><text fill="#000000" font-family="sans-serif" font-size="14" lengthAdjust="spacing" textLength="46.6963" x="227" y="582.3613">Avanc&#233;</text><text fill="#000000" font-family="sans-serif" font-size="14" lengthAdjust="spacing" textLength="40.4619" x="227" y="599.9707">Expert</text></g><!--class TypeMedia--><g class="entity" data-entity="TypeMedia" data-source-line="9" data-uid="ent0003" id="entity_TypeMedia"><rect fill="#F1F1F1" height="110.4375" rx="2.5" ry="2.5" style="stroke:#181818;stroke-width:0.5;" width="101.2549" x="647.5" y="99.6094"/><ellipse cx="662.5" cy="115.6094" fill="#EB937F" rx="11" ry="11" style="stroke:#181818;stroke-width:1;"/><path d="M661.3594,116.4063 L661.3594,118.9063 L665.6875,118.9063 L665.6875,117.9844 Q665.6875,117.375 665.9219,117.1094 Q666.1719,116.8438 666.5469,116.8438 Q666.9219,116.8438 667.1563,117.1094 Q667.3906,117.375 667.3906,117.9844 L667.3906,120.6094 L659.3906,120.6094 Q658.7656,120.6094 658.5,120.375 Q658.25,120.1406 658.25,119.75 Q658.25,119.375 658.5156,119.1406 Q658.7813,118.9063 659.3906,118.9063 L659.6563,118.9063 L659.6563,112.25 L659.3906,112.25 Q658.7656,112.25 658.5,112.0156 Q658.25,111.7813 658.25,111.3906 Q658.25,111.0156 658.5,110.7813 Q658.7656,110.5469 659.3906,110.5469 L667.0156,110.5469 L667.0156,113.1406 Q667.0156,113.75 666.7813,114.0156 Q666.5625,114.2656 666.1719,114.2656 Q665.7969,114.2656 665.5625,114.0156 Q665.3281,113.75 665.3281,113.1406 L665.3281,112.25 L661.3594,112.25 L661.3594,114.7031 L662.8438,114.7031 Q662.8438,114.0469 662.9688,113.8594 Q663.2344,113.4531 663.7031,113.4531 Q664.0781,113.4531 664.3125,113.7188 Q664.5469,113.9688 664.5469,114.5781 L664.5469,116.5469 Q664.5469,117.0938 664.4219,117.2813 Q664.1563,117.6719 663.7031,117.6719 Q663.2344,117.6719 662.9688,117.2656 Q662.8438,117.0781 662.8438,116.4063 L661.3594,116.4063 Z " fill="#000000"/><text fill="#000000" font-family="sans-serif" font-size="14" lengthAdjust="spacing" textLength="69.2549" x="676.5" y="121.3379">TypeMedia</text><line style="stroke:#181818;stroke-width:0.5;" x1="648.5" x2="747.7549" y1="131.6094" y2="131.6094"/><text fill="#000000" font-family="sans-serif" font-size="14" lengthAdjust="spacing" textLength="38.9102" x="653.5" y="150.1426">Image</text><text fill="#000000" font-family="sans-serif" font-size="14" lengthAdjust="spacing" textLength="35.8066" x="653.5" y="167.752">Vid&#233;o</text><text fill="#000000" font-family="sans-serif" font-size="14" lengthAdjust="spacing" textLength="63.8066" x="653.5" y="185.3613">Document</text><text fill="#000000" font-family="sans-serif" font-size="14" lengthAdjust="spacing" textLength="26.4688" x="653.5" y="202.9707">Lien</text></g><!--class TypeRessource--><g class="entity" data-entity="TypeRessource" data-source-line="16" data-uid="ent0004" id="entity_TypeRessource"><rect fill="#F1F1F1" height="110.4375" rx="2.5" ry="2.5" style="stroke:#181818;stroke-width:0.5;" width="130.041" x="784" y="99.6094"/><ellipse cx="799" cy="115.6094" fill="#EB937F" rx="11" ry="11" style="stroke:#181818;stroke-width:1;"/><path d="M797.8594,116.4063 L797.8594,118.9063 L802.1875,118.9063 L802.1875,117.9844 Q802.1875,117.375 802.4219,117.1094 Q802.6719,116.8438 803.0469,116.8438 Q803.4219,116.8438 803.6563,117.1094 Q803.8906,117.375 803.8906,117.9844 L803.8906,120.6094 L795.8906,120.6094 Q795.2656,120.6094 795,120.375 Q794.75,120.1406 794.75,119.75 Q794.75,119.375 795.0156,119.1406 Q795.2813,118.9063 795.8906,118.9063 L796.1563,118.9063 L796.1563,112.25 L795.8906,112.25 Q795.2656,112.25 795,112.0156 Q794.75,111.7813 794.75,111.3906 Q794.75,111.0156 795,110.7813 Q795.2656,110.5469 795.8906,110.5469 L803.5156,110.5469 L803.5156,113.1406 Q803.5156,113.75 803.2813,114.0156 Q803.0625,114.2656 802.6719,114.2656 Q802.2969,114.2656 802.0625,114.0156 Q801.8281,113.75 801.8281,113.1406 L801.8281,112.25 L797.8594,112.25 L797.8594,114.7031 L799.3438,114.7031 Q799.3438,114.0469 799.4688,113.8594 Q799.7344,113.4531 800.2031,113.4531 Q800.5781,113.4531 800.8125,113.7188 Q801.0469,113.9688 801.0469,114.5781 L801.0469,116.5469 Q801.0469,117.0938 800.9219,117.2813 Q800.6563,117.6719 800.2031,117.6719 Q799.7344,117.6719 799.4688,117.2656 Q799.3438,117.0781 799.3438,116.4063 L797.8594,116.4063 Z " fill="#000000"/><text fill="#000000" font-family="sans-serif" font-size="14" lengthAdjust="spacing" textLength="98.041" x="813" y="121.3379">TypeRessource</text><line style="stroke:#181818;stroke-width:0.5;" x1="785" x2="913.041" y1="131.6094" y2="131.6094"/><text fill="#000000" font-family="sans-serif" font-size="14" lengthAdjust="spacing" textLength="63.8066" x="790" y="150.1426">Document</text><text fill="#000000" font-family="sans-serif" font-size="14" lengthAdjust="spacing" textLength="38.9102" x="790" y="167.752">Image</text><text fill="#000000" font-family="sans-serif" font-size="14" lengthAdjust="spacing" textLength="46.6826" x="790" y="185.3613">Archive</text><text fill="#000000" font-family="sans-serif" font-size="14" lengthAdjust="spacing" textLength="26.4688" x="790" y="202.9707">Lien</text></g><!--class Timestamps--><g class="entity" data-entity="Timestamps" data-source-line="24" data-uid="ent0005" id="entity_Timestamps"><rect fill="#F1F1F1" height="75.2188" rx="2.5" ry="2.5" style="stroke:#181818;stroke-width:0.5;" width="168.8027" x="407.5" y="514.1094"/><ellipse cx="449.7558" cy="530.1094" fill="#A9DCDF" rx="11" ry="11" style="stroke:#181818;stroke-width:1;"/><path d="M451.9433,531.875 L447.8026,531.875 L447.3808,532.9063 L447.8026,532.9063 Q448.412,532.9063 448.6776,533.1406 Q448.9433,533.375 448.9433,533.7656 Q448.9433,534.1406 448.6776,534.375 Q448.412,534.6094 447.8026,534.6094 L445.5058,534.6094 Q444.8964,534.6094 444.6464,534.375 Q444.3808,534.1406 444.3808,533.75 Q444.3808,533.375 444.662,533.1406 Q444.9276,532.8906 445.5526,532.9063 L448.2245,526.25 L447.1151,526.25 Q446.5058,526.25 446.2401,526.0156 Q445.9745,525.7813 445.9745,525.3906 Q445.9745,525.0156 446.2401,524.7813 Q446.5058,524.5469 447.1151,524.5469 L450.787,524.5469 L454.1776,532.9063 Q454.7714,532.9063 454.9589,533.0469 Q455.3495,533.3125 455.3495,533.7656 Q455.3495,534.1406 455.0839,534.375 Q454.8339,534.6094 454.2245,534.6094 L451.9276,534.6094 Q451.3183,534.6094 451.0526,534.375 Q450.787,534.1406 450.787,533.75 Q450.787,533.375 451.0526,533.1406 Q451.3183,532.9063 451.9276,532.9063 L452.3495,532.9063 L451.9433,531.875 Z M451.2245,530.1719 L449.8651,526.7969 L448.4901,530.1719 L451.2245,530.1719 Z " fill="#000000"/><text fill="#000000" font-family="sans-serif" font-size="14" font-style="italic" lengthAdjust="spacing" textLength="76.2344" x="469.8126" y="535.8379">Timestamps</text><line style="stroke:#181818;stroke-width:0.5;" x1="408.5" x2="575.3027" y1="546.1094" y2="546.1094"/><text fill="#000000" font-family="sans-serif" font-size="14" lengthAdjust="spacing" textLength="156.8027" x="413.5" y="564.6426">+dateCreation: DateTime</text><text fill="#000000" font-family="sans-serif" font-size="14" lengthAdjust="spacing" textLength="138.1201" x="413.5" y="582.252">+dateModif: DateTime</text></g><!--class SoftDeletes--><g class="entity" data-entity="SoftDeletes" data-source-line="29" data-uid="ent0006" id="entity_SoftDeletes"><rect fill="#F1F1F1" height="57.6094" rx="2.5" ry="2.5" style="stroke:#181818;stroke-width:0.5;" width="193.7129" x="710" y="340.6094"/><ellipse cx="766.4204" cy="356.6094" fill="#A9DCDF" rx="11" ry="11" style="stroke:#181818;stroke-width:1;"/><path d="M768.6079,358.375 L764.4673,358.375 L764.0454,359.4063 L764.4673,359.4063 Q765.0767,359.4063 765.3423,359.6406 Q765.6079,359.875 765.6079,360.2656 Q765.6079,360.6406 765.3423,360.875 Q765.0767,361.1094 764.4673,361.1094 L762.1704,361.1094 Q761.561,361.1094 761.311,360.875 Q761.0454,360.6406 761.0454,360.25 Q761.0454,359.875 761.3267,359.6406 Q761.5923,359.3906 762.2173,359.4063 L764.8892,352.75 L763.7798,352.75 Q763.1704,352.75 762.9048,352.5156 Q762.6392,352.2813 762.6392,351.8906 Q762.6392,351.5156 762.9048,351.2813 Q763.1704,351.0469 763.7798,351.0469 L767.4517,351.0469 L770.8423,359.4063 Q771.436,359.4063 771.6235,359.5469 Q772.0142,359.8125 772.0142,360.2656 Q772.0142,360.6406 771.7485,360.875 Q771.4985,361.1094 770.8892,361.1094 L768.5923,361.1094 Q767.9829,361.1094 767.7173,360.875 Q767.4517,360.6406 767.4517,360.25 Q767.4517,359.875 767.7173,359.6406 Q767.9829,359.4063 768.5923,359.4063 L769.0142,359.4063 L768.6079,358.375 Z M767.8892,356.6719 L766.5298,353.2969 L765.1548,356.6719 L767.8892,356.6719 Z " fill="#000000"/><text fill="#000000" font-family="sans-serif" font-size="14" font-style="italic" lengthAdjust="spacing" textLength="72.3721" x="786.9204" y="362.3379">SoftDeletes</text><line style="stroke:#181818;stroke-width:0.5;" x1="711" x2="902.7129" y1="372.6094" y2="372.6094"/><text fill="#000000" font-family="sans-serif" font-size="14" lengthAdjust="spacing" textLength="181.7129" x="716" y="391.1426">+dateSuppression: DateTime</text></g><!--link SoftDeletes to Timestamps--><g class="link" data-entity-1="SoftDeletes" data-entity-2="Timestamps" data-source-line="33" data-uid="lnk7" id="link_SoftDeletes_Timestamps"><path codeLine="33" d="M775.15,398.7894 C750.99,419.2794 716.34,446.7794 683,466.6094 C649.69,486.4194 627.4618,497.4176 593.5518,511.5676" fill="none" id="SoftDeletes-to-Timestamps" style="stroke:#181818;stroke-width:1;"/><polygon fill="none" points="576.94,518.4994,595.8623,517.1049,591.2412,506.0303,576.94,518.4994" style="stroke:#181818;stroke-width:1;"/></g><!--link Utilisateur to Timestamps--><g class="link" data-entity-1="Utilisateur" data-entity-2="Timestamps" data-source-line="19" data-uid="lnk10" id="link_Utilisateur_Timestamps"><path codeLine="19" d="M492,433.8194 C492,460.6594 492,473.0094 492,496.0294" fill="none" id="Utilisateur-to-Timestamps" style="stroke:#181818;stroke-width:1;"/><polygon fill="none" points="492,514.0294,498,496.0294,486,496.0294,492,514.0294" style="stroke:#181818;stroke-width:1;"/></g><!--link Proprietaire to Utilisateur--><g class="link" data-entity-1="Proprietaire" data-entity-2="Utilisateur" data-source-line="30" data-uid="lnk12" id="link_Proprietaire_Utilisateur"><path codeLine="30" d="M343.84,227.7194 C370.36,252.9494 386.8763,268.6452 412.5763,293.0852" fill="none" id="Proprietaire-to-Utilisateur" style="stroke:#181818;stroke-width:1;"/><polygon fill="none" points="425.62,305.4894,416.7111,288.7373,408.4416,297.4331,425.62,305.4894" style="stroke:#181818;stroke-width:1;"/></g><!--link Competence to Timestamps--><g class="link" data-entity-1="Competence" data-entity-2="Timestamps" data-source-line="38" data-uid="lnk14" id="link_Competence_Timestamps"><path codeLine="38" d="M567.89,201.2594 C587.8,229.5594 610.59,267.6494 621,305.6094 C638.87,370.7594 651.78,397.4694 621,457.6094 C609.11,480.8394 603.3441,489.5259 581.9741,503.9359" fill="none" id="Competence-to-Timestamps" style="stroke:#181818;stroke-width:1;"/><polygon fill="none" points="567.05,513.9994,585.3285,508.9106,578.6196,498.9613,567.05,513.9994" style="stroke:#181818;stroke-width:1;"/></g><!--link Domaine to Timestamps--><g class="link" data-entity-1="Domaine" data-entity-2="Timestamps" data-source-line="47" data-uid="lnk16" id="link_Domaine_Timestamps"><path codeLine="47" d="M131.97,424.6694 C144.08,437.0294 158.07,449.0394 173,457.6094 C236.48,494.0394 262.72,476.1494 333,496.6094 C357.35,503.6994 366.4789,506.4127 390.4089,514.5527" fill="none" id="Domaine-to-Timestamps" style="stroke:#181818;stroke-width:1;"/><polygon fill="none" points="407.45,520.3494,392.3411,508.8723,388.4767,520.2331,407.45,520.3494" style="stroke:#181818;stroke-width:1;"/></g><!--link NiveauCompetence to Timestamps--><g class="link" data-entity-1="NiveauCompetence" data-entity-2="Timestamps" data-source-line="54" data-uid="lnk18" id="link_NiveauCompetence_Timestamps"><path codeLine="54" d="M305.92,407.2194 C322.96,423.1694 343.57,441.7994 363,457.6094 C386.98,477.1294 399.9506,487.0089 423.5206,503.5989" fill="none" id="NiveauCompetence-to-Timestamps" style="stroke:#181818;stroke-width:1;"/><polygon fill="none" points="438.24,513.9594,426.974,498.6925,420.0671,508.5054,438.24,513.9594" style="stroke:#181818;stroke-width:1;"/></g><!--link NiveauCompetence to Niveau--><g class="link" data-entity-1="NiveauCompetence" data-entity-2="Niveau" data-source-line="60" data-uid="lnk19" id="link_NiveauCompetence_Niveau"><path codeLine="60" d="M268,407.4694 C268,433.0794 268,461.6394 268,490.3794" fill="none" id="NiveauCompetence-to-Niveau" style="stroke:#181818;stroke-width:1;"/><polygon fill="#181818" points="268,496.3794,272,487.3794,268,491.3794,264,487.3794,268,496.3794" style="stroke:#181818;stroke-width:1;"/></g><!--link Proprietaire to NiveauCompetence--><g class="link" data-entity-1="Proprietaire" data-entity-2="NiveauCompetence" data-source-line="65" data-uid="lnk20" id="link_Proprietaire_NiveauCompetence"><path codeLine="65" d="M268,227.7194 C268,262.7194 268,303.2694 268,331.8594" fill="none" id="Proprietaire-NiveauCompetence" style="stroke:#181818;stroke-width:1;"/><text fill="#000000" font-family="sans-serif" font-size="13" lengthAdjust="spacing" textLength="77.3208" x="269" y="272.1045">comp&#233;tences</text><text fill="#000000" font-family="sans-serif" font-size="13" lengthAdjust="spacing" textLength="7.23" x="260.7021" y="248.7239">1</text><text fill="#000000" font-family="sans-serif" font-size="13" lengthAdjust="spacing" textLength="19.5127" x="247.3572" y="321.2171">0..*</text></g><!--link Competence to NiveauCompetence--><g class="link" data-entity-1="Competence" data-entity-2="NiveauCompetence" data-source-line="66" data-uid="lnk21" id="link_Competence_NiveauCompetence"><path codeLine="66" d="M475.37,201.2994 C427.03,240.2994 358.43,295.6494 313.58,331.8394" fill="none" id="Competence-NiveauCompetence" style="stroke:#181818;stroke-width:1;"/><text fill="#000000" font-family="sans-serif" font-size="13" lengthAdjust="spacing" textLength="44.8081" x="401" y="272.1045">niveaux</text><text fill="#000000" font-family="sans-serif" font-size="13" lengthAdjust="spacing" textLength="7.23" x="459.9219" y="222.5221">1</text><text fill="#000000" font-family="sans-serif" font-size="13" lengthAdjust="spacing" textLength="19.5127" x="301.0562" y="321.1935">0..*</text></g><!--link Proprietaire to Domaine--><g class="link" data-entity-1="Proprietaire" data-entity-2="Domaine" data-source-line="67" data-uid="lnk22" id="link_Proprietaire_Domaine"><path codeLine="67" d="M207.4,227.7194 C183.56,256.0794 156.67,288.0894 134.54,314.4194" fill="none" id="Proprietaire-Domaine" style="stroke:#181818;stroke-width:1;"/><text fill="#000000" font-family="sans-serif" font-size="13" lengthAdjust="spacing" textLength="56.3672" x="179" y="272.1045">domaines</text><text fill="#000000" font-family="sans-serif" font-size="13" lengthAdjust="spacing" textLength="7.23" x="194.5156" y="248.7239">1</text><text fill="#000000" font-family="sans-serif" font-size="13" lengthAdjust="spacing" textLength="19.5127" x="120.1757" y="303.8128">0..*</text></g><rect fill="#DDDDDD" height="66.8281" rx="7.5" ry="7.5" style="stroke:#000000;stroke-width:1;" width="241.5264" x="332.7573" y="625.0469"/><text fill="#000000" font-family="sans-serif" font-size="14" font-weight="bold" lengthAdjust="spacing" textLength="56.7656" x="341.647" y="646.5801">Notation</text><text fill="#000000" font-family="sans-serif" font-size="14" font-weight="bold" lengthAdjust="spacing" textLength="84" x="415.2085" y="646.5801">Signification</text><text fill="#000000" font-family="sans-serif" font-size="14" lengthAdjust="spacing" textLength="65.7822" x="341.647" y="664.1895">"1" -- "0..*"</text><text fill="#000000" font-family="sans-serif" font-size="14" lengthAdjust="spacing" textLength="89.4893" x="415.2085" y="664.1895">Un &#224; plusieurs</text><text fill="#000000" font-family="sans-serif" font-size="14" lengthAdjust="spacing" textLength="14.2939" x="341.647" y="681.7988">"--</text><text fill="#000000" font-family="sans-serif" font-size="14" lengthAdjust="spacing" textLength="8.1758" x="411.3188" y="681.7988">&gt;</text><text fill="#000000" font-family="sans-serif" font-size="14" lengthAdjust="spacing" textLength="52.917" x="512.4771" y="681.7988">H&#233;ritage</text><line style="stroke:#000000;stroke-width:1;" x1="337.7573" x2="569.2837" y1="632.0469" y2="632.0469"/><line style="stroke:#000000;stroke-width:1;" x1="337.7573" x2="569.2837" y1="649.6563" y2="649.6563"/><line style="stroke:#000000;stroke-width:1;" x1="337.7573" x2="569.2837" y1="667.2656" y2="667.2656"/><line style="stroke:#000000;stroke-width:1;" x1="337.7573" x2="569.2837" y1="684.875" y2="684.875"/><line style="stroke:#000000;stroke-width:1;" x1="337.7573" x2="337.7573" y1="632.0469" y2="684.875"/><line style="stroke:#000000;stroke-width:1;" x1="411.3188" x2="411.3188" y1="632.0469" y2="684.875"/><line style="stroke:#000000;stroke-width:1;" x1="508.5874" x2="508.5874" y1="632.0469" y2="684.875"/><line style="stroke:#000000;stroke-width:1;" x1="569.2837" x2="569.2837" y1="632.0469" y2="684.875"/><!--SRC=[fLJDRjD04BxlKmm-W0HALAwHMYcq5LGA0U4MZcXjJvrHrhlMxXXQ2E_2jS-H5sFi98sxIOCeFgrdPh-VcT4oiK6uOZ8KD6FZ0po7ZzvTar7g6TdSD0N2rqm77EH6Xp3y7WgbPYHHh6g-XGgh37rGOKwsrbvNKEjyhajC-LQWFUQiRMcmLz01ZPazPGtZHUviIZyGZfHQNuLatF0CBTCrvPh9sNjL2UW0RHP-AWKhgBv-2ODyhy2wQWIfSDXo7S5AaubYzSonsrVt6RsGumH7S2R0brJXEbsWjuGUJvsrU2FQeffVhQw-ei5WSG9jCh2kwh2LBOvgJyYQFDxhpYZMmyGUM_SO0hMaiGdZSjsnIJPA1MByWbaKRRoPa9rZGNOtyvPurlHlT8OUQEqSzInkBPswgaP6c-E1GSX8iNI25iL9DW5ZuXxYeuqySp8oUuWocAQCGWM6t5EzfscvQuouYfLiM1wLCQLlg9jzBUWIetN1Piq2fz9kAblFRvmpgEs6QWSfvfIg5t3ypvzSEfzUlOTFvvFnvSM7QVeqb3toJZRcdghhFoKzsC_aTIAI83aQ3byckyqSoOIhUddN_GNLo_prucgIDuVeDcioWc9raWqnMA8j87FChfBvBevXwdZriiavbINOFdMBjY02NS2LXULlg4qJg7kcrrNTOiZXtVBE4xTlvqArL2j6zGS0]--></g></svg>