<svg xmlns="http://www.w3.org/2000/svg" xmlns:xlink="http://www.w3.org/1999/xlink" contentStyleType="text/css" data-diagram-type="CLASS" height="917px" preserveAspectRatio="none" style="width:1131px;height:917px;background:#FFFFFF;" version="1.1" viewBox="0 0 1131 917" width="1131px" zoomAndPan="magnify"><title>Utilisateurs &amp; Profil</title><defs/><g><text fill="#000000" font-family="sans-serif" font-size="14" font-weight="bold" lengthAdjust="spacing" textLength="129.917" x="493.802" y="24.5332">Utilisateurs &amp; Profil</text><!--cluster Auth--><g class="cluster" data-entity="Auth" data-source-line="9" data-uid="ent0008" id="cluster_Auth"><rect fill="none" height="592" rx="2.5" ry="2.5" style="stroke:#000000;stroke-width:1.5;" width="363" x="291.48" y="45.6094"/><text fill="#000000" font-family="sans-serif" font-size="14" font-weight="bold" lengthAdjust="spacing" textLength="160.2139" x="392.8731" y="62.1426">Authentification &amp; Profil</text></g><!--class Utilisateur--><g class="entity" data-entity="Utilisateur" data-source-line="11" data-uid="ent0009" id="entity_Utilisateur"><rect fill="#F1F1F1" height="128.0469" rx="2.5" ry="2.5" style="stroke:#181818;stroke-width:0.5;" width="222.5127" x="359.98" y="81.6094"/><ellipse cx="435.8657" cy="97.6094" fill="#ADD1B2" rx="11" ry="11" style="stroke:#181818;stroke-width:1;"/><path d="M438.6314,93.4844 Q438.7876,93.2656 438.9751,93.1563 Q439.1626,93.0469 439.3814,93.0469 Q439.7564,93.0469 439.9907,93.3125 Q440.2251,93.5625 440.2251,94.1719 L440.2251,95.625 Q440.2251,96.2344 439.9907,96.5 Q439.7564,96.7656 439.3814,96.7656 Q439.0376,96.7656 438.8345,96.5625 Q438.6314,96.375 438.522,95.8594 Q438.4751,95.5 438.2876,95.3125 Q437.9595,94.9375 437.3501,94.7188 Q436.7407,94.5 436.1157,94.5 Q435.3501,94.5 434.7095,94.8281 Q434.0845,95.1563 433.5845,95.9063 Q433.1001,96.6563 433.1001,97.6875 L433.1001,98.7813 Q433.1001,100.0156 433.9907,100.8438 Q434.8814,101.6563 436.4751,101.6563 Q437.4126,101.6563 438.0689,101.4063 Q438.4595,101.25 438.8814,100.8125 Q439.147,100.5469 439.2876,100.4688 Q439.4439,100.3906 439.647,100.3906 Q439.9751,100.3906 440.2251,100.6563 Q440.4907,100.9063 440.4907,101.25 Q440.4907,101.5938 440.147,102 Q439.647,102.5781 438.8501,102.9063 Q437.772,103.3594 436.4751,103.3594 Q434.9595,103.3594 433.7564,102.7344 Q432.772,102.2344 432.0845,101.1719 Q431.397,100.0938 431.397,98.8125 L431.397,97.6563 Q431.397,96.3281 432.0064,95.1875 Q432.6314,94.0313 433.7251,93.4219 Q434.8189,92.7969 436.0532,92.7969 Q436.7876,92.7969 437.4282,92.9688 Q438.0845,93.125 438.6314,93.4844 Z " fill="#000000"/><text fill="#000000" font-family="sans-serif" font-size="14" lengthAdjust="spacing" textLength="62.2412" x="456.3657" y="103.3379">Utilisateur</text><line style="stroke:#181818;stroke-width:0.5;" x1="360.98" x2="581.4927" y1="113.6094" y2="113.6094"/><text fill="#000000" font-family="sans-serif" font-size="14" lengthAdjust="spacing" textLength="79.7617" x="365.98" y="132.1426">+nom: String</text><text fill="#000000" font-family="sans-serif" font-size="14" lengthAdjust="spacing" textLength="85.9824" x="365.98" y="149.752">+email: String</text><text fill="#000000" font-family="sans-serif" font-size="14" lengthAdjust="spacing" textLength="87.5615" x="365.98" y="167.3613">+photo: String</text><text fill="#000000" font-family="sans-serif" font-size="14" lengthAdjust="spacing" textLength="165.3477" x="365.98" y="184.9707">+emailVerifieLe: DateTime</text><text fill="#000000" font-family="sans-serif" font-size="14" lengthAdjust="spacing" textLength="210.5127" x="365.98" y="202.5801">+derniereConnexionLe: DateTime</text></g><!--class Proprietaire--><g class="entity" data-entity="Proprietaire" data-source-line="21" data-uid="ent0011" id="entity_Proprietaire"><rect fill="#F1F1F1" height="145.6563" rx="2.5" ry="2.5" style="stroke:#181818;stroke-width:0.5;" width="172.6924" x="464.98" y="287.6094"/><ellipse cx="510.8936" cy="303.6094" fill="#ADD1B2" rx="11" ry="11" style="stroke:#181818;stroke-width:1;"/><path d="M513.6592,299.4844 Q513.8154,299.2656 514.0029,299.1563 Q514.1904,299.0469 514.4092,299.0469 Q514.7842,299.0469 515.0186,299.3125 Q515.2529,299.5625 515.2529,300.1719 L515.2529,301.625 Q515.2529,302.2344 515.0186,302.5 Q514.7842,302.7656 514.4092,302.7656 Q514.0654,302.7656 513.8623,302.5625 Q513.6592,302.375 513.5498,301.8594 Q513.5029,301.5 513.3154,301.3125 Q512.9873,300.9375 512.3779,300.7188 Q511.7686,300.5 511.1436,300.5 Q510.3779,300.5 509.7373,300.8281 Q509.1123,301.1563 508.6123,301.9063 Q508.1279,302.6563 508.1279,303.6875 L508.1279,304.7813 Q508.1279,306.0156 509.0186,306.8438 Q509.9092,307.6563 511.5029,307.6563 Q512.4404,307.6563 513.0967,307.4063 Q513.4873,307.25 513.9092,306.8125 Q514.1748,306.5469 514.3154,306.4688 Q514.4717,306.3906 514.6748,306.3906 Q515.0029,306.3906 515.2529,306.6563 Q515.5186,306.9063 515.5186,307.25 Q515.5186,307.5938 515.1748,308 Q514.6748,308.5781 513.8779,308.9063 Q512.7998,309.3594 511.5029,309.3594 Q509.9873,309.3594 508.7842,308.7344 Q507.7998,308.2344 507.1123,307.1719 Q506.4248,306.0938 506.4248,304.8125 L506.4248,303.6563 Q506.4248,302.3281 507.0342,301.1875 Q507.6592,300.0313 508.7529,299.4219 Q509.8467,298.7969 511.0811,298.7969 Q511.8154,298.7969 512.4561,298.9688 Q513.1123,299.125 513.6592,299.4844 Z " fill="#000000"/><text fill="#000000" font-family="sans-serif" font-size="14" lengthAdjust="spacing" textLength="72.3652" x="531.3936" y="309.3379">Proprietaire</text><line style="stroke:#181818;stroke-width:0.5;" x1="465.98" x2="636.6724" y1="319.6094" y2="319.6094"/><text fill="#000000" font-family="sans-serif" font-size="14" lengthAdjust="spacing" textLength="71.21" x="470.98" y="338.1426">+bio: String</text><text fill="#000000" font-family="sans-serif" font-size="14" lengthAdjust="spacing" textLength="160.6924" x="470.98" y="355.752">+titreProfessionnel: String</text><text fill="#000000" font-family="sans-serif" font-size="14" lengthAdjust="spacing" textLength="121.7891" x="470.98" y="373.3613">+localisation: String</text><text fill="#000000" font-family="sans-serif" font-size="14" lengthAdjust="spacing" textLength="103.0996" x="470.98" y="390.9707">+siteWeb: String</text><text fill="#000000" font-family="sans-serif" font-size="14" lengthAdjust="spacing" textLength="120.2373" x="470.98" y="408.5801">+urlLinkedin: String</text><text fill="#000000" font-family="sans-serif" font-size="14" lengthAdjust="spacing" textLength="109.334" x="470.98" y="426.1895">+urlGithub: String</text></g><!--class Competence--><g class="entity" data-entity="Competence" data-source-line="32" data-uid="ent0013" id="entity_Competence"><rect fill="#F1F1F1" height="92.8281" rx="2.5" ry="2.5" style="stroke:#181818;stroke-width:0.5;" width="122.1201" x="307.48" y="314.1094"/><ellipse cx="327.3135" cy="330.1094" fill="#ADD1B2" rx="11" ry="11" style="stroke:#181818;stroke-width:1;"/><path d="M330.0792,325.9844 Q330.2354,325.7656 330.4229,325.6563 Q330.6104,325.5469 330.8292,325.5469 Q331.2042,325.5469 331.4385,325.8125 Q331.6729,326.0625 331.6729,326.6719 L331.6729,328.125 Q331.6729,328.7344 331.4385,329 Q331.2042,329.2656 330.8292,329.2656 Q330.4854,329.2656 330.2823,329.0625 Q330.0792,328.875 329.9698,328.3594 Q329.9229,328 329.7354,327.8125 Q329.4073,327.4375 328.7979,327.2188 Q328.1885,327 327.5635,327 Q326.7979,327 326.1573,327.3281 Q325.5323,327.6563 325.0323,328.4063 Q324.5479,329.1563 324.5479,330.1875 L324.5479,331.2813 Q324.5479,332.5156 325.4385,333.3438 Q326.3292,334.1563 327.9229,334.1563 Q328.8604,334.1563 329.5167,333.9063 Q329.9073,333.75 330.3292,333.3125 Q330.5948,333.0469 330.7354,332.9688 Q330.8917,332.8906 331.0948,332.8906 Q331.4229,332.8906 331.6729,333.1563 Q331.9385,333.4063 331.9385,333.75 Q331.9385,334.0938 331.5948,334.5 Q331.0948,335.0781 330.2979,335.4063 Q329.2198,335.8594 327.9229,335.8594 Q326.4073,335.8594 325.2042,335.2344 Q324.2198,334.7344 323.5323,333.6719 Q322.8448,332.5938 322.8448,331.3125 L322.8448,330.1563 Q322.8448,328.8281 323.4542,327.6875 Q324.0792,326.5313 325.1729,325.9219 Q326.2667,325.2969 327.501,325.2969 Q328.2354,325.2969 328.876,325.4688 Q329.5323,325.625 330.0792,325.9844 Z " fill="#000000"/><text fill="#000000" font-family="sans-serif" font-size="14" lengthAdjust="spacing" textLength="79.3789" x="342.3877" y="335.8379">Competence</text><line style="stroke:#181818;stroke-width:0.5;" x1="308.48" x2="428.6001" y1="346.1094" y2="346.1094"/><text fill="#000000" font-family="sans-serif" font-size="14" lengthAdjust="spacing" textLength="79.7617" x="313.48" y="364.6426">+nom: String</text><text fill="#000000" font-family="sans-serif" font-size="14" lengthAdjust="spacing" textLength="110.1201" x="313.48" y="382.252">+categorie: String</text><text fill="#000000" font-family="sans-serif" font-size="14" lengthAdjust="spacing" textLength="85.9961" x="313.48" y="399.8613">+icone: String</text></g><!--class Domaine--><g class="entity" data-entity="Domaine" data-source-line="40" data-uid="ent0015" id="entity_Domaine"><rect fill="#F1F1F1" height="110.4375" rx="2.5" ry="2.5" style="stroke:#181818;stroke-width:0.5;" width="132.2305" x="503.48" y="511.6094"/><ellipse cx="538.3714" cy="527.6094" fill="#ADD1B2" rx="11" ry="11" style="stroke:#181818;stroke-width:1;"/><path d="M541.137,523.4844 Q541.2933,523.2656 541.4808,523.1563 Q541.6683,523.0469 541.887,523.0469 Q542.262,523.0469 542.4964,523.3125 Q542.7308,523.5625 542.7308,524.1719 L542.7308,525.625 Q542.7308,526.2344 542.4964,526.5 Q542.262,526.7656 541.887,526.7656 Q541.5433,526.7656 541.3402,526.5625 Q541.137,526.375 541.0277,525.8594 Q540.9808,525.5 540.7933,525.3125 Q540.4652,524.9375 539.8558,524.7188 Q539.2464,524.5 538.6214,524.5 Q537.8558,524.5 537.2152,524.8281 Q536.5902,525.1563 536.0902,525.9063 Q535.6058,526.6563 535.6058,527.6875 L535.6058,528.7813 Q535.6058,530.0156 536.4964,530.8438 Q537.387,531.6563 538.9808,531.6563 Q539.9183,531.6563 540.5745,531.4063 Q540.9652,531.25 541.387,530.8125 Q541.6527,530.5469 541.7933,530.4688 Q541.9495,530.3906 542.1527,530.3906 Q542.4808,530.3906 542.7308,530.6563 Q542.9964,530.9063 542.9964,531.25 Q542.9964,531.5938 542.6527,532 Q542.1527,532.5781 541.3558,532.9063 Q540.2777,533.3594 538.9808,533.3594 Q537.4652,533.3594 536.262,532.7344 Q535.2777,532.2344 534.5902,531.1719 Q533.9027,530.0938 533.9027,528.8125 L533.9027,527.6563 Q533.9027,526.3281 534.512,525.1875 Q535.137,524.0313 536.2308,523.4219 Q537.3245,522.7969 538.5589,522.7969 Q539.2933,522.7969 539.9339,522.9688 Q540.5902,523.125 541.137,523.4844 Z " fill="#000000"/><text fill="#000000" font-family="sans-serif" font-size="14" lengthAdjust="spacing" textLength="56.0273" x="556.7917" y="533.3379">Domaine</text><line style="stroke:#181818;stroke-width:0.5;" x1="504.48" x2="634.7105" y1="543.6094" y2="543.6094"/><text fill="#000000" font-family="sans-serif" font-size="14" lengthAdjust="spacing" textLength="79.7617" x="509.48" y="562.1426">+nom: String</text><text fill="#000000" font-family="sans-serif" font-size="14" lengthAdjust="spacing" textLength="78.21" x="509.48" y="579.752">+slug: String</text><text fill="#000000" font-family="sans-serif" font-size="14" lengthAdjust="spacing" textLength="120.2305" x="509.48" y="597.3613">+description: String</text><text fill="#000000" font-family="sans-serif" font-size="14" lengthAdjust="spacing" textLength="98.4443" x="509.48" y="614.9707">+couleur: String</text></g><!--class NiveauCompetence--><g class="entity" data-entity="NiveauCompetence" data-source-line="49" data-uid="ent0017" id="entity_NiveauCompetence"><rect fill="#F1F1F1" height="75.2188" rx="2.5" ry="2.5" style="stroke:#181818;stroke-width:0.5;" width="154.958" x="310.98" y="529.1094"/><ellipse cx="325.98" cy="545.1094" fill="#ADD1B2" rx="11" ry="11" style="stroke:#181818;stroke-width:1;"/><path d="M328.7456,540.9844 Q328.9019,540.7656 329.0894,540.6563 Q329.2769,540.5469 329.4956,540.5469 Q329.8706,540.5469 330.105,540.8125 Q330.3394,541.0625 330.3394,541.6719 L330.3394,543.125 Q330.3394,543.7344 330.105,544 Q329.8706,544.2656 329.4956,544.2656 Q329.1519,544.2656 328.9487,544.0625 Q328.7456,543.875 328.6362,543.3594 Q328.5894,543 328.4019,542.8125 Q328.0737,542.4375 327.4644,542.2188 Q326.855,542 326.23,542 Q325.4644,542 324.8237,542.3281 Q324.1987,542.6563 323.6987,543.4063 Q323.2144,544.1563 323.2144,545.1875 L323.2144,546.2813 Q323.2144,547.5156 324.105,548.3438 Q324.9956,549.1563 326.5894,549.1563 Q327.5269,549.1563 328.1831,548.9063 Q328.5737,548.75 328.9956,548.3125 Q329.2612,548.0469 329.4019,547.9688 Q329.5581,547.8906 329.7612,547.8906 Q330.0894,547.8906 330.3394,548.1563 Q330.605,548.4063 330.605,548.75 Q330.605,549.0938 330.2612,549.5 Q329.7612,550.0781 328.9644,550.4063 Q327.8862,550.8594 326.5894,550.8594 Q325.0737,550.8594 323.8706,550.2344 Q322.8862,549.7344 322.1987,548.6719 Q321.5112,547.5938 321.5112,546.3125 L321.5112,545.1563 Q321.5112,543.8281 322.1206,542.6875 Q322.7456,541.5313 323.8394,540.9219 Q324.9331,540.2969 326.1675,540.2969 Q326.9019,540.2969 327.5425,540.4688 Q328.1987,540.625 328.7456,540.9844 Z " fill="#000000"/><text fill="#000000" font-family="sans-serif" font-size="14" lengthAdjust="spacing" textLength="122.958" x="339.98" y="550.8379">NiveauCompetence</text><line style="stroke:#181818;stroke-width:0.5;" x1="311.98" x2="464.938" y1="561.1094" y2="561.1094"/><text fill="#000000" font-family="sans-serif" font-size="14" lengthAdjust="spacing" textLength="100.7891" x="316.98" y="579.6426">+niveau: Niveau</text><text fill="#000000" font-family="sans-serif" font-size="14" lengthAdjust="spacing" textLength="137.375" x="316.98" y="597.252">+estSurligne: Boolean</text></g><!--class Niveau--><g class="entity" data-entity="Niveau" data-source-line="2" data-uid="ent0002" id="entity_Niveau"><rect fill="#F1F1F1" height="110.4375" rx="2.5" ry="2.5" style="stroke:#181818;stroke-width:0.5;" width="93.7031" x="341.48" y="684.6094"/><ellipse cx="364.6358" cy="700.6094" fill="#EB937F" rx="11" ry="11" style="stroke:#181818;stroke-width:1;"/><path d="M363.4952,701.4063 L363.4952,703.9063 L367.8233,703.9063 L367.8233,702.9844 Q367.8233,702.375 368.0577,702.1094 Q368.3077,701.8438 368.6827,701.8438 Q369.0577,701.8438 369.2921,702.1094 Q369.5264,702.375 369.5264,702.9844 L369.5264,705.6094 L361.5264,705.6094 Q360.9014,705.6094 360.6358,705.375 Q360.3858,705.1406 360.3858,704.75 Q360.3858,704.375 360.6514,704.1406 Q360.9171,703.9063 361.5264,703.9063 L361.7921,703.9063 L361.7921,697.25 L361.5264,697.25 Q360.9014,697.25 360.6358,697.0156 Q360.3858,696.7813 360.3858,696.3906 Q360.3858,696.0156 360.6358,695.7813 Q360.9014,695.5469 361.5264,695.5469 L369.1514,695.5469 L369.1514,698.1406 Q369.1514,698.75 368.9171,699.0156 Q368.6983,699.2656 368.3077,699.2656 Q367.9327,699.2656 367.6983,699.0156 Q367.4639,698.75 367.4639,698.1406 L367.4639,697.25 L363.4952,697.25 L363.4952,699.7031 L364.9796,699.7031 Q364.9796,699.0469 365.1046,698.8594 Q365.3702,698.4531 365.8389,698.4531 Q366.2139,698.4531 366.4483,698.7188 Q366.6827,698.9688 366.6827,699.5781 L366.6827,701.5469 Q366.6827,702.0938 366.5577,702.2813 Q366.2921,702.6719 365.8389,702.6719 Q365.3702,702.6719 365.1046,702.2656 Q364.9796,702.0781 364.9796,701.4063 L363.4952,701.4063 Z " fill="#000000"/><text fill="#000000" font-family="sans-serif" font-size="14" lengthAdjust="spacing" textLength="43.5791" x="380.4482" y="706.3379">Niveau</text><line style="stroke:#181818;stroke-width:0.5;" x1="342.48" x2="434.1831" y1="716.6094" y2="716.6094"/><text fill="#000000" font-family="sans-serif" font-size="14" lengthAdjust="spacing" textLength="56.8203" x="347.48" y="735.1426">D&#233;butant</text><text fill="#000000" font-family="sans-serif" font-size="14" lengthAdjust="spacing" textLength="81.7031" x="347.48" y="752.752">Interm&#233;diaire</text><text fill="#000000" font-family="sans-serif" font-size="14" lengthAdjust="spacing" textLength="46.6963" x="347.48" y="770.3613">Avanc&#233;</text><text fill="#000000" font-family="sans-serif" font-size="14" lengthAdjust="spacing" textLength="40.4619" x="347.48" y="787.9707">Expert</text></g><!--class TypeMedia--><g class="entity" data-entity="TypeMedia" data-source-line="9" data-uid="ent0003" id="entity_TypeMedia"><rect fill="#F1F1F1" height="128.0469" rx="2.5" ry="2.5" style="stroke:#181818;stroke-width:0.5;" width="101.2549" x="857.98" y="81.6094"/><ellipse cx="872.98" cy="97.6094" fill="#EB937F" rx="11" ry="11" style="stroke:#181818;stroke-width:1;"/><path d="M871.8394,98.4063 L871.8394,100.9063 L876.1675,100.9063 L876.1675,99.9844 Q876.1675,99.375 876.4019,99.1094 Q876.6519,98.8438 877.0269,98.8438 Q877.4019,98.8438 877.6363,99.1094 Q877.8706,99.375 877.8706,99.9844 L877.8706,102.6094 L869.8706,102.6094 Q869.2456,102.6094 868.98,102.375 Q868.73,102.1406 868.73,101.75 Q868.73,101.375 868.9956,101.1406 Q869.2613,100.9063 869.8706,100.9063 L870.1363,100.9063 L870.1363,94.25 L869.8706,94.25 Q869.2456,94.25 868.98,94.0156 Q868.73,93.7813 868.73,93.3906 Q868.73,93.0156 868.98,92.7813 Q869.2456,92.5469 869.8706,92.5469 L877.4956,92.5469 L877.4956,95.1406 Q877.4956,95.75 877.2613,96.0156 Q877.0425,96.2656 876.6519,96.2656 Q876.2769,96.2656 876.0425,96.0156 Q875.8081,95.75 875.8081,95.1406 L875.8081,94.25 L871.8394,94.25 L871.8394,96.7031 L873.3238,96.7031 Q873.3238,96.0469 873.4488,95.8594 Q873.7144,95.4531 874.1831,95.4531 Q874.5581,95.4531 874.7925,95.7188 Q875.0269,95.9688 875.0269,96.5781 L875.0269,98.5469 Q875.0269,99.0938 874.9019,99.2813 Q874.6363,99.6719 874.1831,99.6719 Q873.7144,99.6719 873.4488,99.2656 Q873.3238,99.0781 873.3238,98.4063 L871.8394,98.4063 Z " fill="#000000"/><text fill="#000000" font-family="sans-serif" font-size="14" lengthAdjust="spacing" textLength="69.2549" x="886.98" y="103.3379">TypeMedia</text><line style="stroke:#181818;stroke-width:0.5;" x1="858.98" x2="958.2349" y1="113.6094" y2="113.6094"/><text fill="#000000" font-family="sans-serif" font-size="14" lengthAdjust="spacing" textLength="38.9102" x="863.98" y="132.1426">Image</text><text fill="#000000" font-family="sans-serif" font-size="14" lengthAdjust="spacing" textLength="35.8066" x="863.98" y="149.752">Vid&#233;o</text><text fill="#000000" font-family="sans-serif" font-size="14" lengthAdjust="spacing" textLength="63.8066" x="863.98" y="167.3613">Document</text><text fill="#000000" font-family="sans-serif" font-size="14" lengthAdjust="spacing" textLength="26.4688" x="863.98" y="184.9707">Lien</text><text fill="#000000" font-family="sans-serif" font-size="14" lengthAdjust="spacing" textLength="52.1582" x="863.98" y="202.5801">Youtube</text></g><!--class TypeRessource--><g class="entity" data-entity="TypeRessource" data-source-line="17" data-uid="ent0004" id="entity_TypeRessource"><rect fill="#F1F1F1" height="110.4375" rx="2.5" ry="2.5" style="stroke:#181818;stroke-width:0.5;" width="130.041" x="994.48" y="90.6094"/><ellipse cx="1009.48" cy="106.6094" fill="#EB937F" rx="11" ry="11" style="stroke:#181818;stroke-width:1;"/><path d="M1008.3394,107.4063 L1008.3394,109.9063 L1012.6675,109.9063 L1012.6675,108.9844 Q1012.6675,108.375 1012.9019,108.1094 Q1013.1519,107.8438 1013.5269,107.8438 Q1013.9019,107.8438 1014.1363,108.1094 Q1014.3706,108.375 1014.3706,108.9844 L1014.3706,111.6094 L1006.3706,111.6094 Q1005.7456,111.6094 1005.48,111.375 Q1005.23,111.1406 1005.23,110.75 Q1005.23,110.375 1005.4956,110.1406 Q1005.7613,109.9063 1006.3706,109.9063 L1006.6363,109.9063 L1006.6363,103.25 L1006.3706,103.25 Q1005.7456,103.25 1005.48,103.0156 Q1005.23,102.7813 1005.23,102.3906 Q1005.23,102.0156 1005.48,101.7813 Q1005.7456,101.5469 1006.3706,101.5469 L1013.9956,101.5469 L1013.9956,104.1406 Q1013.9956,104.75 1013.7613,105.0156 Q1013.5425,105.2656 1013.1519,105.2656 Q1012.7769,105.2656 1012.5425,105.0156 Q1012.3081,104.75 1012.3081,104.1406 L1012.3081,103.25 L1008.3394,103.25 L1008.3394,105.7031 L1009.8238,105.7031 Q1009.8238,105.0469 1009.9488,104.8594 Q1010.2144,104.4531 1010.6831,104.4531 Q1011.0581,104.4531 1011.2925,104.7188 Q1011.5269,104.9688 1011.5269,105.5781 L1011.5269,107.5469 Q1011.5269,108.0938 1011.4019,108.2813 Q1011.1363,108.6719 1010.6831,108.6719 Q1010.2144,108.6719 1009.9488,108.2656 Q1009.8238,108.0781 1009.8238,107.4063 L1008.3394,107.4063 Z " fill="#000000"/><text fill="#000000" font-family="sans-serif" font-size="14" lengthAdjust="spacing" textLength="98.041" x="1023.48" y="112.3379">TypeRessource</text><line style="stroke:#181818;stroke-width:0.5;" x1="995.48" x2="1123.521" y1="122.6094" y2="122.6094"/><text fill="#000000" font-family="sans-serif" font-size="14" lengthAdjust="spacing" textLength="63.8066" x="1000.48" y="141.1426">Document</text><text fill="#000000" font-family="sans-serif" font-size="14" lengthAdjust="spacing" textLength="38.9102" x="1000.48" y="158.752">Image</text><text fill="#000000" font-family="sans-serif" font-size="14" lengthAdjust="spacing" textLength="46.6826" x="1000.48" y="176.3613">Archive</text><text fill="#000000" font-family="sans-serif" font-size="14" lengthAdjust="spacing" textLength="26.4688" x="1000.48" y="193.9707">Lien</text></g><!--class Timestamps--><g class="entity" data-entity="Timestamps" data-source-line="25" data-uid="ent0005" id="entity_Timestamps"><rect fill="#F1F1F1" height="75.2188" rx="2.5" ry="2.5" style="stroke:#181818;stroke-width:0.5;" width="168.8027" x="93.98" y="702.1094"/><ellipse cx="136.2358" cy="718.1094" fill="#A9DCDF" rx="11" ry="11" style="stroke:#181818;stroke-width:1;"/><path d="M138.4233,719.875 L134.2826,719.875 L133.8608,720.9063 L134.2826,720.9063 Q134.892,720.9063 135.1576,721.1406 Q135.4233,721.375 135.4233,721.7656 Q135.4233,722.1406 135.1576,722.375 Q134.892,722.6094 134.2826,722.6094 L131.9858,722.6094 Q131.3764,722.6094 131.1264,722.375 Q130.8608,722.1406 130.8608,721.75 Q130.8608,721.375 131.142,721.1406 Q131.4076,720.8906 132.0326,720.9063 L134.7045,714.25 L133.5951,714.25 Q132.9858,714.25 132.7201,714.0156 Q132.4545,713.7813 132.4545,713.3906 Q132.4545,713.0156 132.7201,712.7813 Q132.9858,712.5469 133.5951,712.5469 L137.267,712.5469 L140.6576,720.9063 Q141.2514,720.9063 141.4389,721.0469 Q141.8295,721.3125 141.8295,721.7656 Q141.8295,722.1406 141.5639,722.375 Q141.3139,722.6094 140.7045,722.6094 L138.4076,722.6094 Q137.7983,722.6094 137.5326,722.375 Q137.267,722.1406 137.267,721.75 Q137.267,721.375 137.5326,721.1406 Q137.7983,720.9063 138.4076,720.9063 L138.8295,720.9063 L138.4233,719.875 Z M137.7045,718.1719 L136.3451,714.7969 L134.9701,718.1719 L137.7045,718.1719 Z " fill="#000000"/><text fill="#000000" font-family="sans-serif" font-size="14" font-style="italic" lengthAdjust="spacing" textLength="76.2344" x="156.2926" y="723.8379">Timestamps</text><line style="stroke:#181818;stroke-width:0.5;" x1="94.98" x2="261.7827" y1="734.1094" y2="734.1094"/><text fill="#000000" font-family="sans-serif" font-size="14" lengthAdjust="spacing" textLength="156.8027" x="99.98" y="752.6426">+dateCreation: DateTime</text><text fill="#000000" font-family="sans-serif" font-size="14" lengthAdjust="spacing" textLength="138.1201" x="99.98" y="770.252">+dateModif: DateTime</text></g><!--class SoftDeletes--><g class="entity" data-entity="SoftDeletes" data-source-line="30" data-uid="ent0006" id="entity_SoftDeletes"><rect fill="#F1F1F1" height="57.6094" rx="2.5" ry="2.5" style="stroke:#181818;stroke-width:0.5;" width="193.7129" x="81.48" y="537.6094"/><ellipse cx="137.9004" cy="553.6094" fill="#A9DCDF" rx="11" ry="11" style="stroke:#181818;stroke-width:1;"/><path d="M140.0879,555.375 L135.9473,555.375 L135.5254,556.4063 L135.9473,556.4063 Q136.5567,556.4063 136.8223,556.6406 Q137.0879,556.875 137.0879,557.2656 Q137.0879,557.6406 136.8223,557.875 Q136.5567,558.1094 135.9473,558.1094 L133.6504,558.1094 Q133.041,558.1094 132.791,557.875 Q132.5254,557.6406 132.5254,557.25 Q132.5254,556.875 132.8067,556.6406 Q133.0723,556.3906 133.6973,556.4063 L136.3692,549.75 L135.2598,549.75 Q134.6504,549.75 134.3848,549.5156 Q134.1192,549.2813 134.1192,548.8906 Q134.1192,548.5156 134.3848,548.2813 Q134.6504,548.0469 135.2598,548.0469 L138.9317,548.0469 L142.3223,556.4063 Q142.916,556.4063 143.1035,556.5469 Q143.4942,556.8125 143.4942,557.2656 Q143.4942,557.6406 143.2285,557.875 Q142.9785,558.1094 142.3692,558.1094 L140.0723,558.1094 Q139.4629,558.1094 139.1973,557.875 Q138.9317,557.6406 138.9317,557.25 Q138.9317,556.875 139.1973,556.6406 Q139.4629,556.4063 140.0723,556.4063 L140.4942,556.4063 L140.0879,555.375 Z M139.3692,553.6719 L138.0098,550.2969 L136.6348,553.6719 L139.3692,553.6719 Z " fill="#000000"/><text fill="#000000" font-family="sans-serif" font-size="14" font-style="italic" lengthAdjust="spacing" textLength="72.3721" x="158.4004" y="559.3379">SoftDeletes</text><line style="stroke:#181818;stroke-width:0.5;" x1="82.48" x2="274.1929" y1="569.6094" y2="569.6094"/><text fill="#000000" font-family="sans-serif" font-size="14" lengthAdjust="spacing" textLength="181.7129" x="87.48" y="588.1426">+dateSuppression: DateTime</text></g><g class="entity" data-entity="N_SINGLETON" data-source-line="69" data-uid="ent0023" id="entity_N_SINGLETON"><path d="M670.48,116.1094 L670.48,175.1641 A0,0 0 0 0 670.48,175.1641 L716.18,175.1641 L617.54,287.4494 L724.18,175.1641 L822.2798,175.1641 A0,0 0 0 0 822.2798,175.1641 L822.2798,126.1094 L812.2798,116.1094 L670.48,116.1094 A0,0 0 0 0 670.48,116.1094" fill="#FEFFDD" style="stroke:#181818;stroke-width:0.5;"/><path d="M812.2798,116.1094 L812.2798,126.1094 L822.2798,126.1094 L812.2798,116.1094" fill="#FEFFDD" style="stroke:#181818;stroke-width:0.5;"/><text fill="#000000" font-family="sans-serif" font-size="13" lengthAdjust="spacing" textLength="61.4326" x="676.48" y="134.6045">Singleton :</text><text fill="#000000" font-family="sans-serif" font-size="13" lengthAdjust="spacing" textLength="130.7998" x="676.48" y="150.9561">au plus un Proprietaire</text><text fill="#000000" font-family="sans-serif" font-size="13" lengthAdjust="spacing" textLength="93.9326" x="676.48" y="167.3076">dans le syst&#232;me</text></g><!--link SoftDeletes to Timestamps--><g class="link" data-entity-1="SoftDeletes" data-entity-2="Timestamps" data-source-line="34" data-uid="lnk7" id="link_SoftDeletes_Timestamps"><path codeLine="34" d="M178.48,595.8494 C178.48,624.8694 178.48,652.1994 178.48,683.9694" fill="none" id="SoftDeletes-to-Timestamps" style="stroke:#181818;stroke-width:1;"/><polygon fill="none" points="178.48,701.9694,184.48,683.9694,172.48,683.9694,178.48,701.9694" style="stroke:#181818;stroke-width:1;"/></g><!--link Utilisateur to Timestamps--><g class="link" data-entity-1="Utilisateur" data-entity-2="Timestamps" data-source-line="19" data-uid="lnk10" id="link_Utilisateur_Timestamps"><path codeLine="19" d="M359.87,199.2194 C251.12,257.8094 93.77,364.0494 34.48,511.6094 C12.28,566.8694 6,593.3094 34.48,645.6094 C47.72,669.9194 54.9563,679.4937 78.3963,693.7337" fill="none" id="Utilisateur-to-Timestamps" style="stroke:#181818;stroke-width:1;"/><polygon fill="none" points="93.78,703.0794,81.5116,688.6058,75.2811,698.8616,93.78,703.0794" style="stroke:#181818;stroke-width:1;"/></g><!--link Utilisateur to Proprietaire--><g class="link" data-entity-1="Utilisateur" data-entity-2="Proprietaire" data-source-line="30" data-uid="lnk12" id="link_Utilisateur_Proprietaire"><path codeLine="30" d="M495.16,209.6494 C504.33,234.0594 514.88,262.1494 524.35,287.3694" fill="none" id="Utilisateur-Proprietaire" style="stroke:#181818;stroke-width:1;"/><text fill="#000000" font-family="sans-serif" font-size="13" lengthAdjust="spacing" textLength="65.7554" x="512.48" y="254.1045">proprietaire</text><text fill="#000000" font-family="sans-serif" font-size="13" lengthAdjust="spacing" textLength="7.23" x="490.4064" y="231.0405">1</text><text fill="#000000" font-family="sans-serif" font-size="13" lengthAdjust="spacing" textLength="21.6836" x="499.5205" y="276.5225">0..1</text></g><!--link Competence to Timestamps--><g class="link" data-entity-1="Competence" data-entity-2="Timestamps" data-source-line="38" data-uid="lnk14" id="link_Competence_Timestamps"><path codeLine="38" d="M307.25,371.9794 C234.64,387.9094 116.73,426.0794 63.48,511.6094 C32,562.1694 37.82,591.8594 63.48,645.6094 C74.32,668.3194 79.269,676.5243 99.079,691.2643" fill="none" id="Competence-to-Timestamps" style="stroke:#181818;stroke-width:1;"/><polygon fill="none" points="113.52,702.0094,102.6607,686.4506,95.4973,696.0779,113.52,702.0094" style="stroke:#181818;stroke-width:1;"/></g><!--link Domaine to Timestamps--><g class="link" data-entity-1="Domaine" data-entity-2="Timestamps" data-source-line="47" data-uid="lnk16" id="link_Domaine_Timestamps"><path codeLine="47" d="M518.04,621.6094 C507.32,630.6594 495.58,639.1794 483.48,645.6094 C419.23,679.7594 394.05,663.2894 324.48,684.6094 C304.46,690.7494 300.0756,691.9387 280.1356,699.2287" fill="none" id="Domaine-to-Timestamps" style="stroke:#181818;stroke-width:1;"/><polygon fill="none" points="263.23,705.4094,282.1958,704.8639,278.0754,693.5935,263.23,705.4094" style="stroke:#181818;stroke-width:1;"/></g><!--link NiveauCompetence to Timestamps--><g class="link" data-entity-1="NiveauCompetence" data-entity-2="Timestamps" data-source-line="54" data-uid="lnk18" id="link_NiveauCompetence_Timestamps"><path codeLine="54" d="M344.07,604.1894 C328.14,617.2794 310.02,632.1294 293.48,645.6094 C270.59,664.2594 259.0619,673.6081 237.8819,690.7181" fill="none" id="NiveauCompetence-to-Timestamps" style="stroke:#181818;stroke-width:1;"/><polygon fill="none" points="223.88,702.0294,241.6524,695.3854,234.1115,686.0508,223.88,702.0294" style="stroke:#181818;stroke-width:1;"/></g><!--link NiveauCompetence to Niveau--><g class="link" data-entity-1="NiveauCompetence" data-entity-2="Niveau" data-source-line="60" data-uid="lnk19" id="link_NiveauCompetence_Niveau"><path codeLine="60" d="M388.48,604.2894 C388.48,627.6494 388.48,652.3194 388.48,678.4494" fill="none" id="NiveauCompetence-to-Niveau" style="stroke:#181818;stroke-width:1;"/><polygon fill="#181818" points="388.48,684.4494,392.48,675.4494,388.48,679.4494,384.48,675.4494,388.48,684.4494" style="stroke:#181818;stroke-width:1;"/></g><!--link Proprietaire to NiveauCompetence--><g class="link" data-entity-1="Proprietaire" data-entity-2="NiveauCompetence" data-source-line="65" data-uid="lnk20" id="link_Proprietaire_NiveauCompetence"><path codeLine="65" d="M493.78,433.8194 C468.05,466.0294 438.84,502.5794 417.73,529.0094" fill="none" id="Proprietaire-NiveauCompetence" style="stroke:#181818;stroke-width:1;"/><text fill="#000000" font-family="sans-serif" font-size="13" lengthAdjust="spacing" textLength="77.3208" x="470.48" y="478.1045">comp&#233;tences</text><text fill="#000000" font-family="sans-serif" font-size="13" lengthAdjust="spacing" textLength="7.23" x="481.1629" y="454.8331">1</text><text fill="#000000" font-family="sans-serif" font-size="13" lengthAdjust="spacing" textLength="19.5127" x="402.2974" y="518.3938">0..*</text></g><!--link Competence to NiveauCompetence--><g class="link" data-entity-1="Competence" data-entity-2="NiveauCompetence" data-source-line="66" data-uid="lnk21" id="link_Competence_NiveauCompetence"><path codeLine="66" d="M362.62,407.1194 C360.73,429.6294 359.92,457.1594 363.48,481.6094 C365.78,497.4194 370.4,514.3894 375.05,528.9094" fill="none" id="Competence-NiveauCompetence" style="stroke:#181818;stroke-width:1;"/><text fill="#000000" font-family="sans-serif" font-size="13" lengthAdjust="spacing" textLength="44.8081" x="364.48" y="478.1045">niveaux</text><text fill="#000000" font-family="sans-serif" font-size="13" lengthAdjust="spacing" textLength="7.23" x="354.3115" y="428.3168">1</text><text fill="#000000" font-family="sans-serif" font-size="13" lengthAdjust="spacing" textLength="19.5127" x="352.015" y="518.276">0..*</text></g><!--link Proprietaire to Domaine--><g class="link" data-entity-1="Proprietaire" data-entity-2="Domaine" data-source-line="67" data-uid="lnk22" id="link_Proprietaire_Domaine"><path codeLine="67" d="M557.85,433.8194 C560.11,459.3794 562.6,487.6794 564.7,511.4694" fill="none" id="Proprietaire-Domaine" style="stroke:#181818;stroke-width:1;"/><text fill="#000000" font-family="sans-serif" font-size="13" lengthAdjust="spacing" textLength="56.3672" x="562.48" y="478.1045">domaines</text><text fill="#000000" font-family="sans-serif" font-size="13" lengthAdjust="spacing" textLength="7.23" x="551.1394" y="454.8331">1</text><text fill="#000000" font-family="sans-serif" font-size="13" lengthAdjust="spacing" textLength="19.5127" x="543.8885" y="500.8692">0..*</text></g><rect fill="#DDDDDD" height="84.4375" rx="7.5" ry="7.5" style="stroke:#000000;stroke-width:1;" width="273.4502" x="422.0354" y="813.0469"/><text fill="#000000" font-family="sans-serif" font-size="14" font-weight="bold" lengthAdjust="spacing" textLength="56.7656" x="430.9251" y="834.5801">Notation</text><text fill="#000000" font-family="sans-serif" font-size="14" font-weight="bold" lengthAdjust="spacing" textLength="84" x="506.8245" y="834.5801">Signification</text><text fill="#000000" font-family="sans-serif" font-size="14" lengthAdjust="spacing" textLength="65.7822" x="430.9251" y="852.1895">"1" -- "0..*"</text><text fill="#000000" font-family="sans-serif" font-size="14" lengthAdjust="spacing" textLength="89.4893" x="506.8245" y="852.1895">Un &#224; plusieurs</text><text fill="#000000" font-family="sans-serif" font-size="14" lengthAdjust="spacing" textLength="68.1201" x="430.9251" y="869.7988">"1" -- "0..1"</text><text fill="#000000" font-family="sans-serif" font-size="14" lengthAdjust="spacing" textLength="119.0752" x="506.8245" y="869.7988">Un &#224; un (optionnel)</text><text fill="#000000" font-family="sans-serif" font-size="14" lengthAdjust="spacing" textLength="14.2939" x="430.9251" y="887.4082">"--</text><text fill="#000000" font-family="sans-serif" font-size="14" lengthAdjust="spacing" textLength="8.1758" x="502.9348" y="887.4082">&gt;</text><text fill="#000000" font-family="sans-serif" font-size="14" lengthAdjust="spacing" textLength="52.917" x="633.679" y="887.4082">H&#233;ritage</text><line style="stroke:#000000;stroke-width:1;" x1="427.0354" x2="690.4856" y1="820.0469" y2="820.0469"/><line style="stroke:#000000;stroke-width:1;" x1="427.0354" x2="690.4856" y1="837.6563" y2="837.6563"/><line style="stroke:#000000;stroke-width:1;" x1="427.0354" x2="690.4856" y1="855.2656" y2="855.2656"/><line style="stroke:#000000;stroke-width:1;" x1="427.0354" x2="690.4856" y1="872.875" y2="872.875"/><line style="stroke:#000000;stroke-width:1;" x1="427.0354" x2="690.4856" y1="890.4844" y2="890.4844"/><line style="stroke:#000000;stroke-width:1;" x1="427.0354" x2="427.0354" y1="820.0469" y2="890.4844"/><line style="stroke:#000000;stroke-width:1;" x1="502.9348" x2="502.9348" y1="820.0469" y2="890.4844"/><line style="stroke:#000000;stroke-width:1;" x1="629.7893" x2="629.7893" y1="820.0469" y2="890.4844"/><line style="stroke:#000000;stroke-width:1;" x1="690.4856" x2="690.4856" y1="820.0469" y2="890.4844"/><!--SRC=[fLNDJjj04BxlKqnpwA-8u6e9f1GGHKfDLKDxGK8RUt16MUzQk-CMsl0kFPRdo8jrx2J4SG9LgK_hcMzclczdF6PYWt31P2Xenie7U0cVlBicezGBigcfCeIhaGwuaneTGlzxo9GQarYnAFaM2Yn6w8CA4xAbzhg0KgSJdMF2jvBQOyhQvWPRW2RHWDdJg68yJPrDw0V2hbABKEWDAXwZPRgcL3Cv-y2g1pf0xOMVIi4yLPk_c46UTs1T4K4YDMo-i62XoNHivTYnsuRxWbwAun0ZE9B4vrJWmfsXjuGU3vsrU2FSEfYxcbURqSxEz01gPs1Tb655MnILdf0rUNpWFQ8k7oRsMAl74AWksXLXNAgRQkBjk08nViLHnrfvCoGxmOpifkU4U5or8pO4zVPw8Wfwk_s-dDPKH52sNbTI3rrH8gDDyOa6IQinTnBSiPDC27O9jJ8-Ui57JbffdoePJ9LtJ1c6r5EvvJ9JLndHtsMohF8eZPY-eQwsNK7ZY1Q0vVW5JgGDbDUQtpjdKDjbgOrCtPg2UWNx__n8q75yyH4-7my7vwTdSVAyB5le7Ip5FPVNVr9QcyxMuBxjRLvc91qkojbzynPKo_FNm7adRvugjnoJ2BBvIIR4EXPOGlM2PDboqQNL5PIc2b3PjI_hqcRQ1f2D6cu3ptuNs6p2-2evZK-6n-TdiMgTeTzVYrRAO8usWv5ZTeLCqdGVOiVptIhdHCPjjModDQ13VmeN5cQ_6dBK_2WsK7ihbB1_xPflIDRLcoMqcLOvV9ZTU-9wqKzLpMfEJlq1]--></g></svg>