<svg xmlns="http://www.w3.org/2000/svg" xmlns:xlink="http://www.w3.org/1999/xlink" contentStyleType="text/css" data-diagram-type="CLASS" height="1215px" preserveAspectRatio="none" style="width:967px;height:1215px;background:#FFFFFF;" version="1.1" viewBox="0 0 967 1215" width="967px" zoomAndPan="magnify"><title>Blog - Publications &amp; Interactions</title><defs/><g><text fill="#000000" font-family="sans-serif" font-size="14" font-weight="bold" lengthAdjust="spacing" textLength="224.0205" x="364.5103" y="24.5332">Blog - Publications &amp; Interactions</text><!--cluster Posts--><g class="cluster" data-entity="Posts" data-source-line="9" data-uid="ent0008" id="cluster_Posts"><rect fill="none" height="562" rx="2.5" ry="2.5" style="stroke:#000000;stroke-width:1.5;" width="542" x="117" y="219.6094"/><text fill="#000000" font-family="sans-serif" font-size="14" font-weight="bold" lengthAdjust="spacing" textLength="180.4756" x="297.7622" y="236.1426">Publications &amp; Interactions</text></g><!--class Publication--><g class="entity" data-entity="Publication" data-source-line="11" data-uid="ent0009" id="entity_Publication"><rect fill="#F1F1F1" height="216.0938" rx="2.5" ry="2.5" style="stroke:#181818;stroke-width:0.5;" width="164.9199" x="477.5" y="255.6094"/><ellipse cx="521.4938" cy="271.6094" fill="#ADD1B2" rx="11" ry="11" style="stroke:#181818;stroke-width:1;"/><path d="M524.2594,267.4844 Q524.4157,267.2656 524.6032,267.1563 Q524.7907,267.0469 525.0094,267.0469 Q525.3844,267.0469 525.6188,267.3125 Q525.8532,267.5625 525.8532,268.1719 L525.8532,269.625 Q525.8532,270.2344 525.6188,270.5 Q525.3844,270.7656 525.0094,270.7656 Q524.6657,270.7656 524.4625,270.5625 Q524.2594,270.375 524.15,269.8594 Q524.1032,269.5 523.9157,269.3125 Q523.5875,268.9375 522.9782,268.7188 Q522.3688,268.5 521.7438,268.5 Q520.9782,268.5 520.3375,268.8281 Q519.7125,269.1563 519.2125,269.9063 Q518.7282,270.6563 518.7282,271.6875 L518.7282,272.7813 Q518.7282,274.0156 519.6188,274.8438 Q520.5094,275.6563 522.1032,275.6563 Q523.0407,275.6563 523.6969,275.4063 Q524.0875,275.25 524.5094,274.8125 Q524.775,274.5469 524.9157,274.4688 Q525.0719,274.3906 525.275,274.3906 Q525.6032,274.3906 525.8532,274.6563 Q526.1188,274.9063 526.1188,275.25 Q526.1188,275.5938 525.775,276 Q525.275,276.5781 524.4782,276.9063 Q523.4,277.3594 522.1032,277.3594 Q520.5875,277.3594 519.3844,276.7344 Q518.4,276.2344 517.7125,275.1719 Q517.025,274.0938 517.025,272.8125 L517.025,271.6563 Q517.025,270.3281 517.6344,269.1875 Q518.2594,268.0313 519.3532,267.4219 Q520.4469,266.7969 521.6813,266.7969 Q522.4157,266.7969 523.0563,266.9688 Q523.7125,267.125 524.2594,267.4844 Z " fill="#000000"/><text fill="#000000" font-family="sans-serif" font-size="14" lengthAdjust="spacing" textLength="68.4893" x="541.9369" y="277.3379">Publication</text><line style="stroke:#181818;stroke-width:0.5;" x1="478.5" x2="641.4199" y1="287.6094" y2="287.6094"/><text fill="#000000" font-family="sans-serif" font-size="14" lengthAdjust="spacing" textLength="75.8652" x="483.5" y="306.1426">+titre: String</text><text fill="#000000" font-family="sans-serif" font-size="14" lengthAdjust="spacing" textLength="78.21" x="483.5" y="323.752">+slug: String</text><text fill="#000000" font-family="sans-serif" font-size="14" lengthAdjust="spacing" textLength="102.3477" x="483.5" y="341.3613">+contenu: String</text><text fill="#000000" font-family="sans-serif" font-size="14" lengthAdjust="spacing" textLength="132.6855" x="483.5" y="358.9707">+contenuJson: JSON</text><text fill="#000000" font-family="sans-serif" font-size="14" lengthAdjust="spacing" textLength="152.9199" x="483.5" y="376.5801">+contenuHtml: LongText</text><text fill="#000000" font-family="sans-serif" font-size="14" lengthAdjust="spacing" textLength="90.6514" x="483.5" y="394.1895">+extrait: String</text><text fill="#000000" font-family="sans-serif" font-size="14" lengthAdjust="spacing" textLength="116.3408" x="483.5" y="411.7988">+imageUne: String</text><text fill="#000000" font-family="sans-serif" font-size="14" lengthAdjust="spacing" textLength="132.7129" x="483.5" y="429.4082">+estPubliee: Boolean</text><text fill="#000000" font-family="sans-serif" font-size="14" lengthAdjust="spacing" textLength="137.3613" x="483.5" y="447.0176">+publieeLe: DateTime</text><text fill="#000000" font-family="sans-serif" font-size="14" lengthAdjust="spacing" textLength="138.9199" x="483.5" y="464.627">+nombreVues: Integer</text></g><!--class Commentaire--><g class="entity" data-entity="Commentaire" data-source-line="26" data-uid="ent0011" id="entity_Commentaire"><rect fill="#F1F1F1" height="75.2188" rx="2.5" ry="2.5" style="stroke:#181818;stroke-width:0.5;" width="157.9404" x="485" y="620.1094"/><ellipse cx="518.8609" cy="636.1094" fill="#ADD1B2" rx="11" ry="11" style="stroke:#181818;stroke-width:1;"/><path d="M521.6265,631.9844 Q521.7828,631.7656 521.9703,631.6563 Q522.1578,631.5469 522.3765,631.5469 Q522.7515,631.5469 522.9859,631.8125 Q523.2203,632.0625 523.2203,632.6719 L523.2203,634.125 Q523.2203,634.7344 522.9859,635 Q522.7515,635.2656 522.3765,635.2656 Q522.0328,635.2656 521.8296,635.0625 Q521.6265,634.875 521.5171,634.3594 Q521.4703,634 521.2828,633.8125 Q520.9546,633.4375 520.3453,633.2188 Q519.7359,633 519.1109,633 Q518.3453,633 517.7046,633.3281 Q517.0796,633.6563 516.5796,634.4063 Q516.0953,635.1563 516.0953,636.1875 L516.0953,637.2813 Q516.0953,638.5156 516.9859,639.3438 Q517.8765,640.1563 519.4703,640.1563 Q520.4078,640.1563 521.064,639.9063 Q521.4546,639.75 521.8765,639.3125 Q522.1421,639.0469 522.2828,638.9688 Q522.439,638.8906 522.6421,638.8906 Q522.9703,638.8906 523.2203,639.1563 Q523.4859,639.4063 523.4859,639.75 Q523.4859,640.0938 523.1421,640.5 Q522.6421,641.0781 521.8453,641.4063 Q520.7671,641.8594 519.4703,641.8594 Q517.9546,641.8594 516.7515,641.2344 Q515.7671,640.7344 515.0796,639.6719 Q514.3921,638.5938 514.3921,637.3125 L514.3921,636.1563 Q514.3921,634.8281 515.0015,633.6875 Q515.6265,632.5313 516.7203,631.9219 Q517.814,631.2969 519.0484,631.2969 Q519.7828,631.2969 520.4234,631.4688 Q521.0796,631.625 521.6265,631.9844 Z " fill="#000000"/><text fill="#000000" font-family="sans-serif" font-size="14" lengthAdjust="spacing" textLength="84.0273" x="537.0522" y="641.8379">Commentaire</text><line style="stroke:#181818;stroke-width:0.5;" x1="486" x2="641.9404" y1="652.1094" y2="652.1094"/><text fill="#000000" font-family="sans-serif" font-size="14" lengthAdjust="spacing" textLength="102.3477" x="491" y="670.6426">+contenu: String</text><text fill="#000000" font-family="sans-serif" font-size="14" lengthAdjust="spacing" textLength="145.9404" x="491" y="688.252">+estApprouve: Boolean</text></g><!--class Like--><g class="entity" data-entity="Like" data-source-line="33" data-uid="ent0013" id="entity_Like"><rect fill="#F1F1F1" height="57.6094" rx="2.5" ry="2.5" style="stroke:#181818;stroke-width:0.5;" width="129.9063" x="133" y="628.6094"/><ellipse cx="180.8618" cy="644.6094" fill="#ADD1B2" rx="11" ry="11" style="stroke:#181818;stroke-width:1;"/><path d="M183.6274,640.4844 Q183.7837,640.2656 183.9712,640.1563 Q184.1587,640.0469 184.3774,640.0469 Q184.7524,640.0469 184.9868,640.3125 Q185.2212,640.5625 185.2212,641.1719 L185.2212,642.625 Q185.2212,643.2344 184.9868,643.5 Q184.7524,643.7656 184.3774,643.7656 Q184.0337,643.7656 183.8306,643.5625 Q183.6274,643.375 183.5181,642.8594 Q183.4712,642.5 183.2837,642.3125 Q182.9556,641.9375 182.3462,641.7188 Q181.7368,641.5 181.1118,641.5 Q180.3462,641.5 179.7056,641.8281 Q179.0806,642.1563 178.5806,642.9063 Q178.0962,643.6563 178.0962,644.6875 L178.0962,645.7813 Q178.0962,647.0156 178.9868,647.8438 Q179.8774,648.6563 181.4712,648.6563 Q182.4087,648.6563 183.0649,648.4063 Q183.4556,648.25 183.8774,647.8125 Q184.1431,647.5469 184.2837,647.4688 Q184.4399,647.3906 184.6431,647.3906 Q184.9712,647.3906 185.2212,647.6563 Q185.4868,647.9063 185.4868,648.25 Q185.4868,648.5938 185.1431,649 Q184.6431,649.5781 183.8462,649.9063 Q182.7681,650.3594 181.4712,650.3594 Q179.9556,650.3594 178.7524,649.7344 Q177.7681,649.2344 177.0806,648.1719 Q176.3931,647.0938 176.3931,645.8125 L176.3931,644.6563 Q176.3931,643.3281 177.0024,642.1875 Q177.6274,641.0313 178.7212,640.4219 Q179.8149,639.7969 181.0493,639.7969 Q181.7837,639.7969 182.4243,639.9688 Q183.0806,640.125 183.6274,640.4844 Z " fill="#000000"/><text fill="#000000" font-family="sans-serif" font-size="14" lengthAdjust="spacing" textLength="25.6826" x="201.3618" y="650.3379">Like</text><line style="stroke:#181818;stroke-width:0.5;" x1="134" x2="261.9063" y1="660.6094" y2="660.6094"/><text fill="#000000" font-family="sans-serif" font-size="14" lengthAdjust="spacing" textLength="117.9063" x="139" y="679.1426">+estAime: Boolean</text></g><!--class Media--><g class="entity" data-entity="Media" data-source-line="39" data-uid="ent0015" id="entity_Media"><rect fill="#F1F1F1" height="216.0938" rx="2.5" ry="2.5" style="stroke:#181818;stroke-width:0.5;" width="151.6992" x="298" y="549.6094"/><ellipse cx="350.5342" cy="565.6094" fill="#ADD1B2" rx="11" ry="11" style="stroke:#181818;stroke-width:1;"/><path d="M353.2998,561.4844 Q353.4561,561.2656 353.6436,561.1563 Q353.8311,561.0469 354.0498,561.0469 Q354.4248,561.0469 354.6592,561.3125 Q354.8936,561.5625 354.8936,562.1719 L354.8936,563.625 Q354.8936,564.2344 354.6592,564.5 Q354.4248,564.7656 354.0498,564.7656 Q353.7061,564.7656 353.5029,564.5625 Q353.2998,564.375 353.1904,563.8594 Q353.1436,563.5 352.9561,563.3125 Q352.6279,562.9375 352.0186,562.7188 Q351.4092,562.5 350.7842,562.5 Q350.0186,562.5 349.3779,562.8281 Q348.7529,563.1563 348.2529,563.9063 Q347.7686,564.6563 347.7686,565.6875 L347.7686,566.7813 Q347.7686,568.0156 348.6592,568.8438 Q349.5498,569.6563 351.1436,569.6563 Q352.0811,569.6563 352.7373,569.4063 Q353.1279,569.25 353.5498,568.8125 Q353.8154,568.5469 353.9561,568.4688 Q354.1123,568.3906 354.3154,568.3906 Q354.6436,568.3906 354.8936,568.6563 Q355.1592,568.9063 355.1592,569.25 Q355.1592,569.5938 354.8154,570 Q354.3154,570.5781 353.5186,570.9063 Q352.4404,571.3594 351.1436,571.3594 Q349.6279,571.3594 348.4248,570.7344 Q347.4404,570.2344 346.7529,569.1719 Q346.0654,568.0938 346.0654,566.8125 L346.0654,565.6563 Q346.0654,564.3281 346.6748,563.1875 Q347.2998,562.0313 348.3936,561.4219 Q349.4873,560.7969 350.7217,560.7969 Q351.4561,560.7969 352.0967,560.9688 Q352.7529,561.125 353.2998,561.4844 Z " fill="#000000"/><text fill="#000000" font-family="sans-serif" font-size="14" lengthAdjust="spacing" textLength="38.1309" x="371.0342" y="571.3379">Media</text><line style="stroke:#181818;stroke-width:0.5;" x1="299" x2="448.6992" y1="581.6094" y2="581.6094"/><text fill="#000000" font-family="sans-serif" font-size="14" lengthAdjust="spacing" textLength="111.6719" x="304" y="600.1426">+type: TypeMedia</text><text fill="#000000" font-family="sans-serif" font-size="14" lengthAdjust="spacing" textLength="139.665" x="304" y="617.752">+cheminFichier: String</text><text fill="#000000" font-family="sans-serif" font-size="14" lengthAdjust="spacing" textLength="116.334" x="304" y="635.3613">+urlExterne: String</text><text fill="#000000" font-family="sans-serif" font-size="14" lengthAdjust="spacing" textLength="101.5615" x="304" y="652.9707">+vignette: String</text><text fill="#000000" font-family="sans-serif" font-size="14" lengthAdjust="spacing" textLength="75.8652" x="304" y="670.5801">+titre: String</text><text fill="#000000" font-family="sans-serif" font-size="14" lengthAdjust="spacing" textLength="88.334" x="304" y="688.1895">+taille: Integer</text><text fill="#000000" font-family="sans-serif" font-size="14" lengthAdjust="spacing" textLength="103.1201" x="304" y="705.7988">+largeur: Integer</text><text fill="#000000" font-family="sans-serif" font-size="14" lengthAdjust="spacing" textLength="107.0234" x="304" y="723.4082">+hauteur: Integer</text><text fill="#000000" font-family="sans-serif" font-size="14" lengthAdjust="spacing" textLength="139.6992" x="304" y="741.0176">+estPrincipal: Boolean</text><text fill="#000000" font-family="sans-serif" font-size="14" lengthAdjust="spacing" textLength="92.2236" x="304" y="758.627">+ordre: Integer</text></g><!--class Niveau--><g class="entity" data-entity="Niveau" data-source-line="2" data-uid="ent0002" id="entity_Niveau"><rect fill="#F1F1F1" height="110.4375" rx="2.5" ry="2.5" style="stroke:#181818;stroke-width:0.5;" width="93.7031" x="562" y="45.6094"/><ellipse cx="585.1558" cy="61.6094" fill="#EB937F" rx="11" ry="11" style="stroke:#181818;stroke-width:1;"/><path d="M584.0152,62.4063 L584.0152,64.9063 L588.3433,64.9063 L588.3433,63.9844 Q588.3433,63.375 588.5777,63.1094 Q588.8277,62.8438 589.2027,62.8438 Q589.5777,62.8438 589.8121,63.1094 Q590.0464,63.375 590.0464,63.9844 L590.0464,66.6094 L582.0464,66.6094 Q581.4214,66.6094 581.1558,66.375 Q580.9058,66.1406 580.9058,65.75 Q580.9058,65.375 581.1714,65.1406 Q581.4371,64.9063 582.0464,64.9063 L582.3121,64.9063 L582.3121,58.25 L582.0464,58.25 Q581.4214,58.25 581.1558,58.0156 Q580.9058,57.7813 580.9058,57.3906 Q580.9058,57.0156 581.1558,56.7813 Q581.4214,56.5469 582.0464,56.5469 L589.6714,56.5469 L589.6714,59.1406 Q589.6714,59.75 589.4371,60.0156 Q589.2183,60.2656 588.8277,60.2656 Q588.4527,60.2656 588.2183,60.0156 Q587.9839,59.75 587.9839,59.1406 L587.9839,58.25 L584.0152,58.25 L584.0152,60.7031 L585.4996,60.7031 Q585.4996,60.0469 585.6246,59.8594 Q585.8902,59.4531 586.3589,59.4531 Q586.7339,59.4531 586.9683,59.7188 Q587.2027,59.9688 587.2027,60.5781 L587.2027,62.5469 Q587.2027,63.0938 587.0777,63.2813 Q586.8121,63.6719 586.3589,63.6719 Q585.8902,63.6719 585.6246,63.2656 Q585.4996,63.0781 585.4996,62.4063 L584.0152,62.4063 Z " fill="#000000"/><text fill="#000000" font-family="sans-serif" font-size="14" lengthAdjust="spacing" textLength="43.5791" x="600.9682" y="67.3379">Niveau</text><line style="stroke:#181818;stroke-width:0.5;" x1="563" x2="654.7031" y1="77.6094" y2="77.6094"/><text fill="#000000" font-family="sans-serif" font-size="14" lengthAdjust="spacing" textLength="56.8203" x="568" y="96.1426">D&#233;butant</text><text fill="#000000" font-family="sans-serif" font-size="14" lengthAdjust="spacing" textLength="81.7031" x="568" y="113.752">Interm&#233;diaire</text><text fill="#000000" font-family="sans-serif" font-size="14" lengthAdjust="spacing" textLength="46.6963" x="568" y="131.3613">Avanc&#233;</text><text fill="#000000" font-family="sans-serif" font-size="14" lengthAdjust="spacing" textLength="40.4619" x="568" y="148.9707">Expert</text></g><!--class TypeMedia--><g class="entity" data-entity="TypeMedia" data-source-line="9" data-uid="ent0003" id="entity_TypeMedia"><rect fill="#F1F1F1" height="128.0469" rx="2.5" ry="2.5" style="stroke:#181818;stroke-width:0.5;" width="101.2549" x="257.5" y="828.6094"/><ellipse cx="272.5" cy="844.6094" fill="#EB937F" rx="11" ry="11" style="stroke:#181818;stroke-width:1;"/><path d="M271.3594,845.4063 L271.3594,847.9063 L275.6875,847.9063 L275.6875,846.9844 Q275.6875,846.375 275.9219,846.1094 Q276.1719,845.8438 276.5469,845.8438 Q276.9219,845.8438 277.1563,846.1094 Q277.3906,846.375 277.3906,846.9844 L277.3906,849.6094 L269.3906,849.6094 Q268.7656,849.6094 268.5,849.375 Q268.25,849.1406 268.25,848.75 Q268.25,848.375 268.5156,848.1406 Q268.7813,847.9063 269.3906,847.9063 L269.6563,847.9063 L269.6563,841.25 L269.3906,841.25 Q268.7656,841.25 268.5,841.0156 Q268.25,840.7813 268.25,840.3906 Q268.25,840.0156 268.5,839.7813 Q268.7656,839.5469 269.3906,839.5469 L277.0156,839.5469 L277.0156,842.1406 Q277.0156,842.75 276.7813,843.0156 Q276.5625,843.2656 276.1719,843.2656 Q275.7969,843.2656 275.5625,843.0156 Q275.3281,842.75 275.3281,842.1406 L275.3281,841.25 L271.3594,841.25 L271.3594,843.7031 L272.8438,843.7031 Q272.8438,843.0469 272.9688,842.8594 Q273.2344,842.4531 273.7031,842.4531 Q274.0781,842.4531 274.3125,842.7188 Q274.5469,842.9688 274.5469,843.5781 L274.5469,845.5469 Q274.5469,846.0938 274.4219,846.2813 Q274.1563,846.6719 273.7031,846.6719 Q273.2344,846.6719 272.9688,846.2656 Q272.8438,846.0781 272.8438,845.4063 L271.3594,845.4063 Z " fill="#000000"/><text fill="#000000" font-family="sans-serif" font-size="14" lengthAdjust="spacing" textLength="69.2549" x="286.5" y="850.3379">TypeMedia</text><line style="stroke:#181818;stroke-width:0.5;" x1="258.5" x2="357.7549" y1="860.6094" y2="860.6094"/><text fill="#000000" font-family="sans-serif" font-size="14" lengthAdjust="spacing" textLength="38.9102" x="263.5" y="879.1426">Image</text><text fill="#000000" font-family="sans-serif" font-size="14" lengthAdjust="spacing" textLength="35.8066" x="263.5" y="896.752">Vid&#233;o</text><text fill="#000000" font-family="sans-serif" font-size="14" lengthAdjust="spacing" textLength="63.8066" x="263.5" y="914.3613">Document</text><text fill="#000000" font-family="sans-serif" font-size="14" lengthAdjust="spacing" textLength="26.4688" x="263.5" y="931.9707">Lien</text><text fill="#000000" font-family="sans-serif" font-size="14" lengthAdjust="spacing" textLength="52.1582" x="263.5" y="949.5801">Youtube</text></g><!--class TypeRessource--><g class="entity" data-entity="TypeRessource" data-source-line="17" data-uid="ent0004" id="entity_TypeRessource"><rect fill="#F1F1F1" height="110.4375" rx="2.5" ry="2.5" style="stroke:#181818;stroke-width:0.5;" width="130.041" x="830" y="45.6094"/><ellipse cx="845" cy="61.6094" fill="#EB937F" rx="11" ry="11" style="stroke:#181818;stroke-width:1;"/><path d="M843.8594,62.4063 L843.8594,64.9063 L848.1875,64.9063 L848.1875,63.9844 Q848.1875,63.375 848.4219,63.1094 Q848.6719,62.8438 849.0469,62.8438 Q849.4219,62.8438 849.6563,63.1094 Q849.8906,63.375 849.8906,63.9844 L849.8906,66.6094 L841.8906,66.6094 Q841.2656,66.6094 841,66.375 Q840.75,66.1406 840.75,65.75 Q840.75,65.375 841.0156,65.1406 Q841.2813,64.9063 841.8906,64.9063 L842.1563,64.9063 L842.1563,58.25 L841.8906,58.25 Q841.2656,58.25 841,58.0156 Q840.75,57.7813 840.75,57.3906 Q840.75,57.0156 841,56.7813 Q841.2656,56.5469 841.8906,56.5469 L849.5156,56.5469 L849.5156,59.1406 Q849.5156,59.75 849.2813,60.0156 Q849.0625,60.2656 848.6719,60.2656 Q848.2969,60.2656 848.0625,60.0156 Q847.8281,59.75 847.8281,59.1406 L847.8281,58.25 L843.8594,58.25 L843.8594,60.7031 L845.3438,60.7031 Q845.3438,60.0469 845.4688,59.8594 Q845.7344,59.4531 846.2031,59.4531 Q846.5781,59.4531 846.8125,59.7188 Q847.0469,59.9688 847.0469,60.5781 L847.0469,62.5469 Q847.0469,63.0938 846.9219,63.2813 Q846.6563,63.6719 846.2031,63.6719 Q845.7344,63.6719 845.4688,63.2656 Q845.3438,63.0781 845.3438,62.4063 L843.8594,62.4063 Z " fill="#000000"/><text fill="#000000" font-family="sans-serif" font-size="14" lengthAdjust="spacing" textLength="98.041" x="859" y="67.3379">TypeRessource</text><line style="stroke:#181818;stroke-width:0.5;" x1="831" x2="959.041" y1="77.6094" y2="77.6094"/><text fill="#000000" font-family="sans-serif" font-size="14" lengthAdjust="spacing" textLength="63.8066" x="836" y="96.1426">Document</text><text fill="#000000" font-family="sans-serif" font-size="14" lengthAdjust="spacing" textLength="38.9102" x="836" y="113.752">Image</text><text fill="#000000" font-family="sans-serif" font-size="14" lengthAdjust="spacing" textLength="46.6826" x="836" y="131.3613">Archive</text><text fill="#000000" font-family="sans-serif" font-size="14" lengthAdjust="spacing" textLength="26.4688" x="836" y="148.9707">Lien</text></g><!--class Timestamps--><g class="entity" data-entity="Timestamps" data-source-line="25" data-uid="ent0005" id="entity_Timestamps"><rect fill="#F1F1F1" height="75.2188" rx="2.5" ry="2.5" style="stroke:#181818;stroke-width:0.5;" width="168.8027" x="327.5" y="1017.6094"/><ellipse cx="369.7558" cy="1033.6094" fill="#A9DCDF" rx="11" ry="11" style="stroke:#181818;stroke-width:1;"/><path d="M371.9433,1035.375 L367.8026,1035.375 L367.3808,1036.4063 L367.8026,1036.4063 Q368.412,1036.4063 368.6776,1036.6406 Q368.9433,1036.875 368.9433,1037.2656 Q368.9433,1037.6406 368.6776,1037.875 Q368.412,1038.1094 367.8026,1038.1094 L365.5058,1038.1094 Q364.8964,1038.1094 364.6464,1037.875 Q364.3808,1037.6406 364.3808,1037.25 Q364.3808,1036.875 364.662,1036.6406 Q364.9276,1036.3906 365.5526,1036.4063 L368.2245,1029.75 L367.1151,1029.75 Q366.5058,1029.75 366.2401,1029.5156 Q365.9745,1029.2813 365.9745,1028.8906 Q365.9745,1028.5156 366.2401,1028.2813 Q366.5058,1028.0469 367.1151,1028.0469 L370.787,1028.0469 L374.1776,1036.4063 Q374.7714,1036.4063 374.9589,1036.5469 Q375.3495,1036.8125 375.3495,1037.2656 Q375.3495,1037.6406 375.0839,1037.875 Q374.8339,1038.1094 374.2245,1038.1094 L371.9276,1038.1094 Q371.3183,1038.1094 371.0526,1037.875 Q370.787,1037.6406 370.787,1037.25 Q370.787,1036.875 371.0526,1036.6406 Q371.3183,1036.4063 371.9276,1036.4063 L372.3495,1036.4063 L371.9433,1035.375 Z M371.2245,1033.6719 L369.8651,1030.2969 L368.4901,1033.6719 L371.2245,1033.6719 Z " fill="#000000"/><text fill="#000000" font-family="sans-serif" font-size="14" font-style="italic" lengthAdjust="spacing" textLength="76.2344" x="389.8126" y="1039.3379">Timestamps</text><line style="stroke:#181818;stroke-width:0.5;" x1="328.5" x2="495.3027" y1="1049.6094" y2="1049.6094"/><text fill="#000000" font-family="sans-serif" font-size="14" lengthAdjust="spacing" textLength="156.8027" x="333.5" y="1068.1426">+dateCreation: DateTime</text><text fill="#000000" font-family="sans-serif" font-size="14" lengthAdjust="spacing" textLength="138.1201" x="333.5" y="1085.752">+dateModif: DateTime</text></g><!--class SoftDeletes--><g class="entity" data-entity="SoftDeletes" data-source-line="30" data-uid="ent0006" id="entity_SoftDeletes"><rect fill="#F1F1F1" height="57.6094" rx="2.5" ry="2.5" style="stroke:#181818;stroke-width:0.5;" width="193.7129" x="467" y="863.6094"/><ellipse cx="523.4204" cy="879.6094" fill="#A9DCDF" rx="11" ry="11" style="stroke:#181818;stroke-width:1;"/><path d="M525.6079,881.375 L521.4673,881.375 L521.0454,882.4063 L521.4673,882.4063 Q522.0767,882.4063 522.3423,882.6406 Q522.6079,882.875 522.6079,883.2656 Q522.6079,883.6406 522.3423,883.875 Q522.0767,884.1094 521.4673,884.1094 L519.1704,884.1094 Q518.561,884.1094 518.311,883.875 Q518.0454,883.6406 518.0454,883.25 Q518.0454,882.875 518.3267,882.6406 Q518.5923,882.3906 519.2173,882.4063 L521.8892,875.75 L520.7798,875.75 Q520.1704,875.75 519.9048,875.5156 Q519.6392,875.2813 519.6392,874.8906 Q519.6392,874.5156 519.9048,874.2813 Q520.1704,874.0469 520.7798,874.0469 L524.4517,874.0469 L527.8423,882.4063 Q528.436,882.4063 528.6235,882.5469 Q529.0142,882.8125 529.0142,883.2656 Q529.0142,883.6406 528.7485,883.875 Q528.4985,884.1094 527.8892,884.1094 L525.5923,884.1094 Q524.9829,884.1094 524.7173,883.875 Q524.4517,883.6406 524.4517,883.25 Q524.4517,882.875 524.7173,882.6406 Q524.9829,882.4063 525.5923,882.4063 L526.0142,882.4063 L525.6079,881.375 Z M524.8892,879.6719 L523.5298,876.2969 L522.1548,879.6719 L524.8892,879.6719 Z " fill="#000000"/><text fill="#000000" font-family="sans-serif" font-size="14" font-style="italic" lengthAdjust="spacing" textLength="72.3721" x="543.9204" y="885.3379">SoftDeletes</text><line style="stroke:#181818;stroke-width:0.5;" x1="468" x2="659.7129" y1="895.6094" y2="895.6094"/><text fill="#000000" font-family="sans-serif" font-size="14" lengthAdjust="spacing" textLength="181.7129" x="473" y="914.1426">+dateSuppression: DateTime</text></g><!--class Utilisateur--><g class="entity" data-entity="Utilisateur" data-source-line="64" data-uid="ent0018" id="entity_Utilisateur"><rect fill="#F1F1F1" height="32" rx="2.5" ry="2.5" style="stroke:#181818;stroke-width:0.5;" width="94.2412" x="7" y="347.6094"/><ellipse cx="22" cy="363.6094" fill="#ADD1B2" rx="11" ry="11" style="stroke:#181818;stroke-width:1;"/><path d="M24.7656,359.4844 Q24.9219,359.2656 25.1094,359.1563 Q25.2969,359.0469 25.5156,359.0469 Q25.8906,359.0469 26.125,359.3125 Q26.3594,359.5625 26.3594,360.1719 L26.3594,361.625 Q26.3594,362.2344 26.125,362.5 Q25.8906,362.7656 25.5156,362.7656 Q25.1719,362.7656 24.9688,362.5625 Q24.7656,362.375 24.6563,361.8594 Q24.6094,361.5 24.4219,361.3125 Q24.0938,360.9375 23.4844,360.7188 Q22.875,360.5 22.25,360.5 Q21.4844,360.5 20.8438,360.8281 Q20.2188,361.1563 19.7188,361.9063 Q19.2344,362.6563 19.2344,363.6875 L19.2344,364.7813 Q19.2344,366.0156 20.125,366.8438 Q21.0156,367.6563 22.6094,367.6563 Q23.5469,367.6563 24.2031,367.4063 Q24.5938,367.25 25.0156,366.8125 Q25.2813,366.5469 25.4219,366.4688 Q25.5781,366.3906 25.7813,366.3906 Q26.1094,366.3906 26.3594,366.6563 Q26.625,366.9063 26.625,367.25 Q26.625,367.5938 26.2813,368 Q25.7813,368.5781 24.9844,368.9063 Q23.9063,369.3594 22.6094,369.3594 Q21.0938,369.3594 19.8906,368.7344 Q18.9063,368.2344 18.2188,367.1719 Q17.5313,366.0938 17.5313,364.8125 L17.5313,363.6563 Q17.5313,362.3281 18.1406,361.1875 Q18.7656,360.0313 19.8594,359.4219 Q20.9531,358.7969 22.1875,358.7969 Q22.9219,358.7969 23.5625,358.9688 Q24.2188,359.125 24.7656,359.4844 Z " fill="#000000"/><text fill="#000000" font-family="sans-serif" font-size="14" lengthAdjust="spacing" textLength="62.2412" x="36" y="369.3379">Utilisateur</text></g><!--class Proprietaire--><g class="entity" data-entity="Proprietaire" data-source-line="66" data-uid="ent0021" id="entity_Proprietaire"><rect fill="#F1F1F1" height="32" rx="2.5" ry="2.5" style="stroke:#181818;stroke-width:0.5;" width="104.3652" x="691" y="84.6094"/><ellipse cx="706" cy="100.6094" fill="#ADD1B2" rx="11" ry="11" style="stroke:#181818;stroke-width:1;"/><path d="M708.7656,96.4844 Q708.9219,96.2656 709.1094,96.1563 Q709.2969,96.0469 709.5156,96.0469 Q709.8906,96.0469 710.125,96.3125 Q710.3594,96.5625 710.3594,97.1719 L710.3594,98.625 Q710.3594,99.2344 710.125,99.5 Q709.8906,99.7656 709.5156,99.7656 Q709.1719,99.7656 708.9688,99.5625 Q708.7656,99.375 708.6563,98.8594 Q708.6094,98.5 708.4219,98.3125 Q708.0938,97.9375 707.4844,97.7188 Q706.875,97.5 706.25,97.5 Q705.4844,97.5 704.8438,97.8281 Q704.2188,98.1563 703.7188,98.9063 Q703.2344,99.6563 703.2344,100.6875 L703.2344,101.7813 Q703.2344,103.0156 704.125,103.8438 Q705.0156,104.6563 706.6094,104.6563 Q707.5469,104.6563 708.2031,104.4063 Q708.5938,104.25 709.0156,103.8125 Q709.2813,103.5469 709.4219,103.4688 Q709.5781,103.3906 709.7813,103.3906 Q710.1094,103.3906 710.3594,103.6563 Q710.625,103.9063 710.625,104.25 Q710.625,104.5938 710.2813,105 Q709.7813,105.5781 708.9844,105.9063 Q707.9063,106.3594 706.6094,106.3594 Q705.0938,106.3594 703.8906,105.7344 Q702.9063,105.2344 702.2188,104.1719 Q701.5313,103.0938 701.5313,101.8125 L701.5313,100.6563 Q701.5313,99.3281 702.1406,98.1875 Q702.7656,97.0313 703.8594,96.4219 Q704.9531,95.7969 706.1875,95.7969 Q706.9219,95.7969 707.5625,95.9688 Q708.2188,96.125 708.7656,96.4844 Z " fill="#000000"/><text fill="#000000" font-family="sans-serif" font-size="14" lengthAdjust="spacing" textLength="72.3652" x="720" y="106.3379">Proprietaire</text></g><!--class Domaine--><g class="entity" data-entity="Domaine" data-source-line="67" data-uid="ent0023" id="entity_Domaine"><rect fill="#F1F1F1" height="32" rx="2.5" ry="2.5" style="stroke:#181818;stroke-width:0.5;" width="88.0273" x="770" y="641.6094"/><ellipse cx="785" cy="657.6094" fill="#ADD1B2" rx="11" ry="11" style="stroke:#181818;stroke-width:1;"/><path d="M787.7656,653.4844 Q787.9219,653.2656 788.1094,653.1563 Q788.2969,653.0469 788.5156,653.0469 Q788.8906,653.0469 789.125,653.3125 Q789.3594,653.5625 789.3594,654.1719 L789.3594,655.625 Q789.3594,656.2344 789.125,656.5 Q788.8906,656.7656 788.5156,656.7656 Q788.1719,656.7656 787.9688,656.5625 Q787.7656,656.375 787.6563,655.8594 Q787.6094,655.5 787.4219,655.3125 Q787.0938,654.9375 786.4844,654.7188 Q785.875,654.5 785.25,654.5 Q784.4844,654.5 783.8438,654.8281 Q783.2188,655.1563 782.7188,655.9063 Q782.2344,656.6563 782.2344,657.6875 L782.2344,658.7813 Q782.2344,660.0156 783.125,660.8438 Q784.0156,661.6563 785.6094,661.6563 Q786.5469,661.6563 787.2031,661.4063 Q787.5938,661.25 788.0156,660.8125 Q788.2813,660.5469 788.4219,660.4688 Q788.5781,660.3906 788.7813,660.3906 Q789.1094,660.3906 789.3594,660.6563 Q789.625,660.9063 789.625,661.25 Q789.625,661.5938 789.2813,662 Q788.7813,662.5781 787.9844,662.9063 Q786.9063,663.3594 785.6094,663.3594 Q784.0938,663.3594 782.8906,662.7344 Q781.9063,662.2344 781.2188,661.1719 Q780.5313,660.0938 780.5313,658.8125 L780.5313,657.6563 Q780.5313,656.3281 781.1406,655.1875 Q781.7656,654.0313 782.8594,653.4219 Q783.9531,652.7969 785.1875,652.7969 Q785.9219,652.7969 786.5625,652.9688 Q787.2188,653.125 787.7656,653.4844 Z " fill="#000000"/><text fill="#000000" font-family="sans-serif" font-size="14" lengthAdjust="spacing" textLength="56.0273" x="799" y="663.3379">Domaine</text></g><!--link SoftDeletes to Timestamps--><g class="link" data-entity-1="SoftDeletes" data-entity-2="Timestamps" data-source-line="34" data-uid="lnk7" id="link_SoftDeletes_Timestamps"><path codeLine="34" d="M537.18,921.9294 C511.95,948.5694 486.4264,975.5194 458.9464,1004.5394" fill="none" id="SoftDeletes-to-Timestamps" style="stroke:#181818;stroke-width:1;"/><polygon fill="none" points="446.57,1017.6094,463.3031,1008.6649,454.5897,1000.4139,446.57,1017.6094" style="stroke:#181818;stroke-width:1;"/></g><!--link Publication to SoftDeletes--><g class="link" data-entity-1="Publication" data-entity-2="SoftDeletes" data-source-line="24" data-uid="lnk10" id="link_Publication_SoftDeletes"><path codeLine="24" d="M638.84,471.7794 C644.17,481.5894 648.99,491.5994 653,501.6094 C661.04,521.6894 659.22,528.0594 661,549.6094 C669.8,655.9094 700.58,690.5594 661,789.6094 C649.21,819.1094 638.1115,833.3113 616.5315,851.6013" fill="none" id="Publication-to-SoftDeletes" style="stroke:#181818;stroke-width:1;"/><polygon fill="none" points="602.8,863.2394,620.4109,856.1785,612.6522,847.0241,602.8,863.2394" style="stroke:#181818;stroke-width:1;"/></g><!--link Commentaire to SoftDeletes--><g class="link" data-entity-1="Commentaire" data-entity-2="SoftDeletes" data-source-line="31" data-uid="lnk12" id="link_Commentaire_SoftDeletes"><path codeLine="31" d="M564,695.2694 C564,741.9194 564,803.4794 564,845.5694" fill="none" id="Commentaire-to-SoftDeletes" style="stroke:#181818;stroke-width:1;"/><polygon fill="none" points="564,863.5694,570,845.5694,558,845.5694,564,863.5694" style="stroke:#181818;stroke-width:1;"/></g><!--link Like to Timestamps--><g class="link" data-entity-1="Like" data-entity-2="Timestamps" data-source-line="37" data-uid="lnk14" id="link_Like_Timestamps"><path codeLine="37" d="M194.25,686.9594 C188.31,743.5694 182.68,872.3794 240,956.6094 C260.95,987.3994 278.7836,1001.8709 311.1136,1017.2409" fill="none" id="Like-to-Timestamps" style="stroke:#181818;stroke-width:1;"/><polygon fill="none" points="327.37,1024.9694,313.6897,1011.8221,308.5374,1022.6597,327.37,1024.9694" style="stroke:#181818;stroke-width:1;"/></g><!--link Media to Timestamps--><g class="link" data-entity-1="Media" data-entity-2="Timestamps" data-source-line="52" data-uid="lnk16" id="link_Media_Timestamps"><path codeLine="52" d="M384.28,765.6394 C392.33,849.3694 401.3059,942.8821 406.7659,999.6221" fill="none" id="Media-to-Timestamps" style="stroke:#181818;stroke-width:1;"/><polygon fill="none" points="408.49,1017.5394,412.7383,999.0474,400.7934,1000.1969,408.49,1017.5394" style="stroke:#181818;stroke-width:1;"/></g><!--link Media to TypeMedia--><g class="link" data-entity-1="Media" data-entity-2="TypeMedia" data-source-line="59" data-uid="lnk17" id="link_Media_TypeMedia"><path codeLine="59" d="M343.61,765.8994 C337.55,787.2794 333.0161,803.3067 327.5461,822.6067" fill="none" id="Media-to-TypeMedia" style="stroke:#181818;stroke-width:1;"/><polygon fill="#181818" points="325.91,828.3794,332.2125,820.8111,327.2734,823.5689,324.5157,818.6297,325.91,828.3794" style="stroke:#181818;stroke-width:1;"/></g><!--link Utilisateur to Commentaire--><g class="link" data-entity-1="Utilisateur" data-entity-2="Commentaire" data-source-line="64" data-uid="lnk19" id="link_Utilisateur_Commentaire"><path codeLine="64" d="M58.84,379.8494 C67.03,403.1394 85.84,447.4194 117,471.6094 C147.33,495.1594 245.53,511.1894 283,519.6094 C364.27,537.8794 394.91,509.6594 468,549.6094 C498.22,566.1294 523.76,595.9294 540.88,619.8894" fill="none" id="Utilisateur-Commentaire" style="stroke:#181818;stroke-width:1;"/><text fill="#000000" font-family="sans-serif" font-size="13" lengthAdjust="spacing" textLength="36.8608" x="284" y="516.1045">auteur</text><text fill="#000000" font-family="sans-serif" font-size="13" lengthAdjust="spacing" textLength="7.23" x="52.2653" y="401.127">1</text><text fill="#000000" font-family="sans-serif" font-size="13" lengthAdjust="spacing" textLength="19.5127" x="516.1205" y="609.2524">0..*</text></g><!--link Utilisateur to Like--><g class="link" data-entity-1="Utilisateur" data-entity-2="Like" data-source-line="65" data-uid="lnk20" id="link_Utilisateur_Like"><path codeLine="65" d="M61.54,379.8994 C84.57,426.5994 154.25,567.8994 184.14,628.5094" fill="none" id="Utilisateur-Like" style="stroke:#181818;stroke-width:1;"/><text fill="#000000" font-family="sans-serif" font-size="13" lengthAdjust="spacing" textLength="36.8608" x="132" y="516.1045">auteur</text><text fill="#000000" font-family="sans-serif" font-size="13" lengthAdjust="spacing" textLength="7.23" x="65.0572" y="401.193">1</text><text fill="#000000" font-family="sans-serif" font-size="13" lengthAdjust="spacing" textLength="19.5127" x="160.0963" y="617.97">0..*</text></g><!--link Proprietaire to Publication--><g class="link" data-entity-1="Proprietaire" data-entity-2="Publication" data-source-line="66" data-uid="lnk22" id="link_Proprietaire_Publication"><path codeLine="66" d="M732.37,116.7694 C713.45,143.7494 672.42,202.2694 635.13,255.4494" fill="none" id="Proprietaire-Publication" style="stroke:#181818;stroke-width:1;"/><text fill="#000000" font-family="sans-serif" font-size="13" lengthAdjust="spacing" textLength="68.6563" x="684" y="200.1045">publications</text><text fill="#000000" font-family="sans-serif" font-size="13" lengthAdjust="spacing" textLength="7.23" x="720.8445" y="138.0215">1</text><text fill="#000000" font-family="sans-serif" font-size="13" lengthAdjust="spacing" textLength="19.5127" x="620.7654" y="244.7861">0..*</text></g><!--link Proprietaire to Domaine--><g class="link" data-entity-1="Proprietaire" data-entity-2="Domaine" data-source-line="67" data-uid="lnk24" id="link_Proprietaire_Domaine"><path codeLine="67" d="M746.71,116.6994 C750.71,133.4494 757.04,161.3194 761,185.6094 C790.06,363.8794 808.25,582.7094 812.85,641.4894" fill="none" id="Proprietaire-Domaine" style="stroke:#181818;stroke-width:1;"/><text fill="#000000" font-family="sans-serif" font-size="13" lengthAdjust="spacing" textLength="56.3672" x="798" y="369.1045">domaines</text><text fill="#000000" font-family="sans-serif" font-size="13" lengthAdjust="spacing" textLength="7.23" x="739.7572" y="138.2325">1</text><text fill="#000000" font-family="sans-serif" font-size="13" lengthAdjust="spacing" textLength="19.5127" x="790.2725" y="630.7537">0..*</text></g><!--link Publication to Commentaire--><g class="link" data-entity-1="Publication" data-entity-2="Commentaire" data-source-line="68" data-uid="lnk25" id="link_Publication_Commentaire"><path codeLine="68" d="M561.47,471.6794 C562.18,523.7694 562.99,582.9794 563.5,620.0694" fill="none" id="Publication-Commentaire" style="stroke:#181818;stroke-width:1;"/><text fill="#000000" font-family="sans-serif" font-size="13" lengthAdjust="spacing" textLength="81.6372" x="563" y="516.1045">commentaires</text><text fill="#000000" font-family="sans-serif" font-size="13" lengthAdjust="spacing" textLength="7.23" x="554.3382" y="493.3447">1</text><text fill="#000000" font-family="sans-serif" font-size="13" lengthAdjust="spacing" textLength="19.5127" x="542.709" y="609.1803">0..*</text></g><!--link Publication to Like--><g class="link" data-entity-1="Publication" data-entity-2="Like" data-source-line="69" data-uid="lnk26" id="link_Publication_Like"><path codeLine="69" d="M477.3,421.0394 C433.46,450.7194 378.55,487.5094 329,519.6094 C307.89,533.2894 299.67,532.7394 281,549.6094 C255.01,573.0994 231.16,605.4894 215.76,628.4694" fill="none" id="Publication-Like" style="stroke:#181818;stroke-width:1;"/><text fill="#000000" font-family="sans-serif" font-size="13" lengthAdjust="spacing" textLength="26.0063" x="355" y="516.1045">likes</text><text fill="#000000" font-family="sans-serif" font-size="13" lengthAdjust="spacing" textLength="7.23" x="462.3677" y="423.1032">1</text><text fill="#000000" font-family="sans-serif" font-size="13" lengthAdjust="spacing" textLength="19.5127" x="198.6332" y="617.9213">0..*</text></g><!--link Publication to Media--><g class="link" data-entity-1="Publication" data-entity-2="Media" data-source-line="70" data-uid="lnk27" id="link_Publication_Media"><path codeLine="70" d="M491.8,471.6794 C475.62,497.0694 458.37,524.1594 442.2,549.5494" fill="none" id="Publication-Media" style="stroke:#181818;stroke-width:1;"/><text fill="#000000" font-family="sans-serif" font-size="13" lengthAdjust="spacing" textLength="41.9072" x="473" y="516.1045">m&#233;dias</text><text fill="#000000" font-family="sans-serif" font-size="13" lengthAdjust="spacing" textLength="7.23" x="479.7695" y="493.3447">1</text><text fill="#000000" font-family="sans-serif" font-size="13" lengthAdjust="spacing" textLength="19.5127" x="427.3559" y="538.8931">0..*</text></g><!--link Publication to Domaine--><g class="link" data-entity-1="Publication" data-entity-2="Domaine" data-source-line="71" data-uid="lnk28" id="link_Publication_Domaine"><path codeLine="71" d="M642.89,430.3294 C667.46,451.7494 693.52,476.4994 715,501.6094 C755.06,548.4394 790.99,612.7594 806.24,641.5794" fill="none" id="Publication-Domaine" style="stroke:#181818;stroke-width:1;"/><text fill="#000000" font-family="sans-serif" font-size="13" lengthAdjust="spacing" textLength="56.3672" x="728" y="516.1045">domaines</text><text fill="#000000" font-family="sans-serif" font-size="13" lengthAdjust="spacing" textLength="5.0591" x="650.5012" y="433.0657">*</text><text fill="#000000" font-family="sans-serif" font-size="13" lengthAdjust="spacing" textLength="5.0591" x="797.7186" y="630.8746">*</text></g><rect fill="#DDDDDD" height="84.4375" rx="7.5" ry="7.5" style="stroke:#000000;stroke-width:1;" width="281.209" x="335.916" y="1110.8281"/><text fill="#000000" font-family="sans-serif" font-size="14" font-weight="bold" lengthAdjust="spacing" textLength="56.7656" x="344.8057" y="1132.3613">Notation</text><text fill="#000000" font-family="sans-serif" font-size="14" font-weight="bold" lengthAdjust="spacing" textLength="84" x="418.3672" y="1132.3613">Signification</text><text fill="#000000" font-family="sans-serif" font-size="14" lengthAdjust="spacing" textLength="65.7822" x="344.8057" y="1149.9707">"1" -- "0..*"</text><text fill="#000000" font-family="sans-serif" font-size="14" lengthAdjust="spacing" textLength="89.4893" x="418.3672" y="1149.9707">Un &#224; plusieurs</text><text fill="#000000" font-family="sans-serif" font-size="14" lengthAdjust="spacing" textLength="47.8789" x="344.8057" y="1167.5801">"*" -- "*"</text><text fill="#000000" font-family="sans-serif" font-size="14" lengthAdjust="spacing" textLength="129.1719" x="418.3672" y="1167.5801">Plusieurs &#224; plusieurs</text><text fill="#000000" font-family="sans-serif" font-size="14" lengthAdjust="spacing" textLength="9.3242" x="344.8057" y="1185.1895">--</text><text fill="#000000" font-family="sans-serif" font-size="14" lengthAdjust="spacing" textLength="8.1758" x="414.4775" y="1185.1895">&gt;</text><text fill="#000000" font-family="sans-serif" font-size="14" lengthAdjust="spacing" textLength="52.917" x="555.3184" y="1185.1895">H&#233;ritage</text><line style="stroke:#000000;stroke-width:1;" x1="340.916" x2="612.125" y1="1117.8281" y2="1117.8281"/><line style="stroke:#000000;stroke-width:1;" x1="340.916" x2="612.125" y1="1135.4375" y2="1135.4375"/><line style="stroke:#000000;stroke-width:1;" x1="340.916" x2="612.125" y1="1153.0469" y2="1153.0469"/><line style="stroke:#000000;stroke-width:1;" x1="340.916" x2="612.125" y1="1170.6563" y2="1170.6563"/><line style="stroke:#000000;stroke-width:1;" x1="340.916" x2="612.125" y1="1188.2656" y2="1188.2656"/><line style="stroke:#000000;stroke-width:1;" x1="340.916" x2="340.916" y1="1117.8281" y2="1188.2656"/><line style="stroke:#000000;stroke-width:1;" x1="414.4775" x2="414.4775" y1="1117.8281" y2="1188.2656"/><line style="stroke:#000000;stroke-width:1;" x1="551.4287" x2="551.4287" y1="1117.8281" y2="1188.2656"/><line style="stroke:#000000;stroke-width:1;" x1="612.125" x2="612.125" y1="1117.8281" y2="1188.2656"/><!--SRC=[fLLBJXj14DttAIfU91AH4TcE11848a36MB6TRTGU5-CI_Hbrrn18dBjaopcu63KVu_7WM0gPXTtpgkhLgq_RJ6mGJepFe0-ZOcOerKpUHNWF5uunwBHwLUeTkTGKSuJlCnsndneTu_wFE5TgGOAYpVa1BDePXgZYBRbS1sqXr-cjpd3C3v8dOChQPGPR3XNHCNEWMS5uaNetffy81qereT3ReQi7EiB8HuxmIocesTg520poV0Gc3fZ0M1AvhC6YAR8E9FaPNR4TlOpU9N0vlXvkukTiJG83xx89tdDZarFGn1qcibBIr7MLOEHAD8hXn7k3sZMMl8O7OZZLZ1Eos5YSjxE0tmgCITMJ38DOVYlLBh_VNnx1sD_mAHfaZEicVVRMecDD0L-QjBrw4NUSvy4NTnlg95ERu- -P1dIxJb6IIGqTeigbOYWBZAnjtYAumZdfzIGVSWcVo6U5hwGlq9BxGkc2C7GAA88vkvUbUTNsEyeSCdVXRRiYHHg3xKwNgD4Xmo9quOMMNNuDbrCMofHoRRfpzc4Ui3D8Q2f_rHYnVO33Vtuaw6mulOAlPuFZoSNrSFmsbfMeezOGtghdFwLCcGn5NJORUfzw8Wfw1_lxUxsDzKwWdiSEzse1N_n6mUU1i8xUT6nVhgI-dSrFqwweKsyrkJB3l3x5ZLkwItgwVjiLr1HWv6kNMpsx1EpJenmwddkrvtQzoiXYkZdCFBEtiflBGnXwhaFbF9QxH3ShhcNfqCczXAc3fp-GcoAIj3cklDPvbp1wCMxnh2w2V9y_FGRYyizXgKfDjJJr3000]--></g></svg>