<svg xmlns="http://www.w3.org/2000/svg" xmlns:xlink="http://www.w3.org/1999/xlink" contentStyleType="text/css" height="1061px" preserveAspectRatio="none" style="width:507px;height:1061px;background:#FFFFFF;" version="1.1" viewBox="0 0 507 1061" width="507px" zoomAndPan="magnify"><title>Portfolio - Projets</title><defs/><g><text fill="#000000" font-family="sans-serif" font-size="14" font-weight="bold" lengthAdjust="spacing" textLength="117.4482" x="188.1323" y="24.5332">Portfolio - Projets</text><!--cluster Projets--><g id="cluster_Projets"><rect fill="none" height="562" rx="2.5" ry="2.5" style="stroke:#000000;stroke-width:1.5;" width="206" x="85" y="219.6094"/><text fill="#000000" font-family="sans-serif" font-size="14" font-weight="bold" lengthAdjust="spacing" textLength="108.8965" x="133.5518" y="236.1426">Projets Portfolio</text></g><!--class ProjetPortfolio--><g id="elem_ProjetPortfolio"><rect codeLine="11" fill="#F1F1F1" height="216.0938" id="ProjetPortfolio" rx="2.5" ry="2.5" style="stroke:#181818;stroke-width:0.5;" width="173.4648" x="101.5" y="255.6094"/><ellipse cx="140.5904" cy="271.6094" fill="#ADD1B2" rx="11" ry="11" style="stroke:#181818;stroke-width:1;"/><path d="M143.356,267.4844 Q143.5123,267.2656 143.6998,267.1563 Q143.8873,267.0469 144.106,267.0469 Q144.481,267.0469 144.7154,267.3125 Q144.9498,267.5625 144.9498,268.1719 L144.9498,269.625 Q144.9498,270.2344 144.7154,270.5 Q144.481,270.7656 144.106,270.7656 Q143.7623,270.7656 143.5591,270.5625 Q143.356,270.375 143.2466,269.8594 Q143.1998,269.5 143.0123,269.3125 Q142.6841,268.9375 142.0748,268.7188 Q141.4654,268.5 140.8404,268.5 Q140.0748,268.5 139.4341,268.8281 Q138.8091,269.1563 138.3091,269.9063 Q137.8248,270.6563 137.8248,271.6875 L137.8248,272.7813 Q137.8248,274.0156 138.7154,274.8438 Q139.606,275.6563 141.1998,275.6563 Q142.1373,275.6563 142.7935,275.4063 Q143.1841,275.25 143.606,274.8125 Q143.8716,274.5469 144.0123,274.4688 Q144.1685,274.3906 144.3716,274.3906 Q144.6998,274.3906 144.9498,274.6563 Q145.2154,274.9063 145.2154,275.25 Q145.2154,275.5938 144.8716,276 Q144.3716,276.5781 143.5748,276.9063 Q142.4966,277.3594 141.1998,277.3594 Q139.6841,277.3594 138.481,276.7344 Q137.4966,276.2344 136.8091,275.1719 Q136.1216,274.0938 136.1216,272.8125 L136.1216,271.6563 Q136.1216,270.3281 136.731,269.1875 Q137.356,268.0313 138.4498,267.4219 Q139.5435,266.7969 140.7779,266.7969 Q141.5123,266.7969 142.1529,266.9688 Q142.8091,267.125 143.356,267.4844 Z " fill="#000000"/><text fill="#000000" font-family="sans-serif" font-size="14" lengthAdjust="spacing" textLength="87.9307" x="159.9438" y="277.3379">ProjetPortfolio</text><line style="stroke:#181818;stroke-width:0.5;" x1="102.5" x2="273.9648" y1="287.6094" y2="287.6094"/><text fill="#000000" font-family="sans-serif" font-size="14" lengthAdjust="spacing" textLength="75.8652" x="107.5" y="306.1426">+titre: String</text><text fill="#000000" font-family="sans-serif" font-size="14" lengthAdjust="spacing" textLength="78.21" x="107.5" y="323.752">+slug: String</text><text fill="#000000" font-family="sans-serif" font-size="14" lengthAdjust="spacing" textLength="120.2305" x="107.5" y="341.3613">+description: String</text><text fill="#000000" font-family="sans-serif" font-size="14" lengthAdjust="spacing" textLength="161.4648" x="107.5" y="358.9707">+courteDescription: String</text><text fill="#000000" font-family="sans-serif" font-size="14" lengthAdjust="spacing" textLength="105.4307" x="107.5" y="376.5801">+urlDemo: String</text><text fill="#000000" font-family="sans-serif" font-size="14" lengthAdjust="spacing" textLength="112.4443" x="107.5" y="394.1895">+urlSource: String</text><text fill="#000000" font-family="sans-serif" font-size="14" lengthAdjust="spacing" textLength="116.3545" x="107.5" y="411.7988">+technologies: List</text><text fill="#000000" font-family="sans-serif" font-size="14" lengthAdjust="spacing" textLength="142.0371" x="107.5" y="429.4082">+dateRealisation: Date</text><text fill="#000000" font-family="sans-serif" font-size="14" lengthAdjust="spacing" textLength="151.3955" x="107.5" y="447.0176">+estEnVedette: Boolean</text><text fill="#000000" font-family="sans-serif" font-size="14" lengthAdjust="spacing" textLength="124.9268" x="107.5" y="464.627">+estPublie: Boolean</text></g><!--class Media--><g id="elem_Media"><rect codeLine="26" fill="#F1F1F1" height="216.0938" id="Media" rx="2.5" ry="2.5" style="stroke:#181818;stroke-width:0.5;" width="151.6992" x="118" y="549.6094"/><ellipse cx="170.5342" cy="565.6094" fill="#ADD1B2" rx="11" ry="11" style="stroke:#181818;stroke-width:1;"/><path d="M173.2998,561.4844 Q173.4561,561.2656 173.6436,561.1563 Q173.8311,561.0469 174.0498,561.0469 Q174.4248,561.0469 174.6592,561.3125 Q174.8936,561.5625 174.8936,562.1719 L174.8936,563.625 Q174.8936,564.2344 174.6592,564.5 Q174.4248,564.7656 174.0498,564.7656 Q173.7061,564.7656 173.5029,564.5625 Q173.2998,564.375 173.1904,563.8594 Q173.1436,563.5 172.9561,563.3125 Q172.6279,562.9375 172.0186,562.7188 Q171.4092,562.5 170.7842,562.5 Q170.0186,562.5 169.3779,562.8281 Q168.7529,563.1563 168.2529,563.9063 Q167.7686,564.6563 167.7686,565.6875 L167.7686,566.7813 Q167.7686,568.0156 168.6592,568.8438 Q169.5498,569.6563 171.1436,569.6563 Q172.0811,569.6563 172.7373,569.4063 Q173.1279,569.25 173.5498,568.8125 Q173.8154,568.5469 173.9561,568.4688 Q174.1123,568.3906 174.3154,568.3906 Q174.6436,568.3906 174.8936,568.6563 Q175.1592,568.9063 175.1592,569.25 Q175.1592,569.5938 174.8154,570 Q174.3154,570.5781 173.5186,570.9063 Q172.4404,571.3594 171.1436,571.3594 Q169.6279,571.3594 168.4248,570.7344 Q167.4404,570.2344 166.7529,569.1719 Q166.0654,568.0938 166.0654,566.8125 L166.0654,565.6563 Q166.0654,564.3281 166.6748,563.1875 Q167.2998,562.0313 168.3936,561.4219 Q169.4873,560.7969 170.7217,560.7969 Q171.4561,560.7969 172.0967,560.9688 Q172.7529,561.125 173.2998,561.4844 Z " fill="#000000"/><text fill="#000000" font-family="sans-serif" font-size="14" lengthAdjust="spacing" textLength="38.1309" x="191.0342" y="571.3379">Media</text><line style="stroke:#181818;stroke-width:0.5;" x1="119" x2="268.6992" y1="581.6094" y2="581.6094"/><text fill="#000000" font-family="sans-serif" font-size="14" lengthAdjust="spacing" textLength="111.6719" x="124" y="600.1426">+type: TypeMedia</text><text fill="#000000" font-family="sans-serif" font-size="14" lengthAdjust="spacing" textLength="139.665" x="124" y="617.752">+cheminFichier: String</text><text fill="#000000" font-family="sans-serif" font-size="14" lengthAdjust="spacing" textLength="116.334" x="124" y="635.3613">+urlExterne: String</text><text fill="#000000" font-family="sans-serif" font-size="14" lengthAdjust="spacing" textLength="101.5615" x="124" y="652.9707">+vignette: String</text><text fill="#000000" font-family="sans-serif" font-size="14" lengthAdjust="spacing" textLength="75.8652" x="124" y="670.5801">+titre: String</text><text fill="#000000" font-family="sans-serif" font-size="14" lengthAdjust="spacing" textLength="88.334" x="124" y="688.1895">+taille: Integer</text><text fill="#000000" font-family="sans-serif" font-size="14" lengthAdjust="spacing" textLength="103.1201" x="124" y="705.7988">+largeur: Integer</text><text fill="#000000" font-family="sans-serif" font-size="14" lengthAdjust="spacing" textLength="107.0234" x="124" y="723.4082">+hauteur: Integer</text><text fill="#000000" font-family="sans-serif" font-size="14" lengthAdjust="spacing" textLength="139.6992" x="124" y="741.0176">+estPrincipal: Boolean</text><text fill="#000000" font-family="sans-serif" font-size="14" lengthAdjust="spacing" textLength="92.2236" x="124" y="758.627">+ordre: Integer</text></g><!--class Niveau--><g id="elem_Niveau"><rect codeLine="2" fill="#F1F1F1" height="110.4375" id="Niveau" rx="2.5" ry="2.5" style="stroke:#181818;stroke-width:0.5;" width="93.7031" x="7" y="45.6094"/><ellipse cx="30.1558" cy="61.6094" fill="#EB937F" rx="11" ry="11" style="stroke:#181818;stroke-width:1;"/><path d="M29.0152,62.4063 L29.0152,64.9063 L33.3433,64.9063 L33.3433,63.9844 Q33.3433,63.375 33.5777,63.1094 Q33.8277,62.8438 34.2027,62.8438 Q34.5777,62.8438 34.8121,63.1094 Q35.0464,63.375 35.0464,63.9844 L35.0464,66.6094 L27.0464,66.6094 Q26.4214,66.6094 26.1558,66.375 Q25.9058,66.1406 25.9058,65.75 Q25.9058,65.375 26.1714,65.1406 Q26.4371,64.9063 27.0464,64.9063 L27.3121,64.9063 L27.3121,58.25 L27.0464,58.25 Q26.4214,58.25 26.1558,58.0156 Q25.9058,57.7813 25.9058,57.3906 Q25.9058,57.0156 26.1558,56.7813 Q26.4214,56.5469 27.0464,56.5469 L34.6714,56.5469 L34.6714,59.1406 Q34.6714,59.75 34.4371,60.0156 Q34.2183,60.2656 33.8277,60.2656 Q33.4527,60.2656 33.2183,60.0156 Q32.9839,59.75 32.9839,59.1406 L32.9839,58.25 L29.0152,58.25 L29.0152,60.7031 L30.4996,60.7031 Q30.4996,60.0469 30.6246,59.8594 Q30.8902,59.4531 31.3589,59.4531 Q31.7339,59.4531 31.9683,59.7188 Q32.2027,59.9688 32.2027,60.5781 L32.2027,62.5469 Q32.2027,63.0938 32.0777,63.2813 Q31.8121,63.6719 31.3589,63.6719 Q30.8902,63.6719 30.6246,63.2656 Q30.4996,63.0781 30.4996,62.4063 L29.0152,62.4063 Z " fill="#000000"/><text fill="#000000" font-family="sans-serif" font-size="14" lengthAdjust="spacing" textLength="43.5791" x="45.9682" y="67.3379">Niveau</text><line style="stroke:#181818;stroke-width:0.5;" x1="8" x2="99.7031" y1="77.6094" y2="77.6094"/><text fill="#000000" font-family="sans-serif" font-size="14" lengthAdjust="spacing" textLength="56.8203" x="13" y="96.1426">D&#233;butant</text><text fill="#000000" font-family="sans-serif" font-size="14" lengthAdjust="spacing" textLength="81.7031" x="13" y="113.752">Interm&#233;diaire</text><text fill="#000000" font-family="sans-serif" font-size="14" lengthAdjust="spacing" textLength="46.6963" x="13" y="131.3613">Avanc&#233;</text><text fill="#000000" font-family="sans-serif" font-size="14" lengthAdjust="spacing" textLength="40.4619" x="13" y="148.9707">Expert</text></g><!--class TypeMedia--><g id="elem_TypeMedia"><rect codeLine="9" fill="#F1F1F1" height="128.0469" id="TypeMedia" rx="2.5" ry="2.5" style="stroke:#181818;stroke-width:0.5;" width="101.2549" x="143.5" y="828.6094"/><ellipse cx="158.5" cy="844.6094" fill="#EB937F" rx="11" ry="11" style="stroke:#181818;stroke-width:1;"/><path d="M157.3594,845.4063 L157.3594,847.9063 L161.6875,847.9063 L161.6875,846.9844 Q161.6875,846.375 161.9219,846.1094 Q162.1719,845.8438 162.5469,845.8438 Q162.9219,845.8438 163.1563,846.1094 Q163.3906,846.375 163.3906,846.9844 L163.3906,849.6094 L155.3906,849.6094 Q154.7656,849.6094 154.5,849.375 Q154.25,849.1406 154.25,848.75 Q154.25,848.375 154.5156,848.1406 Q154.7813,847.9063 155.3906,847.9063 L155.6563,847.9063 L155.6563,841.25 L155.3906,841.25 Q154.7656,841.25 154.5,841.0156 Q154.25,840.7813 154.25,840.3906 Q154.25,840.0156 154.5,839.7813 Q154.7656,839.5469 155.3906,839.5469 L163.0156,839.5469 L163.0156,842.1406 Q163.0156,842.75 162.7813,843.0156 Q162.5625,843.2656 162.1719,843.2656 Q161.7969,843.2656 161.5625,843.0156 Q161.3281,842.75 161.3281,842.1406 L161.3281,841.25 L157.3594,841.25 L157.3594,843.7031 L158.8438,843.7031 Q158.8438,843.0469 158.9688,842.8594 Q159.2344,842.4531 159.7031,842.4531 Q160.0781,842.4531 160.3125,842.7188 Q160.5469,842.9688 160.5469,843.5781 L160.5469,845.5469 Q160.5469,846.0938 160.4219,846.2813 Q160.1563,846.6719 159.7031,846.6719 Q159.2344,846.6719 158.9688,846.2656 Q158.8438,846.0781 158.8438,845.4063 L157.3594,845.4063 Z " fill="#000000"/><text fill="#000000" font-family="sans-serif" font-size="14" lengthAdjust="spacing" textLength="69.2549" x="172.5" y="850.3379">TypeMedia</text><line style="stroke:#181818;stroke-width:0.5;" x1="144.5" x2="243.7549" y1="860.6094" y2="860.6094"/><text fill="#000000" font-family="sans-serif" font-size="14" lengthAdjust="spacing" textLength="38.9102" x="149.5" y="879.1426">Image</text><text fill="#000000" font-family="sans-serif" font-size="14" lengthAdjust="spacing" textLength="35.8066" x="149.5" y="896.752">Vid&#233;o</text><text fill="#000000" font-family="sans-serif" font-size="14" lengthAdjust="spacing" textLength="63.8066" x="149.5" y="914.3613">Document</text><text fill="#000000" font-family="sans-serif" font-size="14" lengthAdjust="spacing" textLength="26.4688" x="149.5" y="931.9707">Lien</text><text fill="#000000" font-family="sans-serif" font-size="14" lengthAdjust="spacing" textLength="52.1582" x="149.5" y="949.5801">Youtube</text></g><!--class TypeRessource--><g id="elem_TypeRessource"><rect codeLine="17" fill="#F1F1F1" height="110.4375" id="TypeRessource" rx="2.5" ry="2.5" style="stroke:#181818;stroke-width:0.5;" width="130.041" x="275" y="45.6094"/><ellipse cx="290" cy="61.6094" fill="#EB937F" rx="11" ry="11" style="stroke:#181818;stroke-width:1;"/><path d="M288.8594,62.4063 L288.8594,64.9063 L293.1875,64.9063 L293.1875,63.9844 Q293.1875,63.375 293.4219,63.1094 Q293.6719,62.8438 294.0469,62.8438 Q294.4219,62.8438 294.6563,63.1094 Q294.8906,63.375 294.8906,63.9844 L294.8906,66.6094 L286.8906,66.6094 Q286.2656,66.6094 286,66.375 Q285.75,66.1406 285.75,65.75 Q285.75,65.375 286.0156,65.1406 Q286.2813,64.9063 286.8906,64.9063 L287.1563,64.9063 L287.1563,58.25 L286.8906,58.25 Q286.2656,58.25 286,58.0156 Q285.75,57.7813 285.75,57.3906 Q285.75,57.0156 286,56.7813 Q286.2656,56.5469 286.8906,56.5469 L294.5156,56.5469 L294.5156,59.1406 Q294.5156,59.75 294.2813,60.0156 Q294.0625,60.2656 293.6719,60.2656 Q293.2969,60.2656 293.0625,60.0156 Q292.8281,59.75 292.8281,59.1406 L292.8281,58.25 L288.8594,58.25 L288.8594,60.7031 L290.3438,60.7031 Q290.3438,60.0469 290.4688,59.8594 Q290.7344,59.4531 291.2031,59.4531 Q291.5781,59.4531 291.8125,59.7188 Q292.0469,59.9688 292.0469,60.5781 L292.0469,62.5469 Q292.0469,63.0938 291.9219,63.2813 Q291.6563,63.6719 291.2031,63.6719 Q290.7344,63.6719 290.4688,63.2656 Q290.3438,63.0781 290.3438,62.4063 L288.8594,62.4063 Z " fill="#000000"/><text fill="#000000" font-family="sans-serif" font-size="14" lengthAdjust="spacing" textLength="98.041" x="304" y="67.3379">TypeRessource</text><line style="stroke:#181818;stroke-width:0.5;" x1="276" x2="404.041" y1="77.6094" y2="77.6094"/><text fill="#000000" font-family="sans-serif" font-size="14" lengthAdjust="spacing" textLength="63.8066" x="281" y="96.1426">Document</text><text fill="#000000" font-family="sans-serif" font-size="14" lengthAdjust="spacing" textLength="38.9102" x="281" y="113.752">Image</text><text fill="#000000" font-family="sans-serif" font-size="14" lengthAdjust="spacing" textLength="46.6826" x="281" y="131.3613">Archive</text><text fill="#000000" font-family="sans-serif" font-size="14" lengthAdjust="spacing" textLength="26.4688" x="281" y="148.9707">Lien</text></g><!--class Timestamps--><g id="elem_Timestamps"><rect codeLine="25" fill="#F1F1F1" height="75.2188" id="Timestamps" rx="2.5" ry="2.5" style="stroke:#181818;stroke-width:0.5;" width="168.8027" x="300.5" y="855.1094"/><ellipse cx="342.7558" cy="871.1094" fill="#A9DCDF" rx="11" ry="11" style="stroke:#181818;stroke-width:1;"/><path d="M344.9433,872.875 L340.8026,872.875 L340.3808,873.9063 L340.8026,873.9063 Q341.412,873.9063 341.6776,874.1406 Q341.9433,874.375 341.9433,874.7656 Q341.9433,875.1406 341.6776,875.375 Q341.412,875.6094 340.8026,875.6094 L338.5058,875.6094 Q337.8964,875.6094 337.6464,875.375 Q337.3808,875.1406 337.3808,874.75 Q337.3808,874.375 337.662,874.1406 Q337.9276,873.8906 338.5526,873.9063 L341.2245,867.25 L340.1151,867.25 Q339.5058,867.25 339.2401,867.0156 Q338.9745,866.7813 338.9745,866.3906 Q338.9745,866.0156 339.2401,865.7813 Q339.5058,865.5469 340.1151,865.5469 L343.787,865.5469 L347.1776,873.9063 Q347.7714,873.9063 347.9589,874.0469 Q348.3495,874.3125 348.3495,874.7656 Q348.3495,875.1406 348.0839,875.375 Q347.8339,875.6094 347.2245,875.6094 L344.9276,875.6094 Q344.3183,875.6094 344.0526,875.375 Q343.787,875.1406 343.787,874.75 Q343.787,874.375 344.0526,874.1406 Q344.3183,873.9063 344.9276,873.9063 L345.3495,873.9063 L344.9433,872.875 Z M344.2245,871.1719 L342.8651,867.7969 L341.4901,871.1719 L344.2245,871.1719 Z " fill="#000000"/><text fill="#000000" font-family="sans-serif" font-size="14" font-style="italic" lengthAdjust="spacing" textLength="76.2344" x="362.8126" y="876.8379">Timestamps</text><line style="stroke:#181818;stroke-width:0.5;" x1="301.5" x2="468.3027" y1="887.1094" y2="887.1094"/><text fill="#000000" font-family="sans-serif" font-size="14" lengthAdjust="spacing" textLength="156.8027" x="306.5" y="905.6426">+dateCreation: DateTime</text><text fill="#000000" font-family="sans-serif" font-size="14" lengthAdjust="spacing" textLength="138.1201" x="306.5" y="923.252">+dateModif: DateTime</text></g><!--class SoftDeletes--><g id="elem_SoftDeletes"><rect codeLine="30" fill="#F1F1F1" height="57.6094" id="SoftDeletes" rx="2.5" ry="2.5" style="stroke:#181818;stroke-width:0.5;" width="193.7129" x="307" y="628.6094"/><ellipse cx="363.4204" cy="644.6094" fill="#A9DCDF" rx="11" ry="11" style="stroke:#181818;stroke-width:1;"/><path d="M365.6079,646.375 L361.4673,646.375 L361.0454,647.4063 L361.4673,647.4063 Q362.0767,647.4063 362.3423,647.6406 Q362.6079,647.875 362.6079,648.2656 Q362.6079,648.6406 362.3423,648.875 Q362.0767,649.1094 361.4673,649.1094 L359.1704,649.1094 Q358.561,649.1094 358.311,648.875 Q358.0454,648.6406 358.0454,648.25 Q358.0454,647.875 358.3267,647.6406 Q358.5923,647.3906 359.2173,647.4063 L361.8892,640.75 L360.7798,640.75 Q360.1704,640.75 359.9048,640.5156 Q359.6392,640.2813 359.6392,639.8906 Q359.6392,639.5156 359.9048,639.2813 Q360.1704,639.0469 360.7798,639.0469 L364.4517,639.0469 L367.8423,647.4063 Q368.436,647.4063 368.6235,647.5469 Q369.0142,647.8125 369.0142,648.2656 Q369.0142,648.6406 368.7485,648.875 Q368.4985,649.1094 367.8892,649.1094 L365.5923,649.1094 Q364.9829,649.1094 364.7173,648.875 Q364.4517,648.6406 364.4517,648.25 Q364.4517,647.875 364.7173,647.6406 Q364.9829,647.4063 365.5923,647.4063 L366.0142,647.4063 L365.6079,646.375 Z M364.8892,644.6719 L363.5298,641.2969 L362.1548,644.6719 L364.8892,644.6719 Z " fill="#000000"/><text fill="#000000" font-family="sans-serif" font-size="14" font-style="italic" lengthAdjust="spacing" textLength="72.3721" x="383.9204" y="650.3379">SoftDeletes</text><line style="stroke:#181818;stroke-width:0.5;" x1="308" x2="499.7129" y1="660.6094" y2="660.6094"/><text fill="#000000" font-family="sans-serif" font-size="14" lengthAdjust="spacing" textLength="181.7129" x="313" y="679.1426">+dateSuppression: DateTime</text></g><!--class Proprietaire--><g id="elem_Proprietaire"><rect fill="#F1F1F1" height="32" id="Proprietaire" rx="2.5" ry="2.5" style="stroke:#181818;stroke-width:0.5;" width="104.3652" x="136" y="84.6094"/><ellipse cx="151" cy="100.6094" fill="#ADD1B2" rx="11" ry="11" style="stroke:#181818;stroke-width:1;"/><path d="M153.7656,96.4844 Q153.9219,96.2656 154.1094,96.1563 Q154.2969,96.0469 154.5156,96.0469 Q154.8906,96.0469 155.125,96.3125 Q155.3594,96.5625 155.3594,97.1719 L155.3594,98.625 Q155.3594,99.2344 155.125,99.5 Q154.8906,99.7656 154.5156,99.7656 Q154.1719,99.7656 153.9688,99.5625 Q153.7656,99.375 153.6563,98.8594 Q153.6094,98.5 153.4219,98.3125 Q153.0938,97.9375 152.4844,97.7188 Q151.875,97.5 151.25,97.5 Q150.4844,97.5 149.8438,97.8281 Q149.2188,98.1563 148.7188,98.9063 Q148.2344,99.6563 148.2344,100.6875 L148.2344,101.7813 Q148.2344,103.0156 149.125,103.8438 Q150.0156,104.6563 151.6094,104.6563 Q152.5469,104.6563 153.2031,104.4063 Q153.5938,104.25 154.0156,103.8125 Q154.2813,103.5469 154.4219,103.4688 Q154.5781,103.3906 154.7813,103.3906 Q155.1094,103.3906 155.3594,103.6563 Q155.625,103.9063 155.625,104.25 Q155.625,104.5938 155.2813,105 Q154.7813,105.5781 153.9844,105.9063 Q152.9063,106.3594 151.6094,106.3594 Q150.0938,106.3594 148.8906,105.7344 Q147.9063,105.2344 147.2188,104.1719 Q146.5313,103.0938 146.5313,101.8125 L146.5313,100.6563 Q146.5313,99.3281 147.1406,98.1875 Q147.7656,97.0313 148.8594,96.4219 Q149.9531,95.7969 151.1875,95.7969 Q151.9219,95.7969 152.5625,95.9688 Q153.2188,96.125 153.7656,96.4844 Z " fill="#000000"/><text fill="#000000" font-family="sans-serif" font-size="14" lengthAdjust="spacing" textLength="72.3652" x="165" y="106.3379">Proprietaire</text></g><!--link SoftDeletes to Timestamps--><g id="link_SoftDeletes_Timestamps"><path codeLine="34" d="M401.71,686.7194 C398.27,728.8394 393.2523,790.4189 389.4523,837.0389 " fill="none" id="SoftDeletes-to-Timestamps" style="stroke:#181818;stroke-width:1;"/><polygon fill="none" points="387.99,854.9794,395.4325,837.5263,383.4722,836.5514,387.99,854.9794" style="stroke:#181818;stroke-width:1;"/></g><!--link ProjetPortfolio to SoftDeletes--><g id="link_ProjetPortfolio_SoftDeletes"><path codeLine="24" d="M267.2,471.6794 C308.74,527.8394 345.704,577.8094 372.384,613.8694 " fill="none" id="ProjetPortfolio-to-SoftDeletes" style="stroke:#181818;stroke-width:1;"/><polygon fill="none" points="383.09,628.3394,377.2073,610.3007,367.5606,617.4381,383.09,628.3394" style="stroke:#181818;stroke-width:1;"/></g><!--link Media to Timestamps--><g id="link_Media_Timestamps"><path codeLine="39" d="M270.23,764.8894 C276.8,773.3494 283.44,781.6794 290,789.6094 C308.51,811.9894 318.089,822.8005 336.269,841.7805 " fill="none" id="Media-to-Timestamps" style="stroke:#181818;stroke-width:1;"/><polygon fill="none" points="348.72,854.7794,340.602,837.6301,331.936,845.9308,348.72,854.7794" style="stroke:#181818;stroke-width:1;"/></g><!--link Media to TypeMedia--><g id="link_Media_TypeMedia"><path codeLine="45" d="M194,765.8994 C194,787.2794 194,803.0794 194,822.3794 " fill="none" id="Media-to-TypeMedia" style="stroke:#181818;stroke-width:1;"/><polygon fill="#181818" points="194,828.3794,198,819.3794,194,823.3794,190,819.3794,194,828.3794" style="stroke:#181818;stroke-width:1;"/></g><!--link Proprietaire to ProjetPortfolio--><g id="link_Proprietaire_ProjetPortfolio"><path codeLine="50" d="M188,116.7694 C188,143.7494 188,202.2694 188,255.4494 " fill="none" id="Proprietaire-ProjetPortfolio" style="stroke:#181818;stroke-width:1;"/><text fill="#000000" font-family="sans-serif" font-size="13" lengthAdjust="spacing" textLength="39.019" x="189" y="200.1045">projets</text><text fill="#000000" font-family="sans-serif" font-size="13" lengthAdjust="spacing" textLength="7.23" x="179.8628" y="138.0215">1</text><text fill="#000000" font-family="sans-serif" font-size="13" lengthAdjust="spacing" textLength="19.5127" x="168.3337" y="244.7861">0..*</text></g><!--link ProjetPortfolio to Media--><g id="link_ProjetPortfolio_Media"><path codeLine="51" d="M190.2,471.6794 C190.72,497.0694 191.28,524.1594 191.8,549.5494 " fill="none" id="ProjetPortfolio-Media" style="stroke:#181818;stroke-width:1;"/><text fill="#000000" font-family="sans-serif" font-size="13" lengthAdjust="spacing" textLength="41.9072" x="192" y="516.1045">medias</text><text fill="#000000" font-family="sans-serif" font-size="13" lengthAdjust="spacing" textLength="7.23" x="183.1003" y="493.3447">1</text><text fill="#000000" font-family="sans-serif" font-size="13" lengthAdjust="spacing" textLength="19.5127" x="172.0059" y="538.8931">0..*</text></g><rect fill="#DDDDDD" height="66.8281" id="_legend" rx="7.5" ry="7.5" style="stroke:#000000;stroke-width:1;" width="180.8301" x="156.4414" y="974.6563"/><text fill="#000000" font-family="sans-serif" font-size="14" font-weight="bold" lengthAdjust="spacing" textLength="56.7656" x="165.3311" y="996.1895">Notation</text><text fill="#000000" font-family="sans-serif" font-size="14" font-weight="bold" lengthAdjust="spacing" textLength="84" x="238.8926" y="996.1895">Signification</text><text fill="#000000" font-family="sans-serif" font-size="14" lengthAdjust="spacing" textLength="65.7822" x="165.3311" y="1013.7988">"1" -- "0..*"</text><text fill="#000000" font-family="sans-serif" font-size="14" lengthAdjust="spacing" textLength="89.4893" x="238.8926" y="1013.7988">Un &#224; plusieurs</text><text fill="#000000" font-family="sans-serif" font-size="14" lengthAdjust="spacing" textLength="9.3242" x="165.3311" y="1031.4082">--</text><text fill="#000000" font-family="sans-serif" font-size="14" lengthAdjust="spacing" textLength="8.1758" x="235.0029" y="1031.4082">&gt;</text><line style="stroke:#000000;stroke-width:1;" x1="161.4414" x2="332.2715" y1="981.6563" y2="981.6563"/><line style="stroke:#000000;stroke-width:1;" x1="161.4414" x2="332.2715" y1="999.2656" y2="999.2656"/><line style="stroke:#000000;stroke-width:1;" x1="161.4414" x2="332.2715" y1="1016.875" y2="1016.875"/><line style="stroke:#000000;stroke-width:1;" x1="161.4414" x2="332.2715" y1="1034.4844" y2="1034.4844"/><line style="stroke:#000000;stroke-width:1;" x1="161.4414" x2="161.4414" y1="981.6563" y2="1034.4844"/><line style="stroke:#000000;stroke-width:1;" x1="235.0029" x2="235.0029" y1="981.6563" y2="1034.4844"/><line style="stroke:#000000;stroke-width:1;" x1="332.2715" x2="332.2715" y1="981.6563" y2="1034.4844"/><!--SRC=[fLJ1Rjim3BthAxXS1cn8q5q3j427P5Y0DWlgTDT1aHc7gom94hqjQ_Olk-ux-cDZR0TkdFNGpWVRU1GVdnufCR55MFZ8Qs_9mn0MqNz5Jagz8cTibIDyMUc4GsDrIgFlALTgGu9Y6NWB9POhZ4cbEt91Hrr2qEPE5vZnLeWZ6jQkiFXeGKrqoHnfLJ7EZ7SP_KGuKwfDXK6heTCr09qEok1UAMXOMgYJVoyHWBV0n177a4aHLxHOibNHWt9C9b9WyguNCRwAZ9CdurMq4opzAPf9ekcNPZGRvwql2DCOhYZnGO1cl45jAUcco4I0DeQ9f-upviWiVE-zjwXT5rjKAqj7WLzAzVqO3dSNaFarJz0YO-gSkyQSTEVNDWZLKjurVZ1XWoMv3sGsXF5qgzCVZD7rz_gD2jT8FhRW7nrXJTOAE7EC1SOMjJeMMCK-lD4oBQVmtWcXD1IqxRlaOnwFwCMXPj-rBqig9LkN8Ia9l8RpPp-ID9tVNiFDzEfoEViqprx6Sj1qyQW3BzNpdr9aW48abCv4EOVl1g8A1cUZqPl1oLaRGsYlYdxaEA_PtLYk2ldA15ffXijXvPbzAKtPdSFSSpt_-_zCveVMP5fWlw17k8DR1m-_8TWgaOn4QbVLJPNlnuS_aNX_aUpKlb9JKFq5]--></g></svg>