<svg xmlns="http://www.w3.org/2000/svg" xmlns:xlink="http://www.w3.org/1999/xlink" contentStyleType="text/css" data-diagram-type="CLASS" height="990px" preserveAspectRatio="none" style="width:507px;height:990px;background:#FFFFFF;" version="1.1" viewBox="0 0 507 990" width="507px" zoomAndPan="magnify"><title>Portfolio - Projets</title><defs/><g><text fill="#000000" font-family="sans-serif" font-size="14" font-weight="bold" lengthAdjust="spacing" textLength="117.4482" x="188.1323" y="24.5332">Portfolio - Projets</text><!--cluster Projets--><g class="cluster" data-entity="Projets" data-source-line="9" data-uid="ent0008" id="cluster_Projets"><rect fill="none" height="509" rx="2.5" ry="2.5" style="stroke:#000000;stroke-width:1.5;" width="206" x="85" y="219.6094"/><text fill="#000000" font-family="sans-serif" font-size="14" font-weight="bold" lengthAdjust="spacing" textLength="108.8965" x="133.5518" y="236.1426">Projets Portfolio</text></g><!--class ProjetPortfolio--><g class="entity" data-entity="ProjetPortfolio" data-source-line="11" data-uid="ent0009" id="entity_ProjetPortfolio"><rect fill="#F1F1F1" height="216.0938" rx="2.5" ry="2.5" style="stroke:#181818;stroke-width:0.5;" width="173.4648" x="101.5" y="255.6094"/><ellipse cx="140.5904" cy="271.6094" fill="#ADD1B2" rx="11" ry="11" style="stroke:#181818;stroke-width:1;"/><path d="M143.356,267.4844 Q143.5123,267.2656 143.6998,267.1563 Q143.8873,267.0469 144.106,267.0469 Q144.481,267.0469 144.7154,267.3125 Q144.9498,267.5625 144.9498,268.1719 L144.9498,269.625 Q144.9498,270.2344 144.7154,270.5 Q144.481,270.7656 144.106,270.7656 Q143.7623,270.7656 143.5591,270.5625 Q143.356,270.375 143.2466,269.8594 Q143.1998,269.5 143.0123,269.3125 Q142.6841,268.9375 142.0748,268.7188 Q141.4654,268.5 140.8404,268.5 Q140.0748,268.5 139.4341,268.8281 Q138.8091,269.1563 138.3091,269.9063 Q137.8248,270.6563 137.8248,271.6875 L137.8248,272.7813 Q137.8248,274.0156 138.7154,274.8438 Q139.606,275.6563 141.1998,275.6563 Q142.1373,275.6563 142.7935,275.4063 Q143.1841,275.25 143.606,274.8125 Q143.8716,274.5469 144.0123,274.4688 Q144.1685,274.3906 144.3716,274.3906 Q144.6998,274.3906 144.9498,274.6563 Q145.2154,274.9063 145.2154,275.25 Q145.2154,275.5938 144.8716,276 Q144.3716,276.5781 143.5748,276.9063 Q142.4966,277.3594 141.1998,277.3594 Q139.6841,277.3594 138.481,276.7344 Q137.4966,276.2344 136.8091,275.1719 Q136.1216,274.0938 136.1216,272.8125 L136.1216,271.6563 Q136.1216,270.3281 136.731,269.1875 Q137.356,268.0313 138.4498,267.4219 Q139.5435,266.7969 140.7779,266.7969 Q141.5123,266.7969 142.1529,266.9688 Q142.8091,267.125 143.356,267.4844 Z " fill="#000000"/><text fill="#000000" font-family="sans-serif" font-size="14" lengthAdjust="spacing" textLength="87.9307" x="159.9438" y="277.3379">ProjetPortfolio</text><line style="stroke:#181818;stroke-width:0.5;" x1="102.5" x2="273.9648" y1="287.6094" y2="287.6094"/><text fill="#000000" font-family="sans-serif" font-size="14" lengthAdjust="spacing" textLength="75.8652" x="107.5" y="306.1426">+titre: String</text><text fill="#000000" font-family="sans-serif" font-size="14" lengthAdjust="spacing" textLength="78.21" x="107.5" y="323.752">+slug: String</text><text fill="#000000" font-family="sans-serif" font-size="14" lengthAdjust="spacing" textLength="120.2305" x="107.5" y="341.3613">+description: String</text><text fill="#000000" font-family="sans-serif" font-size="14" lengthAdjust="spacing" textLength="161.4648" x="107.5" y="358.9707">+courteDescription: String</text><text fill="#000000" font-family="sans-serif" font-size="14" lengthAdjust="spacing" textLength="105.4307" x="107.5" y="376.5801">+urlDemo: String</text><text fill="#000000" font-family="sans-serif" font-size="14" lengthAdjust="spacing" textLength="112.4443" x="107.5" y="394.1895">+urlSource: String</text><text fill="#000000" font-family="sans-serif" font-size="14" lengthAdjust="spacing" textLength="116.3545" x="107.5" y="411.7988">+technologies: List</text><text fill="#000000" font-family="sans-serif" font-size="14" lengthAdjust="spacing" textLength="142.0371" x="107.5" y="429.4082">+dateRealisation: Date</text><text fill="#000000" font-family="sans-serif" font-size="14" lengthAdjust="spacing" textLength="151.3955" x="107.5" y="447.0176">+estEnVedette: Boolean</text><text fill="#000000" font-family="sans-serif" font-size="14" lengthAdjust="spacing" textLength="124.9268" x="107.5" y="464.627">+estPublie: Boolean</text></g><!--class MediaProjet--><g class="entity" data-entity="MediaProjet" data-source-line="26" data-uid="ent0011" id="entity_MediaProjet"><rect fill="#F1F1F1" height="163.2656" rx="2.5" ry="2.5" style="stroke:#181818;stroke-width:0.5;" width="151.6992" x="118" y="549.6094"/><ellipse cx="153.2482" cy="565.6094" fill="#ADD1B2" rx="11" ry="11" style="stroke:#181818;stroke-width:1;"/><path d="M156.0139,561.4844 Q156.1701,561.2656 156.3576,561.1563 Q156.5451,561.0469 156.7639,561.0469 Q157.1389,561.0469 157.3732,561.3125 Q157.6076,561.5625 157.6076,562.1719 L157.6076,563.625 Q157.6076,564.2344 157.3732,564.5 Q157.1389,564.7656 156.7639,564.7656 Q156.4201,564.7656 156.217,564.5625 Q156.0139,564.375 155.9045,563.8594 Q155.8576,563.5 155.6701,563.3125 Q155.342,562.9375 154.7326,562.7188 Q154.1232,562.5 153.4982,562.5 Q152.7326,562.5 152.092,562.8281 Q151.467,563.1563 150.967,563.9063 Q150.4826,564.6563 150.4826,565.6875 L150.4826,566.7813 Q150.4826,568.0156 151.3732,568.8438 Q152.2639,569.6563 153.8576,569.6563 Q154.7951,569.6563 155.4514,569.4063 Q155.842,569.25 156.2639,568.8125 Q156.5295,568.5469 156.6701,568.4688 Q156.8264,568.3906 157.0295,568.3906 Q157.3576,568.3906 157.6076,568.6563 Q157.8732,568.9063 157.8732,569.25 Q157.8732,569.5938 157.5295,570 Q157.0295,570.5781 156.2326,570.9063 Q155.1545,571.3594 153.8576,571.3594 Q152.342,571.3594 151.1389,570.7344 Q150.1545,570.2344 149.467,569.1719 Q148.7795,568.0938 148.7795,566.8125 L148.7795,565.6563 Q148.7795,564.3281 149.3889,563.1875 Q150.0139,562.0313 151.1076,561.4219 Q152.2014,560.7969 153.4357,560.7969 Q154.1701,560.7969 154.8107,560.9688 Q155.467,561.125 156.0139,561.4844 Z " fill="#000000"/><text fill="#000000" font-family="sans-serif" font-size="14" lengthAdjust="spacing" textLength="74.7031" x="171.7479" y="571.3379">MediaProjet</text><line style="stroke:#181818;stroke-width:0.5;" x1="119" x2="268.6992" y1="581.6094" y2="581.6094"/><text fill="#000000" font-family="sans-serif" font-size="14" lengthAdjust="spacing" textLength="111.6719" x="124" y="600.1426">+type: TypeMedia</text><text fill="#000000" font-family="sans-serif" font-size="14" lengthAdjust="spacing" textLength="139.665" x="124" y="617.752">+cheminFichier: String</text><text fill="#000000" font-family="sans-serif" font-size="14" lengthAdjust="spacing" textLength="116.334" x="124" y="635.3613">+urlExterne: String</text><text fill="#000000" font-family="sans-serif" font-size="14" lengthAdjust="spacing" textLength="101.5615" x="124" y="652.9707">+vignette: String</text><text fill="#000000" font-family="sans-serif" font-size="14" lengthAdjust="spacing" textLength="75.8652" x="124" y="670.5801">+titre: String</text><text fill="#000000" font-family="sans-serif" font-size="14" lengthAdjust="spacing" textLength="139.6992" x="124" y="688.1895">+estPrincipal: Boolean</text><text fill="#000000" font-family="sans-serif" font-size="14" lengthAdjust="spacing" textLength="92.2236" x="124" y="705.7988">+ordre: Integer</text></g><!--class Niveau--><g class="entity" data-entity="Niveau" data-source-line="2" data-uid="ent0002" id="entity_Niveau"><rect fill="#F1F1F1" height="110.4375" rx="2.5" ry="2.5" style="stroke:#181818;stroke-width:0.5;" width="93.7031" x="7" y="45.6094"/><ellipse cx="30.1558" cy="61.6094" fill="#EB937F" rx="11" ry="11" style="stroke:#181818;stroke-width:1;"/><path d="M29.0152,62.4063 L29.0152,64.9063 L33.3433,64.9063 L33.3433,63.9844 Q33.3433,63.375 33.5777,63.1094 Q33.8277,62.8438 34.2027,62.8438 Q34.5777,62.8438 34.8121,63.1094 Q35.0464,63.375 35.0464,63.9844 L35.0464,66.6094 L27.0464,66.6094 Q26.4214,66.6094 26.1558,66.375 Q25.9058,66.1406 25.9058,65.75 Q25.9058,65.375 26.1714,65.1406 Q26.4371,64.9063 27.0464,64.9063 L27.3121,64.9063 L27.3121,58.25 L27.0464,58.25 Q26.4214,58.25 26.1558,58.0156 Q25.9058,57.7813 25.9058,57.3906 Q25.9058,57.0156 26.1558,56.7813 Q26.4214,56.5469 27.0464,56.5469 L34.6714,56.5469 L34.6714,59.1406 Q34.6714,59.75 34.4371,60.0156 Q34.2183,60.2656 33.8277,60.2656 Q33.4527,60.2656 33.2183,60.0156 Q32.9839,59.75 32.9839,59.1406 L32.9839,58.25 L29.0152,58.25 L29.0152,60.7031 L30.4996,60.7031 Q30.4996,60.0469 30.6246,59.8594 Q30.8902,59.4531 31.3589,59.4531 Q31.7339,59.4531 31.9683,59.7188 Q32.2027,59.9688 32.2027,60.5781 L32.2027,62.5469 Q32.2027,63.0938 32.0777,63.2813 Q31.8121,63.6719 31.3589,63.6719 Q30.8902,63.6719 30.6246,63.2656 Q30.4996,63.0781 30.4996,62.4063 L29.0152,62.4063 Z " fill="#000000"/><text fill="#000000" font-family="sans-serif" font-size="14" lengthAdjust="spacing" textLength="43.5791" x="45.9682" y="67.3379">Niveau</text><line style="stroke:#181818;stroke-width:0.5;" x1="8" x2="99.7031" y1="77.6094" y2="77.6094"/><text fill="#000000" font-family="sans-serif" font-size="14" lengthAdjust="spacing" textLength="56.8203" x="13" y="96.1426">D&#233;butant</text><text fill="#000000" font-family="sans-serif" font-size="14" lengthAdjust="spacing" textLength="81.7031" x="13" y="113.752">Interm&#233;diaire</text><text fill="#000000" font-family="sans-serif" font-size="14" lengthAdjust="spacing" textLength="46.6963" x="13" y="131.3613">Avanc&#233;</text><text fill="#000000" font-family="sans-serif" font-size="14" lengthAdjust="spacing" textLength="40.4619" x="13" y="148.9707">Expert</text></g><!--class TypeMedia--><g class="entity" data-entity="TypeMedia" data-source-line="9" data-uid="ent0003" id="entity_TypeMedia"><rect fill="#F1F1F1" height="110.4375" rx="2.5" ry="2.5" style="stroke:#181818;stroke-width:0.5;" width="101.2549" x="143.5" y="775.6094"/><ellipse cx="158.5" cy="791.6094" fill="#EB937F" rx="11" ry="11" style="stroke:#181818;stroke-width:1;"/><path d="M157.3594,792.4063 L157.3594,794.9063 L161.6875,794.9063 L161.6875,793.9844 Q161.6875,793.375 161.9219,793.1094 Q162.1719,792.8438 162.5469,792.8438 Q162.9219,792.8438 163.1563,793.1094 Q163.3906,793.375 163.3906,793.9844 L163.3906,796.6094 L155.3906,796.6094 Q154.7656,796.6094 154.5,796.375 Q154.25,796.1406 154.25,795.75 Q154.25,795.375 154.5156,795.1406 Q154.7813,794.9063 155.3906,794.9063 L155.6563,794.9063 L155.6563,788.25 L155.3906,788.25 Q154.7656,788.25 154.5,788.0156 Q154.25,787.7813 154.25,787.3906 Q154.25,787.0156 154.5,786.7813 Q154.7656,786.5469 155.3906,786.5469 L163.0156,786.5469 L163.0156,789.1406 Q163.0156,789.75 162.7813,790.0156 Q162.5625,790.2656 162.1719,790.2656 Q161.7969,790.2656 161.5625,790.0156 Q161.3281,789.75 161.3281,789.1406 L161.3281,788.25 L157.3594,788.25 L157.3594,790.7031 L158.8438,790.7031 Q158.8438,790.0469 158.9688,789.8594 Q159.2344,789.4531 159.7031,789.4531 Q160.0781,789.4531 160.3125,789.7188 Q160.5469,789.9688 160.5469,790.5781 L160.5469,792.5469 Q160.5469,793.0938 160.4219,793.2813 Q160.1563,793.6719 159.7031,793.6719 Q159.2344,793.6719 158.9688,793.2656 Q158.8438,793.0781 158.8438,792.4063 L157.3594,792.4063 Z " fill="#000000"/><text fill="#000000" font-family="sans-serif" font-size="14" lengthAdjust="spacing" textLength="69.2549" x="172.5" y="797.3379">TypeMedia</text><line style="stroke:#181818;stroke-width:0.5;" x1="144.5" x2="243.7549" y1="807.6094" y2="807.6094"/><text fill="#000000" font-family="sans-serif" font-size="14" lengthAdjust="spacing" textLength="38.9102" x="149.5" y="826.1426">Image</text><text fill="#000000" font-family="sans-serif" font-size="14" lengthAdjust="spacing" textLength="35.8066" x="149.5" y="843.752">Vid&#233;o</text><text fill="#000000" font-family="sans-serif" font-size="14" lengthAdjust="spacing" textLength="63.8066" x="149.5" y="861.3613">Document</text><text fill="#000000" font-family="sans-serif" font-size="14" lengthAdjust="spacing" textLength="26.4688" x="149.5" y="878.9707">Lien</text></g><!--class TypeRessource--><g class="entity" data-entity="TypeRessource" data-source-line="16" data-uid="ent0004" id="entity_TypeRessource"><rect fill="#F1F1F1" height="110.4375" rx="2.5" ry="2.5" style="stroke:#181818;stroke-width:0.5;" width="130.041" x="275" y="45.6094"/><ellipse cx="290" cy="61.6094" fill="#EB937F" rx="11" ry="11" style="stroke:#181818;stroke-width:1;"/><path d="M288.8594,62.4063 L288.8594,64.9063 L293.1875,64.9063 L293.1875,63.9844 Q293.1875,63.375 293.4219,63.1094 Q293.6719,62.8438 294.0469,62.8438 Q294.4219,62.8438 294.6563,63.1094 Q294.8906,63.375 294.8906,63.9844 L294.8906,66.6094 L286.8906,66.6094 Q286.2656,66.6094 286,66.375 Q285.75,66.1406 285.75,65.75 Q285.75,65.375 286.0156,65.1406 Q286.2813,64.9063 286.8906,64.9063 L287.1563,64.9063 L287.1563,58.25 L286.8906,58.25 Q286.2656,58.25 286,58.0156 Q285.75,57.7813 285.75,57.3906 Q285.75,57.0156 286,56.7813 Q286.2656,56.5469 286.8906,56.5469 L294.5156,56.5469 L294.5156,59.1406 Q294.5156,59.75 294.2813,60.0156 Q294.0625,60.2656 293.6719,60.2656 Q293.2969,60.2656 293.0625,60.0156 Q292.8281,59.75 292.8281,59.1406 L292.8281,58.25 L288.8594,58.25 L288.8594,60.7031 L290.3438,60.7031 Q290.3438,60.0469 290.4688,59.8594 Q290.7344,59.4531 291.2031,59.4531 Q291.5781,59.4531 291.8125,59.7188 Q292.0469,59.9688 292.0469,60.5781 L292.0469,62.5469 Q292.0469,63.0938 291.9219,63.2813 Q291.6563,63.6719 291.2031,63.6719 Q290.7344,63.6719 290.4688,63.2656 Q290.3438,63.0781 290.3438,62.4063 L288.8594,62.4063 Z " fill="#000000"/><text fill="#000000" font-family="sans-serif" font-size="14" lengthAdjust="spacing" textLength="98.041" x="304" y="67.3379">TypeRessource</text><line style="stroke:#181818;stroke-width:0.5;" x1="276" x2="404.041" y1="77.6094" y2="77.6094"/><text fill="#000000" font-family="sans-serif" font-size="14" lengthAdjust="spacing" textLength="63.8066" x="281" y="96.1426">Document</text><text fill="#000000" font-family="sans-serif" font-size="14" lengthAdjust="spacing" textLength="38.9102" x="281" y="113.752">Image</text><text fill="#000000" font-family="sans-serif" font-size="14" lengthAdjust="spacing" textLength="46.6826" x="281" y="131.3613">Archive</text><text fill="#000000" font-family="sans-serif" font-size="14" lengthAdjust="spacing" textLength="26.4688" x="281" y="148.9707">Lien</text></g><!--class Timestamps--><g class="entity" data-entity="Timestamps" data-source-line="24" data-uid="ent0005" id="entity_Timestamps"><rect fill="#F1F1F1" height="75.2188" rx="2.5" ry="2.5" style="stroke:#181818;stroke-width:0.5;" width="168.8027" x="300.5" y="793.1094"/><ellipse cx="342.7558" cy="809.1094" fill="#A9DCDF" rx="11" ry="11" style="stroke:#181818;stroke-width:1;"/><path d="M344.9433,810.875 L340.8026,810.875 L340.3808,811.9063 L340.8026,811.9063 Q341.412,811.9063 341.6776,812.1406 Q341.9433,812.375 341.9433,812.7656 Q341.9433,813.1406 341.6776,813.375 Q341.412,813.6094 340.8026,813.6094 L338.5058,813.6094 Q337.8964,813.6094 337.6464,813.375 Q337.3808,813.1406 337.3808,812.75 Q337.3808,812.375 337.662,812.1406 Q337.9276,811.8906 338.5526,811.9063 L341.2245,805.25 L340.1151,805.25 Q339.5058,805.25 339.2401,805.0156 Q338.9745,804.7813 338.9745,804.3906 Q338.9745,804.0156 339.2401,803.7813 Q339.5058,803.5469 340.1151,803.5469 L343.787,803.5469 L347.1776,811.9063 Q347.7714,811.9063 347.9589,812.0469 Q348.3495,812.3125 348.3495,812.7656 Q348.3495,813.1406 348.0839,813.375 Q347.8339,813.6094 347.2245,813.6094 L344.9276,813.6094 Q344.3183,813.6094 344.0526,813.375 Q343.787,813.1406 343.787,812.75 Q343.787,812.375 344.0526,812.1406 Q344.3183,811.9063 344.9276,811.9063 L345.3495,811.9063 L344.9433,810.875 Z M344.2245,809.1719 L342.8651,805.7969 L341.4901,809.1719 L344.2245,809.1719 Z " fill="#000000"/><text fill="#000000" font-family="sans-serif" font-size="14" font-style="italic" lengthAdjust="spacing" textLength="76.2344" x="362.8126" y="814.8379">Timestamps</text><line style="stroke:#181818;stroke-width:0.5;" x1="301.5" x2="468.3027" y1="825.1094" y2="825.1094"/><text fill="#000000" font-family="sans-serif" font-size="14" lengthAdjust="spacing" textLength="156.8027" x="306.5" y="843.6426">+dateCreation: DateTime</text><text fill="#000000" font-family="sans-serif" font-size="14" lengthAdjust="spacing" textLength="138.1201" x="306.5" y="861.252">+dateModif: DateTime</text></g><!--class SoftDeletes--><g class="entity" data-entity="SoftDeletes" data-source-line="29" data-uid="ent0006" id="entity_SoftDeletes"><rect fill="#F1F1F1" height="57.6094" rx="2.5" ry="2.5" style="stroke:#181818;stroke-width:0.5;" width="193.7129" x="307" y="602.1094"/><ellipse cx="363.4204" cy="618.1094" fill="#A9DCDF" rx="11" ry="11" style="stroke:#181818;stroke-width:1;"/><path d="M365.6079,619.875 L361.4673,619.875 L361.0454,620.9063 L361.4673,620.9063 Q362.0767,620.9063 362.3423,621.1406 Q362.6079,621.375 362.6079,621.7656 Q362.6079,622.1406 362.3423,622.375 Q362.0767,622.6094 361.4673,622.6094 L359.1704,622.6094 Q358.561,622.6094 358.311,622.375 Q358.0454,622.1406 358.0454,621.75 Q358.0454,621.375 358.3267,621.1406 Q358.5923,620.8906 359.2173,620.9063 L361.8892,614.25 L360.7798,614.25 Q360.1704,614.25 359.9048,614.0156 Q359.6392,613.7813 359.6392,613.3906 Q359.6392,613.0156 359.9048,612.7813 Q360.1704,612.5469 360.7798,612.5469 L364.4517,612.5469 L367.8423,620.9063 Q368.436,620.9063 368.6235,621.0469 Q369.0142,621.3125 369.0142,621.7656 Q369.0142,622.1406 368.7485,622.375 Q368.4985,622.6094 367.8892,622.6094 L365.5923,622.6094 Q364.9829,622.6094 364.7173,622.375 Q364.4517,622.1406 364.4517,621.75 Q364.4517,621.375 364.7173,621.1406 Q364.9829,620.9063 365.5923,620.9063 L366.0142,620.9063 L365.6079,619.875 Z M364.8892,618.1719 L363.5298,614.7969 L362.1548,618.1719 L364.8892,618.1719 Z " fill="#000000"/><text fill="#000000" font-family="sans-serif" font-size="14" font-style="italic" lengthAdjust="spacing" textLength="72.3721" x="383.9204" y="623.8379">SoftDeletes</text><line style="stroke:#181818;stroke-width:0.5;" x1="308" x2="499.7129" y1="634.1094" y2="634.1094"/><text fill="#000000" font-family="sans-serif" font-size="14" lengthAdjust="spacing" textLength="181.7129" x="313" y="652.6426">+dateSuppression: DateTime</text></g><!--class Proprietaire--><g class="entity" data-entity="Proprietaire" data-source-line="47" data-uid="ent0014" id="entity_Proprietaire"><rect fill="#F1F1F1" height="32" rx="2.5" ry="2.5" style="stroke:#181818;stroke-width:0.5;" width="104.3652" x="136" y="84.6094"/><ellipse cx="151" cy="100.6094" fill="#ADD1B2" rx="11" ry="11" style="stroke:#181818;stroke-width:1;"/><path d="M153.7656,96.4844 Q153.9219,96.2656 154.1094,96.1563 Q154.2969,96.0469 154.5156,96.0469 Q154.8906,96.0469 155.125,96.3125 Q155.3594,96.5625 155.3594,97.1719 L155.3594,98.625 Q155.3594,99.2344 155.125,99.5 Q154.8906,99.7656 154.5156,99.7656 Q154.1719,99.7656 153.9688,99.5625 Q153.7656,99.375 153.6563,98.8594 Q153.6094,98.5 153.4219,98.3125 Q153.0938,97.9375 152.4844,97.7188 Q151.875,97.5 151.25,97.5 Q150.4844,97.5 149.8438,97.8281 Q149.2188,98.1563 148.7188,98.9063 Q148.2344,99.6563 148.2344,100.6875 L148.2344,101.7813 Q148.2344,103.0156 149.125,103.8438 Q150.0156,104.6563 151.6094,104.6563 Q152.5469,104.6563 153.2031,104.4063 Q153.5938,104.25 154.0156,103.8125 Q154.2813,103.5469 154.4219,103.4688 Q154.5781,103.3906 154.7813,103.3906 Q155.1094,103.3906 155.3594,103.6563 Q155.625,103.9063 155.625,104.25 Q155.625,104.5938 155.2813,105 Q154.7813,105.5781 153.9844,105.9063 Q152.9063,106.3594 151.6094,106.3594 Q150.0938,106.3594 148.8906,105.7344 Q147.9063,105.2344 147.2188,104.1719 Q146.5313,103.0938 146.5313,101.8125 L146.5313,100.6563 Q146.5313,99.3281 147.1406,98.1875 Q147.7656,97.0313 148.8594,96.4219 Q149.9531,95.7969 151.1875,95.7969 Q151.9219,95.7969 152.5625,95.9688 Q153.2188,96.125 153.7656,96.4844 Z " fill="#000000"/><text fill="#000000" font-family="sans-serif" font-size="14" lengthAdjust="spacing" textLength="72.3652" x="165" y="106.3379">Proprietaire</text></g><!--link SoftDeletes to Timestamps--><g class="link" data-entity-1="SoftDeletes" data-entity-2="Timestamps" data-source-line="33" data-uid="lnk7" id="link_SoftDeletes_Timestamps"><path codeLine="33" d="M401.28,660.4094 C397.92,695.2894 393.9302,736.7118 390.2502,775.0418" fill="none" id="SoftDeletes-to-Timestamps" style="stroke:#181818;stroke-width:1;"/><polygon fill="none" points="388.53,792.9594,396.2228,775.6152,384.2777,774.4684,388.53,792.9594" style="stroke:#181818;stroke-width:1;"/></g><!--link ProjetPortfolio to SoftDeletes--><g class="link" data-entity-1="ProjetPortfolio" data-entity-2="SoftDeletes" data-source-line="24" data-uid="lnk10" id="link_ProjetPortfolio_SoftDeletes"><path codeLine="24" d="M274.61,471.0694 C313.23,518.5294 344.2786,556.7081 369.6686,587.9081" fill="none" id="ProjetPortfolio-to-SoftDeletes" style="stroke:#181818;stroke-width:1;"/><polygon fill="none" points="381.03,601.8694,374.3223,584.1209,365.0148,591.6952,381.03,601.8694" style="stroke:#181818;stroke-width:1;"/></g><!--link MediaProjet to Timestamps--><g class="link" data-entity-1="MediaProjet" data-entity-2="Timestamps" data-source-line="36" data-uid="lnk12" id="link_MediaProjet_Timestamps"><path codeLine="36" d="M267.21,712.6694 C274.85,720.8094 282.54,728.9094 290,736.6094 C308.31,755.5094 316.2204,763.4964 333.7104,780.4364" fill="none" id="MediaProjet-to-Timestamps" style="stroke:#181818;stroke-width:1;"/><polygon fill="none" points="346.64,792.9594,337.8847,776.1265,329.5361,784.7462,346.64,792.9594" style="stroke:#181818;stroke-width:1;"/></g><!--link MediaProjet to TypeMedia--><g class="link" data-entity-1="MediaProjet" data-entity-2="TypeMedia" data-source-line="42" data-uid="lnk13" id="link_MediaProjet_TypeMedia"><path codeLine="42" d="M194,712.7294 C194,733.8394 194,750.1094 194,769.4794" fill="none" id="MediaProjet-to-TypeMedia" style="stroke:#181818;stroke-width:1;"/><polygon fill="#181818" points="194,775.4794,198,766.4794,194,770.4794,190,766.4794,194,775.4794" style="stroke:#181818;stroke-width:1;"/></g><!--link Proprietaire to ProjetPortfolio--><g class="link" data-entity-1="Proprietaire" data-entity-2="ProjetPortfolio" data-source-line="47" data-uid="lnk15" id="link_Proprietaire_ProjetPortfolio"><path codeLine="47" d="M188,116.7694 C188,143.7494 188,202.2694 188,255.4494" fill="none" id="Proprietaire-ProjetPortfolio" style="stroke:#181818;stroke-width:1;"/><text fill="#000000" font-family="sans-serif" font-size="13" lengthAdjust="spacing" textLength="39.019" x="189" y="200.1045">projets</text><text fill="#000000" font-family="sans-serif" font-size="13" lengthAdjust="spacing" textLength="7.23" x="179.8628" y="138.0215">1</text><text fill="#000000" font-family="sans-serif" font-size="13" lengthAdjust="spacing" textLength="19.5127" x="168.3337" y="244.7861">0..*</text></g><!--link ProjetPortfolio to MediaProjet--><g class="link" data-entity-1="ProjetPortfolio" data-entity-2="MediaProjet" data-source-line="48" data-uid="lnk16" id="link_ProjetPortfolio_MediaProjet"><path codeLine="48" d="M190.42,471.8294 C191.01,497.7394 191.62,524.9894 192.18,549.4394" fill="none" id="ProjetPortfolio-MediaProjet" style="stroke:#181818;stroke-width:1;"/><text fill="#000000" font-family="sans-serif" font-size="13" lengthAdjust="spacing" textLength="41.9072" x="192" y="516.1045">medias</text><text fill="#000000" font-family="sans-serif" font-size="13" lengthAdjust="spacing" textLength="7.23" x="183.3395" y="493.1417">1</text><text fill="#000000" font-family="sans-serif" font-size="13" lengthAdjust="spacing" textLength="19.5127" x="172.1739" y="538.672">0..*</text></g><rect fill="#DDDDDD" height="66.8281" rx="7.5" ry="7.5" style="stroke:#000000;stroke-width:1;" width="241.5264" x="126.0933" y="904.0469"/><text fill="#000000" font-family="sans-serif" font-size="14" font-weight="bold" lengthAdjust="spacing" textLength="56.7656" x="134.9829" y="925.5801">Notation</text><text fill="#000000" font-family="sans-serif" font-size="14" font-weight="bold" lengthAdjust="spacing" textLength="84" x="208.5444" y="925.5801">Signification</text><text fill="#000000" font-family="sans-serif" font-size="14" lengthAdjust="spacing" textLength="65.7822" x="134.9829" y="943.1895">"1" -- "0..*"</text><text fill="#000000" font-family="sans-serif" font-size="14" lengthAdjust="spacing" textLength="89.4893" x="208.5444" y="943.1895">Un &#224; plusieurs</text><text fill="#000000" font-family="sans-serif" font-size="14" lengthAdjust="spacing" textLength="9.3242" x="134.9829" y="960.7988">--</text><text fill="#000000" font-family="sans-serif" font-size="14" lengthAdjust="spacing" textLength="8.1758" x="204.6548" y="960.7988">&gt;</text><text fill="#000000" font-family="sans-serif" font-size="14" lengthAdjust="spacing" textLength="52.917" x="305.813" y="960.7988">H&#233;ritage</text><line style="stroke:#000000;stroke-width:1;" x1="131.0933" x2="362.6196" y1="911.0469" y2="911.0469"/><line style="stroke:#000000;stroke-width:1;" x1="131.0933" x2="362.6196" y1="928.6563" y2="928.6563"/><line style="stroke:#000000;stroke-width:1;" x1="131.0933" x2="362.6196" y1="946.2656" y2="946.2656"/><line style="stroke:#000000;stroke-width:1;" x1="131.0933" x2="362.6196" y1="963.875" y2="963.875"/><line style="stroke:#000000;stroke-width:1;" x1="131.0933" x2="131.0933" y1="911.0469" y2="963.875"/><line style="stroke:#000000;stroke-width:1;" x1="204.6548" x2="204.6548" y1="911.0469" y2="963.875"/><line style="stroke:#000000;stroke-width:1;" x1="301.9233" x2="301.9233" y1="911.0469" y2="963.875"/><line style="stroke:#000000;stroke-width:1;" x1="362.6196" x2="362.6196" y1="911.0469" y2="963.875"/><!--SRC=[fLJDZjD03BxFKvXUa42jbckbNMbHYwYqMwfDbokQJDpKx6Gccd60ikLTkF8S-s8uFrNQ50uiEUJ7d_tvipqE4rk4bG-yyPOyZ64L_6VagDGBSiPM6SAdL4SS6wjZd7oDcL9R4YiM9U-Wm2B545Ly85Vge0iejNdGEIQy4-A0XhNBBHuvD4JNp87IYd5Xl4leEyA5KbqeZ3eDlQuHw7XG1ezAGSlIcNhvZu80l0Oc3ZY5H9AulBD5M-K3KuRH12gPl1iWnbU1SVPNl0fsXeK_joOIQ8Qf6StMUUjpmZY56ufy4A0Pxr1RYhfDCXD3Xs7akVk86J8BtrllBMhNOwigjNG2_51gs8_nU7y5YT_m32qonhvpjvYHRjtxhkrA8LpBlK4FhTXYGUuTcIrXE2zu_eqnk675NoXthV3JHlnXBdKjyccer7POfmzPxRzmZ3c6jiPZvKrzQog4GnTbL0A_XCj_lYHelho_XRlvpVLwyM6PF8_bLDdLKIUVg-e_1OcMCX2ofY1RzMOagc1qCPcy6frjpXJARl67o6dSSOrJMN_vabDbPJmkWzGp-qB6jB-4fUVcJDVlYPm6sf3f3BN3W7OFzmwUVa9fgqXOXTXvDGEMv_kdNu6u_ZdiLPsfJQX-0m00]--></g></svg>