<svg xmlns="http://www.w3.org/2000/svg" xmlns:xlink="http://www.w3.org/1999/xlink" contentStyleType="text/css" data-diagram-type="CLASS" height="849px" preserveAspectRatio="none" style="width:849px;height:849px;background:#FFFFFF;" version="1.1" viewBox="0 0 849 849" width="849px" zoomAndPan="magnify"><title>Planning - Emploi du temps &amp; Rappels</title><defs/><g><text fill="#000000" font-family="sans-serif" font-size="14" font-weight="bold" lengthAdjust="spacing" textLength="256.6895" x="289.1553" y="24.5332">Planning - Emploi du temps &amp; Rappels</text><!--cluster Planning--><g class="cluster" data-entity="Planning" data-source-line="9" data-uid="ent0008" id="cluster_Planning"><rect fill="none" height="403" rx="2.5" ry="2.5" style="stroke:#000000;stroke-width:1.5;" width="552" x="291" y="219.6094"/><text fill="#000000" font-family="sans-serif" font-size="14" font-weight="bold" lengthAdjust="spacing" textLength="59.1104" x="537.4448" y="236.1426">Planning</text></g><!--class EmploiDuTemps--><g class="entity" data-entity="EmploiDuTemps" data-source-line="11" data-uid="ent0009" id="entity_EmploiDuTemps"><rect fill="#F1F1F1" height="110.4375" rx="2.5" ry="2.5" style="stroke:#181818;stroke-width:0.5;" width="174.2646" x="480" y="255.6094"/><ellipse cx="512.4551" cy="271.6094" fill="#ADD1B2" rx="11" ry="11" style="stroke:#181818;stroke-width:1;"/><path d="M515.2207,267.4844 Q515.377,267.2656 515.5645,267.1563 Q515.752,267.0469 515.9707,267.0469 Q516.3457,267.0469 516.5801,267.3125 Q516.8145,267.5625 516.8145,268.1719 L516.8145,269.625 Q516.8145,270.2344 516.5801,270.5 Q516.3457,270.7656 515.9707,270.7656 Q515.627,270.7656 515.4238,270.5625 Q515.2207,270.375 515.1113,269.8594 Q515.0645,269.5 514.877,269.3125 Q514.5488,268.9375 513.9395,268.7188 Q513.3301,268.5 512.7051,268.5 Q511.9395,268.5 511.2988,268.8281 Q510.6738,269.1563 510.1738,269.9063 Q509.6895,270.6563 509.6895,271.6875 L509.6895,272.7813 Q509.6895,274.0156 510.5801,274.8438 Q511.4707,275.6563 513.0645,275.6563 Q514.002,275.6563 514.6582,275.4063 Q515.0488,275.25 515.4707,274.8125 Q515.7363,274.5469 515.877,274.4688 Q516.0332,274.3906 516.2363,274.3906 Q516.5645,274.3906 516.8145,274.6563 Q517.0801,274.9063 517.0801,275.25 Q517.0801,275.5938 516.7363,276 Q516.2363,276.5781 515.4395,276.9063 Q514.3613,277.3594 513.0645,277.3594 Q511.5488,277.3594 510.3457,276.7344 Q509.3613,276.2344 508.6738,275.1719 Q507.9863,274.0938 507.9863,272.8125 L507.9863,271.6563 Q507.9863,270.3281 508.5957,269.1875 Q509.2207,268.0313 510.3145,267.4219 Q511.4082,266.7969 512.6426,266.7969 Q513.377,266.7969 514.0176,266.9688 Q514.6738,267.125 515.2207,267.4844 Z " fill="#000000"/><text fill="#000000" font-family="sans-serif" font-size="14" lengthAdjust="spacing" textLength="103.4756" x="530.334" y="277.3379">EmploiDuTemps</text><line style="stroke:#181818;stroke-width:0.5;" x1="481" x2="653.2646" y1="287.6094" y2="287.6094"/><text fill="#000000" font-family="sans-serif" font-size="14" lengthAdjust="spacing" textLength="75.8652" x="486" y="306.1426">+titre: String</text><text fill="#000000" font-family="sans-serif" font-size="14" lengthAdjust="spacing" textLength="120.2305" x="486" y="323.752">+description: String</text><text fill="#000000" font-family="sans-serif" font-size="14" lengthAdjust="spacing" textLength="162.2646" x="486" y="341.3613">+numeroSemaine: Integer</text><text fill="#000000" font-family="sans-serif" font-size="14" lengthAdjust="spacing" textLength="98.4717" x="486" y="358.9707">+annee: Integer</text></g><!--class EvenementEDT--><g class="entity" data-entity="EvenementEDT" data-source-line="20" data-uid="ent0011" id="entity_EvenementEDT"><rect fill="#F1F1F1" height="163.2656" rx="2.5" ry="2.5" style="stroke:#181818;stroke-width:0.5;" width="150.1406" x="492" y="443.6094"/><ellipse cx="515.6941" cy="459.6094" fill="#ADD1B2" rx="11" ry="11" style="stroke:#181818;stroke-width:1;"/><path d="M518.4598,455.4844 Q518.616,455.2656 518.8035,455.1563 Q518.991,455.0469 519.2098,455.0469 Q519.5848,455.0469 519.8191,455.3125 Q520.0535,455.5625 520.0535,456.1719 L520.0535,457.625 Q520.0535,458.2344 519.8191,458.5 Q519.5848,458.7656 519.2098,458.7656 Q518.866,458.7656 518.6629,458.5625 Q518.4598,458.375 518.3504,457.8594 Q518.3035,457.5 518.116,457.3125 Q517.7879,456.9375 517.1785,456.7188 Q516.5691,456.5 515.9441,456.5 Q515.1785,456.5 514.5379,456.8281 Q513.9129,457.1563 513.4129,457.9063 Q512.9285,458.6563 512.9285,459.6875 L512.9285,460.7813 Q512.9285,462.0156 513.8191,462.8438 Q514.7098,463.6563 516.3035,463.6563 Q517.241,463.6563 517.8973,463.4063 Q518.2879,463.25 518.7098,462.8125 Q518.9754,462.5469 519.116,462.4688 Q519.2723,462.3906 519.4754,462.3906 Q519.8035,462.3906 520.0535,462.6563 Q520.3191,462.9063 520.3191,463.25 Q520.3191,463.5938 519.9754,464 Q519.4754,464.5781 518.6785,464.9063 Q517.6004,465.3594 516.3035,465.3594 Q514.7879,465.3594 513.5848,464.7344 Q512.6004,464.2344 511.9129,463.1719 Q511.2254,462.0938 511.2254,460.8125 L511.2254,459.6563 Q511.2254,458.3281 511.8348,457.1875 Q512.4598,456.0313 513.5535,455.4219 Q514.6473,454.7969 515.8816,454.7969 Q516.616,454.7969 517.2566,454.9688 Q517.9129,455.125 518.4598,455.4844 Z " fill="#000000"/><text fill="#000000" font-family="sans-serif" font-size="14" lengthAdjust="spacing" textLength="98.8203" x="531.6262" y="465.3379">EvenementEDT</text><line style="stroke:#181818;stroke-width:0.5;" x1="493" x2="641.1406" y1="475.6094" y2="475.6094"/><text fill="#000000" font-family="sans-serif" font-size="14" lengthAdjust="spacing" textLength="75.8652" x="498" y="494.1426">+titre: String</text><text fill="#000000" font-family="sans-serif" font-size="14" lengthAdjust="spacing" textLength="120.2305" x="498" y="511.752">+description: String</text><text fill="#000000" font-family="sans-serif" font-size="14" lengthAdjust="spacing" textLength="138.1406" x="498" y="529.3613">+jourSemaine: Integer</text><text fill="#000000" font-family="sans-serif" font-size="14" lengthAdjust="spacing" textLength="120.2305" x="498" y="546.9707">+heureDebut: Time</text><text fill="#000000" font-family="sans-serif" font-size="14" lengthAdjust="spacing" textLength="102.3203" x="498" y="564.5801">+heureFin: Time</text><text fill="#000000" font-family="sans-serif" font-size="14" lengthAdjust="spacing" textLength="98.4443" x="498" y="582.1895">+couleur: String</text><text fill="#000000" font-family="sans-serif" font-size="14" lengthAdjust="spacing" textLength="74.3203" x="498" y="599.7988">+lieu: String</text></g><!--class ConversionEDT--><g class="entity" data-entity="ConversionEDT" data-source-line="32" data-uid="ent0013" id="entity_ConversionEDT"><rect fill="#F1F1F1" height="110.4375" rx="2.5" ry="2.5" style="stroke:#181818;stroke-width:0.5;" width="150.1133" x="307" y="470.1094"/><ellipse cx="330.6849" cy="486.1094" fill="#ADD1B2" rx="11" ry="11" style="stroke:#181818;stroke-width:1;"/><path d="M333.4505,481.9844 Q333.6068,481.7656 333.7943,481.6563 Q333.9818,481.5469 334.2005,481.5469 Q334.5755,481.5469 334.8099,481.8125 Q335.0443,482.0625 335.0443,482.6719 L335.0443,484.125 Q335.0443,484.7344 334.8099,485 Q334.5755,485.2656 334.2005,485.2656 Q333.8568,485.2656 333.6537,485.0625 Q333.4505,484.875 333.3412,484.3594 Q333.2943,484 333.1068,483.8125 Q332.7787,483.4375 332.1693,483.2188 Q331.5599,483 330.9349,483 Q330.1693,483 329.5287,483.3281 Q328.9037,483.6563 328.4037,484.4063 Q327.9193,485.1563 327.9193,486.1875 L327.9193,487.2813 Q327.9193,488.5156 328.8099,489.3438 Q329.7005,490.1563 331.2943,490.1563 Q332.2318,490.1563 332.888,489.9063 Q333.2787,489.75 333.7005,489.3125 Q333.9662,489.0469 334.1068,488.9688 Q334.263,488.8906 334.4662,488.8906 Q334.7943,488.8906 335.0443,489.1563 Q335.3099,489.4063 335.3099,489.75 Q335.3099,490.0938 334.9662,490.5 Q334.4662,491.0781 333.6693,491.4063 Q332.5912,491.8594 331.2943,491.8594 Q329.7787,491.8594 328.5755,491.2344 Q327.5912,490.7344 326.9037,489.6719 Q326.2162,488.5938 326.2162,487.3125 L326.2162,486.1563 Q326.2162,484.8281 326.8255,483.6875 Q327.4505,482.5313 328.5443,481.9219 Q329.638,481.2969 330.8724,481.2969 Q331.6068,481.2969 332.2474,481.4688 Q332.9037,481.625 333.4505,481.9844 Z " fill="#000000"/><text fill="#000000" font-family="sans-serif" font-size="14" lengthAdjust="spacing" textLength="98.8135" x="346.6149" y="491.8379">ConversionEDT</text><line style="stroke:#181818;stroke-width:0.5;" x1="308" x2="456.1133" y1="502.1094" y2="502.1094"/><text fill="#000000" font-family="sans-serif" font-size="14" lengthAdjust="spacing" textLength="138.1133" x="313" y="520.6426">+fichierOriginal: String</text><text fill="#000000" font-family="sans-serif" font-size="14" lengthAdjust="spacing" textLength="136.5615" x="313" y="538.252">+modeleUtilise: String</text><text fill="#000000" font-family="sans-serif" font-size="14" lengthAdjust="spacing" textLength="136.541" x="313" y="555.8613">+resultatJSON: JSON</text><text fill="#000000" font-family="sans-serif" font-size="14" lengthAdjust="spacing" textLength="107.0098" x="313" y="573.4707">+confiance: Float</text></g><!--class Rappel--><g class="entity" data-entity="Rappel" data-source-line="41" data-uid="ent0015" id="entity_Rappel"><rect fill="#F1F1F1" height="128.0469" rx="2.5" ry="2.5" style="stroke:#181818;stroke-width:0.5;" width="149.3545" x="677.5" y="461.1094"/><ellipse cx="725.7446" cy="477.1094" fill="#ADD1B2" rx="11" ry="11" style="stroke:#181818;stroke-width:1;"/><path d="M728.5103,472.9844 Q728.6665,472.7656 728.854,472.6563 Q729.0415,472.5469 729.2603,472.5469 Q729.6353,472.5469 729.8696,472.8125 Q730.104,473.0625 730.104,473.6719 L730.104,475.125 Q730.104,475.7344 729.8696,476 Q729.6353,476.2656 729.2603,476.2656 Q728.9165,476.2656 728.7134,476.0625 Q728.5103,475.875 728.4009,475.3594 Q728.354,475 728.1665,474.8125 Q727.8384,474.4375 727.229,474.2188 Q726.6196,474 725.9946,474 Q725.229,474 724.5884,474.3281 Q723.9634,474.6563 723.4634,475.4063 Q722.979,476.1563 722.979,477.1875 L722.979,478.2813 Q722.979,479.5156 723.8696,480.3438 Q724.7603,481.1563 726.354,481.1563 Q727.2915,481.1563 727.9478,480.9063 Q728.3384,480.75 728.7603,480.3125 Q729.0259,480.0469 729.1665,479.9688 Q729.3228,479.8906 729.5259,479.8906 Q729.854,479.8906 730.104,480.1563 Q730.3696,480.4063 730.3696,480.75 Q730.3696,481.0938 730.0259,481.5 Q729.5259,482.0781 728.729,482.4063 Q727.6509,482.8594 726.354,482.8594 Q724.8384,482.8594 723.6353,482.2344 Q722.6509,481.7344 721.9634,480.6719 Q721.2759,479.5938 721.2759,478.3125 L721.2759,477.1563 Q721.2759,475.8281 721.8853,474.6875 Q722.5103,473.5313 723.604,472.9219 Q724.6978,472.2969 725.9321,472.2969 Q726.6665,472.2969 727.3071,472.4688 Q727.9634,472.625 728.5103,472.9844 Z " fill="#000000"/><text fill="#000000" font-family="sans-serif" font-size="14" lengthAdjust="spacing" textLength="44.3652" x="746.2446" y="482.8379">Rappel</text><line style="stroke:#181818;stroke-width:0.5;" x1="678.5" x2="825.8545" y1="493.1094" y2="493.1094"/><text fill="#000000" font-family="sans-serif" font-size="14" lengthAdjust="spacing" textLength="75.8652" x="683.5" y="511.6426">+titre: String</text><text fill="#000000" font-family="sans-serif" font-size="14" lengthAdjust="spacing" textLength="109.334" x="683.5" y="529.252">+message: String</text><text fill="#000000" font-family="sans-serif" font-size="14" lengthAdjust="spacing" textLength="131.127" x="683.5" y="546.8613">+rappelLe: DateTime</text><text fill="#000000" font-family="sans-serif" font-size="14" lengthAdjust="spacing" textLength="132.7061" x="683.5" y="564.4707">+estEnvoye: Boolean</text><text fill="#000000" font-family="sans-serif" font-size="14" lengthAdjust="spacing" textLength="137.3545" x="683.5" y="582.0801">+envoyeLe: DateTime</text></g><!--class Niveau--><g class="entity" data-entity="Niveau" data-source-line="2" data-uid="ent0002" id="entity_Niveau"><rect fill="#F1F1F1" height="110.4375" rx="2.5" ry="2.5" style="stroke:#181818;stroke-width:0.5;" width="93.7031" x="163" y="45.6094"/><ellipse cx="186.1558" cy="61.6094" fill="#EB937F" rx="11" ry="11" style="stroke:#181818;stroke-width:1;"/><path d="M185.0152,62.4063 L185.0152,64.9063 L189.3433,64.9063 L189.3433,63.9844 Q189.3433,63.375 189.5777,63.1094 Q189.8277,62.8438 190.2027,62.8438 Q190.5777,62.8438 190.8121,63.1094 Q191.0464,63.375 191.0464,63.9844 L191.0464,66.6094 L183.0464,66.6094 Q182.4214,66.6094 182.1558,66.375 Q181.9058,66.1406 181.9058,65.75 Q181.9058,65.375 182.1714,65.1406 Q182.4371,64.9063 183.0464,64.9063 L183.3121,64.9063 L183.3121,58.25 L183.0464,58.25 Q182.4214,58.25 182.1558,58.0156 Q181.9058,57.7813 181.9058,57.3906 Q181.9058,57.0156 182.1558,56.7813 Q182.4214,56.5469 183.0464,56.5469 L190.6714,56.5469 L190.6714,59.1406 Q190.6714,59.75 190.4371,60.0156 Q190.2183,60.2656 189.8277,60.2656 Q189.4527,60.2656 189.2183,60.0156 Q188.9839,59.75 188.9839,59.1406 L188.9839,58.25 L185.0152,58.25 L185.0152,60.7031 L186.4996,60.7031 Q186.4996,60.0469 186.6246,59.8594 Q186.8902,59.4531 187.3589,59.4531 Q187.7339,59.4531 187.9683,59.7188 Q188.2027,59.9688 188.2027,60.5781 L188.2027,62.5469 Q188.2027,63.0938 188.0777,63.2813 Q187.8121,63.6719 187.3589,63.6719 Q186.8902,63.6719 186.6246,63.2656 Q186.4996,63.0781 186.4996,62.4063 L185.0152,62.4063 Z " fill="#000000"/><text fill="#000000" font-family="sans-serif" font-size="14" lengthAdjust="spacing" textLength="43.5791" x="201.9682" y="67.3379">Niveau</text><line style="stroke:#181818;stroke-width:0.5;" x1="164" x2="255.7031" y1="77.6094" y2="77.6094"/><text fill="#000000" font-family="sans-serif" font-size="14" lengthAdjust="spacing" textLength="56.8203" x="169" y="96.1426">D&#233;butant</text><text fill="#000000" font-family="sans-serif" font-size="14" lengthAdjust="spacing" textLength="81.7031" x="169" y="113.752">Interm&#233;diaire</text><text fill="#000000" font-family="sans-serif" font-size="14" lengthAdjust="spacing" textLength="46.6963" x="169" y="131.3613">Avanc&#233;</text><text fill="#000000" font-family="sans-serif" font-size="14" lengthAdjust="spacing" textLength="40.4619" x="169" y="148.9707">Expert</text></g><!--class TypeMedia--><g class="entity" data-entity="TypeMedia" data-source-line="9" data-uid="ent0003" id="entity_TypeMedia"><rect fill="#F1F1F1" height="110.4375" rx="2.5" ry="2.5" style="stroke:#181818;stroke-width:0.5;" width="101.2549" x="292.5" y="45.6094"/><ellipse cx="307.5" cy="61.6094" fill="#EB937F" rx="11" ry="11" style="stroke:#181818;stroke-width:1;"/><path d="M306.3594,62.4063 L306.3594,64.9063 L310.6875,64.9063 L310.6875,63.9844 Q310.6875,63.375 310.9219,63.1094 Q311.1719,62.8438 311.5469,62.8438 Q311.9219,62.8438 312.1563,63.1094 Q312.3906,63.375 312.3906,63.9844 L312.3906,66.6094 L304.3906,66.6094 Q303.7656,66.6094 303.5,66.375 Q303.25,66.1406 303.25,65.75 Q303.25,65.375 303.5156,65.1406 Q303.7813,64.9063 304.3906,64.9063 L304.6563,64.9063 L304.6563,58.25 L304.3906,58.25 Q303.7656,58.25 303.5,58.0156 Q303.25,57.7813 303.25,57.3906 Q303.25,57.0156 303.5,56.7813 Q303.7656,56.5469 304.3906,56.5469 L312.0156,56.5469 L312.0156,59.1406 Q312.0156,59.75 311.7813,60.0156 Q311.5625,60.2656 311.1719,60.2656 Q310.7969,60.2656 310.5625,60.0156 Q310.3281,59.75 310.3281,59.1406 L310.3281,58.25 L306.3594,58.25 L306.3594,60.7031 L307.8438,60.7031 Q307.8438,60.0469 307.9688,59.8594 Q308.2344,59.4531 308.7031,59.4531 Q309.0781,59.4531 309.3125,59.7188 Q309.5469,59.9688 309.5469,60.5781 L309.5469,62.5469 Q309.5469,63.0938 309.4219,63.2813 Q309.1563,63.6719 308.7031,63.6719 Q308.2344,63.6719 307.9688,63.2656 Q307.8438,63.0781 307.8438,62.4063 L306.3594,62.4063 Z " fill="#000000"/><text fill="#000000" font-family="sans-serif" font-size="14" lengthAdjust="spacing" textLength="69.2549" x="321.5" y="67.3379">TypeMedia</text><line style="stroke:#181818;stroke-width:0.5;" x1="293.5" x2="392.7549" y1="77.6094" y2="77.6094"/><text fill="#000000" font-family="sans-serif" font-size="14" lengthAdjust="spacing" textLength="38.9102" x="298.5" y="96.1426">Image</text><text fill="#000000" font-family="sans-serif" font-size="14" lengthAdjust="spacing" textLength="35.8066" x="298.5" y="113.752">Vid&#233;o</text><text fill="#000000" font-family="sans-serif" font-size="14" lengthAdjust="spacing" textLength="63.8066" x="298.5" y="131.3613">Document</text><text fill="#000000" font-family="sans-serif" font-size="14" lengthAdjust="spacing" textLength="26.4688" x="298.5" y="148.9707">Lien</text></g><!--class TypeRessource--><g class="entity" data-entity="TypeRessource" data-source-line="16" data-uid="ent0004" id="entity_TypeRessource"><rect fill="#F1F1F1" height="110.4375" rx="2.5" ry="2.5" style="stroke:#181818;stroke-width:0.5;" width="130.041" x="145" y="255.6094"/><ellipse cx="160" cy="271.6094" fill="#EB937F" rx="11" ry="11" style="stroke:#181818;stroke-width:1;"/><path d="M158.8594,272.4063 L158.8594,274.9063 L163.1875,274.9063 L163.1875,273.9844 Q163.1875,273.375 163.4219,273.1094 Q163.6719,272.8438 164.0469,272.8438 Q164.4219,272.8438 164.6563,273.1094 Q164.8906,273.375 164.8906,273.9844 L164.8906,276.6094 L156.8906,276.6094 Q156.2656,276.6094 156,276.375 Q155.75,276.1406 155.75,275.75 Q155.75,275.375 156.0156,275.1406 Q156.2813,274.9063 156.8906,274.9063 L157.1563,274.9063 L157.1563,268.25 L156.8906,268.25 Q156.2656,268.25 156,268.0156 Q155.75,267.7813 155.75,267.3906 Q155.75,267.0156 156,266.7813 Q156.2656,266.5469 156.8906,266.5469 L164.5156,266.5469 L164.5156,269.1406 Q164.5156,269.75 164.2813,270.0156 Q164.0625,270.2656 163.6719,270.2656 Q163.2969,270.2656 163.0625,270.0156 Q162.8281,269.75 162.8281,269.1406 L162.8281,268.25 L158.8594,268.25 L158.8594,270.7031 L160.3438,270.7031 Q160.3438,270.0469 160.4688,269.8594 Q160.7344,269.4531 161.2031,269.4531 Q161.5781,269.4531 161.8125,269.7188 Q162.0469,269.9688 162.0469,270.5781 L162.0469,272.5469 Q162.0469,273.0938 161.9219,273.2813 Q161.6563,273.6719 161.2031,273.6719 Q160.7344,273.6719 160.4688,273.2656 Q160.3438,273.0781 160.3438,272.4063 L158.8594,272.4063 Z " fill="#000000"/><text fill="#000000" font-family="sans-serif" font-size="14" lengthAdjust="spacing" textLength="98.041" x="174" y="277.3379">TypeRessource</text><line style="stroke:#181818;stroke-width:0.5;" x1="146" x2="274.041" y1="287.6094" y2="287.6094"/><text fill="#000000" font-family="sans-serif" font-size="14" lengthAdjust="spacing" textLength="63.8066" x="151" y="306.1426">Document</text><text fill="#000000" font-family="sans-serif" font-size="14" lengthAdjust="spacing" textLength="38.9102" x="151" y="323.752">Image</text><text fill="#000000" font-family="sans-serif" font-size="14" lengthAdjust="spacing" textLength="46.6826" x="151" y="341.3613">Archive</text><text fill="#000000" font-family="sans-serif" font-size="14" lengthAdjust="spacing" textLength="26.4688" x="151" y="358.9707">Lien</text></g><!--class Timestamps--><g class="entity" data-entity="Timestamps" data-source-line="24" data-uid="ent0005" id="entity_Timestamps"><rect fill="#F1F1F1" height="75.2188" rx="2.5" ry="2.5" style="stroke:#181818;stroke-width:0.5;" width="168.8027" x="297.5" y="669.6094"/><ellipse cx="339.7558" cy="685.6094" fill="#A9DCDF" rx="11" ry="11" style="stroke:#181818;stroke-width:1;"/><path d="M341.9433,687.375 L337.8026,687.375 L337.3808,688.4063 L337.8026,688.4063 Q338.412,688.4063 338.6776,688.6406 Q338.9433,688.875 338.9433,689.2656 Q338.9433,689.6406 338.6776,689.875 Q338.412,690.1094 337.8026,690.1094 L335.5058,690.1094 Q334.8964,690.1094 334.6464,689.875 Q334.3808,689.6406 334.3808,689.25 Q334.3808,688.875 334.662,688.6406 Q334.9276,688.3906 335.5526,688.4063 L338.2245,681.75 L337.1151,681.75 Q336.5058,681.75 336.2401,681.5156 Q335.9745,681.2813 335.9745,680.8906 Q335.9745,680.5156 336.2401,680.2813 Q336.5058,680.0469 337.1151,680.0469 L340.787,680.0469 L344.1776,688.4063 Q344.7714,688.4063 344.9589,688.5469 Q345.3495,688.8125 345.3495,689.2656 Q345.3495,689.6406 345.0839,689.875 Q344.8339,690.1094 344.2245,690.1094 L341.9276,690.1094 Q341.3183,690.1094 341.0526,689.875 Q340.787,689.6406 340.787,689.25 Q340.787,688.875 341.0526,688.6406 Q341.3183,688.4063 341.9276,688.4063 L342.3495,688.4063 L341.9433,687.375 Z M341.2245,685.6719 L339.8651,682.2969 L338.4901,685.6719 L341.2245,685.6719 Z " fill="#000000"/><text fill="#000000" font-family="sans-serif" font-size="14" font-style="italic" lengthAdjust="spacing" textLength="76.2344" x="359.8126" y="691.3379">Timestamps</text><line style="stroke:#181818;stroke-width:0.5;" x1="298.5" x2="465.3027" y1="701.6094" y2="701.6094"/><text fill="#000000" font-family="sans-serif" font-size="14" lengthAdjust="spacing" textLength="156.8027" x="303.5" y="720.1426">+dateCreation: DateTime</text><text fill="#000000" font-family="sans-serif" font-size="14" lengthAdjust="spacing" textLength="138.1201" x="303.5" y="737.752">+dateModif: DateTime</text></g><!--class SoftDeletes--><g class="entity" data-entity="SoftDeletes" data-source-line="29" data-uid="ent0006" id="entity_SoftDeletes"><rect fill="#F1F1F1" height="57.6094" rx="2.5" ry="2.5" style="stroke:#181818;stroke-width:0.5;" width="193.7129" x="7" y="496.1094"/><ellipse cx="63.4204" cy="512.1094" fill="#A9DCDF" rx="11" ry="11" style="stroke:#181818;stroke-width:1;"/><path d="M65.6079,513.875 L61.4673,513.875 L61.0454,514.9063 L61.4673,514.9063 Q62.0767,514.9063 62.3423,515.1406 Q62.6079,515.375 62.6079,515.7656 Q62.6079,516.1406 62.3423,516.375 Q62.0767,516.6094 61.4673,516.6094 L59.1704,516.6094 Q58.561,516.6094 58.311,516.375 Q58.0454,516.1406 58.0454,515.75 Q58.0454,515.375 58.3267,515.1406 Q58.5923,514.8906 59.2173,514.9063 L61.8892,508.25 L60.7798,508.25 Q60.1704,508.25 59.9048,508.0156 Q59.6392,507.7813 59.6392,507.3906 Q59.6392,507.0156 59.9048,506.7813 Q60.1704,506.5469 60.7798,506.5469 L64.4517,506.5469 L67.8423,514.9063 Q68.436,514.9063 68.6235,515.0469 Q69.0142,515.3125 69.0142,515.7656 Q69.0142,516.1406 68.7485,516.375 Q68.4985,516.6094 67.8892,516.6094 L65.5923,516.6094 Q64.9829,516.6094 64.7173,516.375 Q64.4517,516.1406 64.4517,515.75 Q64.4517,515.375 64.7173,515.1406 Q64.9829,514.9063 65.5923,514.9063 L66.0142,514.9063 L65.6079,513.875 Z M64.8892,512.1719 L63.5298,508.7969 L62.1548,512.1719 L64.8892,512.1719 Z " fill="#000000"/><text fill="#000000" font-family="sans-serif" font-size="14" font-style="italic" lengthAdjust="spacing" textLength="72.3721" x="83.9204" y="517.8379">SoftDeletes</text><line style="stroke:#181818;stroke-width:0.5;" x1="8" x2="199.7129" y1="528.1094" y2="528.1094"/><text fill="#000000" font-family="sans-serif" font-size="14" lengthAdjust="spacing" textLength="181.7129" x="13" y="546.6426">+dateSuppression: DateTime</text></g><!--class Proprietaire--><g class="entity" data-entity="Proprietaire" data-source-line="55" data-uid="ent0017" id="entity_Proprietaire"><rect fill="#F1F1F1" height="32" rx="2.5" ry="2.5" style="stroke:#181818;stroke-width:0.5;" width="104.3652" x="621" y="84.6094"/><ellipse cx="636" cy="100.6094" fill="#ADD1B2" rx="11" ry="11" style="stroke:#181818;stroke-width:1;"/><path d="M638.7656,96.4844 Q638.9219,96.2656 639.1094,96.1563 Q639.2969,96.0469 639.5156,96.0469 Q639.8906,96.0469 640.125,96.3125 Q640.3594,96.5625 640.3594,97.1719 L640.3594,98.625 Q640.3594,99.2344 640.125,99.5 Q639.8906,99.7656 639.5156,99.7656 Q639.1719,99.7656 638.9688,99.5625 Q638.7656,99.375 638.6563,98.8594 Q638.6094,98.5 638.4219,98.3125 Q638.0938,97.9375 637.4844,97.7188 Q636.875,97.5 636.25,97.5 Q635.4844,97.5 634.8438,97.8281 Q634.2188,98.1563 633.7188,98.9063 Q633.2344,99.6563 633.2344,100.6875 L633.2344,101.7813 Q633.2344,103.0156 634.125,103.8438 Q635.0156,104.6563 636.6094,104.6563 Q637.5469,104.6563 638.2031,104.4063 Q638.5938,104.25 639.0156,103.8125 Q639.2813,103.5469 639.4219,103.4688 Q639.5781,103.3906 639.7813,103.3906 Q640.1094,103.3906 640.3594,103.6563 Q640.625,103.9063 640.625,104.25 Q640.625,104.5938 640.2813,105 Q639.7813,105.5781 638.9844,105.9063 Q637.9063,106.3594 636.6094,106.3594 Q635.0938,106.3594 633.8906,105.7344 Q632.9063,105.2344 632.2188,104.1719 Q631.5313,103.0938 631.5313,101.8125 L631.5313,100.6563 Q631.5313,99.3281 632.1406,98.1875 Q632.7656,97.0313 633.8594,96.4219 Q634.9531,95.7969 636.1875,95.7969 Q636.9219,95.7969 637.5625,95.9688 Q638.2188,96.125 638.7656,96.4844 Z " fill="#000000"/><text fill="#000000" font-family="sans-serif" font-size="14" lengthAdjust="spacing" textLength="72.3652" x="650" y="106.3379">Proprietaire</text></g><!--link SoftDeletes to Timestamps--><g class="link" data-entity-1="SoftDeletes" data-entity-2="Timestamps" data-source-line="33" data-uid="lnk7" id="link_SoftDeletes_Timestamps"><path codeLine="33" d="M129.4,554.1794 C153.06,579.0794 190.27,615.1894 228,639.6094 C249.39,653.4594 257.6032,658.524 280.9332,668.514" fill="none" id="SoftDeletes-to-Timestamps" style="stroke:#181818;stroke-width:1;"/><polygon fill="none" points="297.48,675.5994,283.295,662.9984,278.5714,674.0296,297.48,675.5994" style="stroke:#181818;stroke-width:1;"/></g><!--link EmploiDuTemps to Timestamps--><g class="link" data-entity-1="EmploiDuTemps" data-entity-2="Timestamps" data-source-line="18" data-uid="lnk10" id="link_EmploiDuTemps_Timestamps"><path codeLine="18" d="M479.85,327.5194 C415.2,344.3894 331.37,378.0694 290,443.6094 C245.64,513.8894 254.46,555.4794 290,630.6094 C297.07,645.5494 294.9952,646.8598 307.6552,657.6398" fill="none" id="EmploiDuTemps-to-Timestamps" style="stroke:#181818;stroke-width:1;"/><polygon fill="none" points="321.36,669.3094,311.5451,653.0715,303.7654,662.208,321.36,669.3094" style="stroke:#181818;stroke-width:1;"/></g><!--link EvenementEDT to Timestamps--><g class="link" data-entity-1="EvenementEDT" data-entity-2="Timestamps" data-source-line="30" data-uid="lnk12" id="link_EvenementEDT_Timestamps"><path codeLine="30" d="M498.51,606.6994 C490.77,614.9594 482.84,623.0694 475,630.6094 C461.05,644.0094 459.0035,646.3672 444.1635,658.2872" fill="none" id="EvenementEDT-to-Timestamps" style="stroke:#181818;stroke-width:1;"/><polygon fill="none" points="430.13,669.5594,447.9209,662.965,440.4061,653.6094,430.13,669.5594" style="stroke:#181818;stroke-width:1;"/></g><!--link ConversionEDT to Timestamps--><g class="link" data-entity-1="ConversionEDT" data-entity-2="Timestamps" data-source-line="39" data-uid="lnk14" id="link_ConversionEDT_Timestamps"><path codeLine="39" d="M382,580.1194 C382,609.0094 382,625.8194 382,651.5294" fill="none" id="ConversionEDT-to-Timestamps" style="stroke:#181818;stroke-width:1;"/><polygon fill="none" points="382,669.5294,388,651.5294,376,651.5294,382,669.5294" style="stroke:#181818;stroke-width:1;"/></g><!--link Rappel to Timestamps--><g class="link" data-entity-1="Rappel" data-entity-2="Timestamps" data-source-line="49" data-uid="lnk16" id="link_Rappel_Timestamps"><path codeLine="49" d="M707.04,589.1594 C693.44,604.5794 677.44,619.7494 660,630.6094 C601.21,667.2294 542.4069,683.3215 484.5269,693.1315" fill="none" id="Rappel-to-Timestamps" style="stroke:#181818;stroke-width:1;"/><polygon fill="none" points="466.78,696.1394,485.5295,699.0471,483.5243,687.2158,466.78,696.1394" style="stroke:#181818;stroke-width:1;"/></g><!--link Proprietaire to EmploiDuTemps--><g class="link" data-entity-1="Proprietaire" data-entity-2="EmploiDuTemps" data-source-line="55" data-uid="lnk18" id="link_Proprietaire_EmploiDuTemps"><path codeLine="55" d="M662.74,116.6994 C651.72,133.2294 634.05,160.6894 621,185.6094 C609.29,207.9694 597.89,233.4194 588.61,255.4094" fill="none" id="Proprietaire-EmploiDuTemps" style="stroke:#181818;stroke-width:1;"/><text fill="#000000" font-family="sans-serif" font-size="13" lengthAdjust="spacing" textLength="101.8799" x="622" y="200.1045">emplois du temps</text><text fill="#000000" font-family="sans-serif" font-size="13" lengthAdjust="spacing" textLength="7.23" x="651.1596" y="138.2325">1</text><text fill="#000000" font-family="sans-serif" font-size="13" lengthAdjust="spacing" textLength="19.5127" x="571.1775" y="244.8015">0..*</text></g><!--link EmploiDuTemps to EvenementEDT--><g class="link" data-entity-1="EmploiDuTemps" data-entity-2="EvenementEDT" data-source-line="56" data-uid="lnk19" id="link_EmploiDuTemps_EvenementEDT"><path codeLine="56" d="M567,365.7794 C567,389.3894 567,417.5594 567,443.5494" fill="none" id="EmploiDuTemps-EvenementEDT" style="stroke:#181818;stroke-width:1;"/><text fill="#000000" font-family="sans-serif" font-size="13" lengthAdjust="spacing" textLength="70.8208" x="568" y="410.1045">&#233;v&#233;nements</text><text fill="#000000" font-family="sans-serif" font-size="13" lengthAdjust="spacing" textLength="7.23" x="559.5493" y="387.3626">1</text><text fill="#000000" font-family="sans-serif" font-size="13" lengthAdjust="spacing" textLength="19.5127" x="547.1414" y="432.7921">0..*</text></g><!--link EmploiDuTemps to ConversionEDT--><g class="link" data-entity-1="EmploiDuTemps" data-entity-2="ConversionEDT" data-source-line="57" data-uid="lnk20" id="link_EmploiDuTemps_ConversionEDT"><path codeLine="57" d="M515.06,365.8094 C505.93,375.6294 496.6,385.8494 488,395.6094 C466.87,419.5894 444.24,446.8094 425.33,469.9994" fill="none" id="EmploiDuTemps-ConversionEDT" style="stroke:#181818;stroke-width:1;"/><text fill="#000000" font-family="sans-serif" font-size="13" lengthAdjust="spacing" textLength="69.3672" x="489" y="410.1045">conversions</text><text fill="#000000" font-family="sans-serif" font-size="13" lengthAdjust="spacing" textLength="7.23" x="500.9545" y="387.3965">1</text><text fill="#000000" font-family="sans-serif" font-size="13" lengthAdjust="spacing" textLength="19.5127" x="410.6901" y="459.403">0..*</text></g><!--link Proprietaire to Rappel--><g class="link" data-entity-1="Proprietaire" data-entity-2="Rappel" data-source-line="58" data-uid="lnk21" id="link_Proprietaire_Rappel"><path codeLine="58" d="M686.4,116.7394 C699.59,132.6494 719.03,159.0194 728,185.6094 C759.02,277.5794 760.05,391.3694 756.85,460.7994" fill="none" id="Proprietaire-Rappel" style="stroke:#181818;stroke-width:1;"/><text fill="#000000" font-family="sans-serif" font-size="13" lengthAdjust="spacing" textLength="42.6372" x="758" y="316.1045">rappels</text><text fill="#000000" font-family="sans-serif" font-size="13" lengthAdjust="spacing" textLength="7.23" x="682.5341" y="137.982">1</text><text fill="#000000" font-family="sans-serif" font-size="13" lengthAdjust="spacing" textLength="19.5127" x="737.3501" y="450.4022">0..*</text></g><!--link EmploiDuTemps to Rappel--><g class="link" data-entity-1="EmploiDuTemps" data-entity-2="Rappel" data-source-line="59" data-uid="lnk22" id="link_EmploiDuTemps_Rappel"><path codeLine="59" d="M616.72,366.0594 C625.53,375.8494 634.58,385.9894 643,395.6094 C661.51,416.7294 681.46,440.0794 699.18,461.0194" fill="none" id="EmploiDuTemps-Rappel" style="stroke:#181818;stroke-width:1;"/><text fill="#000000" font-family="sans-serif" font-size="13" lengthAdjust="spacing" textLength="42.6372" x="659" y="410.1045">rappels</text><text fill="#000000" font-family="sans-serif" font-size="13" lengthAdjust="spacing" textLength="7.23" x="615.6397" y="387.6785">1</text><text fill="#000000" font-family="sans-serif" font-size="13" lengthAdjust="spacing" textLength="19.5127" x="672.9834" y="450.1967">0..*</text></g><rect fill="#DDDDDD" height="66.8281" rx="7.5" ry="7.5" style="stroke:#000000;stroke-width:1;" width="241.5264" x="296.7368" y="762.8281"/><text fill="#000000" font-family="sans-serif" font-size="14" font-weight="bold" lengthAdjust="spacing" textLength="56.7656" x="305.6265" y="784.3613">Notation</text><text fill="#000000" font-family="sans-serif" font-size="14" font-weight="bold" lengthAdjust="spacing" textLength="84" x="379.188" y="784.3613">Signification</text><text fill="#000000" font-family="sans-serif" font-size="14" lengthAdjust="spacing" textLength="65.7822" x="305.6265" y="801.9707">"1" -- "0..*"</text><text fill="#000000" font-family="sans-serif" font-size="14" lengthAdjust="spacing" textLength="89.4893" x="379.188" y="801.9707">Un &#224; plusieurs</text><text fill="#000000" font-family="sans-serif" font-size="14" lengthAdjust="spacing" textLength="9.3242" x="305.6265" y="819.5801">--</text><text fill="#000000" font-family="sans-serif" font-size="14" lengthAdjust="spacing" textLength="8.1758" x="375.2983" y="819.5801">&gt;</text><text fill="#000000" font-family="sans-serif" font-size="14" lengthAdjust="spacing" textLength="52.917" x="476.4565" y="819.5801">H&#233;ritage</text><line style="stroke:#000000;stroke-width:1;" x1="301.7368" x2="533.2632" y1="769.8281" y2="769.8281"/><line style="stroke:#000000;stroke-width:1;" x1="301.7368" x2="533.2632" y1="787.4375" y2="787.4375"/><line style="stroke:#000000;stroke-width:1;" x1="301.7368" x2="533.2632" y1="805.0469" y2="805.0469"/><line style="stroke:#000000;stroke-width:1;" x1="301.7368" x2="533.2632" y1="822.6563" y2="822.6563"/><line style="stroke:#000000;stroke-width:1;" x1="301.7368" x2="301.7368" y1="769.8281" y2="822.6563"/><line style="stroke:#000000;stroke-width:1;" x1="375.2983" x2="375.2983" y1="769.8281" y2="822.6563"/><line style="stroke:#000000;stroke-width:1;" x1="472.5669" x2="472.5669" y1="769.8281" y2="822.6563"/><line style="stroke:#000000;stroke-width:1;" x1="533.2632" x2="533.2632" y1="769.8281" y2="822.6563"/><!--SRC=[dLJ1Rjf04BtlLqmvj58hK7grb4ff8IfL155CpjLY9cQQzQorEwQYeV_IQxw37yiOdDIu0gdn0RDlvyrxkpDZ8N48ryuo4-VGXr5HEa-mg42mA2EyXHjRbkYYCM-8CrSj4BxFRSH-vcoCWvznOSoI5DLmMKE1nHn3DF6UkBJ15b3QxDxccCfQbG9cOZbts0hO9ReG2JIl1CUPvvH-8PmPqr2Xzsom1pR-TVjW3EpPZUrXDTkPVb0Su0C8IS04KatDUOCjC6Q1IY7FdHsk2Wm-nS8IAslCWZc6PbCbyG3yRSoXQB-_-GGpAZ2ArNNBsmeP2sGP3MUljFR3L-68iILM0OUeLvVirDlm9V41cFdAATv9xWYh5bGVhEtuwBc-U5vfgTLj-s1tb2q9mpHGJcnTHwlm2tHuA-GeTeyVC5PEh7nBfvC4wjyNstn7bZCbN3flPM_oKFweottxdhnt9KLjiwwT7V5AuQ4LRDsYIenuvTUwyzbxXvQVDtPeXw5E6mjTYxhp3ix_-r7IpUZgOZQUJjBN9RWElWo4OYdeR7tigJFedGq6xtkTEKhgeTPrVFaUT7g-GswtJGBRnzNsSG-SvXrMCgdhtQpZAQ_DjIPDfKvh_1Did0uHBs3kHNoXXTgSmyHh-wbi_J-bd4cRkG7gW4xA3TmoRFz0wQge8nHY4xMhixw_RXy3IVtzsfXQQIzedW00]--></g></svg>