<svg xmlns="http://www.w3.org/2000/svg" xmlns:xlink="http://www.w3.org/1999/xlink" contentStyleType="text/css" data-diagram-type="CLASS" height="891px" preserveAspectRatio="none" style="width:1048px;height:891px;background:#FFFFFF;" version="1.1" viewBox="0 0 1048 891" width="1048px" zoomAndPan="magnify"><title>Services transverses</title><defs/><g><text fill="#000000" font-family="sans-serif" font-size="14" font-weight="bold" lengthAdjust="spacing" textLength="140.1094" x="446.9453" y="24.5332">Services transverses</text><!--cluster Notifications--><g class="cluster" data-entity="Notifications" data-source-line="9" data-uid="ent0008" id="cluster_Notifications"><rect fill="none" height="145" rx="2.5" ry="2.5" style="stroke:#000000;stroke-width:1.5;" width="156" x="65" y="272.6094"/><text fill="#000000" font-family="sans-serif" font-size="14" font-weight="bold" lengthAdjust="spacing" textLength="84.7793" x="100.6104" y="289.1426">Notifications</text></g><!--cluster Stats--><g class="cluster" data-entity="Stats" data-source-line="20" data-uid="ent0011" id="cluster_Stats"><rect fill="none" height="162" rx="2.5" ry="2.5" style="stroke:#000000;stroke-width:1.5;" width="351" x="691" y="502.6094"/><text fill="#000000" font-family="sans-serif" font-size="14" font-weight="bold" lengthAdjust="spacing" textLength="79.3516" x="826.8242" y="519.1426">Statistiques</text></g><!--cluster Ressources--><g class="cluster" data-entity="Ressources" data-source-line="41" data-uid="ent0016" id="cluster_Ressources"><rect fill="none" height="215" rx="2.5" ry="2.5" style="stroke:#000000;stroke-width:1.5;" width="260" x="283" y="237.6094"/><text fill="#000000" font-family="sans-serif" font-size="14" font-weight="bold" lengthAdjust="spacing" textLength="79.3789" x="373.3105" y="254.1426">Ressources</text></g><!--class Notification--><g class="entity" data-entity="Notification" data-source-line="11" data-uid="ent0009" id="entity_Notification"><rect fill="#F1F1F1" height="92.8281" rx="2.5" ry="2.5" style="stroke:#181818;stroke-width:0.5;" width="122.8926" x="81.5" y="308.6094"/><ellipse cx="106.237" cy="324.6094" fill="#ADD1B2" rx="11" ry="11" style="stroke:#181818;stroke-width:1;"/><path d="M109.0026,320.4844 Q109.1588,320.2656 109.3463,320.1563 Q109.5338,320.0469 109.7526,320.0469 Q110.1276,320.0469 110.362,320.3125 Q110.5963,320.5625 110.5963,321.1719 L110.5963,322.625 Q110.5963,323.2344 110.362,323.5 Q110.1276,323.7656 109.7526,323.7656 Q109.4088,323.7656 109.2057,323.5625 Q109.0026,323.375 108.8932,322.8594 Q108.8463,322.5 108.6588,322.3125 Q108.3307,321.9375 107.7213,321.7188 Q107.112,321.5 106.487,321.5 Q105.7213,321.5 105.0807,321.8281 Q104.4557,322.1563 103.9557,322.9063 Q103.4713,323.6563 103.4713,324.6875 L103.4713,325.7813 Q103.4713,327.0156 104.362,327.8438 Q105.2526,328.6563 106.8463,328.6563 Q107.7838,328.6563 108.4401,328.4063 Q108.8307,328.25 109.2526,327.8125 Q109.5182,327.5469 109.6588,327.4688 Q109.8151,327.3906 110.0182,327.3906 Q110.3463,327.3906 110.5963,327.6563 Q110.862,327.9063 110.862,328.25 Q110.862,328.5938 110.5182,329 Q110.0182,329.5781 109.2213,329.9063 Q108.1432,330.3594 106.8463,330.3594 Q105.3307,330.3594 104.1276,329.7344 Q103.1432,329.2344 102.4557,328.1719 Q101.7682,327.0938 101.7682,325.8125 L101.7682,324.6563 Q101.7682,323.3281 102.3776,322.1875 Q103.0026,321.0313 104.0963,320.4219 Q105.1901,319.7969 106.4245,319.7969 Q107.1588,319.7969 107.7995,319.9688 Q108.4557,320.125 109.0026,320.4844 Z " fill="#000000"/><text fill="#000000" font-family="sans-serif" font-size="14" lengthAdjust="spacing" textLength="69.2549" x="122.4007" y="330.3379">Notification</text><line style="stroke:#181818;stroke-width:0.5;" x1="82.5" x2="203.3926" y1="340.6094" y2="340.6094"/><text fill="#000000" font-family="sans-serif" font-size="14" lengthAdjust="spacing" textLength="78.9893" x="87.5" y="359.1426">+type: String</text><text fill="#000000" font-family="sans-serif" font-size="14" lengthAdjust="spacing" textLength="107.0098" x="87.5" y="376.752">+donnees: JSON</text><text fill="#000000" font-family="sans-serif" font-size="14" lengthAdjust="spacing" textLength="110.8926" x="87.5" y="394.3613">+lueLe: DateTime</text></g><!--class VuePage--><g class="entity" data-entity="VuePage" data-source-line="22" data-uid="ent0012" id="entity_VuePage"><rect fill="#F1F1F1" height="110.4375" rx="2.5" ry="2.5" style="stroke:#181818;stroke-width:0.5;" width="161.8027" x="707" y="538.6094"/><ellipse cx="754.8481" cy="554.6094" fill="#ADD1B2" rx="11" ry="11" style="stroke:#181818;stroke-width:1;"/><path d="M757.6138,550.4844 Q757.77,550.2656 757.9575,550.1563 Q758.145,550.0469 758.3638,550.0469 Q758.7388,550.0469 758.9731,550.3125 Q759.2075,550.5625 759.2075,551.1719 L759.2075,552.625 Q759.2075,553.2344 758.9731,553.5 Q758.7388,553.7656 758.3638,553.7656 Q758.02,553.7656 757.8169,553.5625 Q757.6138,553.375 757.5044,552.8594 Q757.4575,552.5 757.27,552.3125 Q756.9419,551.9375 756.3325,551.7188 Q755.7231,551.5 755.0981,551.5 Q754.3325,551.5 753.6919,551.8281 Q753.0669,552.1563 752.5669,552.9063 Q752.0825,553.6563 752.0825,554.6875 L752.0825,555.7813 Q752.0825,557.0156 752.9731,557.8438 Q753.8638,558.6563 755.4575,558.6563 Q756.395,558.6563 757.0513,558.4063 Q757.4419,558.25 757.8638,557.8125 Q758.1294,557.5469 758.27,557.4688 Q758.4263,557.3906 758.6294,557.3906 Q758.9575,557.3906 759.2075,557.6563 Q759.4731,557.9063 759.4731,558.25 Q759.4731,558.5938 759.1294,559 Q758.6294,559.5781 757.8325,559.9063 Q756.7544,560.3594 755.4575,560.3594 Q753.9419,560.3594 752.7388,559.7344 Q751.7544,559.2344 751.0669,558.1719 Q750.3794,557.0938 750.3794,555.8125 L750.3794,554.6563 Q750.3794,553.3281 750.9888,552.1875 Q751.6138,551.0313 752.7075,550.4219 Q753.8013,549.7969 755.0356,549.7969 Q755.77,549.7969 756.4106,549.9688 Q757.0669,550.125 757.6138,550.4844 Z " fill="#000000"/><text fill="#000000" font-family="sans-serif" font-size="14" lengthAdjust="spacing" textLength="57.6064" x="775.3481" y="560.3379">VuePage</text><line style="stroke:#181818;stroke-width:0.5;" x1="708" x2="867.8027" y1="570.6094" y2="570.6094"/><text fill="#000000" font-family="sans-serif" font-size="14" lengthAdjust="spacing" textLength="115.5615" x="713" y="589.1426">+adresseIP: String</text><text fill="#000000" font-family="sans-serif" font-size="14" lengthAdjust="spacing" textLength="149.8027" x="713" y="606.752">+agentUtilisateur: String</text><text fill="#000000" font-family="sans-serif" font-size="14" lengthAdjust="spacing" textLength="93.7617" x="713" y="624.3613">+referer: String</text><text fill="#000000" font-family="sans-serif" font-size="14" lengthAdjust="spacing" textLength="124.1064" x="713" y="641.9707">+visiteLe: DateTime</text></g><!--class Contact--><g class="entity" data-entity="Contact" data-source-line="31" data-uid="ent0014" id="entity_Contact"><rect fill="#F1F1F1" height="110.4375" rx="2.5" ry="2.5" style="stroke:#181818;stroke-width:0.5;" width="121.334" x="904.5" y="538.6094"/><ellipse cx="937.9887" cy="554.6094" fill="#ADD1B2" rx="11" ry="11" style="stroke:#181818;stroke-width:1;"/><path d="M940.7543,550.4844 Q940.9105,550.2656 941.098,550.1563 Q941.2855,550.0469 941.5043,550.0469 Q941.8793,550.0469 942.1137,550.3125 Q942.348,550.5625 942.348,551.1719 L942.348,552.625 Q942.348,553.2344 942.1137,553.5 Q941.8793,553.7656 941.5043,553.7656 Q941.1605,553.7656 940.9574,553.5625 Q940.7543,553.375 940.6449,552.8594 Q940.598,552.5 940.4105,552.3125 Q940.0824,551.9375 939.473,551.7188 Q938.8637,551.5 938.2387,551.5 Q937.473,551.5 936.8324,551.8281 Q936.2074,552.1563 935.7074,552.9063 Q935.223,553.6563 935.223,554.6875 L935.223,555.7813 Q935.223,557.0156 936.1137,557.8438 Q937.0043,558.6563 938.598,558.6563 Q939.5355,558.6563 940.1918,558.4063 Q940.5824,558.25 941.0043,557.8125 Q941.2699,557.5469 941.4105,557.4688 Q941.5668,557.3906 941.7699,557.3906 Q942.098,557.3906 942.348,557.6563 Q942.6137,557.9063 942.6137,558.25 Q942.6137,558.5938 942.2699,559 Q941.7699,559.5781 940.973,559.9063 Q939.8949,560.3594 938.598,560.3594 Q937.0824,560.3594 935.8793,559.7344 Q934.8949,559.2344 934.2074,558.1719 Q933.5199,557.0938 933.5199,555.8125 L933.5199,554.6563 Q933.5199,553.3281 934.1293,552.1875 Q934.7543,551.0313 935.848,550.4219 Q936.9418,549.7969 938.1762,549.7969 Q938.9105,549.7969 939.5512,549.9688 Q940.2074,550.125 940.7543,550.4844 Z " fill="#000000"/><text fill="#000000" font-family="sans-serif" font-size="14" lengthAdjust="spacing" textLength="48.248" x="956.0973" y="560.3379">Contact</text><line style="stroke:#181818;stroke-width:0.5;" x1="905.5" x2="1024.834" y1="570.6094" y2="570.6094"/><text fill="#000000" font-family="sans-serif" font-size="14" lengthAdjust="spacing" textLength="79.7617" x="910.5" y="589.1426">+nom: String</text><text fill="#000000" font-family="sans-serif" font-size="14" lengthAdjust="spacing" textLength="85.9824" x="910.5" y="606.752">+email: String</text><text fill="#000000" font-family="sans-serif" font-size="14" lengthAdjust="spacing" textLength="109.334" x="910.5" y="624.3613">+message: String</text><text fill="#000000" font-family="sans-serif" font-size="14" lengthAdjust="spacing" textLength="101.582" x="910.5" y="641.9707">+estLu: Boolean</text></g><!--class Ressource--><g class="entity" data-entity="Ressource" data-source-line="43" data-uid="ent0017" id="entity_Ressource"><rect fill="#F1F1F1" height="163.2656" rx="2.5" ry="2.5" style="stroke:#181818;stroke-width:0.5;" width="227.1748" x="299.5" y="273.6094"/><ellipse cx="375.3789" cy="289.6094" fill="#ADD1B2" rx="11" ry="11" style="stroke:#181818;stroke-width:1;"/><path d="M378.1445,285.4844 Q378.3008,285.2656 378.4883,285.1563 Q378.6758,285.0469 378.8945,285.0469 Q379.2695,285.0469 379.5039,285.3125 Q379.7383,285.5625 379.7383,286.1719 L379.7383,287.625 Q379.7383,288.2344 379.5039,288.5 Q379.2695,288.7656 378.8945,288.7656 Q378.5508,288.7656 378.3477,288.5625 Q378.1445,288.375 378.0352,287.8594 Q377.9883,287.5 377.8008,287.3125 Q377.4727,286.9375 376.8633,286.7188 Q376.2539,286.5 375.6289,286.5 Q374.8633,286.5 374.2227,286.8281 Q373.5977,287.1563 373.0977,287.9063 Q372.6133,288.6563 372.6133,289.6875 L372.6133,290.7813 Q372.6133,292.0156 373.5039,292.8438 Q374.3945,293.6563 375.9883,293.6563 Q376.9258,293.6563 377.582,293.4063 Q377.9727,293.25 378.3945,292.8125 Q378.6602,292.5469 378.8008,292.4688 Q378.957,292.3906 379.1602,292.3906 Q379.4883,292.3906 379.7383,292.6563 Q380.0039,292.9063 380.0039,293.25 Q380.0039,293.5938 379.6602,294 Q379.1602,294.5781 378.3633,294.9063 Q377.2852,295.3594 375.9883,295.3594 Q374.4727,295.3594 373.2695,294.7344 Q372.2852,294.2344 371.5977,293.1719 Q370.9102,292.0938 370.9102,290.8125 L370.9102,289.6563 Q370.9102,288.3281 371.5195,287.1875 Q372.1445,286.0313 373.2383,285.4219 Q374.332,284.7969 375.5664,284.7969 Q376.3008,284.7969 376.9414,284.9688 Q377.5977,285.125 378.1445,285.4844 Z " fill="#000000"/><text fill="#000000" font-family="sans-serif" font-size="14" lengthAdjust="spacing" textLength="66.917" x="395.8789" y="295.3379">Ressource</text><line style="stroke:#181818;stroke-width:0.5;" x1="300.5" x2="525.6748" y1="305.6094" y2="305.6094"/><text fill="#000000" font-family="sans-serif" font-size="14" lengthAdjust="spacing" textLength="75.8652" x="305.5" y="324.1426">+titre: String</text><text fill="#000000" font-family="sans-serif" font-size="14" lengthAdjust="spacing" textLength="120.2305" x="305.5" y="341.752">+description: String</text><text fill="#000000" font-family="sans-serif" font-size="14" lengthAdjust="spacing" textLength="139.665" x="305.5" y="359.3613">+cheminFichier: String</text><text fill="#000000" font-family="sans-serif" font-size="14" lengthAdjust="spacing" textLength="120.9961" x="305.5" y="376.9707">+typeFichier: String</text><text fill="#000000" font-family="sans-serif" font-size="14" lengthAdjust="spacing" textLength="140.458" x="305.5" y="394.5801">+type: TypeRessource</text><text fill="#000000" font-family="sans-serif" font-size="14" lengthAdjust="spacing" textLength="140.499" x="305.5" y="412.1895">+estPublique: Boolean</text><text fill="#000000" font-family="sans-serif" font-size="14" lengthAdjust="spacing" textLength="215.1748" x="305.5" y="429.7988">+nombreTelechargements: Integer</text></g><!--class Niveau--><g class="entity" data-entity="Niveau" data-source-line="2" data-uid="ent0002" id="entity_Niveau"><rect fill="#F1F1F1" height="110.4375" rx="2.5" ry="2.5" style="stroke:#181818;stroke-width:0.5;" width="93.7031" x="7" y="54.6094"/><ellipse cx="30.1558" cy="70.6094" fill="#EB937F" rx="11" ry="11" style="stroke:#181818;stroke-width:1;"/><path d="M29.0152,71.4063 L29.0152,73.9063 L33.3433,73.9063 L33.3433,72.9844 Q33.3433,72.375 33.5777,72.1094 Q33.8277,71.8438 34.2027,71.8438 Q34.5777,71.8438 34.8121,72.1094 Q35.0464,72.375 35.0464,72.9844 L35.0464,75.6094 L27.0464,75.6094 Q26.4214,75.6094 26.1558,75.375 Q25.9058,75.1406 25.9058,74.75 Q25.9058,74.375 26.1714,74.1406 Q26.4371,73.9063 27.0464,73.9063 L27.3121,73.9063 L27.3121,67.25 L27.0464,67.25 Q26.4214,67.25 26.1558,67.0156 Q25.9058,66.7813 25.9058,66.3906 Q25.9058,66.0156 26.1558,65.7813 Q26.4214,65.5469 27.0464,65.5469 L34.6714,65.5469 L34.6714,68.1406 Q34.6714,68.75 34.4371,69.0156 Q34.2183,69.2656 33.8277,69.2656 Q33.4527,69.2656 33.2183,69.0156 Q32.9839,68.75 32.9839,68.1406 L32.9839,67.25 L29.0152,67.25 L29.0152,69.7031 L30.4996,69.7031 Q30.4996,69.0469 30.6246,68.8594 Q30.8902,68.4531 31.3589,68.4531 Q31.7339,68.4531 31.9683,68.7188 Q32.2027,68.9688 32.2027,69.5781 L32.2027,71.5469 Q32.2027,72.0938 32.0777,72.2813 Q31.8121,72.6719 31.3589,72.6719 Q30.8902,72.6719 30.6246,72.2656 Q30.4996,72.0781 30.4996,71.4063 L29.0152,71.4063 Z " fill="#000000"/><text fill="#000000" font-family="sans-serif" font-size="14" lengthAdjust="spacing" textLength="43.5791" x="45.9682" y="76.3379">Niveau</text><line style="stroke:#181818;stroke-width:0.5;" x1="8" x2="99.7031" y1="86.6094" y2="86.6094"/><text fill="#000000" font-family="sans-serif" font-size="14" lengthAdjust="spacing" textLength="56.8203" x="13" y="105.1426">D&#233;butant</text><text fill="#000000" font-family="sans-serif" font-size="14" lengthAdjust="spacing" textLength="81.7031" x="13" y="122.752">Interm&#233;diaire</text><text fill="#000000" font-family="sans-serif" font-size="14" lengthAdjust="spacing" textLength="46.6963" x="13" y="140.3613">Avanc&#233;</text><text fill="#000000" font-family="sans-serif" font-size="14" lengthAdjust="spacing" textLength="40.4619" x="13" y="157.9707">Expert</text></g><!--class TypeMedia--><g class="entity" data-entity="TypeMedia" data-source-line="9" data-uid="ent0003" id="entity_TypeMedia"><rect fill="#F1F1F1" height="128.0469" rx="2.5" ry="2.5" style="stroke:#181818;stroke-width:0.5;" width="101.2549" x="136.5" y="45.6094"/><ellipse cx="151.5" cy="61.6094" fill="#EB937F" rx="11" ry="11" style="stroke:#181818;stroke-width:1;"/><path d="M150.3594,62.4063 L150.3594,64.9063 L154.6875,64.9063 L154.6875,63.9844 Q154.6875,63.375 154.9219,63.1094 Q155.1719,62.8438 155.5469,62.8438 Q155.9219,62.8438 156.1563,63.1094 Q156.3906,63.375 156.3906,63.9844 L156.3906,66.6094 L148.3906,66.6094 Q147.7656,66.6094 147.5,66.375 Q147.25,66.1406 147.25,65.75 Q147.25,65.375 147.5156,65.1406 Q147.7813,64.9063 148.3906,64.9063 L148.6563,64.9063 L148.6563,58.25 L148.3906,58.25 Q147.7656,58.25 147.5,58.0156 Q147.25,57.7813 147.25,57.3906 Q147.25,57.0156 147.5,56.7813 Q147.7656,56.5469 148.3906,56.5469 L156.0156,56.5469 L156.0156,59.1406 Q156.0156,59.75 155.7813,60.0156 Q155.5625,60.2656 155.1719,60.2656 Q154.7969,60.2656 154.5625,60.0156 Q154.3281,59.75 154.3281,59.1406 L154.3281,58.25 L150.3594,58.25 L150.3594,60.7031 L151.8438,60.7031 Q151.8438,60.0469 151.9688,59.8594 Q152.2344,59.4531 152.7031,59.4531 Q153.0781,59.4531 153.3125,59.7188 Q153.5469,59.9688 153.5469,60.5781 L153.5469,62.5469 Q153.5469,63.0938 153.4219,63.2813 Q153.1563,63.6719 152.7031,63.6719 Q152.2344,63.6719 151.9688,63.2656 Q151.8438,63.0781 151.8438,62.4063 L150.3594,62.4063 Z " fill="#000000"/><text fill="#000000" font-family="sans-serif" font-size="14" lengthAdjust="spacing" textLength="69.2549" x="165.5" y="67.3379">TypeMedia</text><line style="stroke:#181818;stroke-width:0.5;" x1="137.5" x2="236.7549" y1="77.6094" y2="77.6094"/><text fill="#000000" font-family="sans-serif" font-size="14" lengthAdjust="spacing" textLength="38.9102" x="142.5" y="96.1426">Image</text><text fill="#000000" font-family="sans-serif" font-size="14" lengthAdjust="spacing" textLength="35.8066" x="142.5" y="113.752">Vid&#233;o</text><text fill="#000000" font-family="sans-serif" font-size="14" lengthAdjust="spacing" textLength="63.8066" x="142.5" y="131.3613">Document</text><text fill="#000000" font-family="sans-serif" font-size="14" lengthAdjust="spacing" textLength="26.4688" x="142.5" y="148.9707">Lien</text><text fill="#000000" font-family="sans-serif" font-size="14" lengthAdjust="spacing" textLength="52.1582" x="142.5" y="166.5801">Youtube</text></g><!--class TypeRessource--><g class="entity" data-entity="TypeRessource" data-source-line="17" data-uid="ent0004" id="entity_TypeRessource"><rect fill="#F1F1F1" height="110.4375" rx="2.5" ry="2.5" style="stroke:#181818;stroke-width:0.5;" width="130.041" x="190" y="538.6094"/><ellipse cx="205" cy="554.6094" fill="#EB937F" rx="11" ry="11" style="stroke:#181818;stroke-width:1;"/><path d="M203.8594,555.4063 L203.8594,557.9063 L208.1875,557.9063 L208.1875,556.9844 Q208.1875,556.375 208.4219,556.1094 Q208.6719,555.8438 209.0469,555.8438 Q209.4219,555.8438 209.6563,556.1094 Q209.8906,556.375 209.8906,556.9844 L209.8906,559.6094 L201.8906,559.6094 Q201.2656,559.6094 201,559.375 Q200.75,559.1406 200.75,558.75 Q200.75,558.375 201.0156,558.1406 Q201.2813,557.9063 201.8906,557.9063 L202.1563,557.9063 L202.1563,551.25 L201.8906,551.25 Q201.2656,551.25 201,551.0156 Q200.75,550.7813 200.75,550.3906 Q200.75,550.0156 201,549.7813 Q201.2656,549.5469 201.8906,549.5469 L209.5156,549.5469 L209.5156,552.1406 Q209.5156,552.75 209.2813,553.0156 Q209.0625,553.2656 208.6719,553.2656 Q208.2969,553.2656 208.0625,553.0156 Q207.8281,552.75 207.8281,552.1406 L207.8281,551.25 L203.8594,551.25 L203.8594,553.7031 L205.3438,553.7031 Q205.3438,553.0469 205.4688,552.8594 Q205.7344,552.4531 206.2031,552.4531 Q206.5781,552.4531 206.8125,552.7188 Q207.0469,552.9688 207.0469,553.5781 L207.0469,555.5469 Q207.0469,556.0938 206.9219,556.2813 Q206.6563,556.6719 206.2031,556.6719 Q205.7344,556.6719 205.4688,556.2656 Q205.3438,556.0781 205.3438,555.4063 L203.8594,555.4063 Z " fill="#000000"/><text fill="#000000" font-family="sans-serif" font-size="14" lengthAdjust="spacing" textLength="98.041" x="219" y="560.3379">TypeRessource</text><line style="stroke:#181818;stroke-width:0.5;" x1="191" x2="319.041" y1="570.6094" y2="570.6094"/><text fill="#000000" font-family="sans-serif" font-size="14" lengthAdjust="spacing" textLength="63.8066" x="196" y="589.1426">Document</text><text fill="#000000" font-family="sans-serif" font-size="14" lengthAdjust="spacing" textLength="38.9102" x="196" y="606.752">Image</text><text fill="#000000" font-family="sans-serif" font-size="14" lengthAdjust="spacing" textLength="46.6826" x="196" y="624.3613">Archive</text><text fill="#000000" font-family="sans-serif" font-size="14" lengthAdjust="spacing" textLength="26.4688" x="196" y="641.9707">Lien</text></g><!--class Timestamps--><g class="entity" data-entity="Timestamps" data-source-line="25" data-uid="ent0005" id="entity_Timestamps"><rect fill="#F1F1F1" height="75.2188" rx="2.5" ry="2.5" style="stroke:#181818;stroke-width:0.5;" width="168.8027" x="458.5" y="711.6094"/><ellipse cx="500.7558" cy="727.6094" fill="#A9DCDF" rx="11" ry="11" style="stroke:#181818;stroke-width:1;"/><path d="M502.9433,729.375 L498.8026,729.375 L498.3808,730.4063 L498.8026,730.4063 Q499.412,730.4063 499.6776,730.6406 Q499.9433,730.875 499.9433,731.2656 Q499.9433,731.6406 499.6776,731.875 Q499.412,732.1094 498.8026,732.1094 L496.5058,732.1094 Q495.8964,732.1094 495.6464,731.875 Q495.3808,731.6406 495.3808,731.25 Q495.3808,730.875 495.662,730.6406 Q495.9276,730.3906 496.5526,730.4063 L499.2245,723.75 L498.1151,723.75 Q497.5058,723.75 497.2401,723.5156 Q496.9745,723.2813 496.9745,722.8906 Q496.9745,722.5156 497.2401,722.2813 Q497.5058,722.0469 498.1151,722.0469 L501.787,722.0469 L505.1776,730.4063 Q505.7714,730.4063 505.9589,730.5469 Q506.3495,730.8125 506.3495,731.2656 Q506.3495,731.6406 506.0839,731.875 Q505.8339,732.1094 505.2245,732.1094 L502.9276,732.1094 Q502.3183,732.1094 502.0526,731.875 Q501.787,731.6406 501.787,731.25 Q501.787,730.875 502.0526,730.6406 Q502.3183,730.4063 502.9276,730.4063 L503.3495,730.4063 L502.9433,729.375 Z M502.2245,727.6719 L500.8651,724.2969 L499.4901,727.6719 L502.2245,727.6719 Z " fill="#000000"/><text fill="#000000" font-family="sans-serif" font-size="14" font-style="italic" lengthAdjust="spacing" textLength="76.2344" x="520.8126" y="733.3379">Timestamps</text><line style="stroke:#181818;stroke-width:0.5;" x1="459.5" x2="626.3027" y1="743.6094" y2="743.6094"/><text fill="#000000" font-family="sans-serif" font-size="14" lengthAdjust="spacing" textLength="156.8027" x="464.5" y="762.1426">+dateCreation: DateTime</text><text fill="#000000" font-family="sans-serif" font-size="14" lengthAdjust="spacing" textLength="138.1201" x="464.5" y="779.752">+dateModif: DateTime</text></g><!--class SoftDeletes--><g class="entity" data-entity="SoftDeletes" data-source-line="30" data-uid="ent0006" id="entity_SoftDeletes"><rect fill="#F1F1F1" height="57.6094" rx="2.5" ry="2.5" style="stroke:#181818;stroke-width:0.5;" width="193.7129" x="355" y="564.6094"/><ellipse cx="411.4204" cy="580.6094" fill="#A9DCDF" rx="11" ry="11" style="stroke:#181818;stroke-width:1;"/><path d="M413.6079,582.375 L409.4673,582.375 L409.0454,583.4063 L409.4673,583.4063 Q410.0767,583.4063 410.3423,583.6406 Q410.6079,583.875 410.6079,584.2656 Q410.6079,584.6406 410.3423,584.875 Q410.0767,585.1094 409.4673,585.1094 L407.1704,585.1094 Q406.561,585.1094 406.311,584.875 Q406.0454,584.6406 406.0454,584.25 Q406.0454,583.875 406.3267,583.6406 Q406.5923,583.3906 407.2173,583.4063 L409.8892,576.75 L408.7798,576.75 Q408.1704,576.75 407.9048,576.5156 Q407.6392,576.2813 407.6392,575.8906 Q407.6392,575.5156 407.9048,575.2813 Q408.1704,575.0469 408.7798,575.0469 L412.4517,575.0469 L415.8423,583.4063 Q416.436,583.4063 416.6235,583.5469 Q417.0142,583.8125 417.0142,584.2656 Q417.0142,584.6406 416.7485,584.875 Q416.4985,585.1094 415.8892,585.1094 L413.5923,585.1094 Q412.9829,585.1094 412.7173,584.875 Q412.4517,584.6406 412.4517,584.25 Q412.4517,583.875 412.7173,583.6406 Q412.9829,583.4063 413.5923,583.4063 L414.0142,583.4063 L413.6079,582.375 Z M412.8892,580.6719 L411.5298,577.2969 L410.1548,580.6719 L412.8892,580.6719 Z " fill="#000000"/><text fill="#000000" font-family="sans-serif" font-size="14" font-style="italic" lengthAdjust="spacing" textLength="72.3721" x="431.9204" y="586.3379">SoftDeletes</text><line style="stroke:#181818;stroke-width:0.5;" x1="356" x2="547.7129" y1="596.6094" y2="596.6094"/><text fill="#000000" font-family="sans-serif" font-size="14" lengthAdjust="spacing" textLength="181.7129" x="361" y="615.1426">+dateSuppression: DateTime</text></g><!--class Proprietaire--><g class="entity" data-entity="Proprietaire" data-source-line="64" data-uid="ent0020" id="entity_Proprietaire"><rect fill="#F1F1F1" height="32" rx="2.5" ry="2.5" style="stroke:#181818;stroke-width:0.5;" width="104.3652" x="273" y="93.6094"/><ellipse cx="288" cy="109.6094" fill="#ADD1B2" rx="11" ry="11" style="stroke:#181818;stroke-width:1;"/><path d="M290.7656,105.4844 Q290.9219,105.2656 291.1094,105.1563 Q291.2969,105.0469 291.5156,105.0469 Q291.8906,105.0469 292.125,105.3125 Q292.3594,105.5625 292.3594,106.1719 L292.3594,107.625 Q292.3594,108.2344 292.125,108.5 Q291.8906,108.7656 291.5156,108.7656 Q291.1719,108.7656 290.9688,108.5625 Q290.7656,108.375 290.6563,107.8594 Q290.6094,107.5 290.4219,107.3125 Q290.0938,106.9375 289.4844,106.7188 Q288.875,106.5 288.25,106.5 Q287.4844,106.5 286.8438,106.8281 Q286.2188,107.1563 285.7188,107.9063 Q285.2344,108.6563 285.2344,109.6875 L285.2344,110.7813 Q285.2344,112.0156 286.125,112.8438 Q287.0156,113.6563 288.6094,113.6563 Q289.5469,113.6563 290.2031,113.4063 Q290.5938,113.25 291.0156,112.8125 Q291.2813,112.5469 291.4219,112.4688 Q291.5781,112.3906 291.7813,112.3906 Q292.1094,112.3906 292.3594,112.6563 Q292.625,112.9063 292.625,113.25 Q292.625,113.5938 292.2813,114 Q291.7813,114.5781 290.9844,114.9063 Q289.9063,115.3594 288.6094,115.3594 Q287.0938,115.3594 285.8906,114.7344 Q284.9063,114.2344 284.2188,113.1719 Q283.5313,112.0938 283.5313,110.8125 L283.5313,109.6563 Q283.5313,108.3281 284.1406,107.1875 Q284.7656,106.0313 285.8594,105.4219 Q286.9531,104.7969 288.1875,104.7969 Q288.9219,104.7969 289.5625,104.9688 Q290.2188,105.125 290.7656,105.4844 Z " fill="#000000"/><text fill="#000000" font-family="sans-serif" font-size="14" lengthAdjust="spacing" textLength="72.3652" x="302" y="115.3379">Proprietaire</text></g><!--class Publication--><g class="entity" data-entity="Publication" data-source-line="67" data-uid="ent0023" id="entity_Publication"><rect fill="#F1F1F1" height="32" rx="2.5" ry="2.5" style="stroke:#181818;stroke-width:0.5;" width="100.4893" x="703" y="339.1094"/><ellipse cx="718" cy="355.1094" fill="#ADD1B2" rx="11" ry="11" style="stroke:#181818;stroke-width:1;"/><path d="M720.7656,350.9844 Q720.9219,350.7656 721.1094,350.6563 Q721.2969,350.5469 721.5156,350.5469 Q721.8906,350.5469 722.125,350.8125 Q722.3594,351.0625 722.3594,351.6719 L722.3594,353.125 Q722.3594,353.7344 722.125,354 Q721.8906,354.2656 721.5156,354.2656 Q721.1719,354.2656 720.9688,354.0625 Q720.7656,353.875 720.6563,353.3594 Q720.6094,353 720.4219,352.8125 Q720.0938,352.4375 719.4844,352.2188 Q718.875,352 718.25,352 Q717.4844,352 716.8438,352.3281 Q716.2188,352.6563 715.7188,353.4063 Q715.2344,354.1563 715.2344,355.1875 L715.2344,356.2813 Q715.2344,357.5156 716.125,358.3438 Q717.0156,359.1563 718.6094,359.1563 Q719.5469,359.1563 720.2031,358.9063 Q720.5938,358.75 721.0156,358.3125 Q721.2813,358.0469 721.4219,357.9688 Q721.5781,357.8906 721.7813,357.8906 Q722.1094,357.8906 722.3594,358.1563 Q722.625,358.4063 722.625,358.75 Q722.625,359.0938 722.2813,359.5 Q721.7813,360.0781 720.9844,360.4063 Q719.9063,360.8594 718.6094,360.8594 Q717.0938,360.8594 715.8906,360.2344 Q714.9063,359.7344 714.2188,358.6719 Q713.5313,357.5938 713.5313,356.3125 L713.5313,355.1563 Q713.5313,353.8281 714.1406,352.6875 Q714.7656,351.5313 715.8594,350.9219 Q716.9531,350.2969 718.1875,350.2969 Q718.9219,350.2969 719.5625,350.4688 Q720.2188,350.625 720.7656,350.9844 Z " fill="#000000"/><text fill="#000000" font-family="sans-serif" font-size="14" lengthAdjust="spacing" textLength="68.4893" x="732" y="360.8379">Publication</text></g><!--class ProjetPortfolio--><g class="entity" data-entity="ProjetPortfolio" data-source-line="68" data-uid="ent0025" id="entity_ProjetPortfolio"><rect fill="#F1F1F1" height="32" rx="2.5" ry="2.5" style="stroke:#181818;stroke-width:0.5;" width="119.9307" x="838" y="339.1094"/><ellipse cx="853" cy="355.1094" fill="#ADD1B2" rx="11" ry="11" style="stroke:#181818;stroke-width:1;"/><path d="M855.7656,350.9844 Q855.9219,350.7656 856.1094,350.6563 Q856.2969,350.5469 856.5156,350.5469 Q856.8906,350.5469 857.125,350.8125 Q857.3594,351.0625 857.3594,351.6719 L857.3594,353.125 Q857.3594,353.7344 857.125,354 Q856.8906,354.2656 856.5156,354.2656 Q856.1719,354.2656 855.9688,354.0625 Q855.7656,353.875 855.6563,353.3594 Q855.6094,353 855.4219,352.8125 Q855.0938,352.4375 854.4844,352.2188 Q853.875,352 853.25,352 Q852.4844,352 851.8438,352.3281 Q851.2188,352.6563 850.7188,353.4063 Q850.2344,354.1563 850.2344,355.1875 L850.2344,356.2813 Q850.2344,357.5156 851.125,358.3438 Q852.0156,359.1563 853.6094,359.1563 Q854.5469,359.1563 855.2031,358.9063 Q855.5938,358.75 856.0156,358.3125 Q856.2813,358.0469 856.4219,357.9688 Q856.5781,357.8906 856.7813,357.8906 Q857.1094,357.8906 857.3594,358.1563 Q857.625,358.4063 857.625,358.75 Q857.625,359.0938 857.2813,359.5 Q856.7813,360.0781 855.9844,360.4063 Q854.9063,360.8594 853.6094,360.8594 Q852.0938,360.8594 850.8906,360.2344 Q849.9063,359.7344 849.2188,358.6719 Q848.5313,357.5938 848.5313,356.3125 L848.5313,355.1563 Q848.5313,353.8281 849.1406,352.6875 Q849.7656,351.5313 850.8594,350.9219 Q851.9531,350.2969 853.1875,350.2969 Q853.9219,350.2969 854.5625,350.4688 Q855.2188,350.625 855.7656,350.9844 Z " fill="#000000"/><text fill="#000000" font-family="sans-serif" font-size="14" lengthAdjust="spacing" textLength="87.9307" x="867" y="360.8379">ProjetPortfolio</text></g><!--class Domaine--><g class="entity" data-entity="Domaine" data-source-line="70" data-uid="ent0027" id="entity_Domaine"><rect fill="#F1F1F1" height="32" rx="2.5" ry="2.5" style="stroke:#181818;stroke-width:0.5;" width="88.0273" x="584" y="577.6094"/><ellipse cx="599" cy="593.6094" fill="#ADD1B2" rx="11" ry="11" style="stroke:#181818;stroke-width:1;"/><path d="M601.7656,589.4844 Q601.9219,589.2656 602.1094,589.1563 Q602.2969,589.0469 602.5156,589.0469 Q602.8906,589.0469 603.125,589.3125 Q603.3594,589.5625 603.3594,590.1719 L603.3594,591.625 Q603.3594,592.2344 603.125,592.5 Q602.8906,592.7656 602.5156,592.7656 Q602.1719,592.7656 601.9688,592.5625 Q601.7656,592.375 601.6563,591.8594 Q601.6094,591.5 601.4219,591.3125 Q601.0938,590.9375 600.4844,590.7188 Q599.875,590.5 599.25,590.5 Q598.4844,590.5 597.8438,590.8281 Q597.2188,591.1563 596.7188,591.9063 Q596.2344,592.6563 596.2344,593.6875 L596.2344,594.7813 Q596.2344,596.0156 597.125,596.8438 Q598.0156,597.6563 599.6094,597.6563 Q600.5469,597.6563 601.2031,597.4063 Q601.5938,597.25 602.0156,596.8125 Q602.2813,596.5469 602.4219,596.4688 Q602.5781,596.3906 602.7813,596.3906 Q603.1094,596.3906 603.3594,596.6563 Q603.625,596.9063 603.625,597.25 Q603.625,597.5938 603.2813,598 Q602.7813,598.5781 601.9844,598.9063 Q600.9063,599.3594 599.6094,599.3594 Q598.0938,599.3594 596.8906,598.7344 Q595.9063,598.2344 595.2188,597.1719 Q594.5313,596.0938 594.5313,594.8125 L594.5313,593.6563 Q594.5313,592.3281 595.1406,591.1875 Q595.7656,590.0313 596.8594,589.4219 Q597.9531,588.7969 599.1875,588.7969 Q599.9219,588.7969 600.5625,588.9688 Q601.2188,589.125 601.7656,589.4844 Z " fill="#000000"/><text fill="#000000" font-family="sans-serif" font-size="14" lengthAdjust="spacing" textLength="56.0273" x="613" y="599.3379">Domaine</text></g><!--link SoftDeletes to Timestamps--><g class="link" data-entity-1="SoftDeletes" data-entity-2="Timestamps" data-source-line="34" data-uid="lnk7" id="link_SoftDeletes_Timestamps"><path codeLine="34" d="M468.69,622.7594 C483.47,647.6894 495.9487,668.757 512.0787,695.957" fill="none" id="SoftDeletes-to-Timestamps" style="stroke:#181818;stroke-width:1;"/><polygon fill="none" points="521.26,711.4394,517.2395,692.8966,506.9179,699.0174,521.26,711.4394" style="stroke:#181818;stroke-width:1;"/></g><!--link Notification to Timestamps--><g class="link" data-entity-1="Notification" data-entity-2="Timestamps" data-source-line="17" data-uid="lnk10" id="link_Notification_Timestamps"><path codeLine="17" d="M132.19,401.7094 C118.99,469.7994 105.95,597.9894 173,672.6094 C210.25,714.0594 343.2594,732.1705 440.4694,740.7305" fill="none" id="Notification-to-Timestamps" style="stroke:#181818;stroke-width:1;"/><polygon fill="none" points="458.4,742.3094,440.9957,734.7536,439.9431,746.7073,458.4,742.3094" style="stroke:#181818;stroke-width:1;"/></g><!--link VuePage to Timestamps--><g class="link" data-entity-1="VuePage" data-entity-2="Timestamps" data-source-line="29" data-uid="lnk13" id="link_VuePage_Timestamps"><path codeLine="29" d="M723.71,648.7094 C712.73,657.0894 701.23,665.3594 690,672.6094 C668.43,686.5394 660.007,691.7853 637.327,703.3453" fill="none" id="VuePage-to-Timestamps" style="stroke:#181818;stroke-width:1;"/><polygon fill="none" points="621.29,711.5194,640.0517,708.691,634.6023,697.9997,621.29,711.5194" style="stroke:#181818;stroke-width:1;"/></g><!--link Contact to Timestamps--><g class="link" data-entity-1="Contact" data-entity-2="Timestamps" data-source-line="38" data-uid="lnk15" id="link_Contact_Timestamps"><path codeLine="38" d="M919.07,648.9094 C909.28,657.9194 898.42,666.3594 887,672.6094 C805.74,717.0794 718.0846,733.5083 645.4446,741.0183" fill="none" id="Contact-to-Timestamps" style="stroke:#181818;stroke-width:1;"/><polygon fill="none" points="627.54,742.8694,646.0616,746.9865,644.8275,735.0501,627.54,742.8694" style="stroke:#181818;stroke-width:1;"/></g><!--link Ressource to SoftDeletes--><g class="link" data-entity-1="Ressource" data-entity-2="SoftDeletes" data-source-line="53" data-uid="lnk18" id="link_Ressource_SoftDeletes"><path codeLine="53" d="M426.31,436.8394 C433.62,481.1294 439.2784,515.4997 444.4484,546.8197" fill="none" id="Ressource-to-SoftDeletes" style="stroke:#181818;stroke-width:1;"/><polygon fill="none" points="447.38,564.5794,450.3683,545.8425,438.5285,547.7969,447.38,564.5794" style="stroke:#181818;stroke-width:1;"/></g><!--link Ressource to TypeRessource--><g class="link" data-entity-1="Ressource" data-entity-2="TypeRessource" data-source-line="59" data-uid="lnk19" id="link_Ressource_TypeRessource"><path codeLine="59" d="M359.07,436.8394 C336.72,470.2894 314.7116,503.2194 294.6416,533.2794" fill="none" id="Ressource-to-TypeRessource" style="stroke:#181818;stroke-width:1;"/><polygon fill="#181818" points="291.31,538.2694,299.6341,533.0055,294.0864,534.111,292.9808,528.5633,291.31,538.2694" style="stroke:#181818;stroke-width:1;"/></g><!--link Proprietaire to Notification--><g class="link" data-entity-1="Proprietaire" data-entity-2="Notification" data-source-line="64" data-uid="lnk21" id="link_Proprietaire_Notification"><path codeLine="64" d="M313.62,125.8394 C286.77,161.7594 218.63,252.9194 177.04,308.5594" fill="none" id="Proprietaire-Notification" style="stroke:#181818;stroke-width:1;"/><text fill="#000000" font-family="sans-serif" font-size="13" lengthAdjust="spacing" textLength="68.6499" x="251" y="218.1045">notifications</text><text fill="#000000" font-family="sans-serif" font-size="13" lengthAdjust="spacing" textLength="7.23" x="301.8554" y="147.1138">1</text><text fill="#000000" font-family="sans-serif" font-size="13" lengthAdjust="spacing" textLength="19.5127" x="161.8452" y="297.7416">0..*</text></g><!--link Proprietaire to Ressource--><g class="link" data-entity-1="Proprietaire" data-entity-2="Ressource" data-source-line="65" data-uid="lnk22" id="link_Proprietaire_Ressource"><path codeLine="65" d="M330.5,125.8394 C341,154.8894 364.56,220.0594 383.82,273.3594" fill="none" id="Proprietaire-Ressource" style="stroke:#181818;stroke-width:1;"/><text fill="#000000" font-family="sans-serif" font-size="13" lengthAdjust="spacing" textLength="63.5781" x="364" y="218.1045">ressources</text><text fill="#000000" font-family="sans-serif" font-size="13" lengthAdjust="spacing" textLength="7.23" x="324.1159" y="147.1138">1</text><text fill="#000000" font-family="sans-serif" font-size="13" lengthAdjust="spacing" textLength="19.5127" x="361.3901" y="262.865">0..*</text></g><!--link Publication to VuePage--><g class="link" data-entity-1="Publication" data-entity-2="VuePage" data-source-line="67" data-uid="lnk24" id="link_Publication_VuePage"><path codeLine="67" d="M755.24,371.2594 C760.13,404.2994 771.95,484.1594 779.97,538.3594" fill="none" id="Publication-VuePage" style="stroke:#181818;stroke-width:1;"/><text fill="#000000" font-family="sans-serif" font-size="13" lengthAdjust="spacing" textLength="27.46" x="772" y="483.1045">vues</text><text fill="#000000" font-family="sans-serif" font-size="13" lengthAdjust="spacing" textLength="7.23" x="747.7971" y="392.5083">1</text><text fill="#000000" font-family="sans-serif" font-size="13" lengthAdjust="spacing" textLength="19.5127" x="758.7695" y="527.7451">0..*</text></g><!--link ProjetPortfolio to VuePage--><g class="link" data-entity-1="ProjetPortfolio" data-entity-2="VuePage" data-source-line="68" data-uid="lnk26" id="link_ProjetPortfolio_VuePage"><path codeLine="68" d="M890.95,371.2594 C875.59,404.2994 838.44,484.1594 813.23,538.3594" fill="none" id="ProjetPortfolio-VuePage" style="stroke:#181818;stroke-width:1;"/><text fill="#000000" font-family="sans-serif" font-size="13" lengthAdjust="spacing" textLength="27.46" x="844" y="483.1045">vues</text><text fill="#000000" font-family="sans-serif" font-size="13" lengthAdjust="spacing" textLength="7.23" x="880.6349" y="392.5083">1</text><text fill="#000000" font-family="sans-serif" font-size="13" lengthAdjust="spacing" textLength="19.5127" x="796.2909" y="527.7451">0..*</text></g><!--link Ressource to Domaine--><g class="link" data-entity-1="Ressource" data-entity-2="Domaine" data-source-line="70" data-uid="lnk28" id="link_Ressource_Domaine"><path codeLine="70" d="M511.13,436.7794 C530.64,454.8594 550.25,474.6294 567,494.6094 C589.53,521.4894 609.76,557.4094 620.31,577.4594" fill="none" id="Ressource-Domaine" style="stroke:#181818;stroke-width:1;"/><text fill="#000000" font-family="sans-serif" font-size="13" lengthAdjust="spacing" textLength="49.8672" x="560" y="483.1045">domaine</text><text fill="#000000" font-family="sans-serif" font-size="13" lengthAdjust="spacing" textLength="19.5127" x="500.0387" y="458.2646">0..*</text><text fill="#000000" font-family="sans-serif" font-size="13" lengthAdjust="spacing" textLength="7.23" x="609.4983" y="566.7134">1</text></g><rect fill="#DDDDDD" height="66.8281" rx="7.5" ry="7.5" style="stroke:#000000;stroke-width:1;" width="241.5264" x="396.2368" y="804.8281"/><text fill="#000000" font-family="sans-serif" font-size="14" font-weight="bold" lengthAdjust="spacing" textLength="56.7656" x="405.1265" y="826.3613">Notation</text><text fill="#000000" font-family="sans-serif" font-size="14" font-weight="bold" lengthAdjust="spacing" textLength="84" x="478.688" y="826.3613">Signification</text><text fill="#000000" font-family="sans-serif" font-size="14" lengthAdjust="spacing" textLength="65.7822" x="405.1265" y="843.9707">"1" -- "0..*"</text><text fill="#000000" font-family="sans-serif" font-size="14" lengthAdjust="spacing" textLength="89.4893" x="478.688" y="843.9707">Un &#224; plusieurs</text><text fill="#000000" font-family="sans-serif" font-size="14" lengthAdjust="spacing" textLength="9.3242" x="405.1265" y="861.5801">--</text><text fill="#000000" font-family="sans-serif" font-size="14" lengthAdjust="spacing" textLength="8.1758" x="474.7983" y="861.5801">&gt;</text><text fill="#000000" font-family="sans-serif" font-size="14" lengthAdjust="spacing" textLength="52.917" x="575.9565" y="861.5801">H&#233;ritage</text><line style="stroke:#000000;stroke-width:1;" x1="401.2368" x2="632.7632" y1="811.8281" y2="811.8281"/><line style="stroke:#000000;stroke-width:1;" x1="401.2368" x2="632.7632" y1="829.4375" y2="829.4375"/><line style="stroke:#000000;stroke-width:1;" x1="401.2368" x2="632.7632" y1="847.0469" y2="847.0469"/><line style="stroke:#000000;stroke-width:1;" x1="401.2368" x2="632.7632" y1="864.6563" y2="864.6563"/><line style="stroke:#000000;stroke-width:1;" x1="401.2368" x2="401.2368" y1="811.8281" y2="864.6563"/><line style="stroke:#000000;stroke-width:1;" x1="474.7983" x2="474.7983" y1="811.8281" y2="864.6563"/><line style="stroke:#000000;stroke-width:1;" x1="572.0669" x2="572.0669" y1="811.8281" y2="864.6563"/><line style="stroke:#000000;stroke-width:1;" x1="632.7632" x2="632.7632" y1="811.8281" y2="864.6563"/><!--SRC=[fLHDRzim3BthLt2vx0ijkgk15kZM3ilGfK6Tx3ee2fDmbILFeZDqI_zBh_iT_MEZOYTntAt0EXyIctfyUdoanCGM8SUm98CHE6WNbnWYHgMUaJEscY9ycUY81yRg60-_nwbI2v8e5YNVG875HF0gNfChTT05bDfSwpdcV2FC0GrhDxVO0go9Jfa3JIh6ll4kfny8HqergT0RUAOP6StaNUo1Zh0NWPzAGSspjo1naESry4s96UIoXPiteQbt3Z5cy36_73GnM-65uCuquuWAbEYjKdk41mUh4qXhaNLHHdNR4fcpO2BJjmfhZIcmf-rpXSC4tSZIqu0nOd_OqIOOnsCcIr6aLA6p77260RlH9KNYF-ZVRDgLlbNrpZlMXhUgd2ywr5XeifsOy4IXxI8ZNrGPlFNUedQrW0t_OzvT2PklWccSstssxTj6Ttqb3WyQYz44AbExEYjcWGMvzsGMzC2zD25_NybW9B_R_NV53gk9JGrlbznuE0auGejceSCS2scep5hVCSunrBxiobaxa_iPdqa2uzgQvt3ypuyadG_6d-3g_E9qrBySv4zZQGixwLJ-L5t_AMaOV1a8MLEGQNdJ4sNGEpeyVDNRF_2PED-w61xBsrMPGTZEcrBhbZPq-ncRavJ1KevuulwAFFI1PzwIVnpSChK19AXad7avN2xXflLRidXpPA9SloBErcfUp7meAhkknPBCrqkbhCoJcyB4C_j2vcfrd0ofyVAUqzpjt5abG4Vd2iOExk-Wj5KakMjYWrhFfFn_kFyLY5CbAvLsgZTKlm40]--></g></svg>