<svg xmlns="http://www.w3.org/2000/svg" xmlns:xlink="http://www.w3.org/1999/xlink" contentStyleType="text/css" height="1026px" preserveAspectRatio="none" style="width:765px;height:1026px;background:#FFFFFF;" version="1.1" viewBox="0 0 765 1026" width="765px" zoomAndPan="magnify"><title>Qualifications - Exp&#233;riences, Formations &amp; Certifications</title><defs/><g><text fill="#000000" font-family="sans-serif" font-size="14" font-weight="bold" lengthAdjust="spacing" textLength="378.8682" x="186.4224" y="24.5332">Qualifications - Exp&#233;riences, Formations &amp; Certifications</text><!--cluster Qualifications--><g id="cluster_Qualifications"><rect fill="none" height="527" rx="2.5" ry="2.5" style="stroke:#000000;stroke-width:1.5;" width="542" x="7" y="219.6094"/><text fill="#000000" font-family="sans-serif" font-size="14" font-weight="bold" lengthAdjust="spacing" textLength="92.5723" x="231.7139" y="236.1426">Qualifications</text></g><!--class Experience--><g id="elem_Experience"><rect codeLine="11" fill="#F1F1F1" height="180.875" id="Experience" rx="2.5" ry="2.5" style="stroke:#181818;stroke-width:0.5;" width="136.9199" x="23.5" y="255.6094"/><ellipse cx="54.1955" cy="271.6094" fill="#ADD1B2" rx="11" ry="11" style="stroke:#181818;stroke-width:1;"/><path d="M56.9611,267.4844 Q57.1174,267.2656 57.3049,267.1563 Q57.4924,267.0469 57.7111,267.0469 Q58.0861,267.0469 58.3205,267.3125 Q58.5549,267.5625 58.5549,268.1719 L58.5549,269.625 Q58.5549,270.2344 58.3205,270.5 Q58.0861,270.7656 57.7111,270.7656 Q57.3674,270.7656 57.1643,270.5625 Q56.9611,270.375 56.8518,269.8594 Q56.8049,269.5 56.6174,269.3125 Q56.2893,268.9375 55.6799,268.7188 Q55.0705,268.5 54.4455,268.5 Q53.6799,268.5 53.0393,268.8281 Q52.4143,269.1563 51.9143,269.9063 Q51.4299,270.6563 51.4299,271.6875 L51.4299,272.7813 Q51.4299,274.0156 52.3205,274.8438 Q53.2111,275.6563 54.8049,275.6563 Q55.7424,275.6563 56.3986,275.4063 Q56.7893,275.25 57.2111,274.8125 Q57.4768,274.5469 57.6174,274.4688 Q57.7736,274.3906 57.9768,274.3906 Q58.3049,274.3906 58.5549,274.6563 Q58.8205,274.9063 58.8205,275.25 Q58.8205,275.5938 58.4768,276 Q57.9768,276.5781 57.1799,276.9063 Q56.1018,277.3594 54.8049,277.3594 Q53.2893,277.3594 52.0861,276.7344 Q51.1018,276.2344 50.4143,275.1719 Q49.7268,274.0938 49.7268,272.8125 L49.7268,271.6563 Q49.7268,270.3281 50.3361,269.1875 Q50.9611,268.0313 52.0549,267.4219 Q53.1486,266.7969 54.383,266.7969 Q55.1174,266.7969 55.758,266.9688 Q56.4143,267.125 56.9611,267.4844 Z " fill="#000000"/><text fill="#000000" font-family="sans-serif" font-size="14" lengthAdjust="spacing" textLength="70.041" x="71.6834" y="277.3379">Experience</text><line style="stroke:#181818;stroke-width:0.5;" x1="24.5" x2="159.4199" y1="287.6094" y2="287.6094"/><text fill="#000000" font-family="sans-serif" font-size="14" lengthAdjust="spacing" textLength="75.8652" x="29.5" y="306.1426">+titre: String</text><text fill="#000000" font-family="sans-serif" font-size="14" lengthAdjust="spacing" textLength="114.7822" x="29.5" y="323.752">+entreprise: String</text><text fill="#000000" font-family="sans-serif" font-size="14" lengthAdjust="spacing" textLength="110.8857" x="29.5" y="341.3613">+description: Text</text><text fill="#000000" font-family="sans-serif" font-size="14" lengthAdjust="spacing" textLength="110.1338" x="29.5" y="358.9707">+dateDebut: Date</text><text fill="#000000" font-family="sans-serif" font-size="14" lengthAdjust="spacing" textLength="92.2236" x="29.5" y="376.5801">+dateFin: Date</text><text fill="#000000" font-family="sans-serif" font-size="14" lengthAdjust="spacing" textLength="124.9199" x="29.5" y="394.1895">+estActuel: Boolean</text><text fill="#000000" font-family="sans-serif" font-size="14" lengthAdjust="spacing" textLength="74.3203" x="29.5" y="411.7988">+lieu: String</text><text fill="#000000" font-family="sans-serif" font-size="14" lengthAdjust="spacing" textLength="92.2236" x="29.5" y="429.4082">+ordre: Integer</text></g><!--class Formation--><g id="elem_Formation"><rect codeLine="24" fill="#F1F1F1" height="163.2656" id="Formation" rx="2.5" ry="2.5" style="stroke:#181818;stroke-width:0.5;" width="154.8164" x="195.5" y="264.6094"/><ellipse cx="237.4082" cy="280.6094" fill="#ADD1B2" rx="11" ry="11" style="stroke:#181818;stroke-width:1;"/><path d="M240.1738,276.4844 Q240.33,276.2656 240.5175,276.1563 Q240.705,276.0469 240.9238,276.0469 Q241.2988,276.0469 241.5332,276.3125 Q241.7675,276.5625 241.7675,277.1719 L241.7675,278.625 Q241.7675,279.2344 241.5332,279.5 Q241.2988,279.7656 240.9238,279.7656 Q240.58,279.7656 240.3769,279.5625 Q240.1738,279.375 240.0644,278.8594 Q240.0175,278.5 239.83,278.3125 Q239.5019,277.9375 238.8925,277.7188 Q238.2832,277.5 237.6582,277.5 Q236.8925,277.5 236.2519,277.8281 Q235.6269,278.1563 235.1269,278.9063 Q234.6425,279.6563 234.6425,280.6875 L234.6425,281.7813 Q234.6425,283.0156 235.5332,283.8438 Q236.4238,284.6563 238.0175,284.6563 Q238.955,284.6563 239.6113,284.4063 Q240.0019,284.25 240.4238,283.8125 Q240.6894,283.5469 240.83,283.4688 Q240.9863,283.3906 241.1894,283.3906 Q241.5175,283.3906 241.7675,283.6563 Q242.0332,283.9063 242.0332,284.25 Q242.0332,284.5938 241.6894,285 Q241.1894,285.5781 240.3925,285.9063 Q239.3144,286.3594 238.0175,286.3594 Q236.5019,286.3594 235.2988,285.7344 Q234.3144,285.2344 233.6269,284.1719 Q232.9394,283.0938 232.9394,281.8125 L232.9394,280.6563 Q232.9394,279.3281 233.5488,278.1875 Q234.1738,277.0313 235.2675,276.4219 Q236.3613,275.7969 237.5957,275.7969 Q238.33,275.7969 238.9707,275.9688 Q239.6269,276.125 240.1738,276.4844 Z " fill="#000000"/><text fill="#000000" font-family="sans-serif" font-size="14" lengthAdjust="spacing" textLength="63.0205" x="257.3877" y="286.3379">Formation</text><line style="stroke:#181818;stroke-width:0.5;" x1="196.5" x2="349.3164" y1="296.6094" y2="296.6094"/><text fill="#000000" font-family="sans-serif" font-size="14" lengthAdjust="spacing" textLength="101.5547" x="201.5" y="315.1426">+diplome: String</text><text fill="#000000" font-family="sans-serif" font-size="14" lengthAdjust="spacing" textLength="138.9063" x="201.5" y="332.752">+etablissement: String</text><text fill="#000000" font-family="sans-serif" font-size="14" lengthAdjust="spacing" textLength="110.8857" x="201.5" y="350.3613">+description: Text</text><text fill="#000000" font-family="sans-serif" font-size="14" lengthAdjust="spacing" textLength="142.8164" x="201.5" y="367.9707">+domaineEtude: String</text><text fill="#000000" font-family="sans-serif" font-size="14" lengthAdjust="spacing" textLength="110.1338" x="201.5" y="385.5801">+dateDebut: Date</text><text fill="#000000" font-family="sans-serif" font-size="14" lengthAdjust="spacing" textLength="92.2236" x="201.5" y="403.1895">+dateFin: Date</text><text fill="#000000" font-family="sans-serif" font-size="14" lengthAdjust="spacing" textLength="92.2236" x="201.5" y="420.7988">+ordre: Integer</text></g><!--class Certification--><g id="elem_Certification"><rect codeLine="36" fill="#F1F1F1" height="163.2656" id="Certification" rx="2.5" ry="2.5" style="stroke:#181818;stroke-width:0.5;" width="147.0303" x="385.5" y="264.6094"/><ellipse cx="419.001" cy="280.6094" fill="#ADD1B2" rx="11" ry="11" style="stroke:#181818;stroke-width:1;"/><path d="M421.7666,276.4844 Q421.9229,276.2656 422.1104,276.1563 Q422.2979,276.0469 422.5166,276.0469 Q422.8916,276.0469 423.126,276.3125 Q423.3604,276.5625 423.3604,277.1719 L423.3604,278.625 Q423.3604,279.2344 423.126,279.5 Q422.8916,279.7656 422.5166,279.7656 Q422.1729,279.7656 421.9697,279.5625 Q421.7666,279.375 421.6572,278.8594 Q421.6104,278.5 421.4229,278.3125 Q421.0947,277.9375 420.4854,277.7188 Q419.876,277.5 419.251,277.5 Q418.4854,277.5 417.8447,277.8281 Q417.2197,278.1563 416.7197,278.9063 Q416.2354,279.6563 416.2354,280.6875 L416.2354,281.7813 Q416.2354,283.0156 417.126,283.8438 Q418.0166,284.6563 419.6104,284.6563 Q420.5479,284.6563 421.2041,284.4063 Q421.5947,284.25 422.0166,283.8125 Q422.2822,283.5469 422.4229,283.4688 Q422.5791,283.3906 422.7822,283.3906 Q423.1104,283.3906 423.3604,283.6563 Q423.626,283.9063 423.626,284.25 Q423.626,284.5938 423.2822,285 Q422.7822,285.5781 421.9854,285.9063 Q420.9072,286.3594 419.6104,286.3594 Q418.0947,286.3594 416.8916,285.7344 Q415.9072,285.2344 415.2197,284.1719 Q414.5322,283.0938 414.5322,281.8125 L414.5322,280.6563 Q414.5322,279.3281 415.1416,278.1875 Q415.7666,277.0313 416.8604,276.4219 Q417.9541,275.7969 419.1885,275.7969 Q419.9229,275.7969 420.5635,275.9688 Q421.2197,276.125 421.7666,276.4844 Z " fill="#000000"/><text fill="#000000" font-family="sans-serif" font-size="14" lengthAdjust="spacing" textLength="73.917" x="437.1123" y="286.3379">Certification</text><line style="stroke:#181818;stroke-width:0.5;" x1="386.5" x2="531.5303" y1="296.6094" y2="296.6094"/><text fill="#000000" font-family="sans-serif" font-size="14" lengthAdjust="spacing" textLength="75.8652" x="391.5" y="315.1426">+titre: String</text><text fill="#000000" font-family="sans-serif" font-size="14" lengthAdjust="spacing" textLength="117.8926" x="391.5" y="332.752">+organisme: String</text><text fill="#000000" font-family="sans-serif" font-size="14" lengthAdjust="spacing" textLength="110.8857" x="391.5" y="350.3613">+description: Text</text><text fill="#000000" font-family="sans-serif" font-size="14" lengthAdjust="spacing" textLength="133.4854" x="391.5" y="367.9707">+dateObtention: Date</text><text fill="#000000" font-family="sans-serif" font-size="14" lengthAdjust="spacing" textLength="135.0303" x="391.5" y="385.5801">+dateExpiration: Date</text><text fill="#000000" font-family="sans-serif" font-size="14" lengthAdjust="spacing" textLength="131.8994" x="391.5" y="403.1895">+urlCredential: String</text><text fill="#000000" font-family="sans-serif" font-size="14" lengthAdjust="spacing" textLength="92.2236" x="391.5" y="420.7988">+ordre: Integer</text></g><!--class Media--><g id="elem_Media"><rect codeLine="48" fill="#F1F1F1" height="216.0938" id="Media" rx="2.5" ry="2.5" style="stroke:#181818;stroke-width:0.5;" width="151.6992" x="109" y="514.6094"/><ellipse cx="161.5342" cy="530.6094" fill="#ADD1B2" rx="11" ry="11" style="stroke:#181818;stroke-width:1;"/><path d="M164.2998,526.4844 Q164.4561,526.2656 164.6436,526.1563 Q164.8311,526.0469 165.0498,526.0469 Q165.4248,526.0469 165.6592,526.3125 Q165.8936,526.5625 165.8936,527.1719 L165.8936,528.625 Q165.8936,529.2344 165.6592,529.5 Q165.4248,529.7656 165.0498,529.7656 Q164.7061,529.7656 164.5029,529.5625 Q164.2998,529.375 164.1904,528.8594 Q164.1436,528.5 163.9561,528.3125 Q163.6279,527.9375 163.0186,527.7188 Q162.4092,527.5 161.7842,527.5 Q161.0186,527.5 160.3779,527.8281 Q159.7529,528.1563 159.2529,528.9063 Q158.7686,529.6563 158.7686,530.6875 L158.7686,531.7813 Q158.7686,533.0156 159.6592,533.8438 Q160.5498,534.6563 162.1436,534.6563 Q163.0811,534.6563 163.7373,534.4063 Q164.1279,534.25 164.5498,533.8125 Q164.8154,533.5469 164.9561,533.4688 Q165.1123,533.3906 165.3154,533.3906 Q165.6436,533.3906 165.8936,533.6563 Q166.1592,533.9063 166.1592,534.25 Q166.1592,534.5938 165.8154,535 Q165.3154,535.5781 164.5186,535.9063 Q163.4404,536.3594 162.1436,536.3594 Q160.6279,536.3594 159.4248,535.7344 Q158.4404,535.2344 157.7529,534.1719 Q157.0654,533.0938 157.0654,531.8125 L157.0654,530.6563 Q157.0654,529.3281 157.6748,528.1875 Q158.2998,527.0313 159.3936,526.4219 Q160.4873,525.7969 161.7217,525.7969 Q162.4561,525.7969 163.0967,525.9688 Q163.7529,526.125 164.2998,526.4844 Z " fill="#000000"/><text fill="#000000" font-family="sans-serif" font-size="14" lengthAdjust="spacing" textLength="38.1309" x="182.0342" y="536.3379">Media</text><line style="stroke:#181818;stroke-width:0.5;" x1="110" x2="259.6992" y1="546.6094" y2="546.6094"/><text fill="#000000" font-family="sans-serif" font-size="14" lengthAdjust="spacing" textLength="111.6719" x="115" y="565.1426">+type: TypeMedia</text><text fill="#000000" font-family="sans-serif" font-size="14" lengthAdjust="spacing" textLength="139.665" x="115" y="582.752">+cheminFichier: String</text><text fill="#000000" font-family="sans-serif" font-size="14" lengthAdjust="spacing" textLength="116.334" x="115" y="600.3613">+urlExterne: String</text><text fill="#000000" font-family="sans-serif" font-size="14" lengthAdjust="spacing" textLength="101.5615" x="115" y="617.9707">+vignette: String</text><text fill="#000000" font-family="sans-serif" font-size="14" lengthAdjust="spacing" textLength="75.8652" x="115" y="635.5801">+titre: String</text><text fill="#000000" font-family="sans-serif" font-size="14" lengthAdjust="spacing" textLength="88.334" x="115" y="653.1895">+taille: Integer</text><text fill="#000000" font-family="sans-serif" font-size="14" lengthAdjust="spacing" textLength="103.1201" x="115" y="670.7988">+largeur: Integer</text><text fill="#000000" font-family="sans-serif" font-size="14" lengthAdjust="spacing" textLength="107.0234" x="115" y="688.4082">+hauteur: Integer</text><text fill="#000000" font-family="sans-serif" font-size="14" lengthAdjust="spacing" textLength="139.6992" x="115" y="706.0176">+estPrincipal: Boolean</text><text fill="#000000" font-family="sans-serif" font-size="14" lengthAdjust="spacing" textLength="92.2236" x="115" y="723.627">+ordre: Integer</text></g><!--class Niveau--><g id="elem_Niveau"><rect codeLine="2" fill="#F1F1F1" height="110.4375" id="Niveau" rx="2.5" ry="2.5" style="stroke:#181818;stroke-width:0.5;" width="93.7031" x="92" y="45.6094"/><ellipse cx="115.1558" cy="61.6094" fill="#EB937F" rx="11" ry="11" style="stroke:#181818;stroke-width:1;"/><path d="M114.0152,62.4063 L114.0152,64.9063 L118.3433,64.9063 L118.3433,63.9844 Q118.3433,63.375 118.5777,63.1094 Q118.8277,62.8438 119.2027,62.8438 Q119.5777,62.8438 119.8121,63.1094 Q120.0464,63.375 120.0464,63.9844 L120.0464,66.6094 L112.0464,66.6094 Q111.4214,66.6094 111.1558,66.375 Q110.9058,66.1406 110.9058,65.75 Q110.9058,65.375 111.1714,65.1406 Q111.4371,64.9063 112.0464,64.9063 L112.3121,64.9063 L112.3121,58.25 L112.0464,58.25 Q111.4214,58.25 111.1558,58.0156 Q110.9058,57.7813 110.9058,57.3906 Q110.9058,57.0156 111.1558,56.7813 Q111.4214,56.5469 112.0464,56.5469 L119.6714,56.5469 L119.6714,59.1406 Q119.6714,59.75 119.4371,60.0156 Q119.2183,60.2656 118.8277,60.2656 Q118.4527,60.2656 118.2183,60.0156 Q117.9839,59.75 117.9839,59.1406 L117.9839,58.25 L114.0152,58.25 L114.0152,60.7031 L115.4996,60.7031 Q115.4996,60.0469 115.6246,59.8594 Q115.8902,59.4531 116.3589,59.4531 Q116.7339,59.4531 116.9683,59.7188 Q117.2027,59.9688 117.2027,60.5781 L117.2027,62.5469 Q117.2027,63.0938 117.0777,63.2813 Q116.8121,63.6719 116.3589,63.6719 Q115.8902,63.6719 115.6246,63.2656 Q115.4996,63.0781 115.4996,62.4063 L114.0152,62.4063 Z " fill="#000000"/><text fill="#000000" font-family="sans-serif" font-size="14" lengthAdjust="spacing" textLength="43.5791" x="130.9682" y="67.3379">Niveau</text><line style="stroke:#181818;stroke-width:0.5;" x1="93" x2="184.7031" y1="77.6094" y2="77.6094"/><text fill="#000000" font-family="sans-serif" font-size="14" lengthAdjust="spacing" textLength="56.8203" x="98" y="96.1426">D&#233;butant</text><text fill="#000000" font-family="sans-serif" font-size="14" lengthAdjust="spacing" textLength="81.7031" x="98" y="113.752">Interm&#233;diaire</text><text fill="#000000" font-family="sans-serif" font-size="14" lengthAdjust="spacing" textLength="46.6963" x="98" y="131.3613">Avanc&#233;</text><text fill="#000000" font-family="sans-serif" font-size="14" lengthAdjust="spacing" textLength="40.4619" x="98" y="148.9707">Expert</text></g><!--class TypeMedia--><g id="elem_TypeMedia"><rect codeLine="9" fill="#F1F1F1" height="128.0469" id="TypeMedia" rx="2.5" ry="2.5" style="stroke:#181818;stroke-width:0.5;" width="101.2549" x="134.5" y="793.6094"/><ellipse cx="149.5" cy="809.6094" fill="#EB937F" rx="11" ry="11" style="stroke:#181818;stroke-width:1;"/><path d="M148.3594,810.4063 L148.3594,812.9063 L152.6875,812.9063 L152.6875,811.9844 Q152.6875,811.375 152.9219,811.1094 Q153.1719,810.8438 153.5469,810.8438 Q153.9219,810.8438 154.1563,811.1094 Q154.3906,811.375 154.3906,811.9844 L154.3906,814.6094 L146.3906,814.6094 Q145.7656,814.6094 145.5,814.375 Q145.25,814.1406 145.25,813.75 Q145.25,813.375 145.5156,813.1406 Q145.7813,812.9063 146.3906,812.9063 L146.6563,812.9063 L146.6563,806.25 L146.3906,806.25 Q145.7656,806.25 145.5,806.0156 Q145.25,805.7813 145.25,805.3906 Q145.25,805.0156 145.5,804.7813 Q145.7656,804.5469 146.3906,804.5469 L154.0156,804.5469 L154.0156,807.1406 Q154.0156,807.75 153.7813,808.0156 Q153.5625,808.2656 153.1719,808.2656 Q152.7969,808.2656 152.5625,808.0156 Q152.3281,807.75 152.3281,807.1406 L152.3281,806.25 L148.3594,806.25 L148.3594,808.7031 L149.8438,808.7031 Q149.8438,808.0469 149.9688,807.8594 Q150.2344,807.4531 150.7031,807.4531 Q151.0781,807.4531 151.3125,807.7188 Q151.5469,807.9688 151.5469,808.5781 L151.5469,810.5469 Q151.5469,811.0938 151.4219,811.2813 Q151.1563,811.6719 150.7031,811.6719 Q150.2344,811.6719 149.9688,811.2656 Q149.8438,811.0781 149.8438,810.4063 L148.3594,810.4063 Z " fill="#000000"/><text fill="#000000" font-family="sans-serif" font-size="14" lengthAdjust="spacing" textLength="69.2549" x="163.5" y="815.3379">TypeMedia</text><line style="stroke:#181818;stroke-width:0.5;" x1="135.5" x2="234.7549" y1="825.6094" y2="825.6094"/><text fill="#000000" font-family="sans-serif" font-size="14" lengthAdjust="spacing" textLength="38.9102" x="140.5" y="844.1426">Image</text><text fill="#000000" font-family="sans-serif" font-size="14" lengthAdjust="spacing" textLength="35.8066" x="140.5" y="861.752">Vid&#233;o</text><text fill="#000000" font-family="sans-serif" font-size="14" lengthAdjust="spacing" textLength="63.8066" x="140.5" y="879.3613">Document</text><text fill="#000000" font-family="sans-serif" font-size="14" lengthAdjust="spacing" textLength="26.4688" x="140.5" y="896.9707">Lien</text><text fill="#000000" font-family="sans-serif" font-size="14" lengthAdjust="spacing" textLength="52.1582" x="140.5" y="914.5801">Youtube</text></g><!--class TypeRessource--><g id="elem_TypeRessource"><rect codeLine="17" fill="#F1F1F1" height="110.4375" id="TypeRessource" rx="2.5" ry="2.5" style="stroke:#181818;stroke-width:0.5;" width="130.041" x="360" y="45.6094"/><ellipse cx="375" cy="61.6094" fill="#EB937F" rx="11" ry="11" style="stroke:#181818;stroke-width:1;"/><path d="M373.8594,62.4063 L373.8594,64.9063 L378.1875,64.9063 L378.1875,63.9844 Q378.1875,63.375 378.4219,63.1094 Q378.6719,62.8438 379.0469,62.8438 Q379.4219,62.8438 379.6563,63.1094 Q379.8906,63.375 379.8906,63.9844 L379.8906,66.6094 L371.8906,66.6094 Q371.2656,66.6094 371,66.375 Q370.75,66.1406 370.75,65.75 Q370.75,65.375 371.0156,65.1406 Q371.2813,64.9063 371.8906,64.9063 L372.1563,64.9063 L372.1563,58.25 L371.8906,58.25 Q371.2656,58.25 371,58.0156 Q370.75,57.7813 370.75,57.3906 Q370.75,57.0156 371,56.7813 Q371.2656,56.5469 371.8906,56.5469 L379.5156,56.5469 L379.5156,59.1406 Q379.5156,59.75 379.2813,60.0156 Q379.0625,60.2656 378.6719,60.2656 Q378.2969,60.2656 378.0625,60.0156 Q377.8281,59.75 377.8281,59.1406 L377.8281,58.25 L373.8594,58.25 L373.8594,60.7031 L375.3438,60.7031 Q375.3438,60.0469 375.4688,59.8594 Q375.7344,59.4531 376.2031,59.4531 Q376.5781,59.4531 376.8125,59.7188 Q377.0469,59.9688 377.0469,60.5781 L377.0469,62.5469 Q377.0469,63.0938 376.9219,63.2813 Q376.6563,63.6719 376.2031,63.6719 Q375.7344,63.6719 375.4688,63.2656 Q375.3438,63.0781 375.3438,62.4063 L373.8594,62.4063 Z " fill="#000000"/><text fill="#000000" font-family="sans-serif" font-size="14" lengthAdjust="spacing" textLength="98.041" x="389" y="67.3379">TypeRessource</text><line style="stroke:#181818;stroke-width:0.5;" x1="361" x2="489.041" y1="77.6094" y2="77.6094"/><text fill="#000000" font-family="sans-serif" font-size="14" lengthAdjust="spacing" textLength="63.8066" x="366" y="96.1426">Document</text><text fill="#000000" font-family="sans-serif" font-size="14" lengthAdjust="spacing" textLength="38.9102" x="366" y="113.752">Image</text><text fill="#000000" font-family="sans-serif" font-size="14" lengthAdjust="spacing" textLength="46.6826" x="366" y="131.3613">Archive</text><text fill="#000000" font-family="sans-serif" font-size="14" lengthAdjust="spacing" textLength="26.4688" x="366" y="148.9707">Lien</text></g><!--class Timestamps--><g id="elem_Timestamps"><rect codeLine="25" fill="#F1F1F1" height="75.2188" id="Timestamps" rx="2.5" ry="2.5" style="stroke:#181818;stroke-width:0.5;" width="168.8027" x="310.5" y="820.1094"/><ellipse cx="352.7558" cy="836.1094" fill="#A9DCDF" rx="11" ry="11" style="stroke:#181818;stroke-width:1;"/><path d="M354.9433,837.875 L350.8026,837.875 L350.3808,838.9063 L350.8026,838.9063 Q351.412,838.9063 351.6776,839.1406 Q351.9433,839.375 351.9433,839.7656 Q351.9433,840.1406 351.6776,840.375 Q351.412,840.6094 350.8026,840.6094 L348.5058,840.6094 Q347.8964,840.6094 347.6464,840.375 Q347.3808,840.1406 347.3808,839.75 Q347.3808,839.375 347.662,839.1406 Q347.9276,838.8906 348.5526,838.9063 L351.2245,832.25 L350.1151,832.25 Q349.5058,832.25 349.2401,832.0156 Q348.9745,831.7813 348.9745,831.3906 Q348.9745,831.0156 349.2401,830.7813 Q349.5058,830.5469 350.1151,830.5469 L353.787,830.5469 L357.1776,838.9063 Q357.7714,838.9063 357.9589,839.0469 Q358.3495,839.3125 358.3495,839.7656 Q358.3495,840.1406 358.0839,840.375 Q357.8339,840.6094 357.2245,840.6094 L354.9276,840.6094 Q354.3183,840.6094 354.0526,840.375 Q353.787,840.1406 353.787,839.75 Q353.787,839.375 354.0526,839.1406 Q354.3183,838.9063 354.9276,838.9063 L355.3495,838.9063 L354.9433,837.875 Z M354.2245,836.1719 L352.8651,832.7969 L351.4901,836.1719 L354.2245,836.1719 Z " fill="#000000"/><text fill="#000000" font-family="sans-serif" font-size="14" font-style="italic" lengthAdjust="spacing" textLength="76.2344" x="372.8126" y="841.8379">Timestamps</text><line style="stroke:#181818;stroke-width:0.5;" x1="311.5" x2="478.3027" y1="852.1094" y2="852.1094"/><text fill="#000000" font-family="sans-serif" font-size="14" lengthAdjust="spacing" textLength="156.8027" x="316.5" y="870.6426">+dateCreation: DateTime</text><text fill="#000000" font-family="sans-serif" font-size="14" lengthAdjust="spacing" textLength="138.1201" x="316.5" y="888.252">+dateModif: DateTime</text></g><!--class SoftDeletes--><g id="elem_SoftDeletes"><rect codeLine="30" fill="#F1F1F1" height="57.6094" id="SoftDeletes" rx="2.5" ry="2.5" style="stroke:#181818;stroke-width:0.5;" width="193.7129" x="565" y="593.6094"/><ellipse cx="621.4204" cy="609.6094" fill="#A9DCDF" rx="11" ry="11" style="stroke:#181818;stroke-width:1;"/><path d="M623.6079,611.375 L619.4673,611.375 L619.0454,612.4063 L619.4673,612.4063 Q620.0767,612.4063 620.3423,612.6406 Q620.6079,612.875 620.6079,613.2656 Q620.6079,613.6406 620.3423,613.875 Q620.0767,614.1094 619.4673,614.1094 L617.1704,614.1094 Q616.561,614.1094 616.311,613.875 Q616.0454,613.6406 616.0454,613.25 Q616.0454,612.875 616.3267,612.6406 Q616.5923,612.3906 617.2173,612.4063 L619.8892,605.75 L618.7798,605.75 Q618.1704,605.75 617.9048,605.5156 Q617.6392,605.2813 617.6392,604.8906 Q617.6392,604.5156 617.9048,604.2813 Q618.1704,604.0469 618.7798,604.0469 L622.4517,604.0469 L625.8423,612.4063 Q626.436,612.4063 626.6235,612.5469 Q627.0142,612.8125 627.0142,613.2656 Q627.0142,613.6406 626.7485,613.875 Q626.4985,614.1094 625.8892,614.1094 L623.5923,614.1094 Q622.9829,614.1094 622.7173,613.875 Q622.4517,613.6406 622.4517,613.25 Q622.4517,612.875 622.7173,612.6406 Q622.9829,612.4063 623.5923,612.4063 L624.0142,612.4063 L623.6079,611.375 Z M622.8892,609.6719 L621.5298,606.2969 L620.1548,609.6719 L622.8892,609.6719 Z " fill="#000000"/><text fill="#000000" font-family="sans-serif" font-size="14" font-style="italic" lengthAdjust="spacing" textLength="72.3721" x="641.9204" y="615.3379">SoftDeletes</text><line style="stroke:#181818;stroke-width:0.5;" x1="566" x2="757.7129" y1="625.6094" y2="625.6094"/><text fill="#000000" font-family="sans-serif" font-size="14" lengthAdjust="spacing" textLength="181.7129" x="571" y="644.1426">+dateSuppression: DateTime</text></g><!--class Proprietaire--><g id="elem_Proprietaire"><rect fill="#F1F1F1" height="32" id="Proprietaire" rx="2.5" ry="2.5" style="stroke:#181818;stroke-width:0.5;" width="104.3652" x="221" y="84.6094"/><ellipse cx="236" cy="100.6094" fill="#ADD1B2" rx="11" ry="11" style="stroke:#181818;stroke-width:1;"/><path d="M238.7656,96.4844 Q238.9219,96.2656 239.1094,96.1563 Q239.2969,96.0469 239.5156,96.0469 Q239.8906,96.0469 240.125,96.3125 Q240.3594,96.5625 240.3594,97.1719 L240.3594,98.625 Q240.3594,99.2344 240.125,99.5 Q239.8906,99.7656 239.5156,99.7656 Q239.1719,99.7656 238.9688,99.5625 Q238.7656,99.375 238.6563,98.8594 Q238.6094,98.5 238.4219,98.3125 Q238.0938,97.9375 237.4844,97.7188 Q236.875,97.5 236.25,97.5 Q235.4844,97.5 234.8438,97.8281 Q234.2188,98.1563 233.7188,98.9063 Q233.2344,99.6563 233.2344,100.6875 L233.2344,101.7813 Q233.2344,103.0156 234.125,103.8438 Q235.0156,104.6563 236.6094,104.6563 Q237.5469,104.6563 238.2031,104.4063 Q238.5938,104.25 239.0156,103.8125 Q239.2813,103.5469 239.4219,103.4688 Q239.5781,103.3906 239.7813,103.3906 Q240.1094,103.3906 240.3594,103.6563 Q240.625,103.9063 240.625,104.25 Q240.625,104.5938 240.2813,105 Q239.7813,105.5781 238.9844,105.9063 Q237.9063,106.3594 236.6094,106.3594 Q235.0938,106.3594 233.8906,105.7344 Q232.9063,105.2344 232.2188,104.1719 Q231.5313,103.0938 231.5313,101.8125 L231.5313,100.6563 Q231.5313,99.3281 232.1406,98.1875 Q232.7656,97.0313 233.8594,96.4219 Q234.9531,95.7969 236.1875,95.7969 Q236.9219,95.7969 237.5625,95.9688 Q238.2188,96.125 238.7656,96.4844 Z " fill="#000000"/><text fill="#000000" font-family="sans-serif" font-size="14" lengthAdjust="spacing" textLength="72.3652" x="250" y="106.3379">Proprietaire</text></g><!--link SoftDeletes to Timestamps--><g id="link_SoftDeletes_Timestamps"><path codeLine="34" d="M641.46,651.6594 C620.19,679.6194 585.07,722.8494 549,754.6094 C521.32,778.9794 502.7223,792.5288 473.7823,810.5388 " fill="none" id="SoftDeletes-to-Timestamps" style="stroke:#181818;stroke-width:1;"/><polygon fill="none" points="458.5,820.0494,476.9525,815.633,470.6122,805.4447,458.5,820.0494" style="stroke:#181818;stroke-width:1;"/></g><!--link Experience to Timestamps--><g id="link_Experience_Timestamps"><path codeLine="22" d="M160.57,424.8794 C166.19,429.1994 172.02,433.1794 178,436.6094 C227.17,464.8494 262.89,425.5494 302,466.6094 C391.88,560.9694 321.91,629.1094 357,754.6094 C363.16,776.6294 365.3492,783.8852 372.9492,803.0652 " fill="none" id="Experience-to-Timestamps" style="stroke:#181818;stroke-width:1;"/><polygon fill="none" points="379.58,819.7994,378.5272,800.8549,367.3711,805.2755,379.58,819.7994" style="stroke:#181818;stroke-width:1;"/></g><!--link Formation to Timestamps--><g id="link_Formation_Timestamps"><path codeLine="34" d="M331.84,427.7994 C338.93,440.3294 345.3,453.4794 350,466.6094 C394.32,590.4594 397.6881,731.2418 396.5181,801.8818 " fill="none" id="Formation-to-Timestamps" style="stroke:#181818;stroke-width:1;"/><polygon fill="none" points="396.22,819.8794,402.5173,801.9812,390.5189,801.7825,396.22,819.8794" style="stroke:#181818;stroke-width:1;"/></g><!--link Certification to Timestamps--><g id="link_Certification_Timestamps"><path codeLine="46" d="M455.97,427.9294 C451.81,512.2794 442.23,648.0994 421,763.6094 C417.54,782.4094 417.1776,785.6671 412.0976,802.6171 " fill="none" id="Certification-to-Timestamps" style="stroke:#181818;stroke-width:1;"/><polygon fill="none" points="406.93,819.8594,417.845,804.3396,406.3502,800.8946,406.93,819.8594" style="stroke:#181818;stroke-width:1;"/></g><!--link Media to Timestamps--><g id="link_Media_Timestamps"><path codeLine="61" d="M261.24,721.3594 C273.25,735.7794 285.75,750.2694 298,763.6094 C315.67,782.8594 323.3114,790.7558 341.0914,807.4058 " fill="none" id="Media-to-Timestamps" style="stroke:#181818;stroke-width:1;"/><polygon fill="none" points="354.23,819.7094,345.1926,803.0263,336.9902,811.7853,354.23,819.7094" style="stroke:#181818;stroke-width:1;"/></g><!--link Media to TypeMedia--><g id="link_Media_TypeMedia"><path codeLine="67" d="M185,730.8994 C185,752.2794 185,768.0794 185,787.3794 " fill="none" id="Media-to-TypeMedia" style="stroke:#181818;stroke-width:1;"/><polygon fill="#181818" points="185,793.3794,189,784.3794,185,788.3794,181,784.3794,185,793.3794" style="stroke:#181818;stroke-width:1;"/></g><!--link Proprietaire to Experience--><g id="link_Proprietaire_Experience"><path codeLine="72" d="M256.68,116.8694 C239.78,133.0894 213.07,159.8894 193,185.6094 C176.06,207.3094 159.36,231.9494 144.57,255.2494 " fill="none" id="Proprietaire-Experience" style="stroke:#181818;stroke-width:1;"/><text fill="#000000" font-family="sans-serif" font-size="13" lengthAdjust="spacing" textLength="70.0972" x="194" y="200.1045">experiences</text><text fill="#000000" font-family="sans-serif" font-size="13" lengthAdjust="spacing" textLength="7.23" x="243.3408" y="138.1534">1</text><text fill="#000000" font-family="sans-serif" font-size="13" lengthAdjust="spacing" textLength="19.5127" x="129.0258" y="244.8856">0..*</text></g><!--link Proprietaire to Formation--><g id="link_Proprietaire_Formation"><path codeLine="73" d="M273,116.8394 C273,145.8894 273,211.0594 273,264.3594 " fill="none" id="Proprietaire-Formation" style="stroke:#181818;stroke-width:1;"/><text fill="#000000" font-family="sans-serif" font-size="13" lengthAdjust="spacing" textLength="60.6899" x="274" y="200.1045">formations</text><text fill="#000000" font-family="sans-serif" font-size="13" lengthAdjust="spacing" textLength="7.23" x="264.8628" y="138.1138">1</text><text fill="#000000" font-family="sans-serif" font-size="13" lengthAdjust="spacing" textLength="19.5127" x="253.1849" y="253.865">0..*</text></g><!--link Proprietaire to Certification--><g id="link_Proprietaire_Certification"><path codeLine="74" d="M287.1,116.8094 C306.18,137.6094 340.94,176.3994 368,211.6094 C380.82,228.2894 393.94,246.6494 406.08,264.2794 " fill="none" id="Proprietaire-Certification" style="stroke:#181818;stroke-width:1;"/><text fill="#000000" font-family="sans-serif" font-size="13" lengthAdjust="spacing" textLength="72.249" x="361" y="200.1045">certifications</text><text fill="#000000" font-family="sans-serif" font-size="13" lengthAdjust="spacing" textLength="7.23" x="283.4572" y="138.0743">1</text><text fill="#000000" font-family="sans-serif" font-size="13" lengthAdjust="spacing" textLength="19.5127" x="381.5422" y="253.7778">0..*</text></g><!--link Experience to Media--><g id="link_Experience_Media"><path codeLine="76" d="M104.54,436.7894 C107.85,452.9094 111.96,469.4094 117,484.6094 C120.26,494.4394 124.11,504.4494 128.28,514.3694 " fill="none" id="Experience-Media" style="stroke:#181818;stroke-width:1;"/><text fill="#000000" font-family="sans-serif" font-size="13" lengthAdjust="spacing" textLength="41.9072" x="118" y="481.1045">medias</text><text fill="#000000" font-family="sans-serif" font-size="13" lengthAdjust="spacing" textLength="7.23" x="98.244" y="457.8579">1</text><text fill="#000000" font-family="sans-serif" font-size="13" lengthAdjust="spacing" textLength="19.5127" x="104.6525" y="503.7004">0..*</text></g><!--link Formation to Media--><g id="link_Formation_Media"><path codeLine="77" d="M195.41,423.7594 C185.84,437.0994 177.51,451.5594 172,466.6094 C166.48,481.6994 164.22,498.1494 164.02,514.5094 " fill="none" id="Formation-Media" style="stroke:#181818;stroke-width:1;"/><text fill="#000000" font-family="sans-serif" font-size="13" lengthAdjust="spacing" textLength="41.9072" x="173" y="481.1045">medias</text><text fill="#000000" font-family="sans-serif" font-size="13" lengthAdjust="spacing" textLength="7.23" x="180.0689" y="428.4416">1</text><text fill="#000000" font-family="sans-serif" font-size="13" lengthAdjust="spacing" textLength="19.5127" x="142.9055" y="503.8503">0..*</text></g><!--link Certification to Media--><g id="link_Certification_Media"><path codeLine="78" d="M385.21,421.0294 C346.85,459.4594 300.03,506.3694 261.31,545.1594 " fill="none" id="Certification-Media" style="stroke:#181818;stroke-width:1;"/><text fill="#000000" font-family="sans-serif" font-size="13" lengthAdjust="spacing" textLength="41.9072" x="339" y="481.1045">medias</text><text fill="#000000" font-family="sans-serif" font-size="13" lengthAdjust="spacing" textLength="7.23" x="370.2498" y="425.43">1</text><text fill="#000000" font-family="sans-serif" font-size="13" lengthAdjust="spacing" textLength="19.5127" x="268.7193" y="535.3222">0..*</text></g><rect fill="#DDDDDD" height="66.8281" id="_legend" rx="7.5" ry="7.5" style="stroke:#000000;stroke-width:1;" width="180.8301" x="285.4414" y="939.6563"/><text fill="#000000" font-family="sans-serif" font-size="14" font-weight="bold" lengthAdjust="spacing" textLength="56.7656" x="294.3311" y="961.1895">Notation</text><text fill="#000000" font-family="sans-serif" font-size="14" font-weight="bold" lengthAdjust="spacing" textLength="84" x="367.8926" y="961.1895">Signification</text><text fill="#000000" font-family="sans-serif" font-size="14" lengthAdjust="spacing" textLength="65.7822" x="294.3311" y="978.7988">"1" -- "0..*"</text><text fill="#000000" font-family="sans-serif" font-size="14" lengthAdjust="spacing" textLength="89.4893" x="367.8926" y="978.7988">Un &#224; plusieurs</text><text fill="#000000" font-family="sans-serif" font-size="14" lengthAdjust="spacing" textLength="9.3242" x="294.3311" y="996.4082">--</text><text fill="#000000" font-family="sans-serif" font-size="14" lengthAdjust="spacing" textLength="8.1758" x="364.0029" y="996.4082">&gt;</text><line style="stroke:#000000;stroke-width:1;" x1="290.4414" x2="461.2715" y1="946.6563" y2="946.6563"/><line style="stroke:#000000;stroke-width:1;" x1="290.4414" x2="461.2715" y1="964.2656" y2="964.2656"/><line style="stroke:#000000;stroke-width:1;" x1="290.4414" x2="461.2715" y1="981.875" y2="981.875"/><line style="stroke:#000000;stroke-width:1;" x1="290.4414" x2="461.2715" y1="999.4844" y2="999.4844"/><line style="stroke:#000000;stroke-width:1;" x1="290.4414" x2="290.4414" y1="946.6563" y2="999.4844"/><line style="stroke:#000000;stroke-width:1;" x1="364.0029" x2="364.0029" y1="946.6563" y2="999.4844"/><line style="stroke:#000000;stroke-width:1;" x1="461.2715" x2="461.2715" y1="946.6563" y2="999.4844"/><!--SRC=[fLNDRjD04BxlKmmvW0GaAbTBhLJQH5IYFv3qZ3RhgJFg_bYxOsWXl0jNdgClnZX9uzXfexRu43lV_7upixDCR16-LDhI5HdD57o2FWnlohk_aT0RJEzX5A9RYLx34KPkT9LwHTxOAaVuDjK9-yRgb0O_KgxKZ0H5L_8jE7HJZ4cbQ_AbZjf1gSsrBd3Cjn8_ec7j2uiR2Wj7XyoHfXNZYGb-J3yHzfHQcKAldNOFTEeo-QKKB3tLb739I52GvnqmSSGCnXB35oiClM1bfDGLv9XCfBBscy44R_WUrup7A3bcS2oV6-Y8V0l3n8U6AxGPV0p1elOhWIMiEj52pElKJZnZWL70tpMJ3Gxz_lm09kJ4gNPbQdYkcxMccLDfWziYodfgAILqGlcfN8FJv778qk-koPFBy32r9kr7cRKcRsSJGooqf-IUqyFpAKiX5f8E0QawHRqbgg8zYfZNHje-gNrj0e_oFCMSTCFljXHF4_bTu2lKpD2H7v6P4SPES4biUCCOVPV-ToeyCdVXXoh8cgnjCLWCgeu5Lh4BpxISq6rOY5s8IqEbtXhvXmkqPDujZ8ZUmFwp7p4QdbsUmjVXvyF9oVdP-6LUxdCwsEZ1I_FvprGkOf3D90UNeco_3pt92dfxWy7RtkPco03NVz8kc-R8PN2rNl6xBDe3d87ft0KRMRGDbqNCv1wGTr9Dv9rgxN0xLPMLEV8vJ0DpS39Aytqu2xoqbE-nZ7xZQbuhT1pEuTB3tHyeRPLa7yUqqbfCexm_rHSYr_VENDMHbW7LFm00]--></g></svg>