<svg xmlns="http://www.w3.org/2000/svg" xmlns:xlink="http://www.w3.org/1999/xlink" contentStyleType="text/css" data-diagram-type="DESCRIPTION" height="2258px" preserveAspectRatio="none" style="width:1301px;height:2258px;background:#FFFFFF;" version="1.1" viewBox="0 0 1301 2258" width="1301px" zoomAndPan="magnify"><title>Diagramme de Cas d'Utilisation</title><defs/><g><text fill="#000000" font-family="sans-serif" font-size="14" font-weight="bold" lengthAdjust="spacing" textLength="209.4941" x="538.7529" y="24.5332">Diagramme de Cas d'Utilisation</text><!--cluster Consultation--><g class="cluster" data-entity="Consultation" data-source-line="14" data-uid="ent0007" id="cluster_Consultation"><rect fill="none" height="448" rx="2.5" ry="2.5" style="stroke:#181818;stroke-width:1;" width="991.5" x="303.5" y="1342.6094"/><text fill="#000000" font-family="sans-serif" font-size="14" font-weight="bold" lengthAdjust="spacing" textLength="85.5449" x="756.4775" y="1359.1426">Consultation</text></g><!--cluster Authentification--><g class="cluster" data-entity="Authentification" data-source-line="26" data-uid="ent0017" id="cluster_Authentification"><rect fill="none" height="84" rx="2.5" ry="2.5" style="stroke:#181818;stroke-width:1;" width="168" x="320" y="1814.6094"/><text fill="#000000" font-family="sans-serif" font-size="14" font-weight="bold" lengthAdjust="spacing" textLength="106.5449" x="350.7275" y="1831.1426">Authentification</text></g><!--cluster Gestion du Profil--><g class="cluster" data-entity="Gestion du Profil" data-source-line="30" data-uid="ent0019" id="cluster_Gestion du Profil"><rect fill="none" height="521" rx="2.5" ry="2.5" style="stroke:#181818;stroke-width:1;" width="651" x="273" y="797.6094"/><text fill="#000000" font-family="sans-serif" font-size="14" font-weight="bold" lengthAdjust="spacing" textLength="112.7793" x="542.1104" y="814.1426">Gestion du Profil</text></g><!--cluster Publications--><g class="cluster" data-entity="Publications" data-source-line="40" data-uid="ent0027" id="cluster_Publications"><rect fill="none" height="108" rx="2.5" ry="2.5" style="stroke:#181818;stroke-width:1;" width="525" x="7" y="45.6094"/><text fill="#000000" font-family="sans-serif" font-size="14" font-weight="bold" lengthAdjust="spacing" textLength="83.2344" x="227.8828" y="62.1426">Publications</text></g><!--cluster Projets Portfolio--><g class="cluster" data-entity="Projets Portfolio" data-source-line="45" data-uid="ent0030" id="cluster_Projets Portfolio"><rect fill="none" height="108" rx="2.5" ry="2.5" style="stroke:#181818;stroke-width:1;" width="229" x="289.5" y="309.6094"/><text fill="#000000" font-family="sans-serif" font-size="14" font-weight="bold" lengthAdjust="spacing" textLength="108.8965" x="349.5518" y="326.1426">Projets Portfolio</text></g><!--cluster Planning--><g class="cluster" data-entity="Planning" data-source-line="49" data-uid="ent0032" id="cluster_Planning"><rect fill="none" height="272" rx="2.5" ry="2.5" style="stroke:#181818;stroke-width:1;" width="610" x="280" y="471.6094"/><text fill="#000000" font-family="sans-serif" font-size="14" font-weight="bold" lengthAdjust="spacing" textLength="59.1104" x="555.4448" y="488.1426">Planning</text></g><!--cluster Ressources--><g class="cluster" data-entity="Ressources" data-source-line="56" data-uid="ent0037" id="cluster_Ressources"><rect fill="none" height="108" rx="2.5" ry="2.5" style="stroke:#181818;stroke-width:1;" width="252" x="278" y="177.6094"/><text fill="#000000" font-family="sans-serif" font-size="14" font-weight="bold" lengthAdjust="spacing" textLength="79.3789" x="364.3105" y="194.1426">Ressources</text></g><g class="entity" data-entity="UCV" data-source-line="15" data-uid="ent0008" id="entity_UCV"><ellipse cx="1164.83" cy="1623.5128" fill="#F1F1F1" rx="113.83" ry="27.9034" style="stroke:#181818;stroke-width:0.5;"/><text fill="#000000" font-family="sans-serif" font-size="14" lengthAdjust="spacing" textLength="82.4756" x="1123.5922" y="1618.4366">Visualiser les</text><text fill="#000000" font-family="sans-serif" font-size="14" lengthAdjust="spacing" textLength="144.7373" x="1092.4614" y="1636.046">publications avec filtres</text></g><g class="entity" data-entity="UCC" data-source-line="16" data-uid="ent0009" id="entity_UCC"><ellipse cx="783.6203" cy="1497.5128" fill="#F1F1F1" rx="73.1203" ry="27.9034" style="stroke:#181818;stroke-width:0.5;"/><text fill="#000000" font-family="sans-serif" font-size="14" lengthAdjust="spacing" textLength="87.165" x="740.0378" y="1492.4366">Consulter une</text><text fill="#000000" font-family="sans-serif" font-size="14" lengthAdjust="spacing" textLength="66.9375" x="750.1515" y="1510.046">publication</text></g><g class="entity" data-entity="UCA" data-source-line="17" data-uid="ent0010" id="entity_UCA"><ellipse cx="403.9639" cy="1406.5128" fill="#F1F1F1" rx="82.4639" ry="27.9034" style="stroke:#181818;stroke-width:0.5;"/><text fill="#000000" font-family="sans-serif" font-size="14" lengthAdjust="spacing" textLength="100.3789" x="353.7744" y="1401.4366">Commenter une</text><text fill="#000000" font-family="sans-serif" font-size="14" lengthAdjust="spacing" textLength="66.9375" x="370.4951" y="1419.046">publication</text></g><g class="entity" data-entity="UCL" data-source-line="18" data-uid="ent0011" id="entity_UCL"><ellipse cx="403.8172" cy="1497.5128" fill="#F1F1F1" rx="58.8172" ry="27.9034" style="stroke:#181818;stroke-width:0.5;"/><text fill="#000000" font-family="sans-serif" font-size="14" lengthAdjust="spacing" textLength="57.5928" x="375.0209" y="1492.4366">Liker une</text><text fill="#000000" font-family="sans-serif" font-size="14" lengthAdjust="spacing" textLength="66.9375" x="370.3485" y="1510.046">publication</text></g><g class="entity" data-entity="UCP" data-source-line="19" data-uid="ent0012" id="entity_UCP"><ellipse cx="1164.8084" cy="1739.5128" fill="#F1F1F1" rx="64.3084" ry="27.9034" style="stroke:#181818;stroke-width:0.5;"/><text fill="#000000" font-family="sans-serif" font-size="14" lengthAdjust="spacing" textLength="74.7031" x="1127.4568" y="1734.4366">Consulter le</text><text fill="#000000" font-family="sans-serif" font-size="14" lengthAdjust="spacing" textLength="70.8135" x="1129.4016" y="1752.046">profil public</text></g><g class="entity" data-entity="UCJ" data-source-line="20" data-uid="ent0013" id="entity_UCJ"><ellipse cx="783.7175" cy="1679.5128" fill="#F1F1F1" rx="74.2175" ry="27.9034" style="stroke:#181818;stroke-width:0.5;"/><text fill="#000000" font-family="sans-serif" font-size="14" lengthAdjust="spacing" textLength="79.3789" x="744.0281" y="1674.4366">Consulter un</text><text fill="#000000" font-family="sans-serif" font-size="14" lengthAdjust="spacing" textLength="88.7168" x="739.3591" y="1692.046">projet portfolio</text></g><g class="entity" data-entity="UCJF" data-source-line="21" data-uid="ent0014" id="entity_UCJF"><ellipse cx="404.1487" cy="1588.5128" fill="#F1F1F1" rx="84.6487" ry="27.9034" style="stroke:#181818;stroke-width:0.5;"/><text fill="#000000" font-family="sans-serif" font-size="14" lengthAdjust="spacing" textLength="103.4688" x="352.4144" y="1583.4366">Filtrer les projets</text><text fill="#000000" font-family="sans-serif" font-size="14" lengthAdjust="spacing" textLength="95.7373" x="356.2801" y="1601.046">par technologie</text></g><g class="entity" data-entity="UCJD" data-source-line="22" data-uid="ent0015" id="entity_UCJD"><ellipse cx="403.9679" cy="1679.5128" fill="#F1F1F1" rx="76.9679" ry="27.9034" style="stroke:#181818;stroke-width:0.5;"/><text fill="#000000" font-family="sans-serif" font-size="14" lengthAdjust="spacing" textLength="70.0547" x="368.9406" y="1674.4366">Lancer une</text><text fill="#000000" font-family="sans-serif" font-size="14" lengthAdjust="spacing" textLength="92.6064" x="357.6647" y="1692.046">d&#233;mo en direct</text></g><g class="entity" data-entity="UCO" data-source-line="23" data-uid="ent0016" id="entity_UCO"><ellipse cx="404.2261" cy="1758.5546" fill="#F1F1F1" rx="67.7261" ry="15.9452" style="stroke:#181818;stroke-width:0.5;"/><text fill="#000000" font-family="sans-serif" font-size="14" lengthAdjust="spacing" textLength="80.9238" x="360.7642" y="1763.0712">Me contacter</text></g><g class="entity" data-entity="UCAUTH" data-source-line="27" data-uid="ent0018" id="entity_UCAUTH"><ellipse cx="403.8456" cy="1866.5785" fill="#F1F1F1" rx="67.8456" ry="15.9691" style="stroke:#181818;stroke-width:0.5;"/><text fill="#000000" font-family="sans-serif" font-size="14" lengthAdjust="spacing" textLength="81.2793" x="360.2059" y="1871.0951">S'authentifier</text></g><g class="entity" data-entity="UCMP" data-source-line="31" data-uid="ent0020" id="entity_UCMP"><ellipse cx="783.3047" cy="983.5128" fill="#F1F1F1" rx="124.3047" ry="27.9034" style="stroke:#181818;stroke-width:0.5;"/><text fill="#000000" font-family="sans-serif" font-size="14" lengthAdjust="spacing" textLength="101.1445" x="732.7325" y="978.4366">G&#233;rer mon profil</text><text fill="#000000" font-family="sans-serif" font-size="14" lengthAdjust="spacing" textLength="159.5508" x="703.5293" y="996.046">(bio, photo, coordonn&#233;es)</text></g><g class="entity" data-entity="UCSK" data-source-line="32" data-uid="ent0021" id="entity_UCSK"><ellipse cx="404.1356" cy="1098.8365" fill="#F1F1F1" rx="96.6356" ry="21.7271" style="stroke:#181818;stroke-width:0.5;"/><text fill="#000000" font-family="sans-serif" font-size="14" lengthAdjust="spacing" textLength="153.2822" x="327.4944" y="1102.565">G&#233;rer mes comp&#233;tences</text></g><g class="entity" data-entity="UCDM" data-source-line="33" data-uid="ent0022" id="entity_UCDM"><ellipse cx="404.1477" cy="1183.57" fill="#F1F1F1" rx="104.1477" ry="27.9606" style="stroke:#181818;stroke-width:0.5;"/><text fill="#000000" font-family="sans-serif" font-size="14" lengthAdjust="spacing" textLength="130.7168" x="335.7893" y="1179.2819">G&#233;rer mes domaines</text><text fill="#000000" font-family="sans-serif" font-size="14" lengthAdjust="spacing" textLength="49.3691" x="376.4632" y="1196.8913">d'int&#233;r&#234;t</text></g><g class="entity" data-entity="UCEX" data-source-line="34" data-uid="ent0023" id="entity_UCEX"><ellipse cx="403.8374" cy="861.617" fill="#F1F1F1" rx="114.8374" ry="28.0076" style="stroke:#181818;stroke-width:0.5;"/><text fill="#000000" font-family="sans-serif" font-size="14" lengthAdjust="spacing" textLength="145.5029" x="328.0859" y="857.3289">G&#233;rer mes exp&#233;riences</text><text fill="#000000" font-family="sans-serif" font-size="14" lengthAdjust="spacing" textLength="101.1719" x="350.2515" y="874.9383">professionnelles</text></g><g class="entity" data-entity="UCFO" data-source-line="35" data-uid="ent0024" id="entity_UCFO"><ellipse cx="403.8353" cy="944.7764" fill="#F1F1F1" rx="88.8353" ry="20.1671" style="stroke:#181818;stroke-width:0.5;"/><text fill="#000000" font-family="sans-serif" font-size="14" lengthAdjust="spacing" textLength="135.3721" x="336.1492" y="948.5049">G&#233;rer mes formations</text></g><g class="entity" data-entity="UCCE" data-source-line="36" data-uid="ent0025" id="entity_UCCE"><ellipse cx="404.2343" cy="1020.8562" fill="#F1F1F1" rx="94.2343" ry="21.2469" style="stroke:#181818;stroke-width:0.5;"/><text fill="#000000" font-family="sans-serif" font-size="14" lengthAdjust="spacing" textLength="147.8203" x="330.3241" y="1024.5847">G&#233;rer mes certifications</text></g><g class="entity" data-entity="UCST" data-source-line="37" data-uid="ent0026" id="entity_UCST"><ellipse cx="403.9759" cy="1274.5128" fill="#F1F1F1" rx="98.9759" ry="27.9034" style="stroke:#181818;stroke-width:0.5;"/><text fill="#000000" font-family="sans-serif" font-size="14" lengthAdjust="spacing" textLength="81.7031" x="363.1244" y="1269.4366">Consulter les</text><text fill="#000000" font-family="sans-serif" font-size="14" lengthAdjust="spacing" textLength="123.7305" x="342.1107" y="1287.046">statistiques du profil</text></g><g class="entity" data-entity="UCRP" data-source-line="41" data-uid="ent0028" id="entity_UCRP"><ellipse cx="404.1817" cy="109.5128" fill="#F1F1F1" rx="112.1817" ry="27.9034" style="stroke:#181818;stroke-width:0.5;"/><text fill="#000000" font-family="sans-serif" font-size="14" lengthAdjust="spacing" textLength="104.248" x="352.0577" y="104.4366">Cr&#233;er / Modifier /</text><text fill="#000000" font-family="sans-serif" font-size="14" lengthAdjust="spacing" textLength="142.4063" x="332.9786" y="122.046">Supprimer publications</text></g><g class="entity" data-entity="UCMD" data-source-line="42" data-uid="ent0029" id="entity_UCMD"><ellipse cx="96.652" cy="109.5128" fill="#F1F1F1" rx="73.652" ry="27.9034" style="stroke:#181818;stroke-width:0.5;"/><text fill="#000000" font-family="sans-serif" font-size="14" lengthAdjust="spacing" textLength="73.917" x="59.6935" y="104.4366">Mod&#233;rer les</text><text fill="#000000" font-family="sans-serif" font-size="14" lengthAdjust="spacing" textLength="87.917" x="52.6935" y="122.046">commentaires</text></g><g class="entity" data-entity="UCRJ" data-source-line="46" data-uid="ent0031" id="entity_UCRJ"><ellipse cx="403.9249" cy="373.5128" fill="#F1F1F1" rx="98.4249" ry="27.9034" style="stroke:#181818;stroke-width:0.5;"/><text fill="#000000" font-family="sans-serif" font-size="14" lengthAdjust="spacing" textLength="104.248" x="351.8009" y="368.4366">Cr&#233;er / Modifier /</text><text fill="#000000" font-family="sans-serif" font-size="14" lengthAdjust="spacing" textLength="122.9512" x="342.4493" y="386.046">Supprimer un projet</text></g><g class="entity" data-entity="UCEDT" data-source-line="50" data-uid="ent0033" id="entity_UCEDT"><ellipse cx="783.7129" cy="535.5135" fill="#F1F1F1" rx="90.7129" ry="27.9042" style="stroke:#181818;stroke-width:0.5;"/><text fill="#000000" font-family="sans-serif" font-size="14" lengthAdjust="spacing" textLength="112.041" x="727.2093" y="530.5745">G&#233;rer mon emploi</text><text fill="#000000" font-family="sans-serif" font-size="14" lengthAdjust="spacing" textLength="57.5859" x="754.4369" y="548.1839">du temps</text></g><g class="entity" data-entity="UCCONV" data-source-line="51" data-uid="ent0034" id="entity_UCCONV"><ellipse cx="404.0964" cy="535.5884" fill="#F1F1F1" rx="108.0964" ry="27.9791" style="stroke:#181818;stroke-width:0.5;"/><text fill="#000000" font-family="sans-serif" font-size="14" lengthAdjust="spacing" textLength="136.1787" x="333.007" y="531.3003">Importer un emploi du</text><text fill="#000000" font-family="sans-serif" font-size="14" lengthAdjust="spacing" textLength="88.71" x="356.7414" y="548.9097">temps externe</text></g><g class="entity" data-entity="UCRM" data-source-line="52" data-uid="ent0035" id="entity_UCRM"><ellipse cx="404.1605" cy="708.6415" fill="#F1F1F1" rx="80.6605" ry="18.5321" style="stroke:#181818;stroke-width:0.5;"/><text fill="#000000" font-family="sans-serif" font-size="14" lengthAdjust="spacing" textLength="115.9307" x="345.4958" y="712.5732">G&#233;rer mes rappels</text></g><g class="entity" data-entity="UCNT" data-source-line="53" data-uid="ent0036" id="entity_UCNT"><ellipse cx="403.7581" cy="626.5128" fill="#F1F1F1" rx="69.2581" ry="27.9034" style="stroke:#181818;stroke-width:0.5;"/><text fill="#000000" font-family="sans-serif" font-size="14" lengthAdjust="spacing" textLength="81.7031" x="362.9066" y="621.4366">Recevoir des</text><text fill="#000000" font-family="sans-serif" font-size="14" lengthAdjust="spacing" textLength="73.9307" x="366.7928" y="639.046">notifications</text></g><g class="entity" data-entity="UCRS" data-source-line="57" data-uid="ent0038" id="entity_UCRS"><ellipse cx="403.7619" cy="241.5958" fill="#F1F1F1" rx="109.7619" ry="27.9864" style="stroke:#181818;stroke-width:0.5;"/><text fill="#000000" font-family="sans-serif" font-size="14" lengthAdjust="spacing" textLength="138.4824" x="331.5206" y="237.3077">G&#233;rer mes ressources</text><text fill="#000000" font-family="sans-serif" font-size="14" lengthAdjust="spacing" textLength="68.4824" x="366.5206" y="254.9171">documents</text></g><!--entity Visiteur--><g class="entity" data-entity="Visiteur" data-source-line="7" data-uid="ent0002" id="entity_Visiteur"><ellipse cx="96.3413" cy="1850.1094" fill="#F1F1F1" rx="8" ry="8" style="stroke:#181818;stroke-width:0.5;"/><path d="M96.3413,1858.1094 L96.3413,1885.1094 M83.3413,1866.1094 L109.3413,1866.1094 M96.3413,1885.1094 L83.3413,1900.1094 M96.3413,1885.1094 L109.3413,1900.1094" fill="none" style="stroke:#181818;stroke-width:0.5;"/><text fill="#000000" font-family="sans-serif" font-size="14" lengthAdjust="spacing" textLength="46.6826" x="73" y="1916.1426">Visiteur</text></g><!--entity User--><g class="entity" data-entity="User" data-source-line="8" data-uid="ent0003" id="entity_User"><ellipse cx="96.5791" cy="1458.6094" fill="#F1F1F1" rx="8" ry="8" style="stroke:#181818;stroke-width:0.5;"/><path d="M96.5791,1466.6094 L96.5791,1493.6094 M83.5791,1474.6094 L109.5791,1474.6094 M96.5791,1493.6094 L83.5791,1508.6094 M96.5791,1493.6094 L109.5791,1508.6094" fill="none" style="stroke:#181818;stroke-width:0.5;"/><text fill="#000000" font-family="sans-serif" font-size="14" lengthAdjust="spacing" textLength="62.2412" x="63.5" y="1524.6426">Utilisateur</text><text fill="#000000" font-family="sans-serif" font-size="14" lengthAdjust="spacing" textLength="66.1582" x="63.5" y="1542.252">Authentifi&#233;</text></g><!--entity Proprietaire--><g class="entity" data-entity="Proprietaire" data-source-line="9" data-uid="ent0004" id="entity_Proprietaire"><ellipse cx="96.293" cy="587.6094" fill="#F1F1F1" rx="8" ry="8" style="stroke:#181818;stroke-width:0.5;"/><path d="M96.293,595.6094 L96.293,622.6094 M83.293,603.6094 L109.293,603.6094 M96.293,622.6094 L83.293,637.6094 M96.293,622.6094 L109.293,637.6094" fill="none" style="stroke:#181818;stroke-width:0.5;"/><text fill="#000000" font-family="sans-serif" font-size="14" lengthAdjust="spacing" textLength="72.3652" x="43" y="653.6426">Propri&#233;taire</text><text fill="#000000" font-family="sans-serif" font-size="14" lengthAdjust="spacing" textLength="106.5859" x="43" y="671.252">(Baye Mor Gaye)</text></g><!--link User to Visiteur--><g class="link" data-entity-1="User" data-entity-2="Visiteur" data-source-line="11" data-uid="lnk5" id="link_User_Visiteur"><path d="M96.5,1545.2694 C96.5,1643.9594 96.5,1724.6494 96.5,1823.3294" fill="none" id="User-to-Visiteur" style="stroke:#181818;stroke-width:1;"/><polygon fill="none" points="96.5,1841.3294,102.5,1823.3294,90.5,1823.3294,96.5,1841.3294" style="stroke:#181818;stroke-width:1;"/></g><!--link Proprietaire to User--><g class="link" data-entity-1="Proprietaire" data-entity-2="User" data-source-line="12" data-uid="lnk6" id="link_Proprietaire_User"><path d="M96.5,674.4494 C96.5,932.9594 96.5,1173.4694 96.5,1431.9694" fill="none" id="Proprietaire-to-User" style="stroke:#181818;stroke-width:1;"/><polygon fill="none" points="96.5,1449.9694,102.5,1431.9694,90.5,1431.9694,96.5,1449.9694" style="stroke:#181818;stroke-width:1;"/></g><!--link Visiteur to UCV--><g class="link" data-entity-1="Visiteur" data-entity-2="UCV" data-source-line="61" data-uid="lnk39" id="link_Visiteur_UCV"><path d="M120.29,1884.9094 C186.01,1896.5994 381.32,1926.2794 540,1898.6094 C763.81,1859.5794 831.15,1850.3894 1021,1725.6094 C1037.29,1714.8994 1035.92,1705.9594 1051,1693.6094 C1071.27,1677.0094 1090.5888,1664.3952 1111.5988,1652.1252" fill="none" id="Visiteur-to-UCV" style="stroke:#181818;stroke-width:1;"/><polygon fill="#181818" points="1116.78,1649.0994,1106.9911,1650.184,1112.4624,1651.6209,1111.0255,1657.0922,1116.78,1649.0994" style="stroke:#181818;stroke-width:1;"/></g><!--link Visiteur to UCP--><g class="link" data-entity-1="Visiteur" data-entity-2="UCP" data-source-line="62" data-uid="lnk40" id="link_Visiteur_UCP"><path d="M120.29,1906.1994 C139.38,1925.5794 168.51,1950.6594 200,1961.6094 C544.68,2081.3594 700.65,2136.3094 1021,1961.6094 C1097.67,1919.7894 1137.5467,1822.9794 1153.8867,1773.2594" fill="none" id="Visiteur-to-UCP" style="stroke:#181818;stroke-width:1;"/><polygon fill="#181818" points="1155.76,1767.5594,1149.15,1774.8606,1154.1989,1772.3094,1156.7501,1777.3583,1155.76,1767.5594" style="stroke:#181818;stroke-width:1;"/></g><!--link Visiteur to UCO--><g class="link" data-entity-1="Visiteur" data-entity-2="UCO" data-source-line="63" data-uid="lnk41" id="link_Visiteur_UCO"><path d="M120.46,1871.4394 C173.61,1850.2094 299.7681,1799.8351 362.7781,1774.6651" fill="none" id="Visiteur-to-UCO" style="stroke:#181818;stroke-width:1;"/><polygon fill="#181818" points="368.35,1772.4394,358.5083,1772.0634,363.7068,1774.2942,361.476,1779.4926,368.35,1772.4394" style="stroke:#181818;stroke-width:1;"/></g><!--link User to UCAUTH--><g class="link" data-entity-1="User" data-entity-2="UCAUTH" data-source-line="66" data-uid="lnk42" id="link_User_UCAUTH"><path d="M115.14,1545.1694 C140.33,1607.8594 191.81,1718.5794 265,1790.6094 C294.24,1819.3894 331.0551,1838.2131 361.1151,1850.7931" fill="none" id="User-to-UCAUTH" style="stroke:#181818;stroke-width:1;"/><polygon fill="#181818" points="366.65,1853.1094,359.8919,1845.945,362.0376,1851.1791,356.8035,1853.3248,366.65,1853.1094" style="stroke:#181818;stroke-width:1;"/></g><!--link User to UCA--><g class="link" data-entity-1="User" data-entity-2="UCA" data-source-line="67" data-uid="lnk43" id="link_User_UCA"><path d="M129.62,1488.0394 C179.71,1473.1194 271.5798,1445.7525 335.5898,1426.6825" fill="none" id="User-to-UCA" style="stroke:#181818;stroke-width:1;"/><polygon fill="#181818" points="341.34,1424.9694,331.5726,1423.7056,336.5481,1426.397,333.8567,1431.3725,341.34,1424.9694" style="stroke:#181818;stroke-width:1;"/></g><!--link User to UCL--><g class="link" data-entity-1="User" data-entity-2="UCL" data-source-line="68" data-uid="lnk44" id="link_User_UCL"><path d="M129.62,1497.6094 C180.63,1497.6094 274.93,1497.6094 338.83,1497.6094" fill="none" id="User-to-UCL" style="stroke:#181818;stroke-width:1;"/><polygon fill="#181818" points="344.83,1497.6094,335.83,1493.6094,339.83,1497.6094,335.83,1501.6094,344.83,1497.6094" style="stroke:#181818;stroke-width:1;"/></g><!--link Proprietaire to UCMP--><g class="link" data-entity-1="Proprietaire" data-entity-2="UCMP" data-source-line="71" data-uid="lnk45" id="link_Proprietaire_UCMP"><path d="M150.34,670.8194 C181.91,695.3094 223.78,724.5594 265,743.6094 C379.69,796.6094 425.21,762.8294 540,815.6094 C622.36,853.4794 702.158,915.4395 746.398,952.4495" fill="none" id="Proprietaire-to-UCMP" style="stroke:#181818;stroke-width:1;"/><polygon fill="#181818" points="751,956.2994,746.6636,947.4565,747.165,953.0911,741.5304,953.5925,751,956.2994" style="stroke:#181818;stroke-width:1;"/></g><!--link Proprietaire to UCRP--><g class="link" data-entity-1="Proprietaire" data-entity-2="UCRP" data-source-line="72" data-uid="lnk46" id="link_Proprietaire_UCRP"><path d="M104.93,579.0994 C120.51,493.4594 163.89,311.5194 265,197.6094 C288.58,171.0394 316.75,152.2891 344.82,137.1391" fill="none" id="Proprietaire-to-UCRP" style="stroke:#181818;stroke-width:1;"/><polygon fill="#181818" points="350.1,134.2894,340.2801,135.044,345.7,136.6642,344.0798,142.084,350.1,134.2894" style="stroke:#181818;stroke-width:1;"/></g><!--link Proprietaire to UCRJ--><g class="link" data-entity-1="Proprietaire" data-entity-2="UCRJ" data-source-line="73" data-uid="lnk47" id="link_Proprietaire_UCRJ"><path d="M110,579.0894 C124.34,533.8494 152.25,467.1294 200,428.6094 C231.12,403.4994 266.8753,390.9797 304.3353,383.5297" fill="none" id="Proprietaire-to-UCRJ" style="stroke:#181818;stroke-width:1;"/><polygon fill="#181818" points="310.22,382.3594,300.6126,380.1917,305.316,383.3347,302.1731,388.0381,310.22,382.3594" style="stroke:#181818;stroke-width:1;"/></g><!--link Proprietaire to UCEDT--><g class="link" data-entity-1="Proprietaire" data-entity-2="UCEDT" data-source-line="74" data-uid="lnk48" id="link_Proprietaire_UCEDT"><path d="M138.66,578.9394 C169.69,546.8794 215.29,507.3494 265,489.6094 C423.22,433.1394 619.4256,481.3602 717.7056,512.8202" fill="none" id="Proprietaire-to-UCEDT" style="stroke:#181818;stroke-width:1;"/><polygon fill="#181818" points="723.42,514.6494,716.0679,508.096,718.658,513.125,713.629,515.7152,723.42,514.6494" style="stroke:#181818;stroke-width:1;"/></g><!--link Proprietaire to UCRM--><g class="link" data-entity-1="Proprietaire" data-entity-2="UCRM" data-source-line="75" data-uid="lnk49" id="link_Proprietaire_UCRM"><path d="M150.31,640.7994 C183.28,649.6594 226.61,661.2994 265,671.6094 C293.39,679.2294 319.2648,686.1652 345.1048,693.0952" fill="none" id="Proprietaire-to-UCRM" style="stroke:#181818;stroke-width:1;"/><polygon fill="#181818" points="350.9,694.6494,343.2433,688.4546,346.0707,693.3542,341.171,696.1815,350.9,694.6494" style="stroke:#181818;stroke-width:1;"/></g><!--link Proprietaire to UCNT--><g class="link" data-entity-1="Proprietaire" data-entity-2="UCNT" data-source-line="76" data-uid="lnk50" id="link_Proprietaire_UCNT"><path d="M150.02,626.6094 C200.94,626.6094 272.48,626.6094 328.28,626.6094" fill="none" id="Proprietaire-to-UCNT" style="stroke:#181818;stroke-width:1;"/><polygon fill="#181818" points="334.28,626.6094,325.28,622.6094,329.28,626.6094,325.28,630.6094,334.28,626.6094" style="stroke:#181818;stroke-width:1;"/></g><!--link Proprietaire to UCRS--><g class="link" data-entity-1="Proprietaire" data-entity-2="UCRS" data-source-line="77" data-uid="lnk51" id="link_Proprietaire_UCRS"><path d="M111.09,579.0094 C127.03,528.3994 156.89,447.5294 200,387.6094 C239.3,332.9894 300.1394,293.8196 346.1994,269.1796" fill="none" id="Proprietaire-to-UCRS" style="stroke:#181818;stroke-width:1;"/><polygon fill="#181818" points="351.49,266.3494,341.6674,267.0676,347.0812,268.7079,345.441,274.1217,351.49,266.3494" style="stroke:#181818;stroke-width:1;"/></g><!--link Proprietaire to UCST--><g class="link" data-entity-1="Proprietaire" data-entity-2="UCST" data-source-line="78" data-uid="lnk52" id="link_Proprietaire_UCST"><path d="M96.56,674.4694 C97.01,786.7894 114,1069.7994 265,1228.6094 C279.27,1243.6094 292.8917,1251.7619 312.5117,1258.5719" fill="none" id="Proprietaire-to-UCST" style="stroke:#181818;stroke-width:1;"/><polygon fill="#181818" points="318.18,1260.5394,310.9892,1253.8094,313.4564,1258.8999,308.366,1261.3671,318.18,1260.5394" style="stroke:#181818;stroke-width:1;"/></g><!--link UCC to UCV--><g class="link" data-entity-1="UCC" data-entity-2="UCV" data-source-line="81" data-uid="lnk53" id="link_UCC_UCV"><path d="M839.28,1515.7894 C907.22,1538.3494 1017.3357,1574.9085 1090.7257,1599.2785" fill="none" id="UCC-to-UCV" style="stroke:#181818;stroke-width:1;stroke-dasharray:7.0,7.0;"/><polygon fill="#181818" points="1096.42,1601.1694,1089.1392,1594.5369,1091.6748,1599.5937,1086.618,1602.1293,1096.42,1601.1694" style="stroke:#181818;stroke-width:1;"/><text fill="#000000" font-family="sans-serif" font-size="13" lengthAdjust="spacing" textLength="53.4917" x="954.0032" y="1530.1045">&#171;extend&#187;</text><text fill="#000000" font-family="sans-serif" font-size="13" lengthAdjust="spacing" textLength="79.498" x="941" y="1546.4561">{visualisation}</text></g><!--link UCA to UCC--><g class="link" data-entity-1="UCA" data-entity-2="UCC" data-source-line="82" data-uid="lnk54" id="link_UCA_UCC"><path d="M473.76,1421.6794 C518.14,1431.5594 577.08,1444.9294 629,1457.6094 C660.17,1465.2094 688.9594,1472.6456 717.3994,1480.1656" fill="none" id="UCA-to-UCC" style="stroke:#181818;stroke-width:1;stroke-dasharray:7.0,7.0;"/><polygon fill="#181818" points="723.2,1481.6994,715.5216,1475.5316,718.3661,1480.4212,713.4765,1483.2658,723.2,1481.6994" style="stroke:#181818;stroke-width:1;"/><text fill="#000000" font-family="sans-serif" font-size="13" lengthAdjust="spacing" textLength="53.4917" x="562.2859" y="1420.1045">&#171;extend&#187;</text><text fill="#000000" font-family="sans-serif" font-size="13" lengthAdjust="spacing" textLength="78.0635" x="550" y="1436.4561">{consultation}</text></g><!--link UCL to UCC--><g class="link" data-entity-1="UCL" data-entity-2="UCC" data-source-line="83" data-uid="lnk55" id="link_UCL_UCC"><path d="M463.16,1497.6094 C529.65,1497.6094 632.55,1497.6094 704.39,1497.6094" fill="none" id="UCL-to-UCC" style="stroke:#181818;stroke-width:1;stroke-dasharray:7.0,7.0;"/><polygon fill="#181818" points="710.39,1497.6094,701.39,1493.6094,705.39,1497.6094,701.39,1501.6094,710.39,1497.6094" style="stroke:#181818;stroke-width:1;"/><text fill="#000000" font-family="sans-serif" font-size="13" lengthAdjust="spacing" textLength="53.4917" x="562.2859" y="1478.1045">&#171;extend&#187;</text><text fill="#000000" font-family="sans-serif" font-size="13" lengthAdjust="spacing" textLength="78.0635" x="550" y="1494.4561">{consultation}</text></g><!--link UCJ to UCP--><g class="link" data-entity-1="UCJ" data-entity-2="UCP" data-source-line="84" data-uid="lnk56" id="link_UCJ_UCP"><path d="M852.35,1690.3294 C923.98,1701.6594 1029.8836,1718.4022 1098.3036,1729.2222" fill="none" id="UCJ-to-UCP" style="stroke:#181818;stroke-width:1;stroke-dasharray:7.0,7.0;"/><polygon fill="#181818" points="1104.23,1730.1594,1095.9653,1724.8027,1099.2914,1729.3784,1094.7157,1732.7045,1104.23,1730.1594" style="stroke:#181818;stroke-width:1;"/><text fill="#000000" font-family="sans-serif" font-size="13" lengthAdjust="spacing" textLength="53.4917" x="954" y="1701.1045">&#171;extend&#187;</text></g><!--link UCJF to UCJ--><g class="link" data-entity-1="UCJF" data-entity-2="UCJ" data-source-line="85" data-uid="lnk57" id="link_UCJF_UCJ"><path d="M472.93,1604.9794 C543.4,1621.9694 646.8172,1646.893 714.9172,1663.313" fill="none" id="UCJF-to-UCJ" style="stroke:#181818;stroke-width:1;stroke-dasharray:7.0,7.0;"/><polygon fill="#181818" points="720.75,1664.7194,712.9383,1658.7212,715.8893,1663.5474,711.0631,1666.4983,720.75,1664.7194" style="stroke:#181818;stroke-width:1;"/><text fill="#000000" font-family="sans-serif" font-size="13" lengthAdjust="spacing" textLength="53.4917" x="562.5" y="1623.1045">&#171;extend&#187;</text></g><!--link UCJD to UCJ--><g class="link" data-entity-1="UCJD" data-entity-2="UCJ" data-source-line="86" data-uid="lnk58" id="link_UCJD_UCJ"><path d="M481.39,1679.6094 C547.96,1679.6094 637.85,1679.6094 703.43,1679.6094" fill="none" id="UCJD-to-UCJ" style="stroke:#181818;stroke-width:1;stroke-dasharray:7.0,7.0;"/><polygon fill="#181818" points="709.43,1679.6094,700.43,1675.6094,704.43,1679.6094,700.43,1683.6094,709.43,1679.6094" style="stroke:#181818;stroke-width:1;"/><text fill="#000000" font-family="sans-serif" font-size="13" lengthAdjust="spacing" textLength="53.4917" x="562.5" y="1676.1045">&#171;extend&#187;</text></g><!--link UCSK to UCMP--><g class="link" data-entity-1="UCSK" data-entity-2="UCMP" data-source-line="87" data-uid="lnk59" id="link_UCSK_UCMP"><path d="M477.93,1084.7794 C522.13,1075.6394 579.36,1062.4394 629,1046.6094 C662.34,1035.9694 693.1055,1023.627 722.0155,1011.087" fill="none" id="UCSK-to-UCMP" style="stroke:#181818;stroke-width:1;stroke-dasharray:7.0,7.0;"/><polygon fill="#181818" points="727.52,1008.6994,717.6715,1008.6112,722.9329,1010.6891,720.855,1015.9505,727.52,1008.6994" style="stroke:#181818;stroke-width:1;"/><text fill="#000000" font-family="sans-serif" font-size="13" lengthAdjust="spacing" textLength="53.4917" x="562.5" y="1043.1045">&#171;extend&#187;</text></g><!--link UCDM to UCMP--><g class="link" data-entity-1="UCDM" data-entity-2="UCMP" data-source-line="88" data-uid="lnk60" id="link_UCDM_UCMP"><path d="M472.55,1162.3894 C494.29,1155.0794 518.35,1146.4894 540,1137.6094 C580.64,1120.9394 591.28,1117.1194 629,1094.6094 C672.21,1068.8194 713.8707,1037.9018 744.2007,1014.2218" fill="none" id="UCDM-to-UCMP" style="stroke:#181818;stroke-width:1;stroke-dasharray:7.0,7.0;"/><polygon fill="#181818" points="748.93,1010.5294,739.3745,1012.9151,744.9889,1013.6064,744.2976,1019.2208,748.93,1010.5294" style="stroke:#181818;stroke-width:1;"/><text fill="#000000" font-family="sans-serif" font-size="13" lengthAdjust="spacing" textLength="53.4917" x="562.5" y="1091.1045">&#171;extend&#187;</text></g><!--link UCEX to UCMP--><g class="link" data-entity-1="UCEX" data-entity-2="UCMP" data-source-line="89" data-uid="lnk61" id="link_UCEX_UCMP"><path d="M474.24,883.9794 C541.61,905.7594 637.7708,936.8342 705.7508,958.8042" fill="none" id="UCEX-to-UCMP" style="stroke:#181818;stroke-width:1;stroke-dasharray:7.0,7.0;"/><polygon fill="#181818" points="711.46,960.6494,704.1262,954.0755,706.7023,959.1118,701.666,961.6878,711.46,960.6494" style="stroke:#181818;stroke-width:1;"/><text fill="#000000" font-family="sans-serif" font-size="13" lengthAdjust="spacing" textLength="53.4917" x="562.5" y="909.1045">&#171;extend&#187;</text></g><!--link UCFO to UCMP--><g class="link" data-entity-1="UCFO" data-entity-2="UCMP" data-source-line="90" data-uid="lnk62" id="link_UCFO_UCMP"><path d="M485.06,952.8794 C538.84,958.4294 604.5117,965.2235 664.0117,971.3635" fill="none" id="UCFO-to-UCMP" style="stroke:#181818;stroke-width:1;stroke-dasharray:7.0,7.0;"/><polygon fill="#181818" points="669.98,971.9794,661.4381,967.0767,665.0064,971.4661,660.6169,975.0344,669.98,971.9794" style="stroke:#181818;stroke-width:1;"/><text fill="#000000" font-family="sans-serif" font-size="13" lengthAdjust="spacing" textLength="53.4917" x="562.5" y="958.1045">&#171;extend&#187;</text></g><!--link UCCE to UCMP--><g class="link" data-entity-1="UCCE" data-entity-2="UCMP" data-source-line="91" data-uid="lnk63" id="link_UCCE_UCMP"><path d="M497.89,1021.6994 C538.28,1021.2494 586.09,1019.4794 629,1014.6094 C651.02,1012.1094 668.6856,1009.2314 690.5756,1004.8714" fill="none" id="UCCE-to-UCMP" style="stroke:#181818;stroke-width:1;stroke-dasharray:7.0,7.0;"/><polygon fill="#181818" points="696.46,1003.6994,686.852,1001.5345,691.5563,1004.6761,688.4147,1009.3804,696.46,1003.6994" style="stroke:#181818;stroke-width:1;"/><text fill="#000000" font-family="sans-serif" font-size="13" lengthAdjust="spacing" textLength="53.4917" x="562.5" y="1011.1045">&#171;extend&#187;</text></g><!--link UCCONV to UCEDT--><g class="link" data-entity-1="UCCONV" data-entity-2="UCEDT" data-source-line="92" data-uid="lnk64" id="link_UCCONV_UCEDT"><path d="M512.17,535.6094 C569.28,535.6094 632.73,535.6094 686.93,535.6094" fill="none" id="UCCONV-to-UCEDT" style="stroke:#181818;stroke-width:1;stroke-dasharray:7.0,7.0;"/><polygon fill="#181818" points="692.93,535.6094,683.93,531.6094,687.93,535.6094,683.93,539.6094,692.93,535.6094" style="stroke:#181818;stroke-width:1;"/><text fill="#000000" font-family="sans-serif" font-size="13" lengthAdjust="spacing" textLength="53.4917" x="562.5" y="532.1045">&#171;extend&#187;</text></g><!--link UCMD to UCRP--><g class="link" data-entity-1="UCMD" data-entity-2="UCRP" data-source-line="95" data-uid="lnk65" id="link_UCMD_UCRP"><path d="M170.29,109.6094 C206.64,109.6094 245.42,109.6094 285.95,109.6094" fill="none" id="UCMD-to-UCRP" style="stroke:#181818;stroke-width:1;stroke-dasharray:7.0,7.0;"/><polygon fill="#181818" points="291.95,109.6094,282.95,105.6094,286.95,109.6094,282.95,113.6094,291.95,109.6094" style="stroke:#181818;stroke-width:1;"/><text fill="#000000" font-family="sans-serif" font-size="13" lengthAdjust="spacing" textLength="55.6563" x="201" y="106.1045">&#171;include&#187;</text></g><rect fill="#DDDDDD" height="84.4375" rx="7.5" ry="7.5" style="stroke:#000000;stroke-width:1;" width="259.8193" x="513.5903" y="2154.3094"/><text fill="#000000" font-family="sans-serif" font-size="14" font-weight="bold" lengthAdjust="spacing" textLength="44.3516" x="522.48" y="2175.8426">Fl&#232;che</text><text fill="#000000" font-family="sans-serif" font-size="14" font-weight="bold" lengthAdjust="spacing" textLength="33.4619" x="574.6108" y="2175.8426">Sens</text><text fill="#000000" font-family="sans-serif" font-size="14" lengthAdjust="spacing" textLength="22.1621" x="522.48" y="2193.452">---&gt;</text><text fill="#000000" font-family="sans-serif" font-size="14" lengthAdjust="spacing" textLength="82.1064" x="574.6108" y="2193.452">Acteur &#8594; cas</text><text fill="#000000" font-family="sans-serif" font-size="14" lengthAdjust="spacing" textLength="15.9551" x="522.48" y="2211.0613">..&gt;</text><text fill="#000000" font-family="sans-serif" font-size="14" lengthAdjust="spacing" textLength="129.2129" x="574.6108" y="2211.0613">&#171;extend&#187; / &#171;include&#187;</text><text fill="#000000" font-family="sans-serif" font-size="14" lengthAdjust="spacing" textLength="9.3242" x="522.48" y="2228.6707">--</text><text fill="#000000" font-family="sans-serif" font-size="14" lengthAdjust="spacing" textLength="8.1758" x="570.7212" y="2228.6707">&gt;</text><text fill="#000000" font-family="sans-serif" font-size="14" lengthAdjust="spacing" textLength="52.917" x="711.603" y="2228.6707">H&#233;ritage</text><line style="stroke:#000000;stroke-width:1;" x1="518.5903" x2="768.4097" y1="2161.3094" y2="2161.3094"/><line style="stroke:#000000;stroke-width:1;" x1="518.5903" x2="768.4097" y1="2178.9188" y2="2178.9188"/><line style="stroke:#000000;stroke-width:1;" x1="518.5903" x2="768.4097" y1="2196.5281" y2="2196.5281"/><line style="stroke:#000000;stroke-width:1;" x1="518.5903" x2="768.4097" y1="2214.1375" y2="2214.1375"/><line style="stroke:#000000;stroke-width:1;" x1="518.5903" x2="768.4097" y1="2231.7469" y2="2231.7469"/><line style="stroke:#000000;stroke-width:1;" x1="518.5903" x2="518.5903" y1="2161.3094" y2="2231.7469"/><line style="stroke:#000000;stroke-width:1;" x1="570.7212" x2="570.7212" y1="2161.3094" y2="2231.7469"/><line style="stroke:#000000;stroke-width:1;" x1="707.7134" x2="707.7134" y1="2161.3094" y2="2231.7469"/><line style="stroke:#000000;stroke-width:1;" x1="768.4097" x2="768.4097" y1="2161.3094" y2="2231.7469"/><!--SRC=[ZLRDRXit4BxlKmnqSGFK2GhaLCG6NCboedfjGMi7FUX2SqSI4owv9Rb6coZNF42Uekvhw4tw91sIArdBbP2ShELyy__DZ9rm4c4asDAmga8e4ORCGdboxuGKbZcXLPRPZqBLZ13GM2GvZhLoXVY4yClhB9EuSE0q6B5SEIY5GHxL67VQmE2ziC9XOmP0bhSVM-7M3ptDrKNZLgYSM8ZDKq3VMzmXfqRNXWIEaOUv-katzZT2Jf8h-l4Ym2C40oBBl3AShi-VVUxBWoJOptp0J2sf48EXLhQHBkGzWCyP-8mvPGptm_VUXS-cOHGosPPevwfk7gJWGS42UqGE2o6TGJleA0-3SckUT1k57Tqk-g95KqlKzz7N0NqjFduNEKsYa1viD4KCKQSBd_I23l0FwA3MnYsq53hH60ULSIX1g1141LyfPi0XNoajzL9WeZYAIJ35jrcKcwTA0wgMKbtyRO3d29oeI0n1CyY-T5hvJ2P-i9qNztTlWv7YXEsWVJDNQBqsb8sd5rKgjPF7ebvjddp65K5ZHOcY3qB_3FLAE_h3jJQbLchpXFP5DvVYzuu5gXdNLKrCHof6mgDHdc9BNJ6XF1NB4w4S2JR_9iMw_2DLmh_8Fes2Tn0fWDPIcWgbJ5sERrFjXJPLP7n2yijU8cYUEv2WYxiU6oaMwuUFIlvdutDhscAcNPdkJLtQa5dBSaEbDl2ATaGPEWklvgfeQje05NtipsqthZnIaTHY7Y4i7cVHRmxR2oOo7AQxcKWZcln8H8rgPwLdNpAbX5gcPYz7TodriAgb5aI5XaQjgjF-tDx49VQkylCRVKOLAlLS1HNY1abKCf-p7kyCgskKYOUR6D4CEJvgOUYUKEsKxd2WczoCYASRuucULgtekTnXAKFD6z-HQF04pixETelUVsIxZzFJSx-zquTf-d2xDRDtau3jdQHWDbwLeE0tIETx_-DwQwrpjuA9xXaAw7nww7Ls-7Low9N8S12S7tgzEOmj3hqMTzjCBeaOghIn37JHNhuCXOLVuSqR3BBpyxdw_DXUoD3lBvc_PX4vJ95yxzfwuFMF0YSjSDe1Pk7-HCca9naTaz3wZPAyPuwsxJ4HxTHZ8bgOnqIq8O-A_716eH_iZhHjm3l5PKCZrNOWtwOqYyP457kyn2LfmeDsJbSqLUip6ClDFto5_cU1zB_AsZzJZwd9QxZWWUt_VVq6D7sjp1kdFyznqEhQyxApi0wmj_wWEBOa3vdt7KF8_WS0]--></g></svg>