<svg xmlns="http://www.w3.org/2000/svg" xmlns:xlink="http://www.w3.org/1999/xlink" contentStyleType="text/css" data-diagram-type="CLASS" height="1144px" preserveAspectRatio="none" style="width:967px;height:1144px;background:#FFFFFF;" version="1.1" viewBox="0 0 967 1144" width="967px" zoomAndPan="magnify"><title>Blog - Publications &amp; Interactions</title><defs/><g><text fill="#000000" font-family="sans-serif" font-size="14" font-weight="bold" lengthAdjust="spacing" textLength="224.0205" x="364.5103" y="24.5332">Blog - Publications &amp; Interactions</text><!--cluster Posts--><g class="cluster" data-entity="Posts" data-source-line="9" data-uid="ent0008" id="cluster_Posts"><rect fill="none" height="509" rx="2.5" ry="2.5" style="stroke:#000000;stroke-width:1.5;" width="542" x="117" y="219.6094"/><text fill="#000000" font-family="sans-serif" font-size="14" font-weight="bold" lengthAdjust="spacing" textLength="180.4756" x="297.7622" y="236.1426">Publications &amp; Interactions</text></g><!--class Publication--><g class="entity" data-entity="Publication" data-source-line="11" data-uid="ent0009" id="entity_Publication"><rect fill="#F1F1F1" height="216.0938" rx="2.5" ry="2.5" style="stroke:#181818;stroke-width:0.5;" width="164.9199" x="477.5" y="255.6094"/><ellipse cx="521.4938" cy="271.6094" fill="#ADD1B2" rx="11" ry="11" style="stroke:#181818;stroke-width:1;"/><path d="M524.2594,267.4844 Q524.4157,267.2656 524.6032,267.1563 Q524.7907,267.0469 525.0094,267.0469 Q525.3844,267.0469 525.6188,267.3125 Q525.8532,267.5625 525.8532,268.1719 L525.8532,269.625 Q525.8532,270.2344 525.6188,270.5 Q525.3844,270.7656 525.0094,270.7656 Q524.6657,270.7656 524.4625,270.5625 Q524.2594,270.375 524.15,269.8594 Q524.1032,269.5 523.9157,269.3125 Q523.5875,268.9375 522.9782,268.7188 Q522.3688,268.5 521.7438,268.5 Q520.9782,268.5 520.3375,268.8281 Q519.7125,269.1563 519.2125,269.9063 Q518.7282,270.6563 518.7282,271.6875 L518.7282,272.7813 Q518.7282,274.0156 519.6188,274.8438 Q520.5094,275.6563 522.1032,275.6563 Q523.0407,275.6563 523.6969,275.4063 Q524.0875,275.25 524.5094,274.8125 Q524.775,274.5469 524.9157,274.4688 Q525.0719,274.3906 525.275,274.3906 Q525.6032,274.3906 525.8532,274.6563 Q526.1188,274.9063 526.1188,275.25 Q526.1188,275.5938 525.775,276 Q525.275,276.5781 524.4782,276.9063 Q523.4,277.3594 522.1032,277.3594 Q520.5875,277.3594 519.3844,276.7344 Q518.4,276.2344 517.7125,275.1719 Q517.025,274.0938 517.025,272.8125 L517.025,271.6563 Q517.025,270.3281 517.6344,269.1875 Q518.2594,268.0313 519.3532,267.4219 Q520.4469,266.7969 521.6813,266.7969 Q522.4157,266.7969 523.0563,266.9688 Q523.7125,267.125 524.2594,267.4844 Z " fill="#000000"/><text fill="#000000" font-family="sans-serif" font-size="14" lengthAdjust="spacing" textLength="68.4893" x="541.9369" y="277.3379">Publication</text><line style="stroke:#181818;stroke-width:0.5;" x1="478.5" x2="641.4199" y1="287.6094" y2="287.6094"/><text fill="#000000" font-family="sans-serif" font-size="14" lengthAdjust="spacing" textLength="75.8652" x="483.5" y="306.1426">+titre: String</text><text fill="#000000" font-family="sans-serif" font-size="14" lengthAdjust="spacing" textLength="78.21" x="483.5" y="323.752">+slug: String</text><text fill="#000000" font-family="sans-serif" font-size="14" lengthAdjust="spacing" textLength="102.3477" x="483.5" y="341.3613">+contenu: String</text><text fill="#000000" font-family="sans-serif" font-size="14" lengthAdjust="spacing" textLength="132.6855" x="483.5" y="358.9707">+contenuJson: JSON</text><text fill="#000000" font-family="sans-serif" font-size="14" lengthAdjust="spacing" textLength="152.9199" x="483.5" y="376.5801">+contenuHtml: LongText</text><text fill="#000000" font-family="sans-serif" font-size="14" lengthAdjust="spacing" textLength="90.6514" x="483.5" y="394.1895">+extrait: String</text><text fill="#000000" font-family="sans-serif" font-size="14" lengthAdjust="spacing" textLength="116.3408" x="483.5" y="411.7988">+imageUne: String</text><text fill="#000000" font-family="sans-serif" font-size="14" lengthAdjust="spacing" textLength="132.7129" x="483.5" y="429.4082">+estPubliee: Boolean</text><text fill="#000000" font-family="sans-serif" font-size="14" lengthAdjust="spacing" textLength="137.3613" x="483.5" y="447.0176">+publieeLe: DateTime</text><text fill="#000000" font-family="sans-serif" font-size="14" lengthAdjust="spacing" textLength="138.9199" x="483.5" y="464.627">+nombreVues: Integer</text></g><!--class Commentaire--><g class="entity" data-entity="Commentaire" data-source-line="26" data-uid="ent0011" id="entity_Commentaire"><rect fill="#F1F1F1" height="75.2188" rx="2.5" ry="2.5" style="stroke:#181818;stroke-width:0.5;" width="157.9404" x="485" y="593.6094"/><ellipse cx="518.8609" cy="609.6094" fill="#ADD1B2" rx="11" ry="11" style="stroke:#181818;stroke-width:1;"/><path d="M521.6265,605.4844 Q521.7828,605.2656 521.9703,605.1563 Q522.1578,605.0469 522.3765,605.0469 Q522.7515,605.0469 522.9859,605.3125 Q523.2203,605.5625 523.2203,606.1719 L523.2203,607.625 Q523.2203,608.2344 522.9859,608.5 Q522.7515,608.7656 522.3765,608.7656 Q522.0328,608.7656 521.8296,608.5625 Q521.6265,608.375 521.5171,607.8594 Q521.4703,607.5 521.2828,607.3125 Q520.9546,606.9375 520.3453,606.7188 Q519.7359,606.5 519.1109,606.5 Q518.3453,606.5 517.7046,606.8281 Q517.0796,607.1563 516.5796,607.9063 Q516.0953,608.6563 516.0953,609.6875 L516.0953,610.7813 Q516.0953,612.0156 516.9859,612.8438 Q517.8765,613.6563 519.4703,613.6563 Q520.4078,613.6563 521.064,613.4063 Q521.4546,613.25 521.8765,612.8125 Q522.1421,612.5469 522.2828,612.4688 Q522.439,612.3906 522.6421,612.3906 Q522.9703,612.3906 523.2203,612.6563 Q523.4859,612.9063 523.4859,613.25 Q523.4859,613.5938 523.1421,614 Q522.6421,614.5781 521.8453,614.9063 Q520.7671,615.3594 519.4703,615.3594 Q517.9546,615.3594 516.7515,614.7344 Q515.7671,614.2344 515.0796,613.1719 Q514.3921,612.0938 514.3921,610.8125 L514.3921,609.6563 Q514.3921,608.3281 515.0015,607.1875 Q515.6265,606.0313 516.7203,605.4219 Q517.814,604.7969 519.0484,604.7969 Q519.7828,604.7969 520.4234,604.9688 Q521.0796,605.125 521.6265,605.4844 Z " fill="#000000"/><text fill="#000000" font-family="sans-serif" font-size="14" lengthAdjust="spacing" textLength="84.0273" x="537.0522" y="615.3379">Commentaire</text><line style="stroke:#181818;stroke-width:0.5;" x1="486" x2="641.9404" y1="625.6094" y2="625.6094"/><text fill="#000000" font-family="sans-serif" font-size="14" lengthAdjust="spacing" textLength="102.3477" x="491" y="644.1426">+contenu: String</text><text fill="#000000" font-family="sans-serif" font-size="14" lengthAdjust="spacing" textLength="145.9404" x="491" y="661.752">+estApprouve: Boolean</text></g><!--class Like--><g class="entity" data-entity="Like" data-source-line="33" data-uid="ent0013" id="entity_Like"><rect fill="#F1F1F1" height="57.6094" rx="2.5" ry="2.5" style="stroke:#181818;stroke-width:0.5;" width="129.9063" x="133" y="602.1094"/><ellipse cx="180.8618" cy="618.1094" fill="#ADD1B2" rx="11" ry="11" style="stroke:#181818;stroke-width:1;"/><path d="M183.6274,613.9844 Q183.7837,613.7656 183.9712,613.6563 Q184.1587,613.5469 184.3774,613.5469 Q184.7524,613.5469 184.9868,613.8125 Q185.2212,614.0625 185.2212,614.6719 L185.2212,616.125 Q185.2212,616.7344 184.9868,617 Q184.7524,617.2656 184.3774,617.2656 Q184.0337,617.2656 183.8306,617.0625 Q183.6274,616.875 183.5181,616.3594 Q183.4712,616 183.2837,615.8125 Q182.9556,615.4375 182.3462,615.2188 Q181.7368,615 181.1118,615 Q180.3462,615 179.7056,615.3281 Q179.0806,615.6563 178.5806,616.4063 Q178.0962,617.1563 178.0962,618.1875 L178.0962,619.2813 Q178.0962,620.5156 178.9868,621.3438 Q179.8774,622.1563 181.4712,622.1563 Q182.4087,622.1563 183.0649,621.9063 Q183.4556,621.75 183.8774,621.3125 Q184.1431,621.0469 184.2837,620.9688 Q184.4399,620.8906 184.6431,620.8906 Q184.9712,620.8906 185.2212,621.1563 Q185.4868,621.4063 185.4868,621.75 Q185.4868,622.0938 185.1431,622.5 Q184.6431,623.0781 183.8462,623.4063 Q182.7681,623.8594 181.4712,623.8594 Q179.9556,623.8594 178.7524,623.2344 Q177.7681,622.7344 177.0806,621.6719 Q176.3931,620.5938 176.3931,619.3125 L176.3931,618.1563 Q176.3931,616.8281 177.0024,615.6875 Q177.6274,614.5313 178.7212,613.9219 Q179.8149,613.2969 181.0493,613.2969 Q181.7837,613.2969 182.4243,613.4688 Q183.0806,613.625 183.6274,613.9844 Z " fill="#000000"/><text fill="#000000" font-family="sans-serif" font-size="14" lengthAdjust="spacing" textLength="25.6826" x="201.3618" y="623.8379">Like</text><line style="stroke:#181818;stroke-width:0.5;" x1="134" x2="261.9063" y1="634.1094" y2="634.1094"/><text fill="#000000" font-family="sans-serif" font-size="14" lengthAdjust="spacing" textLength="117.9063" x="139" y="652.6426">+estAime: Boolean</text></g><!--class MediaPublication--><g class="entity" data-entity="MediaPublication" data-source-line="39" data-uid="ent0015" id="entity_MediaPublication"><rect fill="#F1F1F1" height="163.2656" rx="2.5" ry="2.5" style="stroke:#181818;stroke-width:0.5;" width="151.665" x="298" y="549.6094"/><ellipse cx="318.8702" cy="565.6094" fill="#ADD1B2" rx="11" ry="11" style="stroke:#181818;stroke-width:1;"/><path d="M321.6358,561.4844 Q321.7921,561.2656 321.9796,561.1563 Q322.1671,561.0469 322.3858,561.0469 Q322.7608,561.0469 322.9952,561.3125 Q323.2296,561.5625 323.2296,562.1719 L323.2296,563.625 Q323.2296,564.2344 322.9952,564.5 Q322.7608,564.7656 322.3858,564.7656 Q322.0421,564.7656 321.839,564.5625 Q321.6358,564.375 321.5265,563.8594 Q321.4796,563.5 321.2921,563.3125 Q320.964,562.9375 320.3546,562.7188 Q319.7452,562.5 319.1202,562.5 Q318.3546,562.5 317.714,562.8281 Q317.089,563.1563 316.589,563.9063 Q316.1046,564.6563 316.1046,565.6875 L316.1046,566.7813 Q316.1046,568.0156 316.9952,568.8438 Q317.8858,569.6563 319.4796,569.6563 Q320.4171,569.6563 321.0733,569.4063 Q321.464,569.25 321.8858,568.8125 Q322.1515,568.5469 322.2921,568.4688 Q322.4483,568.3906 322.6515,568.3906 Q322.9796,568.3906 323.2296,568.6563 Q323.4952,568.9063 323.4952,569.25 Q323.4952,569.5938 323.1515,570 Q322.6515,570.5781 321.8546,570.9063 Q320.7765,571.3594 319.4796,571.3594 Q317.964,571.3594 316.7608,570.7344 Q315.7765,570.2344 315.089,569.1719 Q314.4015,568.0938 314.4015,566.8125 L314.4015,565.6563 Q314.4015,564.3281 315.0108,563.1875 Q315.6358,562.0313 316.7296,561.4219 Q317.8233,560.7969 319.0577,560.7969 Q319.7921,560.7969 320.4327,560.9688 Q321.089,561.125 321.6358,561.4844 Z " fill="#000000"/><text fill="#000000" font-family="sans-serif" font-size="14" lengthAdjust="spacing" textLength="106.6201" x="334.1747" y="571.3379">MediaPublication</text><line style="stroke:#181818;stroke-width:0.5;" x1="299" x2="448.665" y1="581.6094" y2="581.6094"/><text fill="#000000" font-family="sans-serif" font-size="14" lengthAdjust="spacing" textLength="111.6719" x="304" y="600.1426">+type: TypeMedia</text><text fill="#000000" font-family="sans-serif" font-size="14" lengthAdjust="spacing" textLength="139.665" x="304" y="617.752">+cheminFichier: String</text><text fill="#000000" font-family="sans-serif" font-size="14" lengthAdjust="spacing" textLength="88.334" x="304" y="635.3613">+taille: Integer</text><text fill="#000000" font-family="sans-serif" font-size="14" lengthAdjust="spacing" textLength="103.1201" x="304" y="652.9707">+largeur: Integer</text><text fill="#000000" font-family="sans-serif" font-size="14" lengthAdjust="spacing" textLength="107.0234" x="304" y="670.5801">+hauteur: Integer</text><text fill="#000000" font-family="sans-serif" font-size="14" lengthAdjust="spacing" textLength="75.8652" x="304" y="688.1895">+titre: String</text><text fill="#000000" font-family="sans-serif" font-size="14" lengthAdjust="spacing" textLength="92.2236" x="304" y="705.7988">+ordre: Integer</text></g><!--class Niveau--><g class="entity" data-entity="Niveau" data-source-line="2" data-uid="ent0002" id="entity_Niveau"><rect fill="#F1F1F1" height="110.4375" rx="2.5" ry="2.5" style="stroke:#181818;stroke-width:0.5;" width="93.7031" x="562" y="45.6094"/><ellipse cx="585.1558" cy="61.6094" fill="#EB937F" rx="11" ry="11" style="stroke:#181818;stroke-width:1;"/><path d="M584.0152,62.4063 L584.0152,64.9063 L588.3433,64.9063 L588.3433,63.9844 Q588.3433,63.375 588.5777,63.1094 Q588.8277,62.8438 589.2027,62.8438 Q589.5777,62.8438 589.8121,63.1094 Q590.0464,63.375 590.0464,63.9844 L590.0464,66.6094 L582.0464,66.6094 Q581.4214,66.6094 581.1558,66.375 Q580.9058,66.1406 580.9058,65.75 Q580.9058,65.375 581.1714,65.1406 Q581.4371,64.9063 582.0464,64.9063 L582.3121,64.9063 L582.3121,58.25 L582.0464,58.25 Q581.4214,58.25 581.1558,58.0156 Q580.9058,57.7813 580.9058,57.3906 Q580.9058,57.0156 581.1558,56.7813 Q581.4214,56.5469 582.0464,56.5469 L589.6714,56.5469 L589.6714,59.1406 Q589.6714,59.75 589.4371,60.0156 Q589.2183,60.2656 588.8277,60.2656 Q588.4527,60.2656 588.2183,60.0156 Q587.9839,59.75 587.9839,59.1406 L587.9839,58.25 L584.0152,58.25 L584.0152,60.7031 L585.4996,60.7031 Q585.4996,60.0469 585.6246,59.8594 Q585.8902,59.4531 586.3589,59.4531 Q586.7339,59.4531 586.9683,59.7188 Q587.2027,59.9688 587.2027,60.5781 L587.2027,62.5469 Q587.2027,63.0938 587.0777,63.2813 Q586.8121,63.6719 586.3589,63.6719 Q585.8902,63.6719 585.6246,63.2656 Q585.4996,63.0781 585.4996,62.4063 L584.0152,62.4063 Z " fill="#000000"/><text fill="#000000" font-family="sans-serif" font-size="14" lengthAdjust="spacing" textLength="43.5791" x="600.9682" y="67.3379">Niveau</text><line style="stroke:#181818;stroke-width:0.5;" x1="563" x2="654.7031" y1="77.6094" y2="77.6094"/><text fill="#000000" font-family="sans-serif" font-size="14" lengthAdjust="spacing" textLength="56.8203" x="568" y="96.1426">D&#233;butant</text><text fill="#000000" font-family="sans-serif" font-size="14" lengthAdjust="spacing" textLength="81.7031" x="568" y="113.752">Interm&#233;diaire</text><text fill="#000000" font-family="sans-serif" font-size="14" lengthAdjust="spacing" textLength="46.6963" x="568" y="131.3613">Avanc&#233;</text><text fill="#000000" font-family="sans-serif" font-size="14" lengthAdjust="spacing" textLength="40.4619" x="568" y="148.9707">Expert</text></g><!--class TypeMedia--><g class="entity" data-entity="TypeMedia" data-source-line="9" data-uid="ent0003" id="entity_TypeMedia"><rect fill="#F1F1F1" height="110.4375" rx="2.5" ry="2.5" style="stroke:#181818;stroke-width:0.5;" width="101.2549" x="257.5" y="775.6094"/><ellipse cx="272.5" cy="791.6094" fill="#EB937F" rx="11" ry="11" style="stroke:#181818;stroke-width:1;"/><path d="M271.3594,792.4063 L271.3594,794.9063 L275.6875,794.9063 L275.6875,793.9844 Q275.6875,793.375 275.9219,793.1094 Q276.1719,792.8438 276.5469,792.8438 Q276.9219,792.8438 277.1563,793.1094 Q277.3906,793.375 277.3906,793.9844 L277.3906,796.6094 L269.3906,796.6094 Q268.7656,796.6094 268.5,796.375 Q268.25,796.1406 268.25,795.75 Q268.25,795.375 268.5156,795.1406 Q268.7813,794.9063 269.3906,794.9063 L269.6563,794.9063 L269.6563,788.25 L269.3906,788.25 Q268.7656,788.25 268.5,788.0156 Q268.25,787.7813 268.25,787.3906 Q268.25,787.0156 268.5,786.7813 Q268.7656,786.5469 269.3906,786.5469 L277.0156,786.5469 L277.0156,789.1406 Q277.0156,789.75 276.7813,790.0156 Q276.5625,790.2656 276.1719,790.2656 Q275.7969,790.2656 275.5625,790.0156 Q275.3281,789.75 275.3281,789.1406 L275.3281,788.25 L271.3594,788.25 L271.3594,790.7031 L272.8438,790.7031 Q272.8438,790.0469 272.9688,789.8594 Q273.2344,789.4531 273.7031,789.4531 Q274.0781,789.4531 274.3125,789.7188 Q274.5469,789.9688 274.5469,790.5781 L274.5469,792.5469 Q274.5469,793.0938 274.4219,793.2813 Q274.1563,793.6719 273.7031,793.6719 Q273.2344,793.6719 272.9688,793.2656 Q272.8438,793.0781 272.8438,792.4063 L271.3594,792.4063 Z " fill="#000000"/><text fill="#000000" font-family="sans-serif" font-size="14" lengthAdjust="spacing" textLength="69.2549" x="286.5" y="797.3379">TypeMedia</text><line style="stroke:#181818;stroke-width:0.5;" x1="258.5" x2="357.7549" y1="807.6094" y2="807.6094"/><text fill="#000000" font-family="sans-serif" font-size="14" lengthAdjust="spacing" textLength="38.9102" x="263.5" y="826.1426">Image</text><text fill="#000000" font-family="sans-serif" font-size="14" lengthAdjust="spacing" textLength="35.8066" x="263.5" y="843.752">Vid&#233;o</text><text fill="#000000" font-family="sans-serif" font-size="14" lengthAdjust="spacing" textLength="63.8066" x="263.5" y="861.3613">Document</text><text fill="#000000" font-family="sans-serif" font-size="14" lengthAdjust="spacing" textLength="26.4688" x="263.5" y="878.9707">Lien</text></g><!--class TypeRessource--><g class="entity" data-entity="TypeRessource" data-source-line="16" data-uid="ent0004" id="entity_TypeRessource"><rect fill="#F1F1F1" height="110.4375" rx="2.5" ry="2.5" style="stroke:#181818;stroke-width:0.5;" width="130.041" x="830" y="45.6094"/><ellipse cx="845" cy="61.6094" fill="#EB937F" rx="11" ry="11" style="stroke:#181818;stroke-width:1;"/><path d="M843.8594,62.4063 L843.8594,64.9063 L848.1875,64.9063 L848.1875,63.9844 Q848.1875,63.375 848.4219,63.1094 Q848.6719,62.8438 849.0469,62.8438 Q849.4219,62.8438 849.6563,63.1094 Q849.8906,63.375 849.8906,63.9844 L849.8906,66.6094 L841.8906,66.6094 Q841.2656,66.6094 841,66.375 Q840.75,66.1406 840.75,65.75 Q840.75,65.375 841.0156,65.1406 Q841.2813,64.9063 841.8906,64.9063 L842.1563,64.9063 L842.1563,58.25 L841.8906,58.25 Q841.2656,58.25 841,58.0156 Q840.75,57.7813 840.75,57.3906 Q840.75,57.0156 841,56.7813 Q841.2656,56.5469 841.8906,56.5469 L849.5156,56.5469 L849.5156,59.1406 Q849.5156,59.75 849.2813,60.0156 Q849.0625,60.2656 848.6719,60.2656 Q848.2969,60.2656 848.0625,60.0156 Q847.8281,59.75 847.8281,59.1406 L847.8281,58.25 L843.8594,58.25 L843.8594,60.7031 L845.3438,60.7031 Q845.3438,60.0469 845.4688,59.8594 Q845.7344,59.4531 846.2031,59.4531 Q846.5781,59.4531 846.8125,59.7188 Q847.0469,59.9688 847.0469,60.5781 L847.0469,62.5469 Q847.0469,63.0938 846.9219,63.2813 Q846.6563,63.6719 846.2031,63.6719 Q845.7344,63.6719 845.4688,63.2656 Q845.3438,63.0781 845.3438,62.4063 L843.8594,62.4063 Z " fill="#000000"/><text fill="#000000" font-family="sans-serif" font-size="14" lengthAdjust="spacing" textLength="98.041" x="859" y="67.3379">TypeRessource</text><line style="stroke:#181818;stroke-width:0.5;" x1="831" x2="959.041" y1="77.6094" y2="77.6094"/><text fill="#000000" font-family="sans-serif" font-size="14" lengthAdjust="spacing" textLength="63.8066" x="836" y="96.1426">Document</text><text fill="#000000" font-family="sans-serif" font-size="14" lengthAdjust="spacing" textLength="38.9102" x="836" y="113.752">Image</text><text fill="#000000" font-family="sans-serif" font-size="14" lengthAdjust="spacing" textLength="46.6826" x="836" y="131.3613">Archive</text><text fill="#000000" font-family="sans-serif" font-size="14" lengthAdjust="spacing" textLength="26.4688" x="836" y="148.9707">Lien</text></g><!--class Timestamps--><g class="entity" data-entity="Timestamps" data-source-line="24" data-uid="ent0005" id="entity_Timestamps"><rect fill="#F1F1F1" height="75.2188" rx="2.5" ry="2.5" style="stroke:#181818;stroke-width:0.5;" width="168.8027" x="327.5" y="946.6094"/><ellipse cx="369.7558" cy="962.6094" fill="#A9DCDF" rx="11" ry="11" style="stroke:#181818;stroke-width:1;"/><path d="M371.9433,964.375 L367.8026,964.375 L367.3808,965.4063 L367.8026,965.4063 Q368.412,965.4063 368.6776,965.6406 Q368.9433,965.875 368.9433,966.2656 Q368.9433,966.6406 368.6776,966.875 Q368.412,967.1094 367.8026,967.1094 L365.5058,967.1094 Q364.8964,967.1094 364.6464,966.875 Q364.3808,966.6406 364.3808,966.25 Q364.3808,965.875 364.662,965.6406 Q364.9276,965.3906 365.5526,965.4063 L368.2245,958.75 L367.1151,958.75 Q366.5058,958.75 366.2401,958.5156 Q365.9745,958.2813 365.9745,957.8906 Q365.9745,957.5156 366.2401,957.2813 Q366.5058,957.0469 367.1151,957.0469 L370.787,957.0469 L374.1776,965.4063 Q374.7714,965.4063 374.9589,965.5469 Q375.3495,965.8125 375.3495,966.2656 Q375.3495,966.6406 375.0839,966.875 Q374.8339,967.1094 374.2245,967.1094 L371.9276,967.1094 Q371.3183,967.1094 371.0526,966.875 Q370.787,966.6406 370.787,966.25 Q370.787,965.875 371.0526,965.6406 Q371.3183,965.4063 371.9276,965.4063 L372.3495,965.4063 L371.9433,964.375 Z M371.2245,962.6719 L369.8651,959.2969 L368.4901,962.6719 L371.2245,962.6719 Z " fill="#000000"/><text fill="#000000" font-family="sans-serif" font-size="14" font-style="italic" lengthAdjust="spacing" textLength="76.2344" x="389.8126" y="968.3379">Timestamps</text><line style="stroke:#181818;stroke-width:0.5;" x1="328.5" x2="495.3027" y1="978.6094" y2="978.6094"/><text fill="#000000" font-family="sans-serif" font-size="14" lengthAdjust="spacing" textLength="156.8027" x="333.5" y="997.1426">+dateCreation: DateTime</text><text fill="#000000" font-family="sans-serif" font-size="14" lengthAdjust="spacing" textLength="138.1201" x="333.5" y="1014.752">+dateModif: DateTime</text></g><!--class SoftDeletes--><g class="entity" data-entity="SoftDeletes" data-source-line="29" data-uid="ent0006" id="entity_SoftDeletes"><rect fill="#F1F1F1" height="57.6094" rx="2.5" ry="2.5" style="stroke:#181818;stroke-width:0.5;" width="193.7129" x="467" y="801.6094"/><ellipse cx="523.4204" cy="817.6094" fill="#A9DCDF" rx="11" ry="11" style="stroke:#181818;stroke-width:1;"/><path d="M525.6079,819.375 L521.4673,819.375 L521.0454,820.4063 L521.4673,820.4063 Q522.0767,820.4063 522.3423,820.6406 Q522.6079,820.875 522.6079,821.2656 Q522.6079,821.6406 522.3423,821.875 Q522.0767,822.1094 521.4673,822.1094 L519.1704,822.1094 Q518.561,822.1094 518.311,821.875 Q518.0454,821.6406 518.0454,821.25 Q518.0454,820.875 518.3267,820.6406 Q518.5923,820.3906 519.2173,820.4063 L521.8892,813.75 L520.7798,813.75 Q520.1704,813.75 519.9048,813.5156 Q519.6392,813.2813 519.6392,812.8906 Q519.6392,812.5156 519.9048,812.2813 Q520.1704,812.0469 520.7798,812.0469 L524.4517,812.0469 L527.8423,820.4063 Q528.436,820.4063 528.6235,820.5469 Q529.0142,820.8125 529.0142,821.2656 Q529.0142,821.6406 528.7485,821.875 Q528.4985,822.1094 527.8892,822.1094 L525.5923,822.1094 Q524.9829,822.1094 524.7173,821.875 Q524.4517,821.6406 524.4517,821.25 Q524.4517,820.875 524.7173,820.6406 Q524.9829,820.4063 525.5923,820.4063 L526.0142,820.4063 L525.6079,819.375 Z M524.8892,817.6719 L523.5298,814.2969 L522.1548,817.6719 L524.8892,817.6719 Z " fill="#000000"/><text fill="#000000" font-family="sans-serif" font-size="14" font-style="italic" lengthAdjust="spacing" textLength="72.3721" x="543.9204" y="823.3379">SoftDeletes</text><line style="stroke:#181818;stroke-width:0.5;" x1="468" x2="659.7129" y1="833.6094" y2="833.6094"/><text fill="#000000" font-family="sans-serif" font-size="14" lengthAdjust="spacing" textLength="181.7129" x="473" y="852.1426">+dateSuppression: DateTime</text></g><!--class Utilisateur--><g class="entity" data-entity="Utilisateur" data-source-line="61" data-uid="ent0018" id="entity_Utilisateur"><rect fill="#F1F1F1" height="32" rx="2.5" ry="2.5" style="stroke:#181818;stroke-width:0.5;" width="94.2412" x="7" y="347.6094"/><ellipse cx="22" cy="363.6094" fill="#ADD1B2" rx="11" ry="11" style="stroke:#181818;stroke-width:1;"/><path d="M24.7656,359.4844 Q24.9219,359.2656 25.1094,359.1563 Q25.2969,359.0469 25.5156,359.0469 Q25.8906,359.0469 26.125,359.3125 Q26.3594,359.5625 26.3594,360.1719 L26.3594,361.625 Q26.3594,362.2344 26.125,362.5 Q25.8906,362.7656 25.5156,362.7656 Q25.1719,362.7656 24.9688,362.5625 Q24.7656,362.375 24.6563,361.8594 Q24.6094,361.5 24.4219,361.3125 Q24.0938,360.9375 23.4844,360.7188 Q22.875,360.5 22.25,360.5 Q21.4844,360.5 20.8438,360.8281 Q20.2188,361.1563 19.7188,361.9063 Q19.2344,362.6563 19.2344,363.6875 L19.2344,364.7813 Q19.2344,366.0156 20.125,366.8438 Q21.0156,367.6563 22.6094,367.6563 Q23.5469,367.6563 24.2031,367.4063 Q24.5938,367.25 25.0156,366.8125 Q25.2813,366.5469 25.4219,366.4688 Q25.5781,366.3906 25.7813,366.3906 Q26.1094,366.3906 26.3594,366.6563 Q26.625,366.9063 26.625,367.25 Q26.625,367.5938 26.2813,368 Q25.7813,368.5781 24.9844,368.9063 Q23.9063,369.3594 22.6094,369.3594 Q21.0938,369.3594 19.8906,368.7344 Q18.9063,368.2344 18.2188,367.1719 Q17.5313,366.0938 17.5313,364.8125 L17.5313,363.6563 Q17.5313,362.3281 18.1406,361.1875 Q18.7656,360.0313 19.8594,359.4219 Q20.9531,358.7969 22.1875,358.7969 Q22.9219,358.7969 23.5625,358.9688 Q24.2188,359.125 24.7656,359.4844 Z " fill="#000000"/><text fill="#000000" font-family="sans-serif" font-size="14" lengthAdjust="spacing" textLength="62.2412" x="36" y="369.3379">Utilisateur</text></g><!--class Proprietaire--><g class="entity" data-entity="Proprietaire" data-source-line="63" data-uid="ent0021" id="entity_Proprietaire"><rect fill="#F1F1F1" height="32" rx="2.5" ry="2.5" style="stroke:#181818;stroke-width:0.5;" width="104.3652" x="691" y="84.6094"/><ellipse cx="706" cy="100.6094" fill="#ADD1B2" rx="11" ry="11" style="stroke:#181818;stroke-width:1;"/><path d="M708.7656,96.4844 Q708.9219,96.2656 709.1094,96.1563 Q709.2969,96.0469 709.5156,96.0469 Q709.8906,96.0469 710.125,96.3125 Q710.3594,96.5625 710.3594,97.1719 L710.3594,98.625 Q710.3594,99.2344 710.125,99.5 Q709.8906,99.7656 709.5156,99.7656 Q709.1719,99.7656 708.9688,99.5625 Q708.7656,99.375 708.6563,98.8594 Q708.6094,98.5 708.4219,98.3125 Q708.0938,97.9375 707.4844,97.7188 Q706.875,97.5 706.25,97.5 Q705.4844,97.5 704.8438,97.8281 Q704.2188,98.1563 703.7188,98.9063 Q703.2344,99.6563 703.2344,100.6875 L703.2344,101.7813 Q703.2344,103.0156 704.125,103.8438 Q705.0156,104.6563 706.6094,104.6563 Q707.5469,104.6563 708.2031,104.4063 Q708.5938,104.25 709.0156,103.8125 Q709.2813,103.5469 709.4219,103.4688 Q709.5781,103.3906 709.7813,103.3906 Q710.1094,103.3906 710.3594,103.6563 Q710.625,103.9063 710.625,104.25 Q710.625,104.5938 710.2813,105 Q709.7813,105.5781 708.9844,105.9063 Q707.9063,106.3594 706.6094,106.3594 Q705.0938,106.3594 703.8906,105.7344 Q702.9063,105.2344 702.2188,104.1719 Q701.5313,103.0938 701.5313,101.8125 L701.5313,100.6563 Q701.5313,99.3281 702.1406,98.1875 Q702.7656,97.0313 703.8594,96.4219 Q704.9531,95.7969 706.1875,95.7969 Q706.9219,95.7969 707.5625,95.9688 Q708.2188,96.125 708.7656,96.4844 Z " fill="#000000"/><text fill="#000000" font-family="sans-serif" font-size="14" lengthAdjust="spacing" textLength="72.3652" x="720" y="106.3379">Proprietaire</text></g><!--class Domaine--><g class="entity" data-entity="Domaine" data-source-line="64" data-uid="ent0023" id="entity_Domaine"><rect fill="#F1F1F1" height="32" rx="2.5" ry="2.5" style="stroke:#181818;stroke-width:0.5;" width="88.0273" x="770" y="615.1094"/><ellipse cx="785" cy="631.1094" fill="#ADD1B2" rx="11" ry="11" style="stroke:#181818;stroke-width:1;"/><path d="M787.7656,626.9844 Q787.9219,626.7656 788.1094,626.6563 Q788.2969,626.5469 788.5156,626.5469 Q788.8906,626.5469 789.125,626.8125 Q789.3594,627.0625 789.3594,627.6719 L789.3594,629.125 Q789.3594,629.7344 789.125,630 Q788.8906,630.2656 788.5156,630.2656 Q788.1719,630.2656 787.9688,630.0625 Q787.7656,629.875 787.6563,629.3594 Q787.6094,629 787.4219,628.8125 Q787.0938,628.4375 786.4844,628.2188 Q785.875,628 785.25,628 Q784.4844,628 783.8438,628.3281 Q783.2188,628.6563 782.7188,629.4063 Q782.2344,630.1563 782.2344,631.1875 L782.2344,632.2813 Q782.2344,633.5156 783.125,634.3438 Q784.0156,635.1563 785.6094,635.1563 Q786.5469,635.1563 787.2031,634.9063 Q787.5938,634.75 788.0156,634.3125 Q788.2813,634.0469 788.4219,633.9688 Q788.5781,633.8906 788.7813,633.8906 Q789.1094,633.8906 789.3594,634.1563 Q789.625,634.4063 789.625,634.75 Q789.625,635.0938 789.2813,635.5 Q788.7813,636.0781 787.9844,636.4063 Q786.9063,636.8594 785.6094,636.8594 Q784.0938,636.8594 782.8906,636.2344 Q781.9063,635.7344 781.2188,634.6719 Q780.5313,633.5938 780.5313,632.3125 L780.5313,631.1563 Q780.5313,629.8281 781.1406,628.6875 Q781.7656,627.5313 782.8594,626.9219 Q783.9531,626.2969 785.1875,626.2969 Q785.9219,626.2969 786.5625,626.4688 Q787.2188,626.625 787.7656,626.9844 Z " fill="#000000"/><text fill="#000000" font-family="sans-serif" font-size="14" lengthAdjust="spacing" textLength="56.0273" x="799" y="636.8379">Domaine</text></g><!--link SoftDeletes to Timestamps--><g class="link" data-entity-1="SoftDeletes" data-entity-2="Timestamps" data-source-line="33" data-uid="lnk7" id="link_SoftDeletes_Timestamps"><path codeLine="33" d="M535.77,859.7494 C511.21,884.2194 488.2193,907.1429 461.4493,933.8229" fill="none" id="SoftDeletes-to-Timestamps" style="stroke:#181818;stroke-width:1;"/><polygon fill="none" points="448.7,946.5294,465.6848,938.0727,457.2138,929.5731,448.7,946.5294" style="stroke:#181818;stroke-width:1;"/></g><!--link Publication to SoftDeletes--><g class="link" data-entity-1="Publication" data-entity-2="SoftDeletes" data-source-line="24" data-uid="lnk10" id="link_Publication_SoftDeletes"><path codeLine="24" d="M638.84,471.7794 C644.17,481.5894 648.99,491.5994 653,501.6094 C661.04,521.6894 659.22,528.0594 661,549.6094 C667.86,632.4394 693.61,660.1594 661,736.6094 C649.79,762.8994 641.2282,774.1789 620.6182,790.4189" fill="none" id="Publication-to-SoftDeletes" style="stroke:#181818;stroke-width:1;"/><polygon fill="none" points="606.48,801.5594,624.3317,795.1317,616.9048,785.7062,606.48,801.5594" style="stroke:#181818;stroke-width:1;"/></g><!--link Commentaire to SoftDeletes--><g class="link" data-entity-1="Commentaire" data-entity-2="SoftDeletes" data-source-line="31" data-uid="lnk12" id="link_Commentaire_SoftDeletes"><path codeLine="31" d="M564,668.7994 C564,707.1694 564,748.5694 564,783.4194" fill="none" id="Commentaire-to-SoftDeletes" style="stroke:#181818;stroke-width:1;"/><polygon fill="none" points="564,801.4194,570,783.4194,558,783.4194,564,801.4194" style="stroke:#181818;stroke-width:1;"/></g><!--link Like to Timestamps--><g class="link" data-entity-1="Like" data-entity-2="Timestamps" data-source-line="37" data-uid="lnk14" id="link_Like_Timestamps"><path codeLine="37" d="M195.26,660.1094 C191.84,710.1394 191.47,816.1194 240,885.6094 C261.23,915.9994 278.9172,930.3214 311.0572,945.7214" fill="none" id="Like-to-Timestamps" style="stroke:#181818;stroke-width:1;"/><polygon fill="none" points="327.29,953.4994,313.6499,940.3105,308.4646,951.1323,327.29,953.4994" style="stroke:#181818;stroke-width:1;"/></g><!--link MediaPublication to Timestamps--><g class="link" data-entity-1="MediaPublication" data-entity-2="Timestamps" data-source-line="49" data-uid="lnk16" id="link_MediaPublication_Timestamps"><path codeLine="49" d="M382.72,712.6394 C390.67,786.1094 400.1354,873.4536 406.0854,928.4936" fill="none" id="MediaPublication-to-Timestamps" style="stroke:#181818;stroke-width:1;"/><polygon fill="none" points="408.02,946.3894,412.0507,927.8488,400.1202,929.1385,408.02,946.3894" style="stroke:#181818;stroke-width:1;"/></g><!--link MediaPublication to TypeMedia--><g class="link" data-entity-1="MediaPublication" data-entity-2="TypeMedia" data-source-line="56" data-uid="lnk17" id="link_MediaPublication_TypeMedia"><path codeLine="56" d="M347.06,712.7294 C340,733.8394 334.4609,750.4185 327.9909,769.7885" fill="none" id="MediaPublication-to-TypeMedia" style="stroke:#181818;stroke-width:1;"/><polygon fill="#181818" points="326.09,775.4794,332.7353,768.2103,327.6741,770.7369,325.1474,765.6757,326.09,775.4794" style="stroke:#181818;stroke-width:1;"/></g><!--link Utilisateur to Commentaire--><g class="link" data-entity-1="Utilisateur" data-entity-2="Commentaire" data-source-line="61" data-uid="lnk19" id="link_Utilisateur_Commentaire"><path codeLine="61" d="M58.84,379.8494 C67.03,403.1394 85.84,447.4194 117,471.6094 C147.33,495.1594 245.53,511.1894 283,519.6094 C364.27,537.8794 392.26,514.9394 468,549.6094 C490.74,560.0194 512.43,577.3194 529.41,593.2194" fill="none" id="Utilisateur-Commentaire" style="stroke:#181818;stroke-width:1;"/><text fill="#000000" font-family="sans-serif" font-size="13" lengthAdjust="spacing" textLength="36.8608" x="284" y="516.1045">auteur</text><text fill="#000000" font-family="sans-serif" font-size="13" lengthAdjust="spacing" textLength="7.23" x="52.2653" y="401.127">1</text><text fill="#000000" font-family="sans-serif" font-size="13" lengthAdjust="spacing" textLength="19.5127" x="502.8812" y="582.8386">0..*</text></g><!--link Utilisateur to Like--><g class="link" data-entity-1="Utilisateur" data-entity-2="Like" data-source-line="62" data-uid="lnk20" id="link_Utilisateur_Like"><path codeLine="62" d="M62.15,379.6494 C85.42,422.5394 152.37,545.9894 182.72,601.9394" fill="none" id="Utilisateur-Like" style="stroke:#181818;stroke-width:1;"/><text fill="#000000" font-family="sans-serif" font-size="13" lengthAdjust="spacing" textLength="36.8608" x="136" y="516.1045">auteur</text><text fill="#000000" font-family="sans-serif" font-size="13" lengthAdjust="spacing" textLength="7.23" x="66.0072" y="401.166">1</text><text fill="#000000" font-family="sans-serif" font-size="13" lengthAdjust="spacing" textLength="19.5127" x="158.3657" y="591.3847">0..*</text></g><!--link Proprietaire to Publication--><g class="link" data-entity-1="Proprietaire" data-entity-2="Publication" data-source-line="63" data-uid="lnk22" id="link_Proprietaire_Publication"><path codeLine="63" d="M732.37,116.7694 C713.45,143.7494 672.42,202.2694 635.13,255.4494" fill="none" id="Proprietaire-Publication" style="stroke:#181818;stroke-width:1;"/><text fill="#000000" font-family="sans-serif" font-size="13" lengthAdjust="spacing" textLength="68.6563" x="684" y="200.1045">publications</text><text fill="#000000" font-family="sans-serif" font-size="13" lengthAdjust="spacing" textLength="7.23" x="720.8445" y="138.0215">1</text><text fill="#000000" font-family="sans-serif" font-size="13" lengthAdjust="spacing" textLength="19.5127" x="620.7654" y="244.7861">0..*</text></g><!--link Proprietaire to Domaine--><g class="link" data-entity-1="Proprietaire" data-entity-2="Domaine" data-source-line="64" data-uid="lnk24" id="link_Proprietaire_Domaine"><path codeLine="64" d="M746.68,116.6994 C750.65,133.4594 756.96,161.3394 761,185.6094 C788.87,353.1194 807.78,558.4994 812.72,615.0694" fill="none" id="Proprietaire-Domaine" style="stroke:#181818;stroke-width:1;"/><text fill="#000000" font-family="sans-serif" font-size="13" lengthAdjust="spacing" textLength="56.3672" x="799" y="369.1045">domaines</text><text fill="#000000" font-family="sans-serif" font-size="13" lengthAdjust="spacing" textLength="7.23" x="739.7172" y="138.2325">1</text><text fill="#000000" font-family="sans-serif" font-size="13" lengthAdjust="spacing" textLength="19.5127" x="815.629" y="604.3612">0..*</text></g><!--link Publication to Commentaire--><g class="link" data-entity-1="Publication" data-entity-2="Commentaire" data-source-line="65" data-uid="lnk25" id="link_Publication_Commentaire"><path codeLine="65" d="M561.62,471.8294 C562.27,515.0094 562.97,561.9294 563.45,593.3794" fill="none" id="Publication-Commentaire" style="stroke:#181818;stroke-width:1;"/><text fill="#000000" font-family="sans-serif" font-size="13" lengthAdjust="spacing" textLength="81.6372" x="563" y="516.1045">commentaires</text><text fill="#000000" font-family="sans-serif" font-size="13" lengthAdjust="spacing" textLength="7.23" x="554.5041" y="493.1417">1</text><text fill="#000000" font-family="sans-serif" font-size="13" lengthAdjust="spacing" textLength="19.5127" x="542.7108" y="582.7407">0..*</text></g><!--link Publication to Like--><g class="link" data-entity-1="Publication" data-entity-2="Like" data-source-line="66" data-uid="lnk26" id="link_Publication_Like"><path codeLine="66" d="M477.3,421.0394 C433.46,450.7194 378.55,487.5094 329,519.6094 C307.89,533.2894 300.81,534.0994 281,549.6094 C260.77,565.4494 240.02,585.5794 224.33,601.7394" fill="none" id="Publication-Like" style="stroke:#181818;stroke-width:1;"/><text fill="#000000" font-family="sans-serif" font-size="13" lengthAdjust="spacing" textLength="26.0063" x="355" y="516.1045">likes</text><text fill="#000000" font-family="sans-serif" font-size="13" lengthAdjust="spacing" textLength="7.23" x="462.3677" y="423.1032">1</text><text fill="#000000" font-family="sans-serif" font-size="13" lengthAdjust="spacing" textLength="19.5127" x="209.0779" y="591.141">0..*</text></g><!--link Publication to MediaPublication--><g class="link" data-entity-1="Publication" data-entity-2="MediaPublication" data-source-line="67" data-uid="lnk27" id="link_Publication_MediaPublication"><path codeLine="67" d="M484.88,471.8294 C466.73,497.7394 447.64,524.9894 430.51,549.4394" fill="none" id="Publication-MediaPublication" style="stroke:#181818;stroke-width:1;"/><text fill="#000000" font-family="sans-serif" font-size="13" lengthAdjust="spacing" textLength="41.9072" x="462" y="516.1045">m&#233;dias</text><text fill="#000000" font-family="sans-serif" font-size="13" lengthAdjust="spacing" textLength="7.23" x="472.6081" y="493.1417">1</text><text fill="#000000" font-family="sans-serif" font-size="13" lengthAdjust="spacing" textLength="19.5127" x="415.8828" y="538.672">0..*</text></g><!--link Publication to Domaine--><g class="link" data-entity-1="Publication" data-entity-2="Domaine" data-source-line="68" data-uid="lnk28" id="link_Publication_Domaine"><path codeLine="68" d="M642.75,432.5794 C666.93,453.7894 692.8,477.8694 715,501.6094 C750.58,539.6694 786.44,589.8294 803.59,614.7194" fill="none" id="Publication-Domaine" style="stroke:#181818;stroke-width:1;"/><text fill="#000000" font-family="sans-serif" font-size="13" lengthAdjust="spacing" textLength="56.3672" x="730" y="516.1045">domaines</text><text fill="#000000" font-family="sans-serif" font-size="13" lengthAdjust="spacing" textLength="5.0591" x="650.3488" y="435.5161">*</text><text fill="#000000" font-family="sans-serif" font-size="13" lengthAdjust="spacing" textLength="5.0591" x="794.3188" y="604.1935">*</text></g><rect fill="#DDDDDD" height="84.4375" rx="7.5" ry="7.5" style="stroke:#000000;stroke-width:1;" width="281.209" x="335.916" y="1039.8281"/><text fill="#000000" font-family="sans-serif" font-size="14" font-weight="bold" lengthAdjust="spacing" textLength="56.7656" x="344.8057" y="1061.3613">Notation</text><text fill="#000000" font-family="sans-serif" font-size="14" font-weight="bold" lengthAdjust="spacing" textLength="84" x="418.3672" y="1061.3613">Signification</text><text fill="#000000" font-family="sans-serif" font-size="14" lengthAdjust="spacing" textLength="65.7822" x="344.8057" y="1078.9707">"1" -- "0..*"</text><text fill="#000000" font-family="sans-serif" font-size="14" lengthAdjust="spacing" textLength="89.4893" x="418.3672" y="1078.9707">Un &#224; plusieurs</text><text fill="#000000" font-family="sans-serif" font-size="14" lengthAdjust="spacing" textLength="47.8789" x="344.8057" y="1096.5801">"*" -- "*"</text><text fill="#000000" font-family="sans-serif" font-size="14" lengthAdjust="spacing" textLength="129.1719" x="418.3672" y="1096.5801">Plusieurs &#224; plusieurs</text><text fill="#000000" font-family="sans-serif" font-size="14" lengthAdjust="spacing" textLength="9.3242" x="344.8057" y="1114.1895">--</text><text fill="#000000" font-family="sans-serif" font-size="14" lengthAdjust="spacing" textLength="8.1758" x="414.4775" y="1114.1895">&gt;</text><text fill="#000000" font-family="sans-serif" font-size="14" lengthAdjust="spacing" textLength="52.917" x="555.3184" y="1114.1895">H&#233;ritage</text><line style="stroke:#000000;stroke-width:1;" x1="340.916" x2="612.125" y1="1046.8281" y2="1046.8281"/><line style="stroke:#000000;stroke-width:1;" x1="340.916" x2="612.125" y1="1064.4375" y2="1064.4375"/><line style="stroke:#000000;stroke-width:1;" x1="340.916" x2="612.125" y1="1082.0469" y2="1082.0469"/><line style="stroke:#000000;stroke-width:1;" x1="340.916" x2="612.125" y1="1099.6563" y2="1099.6563"/><line style="stroke:#000000;stroke-width:1;" x1="340.916" x2="612.125" y1="1117.2656" y2="1117.2656"/><line style="stroke:#000000;stroke-width:1;" x1="340.916" x2="340.916" y1="1046.8281" y2="1117.2656"/><line style="stroke:#000000;stroke-width:1;" x1="414.4775" x2="414.4775" y1="1046.8281" y2="1117.2656"/><line style="stroke:#000000;stroke-width:1;" x1="551.4287" x2="551.4287" y1="1046.8281" y2="1117.2656"/><line style="stroke:#000000;stroke-width:1;" x1="612.125" x2="612.125" y1="1046.8281" y2="1117.2656"/><!--SRC=[fLJDRjD04BxlKmmvW0HALQwHMgcbHMsLfX5EkAADCtL6tHzhTmmKmhjmxNFqnHZ_j74S4udYWxt-vfkPRsPdbuaDmgdn6GnXMYmCfPh9kmYluT8n1frMlqgz8fUQOedmPQ4Z3bEZOppu5fTAhKXGj3dVWqMxm11Ll2ENww0jv3gzqnacV2zv0gQiNMQmHQW2dJ07MXICbwbt2Vr0E5IgSON17bq3q16cFdA4dqf17QrTYC0WppjWue0ZI2IHoneicYBhG9AVqHNzw5NqRWHNoSra6xzWQqOmzYwRuNTkRB8AchWJYQoKD7TT9HYv4erYEFNUe7QD9Q_XiHZEDEECB3OMv-qYuES2uwZgIOP1BB-KQfS_7AwF8V6tV8O66UEcIH-yjUXOKy3d9lLNB-9EyZpuukkMEidKZl7tJ6EwswGeWqaDdK0LfOfG5XXPsxmLu1gNf7itzJwNI3DvLvIdAbPeoNsaT4KOEhM8LcEmtR0IDJfaM8GklD8oahjmtoZvi0pOsOSTsJi52kaD7Ftp8qxda_arV3eVdymkRoR9owBqw3jkDVEbqlvJrPp9KDHbus7mVY2YO71uSF1si3Mn8wZtPW-zcgbdtZJuF13Mtjl4TWj6zO5hRfjzNcVUQd9bXcMzYbi7Rv_qTFEtpwafmCXd7srd6qTW7ny4wpYzhPtwfIiZS-kMiF3CtihyhezWuhbsbNL2cQFRfrZhaj2HiOQvWyVVa9iYadGyFh4sUTSmVJRsCAlZ8T-BnuT0N5xzQrLgggMfFm00]--></g></svg>