<svg xmlns="http://www.w3.org/2000/svg" xmlns:xlink="http://www.w3.org/1999/xlink" contentStyleType="text/css" data-diagram-type="SEQUENCE" height="1061px" preserveAspectRatio="none" style="width:660px;height:1061px;background:#FFFFFF;" version="1.1" viewBox="0 0 660 1061" width="660px" zoomAndPan="magnify"><title>Cr&#233;ation d'une publication (&#233;diteur enrichi)</title><defs/><g><text fill="#000000" font-family="sans-serif" font-size="14" font-weight="bold" lengthAdjust="spacing" textLength="285.6807" x="183.3604" y="29.5332">Cr&#233;ation d'une publication (&#233;diteur enrichi)</text><rect fill="none" height="170.1094" style="stroke:#000000;stroke-width:1.5;" width="633.4014" x="10" y="279.625"/><rect fill="none" height="138.2422" style="stroke:#000000;stroke-width:1.5;" width="251.6318" x="391.7695" y="719.5469"/><g><title>Propri&#233;taire</title><rect fill="#000000" fill-opacity="0.00000" height="858.625" width="8" x="55.1826" y="121.2188"/><line style="stroke:#181818;stroke-width:0.5;stroke-dasharray:5.0,5.0;" x1="59" x2="59" y1="121.2188" y2="979.8438"/></g><g><title>Frontend</title><rect fill="#000000" fill-opacity="0.00000" height="858.625" width="8" x="255.4697" y="121.2188"/><line style="stroke:#181818;stroke-width:0.5;stroke-dasharray:5.0,5.0;" x1="259.4526" x2="259.4526" y1="121.2188" y2="979.8438"/></g><g><title>API</title><rect fill="#000000" fill-opacity="0.00000" height="858.625" width="8" x="416.0522" y="121.2188"/><line style="stroke:#181818;stroke-width:0.5;stroke-dasharray:5.0,5.0;" x1="419.7695" x2="419.7695" y1="121.2188" y2="979.8438"/></g><g><title>BaseDeDonnees</title><rect fill="#000000" fill-opacity="0.00000" height="858.625" width="8" x="573.4775" y="121.2188"/><line style="stroke:#181818;stroke-width:0.5;stroke-dasharray:5.0,5.0;" x1="576.5537" x2="576.5537" y1="121.2188" y2="979.8438"/></g><g class="participant participant-head" data-participant="Auth"><text fill="#000000" font-family="sans-serif" font-size="14" lengthAdjust="spacing" textLength="72.3652" x="20" y="118.1426">Propri&#233;taire</text><ellipse cx="59.1826" cy="52.1094" fill="#E2E2F0" rx="8" ry="8" style="stroke:#181818;stroke-width:0.5;"/><path d="M59.1826,60.1094 L59.1826,87.1094 M46.1826,68.1094 L72.1826,68.1094 M59.1826,87.1094 L46.1826,102.1094 M59.1826,87.1094 L72.1826,102.1094" fill="none" style="stroke:#181818;stroke-width:0.5;"/></g><g class="participant participant-tail" data-participant="Auth"><text fill="#000000" font-family="sans-serif" font-size="14" lengthAdjust="spacing" textLength="72.3652" x="20" y="993.377">Propri&#233;taire</text><ellipse cx="59.1826" cy="1004.9531" fill="#E2E2F0" rx="8" ry="8" style="stroke:#181818;stroke-width:0.5;"/><path d="M59.1826,1012.9531 L59.1826,1039.9531 M46.1826,1020.9531 L72.1826,1020.9531 M59.1826,1039.9531 L46.1826,1054.9531 M59.1826,1039.9531 L72.1826,1054.9531" fill="none" style="stroke:#181818;stroke-width:0.5;"/></g><g class="participant participant-head" data-participant="Front"><rect fill="#E2E2F0" height="31.6094" rx="2.5" ry="2.5" style="stroke:#181818;stroke-width:0.5;" width="70.0342" x="224.4526" y="88.6094"/><text fill="#000000" font-family="sans-serif" font-size="14" lengthAdjust="spacing" textLength="56.0342" x="231.4526" y="110.1426">Frontend</text></g><g class="participant participant-tail" data-participant="Front"><rect fill="#E2E2F0" height="31.6094" rx="2.5" ry="2.5" style="stroke:#181818;stroke-width:0.5;" width="70.0342" x="224.4526" y="978.8438"/><text fill="#000000" font-family="sans-serif" font-size="14" lengthAdjust="spacing" textLength="56.0342" x="231.4526" y="1000.377">Frontend</text></g><g class="participant participant-head" data-participant="API"><rect fill="#E2E2F0" height="31.6094" rx="2.5" ry="2.5" style="stroke:#181818;stroke-width:0.5;" width="36.5654" x="401.7695" y="88.6094"/><text fill="#000000" font-family="sans-serif" font-size="14" lengthAdjust="spacing" textLength="22.5654" x="408.7695" y="110.1426">API</text></g><g class="participant participant-tail" data-participant="API"><rect fill="#E2E2F0" height="31.6094" rx="2.5" ry="2.5" style="stroke:#181818;stroke-width:0.5;" width="36.5654" x="401.7695" y="978.8438"/><text fill="#000000" font-family="sans-serif" font-size="14" lengthAdjust="spacing" textLength="22.5654" x="408.7695" y="1000.377">API</text></g><g class="participant participant-head" data-participant="BD"><text fill="#000000" font-family="sans-serif" font-size="14" lengthAdjust="spacing" textLength="105.8477" x="521.5537" y="118.1426">BaseDeDonnees</text><path d="M559.4775,67.6094 C559.4775,57.6094 577.4775,57.6094 577.4775,57.6094 C577.4775,57.6094 595.4775,57.6094 595.4775,67.6094 L595.4775,93.6094 C595.4775,103.6094 577.4775,103.6094 577.4775,103.6094 C577.4775,103.6094 559.4775,103.6094 559.4775,93.6094 L559.4775,67.6094" fill="#E2E2F0" style="stroke:#181818;stroke-width:1.5;"/><path d="M559.4775,67.6094 C559.4775,77.6094 577.4775,77.6094 577.4775,77.6094 C577.4775,77.6094 595.4775,77.6094 595.4775,67.6094" fill="none" style="stroke:#181818;stroke-width:1.5;"/></g><g class="participant participant-tail" data-participant="BD"><text fill="#000000" font-family="sans-serif" font-size="14" lengthAdjust="spacing" textLength="105.8477" x="521.5537" y="993.377">BaseDeDonnees</text><path d="M559.4775,1006.4531 C559.4775,996.4531 577.4775,996.4531 577.4775,996.4531 C577.4775,996.4531 595.4775,996.4531 595.4775,1006.4531 L595.4775,1032.4531 C595.4775,1042.4531 577.4775,1042.4531 577.4775,1042.4531 C577.4775,1042.4531 559.4775,1042.4531 559.4775,1032.4531 L559.4775,1006.4531" fill="#E2E2F0" style="stroke:#181818;stroke-width:1.5;"/><path d="M559.4775,1006.4531 C559.4775,1016.4531 577.4775,1016.4531 577.4775,1016.4531 C577.4775,1016.4531 595.4775,1016.4531 595.4775,1006.4531" fill="none" style="stroke:#181818;stroke-width:1.5;"/></g><rect fill="#EEEEEE" height="3" style="stroke:#EEEEEE;stroke-width:1;" width="653.4014" x="0" y="152.3945"/><line style="stroke:#000000;stroke-width:1;" x1="0" x2="653.4014" y1="152.3945" y2="152.3945"/><line style="stroke:#000000;stroke-width:1;" x1="0" x2="653.4014" y1="155.3945" y2="155.3945"/><rect fill="#EEEEEE" height="24.3516" style="stroke:#000000;stroke-width:2;" width="115.1245" x="269.1384" y="141.2188"/><text fill="#000000" font-family="sans-serif" font-size="13" font-weight="bold" lengthAdjust="spacing" textLength="97.5127" x="275.1384" y="158.7139">&#201;dition enrichie</text><g class="message" data-participant-1="Auth" data-participant-2="Front"><polygon fill="#181818" points="247.4697,213.2734,257.4697,217.2734,247.4697,221.2734,251.4697,217.2734" style="stroke:#181818;stroke-width:1;"/><line style="stroke:#181818;stroke-width:1;" x1="59.1826" x2="253.4697" y1="217.2734" y2="217.2734"/><text fill="#000000" font-family="sans-serif" font-size="13" lengthAdjust="spacing" textLength="83.8335" x="66.1826" y="196.0654">&#201;diter contenu</text><text fill="#000000" font-family="sans-serif" font-size="13" lengthAdjust="spacing" textLength="176.2871" x="66.1826" y="212.417">(TipTap: code, maths, m&#233;dias)</text></g><path d="M264,180.5703 L264,222.5703 L402,222.5703 L402,190.5703 L392,180.5703 L264,180.5703" fill="#FEFFDD" style="stroke:#181818;stroke-width:0.5;"/><path d="M392,180.5703 L392,190.5703 L402,190.5703 L392,180.5703" fill="#FEFFDD" style="stroke:#181818;stroke-width:0.5;"/><text fill="#000000" font-family="sans-serif" font-size="13" lengthAdjust="spacing" textLength="117.0825" x="270" y="199.0654">contenuJson produit</text><text fill="#000000" font-family="sans-serif" font-size="13" lengthAdjust="spacing" textLength="67.52" x="270" y="215.417">par l'&#233;diteur</text><rect fill="#EEEEEE" height="3" style="stroke:#EEEEEE;stroke-width:1;" width="653.4014" x="0" y="249.4492"/><line style="stroke:#000000;stroke-width:1;" x1="0" x2="653.4014" y1="249.4492" y2="249.4492"/><line style="stroke:#000000;stroke-width:1;" x1="0" x2="653.4014" y1="252.4492" y2="252.4492"/><rect fill="#EEEEEE" height="24.3516" style="stroke:#000000;stroke-width:2;" width="110.0781" x="271.6616" y="238.2734"/><text fill="#000000" font-family="sans-serif" font-size="13" font-weight="bold" lengthAdjust="spacing" textLength="92.4663" x="277.6616" y="255.7686">Upload m&#233;dias</text><path d="M10,279.625 L75.2109,279.625 L75.2109,287.9766 L65.2109,297.9766 L10,297.9766 L10,279.625" fill="#EEEEEE" style="stroke:#000000;stroke-width:1.5;"/><rect fill="none" height="170.1094" style="stroke:#000000;stroke-width:1.5;" width="633.4014" x="10" y="279.625"/><text fill="#000000" font-family="sans-serif" font-size="13" font-weight="bold" lengthAdjust="spacing" textLength="20.2109" x="25" y="294.1201">opt</text><text fill="#000000" font-family="sans-serif" font-size="11" font-weight="bold" lengthAdjust="spacing" textLength="81.2969" x="90.2109" y="293.0439">[image / fichier]</text><g class="message" data-participant-1="Auth" data-participant-2="Front"><polygon fill="#181818" points="247.4697,316.3281,257.4697,320.3281,247.4697,324.3281,251.4697,320.3281" style="stroke:#181818;stroke-width:1;"/><line style="stroke:#181818;stroke-width:1;" x1="59.1826" x2="253.4697" y1="320.3281" y2="320.3281"/><text fill="#000000" font-family="sans-serif" font-size="13" lengthAdjust="spacing" textLength="91.7554" x="66.1826" y="315.4717">Glisser-d&#233;poser</text></g><g class="message" data-participant-1="Front" data-participant-2="API"><polygon fill="#181818" points="408.0522,346.6797,418.0522,350.6797,408.0522,354.6797,412.0522,350.6797" style="stroke:#181818;stroke-width:1;"/><line style="stroke:#181818;stroke-width:1;" x1="259.4697" x2="414.0522" y1="350.6797" y2="350.6797"/><text fill="#000000" font-family="sans-serif" font-size="13" lengthAdjust="spacing" textLength="105.4854" x="266.4697" y="345.8232">POST /api/medias</text></g><g class="message" data-participant-1="API" data-participant-2="BD"><polygon fill="#181818" points="565.4775,377.0313,575.4775,381.0313,565.4775,385.0313,569.4775,381.0313" style="stroke:#181818;stroke-width:1;"/><line style="stroke:#181818;stroke-width:1;" x1="420.0522" x2="571.4775" y1="381.0313" y2="381.0313"/><text fill="#000000" font-family="sans-serif" font-size="13" lengthAdjust="spacing" textLength="86.6899" x="427.0522" y="376.1748">INSERT media</text></g><g class="message" data-participant-1="BD" data-participant-2="API"><polygon fill="#181818" points="431.0522,407.3828,421.0522,411.3828,431.0522,415.3828,427.0522,411.3828" style="stroke:#181818;stroke-width:1;"/><line style="stroke:#181818;stroke-width:1;stroke-dasharray:2.0,2.0;" x1="425.0522" x2="576.4775" y1="411.3828" y2="411.3828"/><text fill="#000000" font-family="sans-serif" font-size="13" lengthAdjust="spacing" textLength="26.0063" x="437.0522" y="406.5264">URL</text></g><g class="message" data-participant-1="API" data-participant-2="Front"><polygon fill="#181818" points="270.4697,437.7344,260.4697,441.7344,270.4697,445.7344,266.4697,441.7344" style="stroke:#181818;stroke-width:1;"/><line style="stroke:#181818;stroke-width:1;stroke-dasharray:2.0,2.0;" x1="264.4697" x2="419.0522" y1="441.7344" y2="441.7344"/><text fill="#000000" font-family="sans-serif" font-size="13" lengthAdjust="spacing" textLength="62.1499" x="276.4697" y="436.8779">{ url, type }</text></g><rect fill="#EEEEEE" height="3" style="stroke:#EEEEEE;stroke-width:1;" width="653.4014" x="0" y="477.9102"/><line style="stroke:#000000;stroke-width:1;" x1="0" x2="653.4014" y1="477.9102" y2="477.9102"/><line style="stroke:#000000;stroke-width:1;" x1="0" x2="653.4014" y1="480.9102" y2="480.9102"/><rect fill="#EEEEEE" height="24.3516" style="stroke:#000000;stroke-width:2;" width="70.3418" x="291.5298" y="466.7344"/><text fill="#000000" font-family="sans-serif" font-size="13" font-weight="bold" lengthAdjust="spacing" textLength="52.73" x="297.5298" y="484.2295">Cr&#233;ation</text><g class="message" data-participant-1="Front" data-participant-2="API"><polygon fill="#181818" points="408.0522,535.7891,418.0522,539.7891,408.0522,543.7891,412.0522,539.7891" style="stroke:#181818;stroke-width:1;"/><line style="stroke:#181818;stroke-width:1;" x1="259.4697" x2="414.0522" y1="539.7891" y2="539.7891"/><text fill="#000000" font-family="sans-serif" font-size="13" lengthAdjust="spacing" textLength="132.2344" x="266.4697" y="518.5811">POST /api/publications</text><text fill="#000000" font-family="sans-serif" font-size="13" lengthAdjust="spacing" textLength="136.5825" x="266.4697" y="534.9326">{ contenuJson, titre, ... }</text></g><g class="message" data-participant-1="API" data-participant-2="API"><line style="stroke:#181818;stroke-width:1;" x1="420.0522" x2="462.0522" y1="570.1406" y2="570.1406"/><line style="stroke:#181818;stroke-width:1;" x1="462.0522" x2="462.0522" y1="570.1406" y2="583.1406"/><line style="stroke:#181818;stroke-width:1;" x1="421.0522" x2="462.0522" y1="583.1406" y2="583.1406"/><polygon fill="#181818" points="431.0522,579.1406,421.0522,583.1406,431.0522,587.1406,427.0522,583.1406" style="stroke:#181818;stroke-width:1;"/><text fill="#000000" font-family="sans-serif" font-size="13" lengthAdjust="spacing" textLength="143.4253" x="427.0522" y="565.2842">Purifier &#8594; g&#233;n&#233;rer HTML</text></g><g class="message" data-participant-1="API" data-participant-2="BD"><polygon fill="#181818" points="565.4775,625.8438,575.4775,629.8438,565.4775,633.8438,569.4775,629.8438" style="stroke:#181818;stroke-width:1;"/><line style="stroke:#181818;stroke-width:1;" x1="420.0522" x2="571.4775" y1="629.8438" y2="629.8438"/><text fill="#000000" font-family="sans-serif" font-size="13" lengthAdjust="spacing" textLength="113.439" x="427.0522" y="608.6357">INSERT publication</text><text fill="#000000" font-family="sans-serif" font-size="13" lengthAdjust="spacing" textLength="93.5327" x="427.0522" y="624.9873">(JSON + HTML)</text></g><g class="message" data-participant-1="BD" data-participant-2="API"><polygon fill="#181818" points="431.0522,656.1953,421.0522,660.1953,431.0522,664.1953,427.0522,660.1953" style="stroke:#181818;stroke-width:1;"/><line style="stroke:#181818;stroke-width:1;stroke-dasharray:2.0,2.0;" x1="425.0522" x2="576.4775" y1="660.1953" y2="660.1953"/><text fill="#000000" font-family="sans-serif" font-size="13" lengthAdjust="spacing" textLength="99.728" x="437.0522" y="655.3389">Publication cr&#233;&#233;e</text></g><rect fill="#EEEEEE" height="3" style="stroke:#EEEEEE;stroke-width:1;" width="653.4014" x="0" y="689.3711"/><line style="stroke:#000000;stroke-width:1;" x1="0" x2="653.4014" y1="689.3711" y2="689.3711"/><line style="stroke:#000000;stroke-width:1;" x1="0" x2="653.4014" y1="692.3711" y2="692.3711"/><rect fill="#EEEEEE" height="24.3516" style="stroke:#000000;stroke-width:2;" width="89.1055" x="282.1479" y="678.1953"/><text fill="#000000" font-family="sans-serif" font-size="13" font-weight="bold" lengthAdjust="spacing" textLength="71.4937" x="288.1479" y="695.6904">Notification</text><path d="M391.7695,719.5469 L451.9404,719.5469 L451.9404,727.8984 L441.9404,737.8984 L391.7695,737.8984 L391.7695,719.5469" fill="#EEEEEE" style="stroke:#000000;stroke-width:1.5;"/><rect fill="none" height="138.2422" style="stroke:#000000;stroke-width:1.5;" width="251.6318" x="391.7695" y="719.5469"/><text fill="#000000" font-family="sans-serif" font-size="13" font-weight="bold" lengthAdjust="spacing" textLength="15.1709" x="406.7695" y="734.042">alt</text><text fill="#000000" font-family="sans-serif" font-size="11" font-weight="bold" lengthAdjust="spacing" textLength="97.1846" x="466.9404" y="732.9658">[abonn&#233;s existent]</text><g class="message" data-participant-1="API" data-participant-2="BD"><polygon fill="#181818" points="565.4775,756.25,575.4775,760.25,565.4775,764.25,569.4775,760.25" style="stroke:#181818;stroke-width:1;"/><line style="stroke:#181818;stroke-width:1;" x1="420.0522" x2="571.4775" y1="760.25" y2="760.25"/><text fill="#000000" font-family="sans-serif" font-size="13" lengthAdjust="spacing" textLength="94.6689" x="427.0522" y="755.3936">Notifier abonn&#233;s</text></g><g class="message" data-participant-1="BD" data-participant-2="API"><polygon fill="#181818" points="431.0522,786.6016,421.0522,790.6016,431.0522,794.6016,427.0522,790.6016" style="stroke:#181818;stroke-width:1;"/><line style="stroke:#181818;stroke-width:1;stroke-dasharray:2.0,2.0;" x1="425.0522" x2="576.4775" y1="790.6016" y2="790.6016"/><text fill="#000000" font-family="sans-serif" font-size="13" lengthAdjust="spacing" textLength="18.7827" x="437.0522" y="785.7451">OK</text></g><line style="stroke:#000000;stroke-width:1;stroke-dasharray:2.0,2.0;" x1="391.7695" x2="643.4014" y1="799.6016" y2="799.6016"/><text fill="#000000" font-family="sans-serif" font-size="11" font-weight="bold" lengthAdjust="spacing" textLength="39.7192" x="396.7695" y="811.0205">[aucun]</text><g class="message" data-participant-1="API" data-participant-2="API"><line style="stroke:#181818;stroke-width:1;" x1="420.0522" x2="462.0522" y1="836.7891" y2="836.7891"/><line style="stroke:#181818;stroke-width:1;" x1="462.0522" x2="462.0522" y1="836.7891" y2="849.7891"/><line style="stroke:#181818;stroke-width:1;" x1="421.0522" x2="462.0522" y1="849.7891" y2="849.7891"/><polygon fill="#181818" points="431.0522,845.7891,421.0522,849.7891,431.0522,853.7891,427.0522,849.7891" style="stroke:#181818;stroke-width:1;"/><text fill="#000000" font-family="sans-serif" font-size="13" lengthAdjust="spacing" textLength="25.2891" x="427.0522" y="831.9326">Skip</text></g><rect fill="#EEEEEE" height="3" style="stroke:#EEEEEE;stroke-width:1;" width="653.4014" x="0" y="885.9648"/><line style="stroke:#000000;stroke-width:1;" x1="0" x2="653.4014" y1="885.9648" y2="885.9648"/><line style="stroke:#000000;stroke-width:1;" x1="0" x2="653.4014" y1="888.9648" y2="888.9648"/><rect fill="#EEEEEE" height="24.3516" style="stroke:#000000;stroke-width:2;" width="59.5" x="296.9507" y="874.7891"/><text fill="#000000" font-family="sans-serif" font-size="13" font-weight="bold" lengthAdjust="spacing" textLength="41.8882" x="302.9507" y="892.2842">Retour</text><g class="message" data-participant-1="API" data-participant-2="Front"><polygon fill="#181818" points="270.4697,927.4922,260.4697,931.4922,270.4697,935.4922,266.4697,931.4922" style="stroke:#181818;stroke-width:1;"/><line style="stroke:#181818;stroke-width:1;stroke-dasharray:2.0,2.0;" x1="264.4697" x2="419.0522" y1="931.4922" y2="931.4922"/><text fill="#000000" font-family="sans-serif" font-size="13" lengthAdjust="spacing" textLength="109.8462" x="276.4697" y="926.6357">{ publication, html }</text></g><g class="message" data-participant-1="Front" data-participant-2="Auth"><polygon fill="#181818" points="70.1826,957.8438,60.1826,961.8438,70.1826,965.8438,66.1826,961.8438" style="stroke:#181818;stroke-width:1;"/><line style="stroke:#181818;stroke-width:1;stroke-dasharray:2.0,2.0;" x1="64.1826" x2="258.4697" y1="961.8438" y2="961.8438"/><text fill="#000000" font-family="sans-serif" font-size="13" lengthAdjust="spacing" textLength="80.2153" x="76.1826" y="956.9873">Rendu enrichi</text></g><!--SRC=[TLDBRjim4Dtp5BDBZFgp5-02STsFqzGsR6Vd3IrDBA8oIP13e4NGRO5kUmkTGpVfIJgah5XnqOq-VFDvxysG55K8xrnJIr96Gt4JD88DXqhbxSbjKnUAC3X0xLHUge4GCYVZOEsCTQgfIIg783tS1Ig5bOvKhgpK11-SqOIwY63wVeNUhHSfQxqGXIHva1vXneyvpetMY3wYixaGqoaqlvX4f7CcWJ2TYjWFHc_RqbaRWmxor3JizUrEsPsq6PyKE8IJfDBpAmgIVY2q8GIdZYLbNSwzvnRMcI8escic2zLDfp_nUBILaKLN8v8mba2Tv15X0a-9cXC0LzG-LifxTAEYgQtnAI8XCOJrPx1URNSmaLPDJXWhnn9i3yEpUGQBvVRzPWS9OcGsXr6N-BXvw68lxPuXk6e8zDqY_10yWCJzCcMc_R_slT7xlNxk6yC55JasSZmUSzaplpO_EFN4ok7FpzzmR6hTr8x_Fks-F8X_TVHwy93kjwibl4cn0z6NjkvjOSxScngJZgKXRfQ_I94LWJpmoZIr1_ocF1EcrmQsASoeYxjoSVLPOCNh9qCUz2KrOTklohvuk44oV1NYybrRtbCrX99E5NjqTZcMueN8E5qNeTlXlm00]--></g></svg>