<svg xmlns="http://www.w3.org/2000/svg" xmlns:xlink="http://www.w3.org/1999/xlink" contentStyleType="text/css" data-diagram-type="SEQUENCE" height="1494px" preserveAspectRatio="none" style="width:811px;height:1494px;background:#FFFFFF;" version="1.1" viewBox="0 0 811 1494" width="811px" zoomAndPan="magnify"><title>Interactions : Commentaire et Like</title><defs/><g><text fill="#000000" font-family="sans-serif" font-size="14" font-weight="bold" lengthAdjust="spacing" textLength="229.5029" x="287.1987" y="29.5332">Interactions : Commentaire et Like</text><rect fill="none" height="222.8125" style="stroke:#000000;stroke-width:1.5;" width="672.5181" x="10" y="431.3828"/><rect fill="none" height="315.3516" style="stroke:#000000;stroke-width:1.5;" width="784.9004" x="10" y="712.5469"/><rect fill="none" height="125.2422" style="stroke:#000000;stroke-width:1.5;" width="483.7441" x="198.7739" y="865.3047"/><rect fill="none" height="309.3516" style="stroke:#000000;stroke-width:1.5;" width="682.5181" x="10" y="1086.25"/><rect fill="none" height="155.5938" style="stroke:#000000;stroke-width:1.5;" width="283.3027" x="399.2153" y="1172.3047"/><g><title>Visiteur</title><rect fill="#000000" fill-opacity="0.00000" height="1291.3828" width="8" x="42.3413" y="121.2188"/><line style="stroke:#181818;stroke-width:0.5;stroke-dasharray:5.0,5.0;" x1="46" x2="46" y1="121.2188" y2="1412.6016"/></g><g><title>Frontend</title><rect fill="#000000" fill-opacity="0.00000" height="1291.3828" width="8" x="239.791" y="121.2188"/><line style="stroke:#181818;stroke-width:0.5;stroke-dasharray:5.0,5.0;" x1="243.7739" x2="243.7739" y1="121.2188" y2="1412.6016"/></g><g><title>API</title><rect fill="#000000" fill-opacity="0.00000" height="1291.3828" width="8" x="423.498" y="121.2188"/><line style="stroke:#181818;stroke-width:0.5;stroke-dasharray:5.0,5.0;" x1="427.2153" x2="427.2153" y1="121.2188" y2="1412.6016"/></g><g><title>BaseDeDonnees</title><rect fill="#000000" fill-opacity="0.00000" height="1291.3828" width="8" x="612.5942" y="121.2188"/><line style="stroke:#181818;stroke-width:0.5;stroke-dasharray:5.0,5.0;" x1="615.6704" x2="615.6704" y1="121.2188" y2="1412.6016"/></g><g class="participant participant-head" data-participant="User"><text fill="#000000" font-family="sans-serif" font-size="14" lengthAdjust="spacing" textLength="46.6826" x="20" y="118.1426">Visiteur</text><ellipse cx="46.3413" cy="52.1094" fill="#E2E2F0" rx="8" ry="8" style="stroke:#181818;stroke-width:0.5;"/><path d="M46.3413,60.1094 L46.3413,87.1094 M33.3413,68.1094 L59.3413,68.1094 M46.3413,87.1094 L33.3413,102.1094 M46.3413,87.1094 L59.3413,102.1094" fill="none" style="stroke:#181818;stroke-width:0.5;"/></g><g class="participant participant-tail" data-participant="User"><text fill="#000000" font-family="sans-serif" font-size="14" lengthAdjust="spacing" textLength="46.6826" x="20" y="1426.1348">Visiteur</text><ellipse cx="46.3413" cy="1437.7109" fill="#E2E2F0" rx="8" ry="8" style="stroke:#181818;stroke-width:0.5;"/><path d="M46.3413,1445.7109 L46.3413,1472.7109 M33.3413,1453.7109 L59.3413,1453.7109 M46.3413,1472.7109 L33.3413,1487.7109 M46.3413,1472.7109 L59.3413,1487.7109" fill="none" style="stroke:#181818;stroke-width:0.5;"/></g><g class="participant participant-head" data-participant="Front"><rect fill="#E2E2F0" height="31.6094" rx="2.5" ry="2.5" style="stroke:#181818;stroke-width:0.5;" width="70.0342" x="208.7739" y="88.6094"/><text fill="#000000" font-family="sans-serif" font-size="14" lengthAdjust="spacing" textLength="56.0342" x="215.7739" y="110.1426">Frontend</text></g><g class="participant participant-tail" data-participant="Front"><rect fill="#E2E2F0" height="31.6094" rx="2.5" ry="2.5" style="stroke:#181818;stroke-width:0.5;" width="70.0342" x="208.7739" y="1411.6016"/><text fill="#000000" font-family="sans-serif" font-size="14" lengthAdjust="spacing" textLength="56.0342" x="215.7739" y="1433.1348">Frontend</text></g><g class="participant participant-head" data-participant="API"><rect fill="#E2E2F0" height="31.6094" rx="2.5" ry="2.5" style="stroke:#181818;stroke-width:0.5;" width="36.5654" x="409.2153" y="88.6094"/><text fill="#000000" font-family="sans-serif" font-size="14" lengthAdjust="spacing" textLength="22.5654" x="416.2153" y="110.1426">API</text></g><g class="participant participant-tail" data-participant="API"><rect fill="#E2E2F0" height="31.6094" rx="2.5" ry="2.5" style="stroke:#181818;stroke-width:0.5;" width="36.5654" x="409.2153" y="1411.6016"/><text fill="#000000" font-family="sans-serif" font-size="14" lengthAdjust="spacing" textLength="22.5654" x="416.2153" y="1433.1348">API</text></g><g class="participant participant-head" data-participant="BD"><text fill="#000000" font-family="sans-serif" font-size="14" lengthAdjust="spacing" textLength="105.8477" x="560.6704" y="118.1426">BaseDeDonnees</text><path d="M598.5942,67.6094 C598.5942,57.6094 616.5942,57.6094 616.5942,57.6094 C616.5942,57.6094 634.5942,57.6094 634.5942,67.6094 L634.5942,93.6094 C634.5942,103.6094 616.5942,103.6094 616.5942,103.6094 C616.5942,103.6094 598.5942,103.6094 598.5942,93.6094 L598.5942,67.6094" fill="#E2E2F0" style="stroke:#181818;stroke-width:1.5;"/><path d="M598.5942,67.6094 C598.5942,77.6094 616.5942,77.6094 616.5942,77.6094 C616.5942,77.6094 634.5942,77.6094 634.5942,67.6094" fill="none" style="stroke:#181818;stroke-width:1.5;"/></g><g class="participant participant-tail" data-participant="BD"><text fill="#000000" font-family="sans-serif" font-size="14" lengthAdjust="spacing" textLength="105.8477" x="560.6704" y="1426.1348">BaseDeDonnees</text><path d="M598.5942,1439.2109 C598.5942,1429.2109 616.5942,1429.2109 616.5942,1429.2109 C616.5942,1429.2109 634.5942,1429.2109 634.5942,1439.2109 L634.5942,1465.2109 C634.5942,1475.2109 616.5942,1475.2109 616.5942,1475.2109 C616.5942,1475.2109 598.5942,1475.2109 598.5942,1465.2109 L598.5942,1439.2109" fill="#E2E2F0" style="stroke:#181818;stroke-width:1.5;"/><path d="M598.5942,1439.2109 C598.5942,1449.2109 616.5942,1449.2109 616.5942,1449.2109 C616.5942,1449.2109 634.5942,1449.2109 634.5942,1439.2109" fill="none" style="stroke:#181818;stroke-width:1.5;"/></g><rect fill="#EEEEEE" height="3" style="stroke:#EEEEEE;stroke-width:1;" width="804.9004" x="0" y="152.3945"/><line style="stroke:#000000;stroke-width:1;" x1="0" x2="804.9004" y1="152.3945" y2="152.3945"/><line style="stroke:#000000;stroke-width:1;" x1="0" x2="804.9004" y1="155.3945" y2="155.3945"/><rect fill="#EEEEEE" height="24.3516" style="stroke:#000000;stroke-width:2;" width="166.3882" x="319.2561" y="141.2188"/><text fill="#000000" font-family="sans-serif" font-size="13" font-weight="bold" lengthAdjust="spacing" textLength="148.7764" x="325.2561" y="158.7139">Consultation (anonyme)</text><g class="message" data-participant-1="User" data-participant-2="Front"><polygon fill="#181818" points="231.791,193.9219,241.791,197.9219,231.791,201.9219,235.791,197.9219" style="stroke:#181818;stroke-width:1;"/><line style="stroke:#181818;stroke-width:1;" x1="46.3413" x2="237.791" y1="197.9219" y2="197.9219"/><text fill="#000000" font-family="sans-serif" font-size="13" lengthAdjust="spacing" textLength="173.4497" x="53.3413" y="193.0654">Navigation /publications/{slug}</text></g><g class="message" data-participant-1="Front" data-participant-2="API"><polygon fill="#181818" points="415.498,224.2734,425.498,228.2734,415.498,232.2734,419.498,228.2734" style="stroke:#181818;stroke-width:1;"/><line style="stroke:#181818;stroke-width:1;" x1="243.791" x2="421.498" y1="228.2734" y2="228.2734"/><text fill="#000000" font-family="sans-serif" font-size="13" lengthAdjust="spacing" textLength="159.707" x="250.791" y="223.417">GET /api/publications/{slug}</text></g><g class="message" data-participant-1="API" data-participant-2="BD"><polygon fill="#181818" points="604.5942,265.8008,614.5942,269.8008,604.5942,273.8008,608.5942,269.8008" style="stroke:#181818;stroke-width:1;"/><line style="stroke:#181818;stroke-width:1;" x1="427.498" x2="610.5942" y1="269.8008" y2="269.8008"/><text fill="#000000" font-family="sans-serif" font-size="13" lengthAdjust="spacing" textLength="165.0962" x="434.498" y="264.9443">SELECT + incr&#233;menter vues</text></g><path d="M621,241.2734 L621,283.2734 L759,283.2734 L759,251.2734 L749,241.2734 L621,241.2734" fill="#FEFFDD" style="stroke:#181818;stroke-width:0.5;"/><path d="M749,241.2734 L749,251.2734 L759,251.2734 L749,241.2734" fill="#FEFFDD" style="stroke:#181818;stroke-width:0.5;"/><text fill="#000000" font-family="sans-serif" font-size="13" lengthAdjust="spacing" textLength="67.1899" x="627" y="259.7686">Acc&#232;s libre,</text><text fill="#000000" font-family="sans-serif" font-size="13" lengthAdjust="spacing" textLength="117.8125" x="627" y="276.1201">aucune auth requise</text><g class="message" data-participant-1="BD" data-participant-2="API"><polygon fill="#181818" points="438.498,307.3281,428.498,311.3281,438.498,315.3281,434.498,311.3281" style="stroke:#181818;stroke-width:1;"/><line style="stroke:#181818;stroke-width:1;stroke-dasharray:2.0,2.0;" x1="432.498" x2="615.5942" y1="311.3281" y2="311.3281"/><text fill="#000000" font-family="sans-serif" font-size="13" lengthAdjust="spacing" textLength="134.7798" x="444.498" y="306.4717">Publication + domaines</text></g><g class="message" data-participant-1="API" data-participant-2="Front"><polygon fill="#181818" points="254.791,337.6797,244.791,341.6797,254.791,345.6797,250.791,341.6797" style="stroke:#181818;stroke-width:1;"/><line style="stroke:#181818;stroke-width:1;stroke-dasharray:2.0,2.0;" x1="248.791" x2="426.498" y1="341.6797" y2="341.6797"/><text fill="#000000" font-family="sans-serif" font-size="13" lengthAdjust="spacing" textLength="99.0044" x="260.791" y="336.8232">D&#233;tail publication</text></g><g class="message" data-participant-1="Front" data-participant-2="User"><polygon fill="#181818" points="57.3413,368.0313,47.3413,372.0313,57.3413,376.0313,53.3413,372.0313" style="stroke:#181818;stroke-width:1;"/><line style="stroke:#181818;stroke-width:1;stroke-dasharray:2.0,2.0;" x1="51.3413" x2="242.791" y1="372.0313" y2="372.0313"/><text fill="#000000" font-family="sans-serif" font-size="13" lengthAdjust="spacing" textLength="54.2026" x="63.3413" y="367.1748">Affichage</text></g><rect fill="#EEEEEE" height="3" style="stroke:#EEEEEE;stroke-width:1;" width="804.9004" x="0" y="401.207"/><line style="stroke:#000000;stroke-width:1;" x1="0" x2="804.9004" y1="401.207" y2="401.207"/><line style="stroke:#000000;stroke-width:1;" x1="0" x2="804.9004" y1="404.207" y2="404.207"/><rect fill="#EEEEEE" height="24.3516" style="stroke:#000000;stroke-width:2;" width="258.918" x="272.9912" y="390.0313"/><text fill="#000000" font-family="sans-serif" font-size="13" font-weight="bold" lengthAdjust="spacing" textLength="241.3062" x="278.9912" y="407.5264">Authentification (Visiteur &#8594; Utilisateur)</text><path d="M10,431.3828 L75.2109,431.3828 L75.2109,439.7344 L65.2109,449.7344 L10,449.7344 L10,431.3828" fill="#EEEEEE" style="stroke:#000000;stroke-width:1.5;"/><rect fill="none" height="222.8125" style="stroke:#000000;stroke-width:1.5;" width="672.5181" x="10" y="431.3828"/><text fill="#000000" font-family="sans-serif" font-size="13" font-weight="bold" lengthAdjust="spacing" textLength="20.2109" x="25" y="445.8779">opt</text><text fill="#000000" font-family="sans-serif" font-size="11" font-weight="bold" lengthAdjust="spacing" textLength="152.8184" x="90.2109" y="444.8018">[besoin de commenter / liker]</text><g class="message" data-participant-1="User" data-participant-2="Front"><polygon fill="#181818" points="231.791,468.0859,241.791,472.0859,231.791,476.0859,235.791,472.0859" style="stroke:#181818;stroke-width:1;"/><line style="stroke:#181818;stroke-width:1;" x1="46.3413" x2="237.791" y1="472.0859" y2="472.0859"/><text fill="#000000" font-family="sans-serif" font-size="13" lengthAdjust="spacing" textLength="62.8735" x="53.3413" y="467.2295">Identifiants</text></g><g class="message" data-participant-1="Front" data-participant-2="API"><polygon fill="#181818" points="415.498,498.4375,425.498,502.4375,415.498,506.4375,419.498,502.4375" style="stroke:#181818;stroke-width:1;"/><line style="stroke:#181818;stroke-width:1;" x1="243.791" x2="421.498" y1="502.4375" y2="502.4375"/><text fill="#000000" font-family="sans-serif" font-size="13" lengthAdjust="spacing" textLength="122.8462" x="250.791" y="497.5811">POST /api/connexion</text></g><g class="message" data-participant-1="API" data-participant-2="BD"><polygon fill="#181818" points="604.5942,528.7891,614.5942,532.7891,604.5942,536.7891,608.5942,532.7891" style="stroke:#181818;stroke-width:1;"/><line style="stroke:#181818;stroke-width:1;" x1="427.498" x2="610.5942" y1="532.7891" y2="532.7891"/><text fill="#000000" font-family="sans-serif" font-size="13" lengthAdjust="spacing" textLength="107.6563" x="434.498" y="527.9326">V&#233;rifier credentials</text></g><g class="message" data-participant-1="BD" data-participant-2="API"><polygon fill="#181818" points="438.498,559.1406,428.498,563.1406,438.498,567.1406,434.498,563.1406" style="stroke:#181818;stroke-width:1;"/><line style="stroke:#181818;stroke-width:1;stroke-dasharray:2.0,2.0;" x1="432.498" x2="615.5942" y1="563.1406" y2="563.1406"/><text fill="#000000" font-family="sans-serif" font-size="13" lengthAdjust="spacing" textLength="95.3735" x="444.498" y="558.2842">Utilisateur valide</text></g><g class="message" data-participant-1="API" data-participant-2="Front"><polygon fill="#181818" points="254.791,589.4922,244.791,593.4922,254.791,597.4922,250.791,593.4922" style="stroke:#181818;stroke-width:1;"/><line style="stroke:#181818;stroke-width:1;stroke-dasharray:2.0,2.0;" x1="248.791" x2="426.498" y1="593.4922" y2="593.4922"/><text fill="#000000" font-family="sans-serif" font-size="13" lengthAdjust="spacing" textLength="74.7944" x="260.791" y="588.6357">Jeton + profil</text></g><g class="message" data-participant-1="Front" data-participant-2="User"><polygon fill="#181818" points="57.3413,631.0195,47.3413,635.0195,57.3413,639.0195,53.3413,635.0195" style="stroke:#181818;stroke-width:1;"/><line style="stroke:#181818;stroke-width:1;stroke-dasharray:2.0,2.0;" x1="51.3413" x2="242.791" y1="635.0195" y2="635.0195"/><text fill="#000000" font-family="sans-serif" font-size="13" lengthAdjust="spacing" textLength="83.8208" x="63.3413" y="630.1631">Session active</text></g><path d="M248,606.4922 L248,648.4922 L390,648.4922 L390,616.4922 L380,606.4922 L248,606.4922" fill="#FEFFDD" style="stroke:#181818;stroke-width:0.5;"/><path d="M380,606.4922 L380,616.4922 L390,616.4922 L380,606.4922" fill="#FEFFDD" style="stroke:#181818;stroke-width:0.5;"/><text fill="#000000" font-family="sans-serif" font-size="13" lengthAdjust="spacing" textLength="88.8799" x="254" y="624.9873">Visiteur devient</text><text fill="#000000" font-family="sans-serif" font-size="13" lengthAdjust="spacing" textLength="121.3989" x="254" y="641.3389">Utilisateur authentifi&#233;</text><rect fill="#EEEEEE" height="3" style="stroke:#EEEEEE;stroke-width:1;" width="804.9004" x="0" y="682.3711"/><line style="stroke:#000000;stroke-width:1;" x1="0" x2="804.9004" y1="682.3711" y2="682.3711"/><line style="stroke:#000000;stroke-width:1;" x1="0" x2="804.9004" y1="685.3711" y2="685.3711"/><rect fill="#EEEEEE" height="24.3516" style="stroke:#000000;stroke-width:2;" width="176.5317" x="314.1843" y="671.1953"/><text fill="#000000" font-family="sans-serif" font-size="13" font-weight="bold" lengthAdjust="spacing" textLength="158.9199" x="320.1843" y="688.6904">Commentaire (Utilisateur)</text><path d="M10,712.5469 L75.2109,712.5469 L75.2109,720.8984 L65.2109,730.8984 L10,730.8984 L10,712.5469" fill="#EEEEEE" style="stroke:#000000;stroke-width:1.5;"/><rect fill="none" height="315.3516" style="stroke:#000000;stroke-width:1.5;" width="784.9004" x="10" y="712.5469"/><text fill="#000000" font-family="sans-serif" font-size="13" font-weight="bold" lengthAdjust="spacing" textLength="20.2109" x="25" y="727.042">opt</text><text fill="#000000" font-family="sans-serif" font-size="11" font-weight="bold" lengthAdjust="spacing" textLength="82.5376" x="90.2109" y="725.9658">[session active]</text><g class="message" data-participant-1="User" data-participant-2="Front"><polygon fill="#181818" points="231.791,749.25,241.791,753.25,231.791,757.25,235.791,753.25" style="stroke:#181818;stroke-width:1;"/><line style="stroke:#181818;stroke-width:1;" x1="46.3413" x2="237.791" y1="753.25" y2="753.25"/><text fill="#000000" font-family="sans-serif" font-size="13" lengthAdjust="spacing" textLength="111.2554" x="53.3413" y="748.3936">Saisir commentaire</text></g><g class="message" data-participant-1="Front" data-participant-2="API"><polygon fill="#181818" points="415.498,779.6016,425.498,783.6016,415.498,787.6016,419.498,783.6016" style="stroke:#181818;stroke-width:1;"/><line style="stroke:#181818;stroke-width:1;" x1="243.791" x2="421.498" y1="783.6016" y2="783.6016"/><text fill="#000000" font-family="sans-serif" font-size="13" lengthAdjust="spacing" textLength="135.0908" x="250.791" y="778.7451">POST .../commentaires</text></g><g class="message" data-participant-1="API" data-participant-2="BD"><polygon fill="#181818" points="604.5942,812.9531,614.5942,816.9531,604.5942,820.9531,608.5942,816.9531" style="stroke:#181818;stroke-width:1;"/><line style="stroke:#181818;stroke-width:1;" x1="427.498" x2="610.5942" y1="816.9531" y2="816.9531"/><text fill="#000000" font-family="sans-serif" font-size="13" lengthAdjust="spacing" textLength="47.6709" x="434.498" y="812.0967">INSERT</text></g><path d="M621,796.6016 L621,822.6016 L779,822.6016 L779,806.6016 L769,796.6016 L621,796.6016" fill="#FEFFDD" style="stroke:#181818;stroke-width:0.5;"/><path d="M769,796.6016 L769,806.6016 L779,806.6016 L769,796.6016" fill="#FEFFDD" style="stroke:#181818;stroke-width:0.5;"/><text fill="#000000" font-family="sans-serif" font-size="13" lengthAdjust="spacing" textLength="137.3062" x="627" y="815.0967">Statut selon mod&#233;ration</text><g class="message" data-participant-1="BD" data-participant-2="API"><polygon fill="#181818" points="438.498,846.3047,428.498,850.3047,438.498,854.3047,434.498,850.3047" style="stroke:#181818;stroke-width:1;"/><line style="stroke:#181818;stroke-width:1;stroke-dasharray:2.0,2.0;" x1="432.498" x2="615.5942" y1="850.3047" y2="850.3047"/><text fill="#000000" font-family="sans-serif" font-size="13" lengthAdjust="spacing" textLength="106.9263" x="444.498" y="845.4482">Commentaire cr&#233;&#233;</text></g><path d="M198.7739,865.3047 L258.9448,865.3047 L258.9448,873.6563 L248.9448,883.6563 L198.7739,883.6563 L198.7739,865.3047" fill="#EEEEEE" style="stroke:#000000;stroke-width:1.5;"/><rect fill="none" height="125.2422" style="stroke:#000000;stroke-width:1.5;" width="483.7441" x="198.7739" y="865.3047"/><text fill="#000000" font-family="sans-serif" font-size="13" font-weight="bold" lengthAdjust="spacing" textLength="15.1709" x="213.7739" y="879.7998">alt</text><text fill="#000000" font-family="sans-serif" font-size="11" font-weight="bold" lengthAdjust="spacing" textLength="126.5376" x="273.9448" y="878.7236">[mod&#233;ration d&#233;sactiv&#233;e]</text><g class="message" data-participant-1="API" data-participant-2="BD"><polygon fill="#181818" points="604.5942,902.0078,614.5942,906.0078,604.5942,910.0078,608.5942,906.0078" style="stroke:#181818;stroke-width:1;"/><line style="stroke:#181818;stroke-width:1;" x1="427.498" x2="610.5942" y1="906.0078" y2="906.0078"/><text fill="#000000" font-family="sans-serif" font-size="13" lengthAdjust="spacing" textLength="110.5444" x="434.498" y="901.1514">Notifier propri&#233;taire</text></g><g class="message" data-participant-1="API" data-participant-2="Front"><polygon fill="#181818" points="254.791,932.3594,244.791,936.3594,254.791,940.3594,250.791,936.3594" style="stroke:#181818;stroke-width:1;"/><line style="stroke:#181818;stroke-width:1;stroke-dasharray:2.0,2.0;" x1="248.791" x2="426.498" y1="936.3594" y2="936.3594"/><text fill="#000000" font-family="sans-serif" font-size="13" lengthAdjust="spacing" textLength="96.1099" x="260.791" y="931.5029">Notification push</text></g><line style="stroke:#000000;stroke-width:1;stroke-dasharray:2.0,2.0;" x1="198.7739" x2="682.5181" y1="945.3594" y2="945.3594"/><text fill="#000000" font-family="sans-serif" font-size="11" font-weight="bold" lengthAdjust="spacing" textLength="107.583" x="203.7739" y="956.7783">[mod&#233;ration activ&#233;e]</text><g class="message" data-participant-1="API" data-participant-2="Front"><polygon fill="#181818" points="254.791,978.5469,244.791,982.5469,254.791,986.5469,250.791,982.5469" style="stroke:#181818;stroke-width:1;"/><line style="stroke:#181818;stroke-width:1;stroke-dasharray:2.0,2.0;" x1="248.791" x2="426.498" y1="982.5469" y2="982.5469"/><text fill="#000000" font-family="sans-serif" font-size="13" lengthAdjust="spacing" textLength="117.8062" x="260.791" y="977.6904">En attente validation</text></g><g class="message" data-participant-1="Front" data-participant-2="User"><polygon fill="#181818" points="57.3413,1015.8984,47.3413,1019.8984,57.3413,1023.8984,53.3413,1019.8984" style="stroke:#181818;stroke-width:1;"/><line style="stroke:#181818;stroke-width:1;stroke-dasharray:2.0,2.0;" x1="51.3413" x2="242.791" y1="1019.8984" y2="1019.8984"/><text fill="#000000" font-family="sans-serif" font-size="13" lengthAdjust="spacing" textLength="119.939" x="63.3413" y="1015.042">Commentaire affich&#233;</text></g><rect fill="#EEEEEE" height="3" style="stroke:#EEEEEE;stroke-width:1;" width="804.9004" x="0" y="1056.0742"/><line style="stroke:#000000;stroke-width:1;" x1="0" x2="804.9004" y1="1056.0742" y2="1056.0742"/><line style="stroke:#000000;stroke-width:1;" x1="0" x2="804.9004" y1="1059.0742" y2="1059.0742"/><rect fill="#EEEEEE" height="24.3516" style="stroke:#000000;stroke-width:2;" width="104.3081" x="350.2961" y="1044.8984"/><text fill="#000000" font-family="sans-serif" font-size="13" font-weight="bold" lengthAdjust="spacing" textLength="86.6963" x="356.2961" y="1062.3936">Like (bascule)</text><path d="M10,1086.25 L75.2109,1086.25 L75.2109,1094.6016 L65.2109,1104.6016 L10,1104.6016 L10,1086.25" fill="#EEEEEE" style="stroke:#000000;stroke-width:1.5;"/><rect fill="none" height="309.3516" style="stroke:#000000;stroke-width:1.5;" width="682.5181" x="10" y="1086.25"/><text fill="#000000" font-family="sans-serif" font-size="13" font-weight="bold" lengthAdjust="spacing" textLength="20.2109" x="25" y="1100.7451">opt</text><text fill="#000000" font-family="sans-serif" font-size="11" font-weight="bold" lengthAdjust="spacing" textLength="82.5376" x="90.2109" y="1099.6689">[session active]</text><g class="message" data-participant-1="User" data-participant-2="Front"><polygon fill="#181818" points="231.791,1122.9531,241.791,1126.9531,231.791,1130.9531,235.791,1126.9531" style="stroke:#181818;stroke-width:1;"/><line style="stroke:#181818;stroke-width:1;" x1="46.3413" x2="237.791" y1="1126.9531" y2="1126.9531"/><text fill="#000000" font-family="sans-serif" font-size="13" lengthAdjust="spacing" textLength="91.1841" x="53.3413" y="1122.0967">Cliquer "J'aime"</text></g><g class="message" data-participant-1="Front" data-participant-2="API"><polygon fill="#181818" points="415.498,1153.3047,425.498,1157.3047,415.498,1161.3047,419.498,1157.3047" style="stroke:#181818;stroke-width:1;"/><line style="stroke:#181818;stroke-width:1;" x1="243.791" x2="421.498" y1="1157.3047" y2="1157.3047"/><text fill="#000000" font-family="sans-serif" font-size="13" lengthAdjust="spacing" textLength="72.96" x="250.791" y="1152.4482">POST .../like</text></g><path d="M399.2153,1172.3047 L459.3862,1172.3047 L459.3862,1180.6563 L449.3862,1190.6563 L399.2153,1190.6563 L399.2153,1172.3047" fill="#EEEEEE" style="stroke:#000000;stroke-width:1.5;"/><rect fill="none" height="155.5938" style="stroke:#000000;stroke-width:1.5;" width="283.3027" x="399.2153" y="1172.3047"/><text fill="#000000" font-family="sans-serif" font-size="13" font-weight="bold" lengthAdjust="spacing" textLength="15.1709" x="414.2153" y="1186.7998">alt</text><text fill="#000000" font-family="sans-serif" font-size="11" font-weight="bold" lengthAdjust="spacing" textLength="50.7407" x="474.3862" y="1185.7236">[d&#233;j&#224; lik&#233;]</text><g class="message" data-participant-1="API" data-participant-2="BD"><polygon fill="#181818" points="604.5942,1209.0078,614.5942,1213.0078,604.5942,1217.0078,608.5942,1213.0078" style="stroke:#181818;stroke-width:1;"/><line style="stroke:#181818;stroke-width:1;" x1="427.498" x2="610.5942" y1="1213.0078" y2="1213.0078"/><text fill="#000000" font-family="sans-serif" font-size="13" lengthAdjust="spacing" textLength="73.6899" x="434.498" y="1208.1514">DELETE like</text></g><g class="message" data-participant-1="BD" data-participant-2="API"><polygon fill="#181818" points="438.498,1239.3594,428.498,1243.3594,438.498,1247.3594,434.498,1243.3594" style="stroke:#181818;stroke-width:1;"/><line style="stroke:#181818;stroke-width:1;stroke-dasharray:2.0,2.0;" x1="432.498" x2="615.5942" y1="1243.3594" y2="1243.3594"/><text fill="#000000" font-family="sans-serif" font-size="13" lengthAdjust="spacing" textLength="57.0781" x="444.498" y="1238.5029">Like retir&#233;</text></g><line style="stroke:#000000;stroke-width:1;stroke-dasharray:2.0,2.0;" x1="399.2153" x2="682.5181" y1="1252.3594" y2="1252.3594"/><text fill="#000000" font-family="sans-serif" font-size="11" font-weight="bold" lengthAdjust="spacing" textLength="73.96" x="404.2153" y="1263.7783">[nouveau like]</text><g class="message" data-participant-1="API" data-participant-2="BD"><polygon fill="#181818" points="604.5942,1285.5469,614.5942,1289.5469,604.5942,1293.5469,608.5942,1289.5469" style="stroke:#181818;stroke-width:1;"/><line style="stroke:#181818;stroke-width:1;" x1="427.498" x2="610.5942" y1="1289.5469" y2="1289.5469"/><text fill="#000000" font-family="sans-serif" font-size="13" lengthAdjust="spacing" textLength="70.7891" x="434.498" y="1284.6904">INSERT like</text></g><g class="message" data-participant-1="BD" data-participant-2="API"><polygon fill="#181818" points="438.498,1315.8984,428.498,1319.8984,438.498,1323.8984,434.498,1319.8984" style="stroke:#181818;stroke-width:1;"/><line style="stroke:#181818;stroke-width:1;stroke-dasharray:2.0,2.0;" x1="432.498" x2="615.5942" y1="1319.8984" y2="1319.8984"/><text fill="#000000" font-family="sans-serif" font-size="13" lengthAdjust="spacing" textLength="62.8799" x="444.498" y="1315.042">Like ajout&#233;</text></g><g class="message" data-participant-1="API" data-participant-2="Front"><polygon fill="#181818" points="254.791,1353.25,244.791,1357.25,254.791,1361.25,250.791,1357.25" style="stroke:#181818;stroke-width:1;"/><line style="stroke:#181818;stroke-width:1;stroke-dasharray:2.0,2.0;" x1="248.791" x2="426.498" y1="1357.25" y2="1357.25"/><text fill="#000000" font-family="sans-serif" font-size="13" lengthAdjust="spacing" textLength="85.2808" x="260.791" y="1352.3936">{ aLikes, total }</text></g><g class="message" data-participant-1="Front" data-participant-2="User"><polygon fill="#181818" points="57.3413,1383.6016,47.3413,1387.6016,57.3413,1391.6016,53.3413,1387.6016" style="stroke:#181818;stroke-width:1;"/><line style="stroke:#181818;stroke-width:1;stroke-dasharray:2.0,2.0;" x1="51.3413" x2="242.791" y1="1387.6016" y2="1387.6016"/><text fill="#000000" font-family="sans-serif" font-size="13" lengthAdjust="spacing" textLength="98.9917" x="63.3413" y="1382.7451">Ic&#244;ne mise &#224; jour</text></g><!--SRC=[ZLHBRXf14DtFAKhUX2YssICHoHWIOLcE5R1NtXGp1RJTT8_xWn9PtkO0EK6MOPyRp4roabJt0DDy4cK3CrFLxzLxLTLEE4amL8uCvavePQ43btgn8ELG609oS2sUACiuh0tS2oiSUGDeuSwIoKeqJkIYHENWWz4Cf8eGZCyxqOlROGZmNrQWmmbQWXx_zAclbIAo8ThhPrctonKewwN3K16qK6drTK5leTlD0YcSlQ_nEt23Ip6hqzgbdqYHnnVRVh7Iprwpc1RocRO37mTZQ6CfZgQ6-ZYnr-_0Q70zk1p3En0gDzKgcC6iIqysKzeH636RC_b5dbS_BKWnCNJweD3dNX6WTtCmzEo5fQpNXxCD-sr3oj25Ng1GZ1Xv6qNzQiNEIqXAtAZWf22VYQTJaSznHj6i2oRa2iLq0zxQTkdtj-zmvuGK5iDxT52N3YPajL1G4EHrhrbUcuKySKS1zZmU5ZKwDz5oTDVIsq-ZjQTvwEANK2v0ukLzjJ9yc15pGn49PO19dKbAX2LAKT06ewdYYbpqhJHwAcHJnzQK4LaRr8SvNWQ0j5LRHmfQ2YxYGQMSk7MmMcKymEiPRBQWTSn4kq-uvzi8cTHi70uunzqxFpzl9qbsrx_XpMZmURmdPyIhuKC5alaNkc2FwqdPzJML40QPrN46IfUU0NwoKKEr2XNkiDzeLpUFRI-DYBDfagna4tKoWQMtSquYoJkUKXtID0033ZiNPh6UWOsWs8_3TgVQCEv3qhjmPK6BhvZSI_hlXbrAyUpvoydL6nGBElbxkyAch9raSO_LZx0xpB_dNf_laV40rjcxlOab6dB2n7FHAgNzaj0t1mxcu1zO-AYzgx7OXGDxNm13cZq5fnrAU3tYwJ2lVl4Djk2R2rWJ0vfewHy0]--></g></svg>