<svg xmlns="http://www.w3.org/2000/svg" xmlns:xlink="http://www.w3.org/1999/xlink" contentStyleType="text/css" data-diagram-type="ACTIVITY" height="1186px" preserveAspectRatio="none" style="width:563px;height:1186px;background:#FFFFFF;" version="1.1" viewBox="0 0 563 1186" width="563px" zoomAndPan="magnify"><title>Activit&#233; : Gestion des notifications et rappels</title><defs/><g><text fill="#000000" font-family="sans-serif" font-size="14" font-weight="bold" lengthAdjust="spacing" textLength="300.2822" x="129.8682" y="34.5332">Activit&#233; : Gestion des notifications et rappels</text><ellipse cx="355.1265" cy="58.6094" fill="#222222" rx="10" ry="10" style="stroke:#222222;stroke-width:1;"/><rect fill="none" height="240.1719" style="stroke:#000000;stroke-width:1.5;" width="162.7305" x="273.7612" y="78.6094"/><path d="M356.1265,78.6094 L356.1265,89.2188 L346.1265,99.2188 L273.7612,99.2188" fill="none" style="stroke:#000000;stroke-width:1.5;"/><text fill="#000000" font-family="sans-serif" font-size="14" lengthAdjust="spacing" textLength="72.3652" x="276.7612" y="94.1426">Propri&#233;taire</text><rect fill="#F1F1F1" height="50.1875" rx="12.5" ry="12.5" style="stroke:#181818;stroke-width:0.5;" width="142.7305" x="283.7612" y="116.2188"/><text fill="#000000" font-family="sans-serif" font-size="12" lengthAdjust="spacing" textLength="122.7305" x="293.7612" y="138.6758">Configurer pr&#233;f&#233;rences</text><text fill="#000000" font-family="sans-serif" font-size="12" lengthAdjust="spacing" textLength="74.0508" x="293.7612" y="153.7695">de notification</text><rect fill="#F1F1F1" height="50.1875" rx="12.5" ry="12.5" style="stroke:#181818;stroke-width:0.5;" width="132.0664" x="289.0933" y="186.4063"/><text fill="#000000" font-family="sans-serif" font-size="12" lengthAdjust="spacing" textLength="96.6914" x="299.0933" y="208.8633">Activer/D&#233;sactiver</text><text fill="#000000" font-family="sans-serif" font-size="12" lengthAdjust="spacing" textLength="112.0664" x="299.0933" y="223.957">types de notifications</text><rect fill="#F1F1F1" height="50.1875" rx="12.5" ry="12.5" style="stroke:#181818;stroke-width:0.5;" width="115.3789" x="297.437" y="256.5938"/><text fill="#000000" font-family="sans-serif" font-size="12" lengthAdjust="spacing" textLength="95.3789" x="307.437" y="279.0508">Cr&#233;er des rappels</text><text fill="#000000" font-family="sans-serif" font-size="12" lengthAdjust="spacing" textLength="92.7246" x="307.437" y="294.1445">pour &#233;v&#233;nements</text><rect fill="none" height="481.4531" style="stroke:#000000;stroke-width:1.5;" width="541.0186" x="11" y="328.7813"/><path d="M75.4619,328.7813 L75.4619,339.3906 L65.4619,349.3906 L11,349.3906" fill="none" style="stroke:#000000;stroke-width:1.5;"/><text fill="#000000" font-family="sans-serif" font-size="14" lengthAdjust="spacing" textLength="54.4619" x="14" y="344.3145">Syst&#232;me</text><rect fill="#F1F1F1" height="50.1875" rx="12.5" ry="12.5" style="stroke:#181818;stroke-width:0.5;" width="131.3984" x="289.4272" y="366.3906"/><text fill="#000000" font-family="sans-serif" font-size="12" lengthAdjust="spacing" textLength="111.3984" x="299.4272" y="388.8477">Planificateur ex&#233;cute</text><text fill="#000000" font-family="sans-serif" font-size="12" lengthAdjust="spacing" textLength="96.7148" x="299.4272" y="403.9414">toutes les minutes</text><rect fill="#F1F1F1" height="35.0938" rx="12.5" ry="12.5" style="stroke:#181818;stroke-width:0.5;" width="142.0566" x="284.0981" y="436.5781"/><text fill="#000000" font-family="sans-serif" font-size="12" lengthAdjust="spacing" textLength="122.0566" x="294.0981" y="459.0352">V&#233;rifier les rappels dus</text><polygon fill="#F1F1F1" points="304.3669,491.6719,405.886,491.6719,417.886,503.6719,405.886,515.6719,304.3669,515.6719,292.3669,503.6719,304.3669,491.6719" style="stroke:#181818;stroke-width:0.5;"/><text fill="#000000" font-family="sans-serif" font-size="11" lengthAdjust="spacing" textLength="101.519" x="304.3669" y="508.1729">Rappels en attente ?</text><text fill="#000000" font-family="sans-serif" font-size="11" lengthAdjust="spacing" textLength="17.1177" x="275.2493" y="501.2549">Oui</text><text fill="#000000" font-family="sans-serif" font-size="11" lengthAdjust="spacing" textLength="20.1792" x="417.886" y="501.2549">Non</text><rect fill="#F1F1F1" height="50.1875" rx="12.5" ry="12.5" style="stroke:#181818;stroke-width:0.5;" width="123.0137" x="157.0801" y="525.6719"/><text fill="#000000" font-family="sans-serif" font-size="12" lengthAdjust="spacing" textLength="76.6934" x="167.0801" y="548.1289">Distribuer jobs</text><text fill="#000000" font-family="sans-serif" font-size="12" lengthAdjust="spacing" textLength="103.0137" x="167.0801" y="563.2227">vers la file d'attente</text><rect fill="#555555" height="6" rx="2.5" ry="2.5" style="stroke:#555555;stroke-width:1;" width="400.3135" x="23" y="595.8594"/><rect fill="#F1F1F1" height="50.1875" rx="12.5" ry="12.5" style="stroke:#181818;stroke-width:0.5;" width="112.0801" x="35" y="621.8594"/><text fill="#000000" font-family="sans-serif" font-size="12" lengthAdjust="spacing" textLength="59.3613" x="45" y="644.3164">Notification</text><text fill="#000000" font-family="sans-serif" font-size="12" lengthAdjust="spacing" textLength="92.0801" x="45" y="659.4102">base de donn&#233;es</text><rect fill="#F1F1F1" height="50.1875" rx="12.5" ry="12.5" style="stroke:#181818;stroke-width:0.5;" width="93.3359" x="167.9404" y="621.8594"/><text fill="#000000" font-family="sans-serif" font-size="12" lengthAdjust="spacing" textLength="59.3613" x="177.9404" y="644.3164">Notification</text><text fill="#000000" font-family="sans-serif" font-size="12" lengthAdjust="spacing" textLength="73.3359" x="177.9404" y="659.4102">email (SMTP)</text><rect fill="#F1F1F1" height="50.1875" rx="12.5" ry="12.5" style="stroke:#181818;stroke-width:0.5;" width="120.0371" x="289.2764" y="621.8594"/><text fill="#000000" font-family="sans-serif" font-size="12" lengthAdjust="spacing" textLength="59.3613" x="299.2764" y="644.3164">Notification</text><text fill="#000000" font-family="sans-serif" font-size="12" lengthAdjust="spacing" textLength="100.0371" x="299.2764" y="659.4102">WebSocket (Echo)</text><rect fill="#555555" height="6" rx="2.5" ry="2.5" style="stroke:#555555;stroke-width:1;" width="400.3135" x="23" y="692.0469"/><rect fill="#F1F1F1" height="50.1875" rx="12.5" ry="12.5" style="stroke:#181818;stroke-width:0.5;" width="107.375" x="164.8994" y="718.0469"/><text fill="#000000" font-family="sans-serif" font-size="12" lengthAdjust="spacing" textLength="87.375" x="174.8994" y="740.5039">Marquer rappels</text><text fill="#000000" font-family="sans-serif" font-size="12" lengthAdjust="spacing" textLength="87.3691" x="174.8994" y="755.5977">comme envoy&#233;s</text><rect fill="#F1F1F1" height="50.1875" rx="12.5" ry="12.5" style="stroke:#181818;stroke-width:0.5;" width="96.7051" x="443.3135" y="525.6719"/><text fill="#000000" font-family="sans-serif" font-size="12" lengthAdjust="spacing" textLength="58.0371" x="453.3135" y="548.1289">Attendre le</text><text fill="#000000" font-family="sans-serif" font-size="12" lengthAdjust="spacing" textLength="76.7051" x="453.3135" y="563.2227">prochain cycle</text><polygon fill="#F1F1F1" points="355.1265,774.2344,367.1265,786.2344,355.1265,798.2344,343.1265,786.2344,355.1265,774.2344" style="stroke:#181818;stroke-width:0.5;"/><rect fill="none" height="312.875" style="stroke:#000000;stroke-width:1.5;" width="148.0527" x="281.1001" y="820.2344"/><path d="M363.4653,820.2344 L363.4653,848.4531 L353.4653,858.4531 L281.1001,858.4531" fill="none" style="stroke:#000000;stroke-width:1.5;"/><text fill="#000000" font-family="sans-serif" font-size="14" lengthAdjust="spacing" textLength="72.3652" x="284.1001" y="835.7676">Propri&#233;taire</text><text fill="#000000" font-family="sans-serif" font-size="14" lengthAdjust="spacing" textLength="66.917" x="284.1001" y="853.377">(r&#233;ception)</text><rect fill="#F1F1F1" height="50.1875" rx="12.5" ry="12.5" style="stroke:#181818;stroke-width:0.5;" width="128.0527" x="291.1001" y="875.4531"/><text fill="#000000" font-family="sans-serif" font-size="12" lengthAdjust="spacing" textLength="108.0527" x="301.1001" y="897.9102">Recevoir notification</text><text fill="#000000" font-family="sans-serif" font-size="12" lengthAdjust="spacing" textLength="74.3848" x="301.1001" y="913.0039">(badge + son)</text><rect fill="#F1F1F1" height="50.1875" rx="12.5" ry="12.5" style="stroke:#181818;stroke-width:0.5;" width="90.043" x="310.105" y="945.6406"/><text fill="#000000" font-family="sans-serif" font-size="12" lengthAdjust="spacing" textLength="58.0195" x="320.105" y="968.0977">Cliquer sur</text><text fill="#000000" font-family="sans-serif" font-size="12" lengthAdjust="spacing" textLength="70.043" x="320.105" y="983.1914">la notification</text><rect fill="#F1F1F1" height="50.1875" rx="12.5" ry="12.5" style="stroke:#181818;stroke-width:0.5;" width="107.375" x="301.439" y="1015.8281"/><text fill="#000000" font-family="sans-serif" font-size="12" lengthAdjust="spacing" textLength="64.0313" x="311.439" y="1038.2852">Consulter la</text><text fill="#000000" font-family="sans-serif" font-size="12" lengthAdjust="spacing" textLength="87.375" x="311.439" y="1053.3789">ressource cibl&#233;e</text><rect fill="#F1F1F1" height="35.0938" rx="12.5" ry="12.5" style="stroke:#181818;stroke-width:0.5;" width="126.7051" x="291.7739" y="1086.0156"/><text fill="#000000" font-family="sans-serif" font-size="12" lengthAdjust="spacing" textLength="106.7051" x="301.7739" y="1108.4727">Marquer comme lue</text><ellipse cx="355.1265" cy="1164.1094" fill="none" rx="11" ry="11" style="stroke:#222222;stroke-width:1;"/><ellipse cx="355.1265" cy="1164.1094" fill="#222222" rx="6" ry="6" style="stroke:#222222;stroke-width:1;"/><line style="stroke:#181818;stroke-width:1;" x1="355.1265" x2="355.1265" y1="166.4063" y2="186.4063"/><polygon fill="#181818" points="351.1265,176.4063,355.1265,186.4063,359.1265,176.4063,355.1265,180.4063" style="stroke:#181818;stroke-width:1;"/><line style="stroke:#181818;stroke-width:1;" x1="355.1265" x2="355.1265" y1="236.5938" y2="256.5938"/><polygon fill="#181818" points="351.1265,246.5938,355.1265,256.5938,359.1265,246.5938,355.1265,250.5938" style="stroke:#181818;stroke-width:1;"/><line style="stroke:#181818;stroke-width:1;" x1="355.1265" x2="355.1265" y1="68.6094" y2="116.2188"/><polygon fill="#181818" points="351.1265,106.2188,355.1265,116.2188,359.1265,106.2188,355.1265,110.2188" style="stroke:#181818;stroke-width:1;"/><line style="stroke:#181818;stroke-width:1;" x1="355.1265" x2="355.1265" y1="416.5781" y2="436.5781"/><polygon fill="#181818" points="351.1265,426.5781,355.1265,436.5781,359.1265,426.5781,355.1265,430.5781" style="stroke:#181818;stroke-width:1;"/><line style="stroke:#181818;stroke-width:1;" x1="91.04" x2="91.04" y1="601.8594" y2="621.8594"/><polygon fill="#181818" points="87.04,611.8594,91.04,621.8594,95.04,611.8594,91.04,615.8594" style="stroke:#181818;stroke-width:1;"/><line style="stroke:#181818;stroke-width:1;" x1="214.6084" x2="214.6084" y1="601.8594" y2="621.8594"/><polygon fill="#181818" points="210.6084,611.8594,214.6084,621.8594,218.6084,611.8594,214.6084,615.8594" style="stroke:#181818;stroke-width:1;"/><line style="stroke:#181818;stroke-width:1;" x1="349.2949" x2="349.2949" y1="601.8594" y2="621.8594"/><polygon fill="#181818" points="345.2949,611.8594,349.2949,621.8594,353.2949,611.8594,349.2949,615.8594" style="stroke:#181818;stroke-width:1;"/><line style="stroke:#181818;stroke-width:1;" x1="91.04" x2="91.04" y1="672.0469" y2="692.0469"/><polygon fill="#181818" points="87.04,682.0469,91.04,692.0469,95.04,682.0469,91.04,686.0469" style="stroke:#181818;stroke-width:1;"/><line style="stroke:#181818;stroke-width:1;" x1="214.6084" x2="214.6084" y1="672.0469" y2="692.0469"/><polygon fill="#181818" points="210.6084,682.0469,214.6084,692.0469,218.6084,682.0469,214.6084,686.0469" style="stroke:#181818;stroke-width:1;"/><line style="stroke:#181818;stroke-width:1;" x1="349.2949" x2="349.2949" y1="672.0469" y2="692.0469"/><polygon fill="#181818" points="345.2949,682.0469,349.2949,692.0469,353.2949,682.0469,349.2949,686.0469" style="stroke:#181818;stroke-width:1;"/><line style="stroke:#181818;stroke-width:1;" x1="218.5869" x2="218.5869" y1="575.8594" y2="595.8594"/><polygon fill="#181818" points="214.5869,585.8594,218.5869,595.8594,222.5869,585.8594,218.5869,589.8594" style="stroke:#181818;stroke-width:1;"/><line style="stroke:#181818;stroke-width:1;" x1="218.5869" x2="218.5869" y1="698.0469" y2="718.0469"/><polygon fill="#181818" points="214.5869,708.0469,218.5869,718.0469,222.5869,708.0469,218.5869,712.0469" style="stroke:#181818;stroke-width:1;"/><line style="stroke:#181818;stroke-width:1;" x1="292.3669" x2="218.5869" y1="503.6719" y2="503.6719"/><line style="stroke:#181818;stroke-width:1;" x1="218.5869" x2="218.5869" y1="503.6719" y2="525.6719"/><polygon fill="#181818" points="214.5869,515.6719,218.5869,525.6719,222.5869,515.6719,218.5869,519.6719" style="stroke:#181818;stroke-width:1;"/><line style="stroke:#181818;stroke-width:1;" x1="417.886" x2="491.666" y1="503.6719" y2="503.6719"/><line style="stroke:#181818;stroke-width:1;" x1="491.666" x2="491.666" y1="503.6719" y2="525.6719"/><polygon fill="#181818" points="487.666,515.6719,491.666,525.6719,495.666,515.6719,491.666,519.6719" style="stroke:#181818;stroke-width:1;"/><line style="stroke:#181818;stroke-width:1;" x1="218.5869" x2="218.5869" y1="768.2344" y2="786.2344"/><line style="stroke:#181818;stroke-width:1;" x1="218.5869" x2="343.1265" y1="786.2344" y2="786.2344"/><polygon fill="#181818" points="333.1265,782.2344,343.1265,786.2344,333.1265,790.2344,337.1265,786.2344" style="stroke:#181818;stroke-width:1;"/><line style="stroke:#181818;stroke-width:1;" x1="491.666" x2="491.666" y1="575.8594" y2="786.2344"/><line style="stroke:#181818;stroke-width:1;" x1="491.666" x2="367.1265" y1="786.2344" y2="786.2344"/><polygon fill="#181818" points="377.1265,782.2344,367.1265,786.2344,377.1265,790.2344,373.1265,786.2344" style="stroke:#181818;stroke-width:1;"/><line style="stroke:#181818;stroke-width:1;" x1="355.1265" x2="355.1265" y1="471.6719" y2="491.6719"/><polygon fill="#181818" points="351.1265,481.6719,355.1265,491.6719,359.1265,481.6719,355.1265,485.6719" style="stroke:#181818;stroke-width:1;"/><line style="stroke:#181818;stroke-width:1;" x1="355.1265" x2="355.1265" y1="306.7813" y2="366.3906"/><polygon fill="#181818" points="351.1265,356.3906,355.1265,366.3906,359.1265,356.3906,355.1265,360.3906" style="stroke:#181818;stroke-width:1;"/><line style="stroke:#181818;stroke-width:1;" x1="355.1265" x2="355.1265" y1="925.6406" y2="945.6406"/><polygon fill="#181818" points="351.1265,935.6406,355.1265,945.6406,359.1265,935.6406,355.1265,939.6406" style="stroke:#181818;stroke-width:1;"/><line style="stroke:#181818;stroke-width:1;" x1="355.1265" x2="355.1265" y1="995.8281" y2="1015.8281"/><polygon fill="#181818" points="351.1265,1005.8281,355.1265,1015.8281,359.1265,1005.8281,355.1265,1009.8281" style="stroke:#181818;stroke-width:1;"/><line style="stroke:#181818;stroke-width:1;" x1="355.1265" x2="355.1265" y1="1066.0156" y2="1086.0156"/><polygon fill="#181818" points="351.1265,1076.0156,355.1265,1086.0156,359.1265,1076.0156,355.1265,1080.0156" style="stroke:#181818;stroke-width:1;"/><line style="stroke:#181818;stroke-width:1;" x1="355.1265" x2="355.1265" y1="798.2344" y2="875.4531"/><polygon fill="#181818" points="351.1265,865.4531,355.1265,875.4531,359.1265,865.4531,355.1265,869.4531" style="stroke:#181818;stroke-width:1;"/><line style="stroke:#181818;stroke-width:1;" x1="355.1265" x2="355.1265" y1="1121.1094" y2="1153.1094"/><polygon fill="#181818" points="351.1265,1143.1094,355.1265,1153.1094,359.1265,1143.1094,355.1265,1147.1094" style="stroke:#181818;stroke-width:1;"/><!--SRC=[ZLB1Rjim3BtxAuXUvc27tfl3KBJ3Jks2PjWkliWodR1LA4sYWmN3_cV-3l_OADbhcss70ROiIu_au-CJ4eTmROME9DC8L_01av1dw301Uw6UhCa72L0WcX3GfQfAOg9KLT2L2dmJVOWqZM8e8dol0AvkFFUq6o96274Q-scCo1PJmnsUfLvdTE60yV9s6fEPzmtBAIYDF-2fu6yqfMRED1TM3GS_H9Z6upGo7f15aJzUazoUaam_3mk_ZJCy9qKDms_JQ0T1BUhray3fUo3E-rBmi_9NkDPqBpMX6ygjFjH3_R2S8eCHKGO8xrOWU_slFmwqKfXckgKaaTf1KptwLdbhhrhFG4ywZExD4hekwBBqFZwLZKRVlvAYuTOap09rdba5IUjdF9YT8Vvt51uCEQYtTvysg_-B-8BjrjidzK3ztkxz4eNSlN2RcxipyMlkx7aerXzKSUIZF-beSvmU8zJtdXSzhdE_dTh6gVeXUhjN6c1FrXKDz8xwyq5UdDcjuLhDO37akzN5FDq7j7Zq5C-ieyZMT3k4jv0KEXl9KI6S1ZMS3k4lPwgFq-0a3zuq734bjPb5iDGwbRnWVdSzD-i6BCvBuiCl]--></g></svg>