<svg xmlns="http://www.w3.org/2000/svg" xmlns:xlink="http://www.w3.org/1999/xlink" contentStyleType="text/css" data-diagram-type="DESCRIPTION" height="852px" preserveAspectRatio="none" style="width:798px;height:852px;background:#FFFFFF;" version="1.1" viewBox="0 0 798 852" width="798px" zoomAndPan="magnify"><title>Diagramme de Composants (Architecture)</title><defs/><g><text fill="#000000" font-family="sans-serif" font-size="14" font-weight="bold" lengthAdjust="spacing" textLength="280.8408" x="251.5796" y="24.5332">Diagramme de Composants (Architecture)</text><!--cluster Front--><g class="cluster" data-entity="Front" data-source-line="5" data-uid="ent0002" id="cluster_Front"><path d="M122.5,44.6094 L272.8447,44.6094 A3.75,3.75 0 0 1 275.3447,47.1094 L282.3447,68.2188 L282.5,68.2188 A2.5,2.5 0 0 1 285,70.7188 L285,265.1094 A2.5,2.5 0 0 1 282.5,267.6094 L122.5,267.6094 A2.5,2.5 0 0 1 120,265.1094 L120,47.1094 A2.5,2.5 0 0 1 122.5,44.6094" fill="none" style="stroke:#000000;stroke-width:1.5;"/><line style="stroke:#000000;stroke-width:1.5;" x1="120" x2="282.3447" y1="68.2188" y2="68.2188"/><text fill="#000000" font-family="sans-serif" font-size="14" font-weight="bold" lengthAdjust="spacing" textLength="149.3447" x="124" y="61.1426">Frontend (React / Vite)</text></g><!--cluster Back--><g class="cluster" data-entity="Back" data-source-line="10" data-uid="ent0005" id="cluster_Back"><path d="M8.5,317.6094 L130.1064,317.6094 A3.75,3.75 0 0 1 132.6064,320.1094 L139.6064,341.2188 L254.5,341.2188 A2.5,2.5 0 0 1 257,343.7188 L257,709.6094 A2.5,2.5 0 0 1 254.5,712.1094 L8.5,712.1094 A2.5,2.5 0 0 1 6,709.6094 L6,320.1094 A2.5,2.5 0 0 1 8.5,317.6094" fill="none" style="stroke:#000000;stroke-width:1.5;"/><line style="stroke:#000000;stroke-width:1.5;" x1="6" x2="139.6064" y1="341.2188" y2="341.2188"/><text fill="#000000" font-family="sans-serif" font-size="14" font-weight="bold" lengthAdjust="spacing" textLength="120.6064" x="10" y="334.1426">Backend (Laravel)</text></g><!--cluster Ext--><g class="cluster" data-entity="Ext" data-source-line="19" data-uid="ent0011" id="cluster_Ext"><path d="M283.5,593.6094 L405.1406,593.6094 A3.75,3.75 0 0 1 407.6406,596.1094 L414.6406,617.2188 L788.5,617.2188 A2.5,2.5 0 0 1 791,619.7188 L791,698.1094 A2.5,2.5 0 0 1 788.5,700.6094 L283.5,700.6094 A2.5,2.5 0 0 1 281,698.1094 L281,596.1094 A2.5,2.5 0 0 1 283.5,593.6094" fill="none" style="stroke:#000000;stroke-width:1.5;"/><line style="stroke:#000000;stroke-width:1.5;" x1="281" x2="414.6406" y1="617.2188" y2="617.2188"/><text fill="#000000" font-family="sans-serif" font-size="14" font-weight="bold" lengthAdjust="spacing" textLength="120.6406" x="285" y="610.1426">Services Externes</text></g><!--entity Pages--><g class="entity" data-entity="Pages" data-source-line="6" data-uid="ent0003" id="entity_Pages"><rect fill="#F1F1F1" height="55.2188" rx="2.5" ry="2.5" style="stroke:#181818;stroke-width:0.5;" width="121.1719" x="141.5" y="80.6094"/><text fill="#000000" font-family="sans-serif" font-size="14" lengthAdjust="spacing" textLength="101.1719" x="151.5" y="105.1426">Pages &amp; &#201;diteur</text><text fill="#000000" font-family="sans-serif" font-size="14" lengthAdjust="spacing" textLength="52.8965" x="151.5" y="122.752">(TipTap)</text></g><!--entity ClientAPI--><g class="entity" data-entity="ClientAPI" data-source-line="7" data-uid="ent0004" id="entity_ClientAPI"><rect fill="#F1F1F1" height="37.6094" rx="2.5" ry="2.5" style="stroke:#181818;stroke-width:0.5;" width="129.6963" x="137" y="213.6094"/><text fill="#000000" font-family="sans-serif" font-size="14" lengthAdjust="spacing" textLength="109.6963" x="147" y="238.1426">Client API (Axios)</text></g><!--entity API--><g class="entity" data-entity="API" data-source-line="11" data-uid="ent0006" id="entity_API"><ellipse cx="202" cy="383.6094" fill="#F1F1F1" rx="8" ry="8" style="stroke:#181818;stroke-width:0.5;"/><text fill="#000000" font-family="sans-serif" font-size="14" lengthAdjust="spacing" textLength="63.793" x="170.1035" y="415.1426">API REST</text></g><!--entity Services--><g class="entity" data-entity="Services" data-source-line="12" data-uid="ent0007" id="entity_Services"><rect fill="#F1F1F1" height="37.6094" rx="2.5" ry="2.5" style="stroke:#181818;stroke-width:0.5;" width="120.3721" x="121" y="491.6094"/><text fill="#000000" font-family="sans-serif" font-size="14" lengthAdjust="spacing" textLength="100.3721" x="131" y="516.1426">Services &amp; Jobs</text></g><!--entity MediaLib--><g class="entity" data-entity="MediaLib" data-source-line="13" data-uid="ent0008" id="entity_MediaLib"><rect fill="#F1F1F1" height="55.2188" rx="2.5" ry="2.5" style="stroke:#181818;stroke-width:0.5;" width="104.8135" x="22.5" y="356.1094"/><text fill="#000000" font-family="sans-serif" font-size="14" lengthAdjust="spacing" textLength="84.8135" x="32.5" y="380.6426">Media Library</text><text fill="#000000" font-family="sans-serif" font-size="14" lengthAdjust="spacing" textLength="46.6826" x="32.5" y="398.252">(spatie)</text></g><!--entity BD--><g class="entity" data-entity="BD" data-source-line="15" data-uid="ent0009" id="entity_BD"><ellipse cx="54.8032" cy="626.6094" fill="#F1F1F1" rx="8" ry="8" style="stroke:#181818;stroke-width:0.5;"/><path d="M54.8032,634.6094 L54.8032,661.6094 M41.8032,642.6094 L67.8032,642.6094 M54.8032,661.6094 L41.8032,676.6094 M54.8032,661.6094 L67.8032,676.6094" fill="none" style="stroke:#181818;stroke-width:0.5;"/><text fill="#000000" font-family="sans-serif" font-size="14" lengthAdjust="spacing" textLength="57.6064" x="26" y="692.6426">database</text></g><!--entity Stockage--><g class="entity" data-entity="Stockage" data-source-line="16" data-uid="ent0010" id="entity_Stockage"><rect fill="#F1F1F1" height="37.6094" rx="35" ry="35" style="stroke:#181818;stroke-width:0.5;" width="78.3721" x="119" y="638.1094"/><text fill="#000000" font-family="sans-serif" font-size="14" lengthAdjust="spacing" textLength="58.3721" x="129" y="662.6426">Stockage</text></g><!--entity Mail--><g class="entity" data-entity="Mail" data-source-line="20" data-uid="ent0012" id="entity_Mail"><rect fill="#F1F1F1" height="37.6094" rx="2.5" ry="2.5" style="stroke:#181818;stroke-width:0.5;" width="119.5859" x="297" y="638.1094"/><text fill="#000000" font-family="sans-serif" font-size="14" lengthAdjust="spacing" textLength="99.5859" x="307" y="662.6426">SMTP / Mailhog</text></g><!--entity PaliGemma--><g class="entity" data-entity="PaliGemma" data-source-line="21" data-uid="ent0013" id="entity_PaliGemma"><rect fill="#F1F1F1" height="37.6094" rx="2.5" ry="2.5" style="stroke:#181818;stroke-width:0.5;" width="184.9512" x="452.5" y="638.1094"/><text fill="#000000" font-family="sans-serif" font-size="14" lengthAdjust="spacing" textLength="164.9512" x="462.5" y="662.6426">PaliGemma 2 (Vision 10B)</text></g><!--entity Echo--><g class="entity" data-entity="Echo" data-source-line="22" data-uid="ent0014" id="entity_Echo"><rect fill="#F1F1F1" height="55.2188" rx="2.5" ry="2.5" style="stroke:#181818;stroke-width:0.5;" width="101.7168" x="673" y="629.6094"/><text fill="#000000" font-family="sans-serif" font-size="14" lengthAdjust="spacing" textLength="81.7168" x="683" y="654.1426">Laravel Echo</text><text fill="#000000" font-family="sans-serif" font-size="14" lengthAdjust="spacing" textLength="80.9102" x="683" y="671.752">(WebSocket)</text></g><!--link Pages to ClientAPI--><g class="link" data-entity-1="Pages" data-entity-2="ClientAPI" data-source-line="26" data-uid="lnk15" id="link_Pages_ClientAPI"><path d="M202,135.6894 C202,159.1894 202,186.8494 202,207.4094" fill="none" id="Pages-to-ClientAPI" style="stroke:#181818;stroke-width:1;"/><polygon fill="#181818" points="202,213.4094,206,204.4094,202,208.4094,198,204.4094,202,213.4094" style="stroke:#181818;stroke-width:1;"/><text fill="#000000" font-family="sans-serif" font-size="13" lengthAdjust="spacing" textLength="41.9263" x="203" y="180.1045">appelle</text></g><!--link ClientAPI to API--><g class="link" data-entity-1="ClientAPI" data-entity-2="API" data-source-line="27" data-uid="lnk16" id="link_ClientAPI_API"><path d="M202,251.8794 C202,284.3594 202,344.9394 202,368.2894" fill="none" id="ClientAPI-to-API" style="stroke:#181818;stroke-width:1;"/><polygon fill="#181818" points="202,374.2894,206,365.2894,202,369.2894,198,365.2894,202,374.2894" style="stroke:#181818;stroke-width:1;"/><text fill="#000000" font-family="sans-serif" font-size="13" lengthAdjust="spacing" textLength="42.6118" x="203" y="298.1045">HTTPS</text></g><!--link API to Services--><g class="link" data-entity-1="API" data-entity-2="Services" data-source-line="30" data-uid="lnk17" id="link_API_Services"><path d="M200.62,392.8094 C197.28,412.6894 189.6844,457.9124 185.0544,485.4624" fill="none" id="API-to-Services" style="stroke:#181818;stroke-width:1;"/><polygon fill="#181818" points="184.06,491.3794,189.4963,483.1668,184.8887,486.4485,181.6069,481.8409,184.06,491.3794" style="stroke:#181818;stroke-width:1;"/><text fill="#000000" font-family="sans-serif" font-size="13" lengthAdjust="spacing" textLength="50.5908" x="193" y="458.1045">requ&#234;tes</text></g><!--link Services to BD--><g class="link" data-entity-1="Services" data-entity-2="BD" data-source-line="31" data-uid="lnk18" id="link_Services_BD"><path d="M157.86,529.7994 C147.23,538.4794 134.65,549.2194 124,559.6094 C106.31,576.8694 93.3337,594.1277 81.0337,612.9377" fill="none" id="Services-to-BD" style="stroke:#181818;stroke-width:1;"/><polygon fill="#181818" points="77.75,617.9594,86.0234,612.616,80.4864,613.7746,79.3278,608.2377,77.75,617.9594" style="stroke:#181818;stroke-width:1;"/><text fill="#000000" font-family="sans-serif" font-size="13" lengthAdjust="spacing" textLength="37.5527" x="125" y="574.1045">CRUD</text></g><!--link Services to Stockage--><g class="link" data-entity-1="Services" data-entity-2="Stockage" data-source-line="32" data-uid="lnk19" id="link_Services_Stockage"><path d="M178.13,529.6194 C173.73,557.3094 166.2735,604.124 161.8435,631.944" fill="none" id="Services-to-Stockage" style="stroke:#181818;stroke-width:1;"/><polygon fill="#181818" points="160.9,637.8694,166.2655,629.6104,161.6863,632.9316,158.3651,628.3523,160.9,637.8694" style="stroke:#181818;stroke-width:1;"/><text fill="#000000" font-family="sans-serif" font-size="13" lengthAdjust="spacing" textLength="98.979" x="174" y="574.1045">fichiers &amp; m&#233;dias</text></g><!--link Services to Mail--><g class="link" data-entity-1="Services" data-entity-2="Mail" data-source-line="35" data-uid="lnk20" id="link_Services_Mail"><path d="M228.85,529.6094 C245.97,537.3494 264.78,547.4394 280,559.6094 C308.29,582.2294 329.5714,611.9757 342.9514,633.0257" fill="none" id="Services-to-Mail" style="stroke:#181818;stroke-width:1;"/><polygon fill="#181818" points="346.17,638.0894,344.7179,628.3482,343.4878,633.8697,337.9663,632.6396,346.17,638.0894" style="stroke:#181818;stroke-width:1;"/><text fill="#000000" font-family="sans-serif" font-size="13" lengthAdjust="spacing" textLength="31.0654" x="299" y="574.1045">email</text></g><!--link Services to PaliGemma--><g class="link" data-entity-1="Services" data-entity-2="PaliGemma" data-source-line="36" data-uid="lnk21" id="link_Services_PaliGemma"><path d="M241.22,524.1794 C293.58,536.2794 370.74,556.9594 434,585.6094 C465.82,600.0194 494.38,618.8846 516.14,634.5446" fill="none" id="Services-to-PaliGemma" style="stroke:#181818;stroke-width:1;"/><polygon fill="#181818" points="521.01,638.0494,516.0416,629.5456,516.9517,635.1287,511.3685,636.0389,521.01,638.0494" style="stroke:#181818;stroke-width:1;"/><text fill="#000000" font-family="sans-serif" font-size="13" lengthAdjust="spacing" textLength="113.439" x="416" y="574.1045">analyse image/PDF</text></g><!--link Services to Echo--><g class="link" data-entity-1="Services" data-entity-2="Echo" data-source-line="37" data-uid="lnk22" id="link_Services_Echo"><path d="M241.09,515.8194 C352.23,524.4394 584.94,546.6594 655,585.6094 C674.46,596.4294 688.1255,609.8163 700.6255,624.9263" fill="none" id="Services-to-Echo" style="stroke:#181818;stroke-width:1;"/><polygon fill="#181818" points="704.45,629.5494,701.7953,620.0651,701.2629,625.6968,695.6311,625.1644,704.45,629.5494" style="stroke:#181818;stroke-width:1;"/><text fill="#000000" font-family="sans-serif" font-size="13" lengthAdjust="spacing" textLength="66.4727" x="636" y="574.1045">WebSocket</text></g><rect fill="#DDDDDD" height="102.0469" rx="7.5" ry="7.5" style="stroke:#000000;stroke-width:1;" width="441.498" x="171.251" y="730.1094"/><text fill="#000000" font-family="sans-serif" font-size="14" font-weight="bold" lengthAdjust="spacing" textLength="51.3379" x="180.1406" y="751.6426">Couche</text><text fill="#000000" font-family="sans-serif" font-size="14" font-weight="bold" lengthAdjust="spacing" textLength="82.4482" x="257.9404" y="751.6426">Technologie</text><text fill="#000000" font-family="sans-serif" font-size="14" lengthAdjust="spacing" textLength="56.0342" x="180.1406" y="769.252">Frontend</text><text fill="#000000" font-family="sans-serif" font-size="14" lengthAdjust="spacing" textLength="305.8125" x="257.9404" y="769.252">React 19 + Vite + TypeScript + Tailwind + TipTap</text><text fill="#000000" font-family="sans-serif" font-size="14" lengthAdjust="spacing" textLength="54.4824" x="180.1406" y="786.8613">Backend</text><text fill="#000000" font-family="sans-serif" font-size="14" lengthAdjust="spacing" textLength="345.9189" x="257.9404" y="786.8613">Laravel 11 + Sanctum + Eloquent + spatie/media-library</text><text fill="#000000" font-family="sans-serif" font-size="14" lengthAdjust="spacing" textLength="70.0205" x="180.1406" y="804.4707">Temps r&#233;el</text><text fill="#000000" font-family="sans-serif" font-size="14" lengthAdjust="spacing" textLength="81.7168" x="257.9404" y="804.4707">Laravel Echo</text><text fill="#000000" font-family="sans-serif" font-size="14" lengthAdjust="spacing" textLength="55.248" x="180.1406" y="822.0801">Vision IA</text><text fill="#000000" font-family="sans-serif" font-size="14" lengthAdjust="spacing" textLength="113.6064" x="257.9404" y="822.0801">PaliGemma 2 10B</text><line style="stroke:#000000;stroke-width:1;" x1="176.251" x2="607.749" y1="737.1094" y2="737.1094"/><line style="stroke:#000000;stroke-width:1;" x1="176.251" x2="607.749" y1="754.7188" y2="754.7188"/><line style="stroke:#000000;stroke-width:1;" x1="176.251" x2="607.749" y1="772.3281" y2="772.3281"/><line style="stroke:#000000;stroke-width:1;" x1="176.251" x2="607.749" y1="789.9375" y2="789.9375"/><line style="stroke:#000000;stroke-width:1;" x1="176.251" x2="607.749" y1="807.5469" y2="807.5469"/><line style="stroke:#000000;stroke-width:1;" x1="176.251" x2="607.749" y1="825.1563" y2="825.1563"/><line style="stroke:#000000;stroke-width:1;" x1="176.251" x2="176.251" y1="737.1094" y2="825.1563"/><line style="stroke:#000000;stroke-width:1;" x1="254.0508" x2="254.0508" y1="737.1094" y2="825.1563"/><line style="stroke:#000000;stroke-width:1;" x1="607.749" x2="607.749" y1="737.1094" y2="825.1563"/><!--SRC=[LLDBRjim4Dth50ClMXk1uRgx1d01_zAcY04ZKjD5smKjJsKY_2WadSQ8Uu0U9Rs6BzOPKhBZbSXvJ_DctWo330fX9aNbXDO8QuIfrRNrmWGFtR4hDp9W6ROEUrdcxwMf1J6XP9914_AmemIEAC9K2hEi5kMzg10wLywQW6ODtLiKPO01t56gNWU4XuZ1SmRmVKba3s_Wy7TDyDRzCDr2reMeUp-P6M7cJPKaEHWlhwci9sbzmbEOejcVLzeJEaJf6whs4LLIvMWKxVQWmubkvtaH4VwVD79qZxACvNonAny5sXZZ2rnB0JTovOJRKQ6-5a5YAYHY16L4N8iWLi9Z59rHm0VhOc5viB74gDfUpae_rZ1_2kWC-aYbIx8hNnHBid8XfDhOAYdJEJcfv2VKMi1xwDv9Bws1uRj9wsC3ChDn1URbnb8Rtt2LKoKO4fMZND9R68r6S1mZNR8qh7x_uybtk0HHrwXezgSOCnBskIYMUPkh7GkdQcd7VYzfYnwsXt-1l3u6cJ6P4JQz_Jex3xVk4VXBqfgYuxdfmmlDmRUAZObHyUnlDet-HCtcdI4d6wap8zIEvYWr2GsMiwjpAZj5hAD_MQQmuWPNDWIhoUhzYDxJjjmWdmeiDyOgMqcwCdWoTm_faGm_m4Ly9_GfTZNcfPDru0lL-LiIauxnUJGPMaltq0vrE2HEBWmzMasdkR8FMtuv5v3MTQ1vK_igRN6Jfa1TUt275qfmIXNxIuHcdwx7T7wzQBHWnE0AKklPVm00]--></g></svg>