<svg xmlns="http://www.w3.org/2000/svg" xmlns:xlink="http://www.w3.org/1999/xlink" contentStyleType="text/css" data-diagram-type="DESCRIPTION" height="1079px" preserveAspectRatio="none" style="width:893px;height:1079px;background:#FFFFFF;" version="1.1" viewBox="0 0 893 1079" width="893px" zoomAndPan="magnify"><title>Diagramme de D&#233;ploiement</title><defs/><g><text fill="#000000" font-family="sans-serif" font-size="14" font-weight="bold" lengthAdjust="spacing" textLength="184.3857" x="347.3071" y="24.5332">Diagramme de D&#233;ploiement</text><rect fill="#DDDDDD" height="102.0469" rx="7.5" ry="7.5" style="stroke:#000000;stroke-width:1;" width="241.4785" x="318.7607" y="50.6094"/><text fill="#000000" font-family="sans-serif" font-size="14" font-weight="bold" lengthAdjust="spacing" textLength="82.4482" x="327.6504" y="72.1426">Technologie</text><text fill="#000000" font-family="sans-serif" font-size="14" font-weight="bold" lengthAdjust="spacing" textLength="30.3379" x="417.8779" y="72.1426">R&#244;le</text><text fill="#000000" font-family="sans-serif" font-size="14" lengthAdjust="spacing" textLength="56.0342" x="327.6504" y="89.752">Frontend</text><text fill="#000000" font-family="sans-serif" font-size="14" lengthAdjust="spacing" textLength="128.0166" x="417.8779" y="89.752">React 19 + Vite SPA</text><text fill="#000000" font-family="sans-serif" font-size="14" lengthAdjust="spacing" textLength="54.4824" x="327.6504" y="107.3613">Backend</text><text fill="#000000" font-family="sans-serif" font-size="14" lengthAdjust="spacing" textLength="133.4717" x="417.8779" y="107.3613">Laravel 11 + PHP 8.3</text><text fill="#000000" font-family="sans-serif" font-size="14" lengthAdjust="spacing" textLength="55.248" x="327.6504" y="124.9707">Vision IA</text><text fill="#000000" font-family="sans-serif" font-size="14" lengthAdjust="spacing" textLength="113.6064" x="417.8779" y="124.9707">PaliGemma 2 10B</text><text fill="#000000" font-family="sans-serif" font-size="14" lengthAdjust="spacing" textLength="71.5859" x="327.6504" y="142.5801">WebSocket</text><text fill="#000000" font-family="sans-serif" font-size="14" lengthAdjust="spacing" textLength="126.8408" x="417.8779" y="142.5801">Laravel Echo Server</text><line style="stroke:#000000;stroke-width:1;" x1="323.7607" x2="555.2393" y1="57.6094" y2="57.6094"/><line style="stroke:#000000;stroke-width:1;" x1="323.7607" x2="555.2393" y1="75.2188" y2="75.2188"/><line style="stroke:#000000;stroke-width:1;" x1="323.7607" x2="555.2393" y1="92.8281" y2="92.8281"/><line style="stroke:#000000;stroke-width:1;" x1="323.7607" x2="555.2393" y1="110.4375" y2="110.4375"/><line style="stroke:#000000;stroke-width:1;" x1="323.7607" x2="555.2393" y1="128.0469" y2="128.0469"/><line style="stroke:#000000;stroke-width:1;" x1="323.7607" x2="555.2393" y1="145.6563" y2="145.6563"/><line style="stroke:#000000;stroke-width:1;" x1="323.7607" x2="323.7607" y1="57.6094" y2="145.6563"/><line style="stroke:#000000;stroke-width:1;" x1="413.9883" x2="413.9883" y1="57.6094" y2="145.6563"/><line style="stroke:#000000;stroke-width:1;" x1="555.2393" x2="555.2393" y1="57.6094" y2="145.6563"/><!--cluster Client--><g class="cluster" data-entity="Client" data-source-line="10" data-uid="ent0007" id="cluster_Client"><polygon fill="none" points="711,348.1563,721,338.1563,876,338.1563,876,477.1563,866,487.1563,711,487.1563,711,348.1563" style="stroke:#181818;stroke-width:1;"/><line style="stroke:#181818;stroke-width:1;" x1="866" x2="876" y1="348.1563" y2="338.1563"/><line style="stroke:#181818;stroke-width:1;" x1="711" x2="866" y1="348.1563" y2="348.1563"/><line style="stroke:#181818;stroke-width:1;" x1="866" x2="866" y1="348.1563" y2="487.1563"/><text fill="#000000" font-family="sans-serif" font-size="14" font-weight="bold" lengthAdjust="spacing" textLength="38.8896" x="770.0552" y="365.6895">Client</text><text fill="#000000" font-family="sans-serif" font-size="14" font-weight="bold" lengthAdjust="spacing" textLength="81.6826" x="748.6587" y="383.2988">(Navigateur)</text></g><!--cluster Server--><g class="cluster" data-entity="Server" data-source-line="14" data-uid="ent0009" id="cluster_Server"><polygon fill="none" points="147,563.1563,157,553.1563,700,553.1563,700,871.5163,690,881.5163,147,881.5163,147,563.1563" style="stroke:#181818;stroke-width:1;"/><line style="stroke:#181818;stroke-width:1;" x1="690" x2="700" y1="563.1563" y2="553.1563"/><line style="stroke:#181818;stroke-width:1;" x1="147" x2="690" y1="563.1563" y2="563.1563"/><line style="stroke:#181818;stroke-width:1;" x1="690" x2="690" y1="563.1563" y2="881.5163"/><text fill="#000000" font-family="sans-serif" font-size="14" font-weight="bold" lengthAdjust="spacing" textLength="52.1445" x="393.4277" y="580.6895">Serveur</text><text fill="#000000" font-family="sans-serif" font-size="14" font-weight="bold" lengthAdjust="spacing" textLength="58.3584" x="390.3208" y="598.2988">(Laravel)</text></g><!--cluster PHP--><g class="cluster" data-entity="PHP" data-source-line="15" data-uid="ent0010" id="cluster_PHP"><polygon fill="none" points="330,646.1563,340,636.1563,492,636.1563,492,831.5163,482,841.5163,330,841.5163,330,646.1563" style="stroke:#181818;stroke-width:1;"/><line style="stroke:#181818;stroke-width:1;" x1="482" x2="492" y1="646.1563" y2="636.1563"/><line style="stroke:#181818;stroke-width:1;" x1="330" x2="482" y1="646.1563" y2="646.1563"/><line style="stroke:#181818;stroke-width:1;" x1="482" x2="482" y1="646.1563" y2="841.5163"/><text fill="#000000" font-family="sans-serif" font-size="14" font-weight="bold" lengthAdjust="spacing" textLength="86.3516" x="363.8242" y="663.6895">PHP-FPM 8.3</text></g><!--cluster DB--><g class="cluster" data-entity="DB" data-source-line="22" data-uid="ent0014" id="cluster_DB"><polygon fill="none" points="16,949.5163,26,939.5163,207,939.5163,207,1042.5163,197,1052.5163,16,1052.5163,16,949.5163" style="stroke:#181818;stroke-width:1;"/><line style="stroke:#181818;stroke-width:1;" x1="197" x2="207" y1="949.5163" y2="939.5163"/><line style="stroke:#181818;stroke-width:1;" x1="16" x2="197" y1="949.5163" y2="949.5163"/><line style="stroke:#181818;stroke-width:1;" x1="197" x2="197" y1="949.5163" y2="1052.5163"/><text fill="#000000" font-family="sans-serif" font-size="14" font-weight="bold" lengthAdjust="spacing" textLength="115.1514" x="49.9243" y="967.0495">Base de donn&#233;es</text><text fill="#000000" font-family="sans-serif" font-size="14" font-weight="bold" lengthAdjust="spacing" textLength="54.4414" x="80.2793" y="984.6588">(SQLite)</text></g><!--cluster Storage--><g class="cluster" data-entity="Storage" data-source-line="26" data-uid="ent0016" id="cluster_Storage"><polygon fill="none" points="231,959.0163,241,949.0163,379,949.0163,379,1051.0163,369,1061.0163,231,1061.0163,231,959.0163" style="stroke:#181818;stroke-width:1;"/><line style="stroke:#181818;stroke-width:1;" x1="369" x2="379" y1="959.0163" y2="949.0163"/><line style="stroke:#181818;stroke-width:1;" x1="231" x2="369" y1="959.0163" y2="959.0163"/><line style="stroke:#181818;stroke-width:1;" x1="369" x2="369" y1="959.0163" y2="1061.0163"/><text fill="#000000" font-family="sans-serif" font-size="14" font-weight="bold" lengthAdjust="spacing" textLength="62.248" x="269.876" y="976.5495">Stockage</text></g><!--cluster Services--><g class="cluster" data-entity="Services" data-source-line="30" data-uid="ent0018" id="cluster_Services"><polygon fill="none" points="403,957.5163,413,947.5163,831,947.5163,831,1052.5163,821,1062.5163,403,1062.5163,403,957.5163" style="stroke:#181818;stroke-width:1;"/><line style="stroke:#181818;stroke-width:1;" x1="821" x2="831" y1="957.5163" y2="947.5163"/><line style="stroke:#181818;stroke-width:1;" x1="403" x2="821" y1="957.5163" y2="957.5163"/><line style="stroke:#181818;stroke-width:1;" x1="821" x2="821" y1="957.5163" y2="1062.5163"/><text fill="#000000" font-family="sans-serif" font-size="14" font-weight="bold" lengthAdjust="spacing" textLength="57.6064" x="584.1968" y="975.0495">Services</text></g><!--entity SPA--><g class="entity" data-entity="SPA" data-source-line="11" data-uid="ent0008" id="entity_SPA"><rect fill="#F1F1F1" height="58.2188" rx="2.5" ry="2.5" style="stroke:#181818;stroke-width:0.5;" width="98.4756" x="754" y="405.1563"/><polygon fill="#F1F1F1" points="835.4756,410.1563,835.4756,424.1563,847.4756,424.1563,847.4756,416.1563,841.4756,410.1563,835.4756,410.1563" style="stroke:#181818;stroke-width:0.5;"/><line style="stroke:#181818;stroke-width:0.5;" x1="841.4756" x2="841.4756" y1="410.1563" y2="416.1563"/><line style="stroke:#181818;stroke-width:0.5;" x1="847.4756" x2="841.4756" y1="416.1563" y2="416.1563"/><text fill="#000000" font-family="sans-serif" font-size="14" lengthAdjust="spacing" textLength="68.4756" x="764" y="432.6895">SPA React</text><text fill="#000000" font-family="sans-serif" font-size="14" lengthAdjust="spacing" textLength="66.917" x="764" y="450.2988">(build Vite)</text></g><!--entity Supervisor--><g class="entity" data-entity="Supervisor" data-source-line="18" data-uid="ent0012" id="entity_Supervisor"><rect fill="#F1F1F1" height="58.2188" rx="2.5" ry="2.5" style="stroke:#181818;stroke-width:0.5;" width="159.1445" x="516.5" y="640.5163"/><polygon fill="#F1F1F1" points="658.6445,645.5163,658.6445,659.5163,670.6445,659.5163,670.6445,651.5163,664.6445,645.5163,658.6445,645.5163" style="stroke:#181818;stroke-width:0.5;"/><line style="stroke:#181818;stroke-width:0.5;" x1="664.6445" x2="664.6445" y1="645.5163" y2="651.5163"/><line style="stroke:#181818;stroke-width:0.5;" x1="670.6445" x2="664.6445" y1="651.5163" y2="651.5163"/><text fill="#000000" font-family="sans-serif" font-size="14" lengthAdjust="spacing" textLength="66.917" x="526.5" y="668.0495">Supervisor</text><text fill="#000000" font-family="sans-serif" font-size="14" lengthAdjust="spacing" textLength="129.1445" x="526.5" y="685.6588">(travailleurs Horizon)</text></g><!--entity Cron--><g class="entity" data-entity="Cron" data-source-line="19" data-uid="ent0013" id="entity_Cron"><rect fill="#F1F1F1" height="58.2188" rx="2.5" ry="2.5" style="stroke:#181818;stroke-width:0.5;" width="114.8135" x="190.5" y="640.5163"/><polygon fill="#F1F1F1" points="288.3135,645.5163,288.3135,659.5163,300.3135,659.5163,300.3135,651.5163,294.3135,645.5163,288.3135,645.5163" style="stroke:#181818;stroke-width:0.5;"/><line style="stroke:#181818;stroke-width:0.5;" x1="294.3135" x2="294.3135" y1="645.5163" y2="651.5163"/><line style="stroke:#181818;stroke-width:0.5;" x1="300.3135" x2="294.3135" y1="651.5163" y2="651.5163"/><text fill="#000000" font-family="sans-serif" font-size="14" lengthAdjust="spacing" textLength="30.3447" x="200.5" y="668.0495">Cron</text><text fill="#000000" font-family="sans-serif" font-size="14" lengthAdjust="spacing" textLength="84.8135" x="200.5" y="685.6588">(planificateur)</text></g><!--entity Laravel--><g class="entity" data-entity="Laravel" data-source-line="16" data-uid="ent0011" id="entity_Laravel"><rect fill="#F1F1F1" height="40.6094" rx="2.5" ry="2.5" style="stroke:#181818;stroke-width:0.5;" width="104.7168" x="358.5" y="776.5163"/><polygon fill="#F1F1F1" points="446.2168,781.5163,446.2168,795.5163,458.2168,795.5163,458.2168,787.5163,452.2168,781.5163,446.2168,781.5163" style="stroke:#181818;stroke-width:0.5;"/><line style="stroke:#181818;stroke-width:0.5;" x1="452.2168" x2="452.2168" y1="781.5163" y2="787.5163"/><line style="stroke:#181818;stroke-width:0.5;" x1="458.2168" x2="452.2168" y1="787.5163" y2="787.5163"/><text fill="#000000" font-family="sans-serif" font-size="14" lengthAdjust="spacing" textLength="74.7168" x="368.5" y="804.0495">App Laravel</text></g><!--entity SQLite--><g class="entity" data-entity="SQLite" data-source-line="23" data-uid="ent0015" id="entity_SQLite"><rect fill="#F1F1F1" height="37.6094" rx="35" ry="35" style="stroke:#181818;stroke-width:0.5;" width="112.6064" x="77.5" y="998.5163"/><text fill="#000000" font-family="sans-serif" font-size="14" lengthAdjust="spacing" textLength="92.6064" x="87.5" y="1023.0495">stockage.sqlite</text></g><!--entity Public--><g class="entity" data-entity="Public" data-source-line="27" data-uid="ent0017" id="entity_Public"><rect fill="#F1F1F1" height="55.2188" rx="35" ry="35" style="stroke:#181818;stroke-width:0.5;" width="116.4756" x="247" y="990.0163"/><text fill="#000000" font-family="sans-serif" font-size="14" lengthAdjust="spacing" textLength="96.4756" x="257" y="1014.5495">Fichiers publics</text><text fill="#000000" font-family="sans-serif" font-size="14" lengthAdjust="spacing" textLength="91.8066" x="257" y="1032.1588">(images, docs)</text></g><!--entity Mail--><g class="entity" data-entity="Mail" data-source-line="31" data-uid="ent0019" id="entity_Mail"><rect fill="#F1F1F1" height="40.6094" rx="2.5" ry="2.5" style="stroke:#181818;stroke-width:0.5;" width="68.8896" x="598.5" y="997.0163"/><polygon fill="#F1F1F1" points="650.3896,1002.0163,650.3896,1016.0163,662.3896,1016.0163,662.3896,1008.0163,656.3896,1002.0163,650.3896,1002.0163" style="stroke:#181818;stroke-width:0.5;"/><line style="stroke:#181818;stroke-width:0.5;" x1="656.3896" x2="656.3896" y1="1002.0163" y2="1008.0163"/><line style="stroke:#181818;stroke-width:0.5;" x1="662.3896" x2="656.3896" y1="1008.0163" y2="1008.0163"/><text fill="#000000" font-family="sans-serif" font-size="14" lengthAdjust="spacing" textLength="38.8896" x="608.5" y="1024.5495">SMTP</text></g><!--entity PaliGemma--><g class="entity" data-entity="PaliGemma" data-source-line="32" data-uid="ent0020" id="entity_PaliGemma"><rect fill="#F1F1F1" height="40.6094" rx="2.5" ry="2.5" style="stroke:#181818;stroke-width:0.5;" width="143.6064" x="419" y="997.0163"/><polygon fill="#F1F1F1" points="545.6064,1002.0163,545.6064,1016.0163,557.6064,1016.0163,557.6064,1008.0163,551.6064,1002.0163,545.6064,1002.0163" style="stroke:#181818;stroke-width:0.5;"/><line style="stroke:#181818;stroke-width:0.5;" x1="551.6064" x2="551.6064" y1="1002.0163" y2="1008.0163"/><line style="stroke:#181818;stroke-width:0.5;" x1="557.6064" x2="551.6064" y1="1008.0163" y2="1008.0163"/><text fill="#000000" font-family="sans-serif" font-size="14" lengthAdjust="spacing" textLength="113.6064" x="429" y="1024.5495">PaliGemma 2 10B</text></g><!--entity Echo--><g class="entity" data-entity="Echo" data-source-line="33" data-uid="ent0021" id="entity_Echo"><rect fill="#F1F1F1" height="58.2188" rx="2.5" ry="2.5" style="stroke:#181818;stroke-width:0.5;" width="111.7168" x="703" y="988.5163"/><polygon fill="#F1F1F1" points="797.7168,993.5163,797.7168,1007.5163,809.7168,1007.5163,809.7168,999.5163,803.7168,993.5163,797.7168,993.5163" style="stroke:#181818;stroke-width:0.5;"/><line style="stroke:#181818;stroke-width:0.5;" x1="803.7168" x2="803.7168" y1="993.5163" y2="999.5163"/><line style="stroke:#181818;stroke-width:0.5;" x1="809.7168" x2="803.7168" y1="999.5163" y2="999.5163"/><text fill="#000000" font-family="sans-serif" font-size="14" lengthAdjust="spacing" textLength="81.7168" x="713" y="1016.0495">Laravel Echo</text><text fill="#000000" font-family="sans-serif" font-size="14" lengthAdjust="spacing" textLength="80.9102" x="713" y="1033.6588">(WebSocket)</text></g><!--entity Visiteur--><g class="entity" data-entity="Visiteur" data-source-line="3" data-uid="ent0002" id="entity_Visiteur"><ellipse cx="810.8413" cy="188.1563" fill="#F1F1F1" rx="8" ry="8" style="stroke:#181818;stroke-width:0.5;"/><path d="M810.8413,196.1563 L810.8413,223.1563 M797.8413,204.1563 L823.8413,204.1563 M810.8413,223.1563 L797.8413,238.1563 M810.8413,223.1563 L823.8413,238.1563" fill="none" style="stroke:#181818;stroke-width:0.5;"/><text fill="#000000" font-family="sans-serif" font-size="14" lengthAdjust="spacing" textLength="46.6826" x="787.5" y="254.1895">Visiteur</text></g><!--entity User--><g class="entity" data-entity="User" data-source-line="4" data-uid="ent0003" id="entity_User"><ellipse cx="719.0791" cy="179.6563" fill="#F1F1F1" rx="8" ry="8" style="stroke:#181818;stroke-width:0.5;"/><path d="M719.0791,187.6563 L719.0791,214.6563 M706.0791,195.6563 L732.0791,195.6563 M719.0791,214.6563 L706.0791,229.6563 M719.0791,214.6563 L732.0791,229.6563" fill="none" style="stroke:#181818;stroke-width:0.5;"/><text fill="#000000" font-family="sans-serif" font-size="14" lengthAdjust="spacing" textLength="62.2412" x="686" y="245.6895">Utilisateur</text><text fill="#000000" font-family="sans-serif" font-size="14" lengthAdjust="spacing" textLength="66.1582" x="686" y="263.2988">Authentifi&#233;</text></g><!--entity Proprietaire--><g class="entity" data-entity="Proprietaire" data-source-line="5" data-uid="ent0004" id="entity_Proprietaire"><ellipse cx="596.793" cy="179.6563" fill="#F1F1F1" rx="8" ry="8" style="stroke:#181818;stroke-width:0.5;"/><path d="M596.793,187.6563 L596.793,214.6563 M583.793,195.6563 L609.793,195.6563 M596.793,214.6563 L583.793,229.6563 M596.793,214.6563 L609.793,229.6563" fill="none" style="stroke:#181818;stroke-width:0.5;"/><text fill="#000000" font-family="sans-serif" font-size="14" lengthAdjust="spacing" textLength="72.3652" x="543.5" y="245.6895">Propri&#233;taire</text><text fill="#000000" font-family="sans-serif" font-size="14" lengthAdjust="spacing" textLength="106.5859" x="543.5" y="263.2988">(Baye Mor Gaye)</text></g><!--link User to Visiteur--><g class="link" data-entity-1="User" data-entity-2="Visiteur" data-source-line="7" data-uid="lnk5" id="link_User_Visiteur"><path d="M752.06,218.6563 C763.73,218.6563 757.39,218.6563 769.06,218.6563" fill="none" id="User-to-Visiteur" style="stroke:#181818;stroke-width:1;"/><polygon fill="none" points="787.06,218.6563,769.06,212.6563,769.06,224.6563,787.06,218.6563" style="stroke:#181818;stroke-width:1;"/></g><!--link Proprietaire to User--><g class="link" data-entity-1="Proprietaire" data-entity-2="User" data-source-line="8" data-uid="lnk6" id="link_Proprietaire_User"><path d="M650.85,218.6563 C662.56,218.6563 656.28,218.6563 667.99,218.6563" fill="none" id="Proprietaire-to-User" style="stroke:#181818;stroke-width:1;"/><polygon fill="none" points="685.99,218.6563,667.99,212.6563,667.99,224.6563,685.99,218.6563" style="stroke:#181818;stroke-width:1;"/></g><!--link Client to Server--><g class="link" data-entity-1="Client" data-entity-2="Server" data-source-line="37" data-uid="lnk22" id="link_Client_Server"><path d="M710.3044,435.449 C710.0356,435.4589 709.7609,435.4691 709.4804,435.4795 C708.3583,435.5213 707.1428,435.5675 705.8371,435.6183 C703.2256,435.72 700.2531,435.8404 696.9443,435.9814 C683.7092,436.5451 665.0947,437.4373 642.6919,438.7778 C597.8863,441.4588 537.9275,445.9325 475.545,453.1563 C350.78,467.6038 216.32,493.0513 174,537.1563 C171.4875,539.775 169.2122,542.5688 167.1545,545.5061 C166.1256,546.9747 165.1512,548.4792 164.2286,550.0157 C163.7673,550.784 163.319,551.5602 162.8834,552.344 C162.7745,552.5399 165.5384,547.4683 165.4311,547.6652" fill="none" id="Client-to-Server" style="stroke:#181818;stroke-width:1;"/><polygon fill="#181818" points="162.5591,552.9332,170.379,546.9458,164.9524,548.5432,163.3551,543.1165,162.5591,552.9332" style="stroke:#181818;stroke-width:1;"/><text fill="#000000" font-family="sans-serif" font-size="13" lengthAdjust="spacing" textLength="42.6118" x="210" y="525.6514">HTTPS</text></g><!--link Client to Echo--><g class="link" data-entity-1="Client" data-entity-2="Echo" data-source-line="38" data-uid="lnk23" id="link_Client_Echo"><path d="M722.629,487.8792 C722.6696,488.4696 722.7105,489.0641 722.7516,489.6627 C722.834,490.8598 722.9175,492.0732 723.0021,493.3026 C723.3404,498.22 723.6963,503.3926 724.0681,508.7978 C727.0431,552.0394 731.0425,610.1675 735.2725,671.6488 C743.7325,794.6113 752.7034,925.0004 756.6584,982.5204" fill="none" id="Client-to-Echo" style="stroke:#181818;stroke-width:1;"/><polygon fill="#181818" points="757.07,988.5063,760.4432,979.2531,756.727,983.518,752.4621,979.8018,757.07,988.5063" style="stroke:#181818;stroke-width:1;"/><text fill="#000000" font-family="sans-serif" font-size="13" lengthAdjust="spacing" textLength="107.6626" x="741" y="743.0114">WebSocket (6001)</text></g><!--link PHP to Laravel--><g class="link" data-entity-1="PHP" data-entity-2="Laravel" data-source-line="40" data-uid="lnk24" id="link_PHP_Laravel"><path d="M411.01,670.5663 C411.11,671.5663 412.7,687.7563 407,698.5163 C397.72,716.0263 382.02,710.3863 374,728.5163 C372.38,732.1763 372.74,742.7163 374,746.5163 C377.59,757.3063 380.7404,763.0109 387.6604,771.4309" fill="none" id="PHP-to-Laravel" style="stroke:#181818;stroke-width:1;"/><polygon fill="#181818" points="391.47,776.0663,388.8458,766.5734,388.2953,772.2034,382.6653,771.6529,391.47,776.0663" style="stroke:#181818;stroke-width:1;"/><text fill="#000000" font-family="sans-serif" font-size="13" lengthAdjust="spacing" textLength="45.5317" x="375" y="743.0114">ex&#233;cute</text></g><!--link Laravel to SQLite--><g class="link" data-entity-1="Laravel" data-entity-2="SQLite" data-source-line="42" data-uid="lnk25" id="link_Laravel_SQLite"><path d="M381.95,817.6563 C351.3,838.6463 301.87,873.2663 261,905.5163 C247.15,916.4463 244.3,919.9263 231,931.5163 C204.67,954.4663 178.9172,977.0458 159.2972,994.2858" fill="none" id="Laravel-to-SQLite" style="stroke:#181818;stroke-width:1;"/><polygon fill="#181818" points="154.79,998.2463,164.1911,995.3104,158.546,994.9459,158.9105,989.3008,154.79,998.2463" style="stroke:#181818;stroke-width:1;"/><text fill="#000000" font-family="sans-serif" font-size="13" lengthAdjust="spacing" textLength="80.1836" x="262" y="920.0114">PDO (SQLite)</text></g><!--link Laravel to Public--><g class="link" data-entity-1="Laravel" data-entity-2="Public" data-source-line="43" data-uid="lnk26" id="link_Laravel_Public"><path d="M401.41,817.7963 C382.3,857.1863 342.0784,940.0778 320.5284,984.5078" fill="none" id="Laravel-to-Public" style="stroke:#181818;stroke-width:1;"/><polygon fill="#181818" points="317.91,989.9063,325.4367,983.5541,320.092,985.4075,318.2387,980.0629,317.91,989.9063" style="stroke:#181818;stroke-width:1;"/><text fill="#000000" font-family="sans-serif" font-size="13" lengthAdjust="spacing" textLength="33.9409" x="359" y="920.0114">HTTP</text></g><!--link Laravel to PaliGemma--><g class="link" data-entity-1="Laravel" data-entity-2="PaliGemma" data-source-line="44" data-uid="lnk27" id="link_Laravel_PaliGemma"><path d="M418.24,817.7963 C433.47,859.3963 466.6082,949.8816 481.7682,991.3116" fill="none" id="Laravel-to-PaliGemma" style="stroke:#181818;stroke-width:1;"/><polygon fill="#181818" points="483.83,996.9463,484.4937,987.1198,482.1118,992.2507,476.9809,989.8689,483.83,996.9463" style="stroke:#181818;stroke-width:1;"/><text fill="#000000" font-family="sans-serif" font-size="13" lengthAdjust="spacing" textLength="75.8354" x="456" y="920.0114">API (HTTPS)</text></g><!--link Laravel to Mail--><g class="link" data-entity-1="Laravel" data-entity-2="Mail" data-source-line="45" data-uid="lnk28" id="link_Laravel_Mail"><path d="M442.27,817.5863 C478.62,841.3863 538.97,884.2763 581,931.5163 C598.94,951.6763 611.5838,973.4965 620.8738,991.6265" fill="none" id="Laravel-to-Mail" style="stroke:#181818;stroke-width:1;"/><polygon fill="#181818" points="623.61,996.9663,623.0656,987.1324,621.3299,992.5164,615.9459,990.7807,623.61,996.9663" style="stroke:#181818;stroke-width:1;"/><text fill="#000000" font-family="sans-serif" font-size="13" lengthAdjust="spacing" textLength="70.0718" x="574" y="920.0114">SMTP (587)</text></g><!--link Supervisor to Laravel--><g class="link" data-entity-1="Supervisor" data-entity-2="Laravel" data-source-line="47" data-uid="lnk29" id="link_Supervisor_Laravel"><path d="M563.24,698.6263 C545.13,713.5962 521.92,731.8863 500,746.5163 C483.97,757.2163 470.7435,764.9328 454.7635,773.5328" fill="none" id="Supervisor-to-Laravel" style="stroke:#181818;stroke-width:1;"/><polygon fill="#181818" points="449.48,776.3763,459.3008,775.6334,453.8829,774.0067,455.5096,768.5888,449.48,776.3763" style="stroke:#181818;stroke-width:1;"/><text fill="#000000" font-family="sans-serif" font-size="13" lengthAdjust="spacing" textLength="45.5063" x="525" y="743.0114">workers</text></g><!--link Cron to Laravel--><g class="link" data-entity-1="Cron" data-entity-2="Laravel" data-source-line="48" data-uid="lnk30" id="link_Cron_Laravel"><path d="M247.4,698.8462 C248.53,714.6163 252.53,733.6163 264,746.5163 C287.8,773.2863 320.6331,784.5432 352.3831,790.2032" fill="none" id="Cron-to-Laravel" style="stroke:#181818;stroke-width:1;"/><polygon fill="#181818" points="358.29,791.2563,350.1317,785.7388,353.3676,790.3787,348.7277,793.6147,358.29,791.2563" style="stroke:#181818;stroke-width:1;"/><text fill="#000000" font-family="sans-serif" font-size="13" lengthAdjust="spacing" textLength="56.3672" x="265" y="743.0114">scheduler</text></g><!--link Visiteur to Client--><g class="link" data-entity-1="Visiteur" data-entity-2="Client" data-source-line="51" data-uid="lnk31" id="link_Visiteur_Client"><path d="M799.06,257.7163 C791.27,276.9963 779.28,299.3863 762,314.1563 C753.45,321.4563 745.32,313.6263 738,322.1563 C733.9888,326.83 730.677,332.0342 727.9534,337.5676 C727.8683,337.7405 730.3969,332.5127 730.3129,332.6862" fill="none" id="Visiteur-to-Client" style="stroke:#181818;stroke-width:1;"/><polygon fill="#181818" points="727.6998,338.0873,735.2202,331.7278,729.8774,333.5864,728.0187,328.2436,727.6998,338.0873" style="stroke:#181818;stroke-width:1;"/><text fill="#000000" font-family="sans-serif" font-size="13" lengthAdjust="spacing" textLength="33.9409" x="778" y="310.6514">HTTP</text></g><!--link User to Client--><g class="link" data-entity-1="User" data-entity-2="Client" data-source-line="52" data-uid="lnk32" id="link_User_Client"><path d="M719,266.2463 C719,281.7063 719,299.6656 719,317.9578 C719,322.5309 719,327.1247 719,331.7055 C719,332.8507 719,333.9951 719,335.1381 C719,335.7096 719,336.2808 719,336.8516 C719,337.137 719,331.4223 719,331.7075" fill="none" id="User-to-Client" style="stroke:#181818;stroke-width:1;"/><polygon fill="#181818" points="719,337.7075,723,328.7075,719,332.7075,715,328.7075,719,337.7075" style="stroke:#181818;stroke-width:1;"/><text fill="#000000" font-family="sans-serif" font-size="13" lengthAdjust="spacing" textLength="33.9409" x="720" y="310.6514">HTTP</text></g><!--link Proprietaire to Client--><g class="link" data-entity-1="Proprietaire" data-entity-2="Client" data-source-line="53" data-uid="lnk33" id="link_Proprietaire_Client"><path d="M623.62,266.2463 C641.29,297.1663 664.6725,338.0838 683.8638,371.6663 C693.4594,388.4575 702.0072,403.415 708.2692,414.3722 C709.052,415.7418 709.799,417.049 710.5079,418.2894 C710.5965,418.4444 707.7074,413.3892 707.7948,413.5421" fill="none" id="Proprietaire-to-Client" style="stroke:#181818;stroke-width:1;"/><polygon fill="#181818" points="710.772,418.7514,709.7791,408.9527,708.291,414.4103,702.8334,412.9223,710.772,418.7514" style="stroke:#181818;stroke-width:1;"/><text fill="#000000" font-family="sans-serif" font-size="13" lengthAdjust="spacing" textLength="33.9409" x="651" y="310.6514">HTTP</text></g><!--SRC=[PLHDJnin4BtxLunoQL0RH5grfKX1Ig0G9D9kIMWlNCp6JIoyzjRsqg_mWtBlFyWVwupjtMJ3pUltPkRDc_5wwPM0SyaNbXU5W3b-RDQbCb8KGdl6UEwDXQ_IIIyg2zmrvmHrRhrKqd6wkjF3oYynJdwNctM7sBTEDCpCcj8YuBcquavtH_otW0aYbtWu2FH84O7160L3RtMwhRcB1oJaPzgWyCwPabWR4t_YZt8H5CMi4O2_381R58Twe3FDXd0Zy8W1zvLKSwpYamp4s5ETTYhiOsYkUyqjVnGgSUZQXgIHbusptaKsWUF3Dx6NSHRGtQB3ieIK9N3I6LbFRN5LYUcbCrJM8uTBfL24Wx6nye_HIKD3QqMVMQCnhbHSuoJoNISGsNOsuYwCV6wqtgo5mvZfb-l6XVDHqEzmU7o1T3pa3tWwT3yKagA2mDynAt4Yc29RMIvalfG2EochUoLpAYeBHDmhr96xj0S1Qyz0vi8rpjF7_a0diopW4pIhXMHSoKjH51nUG_ze52lKTorccWTyp9S6XNqJzrFiH_YeYcv9qmiO30PmPegYqcIlDDhH5KkBrkkTrkjn0kFPB9lk8fG5xvlSq7rtTDG_O8mMXWYrY1CGlpRhl49_MNqNKWVF4SxEFqCziHOZsfUAjv76YXCOPbVG3VBQqUGVmkGdTDyUlqTfsqNRK_ZJs0SS9gF5seDSlXJpIj7xZ8ODSnzMc9ng_YWKayn9SkEhVtRTVlhFOAR4GkWvU5FYH5S3c8bygOqo2odeysRp3_zqAyBW0iLw8g_Y7m3w7-1bUFxqyXDfn74uWLEtrEyZYuQ4BpoHg0ri_0g3O6_B4cCxvcsYi05fGLQCYaJnx3y0]--></g></svg>