<svg xmlns="http://www.w3.org/2000/svg" xmlns:xlink="http://www.w3.org/1999/xlink" contentStyleType="text/css" data-diagram-type="SEQUENCE" height="1229px" preserveAspectRatio="none" style="width:677px;height:1229px;background:#FFFFFF;" version="1.1" viewBox="0 0 677 1229" width="677px" zoomAndPan="magnify"><title>Cr&#233;ation d'un projet portfolio</title><defs/><g><text fill="#000000" font-family="sans-serif" font-size="14" font-weight="bold" lengthAdjust="spacing" textLength="193.0879" x="238.1184" y="29.5332">Cr&#233;ation d'un projet portfolio</text><rect fill="none" height="315.3516" style="stroke:#000000;stroke-width:1.5;" width="594.0205" x="10" y="354.3281"/><rect fill="none" height="222.2969" style="stroke:#000000;stroke-width:1.5;" width="445.2979" x="148.7227" y="440.3828"/><rect fill="none" height="176.1094" style="stroke:#000000;stroke-width:1.5;" width="584.0205" x="10" y="728.0313"/><g><title>Propri&#233;taire</title><rect fill="#000000" fill-opacity="0.00000" height="1026.3828" width="8" x="55.1826" y="121.2188"/><line style="stroke:#181818;stroke-width:0.5;stroke-dasharray:5.0,5.0;" x1="59" x2="59" y1="121.2188" y2="1147.6016"/></g><g><title>Frontend</title><rect fill="#000000" fill-opacity="0.00000" height="1026.3828" width="8" x="189.7397" y="121.2188"/><line style="stroke:#181818;stroke-width:0.5;stroke-dasharray:5.0,5.0;" x1="193.7227" x2="193.7227" y1="121.2188" y2="1147.6016"/></g><g><title>API</title><rect fill="#000000" fill-opacity="0.00000" height="1026.3828" width="8" x="316.3369" y="121.2188"/><line style="stroke:#181818;stroke-width:0.5;stroke-dasharray:5.0,5.0;" x1="320.0542" x2="320.0542" y1="121.2188" y2="1147.6016"/></g><g><title>Stockage</title><rect fill="#000000" fill-opacity="0.00000" height="1026.3828" width="8" x="421.9868" y="121.2188"/><line style="stroke:#181818;stroke-width:0.5;stroke-dasharray:5.0,5.0;" x1="425.8008" x2="425.8008" y1="121.2188" y2="1147.6016"/></g><g><title>BaseDeDonnees</title><rect fill="#000000" fill-opacity="0.00000" height="1026.3828" width="8" x="524.0967" y="121.2188"/><line style="stroke:#181818;stroke-width:0.5;stroke-dasharray:5.0,5.0;" x1="527.1729" x2="527.1729" y1="121.2188" y2="1147.6016"/></g><g class="participant participant-head" data-participant="Auth"><text fill="#000000" font-family="sans-serif" font-size="14" lengthAdjust="spacing" textLength="72.3652" x="20" y="118.1426">Propri&#233;taire</text><ellipse cx="59.1826" cy="52.1094" fill="#E2E2F0" rx="8" ry="8" style="stroke:#181818;stroke-width:0.5;"/><path d="M59.1826,60.1094 L59.1826,87.1094 M46.1826,68.1094 L72.1826,68.1094 M59.1826,87.1094 L46.1826,102.1094 M59.1826,87.1094 L72.1826,102.1094" fill="none" style="stroke:#181818;stroke-width:0.5;"/></g><g class="participant participant-tail" data-participant="Auth"><text fill="#000000" font-family="sans-serif" font-size="14" lengthAdjust="spacing" textLength="72.3652" x="20" y="1161.1348">Propri&#233;taire</text><ellipse cx="59.1826" cy="1172.7109" fill="#E2E2F0" rx="8" ry="8" style="stroke:#181818;stroke-width:0.5;"/><path d="M59.1826,1180.7109 L59.1826,1207.7109 M46.1826,1188.7109 L72.1826,1188.7109 M59.1826,1207.7109 L46.1826,1222.7109 M59.1826,1207.7109 L72.1826,1222.7109" fill="none" style="stroke:#181818;stroke-width:0.5;"/></g><g class="participant participant-head" data-participant="Front"><rect fill="#E2E2F0" height="31.6094" rx="2.5" ry="2.5" style="stroke:#181818;stroke-width:0.5;" width="70.0342" x="158.7227" y="88.6094"/><text fill="#000000" font-family="sans-serif" font-size="14" lengthAdjust="spacing" textLength="56.0342" x="165.7227" y="110.1426">Frontend</text></g><g class="participant participant-tail" data-participant="Front"><rect fill="#E2E2F0" height="31.6094" rx="2.5" ry="2.5" style="stroke:#181818;stroke-width:0.5;" width="70.0342" x="158.7227" y="1146.6016"/><text fill="#000000" font-family="sans-serif" font-size="14" lengthAdjust="spacing" textLength="56.0342" x="165.7227" y="1168.1348">Frontend</text></g><g class="participant participant-head" data-participant="API"><rect fill="#E2E2F0" height="31.6094" rx="2.5" ry="2.5" style="stroke:#181818;stroke-width:0.5;" width="36.5654" x="302.0542" y="88.6094"/><text fill="#000000" font-family="sans-serif" font-size="14" lengthAdjust="spacing" textLength="22.5654" x="309.0542" y="110.1426">API</text></g><g class="participant participant-tail" data-participant="API"><rect fill="#E2E2F0" height="31.6094" rx="2.5" ry="2.5" style="stroke:#181818;stroke-width:0.5;" width="36.5654" x="302.0542" y="1146.6016"/><text fill="#000000" font-family="sans-serif" font-size="14" lengthAdjust="spacing" textLength="22.5654" x="309.0542" y="1168.1348">API</text></g><g class="participant participant-head" data-participant="Storage"><rect fill="#E2E2F0" height="31.6094" rx="2.5" ry="2.5" style="stroke:#181818;stroke-width:0.5;" width="72.3721" x="389.8008" y="88.6094"/><text fill="#000000" font-family="sans-serif" font-size="14" lengthAdjust="spacing" textLength="58.3721" x="396.8008" y="110.1426">Stockage</text></g><g class="participant participant-tail" data-participant="Storage"><rect fill="#E2E2F0" height="31.6094" rx="2.5" ry="2.5" style="stroke:#181818;stroke-width:0.5;" width="72.3721" x="389.8008" y="1146.6016"/><text fill="#000000" font-family="sans-serif" font-size="14" lengthAdjust="spacing" textLength="58.3721" x="396.8008" y="1168.1348">Stockage</text></g><g class="participant participant-head" data-participant="BD"><text fill="#000000" font-family="sans-serif" font-size="14" lengthAdjust="spacing" textLength="105.8477" x="472.1729" y="118.1426">BaseDeDonnees</text><path d="M510.0967,67.6094 C510.0967,57.6094 528.0967,57.6094 528.0967,57.6094 C528.0967,57.6094 546.0967,57.6094 546.0967,67.6094 L546.0967,93.6094 C546.0967,103.6094 528.0967,103.6094 528.0967,103.6094 C528.0967,103.6094 510.0967,103.6094 510.0967,93.6094 L510.0967,67.6094" fill="#E2E2F0" style="stroke:#181818;stroke-width:1.5;"/><path d="M510.0967,67.6094 C510.0967,77.6094 528.0967,77.6094 528.0967,77.6094 C528.0967,77.6094 546.0967,77.6094 546.0967,67.6094" fill="none" style="stroke:#181818;stroke-width:1.5;"/></g><g class="participant participant-tail" data-participant="BD"><text fill="#000000" font-family="sans-serif" font-size="14" lengthAdjust="spacing" textLength="105.8477" x="472.1729" y="1161.1348">BaseDeDonnees</text><path d="M510.0967,1174.2109 C510.0967,1164.2109 528.0967,1164.2109 528.0967,1164.2109 C528.0967,1164.2109 546.0967,1164.2109 546.0967,1174.2109 L546.0967,1200.2109 C546.0967,1210.2109 528.0967,1210.2109 528.0967,1210.2109 C528.0967,1210.2109 510.0967,1210.2109 510.0967,1200.2109 L510.0967,1174.2109" fill="#E2E2F0" style="stroke:#181818;stroke-width:1.5;"/><path d="M510.0967,1174.2109 C510.0967,1184.2109 528.0967,1184.2109 528.0967,1184.2109 C528.0967,1184.2109 546.0967,1184.2109 546.0967,1174.2109" fill="none" style="stroke:#181818;stroke-width:1.5;"/></g><rect fill="#EEEEEE" height="3" style="stroke:#EEEEEE;stroke-width:1;" width="670.3247" x="0" y="152.3945"/><line style="stroke:#000000;stroke-width:1;" x1="0" x2="670.3247" y1="152.3945" y2="152.3945"/><line style="stroke:#000000;stroke-width:1;" x1="0" x2="670.3247" y1="155.3945" y2="155.3945"/><rect fill="#EEEEEE" height="24.3516" style="stroke:#000000;stroke-width:2;" width="110.0654" x="280.1296" y="141.2188"/><text fill="#000000" font-family="sans-serif" font-size="13" font-weight="bold" lengthAdjust="spacing" textLength="92.4536" x="286.1296" y="158.7139">Cr&#233;ation projet</text><g class="message" data-participant-1="Auth" data-participant-2="Front"><polygon fill="#181818" points="181.7397,193.9219,191.7397,197.9219,181.7397,201.9219,185.7397,197.9219" style="stroke:#181818;stroke-width:1;"/><line style="stroke:#181818;stroke-width:1;" x1="59.1826" x2="187.7397" y1="197.9219" y2="197.9219"/><text fill="#000000" font-family="sans-serif" font-size="13" lengthAdjust="spacing" textLength="106.1899" x="66.1826" y="193.0654">Remplir formulaire</text></g><g class="message" data-participant-1="Front" data-participant-2="API"><polygon fill="#181818" points="308.3369,224.2734,318.3369,228.2734,308.3369,232.2734,312.3369,228.2734" style="stroke:#181818;stroke-width:1;"/><line style="stroke:#181818;stroke-width:1;" x1="193.7397" x2="314.3369" y1="228.2734" y2="228.2734"/><text fill="#000000" font-family="sans-serif" font-size="13" lengthAdjust="spacing" textLength="102.5972" x="200.7397" y="223.417">POST /api/projets</text></g><g class="message" data-participant-1="API" data-participant-2="BD"><polygon fill="#181818" points="516.0967,257.625,526.0967,261.625,516.0967,265.625,520.0967,261.625" style="stroke:#181818;stroke-width:1;"/><line style="stroke:#181818;stroke-width:1;" x1="320.3369" x2="522.0967" y1="261.625" y2="261.625"/><text fill="#000000" font-family="sans-serif" font-size="13" lengthAdjust="spacing" textLength="47.6709" x="327.3369" y="256.7686">INSERT</text></g><path d="M533,241.2734 L533,267.2734 L660,267.2734 L660,251.2734 L650,241.2734 L533,241.2734" fill="#FEFFDD" style="stroke:#181818;stroke-width:0.5;"/><path d="M650,241.2734 L650,251.2734 L660,251.2734 L650,241.2734" fill="#FEFFDD" style="stroke:#181818;stroke-width:0.5;"/><text fill="#000000" font-family="sans-serif" font-size="13" lengthAdjust="spacing" textLength="106.228" x="539" y="259.7686">Validation champs</text><g class="message" data-participant-1="BD" data-participant-2="API"><polygon fill="#181818" points="331.3369,290.9766,321.3369,294.9766,331.3369,298.9766,327.3369,294.9766" style="stroke:#181818;stroke-width:1;"/><line style="stroke:#181818;stroke-width:1;stroke-dasharray:2.0,2.0;" x1="325.3369" x2="527.0967" y1="294.9766" y2="294.9766"/><text fill="#000000" font-family="sans-serif" font-size="13" lengthAdjust="spacing" textLength="62.8608" x="337.3369" y="290.1201">Projet cr&#233;&#233;</text></g><rect fill="#EEEEEE" height="3" style="stroke:#EEEEEE;stroke-width:1;" width="670.3247" x="0" y="324.1523"/><line style="stroke:#000000;stroke-width:1;" x1="0" x2="670.3247" y1="324.1523" y2="324.1523"/><line style="stroke:#000000;stroke-width:1;" x1="0" x2="670.3247" y1="327.1523" y2="327.1523"/><rect fill="#EEEEEE" height="24.3516" style="stroke:#000000;stroke-width:2;" width="110.0781" x="280.1233" y="312.9766"/><text fill="#000000" font-family="sans-serif" font-size="13" font-weight="bold" lengthAdjust="spacing" textLength="92.4663" x="286.1233" y="330.4717">Upload m&#233;dias</text><path d="M10,354.3281 L82.4346,354.3281 L82.4346,362.6797 L72.4346,372.6797 L10,372.6797 L10,354.3281" fill="#EEEEEE" style="stroke:#000000;stroke-width:1.5;"/><rect fill="none" height="315.3516" style="stroke:#000000;stroke-width:1.5;" width="594.0205" x="10" y="354.3281"/><text fill="#000000" font-family="sans-serif" font-size="13" font-weight="bold" lengthAdjust="spacing" textLength="27.4346" x="25" y="368.8232">loop</text><text fill="#000000" font-family="sans-serif" font-size="11" font-weight="bold" lengthAdjust="spacing" textLength="109.3984" x="97.4346" y="367.7471">[pour chaque fichier]</text><g class="message" data-participant-1="Auth" data-participant-2="Front"><polygon fill="#181818" points="181.7397,391.0313,191.7397,395.0313,181.7397,399.0313,185.7397,395.0313" style="stroke:#181818;stroke-width:1;"/><line style="stroke:#181818;stroke-width:1;" x1="59.1826" x2="187.7397" y1="395.0313" y2="395.0313"/><text fill="#000000" font-family="sans-serif" font-size="13" lengthAdjust="spacing" textLength="110.5571" x="66.1826" y="390.1748">S&#233;lectionner fichier</text></g><g class="message" data-participant-1="Front" data-participant-2="API"><polygon fill="#181818" points="308.3369,421.3828,318.3369,425.3828,308.3369,429.3828,312.3369,425.3828" style="stroke:#181818;stroke-width:1;"/><line style="stroke:#181818;stroke-width:1;" x1="193.7397" x2="314.3369" y1="425.3828" y2="425.3828"/><text fill="#000000" font-family="sans-serif" font-size="13" lengthAdjust="spacing" textLength="95.3608" x="200.7397" y="420.5264">POST .../medias</text></g><path d="M148.7227,440.3828 L208.8936,440.3828 L208.8936,448.7344 L198.8936,458.7344 L148.7227,458.7344 L148.7227,440.3828" fill="#EEEEEE" style="stroke:#000000;stroke-width:1.5;"/><rect fill="none" height="222.2969" style="stroke:#000000;stroke-width:1.5;" width="445.2979" x="148.7227" y="440.3828"/><text fill="#000000" font-family="sans-serif" font-size="13" font-weight="bold" lengthAdjust="spacing" textLength="15.1709" x="163.7227" y="454.8779">alt</text><text fill="#000000" font-family="sans-serif" font-size="11" font-weight="bold" lengthAdjust="spacing" textLength="74.5776" x="223.8936" y="453.8018">[fichier valide]</text><g class="message" data-participant-1="API" data-participant-2="Storage"><polygon fill="#181818" points="413.9868,480.0859,423.9868,484.0859,413.9868,488.0859,417.9868,484.0859" style="stroke:#181818;stroke-width:1;"/><line style="stroke:#181818;stroke-width:1;" x1="320.3369" x2="419.9868" y1="484.0859" y2="484.0859"/><text fill="#000000" font-family="sans-serif" font-size="13" lengthAdjust="spacing" textLength="41.1963" x="327.3369" y="479.2295">Upload</text></g><path d="M430,463.7344 L430,489.7344 L519,489.7344 L519,473.7344 L509,463.7344 L430,463.7344" fill="#FEFFDD" style="stroke:#181818;stroke-width:0.5;"/><path d="M509,463.7344 L509,473.7344 L519,473.7344 L509,463.7344" fill="#FEFFDD" style="stroke:#181818;stroke-width:0.5;"/><text fill="#000000" font-family="sans-serif" font-size="13" lengthAdjust="spacing" textLength="68.6626" x="436" y="482.2295">Local ou S3</text><g class="message" data-participant-1="Storage" data-participant-2="API"><polygon fill="#181818" points="331.3369,513.4375,321.3369,517.4375,331.3369,521.4375,327.3369,517.4375" style="stroke:#181818;stroke-width:1;"/><line style="stroke:#181818;stroke-width:1;stroke-dasharray:2.0,2.0;" x1="325.3369" x2="424.9868" y1="517.4375" y2="517.4375"/><text fill="#000000" font-family="sans-serif" font-size="13" lengthAdjust="spacing" textLength="81.6499" x="337.3369" y="512.5811">URL stockage</text></g><g class="message" data-participant-1="API" data-participant-2="BD"><polygon fill="#181818" points="516.0967,543.7891,526.0967,547.7891,516.0967,551.7891,520.0967,547.7891" style="stroke:#181818;stroke-width:1;"/><line style="stroke:#181818;stroke-width:1;" x1="320.3369" x2="522.0967" y1="547.7891" y2="547.7891"/><text fill="#000000" font-family="sans-serif" font-size="13" lengthAdjust="spacing" textLength="86.6899" x="327.3369" y="542.9326">INSERT m&#233;dia</text></g><g class="message" data-participant-1="BD" data-participant-2="API"><polygon fill="#181818" points="331.3369,574.1406,321.3369,578.1406,331.3369,582.1406,327.3369,578.1406" style="stroke:#181818;stroke-width:1;"/><line style="stroke:#181818;stroke-width:1;stroke-dasharray:2.0,2.0;" x1="325.3369" x2="527.0967" y1="578.1406" y2="578.1406"/><text fill="#000000" font-family="sans-serif" font-size="13" lengthAdjust="spacing" textLength="96.8271" x="337.3369" y="573.2842">M&#233;dia enregistr&#233;</text></g><g class="message" data-participant-1="API" data-participant-2="Front"><polygon fill="#181818" points="204.7397,604.4922,194.7397,608.4922,204.7397,612.4922,200.7397,608.4922" style="stroke:#181818;stroke-width:1;"/><line style="stroke:#181818;stroke-width:1;stroke-dasharray:2.0,2.0;" x1="198.7397" x2="319.3369" y1="608.4922" y2="608.4922"/><text fill="#000000" font-family="sans-serif" font-size="13" lengthAdjust="spacing" textLength="41.1899" x="210.7397" y="603.6357">Aper&#231;u</text></g><line style="stroke:#000000;stroke-width:1;stroke-dasharray:2.0,2.0;" x1="148.7227" x2="594.0205" y1="617.4922" y2="617.4922"/><text fill="#000000" font-family="sans-serif" font-size="11" font-weight="bold" lengthAdjust="spacing" textLength="99.0054" x="153.7227" y="628.9111">[type non autoris&#233;]</text><g class="message" data-participant-1="API" data-participant-2="Front"><polygon fill="#181818" points="204.7397,650.6797,194.7397,654.6797,204.7397,658.6797,200.7397,654.6797" style="stroke:#181818;stroke-width:1;"/><line style="stroke:#181818;stroke-width:1;stroke-dasharray:2.0,2.0;" x1="198.7397" x2="319.3369" y1="654.6797" y2="654.6797"/><text fill="#000000" font-family="sans-serif" font-size="13" lengthAdjust="spacing" textLength="76.5718" x="210.7397" y="649.8232">Erreur format</text></g><rect fill="#EEEEEE" height="3" style="stroke:#EEEEEE;stroke-width:1;" width="670.3247" x="0" y="697.8555"/><line style="stroke:#000000;stroke-width:1;" x1="0" x2="670.3247" y1="697.8555" y2="697.8555"/><line style="stroke:#000000;stroke-width:1;" x1="0" x2="670.3247" y1="700.8555" y2="700.8555"/><rect fill="#EEEEEE" height="24.3516" style="stroke:#000000;stroke-width:2;" width="153.3755" x="258.4746" y="686.6797"/><text fill="#000000" font-family="sans-serif" font-size="13" font-weight="bold" lengthAdjust="spacing" textLength="135.7637" x="264.4746" y="704.1748">Lien d&#233;mo (optionnel)</text><path d="M10,728.0313 L75.2109,728.0313 L75.2109,736.3828 L65.2109,746.3828 L10,746.3828 L10,728.0313" fill="#EEEEEE" style="stroke:#000000;stroke-width:1.5;"/><rect fill="none" height="176.1094" style="stroke:#000000;stroke-width:1.5;" width="584.0205" x="10" y="728.0313"/><text fill="#000000" font-family="sans-serif" font-size="13" font-weight="bold" lengthAdjust="spacing" textLength="20.2109" x="25" y="742.5264">opt</text><text fill="#000000" font-family="sans-serif" font-size="11" font-weight="bold" lengthAdjust="spacing" textLength="102.6577" x="90.2109" y="741.4502">[URL d&#233;mo fournie]</text><g class="message" data-participant-1="Auth" data-participant-2="Front"><polygon fill="#181818" points="181.7397,764.7344,191.7397,768.7344,181.7397,772.7344,185.7397,768.7344" style="stroke:#181818;stroke-width:1;"/><line style="stroke:#181818;stroke-width:1;" x1="59.1826" x2="187.7397" y1="768.7344" y2="768.7344"/><text fill="#000000" font-family="sans-serif" font-size="13" lengthAdjust="spacing" textLength="98.2554" x="66.1826" y="763.8779">Saisir URL d&#233;mo</text></g><g class="message" data-participant-1="Front" data-participant-2="API"><polygon fill="#181818" points="308.3369,798.0859,318.3369,802.0859,308.3369,806.0859,312.3369,802.0859" style="stroke:#181818;stroke-width:1;"/><line style="stroke:#181818;stroke-width:1;" x1="193.7397" x2="314.3369" y1="802.0859" y2="802.0859"/><text fill="#000000" font-family="sans-serif" font-size="13" lengthAdjust="spacing" textLength="76.5781" x="200.7397" y="797.2295">PUT .../projet</text></g><path d="M325,781.7344 L325,807.7344 L479,807.7344 L479,791.7344 L469,781.7344 L325,781.7344" fill="#FEFFDD" style="stroke:#181818;stroke-width:0.5;"/><path d="M469,781.7344 L469,791.7344 L479,791.7344 L469,781.7344" fill="#FEFFDD" style="stroke:#181818;stroke-width:0.5;"/><text fill="#000000" font-family="sans-serif" font-size="13" lengthAdjust="spacing" textLength="133.688" x="331" y="800.2295">Validation URL externe</text><g class="message" data-participant-1="API" data-participant-2="BD"><polygon fill="#181818" points="516.0967,831.4375,526.0967,835.4375,516.0967,839.4375,520.0967,835.4375" style="stroke:#181818;stroke-width:1;"/><line style="stroke:#181818;stroke-width:1;" x1="320.3369" x2="522.0967" y1="835.4375" y2="835.4375"/><text fill="#000000" font-family="sans-serif" font-size="13" lengthAdjust="spacing" textLength="110.5381" x="327.3369" y="830.5811">UPDATE url_demo</text></g><g class="message" data-participant-1="BD" data-participant-2="API"><polygon fill="#181818" points="331.3369,861.7891,321.3369,865.7891,331.3369,869.7891,327.3369,865.7891" style="stroke:#181818;stroke-width:1;"/><line style="stroke:#181818;stroke-width:1;stroke-dasharray:2.0,2.0;" x1="325.3369" x2="527.0967" y1="865.7891" y2="865.7891"/><text fill="#000000" font-family="sans-serif" font-size="13" lengthAdjust="spacing" textLength="93.9199" x="337.3369" y="860.9326">Projet mis &#224; jour</text></g><g class="message" data-participant-1="API" data-participant-2="Front"><polygon fill="#181818" points="204.7397,892.1406,194.7397,896.1406,204.7397,900.1406,200.7397,896.1406" style="stroke:#181818;stroke-width:1;"/><line style="stroke:#181818;stroke-width:1;stroke-dasharray:2.0,2.0;" x1="198.7397" x2="319.3369" y1="896.1406" y2="896.1406"/><text fill="#000000" font-family="sans-serif" font-size="13" lengthAdjust="spacing" textLength="64.3145" x="210.7397" y="891.2842">Lien visible</text></g><rect fill="#EEEEEE" height="3" style="stroke:#EEEEEE;stroke-width:1;" width="670.3247" x="0" y="932.3164"/><line style="stroke:#000000;stroke-width:1;" x1="0" x2="670.3247" y1="932.3164" y2="932.3164"/><line style="stroke:#000000;stroke-width:1;" x1="0" x2="670.3247" y1="935.3164" y2="935.3164"/><rect fill="#EEEEEE" height="24.3516" style="stroke:#000000;stroke-width:2;" width="87.6709" x="291.3269" y="921.1406"/><text fill="#000000" font-family="sans-serif" font-size="13" font-weight="bold" lengthAdjust="spacing" textLength="70.0591" x="297.3269" y="938.6357">Publication</text><g class="message" data-participant-1="Auth" data-participant-2="Front"><polygon fill="#181818" points="181.7397,973.8438,191.7397,977.8438,181.7397,981.8438,185.7397,977.8438" style="stroke:#181818;stroke-width:1;"/><line style="stroke:#181818;stroke-width:1;" x1="59.1826" x2="187.7397" y1="977.8438" y2="977.8438"/><text fill="#000000" font-family="sans-serif" font-size="13" lengthAdjust="spacing" textLength="90.3271" x="66.1826" y="972.9873">Publier le projet</text></g><g class="message" data-participant-1="Front" data-participant-2="API"><polygon fill="#181818" points="308.3369,1004.1953,318.3369,1008.1953,308.3369,1012.1953,312.3369,1008.1953" style="stroke:#181818;stroke-width:1;"/><line style="stroke:#181818;stroke-width:1;" x1="193.7397" x2="314.3369" y1="1008.1953" y2="1008.1953"/><text fill="#000000" font-family="sans-serif" font-size="13" lengthAdjust="spacing" textLength="83.0845" x="200.7397" y="1003.3389">PUT .../publier</text></g><g class="message" data-participant-1="API" data-participant-2="BD"><polygon fill="#181818" points="516.0967,1034.5469,526.0967,1038.5469,516.0967,1042.5469,520.0967,1038.5469" style="stroke:#181818;stroke-width:1;"/><line style="stroke:#181818;stroke-width:1;" x1="320.3369" x2="522.0967" y1="1038.5469" y2="1038.5469"/><text fill="#000000" font-family="sans-serif" font-size="13" lengthAdjust="spacing" textLength="145.6025" x="327.3369" y="1033.6904">UPDATE est_publie=true</text></g><g class="message" data-participant-1="BD" data-participant-2="API"><polygon fill="#181818" points="331.3369,1064.8984,321.3369,1068.8984,331.3369,1072.8984,327.3369,1068.8984" style="stroke:#181818;stroke-width:1;"/><line style="stroke:#181818;stroke-width:1;stroke-dasharray:2.0,2.0;" x1="325.3369" x2="527.0967" y1="1068.8984" y2="1068.8984"/><text fill="#000000" font-family="sans-serif" font-size="13" lengthAdjust="spacing" textLength="72.2681" x="337.3369" y="1064.042">Projet publi&#233;</text></g><g class="message" data-participant-1="API" data-participant-2="Front"><polygon fill="#181818" points="204.7397,1095.25,194.7397,1099.25,204.7397,1103.25,200.7397,1099.25" style="stroke:#181818;stroke-width:1;"/><line style="stroke:#181818;stroke-width:1;stroke-dasharray:2.0,2.0;" x1="198.7397" x2="319.3369" y1="1099.25" y2="1099.25"/><text fill="#000000" font-family="sans-serif" font-size="13" lengthAdjust="spacing" textLength="73.6963" x="210.7397" y="1094.3936">Projet visible</text></g><g class="message" data-participant-1="Front" data-participant-2="Auth"><polygon fill="#181818" points="70.1826,1125.6016,60.1826,1129.6016,70.1826,1133.6016,66.1826,1129.6016" style="stroke:#181818;stroke-width:1;"/><line style="stroke:#181818;stroke-width:1;stroke-dasharray:2.0,2.0;" x1="64.1826" x2="192.7397" y1="1129.6016" y2="1129.6016"/><text fill="#000000" font-family="sans-serif" font-size="13" lengthAdjust="spacing" textLength="42.6309" x="76.1826" y="1124.7451">Succ&#232;s</text></g><!--SRC=[TPJBZjem58RtVegpQxiOM7I7H2Leg8H4suXBjoEJ7C1JntPz6RLlqrsRvyYBzTZEG1Ye1CZuFvVlN18ll4JuQBkMUw4Lr6-20cFr4temslg3ba8pnYklBPHM6okwrdDX4RY3MV0dPhZreXA6Am-Vh5OULHt5TBvIP-KoUPNBg-kDrzLtVamHwMpfo6hk-PuxX3dz55XefH1Tj9WNZ4sd0-IUTZfb4GSUFkJC4rXZOwImSD2s2J8oiwH44sAOGFbriuKnDsASOpWM2KcT5nDOVjairbkcj4UmudYYWD-u57LEMfruOnoR5_1mZfOvAWBhsiIuCrBp6fgkhGMH4w7Ksb1VWuq1VWI4WwXE0Yq3U0M_wLg9LSobq0xCxbGm6et63SOKfDE7I__Y0CyH6UaIeA-jx_2afqlIiCYLhhW47M3pFccz_QNEtNe5hX_PCF2bQNt5IHnsw7Ew1bGMZy9vQjJ5_rBvpA3j_WIIKD82-5y62L013qGYt7sdXRKOygYvZwwgPl4Rnx0II8lTjOs6jzhabiftSHpqBvMJnGFDHGcyCmik7EtHsV9s3BiyXRn6xBgXWws94V2dHwjIbalVTcKnsouWMFbOOqfmPxCQuQ3x3K-4oMuQa8fy9iwzn7FbPTXBKUNSjyz7Kcb7w0NGW_-dgcp7RddH-SUiJhqDUEznI3BDx1Lkhxu0zucZBp5InqDLTNyT-mS0]--></g></svg>