<svg xmlns="http://www.w3.org/2000/svg" xmlns:xlink="http://www.w3.org/1999/xlink" contentStyleType="text/css" data-diagram-type="ACTIVITY" height="1054px" preserveAspectRatio="none" style="width:365px;height:1054px;background:#FFFFFF;" version="1.1" viewBox="0 0 365 1054" width="365px" zoomAndPan="magnify"><title>Activit&#233; : Mod&#233;rer les commentaires</title><defs/><g><text fill="#000000" font-family="sans-serif" font-size="14" font-weight="bold" lengthAdjust="spacing" textLength="240.4199" x="61.0176" y="34.5332">Activit&#233; : Mod&#233;rer les commentaires</text><ellipse cx="179.2319" cy="58.6094" fill="#222222" rx="10" ry="10" style="stroke:#222222;stroke-width:1;"/><rect fill="none" height="359.2656" style="stroke:#000000;stroke-width:1.5;" width="343.4551" x="11" y="78.6094"/><path d="M93.3652,78.6094 L93.3652,89.2188 L83.3652,99.2188 L11,99.2188" fill="none" style="stroke:#000000;stroke-width:1.5;"/><text fill="#000000" font-family="sans-serif" font-size="14" lengthAdjust="spacing" textLength="72.3652" x="14" y="94.1426">Propri&#233;taire</text><rect fill="#F1F1F1" height="50.1875" rx="12.5" ry="12.5" style="stroke:#181818;stroke-width:0.5;" width="145.7129" x="106.3755" y="116.2188"/><text fill="#000000" font-family="sans-serif" font-size="12" lengthAdjust="spacing" textLength="85.377" x="116.3755" y="138.6758">Acc&#233;der &#224; la file</text><text fill="#000000" font-family="sans-serif" font-size="12" lengthAdjust="spacing" textLength="125.7129" x="116.3755" y="153.7695">d'attente de mod&#233;ration</text><rect fill="#F1F1F1" height="50.1875" rx="12.5" ry="12.5" style="stroke:#181818;stroke-width:0.5;" width="106.0391" x="126.2124" y="186.4063"/><text fill="#000000" font-family="sans-serif" font-size="12" lengthAdjust="spacing" textLength="78.7207" x="136.2124" y="208.8633">Lire le contenu</text><text fill="#000000" font-family="sans-serif" font-size="12" lengthAdjust="spacing" textLength="86.0391" x="136.2124" y="223.957">du commentaire</text><rect fill="#F1F1F1" height="50.1875" rx="12.5" ry="12.5" style="stroke:#181818;stroke-width:0.5;" width="100.3262" x="129.0688" y="256.5938"/><text fill="#000000" font-family="sans-serif" font-size="12" lengthAdjust="spacing" textLength="80.3262" x="139.0688" y="279.0508">V&#233;rifier l'auteur</text><text fill="#000000" font-family="sans-serif" font-size="12" lengthAdjust="spacing" textLength="49.3711" x="139.0688" y="294.1445">et la date</text><polygon fill="#F1F1F1" points="153.5527,326.7813,204.9111,326.7813,216.9111,338.7813,204.9111,350.7813,153.5527,350.7813,141.5527,338.7813,153.5527,326.7813" style="stroke:#181818;stroke-width:0.5;"/><text fill="#000000" font-family="sans-serif" font-size="11" lengthAdjust="spacing" textLength="51.3584" x="153.5527" y="343.2822">D&#233;cision ?</text><text fill="#000000" font-family="sans-serif" font-size="11" lengthAdjust="spacing" textLength="50.7515" x="90.8013" y="336.3643">Approuver</text><text fill="#000000" font-family="sans-serif" font-size="11" lengthAdjust="spacing" textLength="35.46" x="216.9111" y="336.3643">Rejeter</text><rect fill="#F1F1F1" height="35.0938" rx="12.5" ry="12.5" style="stroke:#181818;stroke-width:0.5;" width="130.7363" x="31" y="360.7813"/><text fill="#000000" font-family="sans-serif" font-size="12" lengthAdjust="spacing" textLength="110.7363" x="41" y="383.2383">Valider la publication</text><rect fill="#F1F1F1" height="35.0938" rx="12.5" ry="12.5" style="stroke:#181818;stroke-width:0.5;" width="160.7188" x="181.7363" y="360.7813"/><text fill="#000000" font-family="sans-serif" font-size="12" lengthAdjust="spacing" textLength="140.7188" x="191.7363" y="383.2383">Supprimer le commentaire</text><polygon fill="#F1F1F1" points="179.2319,401.875,191.2319,413.875,179.2319,425.875,167.2319,413.875,179.2319,401.875" style="stroke:#181818;stroke-width:0.5;"/><rect fill="none" height="309.2031" style="stroke:#000000;stroke-width:1.5;" width="318.7949" x="14.1641" y="447.875"/><path d="M78.626,447.875 L78.626,458.4844 L68.626,468.4844 L14.1641,468.4844" fill="none" style="stroke:#000000;stroke-width:1.5;"/><text fill="#000000" font-family="sans-serif" font-size="14" lengthAdjust="spacing" textLength="54.4619" x="17.1641" y="463.4082">Syst&#232;me</text><rect fill="#F1F1F1" height="50.1875" rx="12.5" ry="12.5" style="stroke:#181818;stroke-width:0.5;" width="142.0449" x="108.2095" y="485.4844"/><text fill="#000000" font-family="sans-serif" font-size="12" lengthAdjust="spacing" textLength="122.0449" x="118.2095" y="507.9414">Charger commentaires</text><text fill="#000000" font-family="sans-serif" font-size="12" lengthAdjust="spacing" textLength="79.3945" x="118.2095" y="523.0352">non approuv&#233;s</text><polygon fill="#F1F1F1" points="159.3589,555.6719,199.105,555.6719,211.105,567.6719,199.105,579.6719,159.3589,579.6719,147.3589,567.6719,159.3589,555.6719" style="stroke:#181818;stroke-width:0.5;"/><text fill="#000000" font-family="sans-serif" font-size="11" lengthAdjust="spacing" textLength="39.7461" x="159.3589" y="572.1729">Action ?</text><text fill="#000000" font-family="sans-serif" font-size="11" lengthAdjust="spacing" textLength="50.7515" x="96.6074" y="565.2549">Approuver</text><text fill="#000000" font-family="sans-serif" font-size="11" lengthAdjust="spacing" textLength="35.46" x="211.105" y="565.2549">Rejeter</text><rect fill="#F1F1F1" height="55.2188" rx="12.5" ry="12.5" style="stroke:#181818;stroke-width:0.5;" width="140.7383" x="34.1641" y="589.6719"/><text fill="#000000" font-family="sans-serif" font-size="12" lengthAdjust="spacing" textLength="120.7383" x="44.1641" y="612.1289">Marquer est_approuve</text><text fill="#000000" font-family="sans-serif" font-size="16" font-weight="bold" lengthAdjust="spacing" textLength="30.2266" x="44.1641" y="631.375">true</text><rect fill="#F1F1F1" height="50.1875" rx="12.5" ry="12.5" style="stroke:#181818;stroke-width:0.5;" width="118.0566" x="194.9023" y="589.6719"/><text fill="#000000" font-family="sans-serif" font-size="12" lengthAdjust="spacing" textLength="57.375" x="204.9023" y="612.1289">Soft delete</text><text fill="#000000" font-family="sans-serif" font-size="12" lengthAdjust="spacing" textLength="98.0566" x="204.9023" y="627.2227">(dateSuppression)</text><polygon fill="#F1F1F1" points="179.2319,650.8906,191.2319,662.8906,179.2319,674.8906,167.2319,662.8906,179.2319,650.8906" style="stroke:#181818;stroke-width:0.5;"/><rect fill="#F1F1F1" height="50.1875" rx="12.5" ry="12.5" style="stroke:#181818;stroke-width:0.5;" width="100.3262" x="129.0688" y="694.8906"/><text fill="#000000" font-family="sans-serif" font-size="12" lengthAdjust="spacing" textLength="80.3262" x="139.0688" y="717.3477">Notifier l'auteur</text><text fill="#000000" font-family="sans-serif" font-size="12" lengthAdjust="spacing" textLength="46.0313" x="139.0688" y="732.4414">du statut</text><rect fill="none" height="233.9844" style="stroke:#000000;stroke-width:1.5;" width="311.4004" x="22.0303" y="767.0781"/><path d="M88.0645,767.0781 L88.0645,777.6875 L78.0645,787.6875 L22.0303,787.6875" fill="none" style="stroke:#000000;stroke-width:1.5;"/><text fill="#000000" font-family="sans-serif" font-size="14" lengthAdjust="spacing" textLength="56.0342" x="25.0303" y="782.6113">Frontend</text><rect fill="#F1F1F1" height="50.1875" rx="12.5" ry="12.5" style="stroke:#181818;stroke-width:0.5;" width="92.0293" x="133.2173" y="804.6875"/><text fill="#000000" font-family="sans-serif" font-size="12" lengthAdjust="spacing" textLength="72.0293" x="143.2173" y="827.1445">Afficher la file</text><text fill="#000000" font-family="sans-serif" font-size="12" lengthAdjust="spacing" textLength="45.6621" x="143.2173" y="842.2383">d'attente</text><polygon fill="#F1F1F1" points="151.1008,874.875,207.363,874.875,219.363,886.875,207.363,898.875,151.1008,898.875,139.1008,886.875,151.1008,874.875" style="stroke:#181818;stroke-width:0.5;"/><text fill="#000000" font-family="sans-serif" font-size="11" lengthAdjust="spacing" textLength="56.2622" x="151.1008" y="891.376">Approuv&#233; ?</text><text fill="#000000" font-family="sans-serif" font-size="11" lengthAdjust="spacing" textLength="17.1177" x="121.9832" y="884.458">Oui</text><rect fill="#F1F1F1" height="50.1875" rx="12.5" ry="12.5" style="stroke:#181818;stroke-width:0.5;" width="128.7031" x="42.0303" y="908.875"/><text fill="#000000" font-family="sans-serif" font-size="12" lengthAdjust="spacing" textLength="108.7031" x="52.0303" y="931.332">Commentaire visible</text><text fill="#000000" font-family="sans-serif" font-size="12" lengthAdjust="spacing" textLength="90.0527" x="52.0303" y="946.4258">sur la publication</text><rect fill="#F1F1F1" height="50.1875" rx="12.5" ry="12.5" style="stroke:#181818;stroke-width:0.5;" width="122.6973" x="190.7334" y="908.875"/><text fill="#000000" font-family="sans-serif" font-size="12" lengthAdjust="spacing" textLength="102.6973" x="200.7334" y="931.332">Commentaire retir&#233;</text><text fill="#000000" font-family="sans-serif" font-size="12" lengthAdjust="spacing" textLength="44.6953" x="200.7334" y="946.4258">de la file</text><polygon fill="#F1F1F1" points="179.2319,965.0625,191.2319,977.0625,179.2319,989.0625,167.2319,977.0625,179.2319,965.0625" style="stroke:#181818;stroke-width:0.5;"/><ellipse cx="179.2319" cy="1032.0625" fill="none" rx="11" ry="11" style="stroke:#222222;stroke-width:1;"/><ellipse cx="179.2319" cy="1032.0625" fill="#222222" rx="6" ry="6" style="stroke:#222222;stroke-width:1;"/><line style="stroke:#181818;stroke-width:1;" x1="179.2319" x2="179.2319" y1="166.4063" y2="186.4063"/><polygon fill="#181818" points="175.2319,176.4063,179.2319,186.4063,183.2319,176.4063,179.2319,180.4063" style="stroke:#181818;stroke-width:1;"/><line style="stroke:#181818;stroke-width:1;" x1="179.2319" x2="179.2319" y1="236.5938" y2="256.5938"/><polygon fill="#181818" points="175.2319,246.5938,179.2319,256.5938,183.2319,246.5938,179.2319,250.5938" style="stroke:#181818;stroke-width:1;"/><line style="stroke:#181818;stroke-width:1;" x1="141.5527" x2="96.3682" y1="338.7813" y2="338.7813"/><line style="stroke:#181818;stroke-width:1;" x1="96.3682" x2="96.3682" y1="338.7813" y2="360.7813"/><polygon fill="#181818" points="92.3682,350.7813,96.3682,360.7813,100.3682,350.7813,96.3682,354.7813" style="stroke:#181818;stroke-width:1;"/><line style="stroke:#181818;stroke-width:1;" x1="216.9111" x2="262.0957" y1="338.7813" y2="338.7813"/><line style="stroke:#181818;stroke-width:1;" x1="262.0957" x2="262.0957" y1="338.7813" y2="360.7813"/><polygon fill="#181818" points="258.0957,350.7813,262.0957,360.7813,266.0957,350.7813,262.0957,354.7813" style="stroke:#181818;stroke-width:1;"/><line style="stroke:#181818;stroke-width:1;" x1="96.3682" x2="96.3682" y1="395.875" y2="413.875"/><line style="stroke:#181818;stroke-width:1;" x1="96.3682" x2="167.2319" y1="413.875" y2="413.875"/><polygon fill="#181818" points="157.2319,409.875,167.2319,413.875,157.2319,417.875,161.2319,413.875" style="stroke:#181818;stroke-width:1;"/><line style="stroke:#181818;stroke-width:1;" x1="262.0957" x2="262.0957" y1="395.875" y2="413.875"/><line style="stroke:#181818;stroke-width:1;" x1="262.0957" x2="191.2319" y1="413.875" y2="413.875"/><polygon fill="#181818" points="201.2319,409.875,191.2319,413.875,201.2319,417.875,197.2319,413.875" style="stroke:#181818;stroke-width:1;"/><line style="stroke:#181818;stroke-width:1;" x1="179.2319" x2="179.2319" y1="306.7813" y2="326.7813"/><polygon fill="#181818" points="175.2319,316.7813,179.2319,326.7813,183.2319,316.7813,179.2319,320.7813" style="stroke:#181818;stroke-width:1;"/><line style="stroke:#181818;stroke-width:1;" x1="179.2319" x2="179.2319" y1="68.6094" y2="116.2188"/><polygon fill="#181818" points="175.2319,106.2188,179.2319,116.2188,183.2319,106.2188,179.2319,110.2188" style="stroke:#181818;stroke-width:1;"/><line style="stroke:#181818;stroke-width:1;" x1="147.3589" x2="104.5332" y1="567.6719" y2="567.6719"/><line style="stroke:#181818;stroke-width:1;" x1="104.5332" x2="104.5332" y1="567.6719" y2="589.6719"/><polygon fill="#181818" points="100.5332,579.6719,104.5332,589.6719,108.5332,579.6719,104.5332,583.6719" style="stroke:#181818;stroke-width:1;"/><line style="stroke:#181818;stroke-width:1;" x1="211.105" x2="253.9307" y1="567.6719" y2="567.6719"/><line style="stroke:#181818;stroke-width:1;" x1="253.9307" x2="253.9307" y1="567.6719" y2="589.6719"/><polygon fill="#181818" points="249.9307,579.6719,253.9307,589.6719,257.9307,579.6719,253.9307,583.6719" style="stroke:#181818;stroke-width:1;"/><line style="stroke:#181818;stroke-width:1;" x1="104.5332" x2="104.5332" y1="644.8906" y2="662.8906"/><line style="stroke:#181818;stroke-width:1;" x1="104.5332" x2="167.2319" y1="662.8906" y2="662.8906"/><polygon fill="#181818" points="157.2319,658.8906,167.2319,662.8906,157.2319,666.8906,161.2319,662.8906" style="stroke:#181818;stroke-width:1;"/><line style="stroke:#181818;stroke-width:1;" x1="253.9307" x2="253.9307" y1="639.8594" y2="662.8906"/><line style="stroke:#181818;stroke-width:1;" x1="253.9307" x2="191.2319" y1="662.8906" y2="662.8906"/><polygon fill="#181818" points="201.2319,658.8906,191.2319,662.8906,201.2319,666.8906,197.2319,662.8906" style="stroke:#181818;stroke-width:1;"/><line style="stroke:#181818;stroke-width:1;" x1="179.2319" x2="179.2319" y1="535.6719" y2="555.6719"/><polygon fill="#181818" points="175.2319,545.6719,179.2319,555.6719,183.2319,545.6719,179.2319,549.6719" style="stroke:#181818;stroke-width:1;"/><line style="stroke:#181818;stroke-width:1;" x1="179.2319" x2="179.2319" y1="674.8906" y2="694.8906"/><polygon fill="#181818" points="175.2319,684.8906,179.2319,694.8906,183.2319,684.8906,179.2319,688.8906" style="stroke:#181818;stroke-width:1;"/><line style="stroke:#181818;stroke-width:1;" x1="179.2319" x2="179.2319" y1="425.875" y2="485.4844"/><polygon fill="#181818" points="175.2319,475.4844,179.2319,485.4844,183.2319,475.4844,179.2319,479.4844" style="stroke:#181818;stroke-width:1;"/><line style="stroke:#181818;stroke-width:1;" x1="139.1008" x2="106.3818" y1="886.875" y2="886.875"/><line style="stroke:#181818;stroke-width:1;" x1="106.3818" x2="106.3818" y1="886.875" y2="908.875"/><polygon fill="#181818" points="102.3818,898.875,106.3818,908.875,110.3818,898.875,106.3818,902.875" style="stroke:#181818;stroke-width:1;"/><line style="stroke:#181818;stroke-width:1;" x1="219.363" x2="252.082" y1="886.875" y2="886.875"/><line style="stroke:#181818;stroke-width:1;" x1="252.082" x2="252.082" y1="886.875" y2="908.875"/><polygon fill="#181818" points="248.082,898.875,252.082,908.875,256.082,898.875,252.082,902.875" style="stroke:#181818;stroke-width:1;"/><line style="stroke:#181818;stroke-width:1;" x1="106.3818" x2="106.3818" y1="959.0625" y2="977.0625"/><line style="stroke:#181818;stroke-width:1;" x1="106.3818" x2="167.2319" y1="977.0625" y2="977.0625"/><polygon fill="#181818" points="157.2319,973.0625,167.2319,977.0625,157.2319,981.0625,161.2319,977.0625" style="stroke:#181818;stroke-width:1;"/><line style="stroke:#181818;stroke-width:1;" x1="252.082" x2="252.082" y1="959.0625" y2="977.0625"/><line style="stroke:#181818;stroke-width:1;" x1="252.082" x2="191.2319" y1="977.0625" y2="977.0625"/><polygon fill="#181818" points="201.2319,973.0625,191.2319,977.0625,201.2319,981.0625,197.2319,977.0625" style="stroke:#181818;stroke-width:1;"/><line style="stroke:#181818;stroke-width:1;" x1="179.2319" x2="179.2319" y1="854.875" y2="874.875"/><polygon fill="#181818" points="175.2319,864.875,179.2319,874.875,183.2319,864.875,179.2319,868.875" style="stroke:#181818;stroke-width:1;"/><line style="stroke:#181818;stroke-width:1;" x1="179.2319" x2="179.2319" y1="745.0781" y2="804.6875"/><polygon fill="#181818" points="175.2319,794.6875,179.2319,804.6875,183.2319,794.6875,179.2319,798.6875" style="stroke:#181818;stroke-width:1;"/><line style="stroke:#181818;stroke-width:1;" x1="179.2319" x2="179.2319" y1="989.0625" y2="1021.0625"/><polygon fill="#181818" points="175.2319,1011.0625,179.2319,1021.0625,183.2319,1011.0625,179.2319,1015.0625" style="stroke:#181818;stroke-width:1;"/><!--SRC=[VP5DJiCm48NtESNicbwX5K9L4IiAY4gi8Y4tcT11ZXtiSIM4k0jBSWvVZ76Q_gAoyS9wR-QRzvXO8ynAfWrnx6022rl5pg43ZHvAspHeM953dsMUbUCiQ-Kb9clWqTdMKUnw0Nnc09DPMSQk4dly1gsW9es5gKQAMUOWL0XDlq2b0TFak4jUWIYj24mGTJZUsskUnK4r9QgH2ep15GOvBQWKznAg8R-9NKa-WLsFWTTe89-rhRDXWsuicZH8QKfqucp3IbEvvq3j4V8dV4FUgvT1xDJqOPmpeQcephwEurX-U8u_pP34VAtSgrYFCooC4PtQGiNExyXJ0VzXBvHx3p8BFRyCRedr2jW5l0XlQvQyjNmL9ayvzUUWJmcD3oU8zDxoURfIWjJDWQUdDzwwlgPgQBkkgLnlypohUd_QxjZ3TG-11iRv8HlOI7MhDCA7I_tyDJbaSh6JlRXZE2d7isr_0G00]--></g></svg>