<svg xmlns="http://www.w3.org/2000/svg" xmlns:xlink="http://www.w3.org/1999/xlink" contentStyleType="text/css" data-diagram-type="SEQUENCE" height="1189px" preserveAspectRatio="none" style="width:902px;height:1189px;background:#FFFFFF;" version="1.1" viewBox="0 0 902 1189" width="902px" zoomAndPan="magnify"><title>Mod&#233;ration des commentaires</title><defs/><g><text fill="#000000" font-family="sans-serif" font-size="14" font-weight="bold" lengthAdjust="spacing" textLength="202.2754" x="346.3213" y="29.5332">Mod&#233;ration des commentaires</text><rect fill="none" height="436.7578" style="stroke:#000000;stroke-width:1.5;" width="875.918" x="10" y="425.3828"/><rect fill="none" height="343.7031" style="stroke:#000000;stroke-width:1.5;" width="855.918" x="20" y="511.4375"/><rect fill="none" height="170.1094" style="stroke:#000000;stroke-width:1.5;" width="744.6084" x="20" y="920.4922"/><g><title>Propri&#233;taire</title><rect fill="#000000" fill-opacity="0.00000" height="986.3828" width="8" x="65.1826" y="121.2188"/><line style="stroke:#181818;stroke-width:0.5;stroke-dasharray:5.0,5.0;" x1="69" x2="69" y1="121.2188" y2="1107.6016"/></g><g><title>Frontend</title><rect fill="#000000" fill-opacity="0.00000" height="986.3828" width="8" x="265.5142" y="121.2188"/><line style="stroke:#181818;stroke-width:0.5;stroke-dasharray:5.0,5.0;" x1="269.4971" x2="269.4971" y1="121.2188" y2="1107.6016"/></g><g><title>API</title><rect fill="#000000" fill-opacity="0.00000" height="986.3828" width="8" x="502.6685" y="121.2188"/><line style="stroke:#181818;stroke-width:0.5;stroke-dasharray:5.0,5.0;" x1="506.3857" x2="506.3857" y1="121.2188" y2="1107.6016"/></g><g><title>BaseDeDonnees</title><rect fill="#000000" fill-opacity="0.00000" height="986.3828" width="8" x="694.6846" y="121.2188"/><line style="stroke:#181818;stroke-width:0.5;stroke-dasharray:5.0,5.0;" x1="697.7607" x2="697.7607" y1="121.2188" y2="1107.6016"/></g><g class="participant participant-head" data-participant="Auth"><text fill="#000000" font-family="sans-serif" font-size="14" lengthAdjust="spacing" textLength="72.3652" x="30" y="118.1426">Propri&#233;taire</text><ellipse cx="69.1826" cy="52.1094" fill="#E2E2F0" rx="8" ry="8" style="stroke:#181818;stroke-width:0.5;"/><path d="M69.1826,60.1094 L69.1826,87.1094 M56.1826,68.1094 L82.1826,68.1094 M69.1826,87.1094 L56.1826,102.1094 M69.1826,87.1094 L82.1826,102.1094" fill="none" style="stroke:#181818;stroke-width:0.5;"/></g><g class="participant participant-tail" data-participant="Auth"><text fill="#000000" font-family="sans-serif" font-size="14" lengthAdjust="spacing" textLength="72.3652" x="30" y="1121.1348">Propri&#233;taire</text><ellipse cx="69.1826" cy="1132.7109" fill="#E2E2F0" rx="8" ry="8" style="stroke:#181818;stroke-width:0.5;"/><path d="M69.1826,1140.7109 L69.1826,1167.7109 M56.1826,1148.7109 L82.1826,1148.7109 M69.1826,1167.7109 L56.1826,1182.7109 M69.1826,1167.7109 L82.1826,1182.7109" fill="none" style="stroke:#181818;stroke-width:0.5;"/></g><g class="participant participant-head" data-participant="Front"><rect fill="#E2E2F0" height="31.6094" rx="2.5" ry="2.5" style="stroke:#181818;stroke-width:0.5;" width="70.0342" x="234.4971" y="88.6094"/><text fill="#000000" font-family="sans-serif" font-size="14" lengthAdjust="spacing" textLength="56.0342" x="241.4971" y="110.1426">Frontend</text></g><g class="participant participant-tail" data-participant="Front"><rect fill="#E2E2F0" height="31.6094" rx="2.5" ry="2.5" style="stroke:#181818;stroke-width:0.5;" width="70.0342" x="234.4971" y="1106.6016"/><text fill="#000000" font-family="sans-serif" font-size="14" lengthAdjust="spacing" textLength="56.0342" x="241.4971" y="1128.1348">Frontend</text></g><g class="participant participant-head" data-participant="API"><rect fill="#E2E2F0" height="31.6094" rx="2.5" ry="2.5" style="stroke:#181818;stroke-width:0.5;" width="36.5654" x="488.3857" y="88.6094"/><text fill="#000000" font-family="sans-serif" font-size="14" lengthAdjust="spacing" textLength="22.5654" x="495.3857" y="110.1426">API</text></g><g class="participant participant-tail" data-participant="API"><rect fill="#E2E2F0" height="31.6094" rx="2.5" ry="2.5" style="stroke:#181818;stroke-width:0.5;" width="36.5654" x="488.3857" y="1106.6016"/><text fill="#000000" font-family="sans-serif" font-size="14" lengthAdjust="spacing" textLength="22.5654" x="495.3857" y="1128.1348">API</text></g><g class="participant participant-head" data-participant="BD"><text fill="#000000" font-family="sans-serif" font-size="14" lengthAdjust="spacing" textLength="105.8477" x="642.7607" y="118.1426">BaseDeDonnees</text><path d="M680.6846,67.6094 C680.6846,57.6094 698.6846,57.6094 698.6846,57.6094 C698.6846,57.6094 716.6846,57.6094 716.6846,67.6094 L716.6846,93.6094 C716.6846,103.6094 698.6846,103.6094 698.6846,103.6094 C698.6846,103.6094 680.6846,103.6094 680.6846,93.6094 L680.6846,67.6094" fill="#E2E2F0" style="stroke:#181818;stroke-width:1.5;"/><path d="M680.6846,67.6094 C680.6846,77.6094 698.6846,77.6094 698.6846,77.6094 C698.6846,77.6094 716.6846,77.6094 716.6846,67.6094" fill="none" style="stroke:#181818;stroke-width:1.5;"/></g><g class="participant participant-tail" data-participant="BD"><text fill="#000000" font-family="sans-serif" font-size="14" lengthAdjust="spacing" textLength="105.8477" x="642.7607" y="1121.1348">BaseDeDonnees</text><path d="M680.6846,1134.2109 C680.6846,1124.2109 698.6846,1124.2109 698.6846,1124.2109 C698.6846,1124.2109 716.6846,1124.2109 716.6846,1134.2109 L716.6846,1160.2109 C716.6846,1170.2109 698.6846,1170.2109 698.6846,1170.2109 C698.6846,1170.2109 680.6846,1170.2109 680.6846,1160.2109 L680.6846,1134.2109" fill="#E2E2F0" style="stroke:#181818;stroke-width:1.5;"/><path d="M680.6846,1134.2109 C680.6846,1144.2109 698.6846,1144.2109 698.6846,1144.2109 C698.6846,1144.2109 716.6846,1144.2109 716.6846,1134.2109" fill="none" style="stroke:#181818;stroke-width:1.5;"/></g><rect fill="#EEEEEE" height="3" style="stroke:#EEEEEE;stroke-width:1;" width="895.918" x="0" y="152.3945"/><line style="stroke:#000000;stroke-width:1;" x1="0" x2="895.918" y1="152.3945" y2="152.3945"/><line style="stroke:#000000;stroke-width:1;" x1="0" x2="895.918" y1="155.3945" y2="155.3945"/><rect fill="#EEEEEE" height="24.3516" style="stroke:#000000;stroke-width:2;" width="214.8208" x="340.5486" y="141.2188"/><text fill="#000000" font-family="sans-serif" font-size="13" font-weight="bold" lengthAdjust="spacing" textLength="197.209" x="346.5486" y="158.7139">Consultation des commentaires</text><g class="message" data-participant-1="Auth" data-participant-2="Front"><polygon fill="#181818" points="257.5142,210.2734,267.5142,214.2734,257.5142,218.2734,261.5142,214.2734" style="stroke:#181818;stroke-width:1;"/><line style="stroke:#181818;stroke-width:1;" x1="69.1826" x2="263.5142" y1="214.2734" y2="214.2734"/><text fill="#000000" font-family="sans-serif" font-size="13" lengthAdjust="spacing" textLength="92.4917" x="76.1826" y="193.0654">Acc&#233;der &#224; la file</text><text fill="#000000" font-family="sans-serif" font-size="13" lengthAdjust="spacing" textLength="118.1172" x="76.1826" y="209.417">d'attente mod&#233;ration</text></g><g class="message" data-participant-1="Front" data-participant-2="API"><polygon fill="#181818" points="494.6685,240.625,504.6685,244.625,494.6685,248.625,498.6685,244.625" style="stroke:#181818;stroke-width:1;"/><line style="stroke:#181818;stroke-width:1;" x1="269.5142" x2="500.6685" y1="244.625" y2="244.625"/><text fill="#000000" font-family="sans-serif" font-size="13" lengthAdjust="spacing" textLength="198.7007" x="276.5142" y="239.7686">GET /api/commentaires/en-attente</text></g><g class="message" data-participant-1="API" data-participant-2="BD"><polygon fill="#181818" points="686.6846,270.9766,696.6846,274.9766,686.6846,278.9766,690.6846,274.9766" style="stroke:#181818;stroke-width:1;"/><line style="stroke:#181818;stroke-width:1;" x1="506.6685" x2="692.6846" y1="274.9766" y2="274.9766"/><text fill="#000000" font-family="sans-serif" font-size="13" lengthAdjust="spacing" textLength="168.0161" x="513.6685" y="270.1201">SELECT est_approuve=false</text></g><g class="message" data-participant-1="BD" data-participant-2="API"><polygon fill="#181818" points="517.6685,301.3281,507.6685,305.3281,517.6685,309.3281,513.6685,305.3281" style="stroke:#181818;stroke-width:1;"/><line style="stroke:#181818;stroke-width:1;stroke-dasharray:2.0,2.0;" x1="511.6685" x2="697.6846" y1="305.3281" y2="305.3281"/><text fill="#000000" font-family="sans-serif" font-size="13" lengthAdjust="spacing" textLength="112.709" x="523.6685" y="300.4717">Liste commentaires</text></g><g class="message" data-participant-1="API" data-participant-2="Front"><polygon fill="#181818" points="280.5142,331.6797,270.5142,335.6797,280.5142,339.6797,276.5142,335.6797" style="stroke:#181818;stroke-width:1;"/><line style="stroke:#181818;stroke-width:1;stroke-dasharray:2.0,2.0;" x1="274.5142" x2="505.6685" y1="335.6797" y2="335.6797"/><text fill="#000000" font-family="sans-serif" font-size="13" lengthAdjust="spacing" textLength="80.2026" x="286.5142" y="330.8232">Tri&#233;s par date</text></g><g class="message" data-participant-1="Front" data-participant-2="Auth"><polygon fill="#181818" points="80.1826,362.0313,70.1826,366.0313,80.1826,370.0313,76.1826,366.0313" style="stroke:#181818;stroke-width:1;"/><line style="stroke:#181818;stroke-width:1;stroke-dasharray:2.0,2.0;" x1="74.1826" x2="268.5142" y1="366.0313" y2="366.0313"/><text fill="#000000" font-family="sans-serif" font-size="13" lengthAdjust="spacing" textLength="176.3315" x="86.1826" y="361.1748">Aper&#231;u (contenu, auteur, date)</text></g><rect fill="#EEEEEE" height="3" style="stroke:#EEEEEE;stroke-width:1;" width="895.918" x="0" y="395.207"/><line style="stroke:#000000;stroke-width:1;" x1="0" x2="895.918" y1="395.207" y2="395.207"/><line style="stroke:#000000;stroke-width:1;" x1="0" x2="895.918" y1="398.207" y2="398.207"/><rect fill="#EEEEEE" height="24.3516" style="stroke:#000000;stroke-width:2;" width="87.6646" x="404.1267" y="384.0313"/><text fill="#000000" font-family="sans-serif" font-size="13" font-weight="bold" lengthAdjust="spacing" textLength="70.0527" x="410.1267" y="401.5264">Mod&#233;ration</text><path d="M10,425.3828 L82.4346,425.3828 L82.4346,433.7344 L72.4346,443.7344 L10,443.7344 L10,425.3828" fill="#EEEEEE" style="stroke:#000000;stroke-width:1.5;"/><rect fill="none" height="436.7578" style="stroke:#000000;stroke-width:1.5;" width="875.918" x="10" y="425.3828"/><text fill="#000000" font-family="sans-serif" font-size="13" font-weight="bold" lengthAdjust="spacing" textLength="27.4346" x="25" y="439.8779">loop</text><text fill="#000000" font-family="sans-serif" font-size="11" font-weight="bold" lengthAdjust="spacing" textLength="144.8584" x="97.4346" y="438.8018">[pour chaque commentaire]</text><g class="message" data-participant-1="Auth" data-participant-2="Front"><polygon fill="#181818" points="257.5142,462.0859,267.5142,466.0859,257.5142,470.0859,261.5142,466.0859" style="stroke:#181818;stroke-width:1;"/><line style="stroke:#181818;stroke-width:1;" x1="69.1826" x2="263.5142" y1="466.0859" y2="466.0859"/><text fill="#000000" font-family="sans-serif" font-size="13" lengthAdjust="spacing" textLength="104.7808" x="76.1826" y="461.2295">Examiner contenu</text></g><g class="message" data-participant-1="Auth" data-participant-2="Front"><polygon fill="#181818" points="257.5142,492.4375,267.5142,496.4375,257.5142,500.4375,261.5142,496.4375" style="stroke:#181818;stroke-width:1;"/><line style="stroke:#181818;stroke-width:1;" x1="69.1826" x2="263.5142" y1="496.4375" y2="496.4375"/><text fill="#000000" font-family="sans-serif" font-size="13" lengthAdjust="spacing" textLength="112.7217" x="76.1826" y="491.5811">Approuver / Rejeter</text></g><path d="M20,511.4375 L80.1709,511.4375 L80.1709,519.7891 L70.1709,529.7891 L20,529.7891 L20,511.4375" fill="#EEEEEE" style="stroke:#000000;stroke-width:1.5;"/><rect fill="none" height="343.7031" style="stroke:#000000;stroke-width:1.5;" width="855.918" x="20" y="511.4375"/><text fill="#000000" font-family="sans-serif" font-size="13" font-weight="bold" lengthAdjust="spacing" textLength="15.1709" x="35" y="525.9326">alt</text><text fill="#000000" font-family="sans-serif" font-size="11" font-weight="bold" lengthAdjust="spacing" textLength="56.8369" x="95.1709" y="524.8564">[approuv&#233;]</text><g class="message" data-participant-1="Front" data-participant-2="API"><polygon fill="#181818" points="494.6685,548.1406,504.6685,552.1406,494.6685,556.1406,498.6685,552.1406" style="stroke:#181818;stroke-width:1;"/><line style="stroke:#181818;stroke-width:1;" x1="269.5142" x2="500.6685" y1="552.1406" y2="552.1406"/><text fill="#000000" font-family="sans-serif" font-size="13" lengthAdjust="spacing" textLength="210.2598" x="276.5142" y="547.2842">PUT .../commentaires/{id}/approuver</text></g><g class="message" data-participant-1="API" data-participant-2="BD"><polygon fill="#181818" points="686.6846,578.4922,696.6846,582.4922,686.6846,586.4922,690.6846,582.4922" style="stroke:#181818;stroke-width:1;"/><line style="stroke:#181818;stroke-width:1;" x1="506.6685" x2="692.6846" y1="582.4922" y2="582.4922"/><text fill="#000000" font-family="sans-serif" font-size="13" lengthAdjust="spacing" textLength="165.1152" x="513.6685" y="577.6357">UPDATE est_approuve=true</text></g><g class="message" data-participant-1="BD" data-participant-2="API"><polygon fill="#181818" points="517.6685,608.8438,507.6685,612.8438,517.6685,616.8438,513.6685,612.8438" style="stroke:#181818;stroke-width:1;"/><line style="stroke:#181818;stroke-width:1;stroke-dasharray:2.0,2.0;" x1="511.6685" x2="697.6846" y1="612.8438" y2="612.8438"/><text fill="#000000" font-family="sans-serif" font-size="13" lengthAdjust="spacing" textLength="117.7617" x="523.6685" y="607.9873">Commentaire visible</text></g><g class="message" data-participant-1="API" data-participant-2="Front"><polygon fill="#181818" points="280.5142,639.1953,270.5142,643.1953,280.5142,647.1953,276.5142,643.1953" style="stroke:#181818;stroke-width:1;"/><line style="stroke:#181818;stroke-width:1;stroke-dasharray:2.0,2.0;" x1="274.5142" x2="505.6685" y1="643.1953" y2="643.1953"/><text fill="#000000" font-family="sans-serif" font-size="13" lengthAdjust="spacing" textLength="42.6309" x="286.5142" y="638.3389">Succ&#232;s</text></g><g class="message" data-participant-1="Front" data-participant-2="Auth"><polygon fill="#181818" points="80.1826,669.5469,70.1826,673.5469,80.1826,677.5469,76.1826,673.5469" style="stroke:#181818;stroke-width:1;"/><line style="stroke:#181818;stroke-width:1;stroke-dasharray:2.0,2.0;" x1="74.1826" x2="268.5142" y1="673.5469" y2="673.5469"/><text fill="#000000" font-family="sans-serif" font-size="13" lengthAdjust="spacing" textLength="116.3335" x="86.1826" y="668.6904">Commentaire publi&#233;</text></g><line style="stroke:#000000;stroke-width:1;stroke-dasharray:2.0,2.0;" x1="20" x2="875.918" y1="682.5469" y2="682.5469"/><text fill="#000000" font-family="sans-serif" font-size="11" font-weight="bold" lengthAdjust="spacing" textLength="36.6792" x="25" y="693.9658">[rejet&#233;]</text><g class="message" data-participant-1="Front" data-participant-2="API"><polygon fill="#181818" points="494.6685,715.7344,504.6685,719.7344,494.6685,723.7344,498.6685,719.7344" style="stroke:#181818;stroke-width:1;"/><line style="stroke:#181818;stroke-width:1;" x1="269.5142" x2="500.6685" y1="719.7344" y2="719.7344"/><text fill="#000000" font-family="sans-serif" font-size="13" lengthAdjust="spacing" textLength="172.6816" x="276.5142" y="714.8779">DELETE .../commentaires/{id}</text></g><g class="message" data-participant-1="API" data-participant-2="BD"><polygon fill="#181818" points="686.6846,749.0859,696.6846,753.0859,686.6846,757.0859,690.6846,753.0859" style="stroke:#181818;stroke-width:1;"/><line style="stroke:#181818;stroke-width:1;" x1="506.6685" x2="692.6846" y1="753.0859" y2="753.0859"/><text fill="#000000" font-family="sans-serif" font-size="13" lengthAdjust="spacing" textLength="62.1563" x="513.6685" y="748.2295">Soft delete</text></g><path d="M703,732.7344 L703,758.7344 L860,758.7344 L860,742.7344 L850,732.7344 L703,732.7344" fill="#FEFFDD" style="stroke:#181818;stroke-width:0.5;"/><path d="M850,732.7344 L850,742.7344 L860,742.7344 L850,732.7344" fill="#FEFFDD" style="stroke:#181818;stroke-width:0.5;"/><text fill="#000000" font-family="sans-serif" font-size="13" lengthAdjust="spacing" textLength="136.2334" x="709" y="751.2295">dateSuppression = now</text><g class="message" data-participant-1="BD" data-participant-2="API"><polygon fill="#181818" points="517.6685,782.4375,507.6685,786.4375,517.6685,790.4375,513.6685,786.4375" style="stroke:#181818;stroke-width:1;"/><line style="stroke:#181818;stroke-width:1;stroke-dasharray:2.0,2.0;" x1="511.6685" x2="697.6846" y1="786.4375" y2="786.4375"/><text fill="#000000" font-family="sans-serif" font-size="13" lengthAdjust="spacing" textLength="55.6372" x="523.6685" y="781.5811">Supprim&#233;</text></g><g class="message" data-participant-1="API" data-participant-2="Front"><polygon fill="#181818" points="280.5142,812.7891,270.5142,816.7891,280.5142,820.7891,276.5142,816.7891" style="stroke:#181818;stroke-width:1;"/><line style="stroke:#181818;stroke-width:1;stroke-dasharray:2.0,2.0;" x1="274.5142" x2="505.6685" y1="816.7891" y2="816.7891"/><text fill="#000000" font-family="sans-serif" font-size="13" lengthAdjust="spacing" textLength="42.6309" x="286.5142" y="811.9326">Succ&#232;s</text></g><g class="message" data-participant-1="Front" data-participant-2="Auth"><polygon fill="#181818" points="80.1826,843.1406,70.1826,847.1406,80.1826,851.1406,76.1826,847.1406" style="stroke:#181818;stroke-width:1;"/><line style="stroke:#181818;stroke-width:1;stroke-dasharray:2.0,2.0;" x1="74.1826" x2="268.5142" y1="847.1406" y2="847.1406"/><text fill="#000000" font-family="sans-serif" font-size="13" lengthAdjust="spacing" textLength="111.2554" x="86.1826" y="842.2842">Commentaire retir&#233;</text></g><rect fill="#EEEEEE" height="3" style="stroke:#EEEEEE;stroke-width:1;" width="895.918" x="0" y="890.3164"/><line style="stroke:#000000;stroke-width:1;" x1="0" x2="895.918" y1="890.3164" y2="890.3164"/><line style="stroke:#000000;stroke-width:1;" x1="0" x2="895.918" y1="893.3164" y2="893.3164"/><rect fill="#EEEEEE" height="24.3516" style="stroke:#000000;stroke-width:2;" width="214.0464" x="340.9358" y="879.1406"/><text fill="#000000" font-family="sans-serif" font-size="13" font-weight="bold" lengthAdjust="spacing" textLength="196.4346" x="346.9358" y="896.6357">Notification r&#233;ponse (optionnel)</text><path d="M20,920.4922 L85.2109,920.4922 L85.2109,928.8438 L75.2109,938.8438 L20,938.8438 L20,920.4922" fill="#EEEEEE" style="stroke:#000000;stroke-width:1.5;"/><rect fill="none" height="170.1094" style="stroke:#000000;stroke-width:1.5;" width="744.6084" x="20" y="920.4922"/><text fill="#000000" font-family="sans-serif" font-size="13" font-weight="bold" lengthAdjust="spacing" textLength="20.2109" x="35" y="934.9873">opt</text><text fill="#000000" font-family="sans-serif" font-size="11" font-weight="bold" lengthAdjust="spacing" textLength="50.1177" x="100.2109" y="933.9111">[r&#233;ponse]</text><g class="message" data-participant-1="Auth" data-participant-2="Front"><polygon fill="#181818" points="257.5142,957.1953,267.5142,961.1953,257.5142,965.1953,261.5142,961.1953" style="stroke:#181818;stroke-width:1;"/><line style="stroke:#181818;stroke-width:1;" x1="69.1826" x2="263.5142" y1="961.1953" y2="961.1953"/><text fill="#000000" font-family="sans-serif" font-size="13" lengthAdjust="spacing" textLength="96.1162" x="76.1826" y="956.3389">R&#233;diger r&#233;ponse</text></g><g class="message" data-participant-1="Front" data-participant-2="API"><polygon fill="#181818" points="494.6685,987.5469,504.6685,991.5469,494.6685,995.5469,498.6685,991.5469" style="stroke:#181818;stroke-width:1;"/><line style="stroke:#181818;stroke-width:1;" x1="269.5142" x2="500.6685" y1="991.5469" y2="991.5469"/><text fill="#000000" font-family="sans-serif" font-size="13" lengthAdjust="spacing" textLength="213.1543" x="276.5142" y="986.6904">POST .../commentaires/{id}/repondre</text></g><g class="message" data-participant-1="API" data-participant-2="BD"><polygon fill="#181818" points="686.6846,1017.8984,696.6846,1021.8984,686.6846,1025.8984,690.6846,1021.8984" style="stroke:#181818;stroke-width:1;"/><line style="stroke:#181818;stroke-width:1;" x1="506.6685" x2="692.6846" y1="1021.8984" y2="1021.8984"/><text fill="#000000" font-family="sans-serif" font-size="13" lengthAdjust="spacing" textLength="98.2617" x="513.6685" y="1017.042">INSERT r&#233;ponse</text></g><g class="message" data-participant-1="BD" data-participant-2="API"><polygon fill="#181818" points="517.6685,1048.25,507.6685,1052.25,517.6685,1056.25,513.6685,1052.25" style="stroke:#181818;stroke-width:1;"/><line style="stroke:#181818;stroke-width:1;stroke-dasharray:2.0,2.0;" x1="511.6685" x2="697.6846" y1="1052.25" y2="1052.25"/><text fill="#000000" font-family="sans-serif" font-size="13" lengthAdjust="spacing" textLength="88.1689" x="523.6685" y="1047.3936">R&#233;ponse cr&#233;&#233;e</text></g><g class="message" data-participant-1="API" data-participant-2="Front"><polygon fill="#181818" points="280.5142,1078.6016,270.5142,1082.6016,280.5142,1086.6016,276.5142,1082.6016" style="stroke:#181818;stroke-width:1;"/><line style="stroke:#181818;stroke-width:1;stroke-dasharray:2.0,2.0;" x1="274.5142" x2="505.6685" y1="1082.6016" y2="1082.6016"/><text fill="#000000" font-family="sans-serif" font-size="13" lengthAdjust="spacing" textLength="73.6963" x="286.5142" y="1077.7451">Confirmation</text></g><!--SRC=[dLJBZjem5DtxA-wkCz80UoGg0KahfEaKaSokKcMIo-0giLq_ffMg_ajtBT-H7-kr2IG1kkaYKPBxEkVSupZXAeGFgcmEXZkX99HeeL1rZT9nOT0onWkd3AoDqaOqX_WLk8MvTtkckN6Y49fB1- -CaWvb6OBnUH2ThrUnQhrY9NTyoot2Wcu99afAfAaKNIICpMQmLDBwojq61BCP2xDXzFOuPWhpecWE9HfeVa75OISg_2JBDzmH78TGT_HOh0Yb16GAxzCS9boBIN_01EMeBMK1DIKlaYbawMEwp06j-yorDig_ucp7AujiaS3erF5HM9eu433swC3cGKKBf0sG47X251eGAoAZqJI_FTmLKKx_0DmxzEOXfjz7WVeB8pagfJHevGqKU_xL3-OpW0krqk-y5fBKQWTSPynRVWOciC4lwD0mokALWvPwSw1tWA6Qw-SSnkFnKCmVelmvEGbcObLFrETrCi_JeQZEU8nvVLsNNKzu5LPiA-nwTSWpJrRuO_lWpiBsMsY_hKGaWRH1C87aJKu9RPq0tgHrIIPJEqTshKYl69AAh634ovw0XTrbdYYYjN5h5FrsnJ9cYBf5yf_S33fXZjnaoS8LBFEadDY9ukWP2ciwOmXtIeSF4glxO2HwEyUkRR6XGoPUo1Mzb0i7VCp-PG63L58U_TX9jdhAqatURzYNOtE2ML12SpZNTf3eJx4JfZwUxK3rBm00]--></g></svg>