<svg xmlns="http://www.w3.org/2000/svg" xmlns:xlink="http://www.w3.org/1999/xlink" contentStyleType="text/css" data-diagram-type="ACTIVITY" height="763px" preserveAspectRatio="none" style="width:505px;height:763px;background:#FFFFFF;" version="1.1" viewBox="0 0 505 763" width="505px" zoomAndPan="magnify"><title>Activit&#233; : G&#233;rer les comp&#233;tences</title><defs/><g><text fill="#000000" font-family="sans-serif" font-size="14" font-weight="bold" lengthAdjust="spacing" textLength="217.0957" x="142.6826" y="34.5332">Activit&#233; : G&#233;rer les comp&#233;tences</text><ellipse cx="257.0586" cy="58.6094" fill="#222222" rx="10" ry="10" style="stroke:#222222;stroke-width:1;"/><rect fill="none" height="331.8438" style="stroke:#000000;stroke-width:1.5;" width="452.125" x="30.3359" y="78.6094"/><path d="M112.7012,78.6094 L112.7012,89.2188 L102.7012,99.2188 L30.3359,99.2188" fill="none" style="stroke:#000000;stroke-width:1.5;"/><text fill="#000000" font-family="sans-serif" font-size="14" lengthAdjust="spacing" textLength="72.3652" x="33.3359" y="94.1426">Propri&#233;taire</text><rect fill="#F1F1F1" height="50.1875" rx="12.5" ry="12.5" style="stroke:#181818;stroke-width:0.5;" width="125.8965" x="194.1104" y="116.2188"/><text fill="#000000" font-family="sans-serif" font-size="12" lengthAdjust="spacing" textLength="54.0293" x="204.1104" y="138.6758">Acc&#233;der &#224;</text><text fill="#000000" font-family="sans-serif" font-size="12" lengthAdjust="spacing" textLength="105.8965" x="204.1104" y="153.7695">"Mes comp&#233;tences"</text><polygon fill="#F1F1F1" points="82.8223,186.4063,122.5684,186.4063,134.5684,198.4063,122.5684,210.4063,82.8223,210.4063,70.8223,198.4063,82.8223,186.4063" style="stroke:#181818;stroke-width:0.5;"/><text fill="#000000" font-family="sans-serif" font-size="11" lengthAdjust="spacing" textLength="34.853" x="106.6953" y="221.8252">Ajouter</text><text fill="#000000" font-family="sans-serif" font-size="11" lengthAdjust="spacing" textLength="39.7461" x="82.8223" y="202.9072">Action ?</text><rect fill="#F1F1F1" height="50.1875" rx="12.5" ry="12.5" style="stroke:#181818;stroke-width:0.5;" width="104.7207" x="50.335" y="244.2422"/><text fill="#000000" font-family="sans-serif" font-size="12" lengthAdjust="spacing" textLength="60.0176" x="60.335" y="266.6992">Saisir nom,</text><text fill="#000000" font-family="sans-serif" font-size="12" lengthAdjust="spacing" textLength="84.7207" x="60.335" y="281.793">cat&#233;gorie, ic&#244;ne</text><rect fill="#F1F1F1" height="50.1875" rx="12.5" ry="12.5" style="stroke:#181818;stroke-width:0.5;" width="124.7188" x="40.3359" y="328.2656"/><text fill="#000000" font-family="sans-serif" font-size="12" lengthAdjust="spacing" textLength="76.0371" x="50.3359" y="350.7227">Choisir niveau</text><text fill="#000000" font-family="sans-serif" font-size="12" lengthAdjust="spacing" textLength="104.7188" x="50.3359" y="365.8164">(D&#233;butant &#224; Expert)</text><polygon fill="#F1F1F1" points="232.1816,186.4063,271.3047,186.4063,283.3047,198.4063,271.3047,210.4063,232.1816,210.4063,220.1816,198.4063,232.1816,186.4063" style="stroke:#181818;stroke-width:0.5;"/><text fill="#000000" font-family="sans-serif" font-size="11" lengthAdjust="spacing" textLength="39.123" x="232.1816" y="202.9072">Modifier</text><rect fill="#F1F1F1" height="50.1875" rx="12.5" ry="12.5" style="stroke:#181818;stroke-width:0.5;" width="136.7363" x="183.375" y="230.4063"/><text fill="#000000" font-family="sans-serif" font-size="12" lengthAdjust="spacing" textLength="90.0645" x="193.375" y="252.8633">S&#233;lectionner une</text><text fill="#000000" font-family="sans-serif" font-size="12" lengthAdjust="spacing" textLength="116.7363" x="193.375" y="267.957">comp&#233;tence existante</text><rect fill="#F1F1F1" height="50.1875" rx="12.5" ry="12.5" style="stroke:#181818;stroke-width:0.5;" width="108.7168" x="197.3848" y="314.4297"/><text fill="#000000" font-family="sans-serif" font-size="12" lengthAdjust="spacing" textLength="88.7168" x="207.3848" y="336.8867">Ajuster le niveau</text><text fill="#000000" font-family="sans-serif" font-size="12" lengthAdjust="spacing" textLength="60.7031" x="207.3848" y="351.9805">ou les infos</text><polygon fill="#F1F1F1" points="357.4158,186.4063,408.1565,186.4063,420.1565,198.4063,408.1565,210.4063,357.4158,210.4063,345.4158,198.4063,357.4158,186.4063" style="stroke:#181818;stroke-width:0.5;"/><text fill="#000000" font-family="sans-serif" font-size="11" lengthAdjust="spacing" textLength="50.7407" x="357.4158" y="202.9072">Supprimer</text><rect fill="#F1F1F1" height="50.1875" rx="12.5" ry="12.5" style="stroke:#181818;stroke-width:0.5;" width="85.3496" x="340.1113" y="230.4063"/><text fill="#000000" font-family="sans-serif" font-size="12" lengthAdjust="spacing" textLength="65.3496" x="350.1113" y="252.8633">Confirmer la</text><text fill="#000000" font-family="sans-serif" font-size="12" lengthAdjust="spacing" textLength="64.7051" x="350.1113" y="267.957">suppression</text><rect fill="none" height="180.6328" style="stroke:#000000;stroke-width:1.5;" width="483.4609" x="11" y="420.4531"/><path d="M75.4619,420.4531 L75.4619,431.0625 L65.4619,441.0625 L11,441.0625" fill="none" style="stroke:#000000;stroke-width:1.5;"/><text fill="#000000" font-family="sans-serif" font-size="14" lengthAdjust="spacing" textLength="54.4619" x="14" y="435.9863">Syst&#232;me</text><polygon fill="#F1F1F1" points="68.9941,461.0625,108.7402,461.0625,120.7402,473.0625,108.7402,485.0625,68.9941,485.0625,56.9941,473.0625,68.9941,461.0625" style="stroke:#181818;stroke-width:0.5;"/><text fill="#000000" font-family="sans-serif" font-size="11" lengthAdjust="spacing" textLength="34.853" x="92.8672" y="496.4814">Ajouter</text><text fill="#000000" font-family="sans-serif" font-size="11" lengthAdjust="spacing" textLength="39.7461" x="68.9941" y="477.5635">Action ?</text><rect fill="#F1F1F1" height="50.1875" rx="12.5" ry="12.5" style="stroke:#181818;stroke-width:0.5;" width="135.7344" x="21" y="518.8984"/><text fill="#000000" font-family="sans-serif" font-size="12" lengthAdjust="spacing" textLength="101.3789" x="31" y="541.3555">Cr&#233;er Competence</text><text fill="#000000" font-family="sans-serif" font-size="12" lengthAdjust="spacing" textLength="115.7344" x="31" y="556.4492">+ NiveauCompetence</text><polygon fill="#F1F1F1" points="199.1729,461.0625,238.2959,461.0625,250.2959,473.0625,238.2959,485.0625,199.1729,485.0625,187.1729,473.0625,199.1729,461.0625" style="stroke:#181818;stroke-width:0.5;"/><text fill="#000000" font-family="sans-serif" font-size="11" lengthAdjust="spacing" textLength="39.123" x="199.1729" y="477.5635">Modifier</text><rect fill="#F1F1F1" height="50.1875" rx="12.5" ry="12.5" style="stroke:#181818;stroke-width:0.5;" width="87.3594" x="175.0547" y="505.0625"/><text fill="#000000" font-family="sans-serif" font-size="12" lengthAdjust="spacing" textLength="67.3594" x="185.0547" y="527.5195">Mettre &#224; jour</text><text fill="#000000" font-family="sans-serif" font-size="12" lengthAdjust="spacing" textLength="38.9824" x="185.0547" y="542.6133">l'entr&#233;e</text><polygon fill="#F1F1F1" points="338.2351,461.0625,388.9758,461.0625,400.9758,473.0625,388.9758,485.0625,338.2351,485.0625,326.2351,473.0625,338.2351,461.0625" style="stroke:#181818;stroke-width:0.5;"/><text fill="#000000" font-family="sans-serif" font-size="11" lengthAdjust="spacing" textLength="50.7407" x="338.2351" y="477.5635">Supprimer</text><rect fill="#F1F1F1" height="50.1875" rx="12.5" ry="12.5" style="stroke:#181818;stroke-width:0.5;" width="162.3828" x="282.4141" y="505.0625"/><text fill="#000000" font-family="sans-serif" font-size="12" lengthAdjust="spacing" textLength="126.7266" x="292.4141" y="527.5195">Supprimer Comp&#233;tence</text><text fill="#000000" font-family="sans-serif" font-size="12" lengthAdjust="spacing" textLength="142.3828" x="292.4141" y="542.6133">+ niveaux li&#233;s (CASCADE)</text><rect fill="none" height="99.7969" style="stroke:#000000;stroke-width:1.5;" width="118.709" x="197.7041" y="611.0859"/><path d="M263.7383,611.0859 L263.7383,621.6953 L253.7383,631.6953 L197.7041,631.6953" fill="none" style="stroke:#000000;stroke-width:1.5;"/><text fill="#000000" font-family="sans-serif" font-size="14" lengthAdjust="spacing" textLength="56.0342" x="200.7041" y="626.6191">Frontend</text><rect fill="#F1F1F1" height="50.1875" rx="12.5" ry="12.5" style="stroke:#181818;stroke-width:0.5;" width="98.709" x="207.7041" y="648.6953"/><text fill="#000000" font-family="sans-serif" font-size="12" lengthAdjust="spacing" textLength="53.3555" x="217.7041" y="671.1523">Afficher la</text><text fill="#000000" font-family="sans-serif" font-size="12" lengthAdjust="spacing" textLength="78.709" x="217.7041" y="686.2461">liste actualis&#233;e</text><ellipse cx="257.0586" cy="741.8828" fill="none" rx="11" ry="11" style="stroke:#222222;stroke-width:1;"/><ellipse cx="257.0586" cy="741.8828" fill="#222222" rx="6" ry="6" style="stroke:#222222;stroke-width:1;"/><line style="stroke:#181818;stroke-width:1;" x1="102.6953" x2="102.6953" y1="294.4297" y2="328.2656"/><polygon fill="#181818" points="98.6953,318.2656,102.6953,328.2656,106.6953,318.2656,102.6953,322.2656" style="stroke:#181818;stroke-width:1;"/><line style="stroke:#181818;stroke-width:1;" x1="251.7432" x2="251.7432" y1="280.5938" y2="314.4297"/><polygon fill="#181818" points="247.7432,304.4297,251.7432,314.4297,255.7432,304.4297,251.7432,308.4297" style="stroke:#181818;stroke-width:1;"/><line style="stroke:#181818;stroke-width:1;" x1="102.6953" x2="102.6953" y1="210.4063" y2="244.2422"/><polygon fill="#181818" points="98.6953,234.2422,102.6953,244.2422,106.6953,234.2422,102.6953,238.2422" style="stroke:#181818;stroke-width:1;"/><line style="stroke:#181818;stroke-width:1;" x1="102.6953" x2="102.6953" y1="378.4531" y2="398.4531"/><polygon fill="#181818" points="98.6953,388.4531,102.6953,398.4531,106.6953,388.4531,102.6953,392.4531" style="stroke:#181818;stroke-width:1;"/><line style="stroke:#181818;stroke-width:1;" x1="251.7432" x2="251.7432" y1="210.4063" y2="230.4063"/><polygon fill="#181818" points="247.7432,220.4063,251.7432,230.4063,255.7432,220.4063,251.7432,224.4063" style="stroke:#181818;stroke-width:1;"/><line style="stroke:#181818;stroke-width:1;" x1="251.7432" x2="251.7432" y1="364.6172" y2="398.4531"/><polygon fill="#181818" points="247.7432,388.4531,251.7432,398.4531,255.7432,388.4531,251.7432,392.4531" style="stroke:#181818;stroke-width:1;"/><line style="stroke:#181818;stroke-width:1;" x1="382.7861" x2="382.7861" y1="210.4063" y2="230.4063"/><polygon fill="#181818" points="378.7861,220.4063,382.7861,230.4063,386.7861,220.4063,382.7861,224.4063" style="stroke:#181818;stroke-width:1;"/><line style="stroke:#181818;stroke-width:1;" x1="382.7861" x2="382.7861" y1="280.5938" y2="398.4531"/><polygon fill="#181818" points="378.7861,388.4531,382.7861,398.4531,386.7861,388.4531,382.7861,392.4531" style="stroke:#181818;stroke-width:1;"/><line style="stroke:#181818;stroke-width:1;" x1="134.5684" x2="220.1816" y1="198.4063" y2="198.4063"/><polygon fill="#181818" points="210.1816,194.4063,220.1816,198.4063,210.1816,202.4063,214.1816,198.4063" style="stroke:#181818;stroke-width:1;"/><line style="stroke:#181818;stroke-width:1;" x1="283.3047" x2="345.4158" y1="198.4063" y2="198.4063"/><polygon fill="#181818" points="335.4158,194.4063,345.4158,198.4063,335.4158,202.4063,339.4158,198.4063" style="stroke:#181818;stroke-width:1;"/><line style="stroke:#181818;stroke-width:1;" x1="257.0586" x2="257.0586" y1="166.4063" y2="171.4063"/><line style="stroke:#181818;stroke-width:1;" x1="257.0586" x2="102.6953" y1="171.4063" y2="171.4063"/><line style="stroke:#181818;stroke-width:1;" x1="102.6953" x2="102.6953" y1="171.4063" y2="186.4063"/><polygon fill="#181818" points="98.6953,176.4063,102.6953,186.4063,106.6953,176.4063,102.6953,180.4063" style="stroke:#181818;stroke-width:1;"/><line style="stroke:#181818;stroke-width:1;" x1="420.1565" x2="458.7969" y1="198.4063" y2="198.4063"/><line style="stroke:#181818;stroke-width:1;" x1="458.7969" x2="458.7969" y1="198.4063" y2="398.4531"/><polygon fill="#181818" points="454.7969,388.4531,458.7969,398.4531,462.7969,388.4531,458.7969,392.4531" style="stroke:#181818;stroke-width:1;"/><line style="stroke:#181818;stroke-width:1;" x1="102.6953" x2="458.7969" y1="398.4531" y2="398.4531"/><line style="stroke:#181818;stroke-width:1;" x1="257.0586" x2="257.0586" y1="68.6094" y2="116.2188"/><polygon fill="#181818" points="253.0586,106.2188,257.0586,116.2188,261.0586,106.2188,257.0586,110.2188" style="stroke:#181818;stroke-width:1;"/><line style="stroke:#181818;stroke-width:1;" x1="88.8672" x2="88.8672" y1="485.0625" y2="518.8984"/><polygon fill="#181818" points="84.8672,508.8984,88.8672,518.8984,92.8672,508.8984,88.8672,512.8984" style="stroke:#181818;stroke-width:1;"/><line style="stroke:#181818;stroke-width:1;" x1="88.8672" x2="88.8672" y1="569.0859" y2="589.0859"/><polygon fill="#181818" points="84.8672,579.0859,88.8672,589.0859,92.8672,579.0859,88.8672,583.0859" style="stroke:#181818;stroke-width:1;"/><line style="stroke:#181818;stroke-width:1;" x1="218.7344" x2="218.7344" y1="485.0625" y2="505.0625"/><polygon fill="#181818" points="214.7344,495.0625,218.7344,505.0625,222.7344,495.0625,218.7344,499.0625" style="stroke:#181818;stroke-width:1;"/><line style="stroke:#181818;stroke-width:1;" x1="218.7344" x2="218.7344" y1="555.25" y2="589.0859"/><polygon fill="#181818" points="214.7344,579.0859,218.7344,589.0859,222.7344,579.0859,218.7344,583.0859" style="stroke:#181818;stroke-width:1;"/><line style="stroke:#181818;stroke-width:1;" x1="363.6055" x2="363.6055" y1="485.0625" y2="505.0625"/><polygon fill="#181818" points="359.6055,495.0625,363.6055,505.0625,367.6055,495.0625,363.6055,499.0625" style="stroke:#181818;stroke-width:1;"/><line style="stroke:#181818;stroke-width:1;" x1="363.6055" x2="363.6055" y1="555.25" y2="589.0859"/><polygon fill="#181818" points="359.6055,579.0859,363.6055,589.0859,367.6055,579.0859,363.6055,583.0859" style="stroke:#181818;stroke-width:1;"/><line style="stroke:#181818;stroke-width:1;" x1="120.7402" x2="187.1729" y1="473.0625" y2="473.0625"/><polygon fill="#181818" points="177.1729,469.0625,187.1729,473.0625,177.1729,477.0625,181.1729,473.0625" style="stroke:#181818;stroke-width:1;"/><line style="stroke:#181818;stroke-width:1;" x1="250.2959" x2="326.2351" y1="473.0625" y2="473.0625"/><polygon fill="#181818" points="316.2351,469.0625,326.2351,473.0625,316.2351,477.0625,320.2351,473.0625" style="stroke:#181818;stroke-width:1;"/><line style="stroke:#181818;stroke-width:1;" x1="257.0586" x2="257.0586" y1="398.4531" y2="446.0625"/><line style="stroke:#181818;stroke-width:1;" x1="257.0586" x2="88.8672" y1="446.0625" y2="446.0625"/><line style="stroke:#181818;stroke-width:1;" x1="88.8672" x2="88.8672" y1="446.0625" y2="461.0625"/><polygon fill="#181818" points="84.8672,451.0625,88.8672,461.0625,92.8672,451.0625,88.8672,455.0625" style="stroke:#181818;stroke-width:1;"/><line style="stroke:#181818;stroke-width:1;" x1="400.9758" x2="476.7969" y1="473.0625" y2="473.0625"/><line style="stroke:#181818;stroke-width:1;" x1="476.7969" x2="476.7969" y1="473.0625" y2="589.0859"/><polygon fill="#181818" points="472.7969,579.0859,476.7969,589.0859,480.7969,579.0859,476.7969,583.0859" style="stroke:#181818;stroke-width:1;"/><line style="stroke:#181818;stroke-width:1;" x1="88.8672" x2="476.7969" y1="589.0859" y2="589.0859"/><line style="stroke:#181818;stroke-width:1;" x1="257.0586" x2="257.0586" y1="589.0859" y2="648.6953"/><polygon fill="#181818" points="253.0586,638.6953,257.0586,648.6953,261.0586,638.6953,257.0586,642.6953" style="stroke:#181818;stroke-width:1;"/><line style="stroke:#181818;stroke-width:1;" x1="257.0586" x2="257.0586" y1="698.8828" y2="730.8828"/><polygon fill="#181818" points="253.0586,720.8828,257.0586,730.8828,261.0586,720.8828,257.0586,724.8828" style="stroke:#181818;stroke-width:1;"/><!--SRC=[XP9DJiCm48NtESMe6rhH4xGB58N2gWYfssoCEw63ad5aJr0HuYuioPuR-6ACtV8heMwYn7b-tvjd2qcBK5gXHv8umWAku-ZHGui1hElwE0gonL0KGOoNekZrIKAEuTQxtfCA37c4vm9WKLeRnwrkZwyrJzP_F2PBrL03qyHJWuiPo0vPln_S8EXd-bjDDeO2UM3NpMksHcFTEqyu1xBndN5vK5KxTv3H8vgXvkbb7Ey6CImAXzM-Ho-pfCKsO8AktPOQKag67b5nR367OGqzC2hmEp3Wda9o_6IM3qEGNCuNrWsvAkB6XP-qpT1hETrlNEMu8Tyb1rDpI18CGUbv9sk-ukLdmvkd8F6jEvHxkhZAnr6zAvq0ym0rdyDD3lgzTggIDOheSMg7wkrhRi-G9HcVdEvhCISuTfWY7BhQGwkN9S2qAZTLURcQ_JFqbNVQE6-FDwffoEwEZRLw70Z6oc3qDMTwIHVJzHy0]--></g></svg>