<svg xmlns="http://www.w3.org/2000/svg" xmlns:xlink="http://www.w3.org/1999/xlink" contentStyleType="text/css" data-diagram-type="SEQUENCE" height="1388px" preserveAspectRatio="none" style="width:738px;height:1388px;background:#FFFFFF;" version="1.1" viewBox="0 0 738 1388" width="738px" zoomAndPan="magnify"><title>Gestion des comp&#233;tences</title><defs/><g><text fill="#000000" font-family="sans-serif" font-size="14" font-weight="bold" lengthAdjust="spacing" textLength="173.5029" x="278.5996" y="29.5332">Gestion des comp&#233;tences</text><rect fill="none" height="313.8672" style="stroke:#000000;stroke-width:1.5;" width="711.7021" x="10" y="441.7344"/><rect fill="none" height="200.4609" style="stroke:#000000;stroke-width:1.5;" width="711.7021" x="10" y="813.9531"/><rect fill="none" height="216.8125" style="stroke:#000000;stroke-width:1.5;" width="711.7021" x="10" y="1072.7656"/><g><title>Propri&#233;taire</title><rect fill="#000000" fill-opacity="0.00000" height="1185.3594" width="8" x="55.1826" y="121.2188"/><line style="stroke:#181818;stroke-width:0.5;stroke-dasharray:5.0,5.0;" x1="59" x2="59" y1="121.2188" y2="1306.5781"/></g><g><title>Frontend</title><rect fill="#000000" fill-opacity="0.00000" height="1185.3594" width="8" x="269.9551" y="121.2188"/><line style="stroke:#181818;stroke-width:0.5;stroke-dasharray:5.0,5.0;" x1="273.938" x2="273.938" y1="121.2188" y2="1306.5781"/></g><g><title>API</title><rect fill="#000000" fill-opacity="0.00000" height="1185.3594" width="8" x="462.3203" y="121.2188"/><line style="stroke:#181818;stroke-width:0.5;stroke-dasharray:5.0,5.0;" x1="466.0376" x2="466.0376" y1="121.2188" y2="1306.5781"/></g><g><title>BaseDeDonnees</title><rect fill="#000000" fill-opacity="0.00000" height="1185.3594" width="8" x="651.7783" y="121.2188"/><line style="stroke:#181818;stroke-width:0.5;stroke-dasharray:5.0,5.0;" x1="654.8545" x2="654.8545" y1="121.2188" y2="1306.5781"/></g><g class="participant participant-head" data-participant="Auth"><text fill="#000000" font-family="sans-serif" font-size="14" lengthAdjust="spacing" textLength="72.3652" x="20" y="118.1426">Propri&#233;taire</text><ellipse cx="59.1826" cy="52.1094" fill="#E2E2F0" rx="8" ry="8" style="stroke:#181818;stroke-width:0.5;"/><path d="M59.1826,60.1094 L59.1826,87.1094 M46.1826,68.1094 L72.1826,68.1094 M59.1826,87.1094 L46.1826,102.1094 M59.1826,87.1094 L72.1826,102.1094" fill="none" style="stroke:#181818;stroke-width:0.5;"/></g><g class="participant participant-tail" data-participant="Auth"><text fill="#000000" font-family="sans-serif" font-size="14" lengthAdjust="spacing" textLength="72.3652" x="20" y="1320.1113">Propri&#233;taire</text><ellipse cx="59.1826" cy="1331.6875" fill="#E2E2F0" rx="8" ry="8" style="stroke:#181818;stroke-width:0.5;"/><path d="M59.1826,1339.6875 L59.1826,1366.6875 M46.1826,1347.6875 L72.1826,1347.6875 M59.1826,1366.6875 L46.1826,1381.6875 M59.1826,1366.6875 L72.1826,1381.6875" fill="none" style="stroke:#181818;stroke-width:0.5;"/></g><g class="participant participant-head" data-participant="Front"><rect fill="#E2E2F0" height="31.6094" rx="2.5" ry="2.5" style="stroke:#181818;stroke-width:0.5;" width="70.0342" x="238.938" y="88.6094"/><text fill="#000000" font-family="sans-serif" font-size="14" lengthAdjust="spacing" textLength="56.0342" x="245.938" y="110.1426">Frontend</text></g><g class="participant participant-tail" data-participant="Front"><rect fill="#E2E2F0" height="31.6094" rx="2.5" ry="2.5" style="stroke:#181818;stroke-width:0.5;" width="70.0342" x="238.938" y="1305.5781"/><text fill="#000000" font-family="sans-serif" font-size="14" lengthAdjust="spacing" textLength="56.0342" x="245.938" y="1327.1113">Frontend</text></g><g class="participant participant-head" data-participant="API"><rect fill="#E2E2F0" height="31.6094" rx="2.5" ry="2.5" style="stroke:#181818;stroke-width:0.5;" width="36.5654" x="448.0376" y="88.6094"/><text fill="#000000" font-family="sans-serif" font-size="14" lengthAdjust="spacing" textLength="22.5654" x="455.0376" y="110.1426">API</text></g><g class="participant participant-tail" data-participant="API"><rect fill="#E2E2F0" height="31.6094" rx="2.5" ry="2.5" style="stroke:#181818;stroke-width:0.5;" width="36.5654" x="448.0376" y="1305.5781"/><text fill="#000000" font-family="sans-serif" font-size="14" lengthAdjust="spacing" textLength="22.5654" x="455.0376" y="1327.1113">API</text></g><g class="participant participant-head" data-participant="BD"><text fill="#000000" font-family="sans-serif" font-size="14" lengthAdjust="spacing" textLength="105.8477" x="599.8545" y="118.1426">BaseDeDonnees</text><path d="M637.7783,67.6094 C637.7783,57.6094 655.7783,57.6094 655.7783,57.6094 C655.7783,57.6094 673.7783,57.6094 673.7783,67.6094 L673.7783,93.6094 C673.7783,103.6094 655.7783,103.6094 655.7783,103.6094 C655.7783,103.6094 637.7783,103.6094 637.7783,93.6094 L637.7783,67.6094" fill="#E2E2F0" style="stroke:#181818;stroke-width:1.5;"/><path d="M637.7783,67.6094 C637.7783,77.6094 655.7783,77.6094 655.7783,77.6094 C655.7783,77.6094 673.7783,77.6094 673.7783,67.6094" fill="none" style="stroke:#181818;stroke-width:1.5;"/></g><g class="participant participant-tail" data-participant="BD"><text fill="#000000" font-family="sans-serif" font-size="14" lengthAdjust="spacing" textLength="105.8477" x="599.8545" y="1320.1113">BaseDeDonnees</text><path d="M637.7783,1333.1875 C637.7783,1323.1875 655.7783,1323.1875 655.7783,1323.1875 C655.7783,1323.1875 673.7783,1323.1875 673.7783,1333.1875 L673.7783,1359.1875 C673.7783,1369.1875 655.7783,1369.1875 655.7783,1369.1875 C655.7783,1369.1875 637.7783,1369.1875 637.7783,1359.1875 L637.7783,1333.1875" fill="#E2E2F0" style="stroke:#181818;stroke-width:1.5;"/><path d="M637.7783,1333.1875 C637.7783,1343.1875 655.7783,1343.1875 655.7783,1343.1875 C655.7783,1343.1875 673.7783,1343.1875 673.7783,1333.1875" fill="none" style="stroke:#181818;stroke-width:1.5;"/></g><rect fill="#EEEEEE" height="3" style="stroke:#EEEEEE;stroke-width:1;" width="731.7021" x="0" y="152.3945"/><line style="stroke:#000000;stroke-width:1;" x1="0" x2="731.7021" y1="152.3945" y2="152.3945"/><line style="stroke:#000000;stroke-width:1;" x1="0" x2="731.7021" y1="155.3945" y2="155.3945"/><rect fill="#EEEEEE" height="24.3516" style="stroke:#000000;stroke-width:2;" width="139.7153" x="295.9934" y="141.2188"/><text fill="#000000" font-family="sans-serif" font-size="13" font-weight="bold" lengthAdjust="spacing" textLength="122.1035" x="301.9934" y="158.7139">Lister comp&#233;tences</text><g class="message" data-participant-1="Auth" data-participant-2="Front"><polygon fill="#181818" points="261.9551,210.2734,271.9551,214.2734,261.9551,218.2734,265.9551,214.2734" style="stroke:#181818;stroke-width:1;"/><line style="stroke:#181818;stroke-width:1;" x1="59.1826" x2="267.9551" y1="214.2734" y2="214.2734"/><text fill="#000000" font-family="sans-serif" font-size="13" lengthAdjust="spacing" textLength="58.5317" x="66.1826" y="193.0654">Acc&#233;der &#224;</text><text fill="#000000" font-family="sans-serif" font-size="13" lengthAdjust="spacing" textLength="114.7212" x="66.1826" y="209.417">"Mes comp&#233;tences"</text></g><g class="message" data-participant-1="Front" data-participant-2="API"><polygon fill="#181818" points="454.3203,240.625,464.3203,244.625,454.3203,248.625,458.3203,244.625" style="stroke:#181818;stroke-width:1;"/><line style="stroke:#181818;stroke-width:1;" x1="273.9551" x2="460.3203" y1="244.625" y2="244.625"/><text fill="#000000" font-family="sans-serif" font-size="13" lengthAdjust="spacing" textLength="132.228" x="280.9551" y="239.7686">GET /api/competences</text></g><g class="message" data-participant-1="API" data-participant-2="BD"><polygon fill="#181818" points="643.7783,287.3281,653.7783,291.3281,643.7783,295.3281,647.7783,291.3281" style="stroke:#181818;stroke-width:1;"/><line style="stroke:#181818;stroke-width:1;" x1="466.3203" x2="649.7783" y1="291.3281" y2="291.3281"/><text fill="#000000" font-family="sans-serif" font-size="13" lengthAdjust="spacing" textLength="108.0244" x="473.3203" y="270.1201">SELECT + jointure</text><text fill="#000000" font-family="sans-serif" font-size="13" lengthAdjust="spacing" textLength="114.1753" x="473.3203" y="286.4717">NiveauCompetence</text></g><g class="message" data-participant-1="BD" data-participant-2="API"><polygon fill="#181818" points="477.3203,317.6797,467.3203,321.6797,477.3203,325.6797,473.3203,321.6797" style="stroke:#181818;stroke-width:1;"/><line style="stroke:#181818;stroke-width:1;stroke-dasharray:2.0,2.0;" x1="471.3203" x2="654.7783" y1="321.6797" y2="321.6797"/><text fill="#000000" font-family="sans-serif" font-size="13" lengthAdjust="spacing" textLength="139.8325" x="483.3203" y="316.8232">Comp&#233;tences + niveaux</text></g><g class="message" data-participant-1="API" data-participant-2="Front"><polygon fill="#181818" points="284.9551,348.0313,274.9551,352.0313,284.9551,356.0313,280.9551,352.0313" style="stroke:#181818;stroke-width:1;"/><line style="stroke:#181818;stroke-width:1;stroke-dasharray:2.0,2.0;" x1="278.9551" x2="465.3203" y1="352.0313" y2="352.0313"/><text fill="#000000" font-family="sans-serif" font-size="13" lengthAdjust="spacing" textLength="119.9517" x="290.9551" y="347.1748">Donn&#233;es structur&#233;es</text></g><g class="message" data-participant-1="Front" data-participant-2="Auth"><polygon fill="#181818" points="70.1826,378.3828,60.1826,382.3828,70.1826,386.3828,66.1826,382.3828" style="stroke:#181818;stroke-width:1;"/><line style="stroke:#181818;stroke-width:1;stroke-dasharray:2.0,2.0;" x1="64.1826" x2="272.9551" y1="382.3828" y2="382.3828"/><text fill="#000000" font-family="sans-serif" font-size="13" lengthAdjust="spacing" textLength="190.7725" x="76.1826" y="377.5264">Tableau (nom, cat&#233;gorie, niveau)</text></g><rect fill="#EEEEEE" height="3" style="stroke:#EEEEEE;stroke-width:1;" width="731.7021" x="0" y="411.5586"/><line style="stroke:#000000;stroke-width:1;" x1="0" x2="731.7021" y1="411.5586" y2="411.5586"/><line style="stroke:#000000;stroke-width:1;" x1="0" x2="731.7021" y1="414.5586" y2="414.5586"/><rect fill="#EEEEEE" height="24.3516" style="stroke:#000000;stroke-width:2;" width="169.3081" x="281.197" y="400.3828"/><text fill="#000000" font-family="sans-serif" font-size="13" font-weight="bold" lengthAdjust="spacing" textLength="151.6963" x="287.197" y="417.8779">Ajouter une comp&#233;tence</text><path d="M10,441.7344 L75.2109,441.7344 L75.2109,450.0859 L65.2109,460.0859 L10,460.0859 L10,441.7344" fill="#EEEEEE" style="stroke:#000000;stroke-width:1.5;"/><rect fill="none" height="313.8672" style="stroke:#000000;stroke-width:1.5;" width="711.7021" x="10" y="441.7344"/><text fill="#000000" font-family="sans-serif" font-size="13" font-weight="bold" lengthAdjust="spacing" textLength="20.2109" x="25" y="456.2295">opt</text><text fill="#000000" font-family="sans-serif" font-size="11" font-weight="bold" lengthAdjust="spacing" textLength="119.1953" x="90.2109" y="455.1533">[nouvelle comp&#233;tence]</text><g class="message" data-participant-1="Auth" data-participant-2="Front"><polygon fill="#181818" points="261.9551,478.4375,271.9551,482.4375,261.9551,486.4375,265.9551,482.4375" style="stroke:#181818;stroke-width:1;"/><line style="stroke:#181818;stroke-width:1;" x1="59.1826" x2="267.9551" y1="482.4375" y2="482.4375"/><text fill="#000000" font-family="sans-serif" font-size="13" lengthAdjust="spacing" textLength="160.4116" x="66.1826" y="477.5811">Saisir nom, cat&#233;gorie, ic&#244;ne</text></g><g class="message" data-participant-1="Front" data-participant-2="API"><polygon fill="#181818" points="454.3203,508.7891,464.3203,512.7891,454.3203,516.7891,458.3203,512.7891" style="stroke:#181818;stroke-width:1;"/><line style="stroke:#181818;stroke-width:1;" x1="273.9551" x2="460.3203" y1="512.7891" y2="512.7891"/><text fill="#000000" font-family="sans-serif" font-size="13" lengthAdjust="spacing" textLength="140.8989" x="280.9551" y="507.9326">POST /api/competences</text></g><g class="message" data-participant-1="API" data-participant-2="BD"><polygon fill="#181818" points="643.7783,539.1406,653.7783,543.1406,643.7783,547.1406,647.7783,543.1406" style="stroke:#181818;stroke-width:1;"/><line style="stroke:#181818;stroke-width:1;" x1="466.3203" x2="649.7783" y1="543.1406" y2="543.1406"/><text fill="#000000" font-family="sans-serif" font-size="13" lengthAdjust="spacing" textLength="124.9917" x="473.3203" y="538.2842">INSERT Competence</text></g><g class="message" data-participant-1="BD" data-participant-2="API"><polygon fill="#181818" points="477.3203,569.4922,467.3203,573.4922,477.3203,577.4922,473.3203,573.4922" style="stroke:#181818;stroke-width:1;"/><line style="stroke:#181818;stroke-width:1;stroke-dasharray:2.0,2.0;" x1="471.3203" x2="654.7783" y1="573.4922" y2="573.4922"/><text fill="#000000" font-family="sans-serif" font-size="13" lengthAdjust="spacing" textLength="109.8398" x="483.3203" y="568.6357">Comp&#233;tence cr&#233;&#233;e</text></g><g class="message" data-participant-1="Front" data-participant-2="API"><polygon fill="#181818" points="454.3203,611.0195,464.3203,615.0195,454.3203,619.0195,458.3203,615.0195" style="stroke:#181818;stroke-width:1;"/><line style="stroke:#181818;stroke-width:1;" x1="273.9551" x2="460.3203" y1="615.0195" y2="615.0195"/><text fill="#000000" font-family="sans-serif" font-size="13" lengthAdjust="spacing" textLength="98.2617" x="280.9551" y="610.1631">POST .../niveaux</text></g><path d="M471,586.4922 L471,628.4922 L584,628.4922 L584,596.4922 L574,586.4922 L471,586.4922" fill="#FEFFDD" style="stroke:#181818;stroke-width:0.5;"/><path d="M574,586.4922 L574,596.4922 L584,596.4922 L574,586.4922" fill="#FEFFDD" style="stroke:#181818;stroke-width:0.5;"/><text fill="#000000" font-family="sans-serif" font-size="13" lengthAdjust="spacing" textLength="92.4854" x="477" y="604.9873">Lier Proprietaire</text><text fill="#000000" font-family="sans-serif" font-size="13" lengthAdjust="spacing" textLength="49.5117" x="477" y="621.3389">+ niveau</text><g class="message" data-participant-1="API" data-participant-2="BD"><polygon fill="#181818" points="643.7783,652.5469,653.7783,656.5469,643.7783,660.5469,647.7783,656.5469" style="stroke:#181818;stroke-width:1;"/><line style="stroke:#181818;stroke-width:1;" x1="466.3203" x2="649.7783" y1="656.5469" y2="656.5469"/><text fill="#000000" font-family="sans-serif" font-size="13" lengthAdjust="spacing" textLength="165.458" x="473.3203" y="651.6904">INSERT NiveauCompetence</text></g><g class="message" data-participant-1="BD" data-participant-2="API"><polygon fill="#181818" points="477.3203,682.8984,467.3203,686.8984,477.3203,690.8984,473.3203,686.8984" style="stroke:#181818;stroke-width:1;"/><line style="stroke:#181818;stroke-width:1;stroke-dasharray:2.0,2.0;" x1="471.3203" x2="654.7783" y1="686.8984" y2="686.8984"/><text fill="#000000" font-family="sans-serif" font-size="13" lengthAdjust="spacing" textLength="101.8862" x="483.3203" y="682.042">Niveau enregistr&#233;</text></g><g class="message" data-participant-1="API" data-participant-2="Front"><polygon fill="#181818" points="284.9551,713.25,274.9551,717.25,284.9551,721.25,280.9551,717.25" style="stroke:#181818;stroke-width:1;"/><line style="stroke:#181818;stroke-width:1;stroke-dasharray:2.0,2.0;" x1="278.9551" x2="465.3203" y1="717.25" y2="717.25"/><text fill="#000000" font-family="sans-serif" font-size="13" lengthAdjust="spacing" textLength="119.9707" x="290.9551" y="712.3936">Comp&#233;tence ajout&#233;e</text></g><g class="message" data-participant-1="Front" data-participant-2="Auth"><polygon fill="#181818" points="70.1826,743.6016,60.1826,747.6016,70.1826,751.6016,66.1826,747.6016" style="stroke:#181818;stroke-width:1;"/><line style="stroke:#181818;stroke-width:1;stroke-dasharray:2.0,2.0;" x1="64.1826" x2="272.9551" y1="747.6016" y2="747.6016"/><text fill="#000000" font-family="sans-serif" font-size="13" lengthAdjust="spacing" textLength="110.5571" x="76.1826" y="742.7451">Visible dans la liste</text></g><rect fill="#EEEEEE" height="3" style="stroke:#EEEEEE;stroke-width:1;" width="731.7021" x="0" y="783.7773"/><line style="stroke:#000000;stroke-width:1;" x1="0" x2="731.7021" y1="783.7773" y2="783.7773"/><line style="stroke:#000000;stroke-width:1;" x1="0" x2="731.7021" y1="786.7773" y2="786.7773"/><rect fill="#EEEEEE" height="24.3516" style="stroke:#000000;stroke-width:2;" width="112.96" x="309.3711" y="772.6016"/><text fill="#000000" font-family="sans-serif" font-size="13" font-weight="bold" lengthAdjust="spacing" textLength="95.3481" x="315.3711" y="790.0967">Modifier niveau</text><path d="M10,813.9531 L75.2109,813.9531 L75.2109,822.3047 L65.2109,832.3047 L10,832.3047 L10,813.9531" fill="#EEEEEE" style="stroke:#000000;stroke-width:1.5;"/><rect fill="none" height="200.4609" style="stroke:#000000;stroke-width:1.5;" width="711.7021" x="10" y="813.9531"/><text fill="#000000" font-family="sans-serif" font-size="13" font-weight="bold" lengthAdjust="spacing" textLength="20.2109" x="25" y="828.4482">opt</text><text fill="#000000" font-family="sans-serif" font-size="11" font-weight="bold" lengthAdjust="spacing" textLength="65.3984" x="90.2109" y="827.3721">[ajustement]</text><g class="message" data-participant-1="Auth" data-participant-2="Front"><polygon fill="#181818" points="261.9551,850.6563,271.9551,854.6563,261.9551,858.6563,265.9551,854.6563" style="stroke:#181818;stroke-width:1;"/><line style="stroke:#181818;stroke-width:1;" x1="59.1826" x2="267.9551" y1="854.6563" y2="854.6563"/><text fill="#000000" font-family="sans-serif" font-size="13" lengthAdjust="spacing" textLength="91.7871" x="66.1826" y="849.7998">Changer niveau</text></g><g class="message" data-participant-1="Front" data-participant-2="API"><polygon fill="#181818" points="454.3203,881.0078,464.3203,885.0078,454.3203,889.0078,458.3203,885.0078" style="stroke:#181818;stroke-width:1;"/><line style="stroke:#181818;stroke-width:1;" x1="273.9551" x2="460.3203" y1="885.0078" y2="885.0078"/><text fill="#000000" font-family="sans-serif" font-size="13" lengthAdjust="spacing" textLength="111.2808" x="280.9551" y="880.1514">PUT .../niveaux/{id}</text></g><g class="message" data-participant-1="API" data-participant-2="BD"><polygon fill="#181818" points="643.7783,911.3594,653.7783,915.3594,643.7783,919.3594,647.7783,915.3594" style="stroke:#181818;stroke-width:1;"/><line style="stroke:#181818;stroke-width:1;" x1="466.3203" x2="649.7783" y1="915.3594" y2="915.3594"/><text fill="#000000" font-family="sans-serif" font-size="13" lengthAdjust="spacing" textLength="94.6499" x="473.3203" y="910.5029">UPDATE niveau</text></g><g class="message" data-participant-1="BD" data-participant-2="API"><polygon fill="#181818" points="477.3203,941.7109,467.3203,945.7109,477.3203,949.7109,473.3203,945.7109" style="stroke:#181818;stroke-width:1;"/><line style="stroke:#181818;stroke-width:1;stroke-dasharray:2.0,2.0;" x1="471.3203" x2="654.7783" y1="945.7109" y2="945.7109"/><text fill="#000000" font-family="sans-serif" font-size="13" lengthAdjust="spacing" textLength="100.4263" x="483.3203" y="940.8545">Niveau mis &#224; jour</text></g><g class="message" data-participant-1="API" data-participant-2="Front"><polygon fill="#181818" points="284.9551,972.0625,274.9551,976.0625,284.9551,980.0625,280.9551,976.0625" style="stroke:#181818;stroke-width:1;"/><line style="stroke:#181818;stroke-width:1;stroke-dasharray:2.0,2.0;" x1="278.9551" x2="465.3203" y1="976.0625" y2="976.0625"/><text fill="#000000" font-family="sans-serif" font-size="13" lengthAdjust="spacing" textLength="42.6309" x="290.9551" y="971.2061">Succ&#232;s</text></g><g class="message" data-participant-1="Front" data-participant-2="Auth"><polygon fill="#181818" points="70.1826,1002.4141,60.1826,1006.4141,70.1826,1010.4141,66.1826,1006.4141" style="stroke:#181818;stroke-width:1;"/><line style="stroke:#181818;stroke-width:1;stroke-dasharray:2.0,2.0;" x1="64.1826" x2="272.9551" y1="1006.4141" y2="1006.4141"/><text fill="#000000" font-family="sans-serif" font-size="13" lengthAdjust="spacing" textLength="100.4263" x="76.1826" y="1001.5576">Niveau mis &#224; jour</text></g><rect fill="#EEEEEE" height="3" style="stroke:#EEEEEE;stroke-width:1;" width="731.7021" x="0" y="1042.5898"/><line style="stroke:#000000;stroke-width:1;" x1="0" x2="731.7021" y1="1042.5898" y2="1042.5898"/><line style="stroke:#000000;stroke-width:1;" x1="0" x2="731.7021" y1="1045.5898" y2="1045.5898"/><rect fill="#EEEEEE" height="24.3516" style="stroke:#000000;stroke-width:2;" width="82.6245" x="324.5388" y="1031.4141"/><text fill="#000000" font-family="sans-serif" font-size="13" font-weight="bold" lengthAdjust="spacing" textLength="65.0127" x="330.5388" y="1048.9092">Supprimer</text><path d="M10,1072.7656 L75.2109,1072.7656 L75.2109,1081.1172 L65.2109,1091.1172 L10,1091.1172 L10,1072.7656" fill="#EEEEEE" style="stroke:#000000;stroke-width:1.5;"/><rect fill="none" height="216.8125" style="stroke:#000000;stroke-width:1.5;" width="711.7021" x="10" y="1072.7656"/><text fill="#000000" font-family="sans-serif" font-size="13" font-weight="bold" lengthAdjust="spacing" textLength="20.2109" x="25" y="1087.2607">opt</text><text fill="#000000" font-family="sans-serif" font-size="11" font-weight="bold" lengthAdjust="spacing" textLength="38.5054" x="90.2109" y="1086.1846">[retrait]</text><g class="message" data-participant-1="Auth" data-participant-2="Front"><polygon fill="#181818" points="261.9551,1109.4688,271.9551,1113.4688,261.9551,1117.4688,265.9551,1113.4688" style="stroke:#181818;stroke-width:1;"/><line style="stroke:#181818;stroke-width:1;" x1="59.1826" x2="267.9551" y1="1113.4688" y2="1113.4688"/><text fill="#000000" font-family="sans-serif" font-size="13" lengthAdjust="spacing" textLength="134.3989" x="66.1826" y="1108.6123">Supprimer comp&#233;tence</text></g><g class="message" data-participant-1="Front" data-participant-2="API"><polygon fill="#181818" points="454.3203,1139.8203,464.3203,1143.8203,454.3203,1147.8203,458.3203,1143.8203" style="stroke:#181818;stroke-width:1;"/><line style="stroke:#181818;stroke-width:1;" x1="273.9551" x2="460.3203" y1="1143.8203" y2="1143.8203"/><text fill="#000000" font-family="sans-serif" font-size="13" lengthAdjust="spacing" textLength="168.3652" x="280.9551" y="1138.9639">DELETE .../competences/{id}</text></g><g class="message" data-participant-1="API" data-participant-2="BD"><polygon fill="#181818" points="643.7783,1186.5234,653.7783,1190.5234,643.7783,1194.5234,647.7783,1190.5234" style="stroke:#181818;stroke-width:1;"/><line style="stroke:#181818;stroke-width:1;" x1="466.3203" x2="649.7783" y1="1190.5234" y2="1190.5234"/><text fill="#000000" font-family="sans-serif" font-size="13" lengthAdjust="spacing" textLength="134.3989" x="473.3203" y="1169.3154">Supprimer comp&#233;tence</text><text fill="#000000" font-family="sans-serif" font-size="13" lengthAdjust="spacing" textLength="79.1299" x="473.3203" y="1185.667">+ niveaux li&#233;s</text></g><g class="message" data-participant-1="BD" data-participant-2="API"><polygon fill="#181818" points="477.3203,1216.875,467.3203,1220.875,477.3203,1224.875,473.3203,1220.875" style="stroke:#181818;stroke-width:1;"/><line style="stroke:#181818;stroke-width:1;stroke-dasharray:2.0,2.0;" x1="471.3203" x2="654.7783" y1="1220.875" y2="1220.875"/><text fill="#000000" font-family="sans-serif" font-size="13" lengthAdjust="spacing" textLength="55.6372" x="483.3203" y="1216.0186">Supprim&#233;</text></g><g class="message" data-participant-1="API" data-participant-2="Front"><polygon fill="#181818" points="284.9551,1247.2266,274.9551,1251.2266,284.9551,1255.2266,280.9551,1251.2266" style="stroke:#181818;stroke-width:1;"/><line style="stroke:#181818;stroke-width:1;stroke-dasharray:2.0,2.0;" x1="278.9551" x2="465.3203" y1="1251.2266" y2="1251.2266"/><text fill="#000000" font-family="sans-serif" font-size="13" lengthAdjust="spacing" textLength="42.6309" x="290.9551" y="1246.3701">Succ&#232;s</text></g><g class="message" data-participant-1="Front" data-participant-2="Auth"><polygon fill="#181818" points="70.1826,1277.5781,60.1826,1281.5781,70.1826,1285.5781,66.1826,1281.5781" style="stroke:#181818;stroke-width:1;"/><line style="stroke:#181818;stroke-width:1;stroke-dasharray:2.0,2.0;" x1="64.1826" x2="272.9551" y1="1281.5781" y2="1281.5781"/><text fill="#000000" font-family="sans-serif" font-size="13" lengthAdjust="spacing" textLength="100.439" x="76.1826" y="1276.7217">Retir&#233;e de la liste</text></g><!--SRC=[TLHDRzf04BtlhnZbr2e9t96e19X6I2H5CUc9oyQUm22pQ-r75AdgV-cntFiF_CSwQp1umRbOc7apyzwR6Jjo1S83MaTQGOuMChqhgxr3bQ4LGcPE6rWONHhYVoKP16bXvDr6bD8uogYKoi5tenNdv25O_uwYeyMipbhCH2wTV9KMOSoF11Ej579NZeuJ8OP3c9DrQ28QC1oAq17klnsA3s2KPTK-PrprPwLk7YzutuWQ5l3SSm0FqoNqPKdz0CAZja2A0UDa0EbqFfqiuHQscfJp1bVgYTvH-ia9ByO9t3Vr9crojw1gxCUXufbZq5Rj6M6TyHcN3IyDir2A9GrWALyBpeOlIk_k89Eksg-r8RmxblrQkpBQQXziyGhRIeCpkdIWj7_7eeXY0k32j5II9GDNZIYh_gc0ZrrR_4WxR0De6JTxIgVFIsZP1F29KP2nVdQWkqslr-itDW8pT0Y6rXicFITi5X3h_Lkfnl5EBbU3YnaTme3Au9etZJarLSu-jLdBO7n4-pIvd-mcpmvogImK4egmkOAFe9xOeyxfBN0_S6qc9RUUKJla2xcQpsGZrVgKSMtKI-HJ_nVblsCBNXR9Q3azvtS8tv7bc-55z-PQUEhvhFxQ3gqTsOtGr9SycntpFaeqw8oa3drdPBociSo4Zv551AMjlUjGsrdkl1qVF91gRoziE2PrZVrpzS_eA5mlVo3ZGVy7]--></g></svg>