<svg xmlns="http://www.w3.org/2000/svg" xmlns:xlink="http://www.w3.org/1999/xlink" contentStyleType="text/css" data-diagram-type="ACTIVITY" height="918px" preserveAspectRatio="none" style="width:492px;height:918px;background:#FFFFFF;" version="1.1" viewBox="0 0 492 918" width="492px" zoomAndPan="magnify"><title>Activit&#233; : G&#233;rer les ressources documentaires</title><defs/><g><text fill="#000000" font-family="sans-serif" font-size="14" font-weight="bold" lengthAdjust="spacing" textLength="305.8057" x="91.6831" y="34.5332">Activit&#233; : G&#233;rer les ressources documentaires</text><ellipse cx="252.7666" cy="58.6094" fill="#222222" rx="10" ry="10" style="stroke:#222222;stroke-width:1;"/><rect fill="none" height="402.0313" style="stroke:#000000;stroke-width:1.5;" width="470.1719" x="11" y="78.6094"/><path d="M93.3652,78.6094 L93.3652,89.2188 L83.3652,99.2188 L11,99.2188" fill="none" style="stroke:#000000;stroke-width:1.5;"/><text fill="#000000" font-family="sans-serif" font-size="14" lengthAdjust="spacing" textLength="72.3652" x="14" y="94.1426">Propri&#233;taire</text><rect fill="#F1F1F1" height="50.1875" rx="12.5" ry="12.5" style="stroke:#181818;stroke-width:0.5;" width="113.2109" x="196.1611" y="116.2188"/><text fill="#000000" font-family="sans-serif" font-size="12" lengthAdjust="spacing" textLength="54.0293" x="206.1611" y="138.6758">Acc&#233;der &#224;</text><text fill="#000000" font-family="sans-serif" font-size="12" lengthAdjust="spacing" textLength="93.2109" x="206.1611" y="153.7695">"Mes ressources"</text><polygon fill="#F1F1F1" points="71.8154,186.4063,111.5615,186.4063,123.5615,198.4063,111.5615,210.4063,71.8154,210.4063,59.8154,198.4063,71.8154,186.4063" style="stroke:#181818;stroke-width:0.5;"/><text fill="#000000" font-family="sans-serif" font-size="11" lengthAdjust="spacing" textLength="34.8584" x="95.6885" y="221.8252">Upload</text><text fill="#000000" font-family="sans-serif" font-size="11" lengthAdjust="spacing" textLength="39.7461" x="71.8154" y="202.9072">Action ?</text><rect fill="#F1F1F1" height="50.1875" rx="12.5" ry="12.5" style="stroke:#181818;stroke-width:0.5;" width="122.0527" x="30.6621" y="244.2422"/><text fill="#000000" font-family="sans-serif" font-size="12" lengthAdjust="spacing" textLength="102.0527" x="40.6621" y="266.6992">S&#233;lectionner fichier</text><text fill="#000000" font-family="sans-serif" font-size="12" lengthAdjust="spacing" textLength="94.3418" x="40.6621" y="281.793">(depuis l'appareil)</text><rect fill="#F1F1F1" height="50.1875" rx="12.5" ry="12.5" style="stroke:#181818;stroke-width:0.5;" width="141.377" x="21" y="328.2656"/><text fill="#000000" font-family="sans-serif" font-size="12" lengthAdjust="spacing" textLength="121.377" x="31" y="350.7227">Saisir titre, description,</text><text fill="#000000" font-family="sans-serif" font-size="12" lengthAdjust="spacing" textLength="42.0117" x="31" y="365.8164">visibilit&#233;</text><rect fill="#F1F1F1" height="50.1875" rx="12.5" ry="12.5" style="stroke:#181818;stroke-width:0.5;" width="123.3887" x="29.9941" y="398.4531"/><text fill="#000000" font-family="sans-serif" font-size="12" lengthAdjust="spacing" textLength="103.3887" x="39.9941" y="420.9102">Choisir un domaine</text><text fill="#000000" font-family="sans-serif" font-size="12" lengthAdjust="spacing" textLength="56.7012" x="39.9941" y="436.0039">(optionnel)</text><polygon fill="#F1F1F1" points="236.2188,186.4063,275.3418,186.4063,287.3418,198.4063,275.3418,210.4063,236.2188,210.4063,224.2188,198.4063,236.2188,186.4063" style="stroke:#181818;stroke-width:0.5;"/><text fill="#000000" font-family="sans-serif" font-size="11" lengthAdjust="spacing" textLength="39.123" x="236.2188" y="202.9072">Modifier</text><rect fill="#F1F1F1" height="50.1875" rx="12.5" ry="12.5" style="stroke:#181818;stroke-width:0.5;" width="124.0508" x="193.7549" y="230.4063"/><text fill="#000000" font-family="sans-serif" font-size="12" lengthAdjust="spacing" textLength="60.6973" x="203.7549" y="252.8633">Choisir une</text><text fill="#000000" font-family="sans-serif" font-size="12" lengthAdjust="spacing" textLength="104.0508" x="203.7549" y="267.957">ressource existante</text><rect fill="#F1F1F1" height="50.1875" rx="12.5" ry="12.5" style="stroke:#181818;stroke-width:0.5;" width="152.4277" x="179.5664" y="314.4297"/><text fill="#000000" font-family="sans-serif" font-size="12" lengthAdjust="spacing" textLength="61.3535" x="189.5664" y="336.8867">Modifier les</text><text fill="#000000" font-family="sans-serif" font-size="12" lengthAdjust="spacing" textLength="132.4277" x="189.5664" y="351.9805">m&#233;tadonn&#233;es + domaine</text><polygon fill="#F1F1F1" points="369.2986,186.4063,420.0393,186.4063,432.0393,198.4063,420.0393,210.4063,369.2986,210.4063,357.2986,198.4063,369.2986,186.4063" style="stroke:#181818;stroke-width:0.5;"/><text fill="#000000" font-family="sans-serif" font-size="11" lengthAdjust="spacing" textLength="50.7407" x="369.2986" y="202.9072">Supprimer</text><rect fill="#F1F1F1" height="50.1875" rx="12.5" ry="12.5" style="stroke:#181818;stroke-width:0.5;" width="85.3496" x="351.9941" y="230.4063"/><text fill="#000000" font-family="sans-serif" font-size="12" lengthAdjust="spacing" textLength="65.3496" x="361.9941" y="252.8633">Confirmer la</text><text fill="#000000" font-family="sans-serif" font-size="12" lengthAdjust="spacing" textLength="64.7051" x="361.9941" y="267.957">suppression</text><rect fill="none" height="264.6563" style="stroke:#000000;stroke-width:1.5;" width="428.8281" x="36.1719" y="490.6406"/><path d="M100.6338,490.6406 L100.6338,501.25 L90.6338,511.25 L36.1719,511.25" fill="none" style="stroke:#000000;stroke-width:1.5;"/><text fill="#000000" font-family="sans-serif" font-size="14" lengthAdjust="spacing" textLength="54.4619" x="39.1719" y="506.1738">Syst&#232;me</text><polygon fill="#F1F1F1" points="87.9961,531.25,127.7422,531.25,139.7422,543.25,127.7422,555.25,87.9961,555.25,75.9961,543.25,87.9961,531.25" style="stroke:#181818;stroke-width:0.5;"/><text fill="#000000" font-family="sans-serif" font-size="11" lengthAdjust="spacing" textLength="34.8584" x="111.8691" y="566.6689">Upload</text><text fill="#000000" font-family="sans-serif" font-size="11" lengthAdjust="spacing" textLength="39.7461" x="87.9961" y="547.751">Action ?</text><rect fill="#F1F1F1" height="50.1875" rx="12.5" ry="12.5" style="stroke:#181818;stroke-width:0.5;" width="108.6992" x="53.5195" y="589.0859"/><text fill="#000000" font-family="sans-serif" font-size="12" lengthAdjust="spacing" textLength="88.6992" x="63.5195" y="611.543">Stocker le fichier</text><text fill="#000000" font-family="sans-serif" font-size="12" lengthAdjust="spacing" textLength="68.0391" x="63.5195" y="626.6367">sur le disque</text><rect fill="#F1F1F1" height="50.1875" rx="12.5" ry="12.5" style="stroke:#181818;stroke-width:0.5;" width="123.3945" x="46.1719" y="673.1094"/><text fill="#000000" font-family="sans-serif" font-size="12" lengthAdjust="spacing" textLength="67.6523" x="56.1719" y="695.5664">Cr&#233;er l'entit&#233;</text><text fill="#000000" font-family="sans-serif" font-size="12" lengthAdjust="spacing" textLength="103.3945" x="56.1719" y="710.6602">Ressource en base</text><polygon fill="#F1F1F1" points="210.874,531.25,249.9971,531.25,261.9971,543.25,249.9971,555.25,210.874,555.25,198.874,543.25,210.874,531.25" style="stroke:#181818;stroke-width:0.5;"/><text fill="#000000" font-family="sans-serif" font-size="11" lengthAdjust="spacing" textLength="39.123" x="210.874" y="547.751">Modifier</text><rect fill="#F1F1F1" height="50.1875" rx="12.5" ry="12.5" style="stroke:#181818;stroke-width:0.5;" width="87.3594" x="186.7559" y="575.25"/><text fill="#000000" font-family="sans-serif" font-size="12" lengthAdjust="spacing" textLength="67.3594" x="196.7559" y="597.707">Mettre &#224; jour</text><text fill="#000000" font-family="sans-serif" font-size="12" lengthAdjust="spacing" textLength="60.6914" x="196.7559" y="612.8008">les champs</text><polygon fill="#F1F1F1" points="327.7732,531.25,378.5139,531.25,390.5139,543.25,378.5139,555.25,327.7732,555.25,315.7732,543.25,327.7732,531.25" style="stroke:#181818;stroke-width:0.5;"/><text fill="#000000" font-family="sans-serif" font-size="11" lengthAdjust="spacing" textLength="50.7407" x="327.7732" y="547.751">Supprimer</text><rect fill="#F1F1F1" height="50.1875" rx="12.5" ry="12.5" style="stroke:#181818;stroke-width:0.5;" width="118.0566" x="294.1152" y="575.25"/><text fill="#000000" font-family="sans-serif" font-size="12" lengthAdjust="spacing" textLength="57.375" x="304.1152" y="597.707">Soft delete</text><text fill="#000000" font-family="sans-serif" font-size="12" lengthAdjust="spacing" textLength="98.0566" x="304.1152" y="612.8008">(dateSuppression)</text><rect fill="#F1F1F1" height="50.1875" rx="12.5" ry="12.5" style="stroke:#181818;stroke-width:0.5;" width="103.3789" x="301.4541" y="659.2734"/><text fill="#000000" font-family="sans-serif" font-size="12" lengthAdjust="spacing" textLength="68.0273" x="311.4541" y="681.7305">Supprimer le</text><text fill="#000000" font-family="sans-serif" font-size="12" lengthAdjust="spacing" textLength="83.3789" x="311.4541" y="696.8242">fichier physique</text><rect fill="none" height="99.7969" style="stroke:#000000;stroke-width:1.5;" width="118.709" x="193.4121" y="765.2969"/><path d="M259.4463,765.2969 L259.4463,775.9063 L249.4463,785.9063 L193.4121,785.9063" fill="none" style="stroke:#000000;stroke-width:1.5;"/><text fill="#000000" font-family="sans-serif" font-size="14" lengthAdjust="spacing" textLength="56.0342" x="196.4121" y="780.8301">Frontend</text><rect fill="#F1F1F1" height="50.1875" rx="12.5" ry="12.5" style="stroke:#181818;stroke-width:0.5;" width="98.709" x="203.4121" y="802.9063"/><text fill="#000000" font-family="sans-serif" font-size="12" lengthAdjust="spacing" textLength="53.3555" x="213.4121" y="825.3633">Afficher la</text><text fill="#000000" font-family="sans-serif" font-size="12" lengthAdjust="spacing" textLength="78.709" x="213.4121" y="840.457">liste actualis&#233;e</text><ellipse cx="252.7666" cy="896.0938" fill="none" rx="11" ry="11" style="stroke:#222222;stroke-width:1;"/><ellipse cx="252.7666" cy="896.0938" fill="#222222" rx="6" ry="6" style="stroke:#222222;stroke-width:1;"/><line style="stroke:#181818;stroke-width:1;" x1="91.6885" x2="91.6885" y1="294.4297" y2="328.2656"/><polygon fill="#181818" points="87.6885,318.2656,91.6885,328.2656,95.6885,318.2656,91.6885,322.2656" style="stroke:#181818;stroke-width:1;"/><line style="stroke:#181818;stroke-width:1;" x1="91.6885" x2="91.6885" y1="378.4531" y2="398.4531"/><polygon fill="#181818" points="87.6885,388.4531,91.6885,398.4531,95.6885,388.4531,91.6885,392.4531" style="stroke:#181818;stroke-width:1;"/><line style="stroke:#181818;stroke-width:1;" x1="255.7803" x2="255.7803" y1="280.5938" y2="314.4297"/><polygon fill="#181818" points="251.7803,304.4297,255.7803,314.4297,259.7803,304.4297,255.7803,308.4297" style="stroke:#181818;stroke-width:1;"/><line style="stroke:#181818;stroke-width:1;" x1="91.6885" x2="91.6885" y1="210.4063" y2="244.2422"/><polygon fill="#181818" points="87.6885,234.2422,91.6885,244.2422,95.6885,234.2422,91.6885,238.2422" style="stroke:#181818;stroke-width:1;"/><line style="stroke:#181818;stroke-width:1;" x1="91.6885" x2="91.6885" y1="448.6406" y2="468.6406"/><polygon fill="#181818" points="87.6885,458.6406,91.6885,468.6406,95.6885,458.6406,91.6885,462.6406" style="stroke:#181818;stroke-width:1;"/><line style="stroke:#181818;stroke-width:1;" x1="255.7803" x2="255.7803" y1="210.4063" y2="230.4063"/><polygon fill="#181818" points="251.7803,220.4063,255.7803,230.4063,259.7803,220.4063,255.7803,224.4063" style="stroke:#181818;stroke-width:1;"/><line style="stroke:#181818;stroke-width:1;" x1="255.7803" x2="255.7803" y1="364.6172" y2="468.6406"/><polygon fill="#181818" points="251.7803,458.6406,255.7803,468.6406,259.7803,458.6406,255.7803,462.6406" style="stroke:#181818;stroke-width:1;"/><line style="stroke:#181818;stroke-width:1;" x1="394.6689" x2="394.6689" y1="210.4063" y2="230.4063"/><polygon fill="#181818" points="390.6689,220.4063,394.6689,230.4063,398.6689,220.4063,394.6689,224.4063" style="stroke:#181818;stroke-width:1;"/><line style="stroke:#181818;stroke-width:1;" x1="394.6689" x2="394.6689" y1="280.5938" y2="468.6406"/><polygon fill="#181818" points="390.6689,458.6406,394.6689,468.6406,398.6689,458.6406,394.6689,462.6406" style="stroke:#181818;stroke-width:1;"/><line style="stroke:#181818;stroke-width:1;" x1="123.5615" x2="224.2188" y1="198.4063" y2="198.4063"/><polygon fill="#181818" points="214.2188,194.4063,224.2188,198.4063,214.2188,202.4063,218.2188,198.4063" style="stroke:#181818;stroke-width:1;"/><line style="stroke:#181818;stroke-width:1;" x1="287.3418" x2="357.2986" y1="198.4063" y2="198.4063"/><polygon fill="#181818" points="347.2986,194.4063,357.2986,198.4063,347.2986,202.4063,351.2986,198.4063" style="stroke:#181818;stroke-width:1;"/><line style="stroke:#181818;stroke-width:1;" x1="252.7666" x2="252.7666" y1="166.4063" y2="171.4063"/><line style="stroke:#181818;stroke-width:1;" x1="252.7666" x2="91.6885" y1="171.4063" y2="171.4063"/><line style="stroke:#181818;stroke-width:1;" x1="91.6885" x2="91.6885" y1="171.4063" y2="186.4063"/><polygon fill="#181818" points="87.6885,176.4063,91.6885,186.4063,95.6885,176.4063,91.6885,180.4063" style="stroke:#181818;stroke-width:1;"/><line style="stroke:#181818;stroke-width:1;" x1="432.0393" x2="465.1719" y1="198.4063" y2="198.4063"/><line style="stroke:#181818;stroke-width:1;" x1="465.1719" x2="465.1719" y1="198.4063" y2="468.6406"/><polygon fill="#181818" points="461.1719,458.6406,465.1719,468.6406,469.1719,458.6406,465.1719,462.6406" style="stroke:#181818;stroke-width:1;"/><line style="stroke:#181818;stroke-width:1;" x1="91.6885" x2="465.1719" y1="468.6406" y2="468.6406"/><line style="stroke:#181818;stroke-width:1;" x1="252.7666" x2="252.7666" y1="68.6094" y2="116.2188"/><polygon fill="#181818" points="248.7666,106.2188,252.7666,116.2188,256.7666,106.2188,252.7666,110.2188" style="stroke:#181818;stroke-width:1;"/><line style="stroke:#181818;stroke-width:1;" x1="107.8691" x2="107.8691" y1="639.2734" y2="673.1094"/><polygon fill="#181818" points="103.8691,663.1094,107.8691,673.1094,111.8691,663.1094,107.8691,667.1094" style="stroke:#181818;stroke-width:1;"/><line style="stroke:#181818;stroke-width:1;" x1="353.1436" x2="353.1436" y1="625.4375" y2="659.2734"/><polygon fill="#181818" points="349.1436,649.2734,353.1436,659.2734,357.1436,649.2734,353.1436,653.2734" style="stroke:#181818;stroke-width:1;"/><line style="stroke:#181818;stroke-width:1;" x1="107.8691" x2="107.8691" y1="555.25" y2="589.0859"/><polygon fill="#181818" points="103.8691,579.0859,107.8691,589.0859,111.8691,579.0859,107.8691,583.0859" style="stroke:#181818;stroke-width:1;"/><line style="stroke:#181818;stroke-width:1;" x1="107.8691" x2="107.8691" y1="723.2969" y2="743.2969"/><polygon fill="#181818" points="103.8691,733.2969,107.8691,743.2969,111.8691,733.2969,107.8691,737.2969" style="stroke:#181818;stroke-width:1;"/><line style="stroke:#181818;stroke-width:1;" x1="230.4355" x2="230.4355" y1="555.25" y2="575.25"/><polygon fill="#181818" points="226.4355,565.25,230.4355,575.25,234.4355,565.25,230.4355,569.25" style="stroke:#181818;stroke-width:1;"/><line style="stroke:#181818;stroke-width:1;" x1="230.4355" x2="230.4355" y1="625.4375" y2="743.2969"/><polygon fill="#181818" points="226.4355,733.2969,230.4355,743.2969,234.4355,733.2969,230.4355,737.2969" style="stroke:#181818;stroke-width:1;"/><line style="stroke:#181818;stroke-width:1;" x1="353.1436" x2="353.1436" y1="555.25" y2="575.25"/><polygon fill="#181818" points="349.1436,565.25,353.1436,575.25,357.1436,565.25,353.1436,569.25" style="stroke:#181818;stroke-width:1;"/><line style="stroke:#181818;stroke-width:1;" x1="353.1436" x2="353.1436" y1="709.4609" y2="743.2969"/><polygon fill="#181818" points="349.1436,733.2969,353.1436,743.2969,357.1436,733.2969,353.1436,737.2969" style="stroke:#181818;stroke-width:1;"/><line style="stroke:#181818;stroke-width:1;" x1="139.7422" x2="198.874" y1="543.25" y2="543.25"/><polygon fill="#181818" points="188.874,539.25,198.874,543.25,188.874,547.25,192.874,543.25" style="stroke:#181818;stroke-width:1;"/><line style="stroke:#181818;stroke-width:1;" x1="261.9971" x2="315.7732" y1="543.25" y2="543.25"/><polygon fill="#181818" points="305.7732,539.25,315.7732,543.25,305.7732,547.25,309.7732,543.25" style="stroke:#181818;stroke-width:1;"/><line style="stroke:#181818;stroke-width:1;" x1="252.7666" x2="252.7666" y1="468.6406" y2="516.25"/><line style="stroke:#181818;stroke-width:1;" x1="252.7666" x2="107.8691" y1="516.25" y2="516.25"/><line style="stroke:#181818;stroke-width:1;" x1="107.8691" x2="107.8691" y1="516.25" y2="531.25"/><polygon fill="#181818" points="103.8691,521.25,107.8691,531.25,111.8691,521.25,107.8691,525.25" style="stroke:#181818;stroke-width:1;"/><line style="stroke:#181818;stroke-width:1;" x1="390.5139" x2="447.1719" y1="543.25" y2="543.25"/><line style="stroke:#181818;stroke-width:1;" x1="447.1719" x2="447.1719" y1="543.25" y2="743.2969"/><polygon fill="#181818" points="443.1719,733.2969,447.1719,743.2969,451.1719,733.2969,447.1719,737.2969" style="stroke:#181818;stroke-width:1;"/><line style="stroke:#181818;stroke-width:1;" x1="107.8691" x2="447.1719" y1="743.2969" y2="743.2969"/><line style="stroke:#181818;stroke-width:1;" x1="252.7666" x2="252.7666" y1="743.2969" y2="802.9063"/><polygon fill="#181818" points="248.7666,792.9063,252.7666,802.9063,256.7666,792.9063,252.7666,796.9063" style="stroke:#181818;stroke-width:1;"/><line style="stroke:#181818;stroke-width:1;" x1="252.7666" x2="252.7666" y1="853.0938" y2="885.0938"/><polygon fill="#181818" points="248.7666,875.0938,252.7666,885.0938,256.7666,875.0938,252.7666,879.0938" style="stroke:#181818;stroke-width:1;"/><!--SRC=[XL9DJkmm3Dxt51ORPWGdO1O88JrM8prHiUic9AvgI9syn4KWn5rOqdFqOi_fT1X0IBEfqiIVlnzRI3p2bHLw8fb6k82RQKoOm6E6X3c78Lazkc277baCwMLLPJ59gYhgbuG2mzyKOg9fd0lWjGAukB9s6fsscjuRFjb-wtUoqGfgOLMO5Nwv1kcGONKNVJ1khQ_QePv6ZtC1QvkMR4UO6buvZ0DbyAScgW8alzui04EP4gYcXEVWCDj4iU3F6txIftlonULIVTs5kNnWjTSROjJU8UxuTZtHPomojy5Hg-GxcJ_XYlkq1lXCcWuBBYnxQ4cquRv4v9HW6ZMGiptnLwvwY1fb_uCiS4kfBsrCmxcKAACgdP6i5DNRrtdKBrccZtutYkD1Ix2FiyH3odcO_ntbVyFUotLIsNfzgfjGWcpuzk2RuTvaF9RQ5aM7epi13ufhkEoPxKmVyz4Cwj2A3jMZb44v8rWVSlXSWJrInJUyk87OlMHQVFoIrfyKT63ibiLj2so9skiq4OoLmUXHxMyAD4k8_m40]--></g></svg>