<svg xmlns="http://www.w3.org/2000/svg" xmlns:xlink="http://www.w3.org/1999/xlink" contentStyleType="text/css" data-diagram-type="ACTIVITY" height="1118px" preserveAspectRatio="none" style="width:327px;height:1118px;background:#FFFFFF;" version="1.1" viewBox="0 0 327 1118" width="327px" zoomAndPan="magnify"><title>Activit&#233; : Filtrer les projets par technologie</title><defs/><g><text fill="#000000" font-family="sans-serif" font-size="14" font-weight="bold" lengthAdjust="spacing" textLength="284.7305" x="20" y="34.5332">Activit&#233; : Filtrer les projets par technologie</text><ellipse cx="161.9021" cy="58.6094" fill="#222222" rx="10" ry="10" style="stroke:#222222;stroke-width:1;"/><rect fill="none" height="99.7969" style="stroke:#000000;stroke-width:1.5;" width="128.043" x="97.8806" y="78.6094"/><path d="M162.3425,78.6094 L162.3425,89.2188 L152.3425,99.2188 L97.8806,99.2188" fill="none" style="stroke:#000000;stroke-width:1.5;"/><text fill="#000000" font-family="sans-serif" font-size="14" lengthAdjust="spacing" textLength="54.4619" x="100.8806" y="94.1426">Syst&#232;me</text><rect fill="#F1F1F1" height="50.1875" rx="12.5" ry="12.5" style="stroke:#181818;stroke-width:0.5;" width="108.043" x="107.8806" y="116.2188"/><text fill="#000000" font-family="sans-serif" font-size="12" lengthAdjust="spacing" textLength="88.043" x="117.8806" y="138.6758">Charger tous les</text><text fill="#000000" font-family="sans-serif" font-size="12" lengthAdjust="spacing" textLength="77.3789" x="117.8806" y="153.7695">projets publi&#233;s</text><rect fill="none" height="99.7969" style="stroke:#000000;stroke-width:1.5;" width="123.3672" x="100.2185" y="188.4063"/><path d="M166.2527,188.4063 L166.2527,199.0156 L156.2527,209.0156 L100.2185,209.0156" fill="none" style="stroke:#000000;stroke-width:1.5;"/><text fill="#000000" font-family="sans-serif" font-size="14" lengthAdjust="spacing" textLength="56.0342" x="103.2185" y="203.9395">Frontend</text><rect fill="#F1F1F1" height="50.1875" rx="12.5" ry="12.5" style="stroke:#181818;stroke-width:0.5;" width="103.3672" x="110.2185" y="226.0156"/><text fill="#000000" font-family="sans-serif" font-size="12" lengthAdjust="spacing" textLength="53.3555" x="120.2185" y="248.4727">Afficher la</text><text fill="#000000" font-family="sans-serif" font-size="12" lengthAdjust="spacing" textLength="83.3672" x="120.2185" y="263.5664">grille interactive</text><rect fill="none" height="169.9844" style="stroke:#000000;stroke-width:1.5;" width="143.4063" x="90.199" y="298.2031"/><path d="M146.8816,298.2031 L146.8816,308.8125 L136.8816,318.8125 L90.199,318.8125" fill="none" style="stroke:#000000;stroke-width:1.5;"/><text fill="#000000" font-family="sans-serif" font-size="14" lengthAdjust="spacing" textLength="46.6826" x="93.199" y="313.7363">Visiteur</text><rect fill="#F1F1F1" height="50.1875" rx="12.5" ry="12.5" style="stroke:#181818;stroke-width:0.5;" width="110.0293" x="106.8875" y="335.8125"/><text fill="#000000" font-family="sans-serif" font-size="12" lengthAdjust="spacing" textLength="90.0293" x="116.8875" y="358.2695">Parcourir la grille</text><text fill="#000000" font-family="sans-serif" font-size="12" lengthAdjust="spacing" textLength="58.6992" x="116.8875" y="373.3633">des projets</text><rect fill="#F1F1F1" height="50.1875" rx="12.5" ry="12.5" style="stroke:#181818;stroke-width:0.5;" width="123.4063" x="100.199" y="406"/><text fill="#000000" font-family="sans-serif" font-size="12" lengthAdjust="spacing" textLength="103.4063" x="110.199" y="428.457">S&#233;lectionner un tag</text><text fill="#000000" font-family="sans-serif" font-size="12" lengthAdjust="spacing" textLength="61.3828" x="110.199" y="443.5508">technologie</text><rect fill="none" height="233.9844" style="stroke:#000000;stroke-width:1.5;" width="268.2786" x="24.1592" y="478.1875"/><path d="M88.6211,478.1875 L88.6211,488.7969 L78.6211,498.7969 L24.1592,498.7969" fill="none" style="stroke:#000000;stroke-width:1.5;"/><text fill="#000000" font-family="sans-serif" font-size="14" lengthAdjust="spacing" textLength="54.4619" x="27.1592" y="493.7207">Syst&#232;me</text><polygon fill="#F1F1F1" points="122.7683,515.7969,201.0359,515.7969,213.0359,527.7969,201.0359,539.7969,122.7683,539.7969,110.7683,527.7969,122.7683,515.7969" style="stroke:#181818;stroke-width:0.5;"/><text fill="#000000" font-family="sans-serif" font-size="11" lengthAdjust="spacing" textLength="78.2676" x="122.7683" y="532.2979">Filtre appliqu&#233; ?</text><text fill="#000000" font-family="sans-serif" font-size="11" lengthAdjust="spacing" textLength="17.1177" x="93.6506" y="525.3799">Oui</text><text fill="#000000" font-family="sans-serif" font-size="11" lengthAdjust="spacing" textLength="20.1792" x="213.0359" y="525.3799">Non</text><rect fill="#F1F1F1" height="50.1875" rx="12.5" ry="12.5" style="stroke:#181818;stroke-width:0.5;" width="100.707" x="47.6956" y="549.7969"/><text fill="#000000" font-family="sans-serif" font-size="12" lengthAdjust="spacing" textLength="80.707" x="57.6956" y="572.2539">Interroger avec</text><text fill="#000000" font-family="sans-serif" font-size="12" lengthAdjust="spacing" textLength="52.0195" x="57.6956" y="587.3477">filtre LIKE</text><rect fill="#F1F1F1" height="50.1875" rx="12.5" ry="12.5" style="stroke:#181818;stroke-width:0.5;" width="122.0469" x="37.0256" y="619.9844"/><text fill="#000000" font-family="sans-serif" font-size="12" lengthAdjust="spacing" textLength="102.0469" x="47.0256" y="642.4414">Retourner r&#233;sultats</text><text fill="#000000" font-family="sans-serif" font-size="12" lengthAdjust="spacing" textLength="28.6699" x="47.0256" y="657.5352">filtr&#233;s</text><rect fill="#F1F1F1" height="50.1875" rx="12.5" ry="12.5" style="stroke:#181818;stroke-width:0.5;" width="93.3652" x="179.0725" y="549.7969"/><text fill="#000000" font-family="sans-serif" font-size="12" lengthAdjust="spacing" textLength="66.0352" x="189.0725" y="572.2539">Retourner la</text><text fill="#000000" font-family="sans-serif" font-size="12" lengthAdjust="spacing" textLength="73.3652" x="189.0725" y="587.3477">liste compl&#232;te</text><polygon fill="#F1F1F1" points="161.9021,676.1719,173.9021,688.1719,161.9021,700.1719,149.9021,688.1719,161.9021,676.1719" style="stroke:#181818;stroke-width:0.5;"/><rect fill="none" height="99.7969" style="stroke:#000000;stroke-width:1.5;" width="147.3848" x="88.2097" y="722.1719"/><path d="M154.2439,722.1719 L154.2439,732.7813 L144.2439,742.7813 L88.2097,742.7813" fill="none" style="stroke:#000000;stroke-width:1.5;"/><text fill="#000000" font-family="sans-serif" font-size="14" lengthAdjust="spacing" textLength="56.0342" x="91.2097" y="737.7051">Frontend</text><rect fill="#F1F1F1" height="50.1875" rx="12.5" ry="12.5" style="stroke:#181818;stroke-width:0.5;" width="127.3848" x="98.2097" y="759.7813"/><text fill="#000000" font-family="sans-serif" font-size="12" lengthAdjust="spacing" textLength="50.6836" x="108.2097" y="782.2383">Animer la</text><text fill="#000000" font-family="sans-serif" font-size="12" lengthAdjust="spacing" textLength="107.3848" x="108.2097" y="797.332">transition des cartes</text><rect fill="none" height="233.9844" style="stroke:#000000;stroke-width:1.5;" width="281.145" x="23.2927" y="831.9688"/><path d="M79.9753,831.9688 L79.9753,842.5781 L69.9753,852.5781 L23.2927,852.5781" fill="none" style="stroke:#000000;stroke-width:1.5;"/><text fill="#000000" font-family="sans-serif" font-size="14" lengthAdjust="spacing" textLength="46.6826" x="26.2927" y="847.502">Visiteur</text><polygon fill="#F1F1F1" points="114.5156,869.5781,209.2886,869.5781,221.2886,881.5781,209.2886,893.5781,114.5156,893.5781,102.5156,881.5781,114.5156,869.5781" style="stroke:#181818;stroke-width:0.5;"/><text fill="#000000" font-family="sans-serif" font-size="11" lengthAdjust="spacing" textLength="94.7729" x="114.5156" y="886.0791">Projet int&#233;ressant ?</text><text fill="#000000" font-family="sans-serif" font-size="11" lengthAdjust="spacing" textLength="17.1177" x="85.3979" y="879.1611">Oui</text><text fill="#000000" font-family="sans-serif" font-size="11" lengthAdjust="spacing" textLength="20.1792" x="221.2886" y="879.1611">Non</text><rect fill="#F1F1F1" height="50.1875" rx="12.5" ry="12.5" style="stroke:#181818;stroke-width:0.5;" width="78.0195" x="53.5059" y="903.5781"/><text fill="#000000" font-family="sans-serif" font-size="12" lengthAdjust="spacing" textLength="58.0195" x="63.5059" y="926.0352">Cliquer sur</text><text fill="#000000" font-family="sans-serif" font-size="12" lengthAdjust="spacing" textLength="42.6914" x="63.5059" y="941.1289">le projet</text><rect fill="#F1F1F1" height="50.1875" rx="12.5" ry="12.5" style="stroke:#181818;stroke-width:0.5;" width="112.7129" x="36.1592" y="973.7656"/><text fill="#000000" font-family="sans-serif" font-size="12" lengthAdjust="spacing" textLength="92.7129" x="46.1592" y="996.2227">Consulter d&#233;tails,</text><text fill="#000000" font-family="sans-serif" font-size="12" lengthAdjust="spacing" textLength="75.3691" x="46.1592" y="1011.3164">d&#233;mo, m&#233;dias</text><rect fill="#F1F1F1" height="50.1875" rx="12.5" ry="12.5" style="stroke:#181818;stroke-width:0.5;" width="107.375" x="177.6011" y="903.5781"/><text fill="#000000" font-family="sans-serif" font-size="12" lengthAdjust="spacing" textLength="64.0313" x="187.6011" y="926.0352">Revenir &#224; la</text><text fill="#000000" font-family="sans-serif" font-size="12" lengthAdjust="spacing" textLength="87.375" x="187.6011" y="941.1289">grille des projets</text><polygon fill="#F1F1F1" points="161.9021,1029.9531,173.9021,1041.9531,161.9021,1053.9531,149.9021,1041.9531,161.9021,1029.9531" style="stroke:#181818;stroke-width:0.5;"/><ellipse cx="161.9021" cy="1096.9531" fill="none" rx="11" ry="11" style="stroke:#222222;stroke-width:1;"/><ellipse cx="161.9021" cy="1096.9531" fill="#222222" rx="6" ry="6" style="stroke:#222222;stroke-width:1;"/><line style="stroke:#181818;stroke-width:1;" x1="161.9021" x2="161.9021" y1="68.6094" y2="116.2188"/><polygon fill="#181818" points="157.9021,106.2188,161.9021,116.2188,165.9021,106.2188,161.9021,110.2188" style="stroke:#181818;stroke-width:1;"/><line style="stroke:#181818;stroke-width:1;" x1="161.9021" x2="161.9021" y1="166.4063" y2="226.0156"/><polygon fill="#181818" points="157.9021,216.0156,161.9021,226.0156,165.9021,216.0156,161.9021,220.0156" style="stroke:#181818;stroke-width:1;"/><line style="stroke:#181818;stroke-width:1;" x1="161.9021" x2="161.9021" y1="386" y2="406"/><polygon fill="#181818" points="157.9021,396,161.9021,406,165.9021,396,161.9021,400" style="stroke:#181818;stroke-width:1;"/><line style="stroke:#181818;stroke-width:1;" x1="161.9021" x2="161.9021" y1="276.2031" y2="335.8125"/><polygon fill="#181818" points="157.9021,325.8125,161.9021,335.8125,165.9021,325.8125,161.9021,329.8125" style="stroke:#181818;stroke-width:1;"/><line style="stroke:#181818;stroke-width:1;" x1="98.0491" x2="98.0491" y1="599.9844" y2="619.9844"/><polygon fill="#181818" points="94.0491,609.9844,98.0491,619.9844,102.0491,609.9844,98.0491,613.9844" style="stroke:#181818;stroke-width:1;"/><line style="stroke:#181818;stroke-width:1;" x1="110.7683" x2="98.0491" y1="527.7969" y2="527.7969"/><line style="stroke:#181818;stroke-width:1;" x1="98.0491" x2="98.0491" y1="527.7969" y2="549.7969"/><polygon fill="#181818" points="94.0491,539.7969,98.0491,549.7969,102.0491,539.7969,98.0491,543.7969" style="stroke:#181818;stroke-width:1;"/><line style="stroke:#181818;stroke-width:1;" x1="213.0359" x2="225.7551" y1="527.7969" y2="527.7969"/><line style="stroke:#181818;stroke-width:1;" x1="225.7551" x2="225.7551" y1="527.7969" y2="549.7969"/><polygon fill="#181818" points="221.7551,539.7969,225.7551,549.7969,229.7551,539.7969,225.7551,543.7969" style="stroke:#181818;stroke-width:1;"/><line style="stroke:#181818;stroke-width:1;" x1="98.0491" x2="98.0491" y1="670.1719" y2="688.1719"/><line style="stroke:#181818;stroke-width:1;" x1="98.0491" x2="149.9021" y1="688.1719" y2="688.1719"/><polygon fill="#181818" points="139.9021,684.1719,149.9021,688.1719,139.9021,692.1719,143.9021,688.1719" style="stroke:#181818;stroke-width:1;"/><line style="stroke:#181818;stroke-width:1;" x1="225.7551" x2="225.7551" y1="599.9844" y2="688.1719"/><line style="stroke:#181818;stroke-width:1;" x1="225.7551" x2="173.9021" y1="688.1719" y2="688.1719"/><polygon fill="#181818" points="183.9021,684.1719,173.9021,688.1719,183.9021,692.1719,179.9021,688.1719" style="stroke:#181818;stroke-width:1;"/><line style="stroke:#181818;stroke-width:1;" x1="161.9021" x2="161.9021" y1="456.1875" y2="515.7969"/><polygon fill="#181818" points="157.9021,505.7969,161.9021,515.7969,165.9021,505.7969,161.9021,509.7969" style="stroke:#181818;stroke-width:1;"/><line style="stroke:#181818;stroke-width:1;" x1="161.9021" x2="161.9021" y1="700.1719" y2="759.7813"/><polygon fill="#181818" points="157.9021,749.7813,161.9021,759.7813,165.9021,749.7813,161.9021,753.7813" style="stroke:#181818;stroke-width:1;"/><line style="stroke:#181818;stroke-width:1;" x1="92.5156" x2="92.5156" y1="953.7656" y2="973.7656"/><polygon fill="#181818" points="88.5156,963.7656,92.5156,973.7656,96.5156,963.7656,92.5156,967.7656" style="stroke:#181818;stroke-width:1;"/><line style="stroke:#181818;stroke-width:1;" x1="102.5156" x2="92.5156" y1="881.5781" y2="881.5781"/><line style="stroke:#181818;stroke-width:1;" x1="92.5156" x2="92.5156" y1="881.5781" y2="903.5781"/><polygon fill="#181818" points="88.5156,893.5781,92.5156,903.5781,96.5156,893.5781,92.5156,897.5781" style="stroke:#181818;stroke-width:1;"/><line style="stroke:#181818;stroke-width:1;" x1="221.2886" x2="231.2886" y1="881.5781" y2="881.5781"/><line style="stroke:#181818;stroke-width:1;" x1="231.2886" x2="231.2886" y1="881.5781" y2="903.5781"/><polygon fill="#181818" points="227.2886,893.5781,231.2886,903.5781,235.2886,893.5781,231.2886,897.5781" style="stroke:#181818;stroke-width:1;"/><line style="stroke:#181818;stroke-width:1;" x1="92.5156" x2="92.5156" y1="1023.9531" y2="1041.9531"/><line style="stroke:#181818;stroke-width:1;" x1="92.5156" x2="149.9021" y1="1041.9531" y2="1041.9531"/><polygon fill="#181818" points="139.9021,1037.9531,149.9021,1041.9531,139.9021,1045.9531,143.9021,1041.9531" style="stroke:#181818;stroke-width:1;"/><line style="stroke:#181818;stroke-width:1;" x1="231.2886" x2="231.2886" y1="953.7656" y2="1041.9531"/><line style="stroke:#181818;stroke-width:1;" x1="231.2886" x2="173.9021" y1="1041.9531" y2="1041.9531"/><polygon fill="#181818" points="183.9021,1037.9531,173.9021,1041.9531,183.9021,1045.9531,179.9021,1041.9531" style="stroke:#181818;stroke-width:1;"/><line style="stroke:#181818;stroke-width:1;" x1="161.9021" x2="161.9021" y1="809.9688" y2="869.5781"/><polygon fill="#181818" points="157.9021,859.5781,161.9021,869.5781,165.9021,859.5781,161.9021,863.5781" style="stroke:#181818;stroke-width:1;"/><line style="stroke:#181818;stroke-width:1;" x1="161.9021" x2="161.9021" y1="1053.9531" y2="1085.9531"/><polygon fill="#181818" points="157.9021,1075.9531,161.9021,1085.9531,165.9021,1075.9531,161.9021,1079.9531" style="stroke:#181818;stroke-width:1;"/><!--SRC=[VPB1JiCm38RlVGeVDuadO0U49f0G2118d7e9hRiPfKvnd4a8yIuSwNFanN3M2SO4d2eb_cB_dwka7k6qKTgGvX6EuPoy2WfuZ318U4ArhnDGRDOSV5WHLbLK9rfLTgwa51ZkNwBcZnxXjG8uNgwThEmD3IcMXsh-UYazUifZN5Hl-_Yv15RaTi9FkuwQTPd1rRmIyZOYsRsuCYSUi0yKIJ79nDuwQK8IAZ1CRCtjTvP5ARhFeyUcq6nT4eEwLSrx2GzQ_4X77SmcIU26mTDpCcydSz0rCink4isjo9fSb8ab50zkWqtDtGHTNLoUBQQIEpH3KcOGSvAyEesxkgqZ0FGHONOTU7v853UUeY8qeHzy_b3S0jnIzwzSfdw7gpYEKqqnr1Y1yJ-x9VhjrcFPHnu5OtIilwLV5Z7M9oQnEN6dVvTx6RYajUisZ-h8noDRKXxxS0Hz7bjoVuJV8Djcy_l-dt6mt2y1KSFm2G00]--></g></svg>