<svg xmlns="http://www.w3.org/2000/svg" xmlns:xlink="http://www.w3.org/1999/xlink" contentStyleType="text/css" data-diagram-type="SEQUENCE" height="1240px" preserveAspectRatio="none" style="width:1027px;height:1240px;background:#FFFFFF;" version="1.1" viewBox="0 0 1027 1240" width="1027px" zoomAndPan="magnify"><title>Gestion des formations</title><defs/><g><text fill="#000000" font-family="sans-serif" font-size="14" font-weight="bold" lengthAdjust="spacing" textLength="156.3584" x="429.0366" y="29.5332">Gestion des formations</text><g><title>Visiteur</title><rect fill="#000000" fill-opacity="0.00000" height="1037.25" width="8" x="27.3413" y="121.2188"/><line style="stroke:#181818;stroke-width:0.5;stroke-dasharray:5.0,5.0;" x1="31" x2="31" y1="121.2188" y2="1158.4688"/></g><g><title>Proprietaire</title><rect fill="#000000" fill-opacity="0.00000" height="1037.25" width="8" x="102.8652" y="121.2188"/><line style="stroke:#181818;stroke-width:0.5;stroke-dasharray:5.0,5.0;" x1="106.6826" x2="106.6826" y1="121.2188" y2="1158.4688"/></g><g><title>Front</title><rect fill="#000000" fill-opacity="0.00000" height="1037.25" width="8" x="269.9351" y="121.2188"/><line style="stroke:#181818;stroke-width:0.5;stroke-dasharray:5.0,5.0;" x1="273.4351" x2="273.4351" y1="121.2188" y2="1158.4688"/></g><g><title>API</title><rect fill="#000000" fill-opacity="0.00000" height="1037.25" width="8" x="581.5156" y="121.2188"/><line style="stroke:#181818;stroke-width:0.5;stroke-dasharray:5.0,5.0;" x1="585.5156" x2="585.5156" y1="121.2188" y2="1158.4688"/></g><g><title>BD</title><rect fill="#000000" fill-opacity="0.00000" height="1037.25" width="8" x="988.4316" y="121.2188"/><line style="stroke:#181818;stroke-width:0.5;stroke-dasharray:5.0,5.0;" x1="992.4316" x2="992.4316" y1="121.2188" y2="1158.4688"/></g><g class="participant participant-head" data-participant="V"><text fill="#000000" font-family="sans-serif" font-size="14" lengthAdjust="spacing" textLength="46.6826" x="5" y="118.1426">Visiteur</text><ellipse cx="31.3413" cy="52.1094" fill="#E2E2F0" rx="8" ry="8" style="stroke:#181818;stroke-width:0.5;"/><path d="M31.3413,60.1094 L31.3413,87.1094 M18.3413,68.1094 L44.3413,68.1094 M31.3413,87.1094 L18.3413,102.1094 M31.3413,87.1094 L44.3413,102.1094" fill="none" style="stroke:#181818;stroke-width:0.5;"/></g><g class="participant participant-tail" data-participant="V"><text fill="#000000" font-family="sans-serif" font-size="14" lengthAdjust="spacing" textLength="46.6826" x="5" y="1172.002">Visiteur</text><ellipse cx="31.3413" cy="1183.5781" fill="#E2E2F0" rx="8" ry="8" style="stroke:#181818;stroke-width:0.5;"/><path d="M31.3413,1191.5781 L31.3413,1218.5781 M18.3413,1199.5781 L44.3413,1199.5781 M31.3413,1218.5781 L18.3413,1233.5781 M31.3413,1218.5781 L44.3413,1233.5781" fill="none" style="stroke:#181818;stroke-width:0.5;"/></g><g class="participant participant-head" data-participant="Auth"><text fill="#000000" font-family="sans-serif" font-size="14" lengthAdjust="spacing" textLength="72.3652" x="67.6826" y="118.1426">Proprietaire</text><ellipse cx="106.8652" cy="52.1094" fill="#E2E2F0" rx="8" ry="8" style="stroke:#181818;stroke-width:0.5;"/><path d="M106.8652,60.1094 L106.8652,87.1094 M93.8652,68.1094 L119.8652,68.1094 M106.8652,87.1094 L93.8652,102.1094 M106.8652,87.1094 L119.8652,102.1094" fill="none" style="stroke:#181818;stroke-width:0.5;"/></g><g class="participant participant-tail" data-participant="Auth"><text fill="#000000" font-family="sans-serif" font-size="14" lengthAdjust="spacing" textLength="72.3652" x="67.6826" y="1172.002">Proprietaire</text><ellipse cx="106.8652" cy="1183.5781" fill="#E2E2F0" rx="8" ry="8" style="stroke:#181818;stroke-width:0.5;"/><path d="M106.8652,1191.5781 L106.8652,1218.5781 M93.8652,1199.5781 L119.8652,1199.5781 M106.8652,1218.5781 L93.8652,1233.5781 M106.8652,1218.5781 L119.8652,1233.5781" fill="none" style="stroke:#181818;stroke-width:0.5;"/></g><g class="participant participant-head" data-participant="F"><text fill="#000000" font-family="sans-serif" font-size="14" lengthAdjust="spacing" textLength="32.6758" x="254.5972" y="118.1426">Front</text><path d="M253.4351,75.6094 L253.4351,99.6094 M253.4351,87.6094 L270.4351,87.6094" fill="none" style="stroke:#181818;stroke-width:0.5;"/><ellipse cx="282.4351" cy="87.6094" fill="#E2E2F0" rx="12" ry="12" style="stroke:#181818;stroke-width:0.5;"/></g><g class="participant participant-tail" data-participant="F"><text fill="#000000" font-family="sans-serif" font-size="14" lengthAdjust="spacing" textLength="32.6758" x="254.5972" y="1172.002">Front</text><path d="M253.4351,1179.0781 L253.4351,1203.0781 M253.4351,1191.0781 L270.4351,1191.0781" fill="none" style="stroke:#181818;stroke-width:0.5;"/><ellipse cx="282.4351" cy="1191.0781" fill="#E2E2F0" rx="12" ry="12" style="stroke:#181818;stroke-width:0.5;"/></g><g class="participant participant-head" data-participant="API"><text fill="#000000" font-family="sans-serif" font-size="14" lengthAdjust="spacing" textLength="22.5654" x="571.2329" y="118.1426">API</text><ellipse cx="585.5156" cy="87.6094" fill="#E2E2F0" rx="12" ry="12" style="stroke:#181818;stroke-width:0.5;"/><polygon fill="#181818" points="581.5156,75.6094,587.5156,70.6094,585.5156,75.6094,587.5156,80.6094,581.5156,75.6094" style="stroke:#181818;stroke-width:1;"/></g><g class="participant participant-tail" data-participant="API"><text fill="#000000" font-family="sans-serif" font-size="14" lengthAdjust="spacing" textLength="22.5654" x="571.2329" y="1172.002">API</text><ellipse cx="585.5156" cy="1191.0781" fill="#E2E2F0" rx="12" ry="12" style="stroke:#181818;stroke-width:0.5;"/><polygon fill="#181818" points="581.5156,1179.0781,587.5156,1174.0781,585.5156,1179.0781,587.5156,1184.0781,581.5156,1179.0781" style="stroke:#181818;stroke-width:1;"/></g><g class="participant participant-head" data-participant="BD"><text fill="#000000" font-family="sans-serif" font-size="14" lengthAdjust="spacing" textLength="19.4482" x="979.7075" y="118.1426">BD</text><path d="M974.4316,67.6094 C974.4316,57.6094 992.4316,57.6094 992.4316,57.6094 C992.4316,57.6094 1010.4316,57.6094 1010.4316,67.6094 L1010.4316,93.6094 C1010.4316,103.6094 992.4316,103.6094 992.4316,103.6094 C992.4316,103.6094 974.4316,103.6094 974.4316,93.6094 L974.4316,67.6094" fill="#E2E2F0" style="stroke:#181818;stroke-width:1.5;"/><path d="M974.4316,67.6094 C974.4316,77.6094 992.4316,77.6094 992.4316,77.6094 C992.4316,77.6094 1010.4316,77.6094 1010.4316,67.6094" fill="none" style="stroke:#181818;stroke-width:1.5;"/></g><g class="participant participant-tail" data-participant="BD"><text fill="#000000" font-family="sans-serif" font-size="14" lengthAdjust="spacing" textLength="19.4482" x="979.7075" y="1172.002">BD</text><path d="M974.4316,1185.0781 C974.4316,1175.0781 992.4316,1175.0781 992.4316,1175.0781 C992.4316,1175.0781 1010.4316,1175.0781 1010.4316,1185.0781 L1010.4316,1211.0781 C1010.4316,1221.0781 992.4316,1221.0781 992.4316,1221.0781 C992.4316,1221.0781 974.4316,1221.0781 974.4316,1211.0781 L974.4316,1185.0781" fill="#E2E2F0" style="stroke:#181818;stroke-width:1.5;"/><path d="M974.4316,1185.0781 C974.4316,1195.0781 992.4316,1195.0781 992.4316,1195.0781 C992.4316,1195.0781 1010.4316,1195.0781 1010.4316,1185.0781" fill="none" style="stroke:#181818;stroke-width:1.5;"/></g><rect fill="#EEEEEE" height="3" style="stroke:#EEEEEE;stroke-width:1;" width="1015.4316" x="0" y="152.3945"/><line style="stroke:#000000;stroke-width:1;" x1="0" x2="1015.4316" y1="152.3945" y2="152.3945"/><line style="stroke:#000000;stroke-width:1;" x1="0" x2="1015.4316" y1="155.3945" y2="155.3945"/><rect fill="#EEEEEE" height="24.3516" style="stroke:#000000;stroke-width:2;" width="163.4746" x="425.9785" y="141.2188"/><text fill="#000000" font-family="sans-serif" font-size="13" font-weight="bold" lengthAdjust="spacing" textLength="145.8628" x="431.9785" y="158.7139">Consultation (publique)</text><g class="message" data-participant-1="V" data-participant-2="F"><polygon fill="#181818" points="261.9351,193.9219,271.9351,197.9219,261.9351,201.9219,265.9351,197.9219" style="stroke:#181818;stroke-width:1;"/><line style="stroke:#181818;stroke-width:1;" x1="31.3413" x2="267.9351" y1="197.9219" y2="197.9219"/><text fill="#000000" font-family="sans-serif" font-size="13" lengthAdjust="spacing" textLength="213.9033" x="38.3413" y="193.0654">Navigation page comp&#233;tences / profil</text></g><g class="message" data-participant-1="F" data-participant-2="API"><polygon fill="#181818" points="573.5156,227.2734,583.5156,231.2734,573.5156,235.2734,577.5156,231.2734" style="stroke:#181818;stroke-width:1;"/><line style="stroke:#181818;stroke-width:1;" x1="273.9351" x2="579.5156" y1="231.2734" y2="231.2734"/><text fill="#000000" font-family="sans-serif" font-size="13" lengthAdjust="spacing" textLength="115.5972" x="280.9351" y="226.417">GET /api/formations</text></g><path d="M590,210.9219 L590,236.9219 L674,236.9219 L674,220.9219 L664,210.9219 L590,210.9219" fill="#FEFFDD" style="stroke:#181818;stroke-width:0.5;"/><path d="M664,210.9219 L664,220.9219 L674,220.9219 L664,210.9219" fill="#FEFFDD" style="stroke:#181818;stroke-width:0.5;"/><text fill="#000000" font-family="sans-serif" font-size="13" lengthAdjust="spacing" textLength="63.5781" x="596" y="229.417">Acc&#232;s libre</text><g class="message" data-participant-1="API" data-participant-2="BD"><polygon fill="#181818" points="980.4316,260.625,990.4316,264.625,980.4316,268.625,984.4316,264.625" style="stroke:#181818;stroke-width:1;"/><line style="stroke:#181818;stroke-width:1;" x1="585.5156" x2="986.4316" y1="264.625" y2="264.625"/><text fill="#000000" font-family="sans-serif" font-size="13" lengthAdjust="spacing" textLength="382.916" x="592.5156" y="259.7686">SELECT * FROM formations ORDER BY ordre, date_debut DESC</text></g><g class="message" data-participant-1="BD" data-participant-2="API"><polygon fill="#181818" points="596.5156,290.9766,586.5156,294.9766,596.5156,298.9766,592.5156,294.9766" style="stroke:#181818;stroke-width:1;"/><line style="stroke:#181818;stroke-width:1;stroke-dasharray:2.0,2.0;" x1="590.5156" x2="991.4316" y1="294.9766" y2="294.9766"/><text fill="#000000" font-family="sans-serif" font-size="13" lengthAdjust="spacing" textLength="116.3335" x="602.5156" y="290.1201">Liste des formations</text></g><g class="message" data-participant-1="API" data-participant-2="F"><polygon fill="#181818" points="284.9351,321.3281,274.9351,325.3281,284.9351,329.3281,280.9351,325.3281" style="stroke:#181818;stroke-width:1;"/><line style="stroke:#181818;stroke-width:1;stroke-dasharray:2.0,2.0;" x1="278.9351" x2="584.5156" y1="325.3281" y2="325.3281"/><text fill="#000000" font-family="sans-serif" font-size="13" lengthAdjust="spacing" textLength="205.207" x="290.9351" y="320.4717">JSON [{diplome, etablissement, ...}]</text></g><g class="message" data-participant-1="F" data-participant-2="V"><polygon fill="#181818" points="42.3413,351.6797,32.3413,355.6797,42.3413,359.6797,38.3413,355.6797" style="stroke:#181818;stroke-width:1;"/><line style="stroke:#181818;stroke-width:1;stroke-dasharray:2.0,2.0;" x1="36.3413" x2="272.9351" y1="355.6797" y2="355.6797"/><text fill="#000000" font-family="sans-serif" font-size="13" lengthAdjust="spacing" textLength="118.5044" x="48.3413" y="350.8232">Affichage formations</text></g><rect fill="#EEEEEE" height="3" style="stroke:#EEEEEE;stroke-width:1;" width="1015.4316" x="0" y="384.8555"/><line style="stroke:#000000;stroke-width:1;" x1="0" x2="1015.4316" y1="384.8555" y2="384.8555"/><line style="stroke:#000000;stroke-width:1;" x1="0" x2="1015.4316" y1="387.8555" y2="387.8555"/><rect fill="#EEEEEE" height="24.3516" style="stroke:#000000;stroke-width:2;" width="144" x="435.7158" y="373.6797"/><text fill="#000000" font-family="sans-serif" font-size="13" font-weight="bold" lengthAdjust="spacing" textLength="126.3882" x="441.7158" y="391.1748">Gestion (authentifi&#233;)</text><g class="message" data-participant-1="Auth" data-participant-2="F"><polygon fill="#181818" points="261.9351,426.3828,271.9351,430.3828,261.9351,434.3828,265.9351,430.3828" style="stroke:#181818;stroke-width:1;"/><line style="stroke:#181818;stroke-width:1;" x1="106.8652" x2="267.9351" y1="430.3828" y2="430.3828"/><text fill="#000000" font-family="sans-serif" font-size="13" lengthAdjust="spacing" textLength="127.8989" x="113.8652" y="425.5264">Dashboard formations</text></g><g class="message" data-participant-1="F" data-participant-2="API"><polygon fill="#181818" points="573.5156,459.7344,583.5156,463.7344,573.5156,467.7344,577.5156,463.7344" style="stroke:#181818;stroke-width:1;"/><line style="stroke:#181818;stroke-width:1;" x1="273.9351" x2="579.5156" y1="463.7344" y2="463.7344"/><text fill="#000000" font-family="sans-serif" font-size="13" lengthAdjust="spacing" textLength="115.5972" x="280.9351" y="458.8779">GET /api/formations</text></g><path d="M590,443.3828 L590,469.3828 L749,469.3828 L749,453.3828 L739,443.3828 L590,443.3828" fill="#FEFFDD" style="stroke:#181818;stroke-width:0.5;"/><path d="M739,443.3828 L739,453.3828 L749,453.3828 L739,443.3828" fill="#FEFFDD" style="stroke:#181818;stroke-width:0.5;"/><text fill="#000000" font-family="sans-serif" font-size="13" lengthAdjust="spacing" textLength="138.7471" x="596" y="461.8779">Proprietaire uniquement</text><g class="message" data-participant-1="API" data-participant-2="BD"><polygon fill="#181818" points="980.4316,493.0859,990.4316,497.0859,980.4316,501.0859,984.4316,497.0859" style="stroke:#181818;stroke-width:1;"/><line style="stroke:#181818;stroke-width:1;" x1="585.5156" x2="986.4316" y1="497.0859" y2="497.0859"/><text fill="#000000" font-family="sans-serif" font-size="13" lengthAdjust="spacing" textLength="65.019" x="592.5156" y="492.2295">SELECT ...</text></g><g class="message" data-participant-1="BD" data-participant-2="API"><polygon fill="#181818" points="596.5156,523.4375,586.5156,527.4375,596.5156,531.4375,592.5156,527.4375" style="stroke:#181818;stroke-width:1;"/><line style="stroke:#181818;stroke-width:1;stroke-dasharray:2.0,2.0;" x1="590.5156" x2="991.4316" y1="527.4375" y2="527.4375"/><text fill="#000000" font-family="sans-serif" font-size="13" lengthAdjust="spacing" textLength="83.8208" x="602.5156" y="522.5811">Liste compl&#232;te</text></g><g class="message" data-participant-1="API" data-participant-2="F"><polygon fill="#181818" points="284.9351,553.7891,274.9351,557.7891,284.9351,561.7891,280.9351,557.7891" style="stroke:#181818;stroke-width:1;"/><line style="stroke:#181818;stroke-width:1;stroke-dasharray:2.0,2.0;" x1="278.9351" x2="584.5156" y1="557.7891" y2="557.7891"/><text fill="#000000" font-family="sans-serif" font-size="13" lengthAdjust="spacing" textLength="34.6709" x="290.9351" y="552.9326">JSON</text></g><g class="message" data-participant-1="F" data-participant-2="Auth"><polygon fill="#181818" points="117.8652,584.1406,107.8652,588.1406,117.8652,592.1406,113.8652,588.1406" style="stroke:#181818;stroke-width:1;"/><line style="stroke:#181818;stroke-width:1;stroke-dasharray:2.0,2.0;" x1="111.8652" x2="272.9351" y1="588.1406" y2="588.1406"/><text fill="#000000" font-family="sans-serif" font-size="13" lengthAdjust="spacing" textLength="125.728" x="123.8652" y="583.2842">Formulaire de gestion</text></g><g class="message" data-participant-1="Auth" data-participant-2="F"><polygon fill="#181818" points="261.9351,614.4922,271.9351,618.4922,261.9351,622.4922,265.9351,618.4922" style="stroke:#181818;stroke-width:1;"/><line style="stroke:#181818;stroke-width:1;" x1="106.8652" x2="267.9351" y1="618.4922" y2="618.4922"/><text fill="#000000" font-family="sans-serif" font-size="13" lengthAdjust="spacing" textLength="124.2935" x="113.8652" y="613.6357">Ajouter une formation</text></g><g class="message" data-participant-1="F" data-participant-2="API"><polygon fill="#181818" points="573.5156,647.8438,583.5156,651.8438,573.5156,655.8438,577.5156,651.8438" style="stroke:#181818;stroke-width:1;"/><line style="stroke:#181818;stroke-width:1;" x1="273.9351" x2="579.5156" y1="651.8438" y2="651.8438"/><text fill="#000000" font-family="sans-serif" font-size="13" lengthAdjust="spacing" textLength="287.5806" x="280.9351" y="646.9873">POST /api/formations {diplome, etablissement, ...}</text></g><path d="M590,631.4922 L590,657.4922 L763,657.4922 L763,641.4922 L753,631.4922 L590,631.4922" fill="#FEFFDD" style="stroke:#181818;stroke-width:0.5;"/><path d="M753,631.4922 L753,641.4922 L763,641.4922 L753,631.4922" fill="#FEFFDD" style="stroke:#181818;stroke-width:0.5;"/><text fill="#000000" font-family="sans-serif" font-size="13" lengthAdjust="spacing" textLength="152.4644" x="596" y="649.9873">Auth requis (Bearer token)</text><g class="message" data-participant-1="API" data-participant-2="BD"><polygon fill="#181818" points="980.4316,681.1953,990.4316,685.1953,980.4316,689.1953,984.4316,685.1953" style="stroke:#181818;stroke-width:1;"/><line style="stroke:#181818;stroke-width:1;" x1="585.5156" x2="986.4316" y1="685.1953" y2="685.1953"/><text fill="#000000" font-family="sans-serif" font-size="13" lengthAdjust="spacing" textLength="146.6372" x="592.5156" y="680.3389">INSERT INTO formations</text></g><g class="message" data-participant-1="BD" data-participant-2="API"><polygon fill="#181818" points="596.5156,711.5469,586.5156,715.5469,596.5156,719.5469,592.5156,715.5469" style="stroke:#181818;stroke-width:1;"/><line style="stroke:#181818;stroke-width:1;stroke-dasharray:2.0,2.0;" x1="590.5156" x2="991.4316" y1="715.5469" y2="715.5469"/><text fill="#000000" font-family="sans-serif" font-size="13" lengthAdjust="spacing" textLength="108.3862" x="602.5156" y="710.6904">Nouvelle formation</text></g><g class="message" data-participant-1="API" data-participant-2="F"><polygon fill="#181818" points="284.9351,741.8984,274.9351,745.8984,284.9351,749.8984,280.9351,745.8984" style="stroke:#181818;stroke-width:1;"/><line style="stroke:#181818;stroke-width:1;stroke-dasharray:2.0,2.0;" x1="278.9351" x2="584.5156" y1="745.8984" y2="745.8984"/><text fill="#000000" font-family="sans-serif" font-size="13" lengthAdjust="spacing" textLength="71.5508" x="290.9351" y="741.042">201 Created</text></g><g class="message" data-participant-1="F" data-participant-2="Auth"><polygon fill="#181818" points="117.8652,772.25,107.8652,776.25,117.8652,780.25,113.8652,776.25" style="stroke:#181818;stroke-width:1;"/><line style="stroke:#181818;stroke-width:1;stroke-dasharray:2.0,2.0;" x1="111.8652" x2="272.9351" y1="776.25" y2="776.25"/><text fill="#000000" font-family="sans-serif" font-size="13" lengthAdjust="spacing" textLength="73.6963" x="123.8652" y="771.3936">Confirmation</text></g><g class="message" data-participant-1="Auth" data-participant-2="F"><polygon fill="#181818" points="261.9351,802.6016,271.9351,806.6016,261.9351,810.6016,265.9351,806.6016" style="stroke:#181818;stroke-width:1;"/><line style="stroke:#181818;stroke-width:1;" x1="106.8652" x2="267.9351" y1="806.6016" y2="806.6016"/><text fill="#000000" font-family="sans-serif" font-size="13" lengthAdjust="spacing" textLength="129.3398" x="113.8652" y="801.7451">Modifier une formation</text></g><g class="message" data-participant-1="F" data-participant-2="API"><polygon fill="#181818" points="573.5156,832.9531,583.5156,836.9531,573.5156,840.9531,577.5156,836.9531" style="stroke:#181818;stroke-width:1;"/><line style="stroke:#181818;stroke-width:1;" x1="273.9351" x2="579.5156" y1="836.9531" y2="836.9531"/><text fill="#000000" font-family="sans-serif" font-size="13" lengthAdjust="spacing" textLength="213.167" x="280.9351" y="832.0967">PUT /api/formations/{id} {diplome, ...}</text></g><g class="message" data-participant-1="API" data-participant-2="BD"><polygon fill="#181818" points="980.4316,863.3047,990.4316,867.3047,980.4316,871.3047,984.4316,867.3047" style="stroke:#181818;stroke-width:1;"/><line style="stroke:#181818;stroke-width:1;" x1="585.5156" x2="986.4316" y1="867.3047" y2="867.3047"/><text fill="#000000" font-family="sans-serif" font-size="13" lengthAdjust="spacing" textLength="117.0317" x="592.5156" y="862.4482">UPDATE formations</text></g><g class="message" data-participant-1="BD" data-participant-2="API"><polygon fill="#181818" points="596.5156,893.6563,586.5156,897.6563,596.5156,901.6563,592.5156,897.6563" style="stroke:#181818;stroke-width:1;"/><line style="stroke:#181818;stroke-width:1;stroke-dasharray:2.0,2.0;" x1="590.5156" x2="991.4316" y1="897.6563" y2="897.6563"/><text fill="#000000" font-family="sans-serif" font-size="13" lengthAdjust="spacing" textLength="111.2681" x="602.5156" y="892.7998">Formation modifi&#233;e</text></g><g class="message" data-participant-1="API" data-participant-2="F"><polygon fill="#181818" points="284.9351,924.0078,274.9351,928.0078,284.9351,932.0078,280.9351,928.0078" style="stroke:#181818;stroke-width:1;"/><line style="stroke:#181818;stroke-width:1;stroke-dasharray:2.0,2.0;" x1="278.9351" x2="584.5156" y1="928.0078" y2="928.0078"/><text fill="#000000" font-family="sans-serif" font-size="13" lengthAdjust="spacing" textLength="44.0845" x="290.9351" y="923.1514">200 OK</text></g><g class="message" data-participant-1="F" data-participant-2="Auth"><polygon fill="#181818" points="117.8652,954.3594,107.8652,958.3594,117.8652,962.3594,113.8652,958.3594" style="stroke:#181818;stroke-width:1;"/><line style="stroke:#181818;stroke-width:1;stroke-dasharray:2.0,2.0;" x1="111.8652" x2="272.9351" y1="958.3594" y2="958.3594"/><text fill="#000000" font-family="sans-serif" font-size="13" lengthAdjust="spacing" textLength="73.6963" x="123.8652" y="953.5029">Confirmation</text></g><g class="message" data-participant-1="Auth" data-participant-2="F"><polygon fill="#181818" points="261.9351,984.7109,271.9351,988.7109,261.9351,992.7109,265.9351,988.7109" style="stroke:#181818;stroke-width:1;"/><line style="stroke:#181818;stroke-width:1;" x1="106.8652" x2="267.9351" y1="988.7109" y2="988.7109"/><text fill="#000000" font-family="sans-serif" font-size="13" lengthAdjust="spacing" textLength="143.0698" x="113.8652" y="983.8545">Supprimer une formation</text></g><g class="message" data-participant-1="F" data-participant-2="API"><polygon fill="#181818" points="573.5156,1015.0625,583.5156,1019.0625,573.5156,1023.0625,577.5156,1019.0625" style="stroke:#181818;stroke-width:1;"/><line style="stroke:#181818;stroke-width:1;" x1="273.9351" x2="579.5156" y1="1019.0625" y2="1019.0625"/><text fill="#000000" font-family="sans-serif" font-size="13" lengthAdjust="spacing" textLength="161.8589" x="280.9351" y="1014.2061">DELETE /api/formations/{id}</text></g><g class="message" data-participant-1="API" data-participant-2="BD"><polygon fill="#181818" points="980.4316,1045.4141,990.4316,1049.4141,980.4316,1053.4141,984.4316,1049.4141" style="stroke:#181818;stroke-width:1;"/><line style="stroke:#181818;stroke-width:1;" x1="585.5156" x2="986.4316" y1="1049.4141" y2="1049.4141"/><text fill="#000000" font-family="sans-serif" font-size="13" lengthAdjust="spacing" textLength="156.7554" x="592.5156" y="1044.5576">DELETE FROM formations</text></g><g class="message" data-participant-1="BD" data-participant-2="API"><polygon fill="#181818" points="596.5156,1075.7656,586.5156,1079.7656,596.5156,1083.7656,592.5156,1079.7656" style="stroke:#181818;stroke-width:1;"/><line style="stroke:#181818;stroke-width:1;stroke-dasharray:2.0,2.0;" x1="590.5156" x2="991.4316" y1="1079.7656" y2="1079.7656"/><text fill="#000000" font-family="sans-serif" font-size="13" lengthAdjust="spacing" textLength="18.7827" x="602.5156" y="1074.9092">OK</text></g><g class="message" data-participant-1="API" data-participant-2="F"><polygon fill="#181818" points="284.9351,1106.1172,274.9351,1110.1172,284.9351,1114.1172,280.9351,1110.1172" style="stroke:#181818;stroke-width:1;"/><line style="stroke:#181818;stroke-width:1;stroke-dasharray:2.0,2.0;" x1="278.9351" x2="584.5156" y1="1110.1172" y2="1110.1172"/><text fill="#000000" font-family="sans-serif" font-size="13" lengthAdjust="spacing" textLength="91.0635" x="290.9351" y="1105.2607">204 No Content</text></g><g class="message" data-participant-1="F" data-participant-2="Auth"><polygon fill="#181818" points="117.8652,1136.4688,107.8652,1140.4688,117.8652,1144.4688,113.8652,1140.4688" style="stroke:#181818;stroke-width:1;"/><line style="stroke:#181818;stroke-width:1;stroke-dasharray:2.0,2.0;" x1="111.8652" x2="272.9351" y1="1140.4688" y2="1140.4688"/><text fill="#000000" font-family="sans-serif" font-size="13" lengthAdjust="spacing" textLength="73.6963" x="123.8652" y="1135.6123">Confirmation</text></g><!--SRC=[ZPFHRjf044NVzolcaLG9f5MVa8W4s8ve4ummGQgggbhROzZMzZhhtKXLbFy9ty6FTTQ0j2O4vSdsQDRtdZkpMkWSuHPhBMG9ATQGILLm-rKpnXCj5In5BJGQ1Ro6vRusKx9I0ZKN2crzQFIQnTAKALV_852orBOSi8JUbCnXE9iqVRC9IxdcCQyHHfujZJp61WCOawB9TICDdSh4kNWqU0630Ll2rGq4VPZo9x7QDLHyXP38ejfkD9O9-Uv1fMGcSXRORjBfmws_W1wlHCzXAgL6K6ArrdqO9idsjOPSn0gPDKW7HruV8l_E7o_W4mJpyDu91CAvvyzXz0EaIXLU0f7WxnHZey7pep4ZeAk3-9seIUaeqKPa1_Cj2gVmypaLLIuB-XTbISXrZGMM-XAwtUxBByj2tKkoccKYMLjeTpuKss5q7KuJe9CY4zjDaveToJuuZzVhM7ALkgS_dbDhsAQqSx4cJqH6ha-4OEUKRryr7lFl-QpJFWGaRl968qLOxRYOYp7y8ur6HHQS61oEMHYz0O6p2RVNmIefV3IYXiu8kI8fBVzYUU6IJgQHFr_GOn6wQRhKKscUCCzTamxub-lFC5P8gvEs-Ea2PEBGxsBVovIcUexxuGrsxrcaBmvx0-jGFCoyuS9_3o0ubA5ejBSRR1DSG_ZzO-OZKz7k56VSUxGwPEKKWEjuttPq9LksoLFBvLUQX7McxRA-v_O_]--></g></svg>