<svg xmlns="http://www.w3.org/2000/svg" xmlns:xlink="http://www.w3.org/1999/xlink" contentStyleType="text/css" data-diagram-type="SEQUENCE" height="1240px" preserveAspectRatio="none" style="width:1039px;height:1240px;background:#FFFFFF;" version="1.1" viewBox="0 0 1039 1240" width="1039px" zoomAndPan="magnify"><title>Gestion des certifications</title><defs/><g><text fill="#000000" font-family="sans-serif" font-size="14" font-weight="bold" lengthAdjust="spacing" textLength="171.1582" x="427.7717" y="29.5332">Gestion des certifications</text><g><title>Visiteur</title><rect fill="#000000" fill-opacity="0.00000" height="1037.25" width="8" x="27.3413" y="121.2188"/><line style="stroke:#181818;stroke-width:0.5;stroke-dasharray:5.0,5.0;" x1="31" x2="31" y1="121.2188" y2="1158.4688"/></g><g><title>Proprietaire</title><rect fill="#000000" fill-opacity="0.00000" height="1037.25" width="8" x="102.8652" y="121.2188"/><line style="stroke:#181818;stroke-width:0.5;stroke-dasharray:5.0,5.0;" x1="106.6826" x2="106.6826" y1="121.2188" y2="1158.4688"/></g><g><title>Front</title><rect fill="#000000" fill-opacity="0.00000" height="1037.25" width="8" x="281.4941" y="121.2188"/><line style="stroke:#181818;stroke-width:0.5;stroke-dasharray:5.0,5.0;" x1="284.9941" x2="284.9941" y1="121.2188" y2="1158.4688"/></g><g><title>API</title><rect fill="#000000" fill-opacity="0.00000" height="1037.25" width="8" x="561.2666" y="121.2188"/><line style="stroke:#181818;stroke-width:0.5;stroke-dasharray:5.0,5.0;" x1="565.2666" x2="565.2666" y1="121.2188" y2="1158.4688"/></g><g><title>BD</title><rect fill="#000000" fill-opacity="0.00000" height="1037.25" width="8" x="1000.7017" y="121.2188"/><line style="stroke:#181818;stroke-width:0.5;stroke-dasharray:5.0,5.0;" x1="1004.7017" x2="1004.7017" y1="121.2188" y2="1158.4688"/></g><g class="participant participant-head" data-participant="V"><text fill="#000000" font-family="sans-serif" font-size="14" lengthAdjust="spacing" textLength="46.6826" x="5" y="118.1426">Visiteur</text><ellipse cx="31.3413" cy="52.1094" fill="#E2E2F0" rx="8" ry="8" style="stroke:#181818;stroke-width:0.5;"/><path d="M31.3413,60.1094 L31.3413,87.1094 M18.3413,68.1094 L44.3413,68.1094 M31.3413,87.1094 L18.3413,102.1094 M31.3413,87.1094 L44.3413,102.1094" fill="none" style="stroke:#181818;stroke-width:0.5;"/></g><g class="participant participant-tail" data-participant="V"><text fill="#000000" font-family="sans-serif" font-size="14" lengthAdjust="spacing" textLength="46.6826" x="5" y="1172.002">Visiteur</text><ellipse cx="31.3413" cy="1183.5781" fill="#E2E2F0" rx="8" ry="8" style="stroke:#181818;stroke-width:0.5;"/><path d="M31.3413,1191.5781 L31.3413,1218.5781 M18.3413,1199.5781 L44.3413,1199.5781 M31.3413,1218.5781 L18.3413,1233.5781 M31.3413,1218.5781 L44.3413,1233.5781" fill="none" style="stroke:#181818;stroke-width:0.5;"/></g><g class="participant participant-head" data-participant="Auth"><text fill="#000000" font-family="sans-serif" font-size="14" lengthAdjust="spacing" textLength="72.3652" x="67.6826" y="118.1426">Proprietaire</text><ellipse cx="106.8652" cy="52.1094" fill="#E2E2F0" rx="8" ry="8" style="stroke:#181818;stroke-width:0.5;"/><path d="M106.8652,60.1094 L106.8652,87.1094 M93.8652,68.1094 L119.8652,68.1094 M106.8652,87.1094 L93.8652,102.1094 M106.8652,87.1094 L119.8652,102.1094" fill="none" style="stroke:#181818;stroke-width:0.5;"/></g><g class="participant participant-tail" data-participant="Auth"><text fill="#000000" font-family="sans-serif" font-size="14" lengthAdjust="spacing" textLength="72.3652" x="67.6826" y="1172.002">Proprietaire</text><ellipse cx="106.8652" cy="1183.5781" fill="#E2E2F0" rx="8" ry="8" style="stroke:#181818;stroke-width:0.5;"/><path d="M106.8652,1191.5781 L106.8652,1218.5781 M93.8652,1199.5781 L119.8652,1199.5781 M106.8652,1218.5781 L93.8652,1233.5781 M106.8652,1218.5781 L119.8652,1233.5781" fill="none" style="stroke:#181818;stroke-width:0.5;"/></g><g class="participant participant-head" data-participant="F"><text fill="#000000" font-family="sans-serif" font-size="14" lengthAdjust="spacing" textLength="32.6758" x="266.1563" y="118.1426">Front</text><path d="M264.9941,75.6094 L264.9941,99.6094 M264.9941,87.6094 L281.9941,87.6094" fill="none" style="stroke:#181818;stroke-width:0.5;"/><ellipse cx="293.9941" cy="87.6094" fill="#E2E2F0" rx="12" ry="12" style="stroke:#181818;stroke-width:0.5;"/></g><g class="participant participant-tail" data-participant="F"><text fill="#000000" font-family="sans-serif" font-size="14" lengthAdjust="spacing" textLength="32.6758" x="266.1563" y="1172.002">Front</text><path d="M264.9941,1179.0781 L264.9941,1203.0781 M264.9941,1191.0781 L281.9941,1191.0781" fill="none" style="stroke:#181818;stroke-width:0.5;"/><ellipse cx="293.9941" cy="1191.0781" fill="#E2E2F0" rx="12" ry="12" style="stroke:#181818;stroke-width:0.5;"/></g><g class="participant participant-head" data-participant="API"><text fill="#000000" font-family="sans-serif" font-size="14" lengthAdjust="spacing" textLength="22.5654" x="550.9839" y="118.1426">API</text><ellipse cx="565.2666" cy="87.6094" fill="#E2E2F0" rx="12" ry="12" style="stroke:#181818;stroke-width:0.5;"/><polygon fill="#181818" points="561.2666,75.6094,567.2666,70.6094,565.2666,75.6094,567.2666,80.6094,561.2666,75.6094" style="stroke:#181818;stroke-width:1;"/></g><g class="participant participant-tail" data-participant="API"><text fill="#000000" font-family="sans-serif" font-size="14" lengthAdjust="spacing" textLength="22.5654" x="550.9839" y="1172.002">API</text><ellipse cx="565.2666" cy="1191.0781" fill="#E2E2F0" rx="12" ry="12" style="stroke:#181818;stroke-width:0.5;"/><polygon fill="#181818" points="561.2666,1179.0781,567.2666,1174.0781,565.2666,1179.0781,567.2666,1184.0781,561.2666,1179.0781" style="stroke:#181818;stroke-width:1;"/></g><g class="participant participant-head" data-participant="BD"><text fill="#000000" font-family="sans-serif" font-size="14" lengthAdjust="spacing" textLength="19.4482" x="991.9775" y="118.1426">BD</text><path d="M986.7017,67.6094 C986.7017,57.6094 1004.7017,57.6094 1004.7017,57.6094 C1004.7017,57.6094 1022.7017,57.6094 1022.7017,67.6094 L1022.7017,93.6094 C1022.7017,103.6094 1004.7017,103.6094 1004.7017,103.6094 C1004.7017,103.6094 986.7017,103.6094 986.7017,93.6094 L986.7017,67.6094" fill="#E2E2F0" style="stroke:#181818;stroke-width:1.5;"/><path d="M986.7017,67.6094 C986.7017,77.6094 1004.7017,77.6094 1004.7017,77.6094 C1004.7017,77.6094 1022.7017,77.6094 1022.7017,67.6094" fill="none" style="stroke:#181818;stroke-width:1.5;"/></g><g class="participant participant-tail" data-participant="BD"><text fill="#000000" font-family="sans-serif" font-size="14" lengthAdjust="spacing" textLength="19.4482" x="991.9775" y="1172.002">BD</text><path d="M986.7017,1185.0781 C986.7017,1175.0781 1004.7017,1175.0781 1004.7017,1175.0781 C1004.7017,1175.0781 1022.7017,1175.0781 1022.7017,1185.0781 L1022.7017,1211.0781 C1022.7017,1221.0781 1004.7017,1221.0781 1004.7017,1221.0781 C1004.7017,1221.0781 986.7017,1221.0781 986.7017,1211.0781 L986.7017,1185.0781" fill="#E2E2F0" style="stroke:#181818;stroke-width:1.5;"/><path d="M986.7017,1185.0781 C986.7017,1195.0781 1004.7017,1195.0781 1004.7017,1195.0781 C1004.7017,1195.0781 1022.7017,1195.0781 1022.7017,1185.0781" fill="none" style="stroke:#181818;stroke-width:1.5;"/></g><rect fill="#EEEEEE" height="3" style="stroke:#EEEEEE;stroke-width:1;" width="1027.7017" x="0" y="152.3945"/><line style="stroke:#000000;stroke-width:1;" x1="0" x2="1027.7017" y1="152.3945" y2="152.3945"/><line style="stroke:#000000;stroke-width:1;" x1="0" x2="1027.7017" y1="155.3945" y2="155.3945"/><rect fill="#EEEEEE" height="24.3516" style="stroke:#000000;stroke-width:2;" width="163.4746" x="432.1135" y="141.2188"/><text fill="#000000" font-family="sans-serif" font-size="13" font-weight="bold" lengthAdjust="spacing" textLength="145.8628" x="438.1135" y="158.7139">Consultation (publique)</text><g class="message" data-participant-1="V" data-participant-2="F"><polygon fill="#181818" points="273.4941,193.9219,283.4941,197.9219,273.4941,201.9219,277.4941,197.9219" style="stroke:#181818;stroke-width:1;"/><line style="stroke:#181818;stroke-width:1;" x1="31.3413" x2="279.4941" y1="197.9219" y2="197.9219"/><text fill="#000000" font-family="sans-serif" font-size="13" lengthAdjust="spacing" textLength="125.7471" x="38.3413" y="193.0654">Navigation page profil</text></g><g class="message" data-participant-1="F" data-participant-2="API"><polygon fill="#181818" points="553.2666,227.2734,563.2666,231.2734,553.2666,235.2734,557.2666,231.2734" style="stroke:#181818;stroke-width:1;"/><line style="stroke:#181818;stroke-width:1;" x1="285.4941" x2="559.2666" y1="231.2734" y2="231.2734"/><text fill="#000000" font-family="sans-serif" font-size="13" lengthAdjust="spacing" textLength="127.1563" x="292.4941" y="226.417">GET /api/certifications</text></g><path d="M570,210.9219 L570,236.9219 L654,236.9219 L654,220.9219 L644,210.9219 L570,210.9219" fill="#FEFFDD" style="stroke:#181818;stroke-width:0.5;"/><path d="M644,210.9219 L644,220.9219 L654,220.9219 L644,210.9219" fill="#FEFFDD" style="stroke:#181818;stroke-width:0.5;"/><text fill="#000000" font-family="sans-serif" font-size="13" lengthAdjust="spacing" textLength="63.5781" x="576" y="229.417">Acc&#232;s libre</text><g class="message" data-participant-1="API" data-participant-2="BD"><polygon fill="#181818" points="992.7017,260.625,1002.7017,264.625,992.7017,268.625,996.7017,264.625" style="stroke:#181818;stroke-width:1;"/><line style="stroke:#181818;stroke-width:1;" x1="565.2666" x2="998.7017" y1="264.625" y2="264.625"/><text fill="#000000" font-family="sans-serif" font-size="13" lengthAdjust="spacing" textLength="415.4351" x="572.2666" y="259.7686">SELECT * FROM certifications ORDER BY ordre, date_obtention DESC</text></g><g class="message" data-participant-1="BD" data-participant-2="API"><polygon fill="#181818" points="576.2666,290.9766,566.2666,294.9766,576.2666,298.9766,572.2666,294.9766" style="stroke:#181818;stroke-width:1;"/><line style="stroke:#181818;stroke-width:1;stroke-dasharray:2.0,2.0;" x1="570.2666" x2="1003.7017" y1="294.9766" y2="294.9766"/><text fill="#000000" font-family="sans-serif" font-size="13" lengthAdjust="spacing" textLength="127.8926" x="582.2666" y="290.1201">Liste des certifications</text></g><g class="message" data-participant-1="API" data-participant-2="F"><polygon fill="#181818" points="296.4941,321.3281,286.4941,325.3281,296.4941,329.3281,292.4941,325.3281" style="stroke:#181818;stroke-width:1;"/><line style="stroke:#181818;stroke-width:1;stroke-dasharray:2.0,2.0;" x1="290.4941" x2="564.2666" y1="325.3281" y2="325.3281"/><text fill="#000000" font-family="sans-serif" font-size="13" lengthAdjust="spacing" textLength="255.0869" x="302.4941" y="320.4717">JSON [{titre, organisme, date_obtention, ...}]</text></g><g class="message" data-participant-1="F" data-participant-2="V"><polygon fill="#181818" points="42.3413,351.6797,32.3413,355.6797,42.3413,359.6797,38.3413,355.6797" style="stroke:#181818;stroke-width:1;"/><line style="stroke:#181818;stroke-width:1;stroke-dasharray:2.0,2.0;" x1="36.3413" x2="284.4941" y1="355.6797" y2="355.6797"/><text fill="#000000" font-family="sans-serif" font-size="13" lengthAdjust="spacing" textLength="130.0635" x="48.3413" y="350.8232">Affichage certifications</text></g><rect fill="#EEEEEE" height="3" style="stroke:#EEEEEE;stroke-width:1;" width="1027.7017" x="0" y="384.8555"/><line style="stroke:#000000;stroke-width:1;" x1="0" x2="1027.7017" y1="384.8555" y2="384.8555"/><line style="stroke:#000000;stroke-width:1;" x1="0" x2="1027.7017" y1="387.8555" y2="387.8555"/><rect fill="#EEEEEE" height="24.3516" style="stroke:#000000;stroke-width:2;" width="144" x="441.8508" y="373.6797"/><text fill="#000000" font-family="sans-serif" font-size="13" font-weight="bold" lengthAdjust="spacing" textLength="126.3882" x="447.8508" y="391.1748">Gestion (authentifi&#233;)</text><g class="message" data-participant-1="Auth" data-participant-2="F"><polygon fill="#181818" points="273.4941,426.3828,283.4941,430.3828,273.4941,434.3828,277.4941,430.3828" style="stroke:#181818;stroke-width:1;"/><line style="stroke:#181818;stroke-width:1;" x1="106.8652" x2="279.4941" y1="430.3828" y2="430.3828"/><text fill="#000000" font-family="sans-serif" font-size="13" lengthAdjust="spacing" textLength="139.458" x="113.8652" y="425.5264">Dashboard certifications</text></g><g class="message" data-participant-1="F" data-participant-2="API"><polygon fill="#181818" points="553.2666,459.7344,563.2666,463.7344,553.2666,467.7344,557.2666,463.7344" style="stroke:#181818;stroke-width:1;"/><line style="stroke:#181818;stroke-width:1;" x1="285.4941" x2="559.2666" y1="463.7344" y2="463.7344"/><text fill="#000000" font-family="sans-serif" font-size="13" lengthAdjust="spacing" textLength="127.1563" x="292.4941" y="458.8779">GET /api/certifications</text></g><path d="M570,443.3828 L570,469.3828 L729,469.3828 L729,453.3828 L719,443.3828 L570,443.3828" fill="#FEFFDD" style="stroke:#181818;stroke-width:0.5;"/><path d="M719,443.3828 L719,453.3828 L729,453.3828 L719,443.3828" fill="#FEFFDD" style="stroke:#181818;stroke-width:0.5;"/><text fill="#000000" font-family="sans-serif" font-size="13" lengthAdjust="spacing" textLength="138.7471" x="576" y="461.8779">Proprietaire uniquement</text><g class="message" data-participant-1="API" data-participant-2="BD"><polygon fill="#181818" points="992.7017,493.0859,1002.7017,497.0859,992.7017,501.0859,996.7017,497.0859" style="stroke:#181818;stroke-width:1;"/><line style="stroke:#181818;stroke-width:1;" x1="565.2666" x2="998.7017" y1="497.0859" y2="497.0859"/><text fill="#000000" font-family="sans-serif" font-size="13" lengthAdjust="spacing" textLength="65.019" x="572.2666" y="492.2295">SELECT ...</text></g><g class="message" data-participant-1="BD" data-participant-2="API"><polygon fill="#181818" points="576.2666,523.4375,566.2666,527.4375,576.2666,531.4375,572.2666,527.4375" style="stroke:#181818;stroke-width:1;"/><line style="stroke:#181818;stroke-width:1;stroke-dasharray:2.0,2.0;" x1="570.2666" x2="1003.7017" y1="527.4375" y2="527.4375"/><text fill="#000000" font-family="sans-serif" font-size="13" lengthAdjust="spacing" textLength="83.8208" x="582.2666" y="522.5811">Liste compl&#232;te</text></g><g class="message" data-participant-1="API" data-participant-2="F"><polygon fill="#181818" points="296.4941,553.7891,286.4941,557.7891,296.4941,561.7891,292.4941,557.7891" style="stroke:#181818;stroke-width:1;"/><line style="stroke:#181818;stroke-width:1;stroke-dasharray:2.0,2.0;" x1="290.4941" x2="564.2666" y1="557.7891" y2="557.7891"/><text fill="#000000" font-family="sans-serif" font-size="13" lengthAdjust="spacing" textLength="34.6709" x="302.4941" y="552.9326">JSON</text></g><g class="message" data-participant-1="F" data-participant-2="Auth"><polygon fill="#181818" points="117.8652,584.1406,107.8652,588.1406,117.8652,592.1406,113.8652,588.1406" style="stroke:#181818;stroke-width:1;"/><line style="stroke:#181818;stroke-width:1;stroke-dasharray:2.0,2.0;" x1="111.8652" x2="284.4941" y1="588.1406" y2="588.1406"/><text fill="#000000" font-family="sans-serif" font-size="13" lengthAdjust="spacing" textLength="125.728" x="123.8652" y="583.2842">Formulaire de gestion</text></g><g class="message" data-participant-1="Auth" data-participant-2="F"><polygon fill="#181818" points="273.4941,614.4922,283.4941,618.4922,273.4941,622.4922,277.4941,618.4922" style="stroke:#181818;stroke-width:1;"/><line style="stroke:#181818;stroke-width:1;" x1="106.8652" x2="279.4941" y1="618.4922" y2="618.4922"/><text fill="#000000" font-family="sans-serif" font-size="13" lengthAdjust="spacing" textLength="135.8525" x="113.8652" y="613.6357">Ajouter une certification</text></g><g class="message" data-participant-1="F" data-participant-2="API"><polygon fill="#181818" points="553.2666,647.8438,563.2666,651.8438,553.2666,655.8438,557.2666,651.8438" style="stroke:#181818;stroke-width:1;"/><line style="stroke:#181818;stroke-width:1;" x1="285.4941" x2="559.2666" y1="651.8438" y2="651.8438"/><text fill="#000000" font-family="sans-serif" font-size="13" lengthAdjust="spacing" textLength="255.7725" x="292.4941" y="646.9873">POST /api/certifications {titre, organisme, ...}</text></g><path d="M570,631.4922 L570,657.4922 L743,657.4922 L743,641.4922 L733,631.4922 L570,631.4922" fill="#FEFFDD" style="stroke:#181818;stroke-width:0.5;"/><path d="M733,631.4922 L733,641.4922 L743,641.4922 L733,631.4922" fill="#FEFFDD" style="stroke:#181818;stroke-width:0.5;"/><text fill="#000000" font-family="sans-serif" font-size="13" lengthAdjust="spacing" textLength="152.4644" x="576" y="649.9873">Auth requis (Bearer token)</text><g class="message" data-participant-1="API" data-participant-2="BD"><polygon fill="#181818" points="992.7017,681.1953,1002.7017,685.1953,992.7017,689.1953,996.7017,685.1953" style="stroke:#181818;stroke-width:1;"/><line style="stroke:#181818;stroke-width:1;" x1="565.2666" x2="998.7017" y1="685.1953" y2="685.1953"/><text fill="#000000" font-family="sans-serif" font-size="13" lengthAdjust="spacing" textLength="158.1963" x="572.2666" y="680.3389">INSERT INTO certifications</text></g><g class="message" data-participant-1="BD" data-participant-2="API"><polygon fill="#181818" points="576.2666,711.5469,566.2666,715.5469,576.2666,719.5469,572.2666,715.5469" style="stroke:#181818;stroke-width:1;"/><line style="stroke:#181818;stroke-width:1;stroke-dasharray:2.0,2.0;" x1="570.2666" x2="1003.7017" y1="715.5469" y2="715.5469"/><text fill="#000000" font-family="sans-serif" font-size="13" lengthAdjust="spacing" textLength="119.9453" x="582.2666" y="710.6904">Nouvelle certification</text></g><g class="message" data-participant-1="API" data-participant-2="F"><polygon fill="#181818" points="296.4941,741.8984,286.4941,745.8984,296.4941,749.8984,292.4941,745.8984" style="stroke:#181818;stroke-width:1;"/><line style="stroke:#181818;stroke-width:1;stroke-dasharray:2.0,2.0;" x1="290.4941" x2="564.2666" y1="745.8984" y2="745.8984"/><text fill="#000000" font-family="sans-serif" font-size="13" lengthAdjust="spacing" textLength="71.5508" x="302.4941" y="741.042">201 Created</text></g><g class="message" data-participant-1="F" data-participant-2="Auth"><polygon fill="#181818" points="117.8652,772.25,107.8652,776.25,117.8652,780.25,113.8652,776.25" style="stroke:#181818;stroke-width:1;"/><line style="stroke:#181818;stroke-width:1;stroke-dasharray:2.0,2.0;" x1="111.8652" x2="284.4941" y1="776.25" y2="776.25"/><text fill="#000000" font-family="sans-serif" font-size="13" lengthAdjust="spacing" textLength="73.6963" x="123.8652" y="771.3936">Confirmation</text></g><g class="message" data-participant-1="Auth" data-participant-2="F"><polygon fill="#181818" points="273.4941,802.6016,283.4941,806.6016,273.4941,810.6016,277.4941,806.6016" style="stroke:#181818;stroke-width:1;"/><line style="stroke:#181818;stroke-width:1;" x1="106.8652" x2="279.4941" y1="806.6016" y2="806.6016"/><text fill="#000000" font-family="sans-serif" font-size="13" lengthAdjust="spacing" textLength="140.8989" x="113.8652" y="801.7451">Modifier une certification</text></g><g class="message" data-participant-1="F" data-participant-2="API"><polygon fill="#181818" points="553.2666,832.9531,563.2666,836.9531,553.2666,840.9531,557.2666,836.9531" style="stroke:#181818;stroke-width:1;"/><line style="stroke:#181818;stroke-width:1;" x1="285.4941" x2="559.2666" y1="836.9531" y2="836.9531"/><text fill="#000000" font-family="sans-serif" font-size="13" lengthAdjust="spacing" textLength="200.8716" x="292.4941" y="832.0967">PUT /api/certifications/{id} {titre, ...}</text></g><g class="message" data-participant-1="API" data-participant-2="BD"><polygon fill="#181818" points="992.7017,863.3047,1002.7017,867.3047,992.7017,871.3047,996.7017,867.3047" style="stroke:#181818;stroke-width:1;"/><line style="stroke:#181818;stroke-width:1;" x1="565.2666" x2="998.7017" y1="867.3047" y2="867.3047"/><text fill="#000000" font-family="sans-serif" font-size="13" lengthAdjust="spacing" textLength="128.5908" x="572.2666" y="862.4482">UPDATE certifications</text></g><g class="message" data-participant-1="BD" data-participant-2="API"><polygon fill="#181818" points="576.2666,893.6563,566.2666,897.6563,576.2666,901.6563,572.2666,897.6563" style="stroke:#181818;stroke-width:1;"/><line style="stroke:#181818;stroke-width:1;stroke-dasharray:2.0,2.0;" x1="570.2666" x2="1003.7017" y1="897.6563" y2="897.6563"/><text fill="#000000" font-family="sans-serif" font-size="13" lengthAdjust="spacing" textLength="121.3862" x="582.2666" y="892.7998">Certification modifi&#233;e</text></g><g class="message" data-participant-1="API" data-participant-2="F"><polygon fill="#181818" points="296.4941,924.0078,286.4941,928.0078,296.4941,932.0078,292.4941,928.0078" style="stroke:#181818;stroke-width:1;"/><line style="stroke:#181818;stroke-width:1;stroke-dasharray:2.0,2.0;" x1="290.4941" x2="564.2666" y1="928.0078" y2="928.0078"/><text fill="#000000" font-family="sans-serif" font-size="13" lengthAdjust="spacing" textLength="44.0845" x="302.4941" y="923.1514">200 OK</text></g><g class="message" data-participant-1="F" data-participant-2="Auth"><polygon fill="#181818" points="117.8652,954.3594,107.8652,958.3594,117.8652,962.3594,113.8652,958.3594" style="stroke:#181818;stroke-width:1;"/><line style="stroke:#181818;stroke-width:1;stroke-dasharray:2.0,2.0;" x1="111.8652" x2="284.4941" y1="958.3594" y2="958.3594"/><text fill="#000000" font-family="sans-serif" font-size="13" lengthAdjust="spacing" textLength="73.6963" x="123.8652" y="953.5029">Confirmation</text></g><g class="message" data-participant-1="Auth" data-participant-2="F"><polygon fill="#181818" points="273.4941,984.7109,283.4941,988.7109,273.4941,992.7109,277.4941,988.7109" style="stroke:#181818;stroke-width:1;"/><line style="stroke:#181818;stroke-width:1;" x1="106.8652" x2="279.4941" y1="988.7109" y2="988.7109"/><text fill="#000000" font-family="sans-serif" font-size="13" lengthAdjust="spacing" textLength="154.6289" x="113.8652" y="983.8545">Supprimer une certification</text></g><g class="message" data-participant-1="F" data-participant-2="API"><polygon fill="#181818" points="553.2666,1015.0625,563.2666,1019.0625,553.2666,1023.0625,557.2666,1019.0625" style="stroke:#181818;stroke-width:1;"/><line style="stroke:#181818;stroke-width:1;" x1="285.4941" x2="559.2666" y1="1019.0625" y2="1019.0625"/><text fill="#000000" font-family="sans-serif" font-size="13" lengthAdjust="spacing" textLength="173.418" x="292.4941" y="1014.2061">DELETE /api/certifications/{id}</text></g><g class="message" data-participant-1="API" data-participant-2="BD"><polygon fill="#181818" points="992.7017,1045.4141,1002.7017,1049.4141,992.7017,1053.4141,996.7017,1049.4141" style="stroke:#181818;stroke-width:1;"/><line style="stroke:#181818;stroke-width:1;" x1="565.2666" x2="998.7017" y1="1049.4141" y2="1049.4141"/><text fill="#000000" font-family="sans-serif" font-size="13" lengthAdjust="spacing" textLength="168.3145" x="572.2666" y="1044.5576">DELETE FROM certifications</text></g><g class="message" data-participant-1="BD" data-participant-2="API"><polygon fill="#181818" points="576.2666,1075.7656,566.2666,1079.7656,576.2666,1083.7656,572.2666,1079.7656" style="stroke:#181818;stroke-width:1;"/><line style="stroke:#181818;stroke-width:1;stroke-dasharray:2.0,2.0;" x1="570.2666" x2="1003.7017" y1="1079.7656" y2="1079.7656"/><text fill="#000000" font-family="sans-serif" font-size="13" lengthAdjust="spacing" textLength="18.7827" x="582.2666" y="1074.9092">OK</text></g><g class="message" data-participant-1="API" data-participant-2="F"><polygon fill="#181818" points="296.4941,1106.1172,286.4941,1110.1172,296.4941,1114.1172,292.4941,1110.1172" style="stroke:#181818;stroke-width:1;"/><line style="stroke:#181818;stroke-width:1;stroke-dasharray:2.0,2.0;" x1="290.4941" x2="564.2666" y1="1110.1172" y2="1110.1172"/><text fill="#000000" font-family="sans-serif" font-size="13" lengthAdjust="spacing" textLength="91.0635" x="302.4941" y="1105.2607">204 No Content</text></g><g class="message" data-participant-1="F" data-participant-2="Auth"><polygon fill="#181818" points="117.8652,1136.4688,107.8652,1140.4688,117.8652,1144.4688,113.8652,1140.4688" style="stroke:#181818;stroke-width:1;"/><line style="stroke:#181818;stroke-width:1;stroke-dasharray:2.0,2.0;" x1="111.8652" x2="284.4941" y1="1140.4688" y2="1140.4688"/><text fill="#000000" font-family="sans-serif" font-size="13" lengthAdjust="spacing" textLength="73.6963" x="123.8652" y="1135.6123">Confirmation</text></g><!--SRC=[bPFTRfj044RlzodcqgaIEwrwPScHR0EHsyHOnh5KLLMrmDZU5bYoFv6gAE-JF8TVhBFOgO2Gfhq2BSlCTyxi6c4oX4lKHiW2KjIGe39Y8nBkLZHZF35ImLfeOT0gu1hMnxM5agKIQBXGwDR7rknOB6sHSlKB0YKBuvO3bj2RaXcC5xDgtsB6Kcvup3N2n7DB4u-nqGYcrD5cfceDlTB6cRYrU0AZ4Ll3sGK4GvZpEx4zR2Zv5g5KSYCo5hZFL7W8b_uA1hmKWnP88Gs24jkT6S8uIVQF6Z8HAsGk5VqyyOOG-LV-T0Nl85Y6roqJ42uzVmcJBo1Lgl0K206_ozXWKQNn_6ZAYERiESYLqDInGsdLy43pAGhdyFNU2ECgIhNbXT3vY-AdqE_t7xuvIlflJG0RAhTp_ErnaSNdQVOu3SGLs8ZzKoNHJUZeqUDw5qkkqdQ5_pFPE0EsSEFAgMM7L2Beq9F8lCpsZmRRLewiBl4G0gbocrKzKeJjWO_LSSO_f3MeA49BIOrd4KQTGD3Xt_bk7XdNI-6j5Hfw4-IAcXdv4ukJEkji7ldB5JrMOTjhdNqkxHrcMJjgJS67y_SmLKYd86sOe1ko4IhdBmHSovGAlMNWfbF0u5wa3tyiLEWrffk5DrxvVyEPrZz1NYNPFs6Jvnp2p_-64jcIpbJ-1ej7nufYlOPJ9pXkxRZK3GpArqZyaURaKhfB-6hotm00]--></g></svg>