<svg xmlns="http://www.w3.org/2000/svg" xmlns:xlink="http://www.w3.org/1999/xlink" contentStyleType="text/css" data-diagram-type="CLASS" height="310px" preserveAspectRatio="none" style="width:497px;height:310px;background:#FFFFFF;" version="1.1" viewBox="0 0 497 310" width="497px" zoomAndPan="magnify"><defs/><g><!--class Niveau--><g class="entity" data-entity="Niveau" data-source-line="2" data-uid="ent0002" id="entity_Niveau"><rect fill="#F1F1F1" height="118.4375" rx="2.5" ry="2.5" style="stroke:#181818;stroke-width:0.5;" width="93.7031" x="25" y="7"/><ellipse cx="48.1558" cy="23" fill="#EB937F" rx="11" ry="11" style="stroke:#181818;stroke-width:1;"/><path d="M47.0152,23.7969 L47.0152,26.2969 L51.3433,26.2969 L51.3433,25.375 Q51.3433,24.7656 51.5777,24.5 Q51.8277,24.2344 52.2027,24.2344 Q52.5777,24.2344 52.8121,24.5 Q53.0464,24.7656 53.0464,25.375 L53.0464,28 L45.0464,28 Q44.4214,28 44.1558,27.7656 Q43.9058,27.5313 43.9058,27.1406 Q43.9058,26.7656 44.1714,26.5313 Q44.4371,26.2969 45.0464,26.2969 L45.3121,26.2969 L45.3121,19.6406 L45.0464,19.6406 Q44.4214,19.6406 44.1558,19.4063 Q43.9058,19.1719 43.9058,18.7813 Q43.9058,18.4063 44.1558,18.1719 Q44.4214,17.9375 45.0464,17.9375 L52.6714,17.9375 L52.6714,20.5313 Q52.6714,21.1406 52.4371,21.4063 Q52.2183,21.6563 51.8277,21.6563 Q51.4527,21.6563 51.2183,21.4063 Q50.9839,21.1406 50.9839,20.5313 L50.9839,19.6406 L47.0152,19.6406 L47.0152,22.0938 L48.4996,22.0938 Q48.4996,21.4375 48.6246,21.25 Q48.8902,20.8438 49.3589,20.8438 Q49.7339,20.8438 49.9683,21.1094 Q50.2027,21.3594 50.2027,21.9688 L50.2027,23.9375 Q50.2027,24.4844 50.0777,24.6719 Q49.8121,25.0625 49.3589,25.0625 Q48.8902,25.0625 48.6246,24.6563 Q48.4996,24.4688 48.4996,23.7969 L47.0152,23.7969 Z " fill="#000000"/><text fill="#000000" font-family="sans-serif" font-size="14" lengthAdjust="spacing" textLength="43.5791" x="63.9682" y="28.7285">Niveau</text><line style="stroke:#181818;stroke-width:0.5;" x1="26" x2="117.7031" y1="39" y2="39"/><text fill="#000000" font-family="sans-serif" font-size="14" lengthAdjust="spacing" textLength="56.8203" x="31" y="57.5332">D&#233;butant</text><text fill="#000000" font-family="sans-serif" font-size="14" lengthAdjust="spacing" textLength="81.7031" x="31" y="75.1426">Interm&#233;diaire</text><text fill="#000000" font-family="sans-serif" font-size="14" lengthAdjust="spacing" textLength="46.6963" x="31" y="92.752">Avanc&#233;</text><text fill="#000000" font-family="sans-serif" font-size="14" lengthAdjust="spacing" textLength="40.4619" x="31" y="110.3613">Expert</text><line style="stroke:#181818;stroke-width:0.5;" x1="26" x2="117.7031" y1="117.4375" y2="117.4375"/></g><!--class TypeMedia--><g class="entity" data-entity="TypeMedia" data-source-line="9" data-uid="ent0003" id="entity_TypeMedia"><rect fill="#F1F1F1" height="118.4375" rx="2.5" ry="2.5" style="stroke:#181818;stroke-width:0.5;" width="101.2549" x="154.5" y="7"/><ellipse cx="169.5" cy="23" fill="#EB937F" rx="11" ry="11" style="stroke:#181818;stroke-width:1;"/><path d="M168.3594,23.7969 L168.3594,26.2969 L172.6875,26.2969 L172.6875,25.375 Q172.6875,24.7656 172.9219,24.5 Q173.1719,24.2344 173.5469,24.2344 Q173.9219,24.2344 174.1563,24.5 Q174.3906,24.7656 174.3906,25.375 L174.3906,28 L166.3906,28 Q165.7656,28 165.5,27.7656 Q165.25,27.5313 165.25,27.1406 Q165.25,26.7656 165.5156,26.5313 Q165.7813,26.2969 166.3906,26.2969 L166.6563,26.2969 L166.6563,19.6406 L166.3906,19.6406 Q165.7656,19.6406 165.5,19.4063 Q165.25,19.1719 165.25,18.7813 Q165.25,18.4063 165.5,18.1719 Q165.7656,17.9375 166.3906,17.9375 L174.0156,17.9375 L174.0156,20.5313 Q174.0156,21.1406 173.7813,21.4063 Q173.5625,21.6563 173.1719,21.6563 Q172.7969,21.6563 172.5625,21.4063 Q172.3281,21.1406 172.3281,20.5313 L172.3281,19.6406 L168.3594,19.6406 L168.3594,22.0938 L169.8438,22.0938 Q169.8438,21.4375 169.9688,21.25 Q170.2344,20.8438 170.7031,20.8438 Q171.0781,20.8438 171.3125,21.1094 Q171.5469,21.3594 171.5469,21.9688 L171.5469,23.9375 Q171.5469,24.4844 171.4219,24.6719 Q171.1563,25.0625 170.7031,25.0625 Q170.2344,25.0625 169.9688,24.6563 Q169.8438,24.4688 169.8438,23.7969 L168.3594,23.7969 Z " fill="#000000"/><text fill="#000000" font-family="sans-serif" font-size="14" lengthAdjust="spacing" textLength="69.2549" x="183.5" y="28.7285">TypeMedia</text><line style="stroke:#181818;stroke-width:0.5;" x1="155.5" x2="254.7549" y1="39" y2="39"/><text fill="#000000" font-family="sans-serif" font-size="14" lengthAdjust="spacing" textLength="38.9102" x="160.5" y="57.5332">Image</text><text fill="#000000" font-family="sans-serif" font-size="14" lengthAdjust="spacing" textLength="35.8066" x="160.5" y="75.1426">Vid&#233;o</text><text fill="#000000" font-family="sans-serif" font-size="14" lengthAdjust="spacing" textLength="63.8066" x="160.5" y="92.752">Document</text><text fill="#000000" font-family="sans-serif" font-size="14" lengthAdjust="spacing" textLength="26.4688" x="160.5" y="110.3613">Lien</text><line style="stroke:#181818;stroke-width:0.5;" x1="155.5" x2="254.7549" y1="117.4375" y2="117.4375"/></g><!--class TypeRessource--><g class="entity" data-entity="TypeRessource" data-source-line="16" data-uid="ent0004" id="entity_TypeRessource"><rect fill="#F1F1F1" height="118.4375" rx="2.5" ry="2.5" style="stroke:#181818;stroke-width:0.5;" width="130.041" x="7" y="185"/><ellipse cx="22" cy="201" fill="#EB937F" rx="11" ry="11" style="stroke:#181818;stroke-width:1;"/><path d="M20.8594,201.7969 L20.8594,204.2969 L25.1875,204.2969 L25.1875,203.375 Q25.1875,202.7656 25.4219,202.5 Q25.6719,202.2344 26.0469,202.2344 Q26.4219,202.2344 26.6563,202.5 Q26.8906,202.7656 26.8906,203.375 L26.8906,206 L18.8906,206 Q18.2656,206 18,205.7656 Q17.75,205.5313 17.75,205.1406 Q17.75,204.7656 18.0156,204.5313 Q18.2813,204.2969 18.8906,204.2969 L19.1563,204.2969 L19.1563,197.6406 L18.8906,197.6406 Q18.2656,197.6406 18,197.4063 Q17.75,197.1719 17.75,196.7813 Q17.75,196.4063 18,196.1719 Q18.2656,195.9375 18.8906,195.9375 L26.5156,195.9375 L26.5156,198.5313 Q26.5156,199.1406 26.2813,199.4063 Q26.0625,199.6563 25.6719,199.6563 Q25.2969,199.6563 25.0625,199.4063 Q24.8281,199.1406 24.8281,198.5313 L24.8281,197.6406 L20.8594,197.6406 L20.8594,200.0938 L22.3438,200.0938 Q22.3438,199.4375 22.4688,199.25 Q22.7344,198.8438 23.2031,198.8438 Q23.5781,198.8438 23.8125,199.1094 Q24.0469,199.3594 24.0469,199.9688 L24.0469,201.9375 Q24.0469,202.4844 23.9219,202.6719 Q23.6563,203.0625 23.2031,203.0625 Q22.7344,203.0625 22.4688,202.6563 Q22.3438,202.4688 22.3438,201.7969 L20.8594,201.7969 Z " fill="#000000"/><text fill="#000000" font-family="sans-serif" font-size="14" lengthAdjust="spacing" textLength="98.041" x="36" y="206.7285">TypeRessource</text><line style="stroke:#181818;stroke-width:0.5;" x1="8" x2="136.041" y1="217" y2="217"/><text fill="#000000" font-family="sans-serif" font-size="14" lengthAdjust="spacing" textLength="63.8066" x="13" y="235.5332">Document</text><text fill="#000000" font-family="sans-serif" font-size="14" lengthAdjust="spacing" textLength="38.9102" x="13" y="253.1426">Image</text><text fill="#000000" font-family="sans-serif" font-size="14" lengthAdjust="spacing" textLength="46.6826" x="13" y="270.752">Archive</text><text fill="#000000" font-family="sans-serif" font-size="14" lengthAdjust="spacing" textLength="26.4688" x="13" y="288.3613">Lien</text><line style="stroke:#181818;stroke-width:0.5;" x1="8" x2="136.041" y1="295.4375" y2="295.4375"/></g><!--class Timestamps--><g class="entity" data-entity="Timestamps" data-source-line="24" data-uid="ent0005" id="entity_Timestamps"><rect fill="#F1F1F1" height="83.2188" rx="2.5" ry="2.5" style="stroke:#181818;stroke-width:0.5;" width="174.627" x="303.5" y="202.5"/><ellipse cx="348.4463" cy="218.5" fill="#A9DCDF" rx="11" ry="11" style="stroke:#181818;stroke-width:1;"/><path d="M350.6338,220.2656 L346.4932,220.2656 L346.0713,221.2969 L346.4932,221.2969 Q347.1025,221.2969 347.3682,221.5313 Q347.6338,221.7656 347.6338,222.1563 Q347.6338,222.5313 347.3682,222.7656 Q347.1025,223 346.4932,223 L344.1963,223 Q343.5869,223 343.3369,222.7656 Q343.0713,222.5313 343.0713,222.1406 Q343.0713,221.7656 343.3525,221.5313 Q343.6182,221.2813 344.2432,221.2969 L346.915,214.6406 L345.8057,214.6406 Q345.1963,214.6406 344.9307,214.4063 Q344.665,214.1719 344.665,213.7813 Q344.665,213.4063 344.9307,213.1719 Q345.1963,212.9375 345.8057,212.9375 L349.4775,212.9375 L352.8682,221.2969 Q353.4619,221.2969 353.6494,221.4375 Q354.04,221.7031 354.04,222.1563 Q354.04,222.5313 353.7744,222.7656 Q353.5244,223 352.915,223 L350.6182,223 Q350.0088,223 349.7432,222.7656 Q349.4775,222.5313 349.4775,222.1406 Q349.4775,221.7656 349.7432,221.5313 Q350.0088,221.2969 350.6182,221.2969 L351.04,221.2969 L350.6338,220.2656 Z M349.915,218.5625 L348.5557,215.1875 L347.1807,218.5625 L349.915,218.5625 Z " fill="#000000"/><text fill="#000000" font-family="sans-serif" font-size="14" font-style="italic" lengthAdjust="spacing" textLength="76.2344" x="368.9463" y="224.2285">Timestamps</text><line style="stroke:#181818;stroke-width:0.5;" x1="304.5" x2="477.127" y1="234.5" y2="234.5"/><ellipse cx="314.5" cy="248.8047" fill="none" rx="3" ry="3" style="stroke:#038048;stroke-width:1;"/><text fill="#000000" font-family="sans-serif" font-size="14" lengthAdjust="spacing" textLength="148.627" x="323.5" y="253.0332">dateCreation: DateTime</text><ellipse cx="314.5" cy="266.4141" fill="none" rx="3" ry="3" style="stroke:#038048;stroke-width:1;"/><text fill="#000000" font-family="sans-serif" font-size="14" lengthAdjust="spacing" textLength="129.9443" x="323.5" y="270.6426">dateModif: DateTime</text><line style="stroke:#181818;stroke-width:0.5;" x1="304.5" x2="477.127" y1="277.7188" y2="277.7188"/></g><!--class SoftDeletes--><g class="entity" data-entity="SoftDeletes" data-source-line="29" data-uid="ent0006" id="entity_SoftDeletes"><rect fill="#F1F1F1" height="65.6094" rx="2.5" ry="2.5" style="stroke:#181818;stroke-width:0.5;" width="199.5371" x="291" y="33"/><ellipse cx="350.3325" cy="49" fill="#A9DCDF" rx="11" ry="11" style="stroke:#181818;stroke-width:1;"/><path d="M352.52,50.7656 L348.3794,50.7656 L347.9575,51.7969 L348.3794,51.7969 Q348.9888,51.7969 349.2544,52.0313 Q349.52,52.2656 349.52,52.6563 Q349.52,53.0313 349.2544,53.2656 Q348.9888,53.5 348.3794,53.5 L346.0825,53.5 Q345.4731,53.5 345.2231,53.2656 Q344.9575,53.0313 344.9575,52.6406 Q344.9575,52.2656 345.2388,52.0313 Q345.5044,51.7813 346.1294,51.7969 L348.8013,45.1406 L347.6919,45.1406 Q347.0825,45.1406 346.8169,44.9063 Q346.5513,44.6719 346.5513,44.2813 Q346.5513,43.9063 346.8169,43.6719 Q347.0825,43.4375 347.6919,43.4375 L351.3638,43.4375 L354.7544,51.7969 Q355.3481,51.7969 355.5356,51.9375 Q355.9263,52.2031 355.9263,52.6563 Q355.9263,53.0313 355.6606,53.2656 Q355.4106,53.5 354.8013,53.5 L352.5044,53.5 Q351.895,53.5 351.6294,53.2656 Q351.3638,53.0313 351.3638,52.6406 Q351.3638,52.2656 351.6294,52.0313 Q351.895,51.7969 352.5044,51.7969 L352.9263,51.7969 L352.52,50.7656 Z M351.8013,49.0625 L350.4419,45.6875 L349.0669,49.0625 L351.8013,49.0625 Z " fill="#000000"/><text fill="#000000" font-family="sans-serif" font-size="14" font-style="italic" lengthAdjust="spacing" textLength="72.3721" x="370.8325" y="54.7285">SoftDeletes</text><line style="stroke:#181818;stroke-width:0.5;" x1="292" x2="489.5371" y1="65" y2="65"/><ellipse cx="302" cy="79.3047" fill="none" rx="3" ry="3" style="stroke:#038048;stroke-width:1;"/><text fill="#000000" font-family="sans-serif" font-size="14" lengthAdjust="spacing" textLength="173.5371" x="311" y="83.5332">dateSuppression: DateTime</text><line style="stroke:#181818;stroke-width:0.5;" x1="292" x2="489.5371" y1="90.6094" y2="90.6094"/></g><!--link SoftDeletes to Timestamps--><g class="link" data-entity-1="SoftDeletes" data-entity-2="Timestamps" data-source-line="33" data-uid="lnk7" id="link_SoftDeletes_Timestamps"><path codeLine="33" d="M391,99.28 C391,128.26 391,152.93 391,184.25" fill="none" id="SoftDeletes-to-Timestamps" style="stroke:#181818;stroke-width:1;"/><polygon fill="none" points="391,202.25,397,184.25,385,184.25,391,202.25" style="stroke:#181818;stroke-width:1;"/></g><!--SRC=[NOyzRiCm38Ltdu9RXY8N2900Hkt1G9mXLhipCfCAY7uWKK6BjWVoENonoWwQojL4aUzzv5l1zl6WFhoqNTOeo4GD1tKZZF1P05JZS8gCXbFT62Qlnw5Ng3obHdb38ySXLVMx8y_5Tt47Y0z7BINTp6WqNYRvg-h7mKvGAwEccRbNP1Qs8uLWevTqN_-d_AMKNhwb-pBlAayaZcKZe2f5lSY5fy0U9OEyOWWWbAR0g5sOrpn1ZqpFdf2LDHkeqc-IF4QjxTKvwwUj_uYTFND5LsBAaLrqpgT4Isfov_Br-ckNNVG3]--></g></svg>