<svg xmlns="http://www.w3.org/2000/svg" xmlns:xlink="http://www.w3.org/1999/xlink" contentStyleType="text/css" data-diagram-type="ACTIVITY" height="835px" preserveAspectRatio="none" style="width:359px;height:835px;background:#FFFFFF;" version="1.1" viewBox="0 0 359 835" width="359px" zoomAndPan="magnify"><title>Activit&#233; : Cr&#233;er une publication (&#233;diteur enrichi)</title><defs/><g><text fill="#000000" font-family="sans-serif" font-size="14" font-weight="bold" lengthAdjust="spacing" textLength="316.6064" x="20" y="34.5332">Activit&#233; : Cr&#233;er une publication (&#233;diteur enrichi)</text><ellipse cx="176.4692" cy="58.6094" fill="#222222" rx="10" ry="10" style="stroke:#222222;stroke-width:1;"/><rect fill="none" height="240.1719" style="stroke:#000000;stroke-width:1.5;" width="202.7266" x="75.106" y="78.6094"/><path d="M157.4712,78.6094 L157.4712,89.2188 L147.4712,99.2188 L75.106,99.2188" fill="none" style="stroke:#000000;stroke-width:1.5;"/><text fill="#000000" font-family="sans-serif" font-size="14" lengthAdjust="spacing" textLength="72.3652" x="78.106" y="94.1426">Propri&#233;taire</text><rect fill="#F1F1F1" height="50.1875" rx="12.5" ry="12.5" style="stroke:#181818;stroke-width:0.5;" width="156.0664" x="98.436" y="116.2188"/><text fill="#000000" font-family="sans-serif" font-size="12" lengthAdjust="spacing" textLength="110.6953" x="108.436" y="138.6758">Remplir le formulaire</text><text fill="#000000" font-family="sans-serif" font-size="12" lengthAdjust="spacing" textLength="136.0664" x="108.436" y="153.7695">(titre, contenu, domaines)</text><rect fill="#F1F1F1" height="50.1875" rx="12.5" ry="12.5" style="stroke:#181818;stroke-width:0.5;" width="182.7266" x="85.106" y="186.4063"/><text fill="#000000" font-family="sans-serif" font-size="12" lengthAdjust="spacing" textLength="116.0684" x="95.106" y="208.8633">&#201;diter contenu enrichi</text><text fill="#000000" font-family="sans-serif" font-size="12" lengthAdjust="spacing" textLength="162.7266" x="95.106" y="223.957">(TipTap: code, maths, m&#233;dias)</text><rect fill="#F1F1F1" height="50.1875" rx="12.5" ry="12.5" style="stroke:#181818;stroke-width:0.5;" width="122.041" x="115.4487" y="256.5938"/><text fill="#000000" font-family="sans-serif" font-size="12" lengthAdjust="spacing" textLength="70.0254" x="125.4487" y="279.0508">Choisir statut</text><text fill="#000000" font-family="sans-serif" font-size="12" lengthAdjust="spacing" textLength="102.041" x="125.4487" y="294.1445">(Publier / Brouillon)</text><rect fill="none" height="273.9844" style="stroke:#000000;stroke-width:1.5;" width="301.418" x="29.0942" y="328.7813"/><path d="M93.5562,328.7813 L93.5562,339.3906 L83.5562,349.3906 L29.0942,349.3906" fill="none" style="stroke:#000000;stroke-width:1.5;"/><text fill="#000000" font-family="sans-serif" font-size="14" lengthAdjust="spacing" textLength="54.4619" x="32.0942" y="344.3145">Syst&#232;me</text><rect fill="#F1F1F1" height="50.1875" rx="12.5" ry="12.5" style="stroke:#181818;stroke-width:0.5;" width="138.7344" x="107.1021" y="366.3906"/><text fill="#000000" font-family="sans-serif" font-size="12" lengthAdjust="spacing" textLength="118.7344" x="117.1021" y="388.8477">Recevoir contenuJson</text><text fill="#000000" font-family="sans-serif" font-size="12" lengthAdjust="spacing" textLength="76.043" x="117.1021" y="403.9414">depuis TipTap</text><polygon fill="#F1F1F1" points="134.1235,436.5781,218.8149,436.5781,230.8149,448.5781,218.8149,460.5781,134.1235,460.5781,122.1235,448.5781,134.1235,436.5781" style="stroke:#181818;stroke-width:0.5;"/><text fill="#000000" font-family="sans-serif" font-size="11" lengthAdjust="spacing" textLength="84.6914" x="134.1235" y="453.0791">Statut = Publier ?</text><text fill="#000000" font-family="sans-serif" font-size="11" lengthAdjust="spacing" textLength="17.1177" x="105.0059" y="446.1611">Oui</text><text fill="#000000" font-family="sans-serif" font-size="11" lengthAdjust="spacing" textLength="42.8022" x="230.8149" y="446.1611">Brouillon</text><rect fill="#F1F1F1" height="35.0938" rx="12.5" ry="12.5" style="stroke:#181818;stroke-width:0.5;" width="122.041" x="41.0942" y="470.5781"/><text fill="#000000" font-family="sans-serif" font-size="12" lengthAdjust="spacing" textLength="102.041" x="51.0942" y="493.0352">Enregistrer (publi&#233;)</text><rect fill="#F1F1F1" height="35.0938" rx="12.5" ry="12.5" style="stroke:#181818;stroke-width:0.5;" width="107.3867" x="48.4214" y="525.6719"/><text fill="#000000" font-family="sans-serif" font-size="12" lengthAdjust="spacing" textLength="87.3867" x="58.4214" y="548.1289">Notifier abonn&#233;s</text><rect fill="#F1F1F1" height="35.0938" rx="12.5" ry="12.5" style="stroke:#181818;stroke-width:0.5;" width="135.377" x="183.1353" y="470.5781"/><text fill="#000000" font-family="sans-serif" font-size="12" lengthAdjust="spacing" textLength="115.377" x="193.1353" y="493.0352">Enregistrer (brouillon)</text><polygon fill="#F1F1F1" points="176.4692,566.7656,188.4692,578.7656,176.4692,590.7656,164.4692,578.7656,176.4692,566.7656" style="stroke:#181818;stroke-width:0.5;"/><rect fill="none" height="169.9844" style="stroke:#000000;stroke-width:1.5;" width="167.3594" x="92.7896" y="612.7656"/><path d="M158.8237,612.7656 L158.8237,623.375 L148.8237,633.375 L92.7896,633.375" fill="none" style="stroke:#000000;stroke-width:1.5;"/><text fill="#000000" font-family="sans-serif" font-size="14" lengthAdjust="spacing" textLength="56.0342" x="95.7896" y="628.2988">Frontend</text><rect fill="#F1F1F1" height="50.1875" rx="12.5" ry="12.5" style="stroke:#181818;stroke-width:0.5;" width="94.6895" x="129.1245" y="650.375"/><text fill="#000000" font-family="sans-serif" font-size="12" lengthAdjust="spacing" textLength="74.6895" x="139.1245" y="672.832">Rediriger vers</text><text fill="#000000" font-family="sans-serif" font-size="12" lengthAdjust="spacing" textLength="70.0488" x="139.1245" y="687.9258">la publication</text><rect fill="#F1F1F1" height="50.1875" rx="12.5" ry="12.5" style="stroke:#181818;stroke-width:0.5;" width="147.3594" x="102.7896" y="720.5625"/><text fill="#000000" font-family="sans-serif" font-size="12" lengthAdjust="spacing" textLength="96.041" x="112.7896" y="743.0195">Afficher le r&#233;sultat</text><text fill="#000000" font-family="sans-serif" font-size="12" lengthAdjust="spacing" textLength="127.3594" x="112.7896" y="758.1133">(KaTeX, Prism, m&#233;dias)</text><ellipse cx="176.4692" cy="813.75" fill="none" rx="11" ry="11" style="stroke:#222222;stroke-width:1;"/><ellipse cx="176.4692" cy="813.75" fill="#222222" rx="6" ry="6" style="stroke:#222222;stroke-width:1;"/><line style="stroke:#181818;stroke-width:1;" x1="176.4692" x2="176.4692" y1="166.4063" y2="186.4063"/><polygon fill="#181818" points="172.4692,176.4063,176.4692,186.4063,180.4692,176.4063,176.4692,180.4063" style="stroke:#181818;stroke-width:1;"/><line style="stroke:#181818;stroke-width:1;" x1="176.4692" x2="176.4692" y1="236.5938" y2="256.5938"/><polygon fill="#181818" points="172.4692,246.5938,176.4692,256.5938,180.4692,246.5938,176.4692,250.5938" style="stroke:#181818;stroke-width:1;"/><line style="stroke:#181818;stroke-width:1;" x1="176.4692" x2="176.4692" y1="68.6094" y2="116.2188"/><polygon fill="#181818" points="172.4692,106.2188,176.4692,116.2188,180.4692,106.2188,176.4692,110.2188" style="stroke:#181818;stroke-width:1;"/><line style="stroke:#181818;stroke-width:1;" x1="102.1147" x2="102.1147" y1="505.6719" y2="525.6719"/><polygon fill="#181818" points="98.1147,515.6719,102.1147,525.6719,106.1147,515.6719,102.1147,519.6719" style="stroke:#181818;stroke-width:1;"/><line style="stroke:#181818;stroke-width:1;" x1="122.1235" x2="102.1147" y1="448.5781" y2="448.5781"/><line style="stroke:#181818;stroke-width:1;" x1="102.1147" x2="102.1147" y1="448.5781" y2="470.5781"/><polygon fill="#181818" points="98.1147,460.5781,102.1147,470.5781,106.1147,460.5781,102.1147,464.5781" style="stroke:#181818;stroke-width:1;"/><line style="stroke:#181818;stroke-width:1;" x1="230.8149" x2="250.8237" y1="448.5781" y2="448.5781"/><line style="stroke:#181818;stroke-width:1;" x1="250.8237" x2="250.8237" y1="448.5781" y2="470.5781"/><polygon fill="#181818" points="246.8237,460.5781,250.8237,470.5781,254.8237,460.5781,250.8237,464.5781" style="stroke:#181818;stroke-width:1;"/><line style="stroke:#181818;stroke-width:1;" x1="102.1147" x2="102.1147" y1="560.7656" y2="578.7656"/><line style="stroke:#181818;stroke-width:1;" x1="102.1147" x2="164.4692" y1="578.7656" y2="578.7656"/><polygon fill="#181818" points="154.4692,574.7656,164.4692,578.7656,154.4692,582.7656,158.4692,578.7656" style="stroke:#181818;stroke-width:1;"/><line style="stroke:#181818;stroke-width:1;" x1="250.8237" x2="250.8237" y1="505.6719" y2="578.7656"/><line style="stroke:#181818;stroke-width:1;" x1="250.8237" x2="188.4692" y1="578.7656" y2="578.7656"/><polygon fill="#181818" points="198.4692,574.7656,188.4692,578.7656,198.4692,582.7656,194.4692,578.7656" style="stroke:#181818;stroke-width:1;"/><line style="stroke:#181818;stroke-width:1;" x1="176.4692" x2="176.4692" y1="416.5781" y2="436.5781"/><polygon fill="#181818" points="172.4692,426.5781,176.4692,436.5781,180.4692,426.5781,176.4692,430.5781" style="stroke:#181818;stroke-width:1;"/><line style="stroke:#181818;stroke-width:1;" x1="176.4692" x2="176.4692" y1="306.7813" y2="366.3906"/><polygon fill="#181818" points="172.4692,356.3906,176.4692,366.3906,180.4692,356.3906,176.4692,360.3906" style="stroke:#181818;stroke-width:1;"/><line style="stroke:#181818;stroke-width:1;" x1="176.4692" x2="176.4692" y1="700.5625" y2="720.5625"/><polygon fill="#181818" points="172.4692,710.5625,176.4692,720.5625,180.4692,710.5625,176.4692,714.5625" style="stroke:#181818;stroke-width:1;"/><line style="stroke:#181818;stroke-width:1;" x1="176.4692" x2="176.4692" y1="590.7656" y2="650.375"/><polygon fill="#181818" points="172.4692,640.375,176.4692,650.375,180.4692,640.375,176.4692,644.375" style="stroke:#181818;stroke-width:1;"/><line style="stroke:#181818;stroke-width:1;" x1="176.4692" x2="176.4692" y1="770.75" y2="802.75"/><polygon fill="#181818" points="172.4692,792.75,176.4692,802.75,180.4692,792.75,176.4692,796.75" style="stroke:#181818;stroke-width:1;"/><!--SRC=[RLBDIiGm4BxtAUROXGNl5P5rqOE2BkuUFEmbsqwt0saI9ic2o3w0RsAV8o_cf5gjO0u9PFBDzpC953J2gWvqef06g63DQK26Q11SF6YgLI1he4n3Gm4Z0ngckgD5KVYWE1I5avt6HnksZYaDGH4Zl1K0rJFsJXE3iBIM-wXpQMzAGJ0keROce8bBQ6oloA1VN6PKUizaF9KdJi7joEsKgwJI2BnNeVDoP77g6xlkB7bX57KX1e5iiWrfTW4tR2DfROsyFC-5RrzzI1_zZ-OQJvP-wE-zDNlJe8lauKj0Pg8Mokr80bSmaLml87GeUJr5YGXaLRU6yKXU_3AKOwPf6ALAxT46QZDE7QmnQV3v7hL7A7_5_jFcC7CY0DDG-zVH7O_QcybHGqn7GPwG_TveDH_k6DkgRILY72SbNy17BTOalGUrmvUbZ9PyFq_wdETltIS0]--></g></svg>