<svg xmlns="http://www.w3.org/2000/svg" xmlns:xlink="http://www.w3.org/1999/xlink" contentStyleType="text/css" data-diagram-type="ACTIVITY" height="1132px" preserveAspectRatio="none" style="width:430px;height:1132px;background:#FFFFFF;" version="1.1" viewBox="0 0 430 1132" width="430px" zoomAndPan="magnify"><title>Activit&#233; : G&#233;rer l'emploi du temps (natif)</title><defs/><g><text fill="#000000" font-family="sans-serif" font-size="14" font-weight="bold" lengthAdjust="spacing" textLength="265.4805" x="81.1641" y="34.5332">Activit&#233; : G&#233;rer l'emploi du temps (natif)</text><ellipse cx="215.4043" cy="58.6094" fill="#222222" rx="10" ry="10" style="stroke:#222222;stroke-width:1;"/><rect fill="none" height="477.3594" style="stroke:#000000;stroke-width:1.5;" width="408.8086" x="11" y="78.6094"/><path d="M93.3652,78.6094 L93.3652,89.2188 L83.3652,99.2188 L11,99.2188" fill="none" style="stroke:#000000;stroke-width:1.5;"/><text fill="#000000" font-family="sans-serif" font-size="14" lengthAdjust="spacing" textLength="72.3652" x="14" y="94.1426">Propri&#233;taire</text><rect fill="#F1F1F1" height="50.1875" rx="12.5" ry="12.5" style="stroke:#181818;stroke-width:0.5;" width="143.2402" x="143.7842" y="116.2188"/><text fill="#000000" font-family="sans-serif" font-size="12" lengthAdjust="spacing" textLength="54.0293" x="153.7842" y="138.6758">Acc&#233;der &#224;</text><text fill="#000000" font-family="sans-serif" font-size="12" lengthAdjust="spacing" textLength="123.2402" x="153.7842" y="153.7695">"Mon emploi du temps"</text><polygon fill="#F1F1F1" points="55.6799,186.4063,99.7068,186.4063,111.7068,198.4063,99.7068,210.4063,55.6799,210.4063,43.6799,198.4063,55.6799,186.4063" style="stroke:#181818;stroke-width:0.5;"/><text fill="#000000" font-family="sans-serif" font-size="11" lengthAdjust="spacing" textLength="44.0322" x="81.6934" y="221.8252">Nouveau</text><text fill="#000000" font-family="sans-serif" font-size="11" lengthAdjust="spacing" textLength="44.0269" x="55.6799" y="202.9072">Source ?</text><rect fill="#F1F1F1" height="50.1875" rx="12.5" ry="12.5" style="stroke:#181818;stroke-width:0.5;" width="113.3867" x="21" y="244.2422"/><text fill="#000000" font-family="sans-serif" font-size="12" lengthAdjust="spacing" textLength="57.3398" x="31" y="266.6992">Cr&#233;er EDT</text><text fill="#000000" font-family="sans-serif" font-size="12" lengthAdjust="spacing" textLength="93.3867" x="31" y="281.793">(semaine, ann&#233;e)</text><polygon fill="#F1F1F1" points="194.5989,186.4063,235.5535,186.4063,247.5535,198.4063,235.5535,210.4063,194.5989,210.4063,182.5989,198.4063,194.5989,186.4063" style="stroke:#181818;stroke-width:0.5;"/><text fill="#000000" font-family="sans-serif" font-size="11" lengthAdjust="spacing" textLength="40.9546" x="194.5989" y="202.9072">Importer</text><text fill="#000000" font-family="sans-serif" font-size="11" lengthAdjust="spacing" textLength="39.7407" x="247.5535" y="195.9893">Charger</text><rect fill="#F1F1F1" height="50.1875" rx="12.5" ry="12.5" style="stroke:#181818;stroke-width:0.5;" width="121.3789" x="154.3867" y="230.4063"/><text fill="#000000" font-family="sans-serif" font-size="12" lengthAdjust="spacing" textLength="101.3789" x="164.3867" y="252.8633">Upload image/PDF</text><text fill="#000000" font-family="sans-serif" font-size="12" lengthAdjust="spacing" textLength="76.3242" x="164.3867" y="267.957">d'EDT externe</text><rect fill="#F1F1F1" height="50.1875" rx="12.5" ry="12.5" style="stroke:#181818;stroke-width:0.5;" width="92.6914" x="168.7305" y="315.5938"/><text fill="#000000" font-family="sans-serif" font-size="12" lengthAdjust="spacing" textLength="56.0273" x="178.7305" y="338.0508">Valider via</text><text fill="#000000" font-family="sans-serif" font-size="12" lengthAdjust="spacing" textLength="72.6914" x="178.7305" y="353.1445">PaliGemma 2</text><rect fill="#F1F1F1" height="50.1875" rx="12.5" ry="12.5" style="stroke:#181818;stroke-width:0.5;" width="114.043" x="295.7656" y="276"/><text fill="#000000" font-family="sans-serif" font-size="12" lengthAdjust="spacing" textLength="94.043" x="305.7656" y="298.457">S&#233;lectionner EDT</text><text fill="#000000" font-family="sans-serif" font-size="12" lengthAdjust="spacing" textLength="41.3555" x="305.7656" y="313.5508">existant</text><rect fill="#F1F1F1" height="50.1875" rx="12.5" ry="12.5" style="stroke:#181818;stroke-width:0.5;" width="110.7031" x="160.0527" y="449.7813"/><text fill="#000000" font-family="sans-serif" font-size="12" lengthAdjust="spacing" textLength="90.7031" x="170.0527" y="472.2383">Ajouter / modifier</text><text fill="#000000" font-family="sans-serif" font-size="12" lengthAdjust="spacing" textLength="76.0547" x="170.0527" y="487.332">un &#233;v&#233;nement</text><polygon fill="#F1F1F1" points="215.4043,405.7813,227.4043,417.7813,215.4043,429.7813,203.4043,417.7813,215.4043,405.7813" style="stroke:#181818;stroke-width:0.5;"/><polygon fill="#F1F1F1" points="215.4043,519.9688,215.4043,519.9688,227.4043,531.9688,215.4043,543.9688,215.4043,543.9688,203.4043,531.9688,215.4043,519.9688" style="stroke:#181818;stroke-width:0.5;"/><text fill="#000000" font-family="sans-serif" font-size="11" lengthAdjust="spacing" textLength="44.0269" x="227.4043" y="529.5518">Encore ?</text><rect fill="none" height="262.9023" style="stroke:#000000;stroke-width:1.5;" width="178.0547" x="132.377" y="565.9688"/><path d="M196.8389,565.9688 L196.8389,576.5781 L186.8389,586.5781 L132.377,586.5781" fill="none" style="stroke:#000000;stroke-width:1.5;"/><text fill="#000000" font-family="sans-serif" font-size="14" lengthAdjust="spacing" textLength="54.4619" x="135.377" y="581.502">Syst&#232;me</text><rect fill="#F1F1F1" height="50.1875" rx="12.5" ry="12.5" style="stroke:#181818;stroke-width:0.5;" width="126.0547" x="152.377" y="652.4961"/><text fill="#000000" font-family="sans-serif" font-size="12" lengthAdjust="spacing" textLength="106.0547" x="162.377" y="674.9531">Ins&#233;rer &#233;v&#233;nements</text><text fill="#000000" font-family="sans-serif" font-size="12" lengthAdjust="spacing" textLength="101.3789" x="162.377" y="690.0469">depuis PaliGemma</text><polygon fill="#F1F1F1" points="179.0313,603.5781,251.7773,603.5781,263.7773,615.5781,251.7773,627.5781,179.0313,627.5781,167.0313,615.5781,179.0313,603.5781" style="stroke:#181818;stroke-width:0.5;"/><text fill="#000000" font-family="sans-serif" font-size="11" lengthAdjust="spacing" textLength="17.1177" x="219.4043" y="638.9971">Oui</text><text fill="#000000" font-family="sans-serif" font-size="11" lengthAdjust="spacing" textLength="72.7461" x="179.0313" y="620.0791">Import r&#233;ussi ?</text><polygon fill="#F1F1F1" points="215.4043,722.6836,227.4043,734.6836,215.4043,746.6836,203.4043,734.6836,215.4043,722.6836" style="stroke:#181818;stroke-width:0.5;"/><rect fill="#F1F1F1" height="50.1875" rx="12.5" ry="12.5" style="stroke:#181818;stroke-width:0.5;" width="112.0508" x="159.3789" y="766.6836"/><text fill="#000000" font-family="sans-serif" font-size="12" lengthAdjust="spacing" textLength="50.6953" x="169.3789" y="789.1406">Valider et</text><text fill="#000000" font-family="sans-serif" font-size="12" lengthAdjust="spacing" textLength="92.0508" x="169.3789" y="804.2344">persister en base</text><rect fill="none" height="240.1719" style="stroke:#000000;stroke-width:1.5;" width="150.7305" x="140.0391" y="838.8711"/><path d="M206.0732,838.8711 L206.0732,849.4805 L196.0732,859.4805 L140.0391,859.4805" fill="none" style="stroke:#000000;stroke-width:1.5;"/><text fill="#000000" font-family="sans-serif" font-size="14" lengthAdjust="spacing" textLength="56.0342" x="143.0391" y="854.4043">Frontend</text><rect fill="#F1F1F1" height="50.1875" rx="12.5" ry="12.5" style="stroke:#181818;stroke-width:0.5;" width="96.6992" x="167.0547" y="876.4805"/><text fill="#000000" font-family="sans-serif" font-size="12" lengthAdjust="spacing" textLength="76.6992" x="177.0547" y="898.9375">Requ&#234;ter EDT</text><text fill="#000000" font-family="sans-serif" font-size="12" lengthAdjust="spacing" textLength="73.3535" x="177.0547" y="914.0313">via API REST</text><rect fill="#F1F1F1" height="50.1875" rx="12.5" ry="12.5" style="stroke:#181818;stroke-width:0.5;" width="130.7305" x="150.0391" y="946.668"/><text fill="#000000" font-family="sans-serif" font-size="12" lengthAdjust="spacing" textLength="80.707" x="160.0391" y="969.125">Rendre la grille</text><text fill="#000000" font-family="sans-serif" font-size="12" lengthAdjust="spacing" textLength="110.7305" x="160.0391" y="984.2188">hebdomadaire (natif)</text><rect fill="#F1F1F1" height="50.1875" rx="12.5" ry="12.5" style="stroke:#181818;stroke-width:0.5;" width="77.3633" x="176.7227" y="1016.8555"/><text fill="#000000" font-family="sans-serif" font-size="12" lengthAdjust="spacing" textLength="57.3633" x="186.7227" y="1039.3125">Afficher en</text><text fill="#000000" font-family="sans-serif" font-size="12" lengthAdjust="spacing" textLength="56.0215" x="186.7227" y="1054.4063">temps r&#233;el</text><ellipse cx="215.4043" cy="1110.043" fill="none" rx="11" ry="11" style="stroke:#222222;stroke-width:1;"/><ellipse cx="215.4043" cy="1110.043" fill="#222222" rx="6" ry="6" style="stroke:#222222;stroke-width:1;"/><line style="stroke:#181818;stroke-width:1;" x1="215.0762" x2="215.0762" y1="280.5938" y2="315.5938"/><polygon fill="#181818" points="211.0762,305.5938,215.0762,315.5938,219.0762,305.5938,215.0762,309.5938" style="stroke:#181818;stroke-width:1;"/><line style="stroke:#181818;stroke-width:1;" x1="77.6934" x2="77.6934" y1="210.4063" y2="244.2422"/><polygon fill="#181818" points="73.6934,234.2422,77.6934,244.2422,81.6934,234.2422,77.6934,238.2422" style="stroke:#181818;stroke-width:1;"/><line style="stroke:#181818;stroke-width:1;" x1="77.6934" x2="77.6934" y1="294.4297" y2="385.7813"/><polygon fill="#181818" points="73.6934,375.7813,77.6934,385.7813,81.6934,375.7813,77.6934,379.7813" style="stroke:#181818;stroke-width:1;"/><line style="stroke:#181818;stroke-width:1;" x1="215.0762" x2="215.0762" y1="210.4063" y2="230.4063"/><polygon fill="#181818" points="211.0762,220.4063,215.0762,230.4063,219.0762,220.4063,215.0762,224.4063" style="stroke:#181818;stroke-width:1;"/><line style="stroke:#181818;stroke-width:1;" x1="215.0762" x2="215.0762" y1="365.7813" y2="385.7813"/><polygon fill="#181818" points="211.0762,375.7813,215.0762,385.7813,219.0762,375.7813,215.0762,379.7813" style="stroke:#181818;stroke-width:1;"/><line style="stroke:#181818;stroke-width:1;" x1="111.7068" x2="182.5989" y1="198.4063" y2="198.4063"/><polygon fill="#181818" points="172.5989,194.4063,182.5989,198.4063,172.5989,202.4063,176.5989,198.4063" style="stroke:#181818;stroke-width:1;"/><line style="stroke:#181818;stroke-width:1;" x1="215.4043" x2="215.4043" y1="166.4063" y2="171.4063"/><line style="stroke:#181818;stroke-width:1;" x1="215.4043" x2="77.6934" y1="171.4063" y2="171.4063"/><line style="stroke:#181818;stroke-width:1;" x1="77.6934" x2="77.6934" y1="171.4063" y2="186.4063"/><polygon fill="#181818" points="73.6934,176.4063,77.6934,186.4063,81.6934,176.4063,77.6934,180.4063" style="stroke:#181818;stroke-width:1;"/><line style="stroke:#181818;stroke-width:1;" x1="247.5535" x2="352.7871" y1="198.4063" y2="198.4063"/><line style="stroke:#181818;stroke-width:1;" x1="352.7871" x2="352.7871" y1="198.4063" y2="276"/><polygon fill="#181818" points="348.7871,266,352.7871,276,356.7871,266,352.7871,270" style="stroke:#181818;stroke-width:1;"/><line style="stroke:#181818;stroke-width:1;" x1="352.7871" x2="352.7871" y1="326.1875" y2="385.7813"/><polygon fill="#181818" points="348.7871,375.7813,352.7871,385.7813,356.7871,375.7813,352.7871,379.7813" style="stroke:#181818;stroke-width:1;"/><line style="stroke:#181818;stroke-width:1;" x1="77.6934" x2="352.7871" y1="385.7813" y2="385.7813"/><line style="stroke:#181818;stroke-width:1;" x1="215.4043" x2="215.4043" y1="429.7813" y2="449.7813"/><polygon fill="#181818" points="211.4043,439.7813,215.4043,449.7813,219.4043,439.7813,215.4043,443.7813" style="stroke:#181818;stroke-width:1;"/><line style="stroke:#181818;stroke-width:1;" x1="227.4043" x2="282.7559" y1="531.9688" y2="531.9688"/><polygon fill="#181818" points="278.7559,484.875,282.7559,474.875,286.7559,484.875,282.7559,480.875" style="stroke:#181818;stroke-width:1;"/><line style="stroke:#181818;stroke-width:1;" x1="282.7559" x2="282.7559" y1="417.7813" y2="531.9688"/><line style="stroke:#181818;stroke-width:1;" x1="282.7559" x2="227.4043" y1="417.7813" y2="417.7813"/><polygon fill="#181818" points="237.4043,413.7813,227.4043,417.7813,237.4043,421.7813,233.4043,417.7813" style="stroke:#181818;stroke-width:1;"/><line style="stroke:#181818;stroke-width:1;" x1="215.4043" x2="215.4043" y1="499.9688" y2="519.9688"/><polygon fill="#181818" points="211.4043,509.9688,215.4043,519.9688,219.4043,509.9688,215.4043,513.9688" style="stroke:#181818;stroke-width:1;"/><line style="stroke:#181818;stroke-width:1;" x1="215.4043" x2="215.4043" y1="385.7813" y2="405.7813"/><polygon fill="#181818" points="211.4043,395.7813,215.4043,405.7813,219.4043,395.7813,215.4043,399.7813" style="stroke:#181818;stroke-width:1;"/><line style="stroke:#181818;stroke-width:1;" x1="215.4043" x2="215.4043" y1="68.6094" y2="116.2188"/><polygon fill="#181818" points="211.4043,106.2188,215.4043,116.2188,219.4043,106.2188,215.4043,110.2188" style="stroke:#181818;stroke-width:1;"/><line style="stroke:#181818;stroke-width:1;" x1="215.4043" x2="215.4043" y1="627.5781" y2="652.4961"/><polygon fill="#181818" points="211.4043,642.4961,215.4043,652.4961,219.4043,642.4961,215.4043,646.4961" style="stroke:#181818;stroke-width:1;"/><line style="stroke:#181818;stroke-width:1;" x1="263.7773" x2="288.4316" y1="615.5781" y2="615.5781"/><polygon fill="#181818" points="284.4316,667.5898,288.4316,677.5898,292.4316,667.5898,288.4316,671.5898" style="stroke:#181818;stroke-width:1;"/><line style="stroke:#181818;stroke-width:1;" x1="288.4316" x2="288.4316" y1="615.5781" y2="734.6836"/><line style="stroke:#181818;stroke-width:1;" x1="288.4316" x2="227.4043" y1="734.6836" y2="734.6836"/><polygon fill="#181818" points="237.4043,730.6836,227.4043,734.6836,237.4043,738.6836,233.4043,734.6836" style="stroke:#181818;stroke-width:1;"/><line style="stroke:#181818;stroke-width:1;" x1="215.4043" x2="215.4043" y1="702.6836" y2="722.6836"/><polygon fill="#181818" points="211.4043,712.6836,215.4043,722.6836,219.4043,712.6836,215.4043,716.6836" style="stroke:#181818;stroke-width:1;"/><line style="stroke:#181818;stroke-width:1;" x1="215.4043" x2="215.4043" y1="746.6836" y2="766.6836"/><polygon fill="#181818" points="211.4043,756.6836,215.4043,766.6836,219.4043,756.6836,215.4043,760.6836" style="stroke:#181818;stroke-width:1;"/><line style="stroke:#181818;stroke-width:1;" x1="215.4043" x2="215.4043" y1="543.9688" y2="603.5781"/><polygon fill="#181818" points="211.4043,593.5781,215.4043,603.5781,219.4043,593.5781,215.4043,597.5781" style="stroke:#181818;stroke-width:1;"/><line style="stroke:#181818;stroke-width:1;" x1="215.4043" x2="215.4043" y1="926.668" y2="946.668"/><polygon fill="#181818" points="211.4043,936.668,215.4043,946.668,219.4043,936.668,215.4043,940.668" style="stroke:#181818;stroke-width:1;"/><line style="stroke:#181818;stroke-width:1;" x1="215.4043" x2="215.4043" y1="996.8555" y2="1016.8555"/><polygon fill="#181818" points="211.4043,1006.8555,215.4043,1016.8555,219.4043,1006.8555,215.4043,1010.8555" style="stroke:#181818;stroke-width:1;"/><line style="stroke:#181818;stroke-width:1;" x1="215.4043" x2="215.4043" y1="816.8711" y2="876.4805"/><polygon fill="#181818" points="211.4043,866.4805,215.4043,876.4805,219.4043,866.4805,215.4043,870.4805" style="stroke:#181818;stroke-width:1;"/><line style="stroke:#181818;stroke-width:1;" x1="215.4043" x2="215.4043" y1="1067.043" y2="1099.043"/><polygon fill="#181818" points="211.4043,1089.043,215.4043,1099.043,219.4043,1089.043,215.4043,1093.043" style="stroke:#181818;stroke-width:1;"/><!--SRC=[NLAzRjim4Dxr58SiaO020JB6Go4aJk2XhH6ddRGmqicwW3og_75J57sNZbLVWo_ManWdRXT9r7q_TnylKD08THleG25DS0LtQNBeG9-Z6RKbw284-VHGiWhKLqNXWtAXA4PvKY3Bi7LsT9IceCWX_2W0hkgsJLCdEkbNmsSV1FIVtDbAODH3kRFHjGZlAmW3CfGVRJoWYfMKHUVQfKbKrZSF3PSUZIB6Tw2OvNSrIw3sECjip6XTG9TbClcpEAeEoAWzNcnlRXlkpaK9y5c0ZAkC-g8qpPqUI3MybSCT6gFWygWEvVMWt5waCtwN9etjF3WVEyDdab0uB1Jkg9Utmn5Lo9JwoKQnX0imLgg4hk78aAP3cXWDPcPcmBU1v4hA2aWoNtDhtPnEyVCqyTrt7z9layD-6nyahUWzlQNvAT9Bsnls-MPFNBqaWcCKezUvJqTuZGP3moCwBrFE9uP7vIM-VrgwTPQ3CFFzt-FNcFw4Oq2IBTJR3TolTm-hNETEvj8AzewqneO7VEoiKTsoGo-xja3hlgTsM7mRpgiuBuLU_7smury0]--></g></svg>