<svg xmlns="http://www.w3.org/2000/svg" xmlns:xlink="http://www.w3.org/1999/xlink" contentStyleType="text/css" data-diagram-type="ACTIVITY" height="1194px" preserveAspectRatio="none" style="width:331px;height:1194px;background:#FFFFFF;" version="1.1" viewBox="0 0 331 1194" width="331px" zoomAndPan="magnify"><title>Activit&#233; : G&#233;rer un projet portfolio</title><defs/><g><text fill="#000000" font-family="sans-serif" font-size="14" font-weight="bold" lengthAdjust="spacing" textLength="224.793" x="51.7363" y="34.5332">Activit&#233; : G&#233;rer un projet portfolio</text><ellipse cx="170.7124" cy="58.6094" fill="#222222" rx="10" ry="10" style="stroke:#222222;stroke-width:1;"/><rect fill="none" height="575.2891" style="stroke:#000000;stroke-width:1.5;" width="302.7676" x="11" y="78.6094"/><path d="M93.3652,78.6094 L93.3652,89.2188 L83.3652,99.2188 L11,99.2188" fill="none" style="stroke:#000000;stroke-width:1.5;"/><text fill="#000000" font-family="sans-serif" font-size="14" lengthAdjust="spacing" textLength="72.3652" x="14" y="94.1426">Propri&#233;taire</text><polygon fill="#F1F1F1" points="150.8394,116.2188,190.5854,116.2188,202.5854,128.2188,190.5854,140.2188,150.8394,140.2188,138.8394,128.2188,150.8394,116.2188" style="stroke:#181818;stroke-width:0.5;"/><text fill="#000000" font-family="sans-serif" font-size="11" lengthAdjust="spacing" textLength="39.7461" x="150.8394" y="132.7197">Action ?</text><text fill="#000000" font-family="sans-serif" font-size="11" lengthAdjust="spacing" textLength="74.6045" x="64.2349" y="125.8018">Nouveau projet</text><text fill="#000000" font-family="sans-serif" font-size="11" lengthAdjust="spacing" textLength="39.123" x="202.5854" y="125.8018">Modifier</text><rect fill="#F1F1F1" height="65.2813" rx="12.5" ry="12.5" style="stroke:#181818;stroke-width:0.5;" width="148.0566" x="23.8223" y="150.2188"/><text fill="#000000" font-family="sans-serif" font-size="12" lengthAdjust="spacing" textLength="110.6953" x="33.8223" y="172.6758">Remplir le formulaire</text><text fill="#000000" font-family="sans-serif" font-size="12" lengthAdjust="spacing" textLength="128.0566" x="33.8223" y="187.7695">(titre, description, dates,</text><text fill="#000000" font-family="sans-serif" font-size="12" lengthAdjust="spacing" textLength="116.7305" x="33.8223" y="202.8633">technologies, m&#233;dias)</text><rect fill="#F1F1F1" height="50.1875" rx="12.5" ry="12.5" style="stroke:#181818;stroke-width:0.5;" width="103.3906" x="191.8789" y="150.2188"/><text fill="#000000" font-family="sans-serif" font-size="12" lengthAdjust="spacing" textLength="83.3906" x="201.8789" y="172.6758">S&#233;lectionner un</text><text fill="#000000" font-family="sans-serif" font-size="12" lengthAdjust="spacing" textLength="74.707" x="201.8789" y="187.7695">projet existant</text><polygon fill="#F1F1F1" points="170.7124,221.5,182.7124,233.5,170.7124,245.5,158.7124,233.5,170.7124,221.5" style="stroke:#181818;stroke-width:0.5;"/><rect fill="#F1F1F1" height="50.1875" rx="12.5" ry="12.5" style="stroke:#181818;stroke-width:0.5;" width="116.7383" x="112.3433" y="314.418"/><text fill="#000000" font-family="sans-serif" font-size="12" lengthAdjust="spacing" textLength="82.0313" x="122.3433" y="336.875">Fournir URL de</text><text fill="#000000" font-family="sans-serif" font-size="12" lengthAdjust="spacing" textLength="96.7383" x="122.3433" y="351.9688">la d&#233;mo h&#233;berg&#233;e</text><polygon fill="#F1F1F1" points="128.8313,265.5,212.5935,265.5,224.5935,277.5,212.5935,289.5,128.8313,289.5,116.8313,277.5,128.8313,265.5" style="stroke:#181818;stroke-width:0.5;"/><text fill="#000000" font-family="sans-serif" font-size="11" lengthAdjust="spacing" textLength="17.1177" x="174.7124" y="300.9189">Oui</text><text fill="#000000" font-family="sans-serif" font-size="11" lengthAdjust="spacing" textLength="83.7622" x="128.8313" y="282.001">D&#233;mo en direct ?</text><polygon fill="#F1F1F1" points="170.7124,384.6055,182.7124,396.6055,170.7124,408.6055,158.7124,396.6055,170.7124,384.6055" style="stroke:#181818;stroke-width:0.5;"/><rect fill="#F1F1F1" height="50.1875" rx="12.5" ry="12.5" style="stroke:#181818;stroke-width:0.5;" width="107.3574" x="117.0337" y="477.5234"/><text fill="#000000" font-family="sans-serif" font-size="12" lengthAdjust="spacing" textLength="87.3574" x="127.0337" y="499.9805">Marquer comme</text><text fill="#000000" font-family="sans-serif" font-size="12" lengthAdjust="spacing" textLength="64.5645" x="127.0337" y="515.0742">"en vedette"</text><polygon fill="#F1F1F1" points="132.1882,428.6055,209.2366,428.6055,221.2366,440.6055,209.2366,452.6055,132.1882,452.6055,120.1882,440.6055,132.1882,428.6055" style="stroke:#181818;stroke-width:0.5;"/><text fill="#000000" font-family="sans-serif" font-size="11" lengthAdjust="spacing" textLength="17.1177" x="174.7124" y="464.0244">Oui</text><text fill="#000000" font-family="sans-serif" font-size="11" lengthAdjust="spacing" textLength="77.0483" x="132.1882" y="445.1064">Projet vedette ?</text><polygon fill="#F1F1F1" points="170.7124,547.7109,182.7124,559.7109,170.7124,571.7109,158.7124,559.7109,170.7124,547.7109" style="stroke:#181818;stroke-width:0.5;"/><rect fill="#F1F1F1" height="50.1875" rx="12.5" ry="12.5" style="stroke:#181818;stroke-width:0.5;" width="122.041" x="109.6919" y="591.7109"/><text fill="#000000" font-family="sans-serif" font-size="12" lengthAdjust="spacing" textLength="95.373" x="119.6919" y="614.168">Choisir statut final</text><text fill="#000000" font-family="sans-serif" font-size="12" lengthAdjust="spacing" textLength="102.041" x="119.6919" y="629.2617">(Publier / Brouillon)</text><rect fill="none" height="368.1719" style="stroke:#000000;stroke-width:1.5;" width="297.2656" x="23" y="663.8984"/><path d="M87.4619,663.8984 L87.4619,674.5078 L77.4619,684.5078 L23,684.5078" fill="none" style="stroke:#000000;stroke-width:1.5;"/><text fill="#000000" font-family="sans-serif" font-size="14" lengthAdjust="spacing" textLength="54.4619" x="26" y="679.4316">Syst&#232;me</text><polygon fill="#F1F1F1" points="144.1094,701.5078,197.3154,701.5078,209.3154,713.5078,197.3154,725.5078,144.1094,725.5078,132.1094,713.5078,144.1094,701.5078" style="stroke:#181818;stroke-width:0.5;"/><text fill="#000000" font-family="sans-serif" font-size="11" lengthAdjust="spacing" textLength="53.2061" x="144.1094" y="718.0088">Nouveau ?</text><text fill="#000000" font-family="sans-serif" font-size="11" lengthAdjust="spacing" textLength="17.1177" x="114.9917" y="711.0908">Oui</text><rect fill="#F1F1F1" height="50.1875" rx="12.5" ry="12.5" style="stroke:#181818;stroke-width:0.5;" width="96.043" x="60.4976" y="735.5078"/><text fill="#000000" font-family="sans-serif" font-size="12" lengthAdjust="spacing" textLength="76.043" x="70.4976" y="757.9648">Cr&#233;er en base</text><text fill="#000000" font-family="sans-serif" font-size="12" lengthAdjust="spacing" textLength="62.7246" x="70.4976" y="773.0586">de donn&#233;es</text><rect fill="#F1F1F1" height="50.1875" rx="12.5" ry="12.5" style="stroke:#181818;stroke-width:0.5;" width="112.7305" x="176.5405" y="735.5078"/><text fill="#000000" font-family="sans-serif" font-size="12" lengthAdjust="spacing" textLength="92.7305" x="186.5405" y="757.9648">Charger donn&#233;es</text><text fill="#000000" font-family="sans-serif" font-size="12" lengthAdjust="spacing" textLength="54.0293" x="186.5405" y="773.0586">existantes</text><polygon fill="#F1F1F1" points="170.7124,791.6953,182.7124,803.6953,170.7124,815.6953,158.7124,803.6953,170.7124,791.6953" style="stroke:#181818;stroke-width:0.5;"/><rect fill="#F1F1F1" height="50.1875" rx="12.5" ry="12.5" style="stroke:#181818;stroke-width:0.5;" width="158.082" x="91.6714" y="835.6953"/><text fill="#000000" font-family="sans-serif" font-size="12" lengthAdjust="spacing" textLength="90.0293" x="101.6714" y="858.1523">Traiter m&#233;dias et</text><text fill="#000000" font-family="sans-serif" font-size="12" lengthAdjust="spacing" textLength="138.082" x="101.6714" y="873.2461">d&#233;mo (upload / validation)</text><polygon fill="#F1F1F1" points="149.0051,905.8828,192.4197,905.8828,204.4197,917.8828,192.4197,929.8828,149.0051,929.8828,137.0051,917.8828,149.0051,905.8828" style="stroke:#181818;stroke-width:0.5;"/><text fill="#000000" font-family="sans-serif" font-size="11" lengthAdjust="spacing" textLength="43.4146" x="149.0051" y="922.3838">Publier ?</text><text fill="#000000" font-family="sans-serif" font-size="11" lengthAdjust="spacing" textLength="17.1177" x="119.8875" y="915.4658">Oui</text><text fill="#000000" font-family="sans-serif" font-size="11" lengthAdjust="spacing" textLength="42.8022" x="204.4197" y="915.4658">Brouillon</text><rect fill="#F1F1F1" height="50.1875" rx="12.5" ry="12.5" style="stroke:#181818;stroke-width:0.5;" width="116.041" x="43" y="939.8828"/><text fill="#000000" font-family="sans-serif" font-size="12" lengthAdjust="spacing" textLength="96.041" x="53" y="962.3398">Rendre visible sur</text><text fill="#000000" font-family="sans-serif" font-size="12" lengthAdjust="spacing" textLength="55.3652" x="53" y="977.4336">le portfolio</text><rect fill="#F1F1F1" height="35.0938" rx="12.5" ry="12.5" style="stroke:#181818;stroke-width:0.5;" width="122.7266" x="179.041" y="939.8828"/><text fill="#000000" font-family="sans-serif" font-size="12" lengthAdjust="spacing" textLength="102.7266" x="189.041" y="962.3398">Garder en brouillon</text><polygon fill="#F1F1F1" points="170.7124,996.0703,182.7124,1008.0703,170.7124,1020.0703,158.7124,1008.0703,170.7124,996.0703" style="stroke:#181818;stroke-width:0.5;"/><rect fill="none" height="99.7969" style="stroke:#000000;stroke-width:1.5;" width="138.7188" x="101.353" y="1042.0703"/><path d="M167.3872,1042.0703 L167.3872,1052.6797 L157.3872,1062.6797 L101.353,1062.6797" fill="none" style="stroke:#000000;stroke-width:1.5;"/><text fill="#000000" font-family="sans-serif" font-size="14" lengthAdjust="spacing" textLength="56.0342" x="104.353" y="1057.6035">Frontend</text><rect fill="#F1F1F1" height="50.1875" rx="12.5" ry="12.5" style="stroke:#181818;stroke-width:0.5;" width="118.7188" x="111.353" y="1079.6797"/><text fill="#000000" font-family="sans-serif" font-size="12" lengthAdjust="spacing" textLength="98.7188" x="121.353" y="1102.1367">Visualiser le rendu</text><text fill="#000000" font-family="sans-serif" font-size="12" lengthAdjust="spacing" textLength="72.0469" x="121.353" y="1117.2305">final du projet</text><ellipse cx="170.7124" cy="1172.8672" fill="none" rx="11" ry="11" style="stroke:#222222;stroke-width:1;"/><ellipse cx="170.7124" cy="1172.8672" fill="#222222" rx="6" ry="6" style="stroke:#222222;stroke-width:1;"/><line style="stroke:#181818;stroke-width:1;" x1="138.8394" x2="97.8506" y1="128.2188" y2="128.2188"/><line style="stroke:#181818;stroke-width:1;" x1="97.8506" x2="97.8506" y1="128.2188" y2="150.2188"/><polygon fill="#181818" points="93.8506,140.2188,97.8506,150.2188,101.8506,140.2188,97.8506,144.2188" style="stroke:#181818;stroke-width:1;"/><line style="stroke:#181818;stroke-width:1;" x1="202.5854" x2="243.5742" y1="128.2188" y2="128.2188"/><line style="stroke:#181818;stroke-width:1;" x1="243.5742" x2="243.5742" y1="128.2188" y2="150.2188"/><polygon fill="#181818" points="239.5742,140.2188,243.5742,150.2188,247.5742,140.2188,243.5742,144.2188" style="stroke:#181818;stroke-width:1;"/><line style="stroke:#181818;stroke-width:1;" x1="97.8506" x2="97.8506" y1="215.5" y2="233.5"/><line style="stroke:#181818;stroke-width:1;" x1="97.8506" x2="158.7124" y1="233.5" y2="233.5"/><polygon fill="#181818" points="148.7124,229.5,158.7124,233.5,148.7124,237.5,152.7124,233.5" style="stroke:#181818;stroke-width:1;"/><line style="stroke:#181818;stroke-width:1;" x1="243.5742" x2="243.5742" y1="200.4063" y2="233.5"/><line style="stroke:#181818;stroke-width:1;" x1="243.5742" x2="182.7124" y1="233.5" y2="233.5"/><polygon fill="#181818" points="192.7124,229.5,182.7124,233.5,192.7124,237.5,188.7124,233.5" style="stroke:#181818;stroke-width:1;"/><line style="stroke:#181818;stroke-width:1;" x1="170.7124" x2="170.7124" y1="289.5" y2="314.418"/><polygon fill="#181818" points="166.7124,304.418,170.7124,314.418,174.7124,304.418,170.7124,308.418" style="stroke:#181818;stroke-width:1;"/><line style="stroke:#181818;stroke-width:1;" x1="224.5935" x2="239.0815" y1="277.5" y2="277.5"/><polygon fill="#181818" points="235.0815,329.5117,239.0815,339.5117,243.0815,329.5117,239.0815,333.5117" style="stroke:#181818;stroke-width:1;"/><line style="stroke:#181818;stroke-width:1;" x1="239.0815" x2="239.0815" y1="277.5" y2="396.6055"/><line style="stroke:#181818;stroke-width:1;" x1="239.0815" x2="182.7124" y1="396.6055" y2="396.6055"/><polygon fill="#181818" points="192.7124,392.6055,182.7124,396.6055,192.7124,400.6055,188.7124,396.6055" style="stroke:#181818;stroke-width:1;"/><line style="stroke:#181818;stroke-width:1;" x1="170.7124" x2="170.7124" y1="364.6055" y2="384.6055"/><polygon fill="#181818" points="166.7124,374.6055,170.7124,384.6055,174.7124,374.6055,170.7124,378.6055" style="stroke:#181818;stroke-width:1;"/><line style="stroke:#181818;stroke-width:1;" x1="170.7124" x2="170.7124" y1="245.5" y2="265.5"/><polygon fill="#181818" points="166.7124,255.5,170.7124,265.5,174.7124,255.5,170.7124,259.5" style="stroke:#181818;stroke-width:1;"/><line style="stroke:#181818;stroke-width:1;" x1="170.7124" x2="170.7124" y1="452.6055" y2="477.5234"/><polygon fill="#181818" points="166.7124,467.5234,170.7124,477.5234,174.7124,467.5234,170.7124,471.5234" style="stroke:#181818;stroke-width:1;"/><line style="stroke:#181818;stroke-width:1;" x1="221.2366" x2="234.3911" y1="440.6055" y2="440.6055"/><polygon fill="#181818" points="230.3911,492.6172,234.3911,502.6172,238.3911,492.6172,234.3911,496.6172" style="stroke:#181818;stroke-width:1;"/><line style="stroke:#181818;stroke-width:1;" x1="234.3911" x2="234.3911" y1="440.6055" y2="559.7109"/><line style="stroke:#181818;stroke-width:1;" x1="234.3911" x2="182.7124" y1="559.7109" y2="559.7109"/><polygon fill="#181818" points="192.7124,555.7109,182.7124,559.7109,192.7124,563.7109,188.7124,559.7109" style="stroke:#181818;stroke-width:1;"/><line style="stroke:#181818;stroke-width:1;" x1="170.7124" x2="170.7124" y1="527.7109" y2="547.7109"/><polygon fill="#181818" points="166.7124,537.7109,170.7124,547.7109,174.7124,537.7109,170.7124,541.7109" style="stroke:#181818;stroke-width:1;"/><line style="stroke:#181818;stroke-width:1;" x1="170.7124" x2="170.7124" y1="408.6055" y2="428.6055"/><polygon fill="#181818" points="166.7124,418.6055,170.7124,428.6055,174.7124,418.6055,170.7124,422.6055" style="stroke:#181818;stroke-width:1;"/><line style="stroke:#181818;stroke-width:1;" x1="170.7124" x2="170.7124" y1="571.7109" y2="591.7109"/><polygon fill="#181818" points="166.7124,581.7109,170.7124,591.7109,174.7124,581.7109,170.7124,585.7109" style="stroke:#181818;stroke-width:1;"/><line style="stroke:#181818;stroke-width:1;" x1="170.7124" x2="170.7124" y1="68.6094" y2="116.2188"/><polygon fill="#181818" points="166.7124,106.2188,170.7124,116.2188,174.7124,106.2188,170.7124,110.2188" style="stroke:#181818;stroke-width:1;"/><line style="stroke:#181818;stroke-width:1;" x1="132.1094" x2="108.519" y1="713.5078" y2="713.5078"/><line style="stroke:#181818;stroke-width:1;" x1="108.519" x2="108.519" y1="713.5078" y2="735.5078"/><polygon fill="#181818" points="104.519,725.5078,108.519,735.5078,112.519,725.5078,108.519,729.5078" style="stroke:#181818;stroke-width:1;"/><line style="stroke:#181818;stroke-width:1;" x1="209.3154" x2="232.9058" y1="713.5078" y2="713.5078"/><line style="stroke:#181818;stroke-width:1;" x1="232.9058" x2="232.9058" y1="713.5078" y2="735.5078"/><polygon fill="#181818" points="228.9058,725.5078,232.9058,735.5078,236.9058,725.5078,232.9058,729.5078" style="stroke:#181818;stroke-width:1;"/><line style="stroke:#181818;stroke-width:1;" x1="108.519" x2="108.519" y1="785.6953" y2="803.6953"/><line style="stroke:#181818;stroke-width:1;" x1="108.519" x2="158.7124" y1="803.6953" y2="803.6953"/><polygon fill="#181818" points="148.7124,799.6953,158.7124,803.6953,148.7124,807.6953,152.7124,803.6953" style="stroke:#181818;stroke-width:1;"/><line style="stroke:#181818;stroke-width:1;" x1="232.9058" x2="232.9058" y1="785.6953" y2="803.6953"/><line style="stroke:#181818;stroke-width:1;" x1="232.9058" x2="182.7124" y1="803.6953" y2="803.6953"/><polygon fill="#181818" points="192.7124,799.6953,182.7124,803.6953,192.7124,807.6953,188.7124,803.6953" style="stroke:#181818;stroke-width:1;"/><line style="stroke:#181818;stroke-width:1;" x1="170.7124" x2="170.7124" y1="815.6953" y2="835.6953"/><polygon fill="#181818" points="166.7124,825.6953,170.7124,835.6953,174.7124,825.6953,170.7124,829.6953" style="stroke:#181818;stroke-width:1;"/><line style="stroke:#181818;stroke-width:1;" x1="137.0051" x2="101.0205" y1="917.8828" y2="917.8828"/><line style="stroke:#181818;stroke-width:1;" x1="101.0205" x2="101.0205" y1="917.8828" y2="939.8828"/><polygon fill="#181818" points="97.0205,929.8828,101.0205,939.8828,105.0205,929.8828,101.0205,933.8828" style="stroke:#181818;stroke-width:1;"/><line style="stroke:#181818;stroke-width:1;" x1="204.4197" x2="240.4043" y1="917.8828" y2="917.8828"/><line style="stroke:#181818;stroke-width:1;" x1="240.4043" x2="240.4043" y1="917.8828" y2="939.8828"/><polygon fill="#181818" points="236.4043,929.8828,240.4043,939.8828,244.4043,929.8828,240.4043,933.8828" style="stroke:#181818;stroke-width:1;"/><line style="stroke:#181818;stroke-width:1;" x1="101.0205" x2="101.0205" y1="990.0703" y2="1008.0703"/><line style="stroke:#181818;stroke-width:1;" x1="101.0205" x2="158.7124" y1="1008.0703" y2="1008.0703"/><polygon fill="#181818" points="148.7124,1004.0703,158.7124,1008.0703,148.7124,1012.0703,152.7124,1008.0703" style="stroke:#181818;stroke-width:1;"/><line style="stroke:#181818;stroke-width:1;" x1="240.4043" x2="240.4043" y1="974.9766" y2="1008.0703"/><line style="stroke:#181818;stroke-width:1;" x1="240.4043" x2="182.7124" y1="1008.0703" y2="1008.0703"/><polygon fill="#181818" points="192.7124,1004.0703,182.7124,1008.0703,192.7124,1012.0703,188.7124,1008.0703" style="stroke:#181818;stroke-width:1;"/><line style="stroke:#181818;stroke-width:1;" x1="170.7124" x2="170.7124" y1="885.8828" y2="905.8828"/><polygon fill="#181818" points="166.7124,895.8828,170.7124,905.8828,174.7124,895.8828,170.7124,899.8828" style="stroke:#181818;stroke-width:1;"/><line style="stroke:#181818;stroke-width:1;" x1="170.7124" x2="170.7124" y1="641.8984" y2="701.5078"/><polygon fill="#181818" points="166.7124,691.5078,170.7124,701.5078,174.7124,691.5078,170.7124,695.5078" style="stroke:#181818;stroke-width:1;"/><line style="stroke:#181818;stroke-width:1;" x1="170.7124" x2="170.7124" y1="1020.0703" y2="1079.6797"/><polygon fill="#181818" points="166.7124,1069.6797,170.7124,1079.6797,174.7124,1069.6797,170.7124,1073.6797" style="stroke:#181818;stroke-width:1;"/><line style="stroke:#181818;stroke-width:1;" x1="170.7124" x2="170.7124" y1="1129.8672" y2="1161.8672"/><polygon fill="#181818" points="166.7124,1151.8672,170.7124,1161.8672,174.7124,1151.8672,170.7124,1155.8672" style="stroke:#181818;stroke-width:1;"/><!--SRC=[RLBDRjH03BxdAQoUib8bxji3WgBsGkbg2vnocSruDqQJcU3nH234-v3do8lXdKv8A_OIAMFxy_TZ8N48xrgXaMIUO0ltyyJ8a3mC7BwXm11OZi5HgAeeXgMg1lsIKF2mup0mpPCOOeHV5G0TeJx3QV7j1gH33_Mda4OqgG1kj0jWkyT-SCIWwu-1- -JE48sl5Pdn6Yp6bcau0-cF4OpNZHTiEnzSE97-GZzFbapSt2WWkeXGFmHBHq8kAvxcoM7cuhEYnXT9-8DKYfSywNMcAim_p5CVz0ciacbbbV2Og83UXSHUUN_PVrIIZNS6R9xgvkc0V9ed_0zszxnsH8iYU0drmV3tf2JRqFSAUgNLqdtr2crxsmMAkbxvIn8uaZTENTkbWrFXy0RUSqZaNF3go- -NMJtzZ3B_wTUObbWkqBbbbS5d8mucAX-BODL5VOoBswMnCtpIpgNQ-CNRqlcF-6Ss9DfPKWCKXSt6rMbmmLZbFXf7cZLbyejtHTa5bdj5rxCRrP23db5Ch77WUh3hOQocF4_U6xP5tr9PsRvoxOw3Ql4skxRzIZ4fnuZvRbdVK-Dp1c2N-ywsHmd3Nm00]--></g></svg>