<svg xmlns="http://www.w3.org/2000/svg" xmlns:xlink="http://www.w3.org/1999/xlink" contentStyleType="text/css" data-diagram-type="ACTIVITY" height="914px" preserveAspectRatio="none" style="width:316px;height:914px;background:#FFFFFF;" version="1.1" viewBox="0 0 316 914" width="316px" zoomAndPan="magnify"><title>Activit&#233; : Me contacter</title><defs/><g><text fill="#000000" font-family="sans-serif" font-size="14" font-weight="bold" lengthAdjust="spacing" textLength="149.3721" x="82.187" y="34.5332">Activit&#233; : Me contacter</text><ellipse cx="165.5415" cy="58.6094" fill="#222222" rx="10" ry="10" style="stroke:#222222;stroke-width:1;"/><rect fill="none" height="225.0781" style="stroke:#000000;stroke-width:1.5;" width="162.0391" x="84.522" y="78.6094"/><path d="M141.2046,78.6094 L141.2046,89.2188 L131.2046,99.2188 L84.522,99.2188" fill="none" style="stroke:#000000;stroke-width:1.5;"/><text fill="#000000" font-family="sans-serif" font-size="14" lengthAdjust="spacing" textLength="46.6826" x="87.522" y="94.1426">Visiteur</text><rect fill="#F1F1F1" height="50.1875" rx="12.5" ry="12.5" style="stroke:#181818;stroke-width:0.5;" width="116.7324" x="107.1753" y="116.2188"/><text fill="#000000" font-family="sans-serif" font-size="12" lengthAdjust="spacing" textLength="96.7324" x="117.1753" y="138.6758">Acc&#233;der &#224; la page</text><text fill="#000000" font-family="sans-serif" font-size="12" lengthAdjust="spacing" textLength="77.8828" x="117.1753" y="153.7695">"Me contacter"</text><rect fill="#F1F1F1" height="50.1875" rx="12.5" ry="12.5" style="stroke:#181818;stroke-width:0.5;" width="142.0391" x="94.522" y="186.4063"/><text fill="#000000" font-family="sans-serif" font-size="12" lengthAdjust="spacing" textLength="110.6953" x="104.522" y="208.8633">Remplir le formulaire</text><text fill="#000000" font-family="sans-serif" font-size="12" lengthAdjust="spacing" textLength="122.0391" x="104.522" y="223.957">(nom, email, message)</text><rect fill="#F1F1F1" height="35.0938" rx="12.5" ry="12.5" style="stroke:#181818;stroke-width:0.5;" width="75.3594" x="127.8618" y="256.5938"/><text fill="#000000" font-family="sans-serif" font-size="12" lengthAdjust="spacing" textLength="55.3594" x="137.8618" y="279.0508">Soumettre</text><rect fill="none" height="304.1719" style="stroke:#000000;stroke-width:1.5;" width="294.7461" x="11" y="313.6875"/><path d="M75.4619,313.6875 L75.4619,324.2969 L65.4619,334.2969 L11,334.2969" fill="none" style="stroke:#000000;stroke-width:1.5;"/><text fill="#000000" font-family="sans-serif" font-size="14" lengthAdjust="spacing" textLength="54.4619" x="14" y="329.2207">Syst&#232;me</text><rect fill="#F1F1F1" height="50.1875" rx="12.5" ry="12.5" style="stroke:#181818;stroke-width:0.5;" width="121.3789" x="104.8521" y="351.2969"/><text fill="#000000" font-family="sans-serif" font-size="12" lengthAdjust="spacing" textLength="101.3789" x="114.8521" y="373.7539">Valider les champs</text><text fill="#000000" font-family="sans-serif" font-size="12" lengthAdjust="spacing" textLength="74.0215" x="114.8521" y="388.8477">(c&#244;t&#233; serveur)</text><polygon fill="#F1F1F1" points="145.6658,421.4844,185.4172,421.4844,197.4172,433.4844,185.4172,445.4844,145.6658,445.4844,133.6658,433.4844,145.6658,421.4844" style="stroke:#181818;stroke-width:0.5;"/><text fill="#000000" font-family="sans-serif" font-size="11" lengthAdjust="spacing" textLength="39.7515" x="145.6658" y="437.9854">Valide ?</text><text fill="#000000" font-family="sans-serif" font-size="11" lengthAdjust="spacing" textLength="17.1177" x="116.5481" y="431.0674">Oui</text><text fill="#000000" font-family="sans-serif" font-size="11" lengthAdjust="spacing" textLength="20.1792" x="197.4172" y="431.0674">Non</text><rect fill="#F1F1F1" height="50.1875" rx="12.5" ry="12.5" style="stroke:#181818;stroke-width:0.5;" width="124.7246" x="32.3242" y="455.4844"/><text fill="#000000" font-family="sans-serif" font-size="12" lengthAdjust="spacing" textLength="104.7246" x="42.3242" y="477.9414">Enregistrer en base</text><text fill="#000000" font-family="sans-serif" font-size="12" lengthAdjust="spacing" textLength="79.0371" x="42.3242" y="493.0352">(est_lu = false)</text><rect fill="#F1F1F1" height="50.1875" rx="12.5" ry="12.5" style="stroke:#181818;stroke-width:0.5;" width="134.7148" x="27.3291" y="525.6719"/><text fill="#000000" font-family="sans-serif" font-size="12" lengthAdjust="spacing" textLength="114.7148" x="37.3291" y="548.1289">Notifier le propri&#233;taire</text><text fill="#000000" font-family="sans-serif" font-size="12" lengthAdjust="spacing" textLength="78.0469" x="37.3291" y="563.2227">par notification</text><rect fill="#F1F1F1" height="50.1875" rx="12.5" ry="12.5" style="stroke:#181818;stroke-width:0.5;" width="108.7051" x="182.0439" y="455.4844"/><text fill="#000000" font-family="sans-serif" font-size="12" lengthAdjust="spacing" textLength="88.7051" x="192.0439" y="477.9414">Retourner erreur</text><text fill="#000000" font-family="sans-serif" font-size="12" lengthAdjust="spacing" textLength="67.3828" x="192.0439" y="493.0352">de validation</text><polygon fill="#F1F1F1" points="165.5415,581.8594,177.5415,593.8594,165.5415,605.8594,153.5415,593.8594,165.5415,581.8594" style="stroke:#181818;stroke-width:0.5;"/><rect fill="none" height="233.9844" style="stroke:#000000;stroke-width:1.5;" width="279.749" x="23" y="627.8594"/><path d="M89.0342,627.8594 L89.0342,638.4688 L79.0342,648.4688 L23,648.4688" fill="none" style="stroke:#000000;stroke-width:1.5;"/><text fill="#000000" font-family="sans-serif" font-size="14" lengthAdjust="spacing" textLength="56.0342" x="26" y="643.3926">Frontend</text><polygon fill="#F1F1F1" points="127.3235,665.4688,203.7595,665.4688,215.7595,677.4688,203.7595,689.4688,127.3235,689.4688,115.3235,677.4688,127.3235,665.4688" style="stroke:#181818;stroke-width:0.5;"/><text fill="#000000" font-family="sans-serif" font-size="11" lengthAdjust="spacing" textLength="76.436" x="127.3235" y="681.9697">Validation OK ?</text><text fill="#000000" font-family="sans-serif" font-size="11" lengthAdjust="spacing" textLength="17.1177" x="98.2058" y="675.0518">Oui</text><rect fill="#F1F1F1" height="50.1875" rx="12.5" ry="12.5" style="stroke:#181818;stroke-width:0.5;" width="112.707" x="43" y="699.4688"/><text fill="#000000" font-family="sans-serif" font-size="12" lengthAdjust="spacing" textLength="92.707" x="53" y="721.9258">Afficher message</text><text fill="#000000" font-family="sans-serif" font-size="12" lengthAdjust="spacing" textLength="82.043" x="53" y="737.0195">de confirmation</text><rect fill="#F1F1F1" height="50.1875" rx="12.5" ry="12.5" style="stroke:#181818;stroke-width:0.5;" width="112.0449" x="175.707" y="699.4688"/><text fill="#000000" font-family="sans-serif" font-size="12" lengthAdjust="spacing" textLength="76.0254" x="185.707" y="721.9258">Afficher erreur</text><text fill="#000000" font-family="sans-serif" font-size="12" lengthAdjust="spacing" textLength="92.0449" x="185.707" y="737.0195">champs invalides</text><rect fill="#F1F1F1" height="50.1875" rx="12.5" ry="12.5" style="stroke:#181818;stroke-width:0.5;" width="85.3555" x="189.0518" y="769.6563"/><text fill="#000000" font-family="sans-serif" font-size="12" lengthAdjust="spacing" textLength="65.3555" x="199.0518" y="792.1133">Permettre la</text><text fill="#000000" font-family="sans-serif" font-size="12" lengthAdjust="spacing" textLength="52.6875" x="199.0518" y="807.207">correction</text><polygon fill="#F1F1F1" points="165.5415,825.8438,177.5415,837.8438,165.5415,849.8438,153.5415,837.8438,165.5415,825.8438" style="stroke:#181818;stroke-width:0.5;"/><ellipse cx="165.5415" cy="892.8438" fill="none" rx="11" ry="11" style="stroke:#222222;stroke-width:1;"/><ellipse cx="165.5415" cy="892.8438" fill="#222222" rx="6" ry="6" style="stroke:#222222;stroke-width:1;"/><line style="stroke:#181818;stroke-width:1;" x1="165.5415" x2="165.5415" y1="166.4063" y2="186.4063"/><polygon fill="#181818" points="161.5415,176.4063,165.5415,186.4063,169.5415,176.4063,165.5415,180.4063" style="stroke:#181818;stroke-width:1;"/><line style="stroke:#181818;stroke-width:1;" x1="165.5415" x2="165.5415" y1="236.5938" y2="256.5938"/><polygon fill="#181818" points="161.5415,246.5938,165.5415,256.5938,169.5415,246.5938,165.5415,250.5938" style="stroke:#181818;stroke-width:1;"/><line style="stroke:#181818;stroke-width:1;" x1="165.5415" x2="165.5415" y1="68.6094" y2="116.2188"/><polygon fill="#181818" points="161.5415,106.2188,165.5415,116.2188,169.5415,106.2188,165.5415,110.2188" style="stroke:#181818;stroke-width:1;"/><line style="stroke:#181818;stroke-width:1;" x1="94.6865" x2="94.6865" y1="505.6719" y2="525.6719"/><polygon fill="#181818" points="90.6865,515.6719,94.6865,525.6719,98.6865,515.6719,94.6865,519.6719" style="stroke:#181818;stroke-width:1;"/><line style="stroke:#181818;stroke-width:1;" x1="133.6658" x2="94.6865" y1="433.4844" y2="433.4844"/><line style="stroke:#181818;stroke-width:1;" x1="94.6865" x2="94.6865" y1="433.4844" y2="455.4844"/><polygon fill="#181818" points="90.6865,445.4844,94.6865,455.4844,98.6865,445.4844,94.6865,449.4844" style="stroke:#181818;stroke-width:1;"/><line style="stroke:#181818;stroke-width:1;" x1="197.4172" x2="236.3965" y1="433.4844" y2="433.4844"/><line style="stroke:#181818;stroke-width:1;" x1="236.3965" x2="236.3965" y1="433.4844" y2="455.4844"/><polygon fill="#181818" points="232.3965,445.4844,236.3965,455.4844,240.3965,445.4844,236.3965,449.4844" style="stroke:#181818;stroke-width:1;"/><line style="stroke:#181818;stroke-width:1;" x1="94.6865" x2="94.6865" y1="575.8594" y2="593.8594"/><line style="stroke:#181818;stroke-width:1;" x1="94.6865" x2="153.5415" y1="593.8594" y2="593.8594"/><polygon fill="#181818" points="143.5415,589.8594,153.5415,593.8594,143.5415,597.8594,147.5415,593.8594" style="stroke:#181818;stroke-width:1;"/><line style="stroke:#181818;stroke-width:1;" x1="236.3965" x2="236.3965" y1="505.6719" y2="593.8594"/><line style="stroke:#181818;stroke-width:1;" x1="236.3965" x2="177.5415" y1="593.8594" y2="593.8594"/><polygon fill="#181818" points="187.5415,589.8594,177.5415,593.8594,187.5415,597.8594,183.5415,593.8594" style="stroke:#181818;stroke-width:1;"/><line style="stroke:#181818;stroke-width:1;" x1="165.5415" x2="165.5415" y1="401.4844" y2="421.4844"/><polygon fill="#181818" points="161.5415,411.4844,165.5415,421.4844,169.5415,411.4844,165.5415,415.4844" style="stroke:#181818;stroke-width:1;"/><line style="stroke:#181818;stroke-width:1;" x1="165.5415" x2="165.5415" y1="291.6875" y2="351.2969"/><polygon fill="#181818" points="161.5415,341.2969,165.5415,351.2969,169.5415,341.2969,165.5415,345.2969" style="stroke:#181818;stroke-width:1;"/><line style="stroke:#181818;stroke-width:1;" x1="231.7295" x2="231.7295" y1="749.6563" y2="769.6563"/><polygon fill="#181818" points="227.7295,759.6563,231.7295,769.6563,235.7295,759.6563,231.7295,763.6563" style="stroke:#181818;stroke-width:1;"/><line style="stroke:#181818;stroke-width:1;" x1="115.3235" x2="99.3535" y1="677.4688" y2="677.4688"/><line style="stroke:#181818;stroke-width:1;" x1="99.3535" x2="99.3535" y1="677.4688" y2="699.4688"/><polygon fill="#181818" points="95.3535,689.4688,99.3535,699.4688,103.3535,689.4688,99.3535,693.4688" style="stroke:#181818;stroke-width:1;"/><line style="stroke:#181818;stroke-width:1;" x1="215.7595" x2="231.7295" y1="677.4688" y2="677.4688"/><line style="stroke:#181818;stroke-width:1;" x1="231.7295" x2="231.7295" y1="677.4688" y2="699.4688"/><polygon fill="#181818" points="227.7295,689.4688,231.7295,699.4688,235.7295,689.4688,231.7295,693.4688" style="stroke:#181818;stroke-width:1;"/><line style="stroke:#181818;stroke-width:1;" x1="99.3535" x2="99.3535" y1="749.6563" y2="837.8438"/><line style="stroke:#181818;stroke-width:1;" x1="99.3535" x2="153.5415" y1="837.8438" y2="837.8438"/><polygon fill="#181818" points="143.5415,833.8438,153.5415,837.8438,143.5415,841.8438,147.5415,837.8438" style="stroke:#181818;stroke-width:1;"/><line style="stroke:#181818;stroke-width:1;" x1="231.7295" x2="231.7295" y1="819.8438" y2="837.8438"/><line style="stroke:#181818;stroke-width:1;" x1="231.7295" x2="177.5415" y1="837.8438" y2="837.8438"/><polygon fill="#181818" points="187.5415,833.8438,177.5415,837.8438,187.5415,841.8438,183.5415,837.8438" style="stroke:#181818;stroke-width:1;"/><line style="stroke:#181818;stroke-width:1;" x1="165.5415" x2="165.5415" y1="605.8594" y2="665.4688"/><polygon fill="#181818" points="161.5415,655.4688,165.5415,665.4688,169.5415,655.4688,165.5415,659.4688" style="stroke:#181818;stroke-width:1;"/><line style="stroke:#181818;stroke-width:1;" x1="165.5415" x2="165.5415" y1="849.8438" y2="881.8438"/><polygon fill="#181818" points="161.5415,871.8438,165.5415,881.8438,169.5415,871.8438,165.5415,875.8438" style="stroke:#181818;stroke-width:1;"/><!--SRC=[RP5DJW9148NtSueAAqWu0SGO5henWe645Obfcngef7ycrJKandWNbxBt1dCngtjGGTtCOlgzUj-h4XA7CBD21vBk21EuHx0nYB62N5L934jLDVebeHXWJOa4MuQN2c0oixOxRf6XUmDde34xt8J1-OZ1DEkMw1j739fLH_QjCyIg78Renu3Ua1k3nvJKFog6LMmzYZ1EgzVp-DLpakxTOn-_DevokiC4TczyatIcxJvoauHyKCuoZceOzbgu7e7iCS1mqT98dtJAJM3SKT8m1drvCYcZOP97ry8LrCQbdagryoXKKuc4XcF3r1sbBwEG4CgpDParEr2jC9p7S8fQeiIMGmvYLhfDKAH39lknX2tLbwLlMRUf_qlfxox50Okx_ohDQgNOQynfgIL7Rr8J-mkuN_8lgdwPGA6mOJgrVq3khwB7Lb5KjVt3dIGsdm00]--></g></svg>