<svg xmlns="http://www.w3.org/2000/svg" xmlns:xlink="http://www.w3.org/1999/xlink" contentStyleType="text/css" data-diagram-type="ACTIVITY" height="805px" preserveAspectRatio="none" style="width:433px;height:805px;background:#FFFFFF;" version="1.1" viewBox="0 0 433 805" width="433px" zoomAndPan="magnify"><title>Activit&#233; : G&#233;rer les domaines d'int&#233;r&#234;t</title><defs/><g><text fill="#000000" font-family="sans-serif" font-size="14" font-weight="bold" lengthAdjust="spacing" textLength="251.5215" x="89.647" y="34.5332">Activit&#233; : G&#233;rer les domaines d'int&#233;r&#234;t</text><ellipse cx="225.0781" cy="58.6094" fill="#222222" rx="10" ry="10" style="stroke:#222222;stroke-width:1;"/><rect fill="none" height="302.9141" style="stroke:#000000;stroke-width:1.5;" width="411.8154" x="11" y="78.6094"/><path d="M93.3652,78.6094 L93.3652,89.2188 L83.3652,99.2188 L11,99.2188" fill="none" style="stroke:#000000;stroke-width:1.5;"/><text fill="#000000" font-family="sans-serif" font-size="14" lengthAdjust="spacing" textLength="72.3652" x="14" y="94.1426">Propri&#233;taire</text><rect fill="#F1F1F1" height="50.1875" rx="12.5" ry="12.5" style="stroke:#181818;stroke-width:0.5;" width="106.5547" x="171.8008" y="116.2188"/><text fill="#000000" font-family="sans-serif" font-size="12" lengthAdjust="spacing" textLength="54.0293" x="181.8008" y="138.6758">Acc&#233;der &#224;</text><text fill="#000000" font-family="sans-serif" font-size="12" lengthAdjust="spacing" textLength="86.5547" x="181.8008" y="153.7695">"Mes domaines"</text><polygon fill="#F1F1F1" points="63.1553,186.4063,102.9014,186.4063,114.9014,198.4063,102.9014,210.4063,63.1553,210.4063,51.1553,198.4063,63.1553,186.4063" style="stroke:#181818;stroke-width:0.5;"/><text fill="#000000" font-family="sans-serif" font-size="11" lengthAdjust="spacing" textLength="27.5054" x="87.0283" y="221.8252">Cr&#233;er</text><text fill="#000000" font-family="sans-serif" font-size="11" lengthAdjust="spacing" textLength="39.7461" x="63.1553" y="202.9072">Action ?</text><rect fill="#F1F1F1" height="50.1875" rx="12.5" ry="12.5" style="stroke:#181818;stroke-width:0.5;" width="124.0566" x="21" y="244.2422"/><text fill="#000000" font-family="sans-serif" font-size="12" lengthAdjust="spacing" textLength="88.6992" x="31" y="266.6992">Saisir nom, slug,</text><text fill="#000000" font-family="sans-serif" font-size="12" lengthAdjust="spacing" textLength="104.0566" x="31" y="281.793">description, couleur</text><polygon fill="#F1F1F1" points="199.8701,186.4063,238.9932,186.4063,250.9932,198.4063,238.9932,210.4063,199.8701,210.4063,187.8701,198.4063,199.8701,186.4063" style="stroke:#181818;stroke-width:0.5;"/><text fill="#000000" font-family="sans-serif" font-size="11" lengthAdjust="spacing" textLength="39.123" x="199.8701" y="202.9072">Modifier</text><rect fill="#F1F1F1" height="50.1875" rx="12.5" ry="12.5" style="stroke:#181818;stroke-width:0.5;" width="110.7207" x="164.0713" y="230.4063"/><text fill="#000000" font-family="sans-serif" font-size="12" lengthAdjust="spacing" textLength="83.3906" x="174.0713" y="252.8633">S&#233;lectionner un</text><text fill="#000000" font-family="sans-serif" font-size="12" lengthAdjust="spacing" textLength="90.7207" x="174.0713" y="267.957">domaine existant</text><rect fill="#F1F1F1" height="35.0938" rx="12.5" ry="12.5" style="stroke:#181818;stroke-width:0.5;" width="110.0352" x="164.4141" y="314.4297"/><text fill="#000000" font-family="sans-serif" font-size="12" lengthAdjust="spacing" textLength="90.0352" x="174.4141" y="336.8867">Modifier les infos</text><polygon fill="#F1F1F1" points="312.0964,186.4063,362.8372,186.4063,374.8372,198.4063,362.8372,210.4063,312.0964,210.4063,300.0964,198.4063,312.0964,186.4063" style="stroke:#181818;stroke-width:0.5;"/><text fill="#000000" font-family="sans-serif" font-size="11" lengthAdjust="spacing" textLength="50.7407" x="312.0964" y="202.9072">Supprimer</text><rect fill="#F1F1F1" height="50.1875" rx="12.5" ry="12.5" style="stroke:#181818;stroke-width:0.5;" width="85.3496" x="294.792" y="230.4063"/><text fill="#000000" font-family="sans-serif" font-size="12" lengthAdjust="spacing" textLength="65.3496" x="304.792" y="252.8633">Confirmer la</text><text fill="#000000" font-family="sans-serif" font-size="12" lengthAdjust="spacing" textLength="64.7051" x="304.792" y="267.957">suppression</text><rect fill="none" height="250.8203" style="stroke:#000000;stroke-width:1.5;" width="399.1416" x="17.3369" y="391.5234"/><path d="M81.7988,391.5234 L81.7988,402.1328 L71.7988,412.1328 L17.3369,412.1328" fill="none" style="stroke:#000000;stroke-width:1.5;"/><text fill="#000000" font-family="sans-serif" font-size="14" lengthAdjust="spacing" textLength="54.4619" x="20.3369" y="407.0566">Syst&#232;me</text><polygon fill="#F1F1F1" points="61.8164,432.1328,101.5625,432.1328,113.5625,444.1328,101.5625,456.1328,61.8164,456.1328,49.8164,444.1328,61.8164,432.1328" style="stroke:#181818;stroke-width:0.5;"/><text fill="#000000" font-family="sans-serif" font-size="11" lengthAdjust="spacing" textLength="27.5054" x="85.6895" y="467.5518">Cr&#233;er</text><text fill="#000000" font-family="sans-serif" font-size="11" lengthAdjust="spacing" textLength="39.7461" x="61.8164" y="448.6338">Action ?</text><rect fill="#F1F1F1" height="50.1875" rx="12.5" ry="12.5" style="stroke:#181818;stroke-width:0.5;" width="108.7051" x="27.3369" y="489.9688"/><text fill="#000000" font-family="sans-serif" font-size="12" lengthAdjust="spacing" textLength="88.7051" x="37.3369" y="512.4258">Ins&#233;rer Domaine</text><text fill="#000000" font-family="sans-serif" font-size="12" lengthAdjust="spacing" textLength="42.7031" x="37.3369" y="527.5195">en base</text><polygon fill="#F1F1F1" points="179.1748,432.1328,218.2979,432.1328,230.2979,444.1328,218.2979,456.1328,179.1748,456.1328,167.1748,444.1328,179.1748,432.1328" style="stroke:#181818;stroke-width:0.5;"/><text fill="#000000" font-family="sans-serif" font-size="11" lengthAdjust="spacing" textLength="39.123" x="179.1748" y="448.6338">Modifier</text><rect fill="#F1F1F1" height="50.1875" rx="12.5" ry="12.5" style="stroke:#181818;stroke-width:0.5;" width="87.3594" x="155.0566" y="476.1328"/><text fill="#000000" font-family="sans-serif" font-size="12" lengthAdjust="spacing" textLength="67.3594" x="165.0566" y="498.5898">Mettre &#224; jour</text><text fill="#000000" font-family="sans-serif" font-size="12" lengthAdjust="spacing" textLength="60.6914" x="165.0566" y="513.6836">les champs</text><polygon fill="#F1F1F1" points="292.74,432.1328,343.4807,432.1328,355.4807,444.1328,343.4807,456.1328,292.74,456.1328,280.74,444.1328,292.74,432.1328" style="stroke:#181818;stroke-width:0.5;"/><text fill="#000000" font-family="sans-serif" font-size="11" lengthAdjust="spacing" textLength="50.7407" x="292.74" y="448.6338">Supprimer</text><rect fill="#F1F1F1" height="50.1875" rx="12.5" ry="12.5" style="stroke:#181818;stroke-width:0.5;" width="111.3887" x="262.416" y="476.1328"/><text fill="#000000" font-family="sans-serif" font-size="12" lengthAdjust="spacing" textLength="71.373" x="272.416" y="498.5898">D&#233;tacher des</text><text fill="#000000" font-family="sans-serif" font-size="12" lengthAdjust="spacing" textLength="91.3887" x="272.416" y="513.6836">publications li&#233;es</text><rect fill="#F1F1F1" height="50.1875" rx="12.5" ry="12.5" style="stroke:#181818;stroke-width:0.5;" width="88.0273" x="274.0967" y="560.1563"/><text fill="#000000" font-family="sans-serif" font-size="12" lengthAdjust="spacing" textLength="68.0273" x="284.0967" y="582.6133">Supprimer le</text><text fill="#000000" font-family="sans-serif" font-size="12" lengthAdjust="spacing" textLength="46.0313" x="284.0967" y="597.707">domaine</text><rect fill="none" height="99.7969" style="stroke:#000000;stroke-width:1.5;" width="118.709" x="165.7236" y="652.3438"/><path d="M231.7578,652.3438 L231.7578,662.9531 L221.7578,672.9531 L165.7236,672.9531" fill="none" style="stroke:#000000;stroke-width:1.5;"/><text fill="#000000" font-family="sans-serif" font-size="14" lengthAdjust="spacing" textLength="56.0342" x="168.7236" y="667.877">Frontend</text><rect fill="#F1F1F1" height="50.1875" rx="12.5" ry="12.5" style="stroke:#181818;stroke-width:0.5;" width="98.709" x="175.7236" y="689.9531"/><text fill="#000000" font-family="sans-serif" font-size="12" lengthAdjust="spacing" textLength="53.3555" x="185.7236" y="712.4102">Afficher la</text><text fill="#000000" font-family="sans-serif" font-size="12" lengthAdjust="spacing" textLength="78.709" x="185.7236" y="727.5039">liste actualis&#233;e</text><ellipse cx="225.0781" cy="783.1406" fill="none" rx="11" ry="11" style="stroke:#222222;stroke-width:1;"/><ellipse cx="225.0781" cy="783.1406" fill="#222222" rx="6" ry="6" style="stroke:#222222;stroke-width:1;"/><line style="stroke:#181818;stroke-width:1;" x1="219.4316" x2="219.4316" y1="280.5938" y2="314.4297"/><polygon fill="#181818" points="215.4316,304.4297,219.4316,314.4297,223.4316,304.4297,219.4316,308.4297" style="stroke:#181818;stroke-width:1;"/><line style="stroke:#181818;stroke-width:1;" x1="83.0283" x2="83.0283" y1="210.4063" y2="244.2422"/><polygon fill="#181818" points="79.0283,234.2422,83.0283,244.2422,87.0283,234.2422,83.0283,238.2422" style="stroke:#181818;stroke-width:1;"/><line style="stroke:#181818;stroke-width:1;" x1="83.0283" x2="83.0283" y1="294.4297" y2="369.5234"/><polygon fill="#181818" points="79.0283,359.5234,83.0283,369.5234,87.0283,359.5234,83.0283,363.5234" style="stroke:#181818;stroke-width:1;"/><line style="stroke:#181818;stroke-width:1;" x1="219.4316" x2="219.4316" y1="210.4063" y2="230.4063"/><polygon fill="#181818" points="215.4316,220.4063,219.4316,230.4063,223.4316,220.4063,219.4316,224.4063" style="stroke:#181818;stroke-width:1;"/><line style="stroke:#181818;stroke-width:1;" x1="219.4316" x2="219.4316" y1="349.5234" y2="369.5234"/><polygon fill="#181818" points="215.4316,359.5234,219.4316,369.5234,223.4316,359.5234,219.4316,363.5234" style="stroke:#181818;stroke-width:1;"/><line style="stroke:#181818;stroke-width:1;" x1="337.4668" x2="337.4668" y1="210.4063" y2="230.4063"/><polygon fill="#181818" points="333.4668,220.4063,337.4668,230.4063,341.4668,220.4063,337.4668,224.4063" style="stroke:#181818;stroke-width:1;"/><line style="stroke:#181818;stroke-width:1;" x1="337.4668" x2="337.4668" y1="280.5938" y2="369.5234"/><polygon fill="#181818" points="333.4668,359.5234,337.4668,369.5234,341.4668,359.5234,337.4668,363.5234" style="stroke:#181818;stroke-width:1;"/><line style="stroke:#181818;stroke-width:1;" x1="114.9014" x2="187.8701" y1="198.4063" y2="198.4063"/><polygon fill="#181818" points="177.8701,194.4063,187.8701,198.4063,177.8701,202.4063,181.8701,198.4063" style="stroke:#181818;stroke-width:1;"/><line style="stroke:#181818;stroke-width:1;" x1="250.9932" x2="300.0964" y1="198.4063" y2="198.4063"/><polygon fill="#181818" points="290.0964,194.4063,300.0964,198.4063,290.0964,202.4063,294.0964,198.4063" style="stroke:#181818;stroke-width:1;"/><line style="stroke:#181818;stroke-width:1;" x1="225.0781" x2="225.0781" y1="166.4063" y2="171.4063"/><line style="stroke:#181818;stroke-width:1;" x1="225.0781" x2="83.0283" y1="171.4063" y2="171.4063"/><line style="stroke:#181818;stroke-width:1;" x1="83.0283" x2="83.0283" y1="171.4063" y2="186.4063"/><polygon fill="#181818" points="79.0283,176.4063,83.0283,186.4063,87.0283,176.4063,83.0283,180.4063" style="stroke:#181818;stroke-width:1;"/><line style="stroke:#181818;stroke-width:1;" x1="374.8372" x2="400.4785" y1="198.4063" y2="198.4063"/><line style="stroke:#181818;stroke-width:1;" x1="400.4785" x2="400.4785" y1="198.4063" y2="369.5234"/><polygon fill="#181818" points="396.4785,359.5234,400.4785,369.5234,404.4785,359.5234,400.4785,363.5234" style="stroke:#181818;stroke-width:1;"/><line style="stroke:#181818;stroke-width:1;" x1="83.0283" x2="400.4785" y1="369.5234" y2="369.5234"/><line style="stroke:#181818;stroke-width:1;" x1="225.0781" x2="225.0781" y1="68.6094" y2="116.2188"/><polygon fill="#181818" points="221.0781,106.2188,225.0781,116.2188,229.0781,106.2188,225.0781,110.2188" style="stroke:#181818;stroke-width:1;"/><line style="stroke:#181818;stroke-width:1;" x1="318.1104" x2="318.1104" y1="526.3203" y2="560.1563"/><polygon fill="#181818" points="314.1104,550.1563,318.1104,560.1563,322.1104,550.1563,318.1104,554.1563" style="stroke:#181818;stroke-width:1;"/><line style="stroke:#181818;stroke-width:1;" x1="81.6895" x2="81.6895" y1="456.1328" y2="489.9688"/><polygon fill="#181818" points="77.6895,479.9688,81.6895,489.9688,85.6895,479.9688,81.6895,483.9688" style="stroke:#181818;stroke-width:1;"/><line style="stroke:#181818;stroke-width:1;" x1="81.6895" x2="81.6895" y1="540.1563" y2="630.3438"/><polygon fill="#181818" points="77.6895,620.3438,81.6895,630.3438,85.6895,620.3438,81.6895,624.3438" style="stroke:#181818;stroke-width:1;"/><line style="stroke:#181818;stroke-width:1;" x1="198.7363" x2="198.7363" y1="456.1328" y2="476.1328"/><polygon fill="#181818" points="194.7363,466.1328,198.7363,476.1328,202.7363,466.1328,198.7363,470.1328" style="stroke:#181818;stroke-width:1;"/><line style="stroke:#181818;stroke-width:1;" x1="198.7363" x2="198.7363" y1="526.3203" y2="630.3438"/><polygon fill="#181818" points="194.7363,620.3438,198.7363,630.3438,202.7363,620.3438,198.7363,624.3438" style="stroke:#181818;stroke-width:1;"/><line style="stroke:#181818;stroke-width:1;" x1="318.1104" x2="318.1104" y1="456.1328" y2="476.1328"/><polygon fill="#181818" points="314.1104,466.1328,318.1104,476.1328,322.1104,466.1328,318.1104,470.1328" style="stroke:#181818;stroke-width:1;"/><line style="stroke:#181818;stroke-width:1;" x1="318.1104" x2="318.1104" y1="610.3438" y2="630.3438"/><polygon fill="#181818" points="314.1104,620.3438,318.1104,630.3438,322.1104,620.3438,318.1104,624.3438" style="stroke:#181818;stroke-width:1;"/><line style="stroke:#181818;stroke-width:1;" x1="113.5625" x2="167.1748" y1="444.1328" y2="444.1328"/><polygon fill="#181818" points="157.1748,440.1328,167.1748,444.1328,157.1748,448.1328,161.1748,444.1328" style="stroke:#181818;stroke-width:1;"/><line style="stroke:#181818;stroke-width:1;" x1="230.2979" x2="280.74" y1="444.1328" y2="444.1328"/><polygon fill="#181818" points="270.74,440.1328,280.74,444.1328,270.74,448.1328,274.74,444.1328" style="stroke:#181818;stroke-width:1;"/><line style="stroke:#181818;stroke-width:1;" x1="225.0781" x2="225.0781" y1="369.5234" y2="417.1328"/><line style="stroke:#181818;stroke-width:1;" x1="225.0781" x2="81.6895" y1="417.1328" y2="417.1328"/><line style="stroke:#181818;stroke-width:1;" x1="81.6895" x2="81.6895" y1="417.1328" y2="432.1328"/><polygon fill="#181818" points="77.6895,422.1328,81.6895,432.1328,85.6895,422.1328,81.6895,426.1328" style="stroke:#181818;stroke-width:1;"/><line style="stroke:#181818;stroke-width:1;" x1="355.4807" x2="394.1416" y1="444.1328" y2="444.1328"/><line style="stroke:#181818;stroke-width:1;" x1="394.1416" x2="394.1416" y1="444.1328" y2="630.3438"/><polygon fill="#181818" points="390.1416,620.3438,394.1416,630.3438,398.1416,620.3438,394.1416,624.3438" style="stroke:#181818;stroke-width:1;"/><line style="stroke:#181818;stroke-width:1;" x1="81.6895" x2="394.1416" y1="630.3438" y2="630.3438"/><line style="stroke:#181818;stroke-width:1;" x1="225.0781" x2="225.0781" y1="630.3438" y2="689.9531"/><polygon fill="#181818" points="221.0781,679.9531,225.0781,689.9531,229.0781,679.9531,225.0781,683.9531" style="stroke:#181818;stroke-width:1;"/><line style="stroke:#181818;stroke-width:1;" x1="225.0781" x2="225.0781" y1="740.1406" y2="772.1406"/><polygon fill="#181818" points="221.0781,762.1406,225.0781,772.1406,229.0781,762.1406,225.0781,766.1406" style="stroke:#181818;stroke-width:1;"/><!--SRC=[XPB1JiCm38RlVGgB2vkq9zWEQDe4uZ09QTTUiinbHgbJnGa28TvbHyfhvCLmsZ6D0zgbZUhyd_t_RgJe49OsqYl5tCCS7d8VC813WRrl3N4vt19hDUJlM5KIJT1Nfq-Av1cUWky2vJuQ2WWV5S1yQMtkzuh9nvflDXUicuNMgO59wQdYkod40p9CLY7t6APQLVtMa500zkqCnANdMSrx51keAw8PM9ySfb1Ow0GBR-Ftr90I1ju9atk7Gn_MMH8hPHm3y8tK1yV5UF5NFDWcRhnSehUfKuFjN_RASqEXBHfJivGhAAAj1YKhh_gyJ6dxBZ5_jMD0LmDuP1dti1u7hbclx8pWDSiRZ56ta8_mubEekHYo1zDsrnsjomhjGPjgrZLtQUV8cZAaWDFzefpIEgirhdEa_zY-3vwZVZ_z5qr3GuUIcTCL81WRaz6ZyXT5Aj5tFm00]--></g></svg>