<svg xmlns="http://www.w3.org/2000/svg" xmlns:xlink="http://www.w3.org/1999/xlink" contentStyleType="text/css" data-diagram-type="DESCRIPTION" height="1253px" preserveAspectRatio="none" style="width:1302px;height:1253px;background:#FFFFFF;" version="1.1" viewBox="0 0 1302 1253" width="1302px" zoomAndPan="magnify"><title>Diagramme de Composants (Architecture Docker)</title><defs/><g><text fill="#000000" font-family="sans-serif" font-size="14" font-weight="bold" lengthAdjust="spacing" textLength="332.1992" x="478.2317" y="24.5332">Diagramme de Composants (Architecture Docker)</text><!--cluster Browser--><g class="cluster" data-entity="Browser" data-source-line="5" data-uid="ent0002" id="cluster_Browser"><path d="M863.5,44.6094 L979.6377,44.6094 A3.75,3.75 0 0 1 982.1377,47.1094 L989.1377,68.2188 L1075.5,68.2188 A2.5,2.5 0 0 1 1078,70.7188 L1078,281.1094 A2.5,2.5 0 0 1 1075.5,283.6094 L863.5,283.6094 A2.5,2.5 0 0 1 861,281.1094 L861,47.1094 A2.5,2.5 0 0 1 863.5,44.6094" fill="none" style="stroke:#000000;stroke-width:1.5;"/><line style="stroke:#000000;stroke-width:1.5;" x1="861" x2="989.1377" y1="68.2188" y2="68.2188"/><text fill="#000000" font-family="sans-serif" font-size="14" font-weight="bold" lengthAdjust="spacing" textLength="115.1377" x="865" y="61.1426">Client Navigateur</text></g><!--cluster Docker--><g class="cluster" data-entity="Docker" data-source-line="10" data-uid="ent0005" id="cluster_Docker"><path d="M8.5,341.6094 L126.1689,341.6094 A3.75,3.75 0 0 1 128.6689,344.1094 L135.6689,365.2187 L793.5,365.2187 A2.5,2.5 0 0 1 796,367.7187 L796,1057.9694 A2.5,2.5 0 0 1 793.5,1060.4694 L8.5,1060.4694 A2.5,2.5 0 0 1 6,1057.9694 L6,344.1094 A2.5,2.5 0 0 1 8.5,341.6094" fill="none" style="stroke:#000000;stroke-width:1.5;"/><line style="stroke:#000000;stroke-width:1.5;" x1="6" x2="135.6689" y1="365.2187" y2="365.2187"/><text fill="#000000" font-family="sans-serif" font-size="14" font-weight="bold" lengthAdjust="spacing" textLength="116.6689" x="10" y="358.1426">Docker : portfolio</text></g><!--cluster Nginx--><g class="cluster" data-entity="Nginx" data-source-line="11" data-uid="ent0006" id="cluster_Nginx"><path d="M572.5,393.6094 L715.8857,393.6094 A3.75,3.75 0 0 1 718.3857,396.1094 L725.3857,417.2187 L761.5,417.2187 A2.5,2.5 0 0 1 764,419.7187 L764,697.9694 A2.5,2.5 0 0 1 761.5,700.4694 L572.5,700.4694 A2.5,2.5 0 0 1 570,697.9694 L570,396.1094 A2.5,2.5 0 0 1 572.5,393.6094" fill="none" style="stroke:#000000;stroke-width:1.5;"/><line style="stroke:#000000;stroke-width:1.5;" x1="570" x2="725.3857" y1="417.2187" y2="417.2187"/><text fill="#000000" font-family="sans-serif" font-size="14" font-weight="bold" lengthAdjust="spacing" textLength="142.3857" x="574" y="410.1426">nginx (reverse proxy)</text></g><!--cluster PHP--><g class="cluster" data-entity="PHP" data-source-line="16" data-uid="ent0009" id="cluster_PHP"><path d="M453.5,758.4694 L575.8311,758.4694 A3.75,3.75 0 0 1 578.3311,760.9694 L585.3311,782.0787 L769.5,782.0787 A2.5,2.5 0 0 1 772,784.5787 L772,1033.9694 A2.5,2.5 0 0 1 769.5,1036.4694 L453.5,1036.4694 A2.5,2.5 0 0 1 451,1033.9694 L451,760.9694 A2.5,2.5 0 0 1 453.5,758.4694" fill="none" style="stroke:#000000;stroke-width:1.5;"/><line style="stroke:#000000;stroke-width:1.5;" x1="451" x2="585.3311" y1="782.0787" y2="782.0787"/><text fill="#000000" font-family="sans-serif" font-size="14" font-weight="bold" lengthAdjust="spacing" textLength="121.3311" x="455" y="775.0026">php-fpm (PHP 8.3)</text></g><!--cluster Workspace--><g class="cluster" data-entity="Workspace" data-source-line="22" data-uid="ent0013" id="cluster_Workspace"><path d="M40.5,620.6094 L149.6377,620.6094 A3.75,3.75 0 0 1 152.1377,623.1094 L159.1377,644.2187 L399.5,644.2187 A2.5,2.5 0 0 1 402,646.7187 L402,862.4694 A2.5,2.5 0 0 1 399.5,864.9694 L40.5,864.9694 A2.5,2.5 0 0 1 38,862.4694 L38,623.1094 A2.5,2.5 0 0 1 40.5,620.6094" fill="none" style="stroke:#000000;stroke-width:1.5;"/><line style="stroke:#000000;stroke-width:1.5;" x1="38" x2="159.1377" y1="644.2187" y2="644.2187"/><text fill="#000000" font-family="sans-serif" font-size="14" font-weight="bold" lengthAdjust="spacing" textLength="108.1377" x="42" y="637.1426">workspace (CLI)</text></g><!--cluster DB--><g class="cluster" data-entity="DB" data-source-line="28" data-uid="ent0017" id="cluster_DB"><path d="M325,932.9694 C325,922.9694 376,922.9694 376,922.9694 C376,922.9694 427,922.9694 427,932.9694 L427,1017.9694 C427,1027.9694 376,1027.9694 376,1027.9694 C376,1027.9694 325,1027.9694 325,1017.9694 L325,932.9694" fill="none" style="stroke:#181818;stroke-width:1;"/><path d="M325,932.9694 C325,942.9694 376,942.9694 376,942.9694 C376,942.9694 427,942.9694 427,932.9694" fill="none" style="stroke:#181818;stroke-width:1;"/><text fill="#000000" font-family="sans-serif" font-size="14" font-weight="bold" lengthAdjust="spacing" textLength="71.5791" x="340.2104" y="959.5026">MySQL 8.0</text></g><!--cluster Ext--><g class="cluster" data-entity="Ext" data-source-line="35" data-uid="ent0020" id="cluster_Ext"><path d="M822.5,929.4694 L944.1406,929.4694 A3.75,3.75 0 0 1 946.6406,931.9694 L953.6406,953.0787 L1254.5,953.0787 A2.5,2.5 0 0 1 1257,955.5787 L1257,1033.9694 A2.5,2.5 0 0 1 1254.5,1036.4694 L822.5,1036.4694 A2.5,2.5 0 0 1 820,1033.9694 L820,931.9694 A2.5,2.5 0 0 1 822.5,929.4694" fill="none" style="stroke:#000000;stroke-width:1.5;"/><line style="stroke:#000000;stroke-width:1.5;" x1="820" x2="953.6406" y1="953.0787" y2="953.0787"/><text fill="#000000" font-family="sans-serif" font-size="14" font-weight="bold" lengthAdjust="spacing" textLength="120.6406" x="824" y="946.0026">Services Externes</text></g><!--entity NextApp--><g class="entity" data-entity="NextApp" data-source-line="6" data-uid="ent0003" id="entity_NextApp"><rect fill="#F1F1F1" height="55.2188" rx="2.5" ry="2.5" style="stroke:#181818;stroke-width:0.5;" width="148.7617" x="885.5" y="88.6094"/><text fill="#000000" font-family="sans-serif" font-size="14" lengthAdjust="spacing" textLength="115.165" x="895.5" y="113.1426">Application Next.js</text><text fill="#000000" font-family="sans-serif" font-size="14" lengthAdjust="spacing" textLength="128.7617" x="895.5" y="130.752">(React + TypeScript)</text></g><!--entity ClientAPI--><g class="entity" data-entity="ClientAPI" data-source-line="7" data-uid="ent0004" id="entity_ClientAPI"><rect fill="#F1F1F1" height="37.6094" rx="2.5" ry="2.5" style="stroke:#181818;stroke-width:0.5;" width="125.8135" x="891" y="221.6094"/><text fill="#000000" font-family="sans-serif" font-size="14" lengthAdjust="spacing" textLength="105.8135" x="901" y="246.1426">Client API (fetch)</text></g><!--entity Storage--><g class="entity" data-entity="Storage" data-source-line="32" data-uid="ent0019" id="entity_Storage"><rect fill="#F1F1F1" height="55.2188" rx="35" ry="35" style="stroke:#181818;stroke-width:0.5;" width="143.7373" x="162" y="965.4694"/><text fill="#000000" font-family="sans-serif" font-size="14" lengthAdjust="spacing" textLength="91.0547" x="172" y="990.0026">Stockage local</text><text fill="#000000" font-family="sans-serif" font-size="14" lengthAdjust="spacing" textLength="123.7373" x="172" y="1007.612">(storage/app/public)</text></g><!--entity Port80--><g class="entity" data-entity="Port80" data-source-line="12" data-uid="ent0007" id="entity_Port80"><ellipse cx="667" cy="513.4694" fill="#F1F1F1" rx="8" ry="8" style="stroke:#181818;stroke-width:0.5;"/><text fill="#000000" font-family="sans-serif" font-size="14" lengthAdjust="spacing" textLength="45.1377" x="644.4312" y="545.0026">Port 80</text></g><!--entity Proxy--><g class="entity" data-entity="Proxy" data-source-line="13" data-uid="ent0008" id="entity_Proxy"><rect fill="#F1F1F1" height="55.2188" rx="2.5" ry="2.5" style="stroke:#181818;stroke-width:0.5;" width="144.5303" x="594.5" y="621.4694"/><text fill="#000000" font-family="sans-serif" font-size="14" lengthAdjust="spacing" textLength="102.6758" x="604.5" y="646.0026">Proxy PHP-FPM</text><text fill="#000000" font-family="sans-serif" font-size="14" lengthAdjust="spacing" textLength="124.5303" x="604.5" y="663.612">Cache statique 1 an</text></g><!--entity Laravel--><g class="entity" data-entity="Laravel" data-source-line="17" data-uid="ent0010" id="entity_Laravel"><rect fill="#F1F1F1" height="55.2188" rx="2.5" ry="2.5" style="stroke:#181818;stroke-width:0.5;" width="147.6201" x="608" y="794.4694"/><text fill="#000000" font-family="sans-serif" font-size="14" lengthAdjust="spacing" textLength="118.2959" x="618" y="819.0026">Application Laravel</text><text fill="#000000" font-family="sans-serif" font-size="14" lengthAdjust="spacing" textLength="127.6201" x="618" y="836.612">(Sanctum, Eloquent)</text></g><!--entity Jobs--><g class="entity" data-entity="Jobs" data-source-line="18" data-uid="ent0011" id="entity_Jobs"><rect fill="#F1F1F1" height="55.2188" rx="2.5" ry="2.5" style="stroke:#181818;stroke-width:0.5;" width="115.7236" x="627" y="965.4694"/><text fill="#000000" font-family="sans-serif" font-size="14" lengthAdjust="spacing" textLength="95.7236" x="637" y="990.0026">Jobs &amp; Queues</text><text fill="#000000" font-family="sans-serif" font-size="14" lengthAdjust="spacing" textLength="57.5654" x="637" y="1007.612">(Horizon)</text></g><!--entity MediaLib--><g class="entity" data-entity="MediaLib" data-source-line="19" data-uid="ent0012" id="entity_MediaLib"><rect fill="#F1F1F1" height="55.2188" rx="2.5" ry="2.5" style="stroke:#181818;stroke-width:0.5;" width="104.8135" x="467.5" y="794.4694"/><text fill="#000000" font-family="sans-serif" font-size="14" lengthAdjust="spacing" textLength="84.8135" x="477.5" y="819.0026">Media Library</text><text fill="#000000" font-family="sans-serif" font-size="14" lengthAdjust="spacing" textLength="46.6826" x="477.5" y="836.612">(spatie)</text></g><!--entity Composer--><g class="entity" data-entity="Composer" data-source-line="23" data-uid="ent0014" id="entity_Composer"><rect fill="#F1F1F1" height="37.6094" rx="2.5" ry="2.5" style="stroke:#181818;stroke-width:0.5;" width="84.5791" x="292.5" y="802.9694"/><text fill="#000000" font-family="sans-serif" font-size="14" lengthAdjust="spacing" textLength="64.5791" x="302.5" y="827.5026">Composer</text></g><!--entity Artisan--><g class="entity" data-entity="Artisan" data-source-line="24" data-uid="ent0015" id="entity_Artisan"><rect fill="#F1F1F1" height="37.6094" rx="2.5" ry="2.5" style="stroke:#181818;stroke-width:0.5;" width="63.5723" x="193" y="802.9694"/><text fill="#000000" font-family="sans-serif" font-size="14" lengthAdjust="spacing" textLength="43.5723" x="203" y="827.5026">Artisan</text></g><!--entity Node--><g class="entity" data-entity="Node" data-source-line="25" data-uid="ent0016" id="entity_Node"><rect fill="#F1F1F1" height="37.6094" rx="2.5" ry="2.5" style="stroke:#181818;stroke-width:0.5;" width="96.248" x="62" y="802.9694"/><text fill="#000000" font-family="sans-serif" font-size="14" lengthAdjust="spacing" textLength="76.248" x="72" y="827.5026">Node / NPM</text></g><!--entity MySQL--><g class="entity" data-entity="MySQL" data-source-line="29" data-uid="ent0018" id="entity_MySQL"><rect fill="#F1F1F1" height="37.6094" rx="35" ry="35" style="stroke:#181818;stroke-width:0.5;" width="69.8066" x="341" y="973.9694"/><text fill="#000000" font-family="sans-serif" font-size="14" lengthAdjust="spacing" textLength="49.8066" x="351" y="998.5026">portfolio</text></g><!--entity Mail--><g class="entity" data-entity="Mail" data-source-line="36" data-uid="ent0021" id="entity_Mail"><rect fill="#F1F1F1" height="37.6094" rx="2.5" ry="2.5" style="stroke:#181818;stroke-width:0.5;" width="107.1172" x="996.5" y="973.9694"/><text fill="#000000" font-family="sans-serif" font-size="14" lengthAdjust="spacing" textLength="87.1172" x="1006.5" y="998.5026">SMTP / Gmail</text></g><!--entity Ollama--><g class="entity" data-entity="Ollama" data-source-line="37" data-uid="ent0022" id="entity_Ollama"><rect fill="#F1F1F1" height="55.2188" rx="2.5" ry="2.5" style="stroke:#181818;stroke-width:0.5;" width="125.041" x="836.5" y="965.4694"/><text fill="#000000" font-family="sans-serif" font-size="14" lengthAdjust="spacing" textLength="84.8066" x="846.5" y="990.0026">Ollama / llava</text><text fill="#000000" font-family="sans-serif" font-size="14" lengthAdjust="spacing" textLength="105.041" x="846.5" y="1007.612">(Vision IA locale)</text></g><!--entity Echo--><g class="entity" data-entity="Echo" data-source-line="38" data-uid="ent0023" id="entity_Echo"><rect fill="#F1F1F1" height="55.2188" rx="2.5" ry="2.5" style="stroke:#181818;stroke-width:0.5;" width="101.7168" x="1139" y="965.4694"/><text fill="#000000" font-family="sans-serif" font-size="14" lengthAdjust="spacing" textLength="81.7168" x="1149" y="990.0026">Laravel Echo</text><text fill="#000000" font-family="sans-serif" font-size="14" lengthAdjust="spacing" textLength="80.9102" x="1149" y="1007.612">(WebSocket)</text></g><!--link NextApp to ClientAPI--><g class="link" data-entity-1="NextApp" data-entity-2="ClientAPI" data-source-line="42" data-uid="lnk24" id="link_NextApp_ClientAPI"><path d="M958.7,143.6894 C957.55,167.1894 956.1944,194.8566 955.1844,215.4166" fill="none" id="NextApp-to-ClientAPI" style="stroke:#181818;stroke-width:1;"/><polygon fill="#181818" points="954.89,221.4094,959.3268,212.6165,955.1353,216.4154,951.3364,212.224,954.89,221.4094" style="stroke:#181818;stroke-width:1;"/><text fill="#000000" font-family="sans-serif" font-size="13" lengthAdjust="spacing" textLength="41.9263" x="958" y="188.1045">appelle</text></g><!--link ClientAPI to Nginx--><g class="link" data-entity-1="ClientAPI" data-entity-2="Nginx" data-source-line="43" data-uid="lnk25" id="link_ClientAPI_Nginx"><path d="M925.17,259.6294 C889.35,282.0144 826.25,321.4494 771.4,355.7281 C757.6875,364.2978 744.4906,372.5452 732.3645,380.1234 C726.3015,383.9125 720.5061,387.5343 715.0479,390.9454 C713.6833,391.7982 717.4279,397.4192 716.1066,398.2449" fill="none" id="ClientAPI-to-Nginx" style="stroke:#181818;stroke-width:1;"/><polygon fill="#181818" points="711.0185,401.4247,720.7705,400.0471,715.2586,398.7749,716.5308,393.2629,711.0185,401.4247" style="stroke:#181818;stroke-width:1;"/><text fill="#000000" font-family="sans-serif" font-size="13" lengthAdjust="spacing" textLength="138.7217" x="846" y="322.1045">HTTPS (localhost:8000)</text></g><!--link Nginx to Port80--><g class="link" data-entity-1="Nginx" data-entity-2="Port80" data-source-line="44" data-uid="lnk26" id="link_Nginx_Port80"><path d="M667,422.5394 C667,424.7494 667,476.7394 667,498.3994" fill="none" id="Nginx-to-Port80" style="stroke:#181818;stroke-width:1;"/><polygon fill="#181818" points="667,504.3994,671,495.3994,667,499.3994,663,495.3994,667,504.3994" style="stroke:#181818;stroke-width:1;"/></g><!--link Port80 to Proxy--><g class="link" data-entity-1="Port80" data-entity-2="Proxy" data-source-line="45" data-uid="lnk27" id="link_Port80_Proxy"><path d="M667,522.8194 C667,542.1694 667,584.7594 667,615.3894" fill="none" id="Port80-to-Proxy" style="stroke:#181818;stroke-width:1;"/><polygon fill="#181818" points="667,621.3894,671,612.3894,667,616.3894,663,612.3894,667,621.3894" style="stroke:#181818;stroke-width:1;"/><text fill="#000000" font-family="sans-serif" font-size="13" lengthAdjust="spacing" textLength="66.479" x="668" y="587.9645">proxy_pass</text></g><!--link Proxy to Laravel--><g class="link" data-entity-1="Proxy" data-entity-2="Laravel" data-source-line="46" data-uid="lnk28" id="link_Proxy_Laravel"><path d="M669.34,676.6894 C672.16,708.8094 676.3358,756.4223 679.1458,788.4623" fill="none" id="Proxy-to-Laravel" style="stroke:#181818;stroke-width:1;"/><polygon fill="#181818" points="679.67,794.4394,682.8684,785.1243,679.2332,789.4585,674.899,785.8233,679.67,794.4394" style="stroke:#181818;stroke-width:1;"/><text fill="#000000" font-family="sans-serif" font-size="13" lengthAdjust="spacing" textLength="78.7617" x="676" y="738.9645">fastcgi (9000)</text></g><!--link Nginx to Storage--><g class="link" data-entity-1="Nginx" data-entity-2="Storage" data-source-line="47" data-uid="lnk29" id="link_Nginx_Storage"><path d="M569.704,474.6965 C569.5004,474.8768 569.2975,475.0567 569.0952,475.2363 C568.6908,475.5954 568.289,475.953 567.8899,476.3093 C564.697,479.1592 561.6754,481.9185 558.8073,484.6053 C553.0711,489.9789 547.9491,495.0625 543.2995,500.0012 C534.0003,509.8787 526.5906,519.1769 519.9363,529.0569 C506.6275,548.8169 496.34,570.9044 480,604.6094 C423.88,720.3594 478.51,783.9894 394,880.9694 C371.54,906.7394 353.6,896.2294 325,914.9694 C302.32,929.8294 283.4649,945.5981 266.1149,961.4081" fill="none" id="Nginx-to-Storage" style="stroke:#181818;stroke-width:1;"/><polygon fill="#181818" points="261.68,965.4494,271.0265,962.3441,265.3757,962.0817,265.6382,956.4309,261.68,965.4494" style="stroke:#181818;stroke-width:1;"/><text fill="#000000" font-family="sans-serif" font-size="13" lengthAdjust="spacing" textLength="96.8208" x="481" y="654.4645">fichiers statiques</text></g><!--link Laravel to MySQL--><g class="link" data-entity-1="Laravel" data-entity-2="MySQL" data-source-line="49" data-uid="lnk30" id="link_Laravel_MySQL"><path d="M641.87,849.7394 C625.98,859.9594 607.38,871.4294 590,880.9694 C566.3,893.9794 561.07,899.7994 535,906.9694 C498.84,916.9094 484.82,898.7694 451,914.9694 C423.74,928.0294 404.4216,950.5128 391.3616,968.8428" fill="none" id="Laravel-to-MySQL" style="stroke:#181818;stroke-width:1;"/><polygon fill="#181818" points="387.88,973.7294,396.3601,968.7206,390.7814,969.6573,389.8447,964.0785,387.88,973.7294" style="stroke:#181818;stroke-width:1;"/><text fill="#000000" font-family="sans-serif" font-size="13" lengthAdjust="spacing" textLength="69.3608" x="577" y="903.4645">PDO (3306)</text></g><!--link Laravel to Storage--><g class="link" data-entity-1="Laravel" data-entity-2="Storage" data-source-line="50" data-uid="lnk31" id="link_Laravel_Storage"><path d="M649.14,849.5094 C632.45,861.4094 611.24,874.2594 590,880.9694 C521.69,902.5594 497.83,869.0994 429,888.9694 C413.32,893.4994 412.53,901.9694 397,906.9694 C366.35,916.8394 354.57,902.2394 325,914.9694 C298.77,926.2594 278.5492,943.4442 261.6392,960.8642" fill="none" id="Laravel-to-Storage" style="stroke:#181818;stroke-width:1;"/><polygon fill="#181818" points="257.46,965.1694,266.5989,961.4977,260.9426,961.5817,260.8586,955.9255,257.46,965.1694" style="stroke:#181818;stroke-width:1;"/><text fill="#000000" font-family="sans-serif" font-size="13" lengthAdjust="spacing" textLength="96.8208" x="430" y="903.4645">stockage fichiers</text></g><!--link Laravel to Jobs--><g class="link" data-entity-1="Laravel" data-entity-2="Jobs" data-source-line="51" data-uid="lnk32" id="link_Laravel_Jobs"><path d="M682.48,849.7494 C683.04,881.3894 683.8637,927.7303 684.4237,959.3203" fill="none" id="Laravel-to-Jobs" style="stroke:#181818;stroke-width:1;"/><polygon fill="#181818" points="684.53,965.3194,688.3699,956.2499,684.4414,960.3202,680.3711,956.3917,684.53,965.3194" style="stroke:#181818;stroke-width:1;"/><text fill="#000000" font-family="sans-serif" font-size="13" lengthAdjust="spacing" textLength="69.6973" x="685" y="903.4645">file d'attente</text></g><!--link Laravel to Mail--><g class="link" data-entity-1="Laravel" data-entity-2="Mail" data-source-line="52" data-uid="lnk33" id="link_Laravel_Mail"><path d="M756.25,832.4594 C820.18,843.5994 912.4,867.0494 979,914.9694 C1002.17,931.6394 1019.9597,952.0829 1033.0897,969.0629" fill="none" id="Laravel-to-Mail" style="stroke:#181818;stroke-width:1;"/><polygon fill="#181818" points="1036.76,973.8094,1034.4189,964.2428,1033.7014,969.854,1028.0903,969.1365,1036.76,973.8094" style="stroke:#181818;stroke-width:1;"/><text fill="#000000" font-family="sans-serif" font-size="13" lengthAdjust="spacing" textLength="31.0654" x="966" y="903.4645">email</text></g><!--link Laravel to Ollama--><g class="link" data-entity-1="Laravel" data-entity-2="Ollama" data-source-line="53" data-uid="lnk34" id="link_Laravel_Ollama"><path d="M716.38,849.7494 C757.02,881.3894 819.4759,930.0431 860.0459,961.6331" fill="none" id="Laravel-to-Ollama" style="stroke:#181818;stroke-width:1;"/><polygon fill="#181818" points="864.78,965.3194,860.1363,956.634,860.8349,962.2475,855.2214,962.9461,864.78,965.3194" style="stroke:#181818;stroke-width:1;"/><text fill="#000000" font-family="sans-serif" font-size="13" lengthAdjust="spacing" textLength="127.1436" x="785" y="903.4645">API vision IA (Ollama)</text></g><!--link Laravel to Echo--><g class="link" data-entity-1="Laravel" data-entity-2="Echo" data-source-line="54" data-uid="lnk35" id="link_Laravel_Echo"><path d="M756.09,837.5894 C821.82,850.6794 920.41,870.5794 1006,888.9694 C1012.4,890.3494 1115.35,911.6494 1121,914.9694 C1142.05,927.3394 1156.6665,943.4575 1169.0565,960.3875" fill="none" id="Laravel-to-Echo" style="stroke:#181818;stroke-width:1;"/><polygon fill="#181818" points="1172.6,965.2294,1170.5127,955.6042,1169.6471,961.1945,1164.0569,960.3289,1172.6,965.2294" style="stroke:#181818;stroke-width:1;"/><text fill="#000000" font-family="sans-serif" font-size="13" lengthAdjust="spacing" textLength="66.4727" x="1090" y="903.4645">WebSocket</text></g><!--link Workspace to Laravel--><g class="link" data-entity-1="Workspace" data-entity-2="Laravel" data-source-line="56" data-uid="lnk36" id="link_Workspace_Laravel"><path d="M403.2545,736.3736 C403.9518,736.4178 404.6492,736.462 405.3465,736.5061 C406.7411,736.5944 408.1355,736.6825 409.5295,736.7703 C412.3174,736.946 415.1035,737.1207 417.8853,737.2946 C423.4488,737.6423 428.995,737.9863 434.5041,738.3268 C445.5224,739.0077 456.3925,739.6741 466.9566,740.3259 C488.085,741.6296 507.9897,742.8749 525.4088,744.0614 C560.2469,746.4344 585.1425,748.5719 590,750.4694 C614.74,760.1294 633.9927,774.5308 651.1327,790.1308" fill="none" id="Workspace-to-Laravel" style="stroke:#181818;stroke-width:1;"/><polygon fill="#181818" points="655.57,794.1694,651.6065,785.1533,651.8723,790.8039,646.2216,791.0697,655.57,794.1694" style="stroke:#181818;stroke-width:1;"/><text fill="#000000" font-family="sans-serif" font-size="13" lengthAdjust="spacing" textLength="106.9326" x="496" y="738.9645">artisan / composer</text></g><!--link Workspace to Node--><g class="link" data-entity-1="Workspace" data-entity-2="Node" data-source-line="57" data-uid="lnk37" id="link_Workspace_Node"><path d="M211.93,650.0894 C209.47,654.2094 149.5836,754.6064 123.8636,797.7264" fill="none" id="Workspace-to-Node" style="stroke:#181818;stroke-width:1;"/><polygon fill="#181818" points="120.79,802.8794,128.8357,797.199,123.3513,798.5852,121.9651,793.1009,120.79,802.8794" style="stroke:#181818;stroke-width:1;"/><text fill="#000000" font-family="sans-serif" font-size="13" lengthAdjust="spacing" textLength="57.0845" x="169" y="738.9645">npm / npx</text></g><!--link Browser to Echo--><g class="link" data-entity-1="Browser" data-entity-2="Echo" data-source-line="59" data-uid="lnk38" id="link_Browser_Echo"><path d="M1078.1209,120.7504 C1078.3628,120.8646 1078.6094,120.9814 1078.8605,121.1009 C1079.865,121.5786 1080.942,122.098 1082.0848,122.6587 C1084.3705,123.7799 1086.9194,125.0658 1089.6775,126.5117 C1100.71,132.2953 1115.09,140.6387 1129.36,151.2431 C1157.9,172.4519 1186,202.7044 1186,239.6094 C1186,239.6094 1186,239.6094 1186,822.9694 C1186,873.2994 1187.5875,926.0431 1188.7675,959.3431" fill="none" id="Browser-to-Echo" style="stroke:#181818;stroke-width:1;"/><polygon fill="#181818" points="1188.98,965.3394,1192.6588,956.2034,1188.8029,960.3425,1184.6638,956.4867,1188.98,965.3394" style="stroke:#181818;stroke-width:1;"/><text fill="#000000" font-family="sans-serif" font-size="13" lengthAdjust="spacing" textLength="107.6626" x="1187" y="518.9645">WebSocket (6001)</text></g><rect fill="#DDDDDD" height="154.875" rx="7.5" ry="7.5" style="stroke:#000000;stroke-width:1;" width="312.2988" x="488.1819" y="1078.4694"/><text fill="#000000" font-family="sans-serif" font-size="14" font-weight="bold" lengthAdjust="spacing" textLength="70" x="497.0715" y="1100.0026">Conteneur</text><text fill="#000000" font-family="sans-serif" font-size="14" font-weight="bold" lengthAdjust="spacing" textLength="82.4482" x="574.8713" y="1100.0026">Technologie</text><text fill="#000000" font-family="sans-serif" font-size="14" lengthAdjust="spacing" textLength="33.4688" x="497.0715" y="1117.612">nginx</text><text fill="#000000" font-family="sans-serif" font-size="14" lengthAdjust="spacing" textLength="212.8711" x="574.8713" y="1117.612">nginx:alpine (port 8000 &#8594; Laravel)</text><text fill="#000000" font-family="sans-serif" font-size="14" lengthAdjust="spacing" textLength="51.3584" x="497.0715" y="1135.2213">php-fpm</text><text fill="#000000" font-family="sans-serif" font-size="14" lengthAdjust="spacing" textLength="193.3818" x="574.8713" y="1135.2213">PHP 8.3-FPM Alpine + Xdebug</text><text fill="#000000" font-family="sans-serif" font-size="14" lengthAdjust="spacing" textLength="66.917" x="497.0715" y="1152.8307">workspace</text><text fill="#000000" font-family="sans-serif" font-size="14" lengthAdjust="spacing" textLength="185.1924" x="574.8713" y="1152.8307">PHP-CLI + Composer + Node</text><text fill="#000000" font-family="sans-serif" font-size="14" lengthAdjust="spacing" textLength="15.5723" x="497.0715" y="1170.4401">db</text><text fill="#000000" font-family="sans-serif" font-size="14" lengthAdjust="spacing" textLength="142.3994" x="574.8713" y="1170.4401">MySQL 8.0 (port 3307)</text><text fill="#000000" font-family="sans-serif" font-size="14" lengthAdjust="spacing" textLength="51.3721" x="497.0715" y="1188.0495">frontend</text><text fill="#000000" font-family="sans-serif" font-size="14" lengthAdjust="spacing" textLength="216.7197" x="574.8713" y="1188.0495">Next.js 16 + Turbopack (port 3000)</text><text fill="#000000" font-family="sans-serif" font-size="14" lengthAdjust="spacing" textLength="70.0205" x="497.0715" y="1205.6588">Temps r&#233;el</text><text fill="#000000" font-family="sans-serif" font-size="14" lengthAdjust="spacing" textLength="126.8408" x="574.8713" y="1205.6588">Laravel Echo Server</text><text fill="#000000" font-family="sans-serif" font-size="14" lengthAdjust="spacing" textLength="55.248" x="497.0715" y="1223.2682">Vision IA</text><text fill="#000000" font-family="sans-serif" font-size="14" lengthAdjust="spacing" textLength="84.8066" x="574.8713" y="1223.2682">Ollama / llava</text><line style="stroke:#000000;stroke-width:1;" x1="493.1819" x2="795.4807" y1="1085.4694" y2="1085.4694"/><line style="stroke:#000000;stroke-width:1;" x1="493.1819" x2="795.4807" y1="1103.0788" y2="1103.0788"/><line style="stroke:#000000;stroke-width:1;" x1="493.1819" x2="795.4807" y1="1120.6881" y2="1120.6881"/><line style="stroke:#000000;stroke-width:1;" x1="493.1819" x2="795.4807" y1="1138.2975" y2="1138.2975"/><line style="stroke:#000000;stroke-width:1;" x1="493.1819" x2="795.4807" y1="1155.9069" y2="1155.9069"/><line style="stroke:#000000;stroke-width:1;" x1="493.1819" x2="795.4807" y1="1173.5163" y2="1173.5163"/><line style="stroke:#000000;stroke-width:1;" x1="493.1819" x2="795.4807" y1="1191.1256" y2="1191.1256"/><line style="stroke:#000000;stroke-width:1;" x1="493.1819" x2="795.4807" y1="1208.735" y2="1208.735"/><line style="stroke:#000000;stroke-width:1;" x1="493.1819" x2="795.4807" y1="1226.3444" y2="1226.3444"/><line style="stroke:#000000;stroke-width:1;" x1="493.1819" x2="493.1819" y1="1085.4694" y2="1226.3444"/><line style="stroke:#000000;stroke-width:1;" x1="570.9817" x2="570.9817" y1="1085.4694" y2="1226.3444"/><line style="stroke:#000000;stroke-width:1;" x1="795.4807" x2="795.4807" y1="1085.4694" y2="1226.3444"/><!--SRC=[RLLTRXit47xVKmpyaAoGAbx3WEiAS075TciNbhBf2as1f2YerKXYlKio95UHMlMr1-WjSexS92VfS8ShUTk-QCcPRpY_tyXBNo7SIB6oeguH5WZNkZRQ2UKTf6DRhgN7qZUMKBfyH3j84lSebH5a06N0AbI-y3jwnn9Ig5M5IM94-IXM22VNbIGzJCL6heJ7nfw0SF3AweyEBVoH0BmR6rF9KdYf5Knnwr_-vjwhz4SKfOSNCDiPB4ehZH_y4am3WYo2ONnxdDz3kaHVhXd1Of8cVpu9XCE74HXj_L9NKhUHH748v01LAwcsa5hSe7K8nkhjRj2YfwqcW07I0Ppaz1PSPgqkd2-pLlKk3oQGt-N3x_B9UtKjoZM2yvJZXmRX38Hg8srXP45nFd5lrcQuD3MaP0-NBy_PTRYmurx17gWH6woeO8LGrAZwAxYjD7bHiLuHm9O_wBc3P_2cmGP3aU-qbRzhnSYWPDW45rB0WvnRONS4SuQS8QDQ7Qd-4_P7RHy9M2Aarm_t7FJRWoo6pjE5bXiLBp4hwwMBXObdLamrZUKfJFC93m1TE-SBuSLSK8zE9hlYpGDLYtjnyoewT5vRBcglwoswU-I0ARpcN2fTYb3Ig3aLnfoQPav5vxGAblVcgq2xaIKwkDrwj0fTYwGB3tancUMKnFUra1NNaGv1yRggH2r8HT-D8AS_IHSQUp_cC6BP6HOCOaFXjbnhWh_5UH5cEBOxI4DSp-7gwYfKk6vKd1KNH4da3mo7tnwPGhIW7B4YwXvb0S43FuAxsIml86qZMcldHvTPbWqILWTWd7x-iAJbm8ZfywiHpYKi2iekYH4iXVFbIaBwpRzUZ4KE44bhYAXuO91Bakw1WEJUZo2_UGtf-NbsCUYfZm-vhi7TYprSIuxWZLRPuhdmdkg0VKVKCq9WQ69F4PiuQdVHvj30bENzS4A727deMv8SMT8lZM0Mq6oK7LFwq9OP8r2qB4xfTviatMBzFqUGNcJP6Itm2bUe5Z3NtkkQHceV1eLoLRIUmsM6vLhfIgyamZxeWJTY_8v4PQGYcXlUVba6N_xwkujx44swBRQ7kCR2AeGncxw0dnSuRrOHUrmTBNf8-uCWtNgWOvieOnTp-ZcmFGP1JV-wSxoqRIuBEiP_4pYx27yaZPthGDVE9inRj9bXRHpOpv-exdjuoZ08lAOO67VavXxwn2L0yCcbJVu1]--></g></svg>