<svg xmlns="http://www.w3.org/2000/svg" xmlns:xlink="http://www.w3.org/1999/xlink" contentStyleType="text/css" data-diagram-type="DESCRIPTION" height="1253px" preserveAspectRatio="none" style="width:1363px;height:1253px;background:#FFFFFF;" version="1.1" viewBox="0 0 1363 1253" width="1363px" zoomAndPan="magnify"><title>Diagramme de Composants (Architecture Docker)</title><defs/><g><text fill="#000000" font-family="sans-serif" font-size="14" font-weight="bold" lengthAdjust="spacing" textLength="332.1992" x="508.7317" y="24.5332">Diagramme de Composants (Architecture Docker)</text><!--cluster Browser--><g class="cluster" data-entity="Browser" data-source-line="5" data-uid="ent0002" id="cluster_Browser"><path d="M909.5,44.6094 L1025.6377,44.6094 A3.75,3.75 0 0 1 1028.1377,47.1094 L1035.1377,68.2188 L1121.5,68.2188 A2.5,2.5 0 0 1 1124,70.7188 L1124,281.1094 A2.5,2.5 0 0 1 1121.5,283.6094 L909.5,283.6094 A2.5,2.5 0 0 1 907,281.1094 L907,47.1094 A2.5,2.5 0 0 1 909.5,44.6094" fill="none" style="stroke:#000000;stroke-width:1.5;"/><line style="stroke:#000000;stroke-width:1.5;" x1="907" x2="1035.1377" y1="68.2188" y2="68.2188"/><text fill="#000000" font-family="sans-serif" font-size="14" font-weight="bold" lengthAdjust="spacing" textLength="115.1377" x="911" y="61.1426">Client Navigateur</text></g><!--cluster Docker--><g class="cluster" data-entity="Docker" data-source-line="10" data-uid="ent0005" id="cluster_Docker"><path d="M8.5,341.6094 L126.1689,341.6094 A3.75,3.75 0 0 1 128.6689,344.1094 L135.6689,365.2187 L793.5,365.2187 A2.5,2.5 0 0 1 796,367.7187 L796,1057.9694 A2.5,2.5 0 0 1 793.5,1060.4694 L8.5,1060.4694 A2.5,2.5 0 0 1 6,1057.9694 L6,344.1094 A2.5,2.5 0 0 1 8.5,341.6094" fill="none" style="stroke:#000000;stroke-width:1.5;"/><line style="stroke:#000000;stroke-width:1.5;" x1="6" x2="135.6689" y1="365.2187" y2="365.2187"/><text fill="#000000" font-family="sans-serif" font-size="14" font-weight="bold" lengthAdjust="spacing" textLength="116.6689" x="10" y="358.1426">Docker : portfolio</text></g><!--cluster Nginx--><g class="cluster" data-entity="Nginx" data-source-line="11" data-uid="ent0006" id="cluster_Nginx"><path d="M572.5,393.6094 L715.8857,393.6094 A3.75,3.75 0 0 1 718.3857,396.1094 L725.3857,417.2187 L761.5,417.2187 A2.5,2.5 0 0 1 764,419.7187 L764,697.9694 A2.5,2.5 0 0 1 761.5,700.4694 L572.5,700.4694 A2.5,2.5 0 0 1 570,697.9694 L570,396.1094 A2.5,2.5 0 0 1 572.5,393.6094" fill="none" style="stroke:#000000;stroke-width:1.5;"/><line style="stroke:#000000;stroke-width:1.5;" x1="570" x2="725.3857" y1="417.2187" y2="417.2187"/><text fill="#000000" font-family="sans-serif" font-size="14" font-weight="bold" lengthAdjust="spacing" textLength="142.3857" x="574" y="410.1426">nginx (reverse proxy)</text></g><!--cluster PHP--><g class="cluster" data-entity="PHP" data-source-line="16" data-uid="ent0009" id="cluster_PHP"><path d="M453.5,758.4694 L575.8311,758.4694 A3.75,3.75 0 0 1 578.3311,760.9694 L585.3311,782.0787 L769.5,782.0787 A2.5,2.5 0 0 1 772,784.5787 L772,1033.9694 A2.5,2.5 0 0 1 769.5,1036.4694 L453.5,1036.4694 A2.5,2.5 0 0 1 451,1033.9694 L451,760.9694 A2.5,2.5 0 0 1 453.5,758.4694" fill="none" style="stroke:#000000;stroke-width:1.5;"/><line style="stroke:#000000;stroke-width:1.5;" x1="451" x2="585.3311" y1="782.0787" y2="782.0787"/><text fill="#000000" font-family="sans-serif" font-size="14" font-weight="bold" lengthAdjust="spacing" textLength="121.3311" x="455" y="775.0026">php-fpm (PHP 8.3)</text></g><!--cluster Workspace--><g class="cluster" data-entity="Workspace" data-source-line="22" data-uid="ent0013" id="cluster_Workspace"><path d="M40.5,620.6094 L149.6377,620.6094 A3.75,3.75 0 0 1 152.1377,623.1094 L159.1377,644.2187 L399.5,644.2187 A2.5,2.5 0 0 1 402,646.7187 L402,862.4694 A2.5,2.5 0 0 1 399.5,864.9694 L40.5,864.9694 A2.5,2.5 0 0 1 38,862.4694 L38,623.1094 A2.5,2.5 0 0 1 40.5,620.6094" fill="none" style="stroke:#000000;stroke-width:1.5;"/><line style="stroke:#000000;stroke-width:1.5;" x1="38" x2="159.1377" y1="644.2187" y2="644.2187"/><text fill="#000000" font-family="sans-serif" font-size="14" font-weight="bold" lengthAdjust="spacing" textLength="108.1377" x="42" y="637.1426">workspace (CLI)</text></g><!--cluster DB--><g class="cluster" data-entity="DB" data-source-line="28" data-uid="ent0017" id="cluster_DB"><path d="M325,932.9694 C325,922.9694 376,922.9694 376,922.9694 C376,922.9694 427,922.9694 427,932.9694 L427,1017.9694 C427,1027.9694 376,1027.9694 376,1027.9694 C376,1027.9694 325,1027.9694 325,1017.9694 L325,932.9694" fill="none" style="stroke:#181818;stroke-width:1;"/><path d="M325,932.9694 C325,942.9694 376,942.9694 376,942.9694 C376,942.9694 427,942.9694 427,932.9694" fill="none" style="stroke:#181818;stroke-width:1;"/><text fill="#000000" font-family="sans-serif" font-size="14" font-weight="bold" lengthAdjust="spacing" textLength="71.5791" x="340.2104" y="959.5026">MySQL 8.0</text></g><!--cluster Ext--><g class="cluster" data-entity="Ext" data-source-line="35" data-uid="ent0020" id="cluster_Ext"><path d="M822.5,929.4694 L944.1406,929.4694 A3.75,3.75 0 0 1 946.6406,931.9694 L953.6406,953.0787 L1327.5,953.0787 A2.5,2.5 0 0 1 1330,955.5787 L1330,1033.9694 A2.5,2.5 0 0 1 1327.5,1036.4694 L822.5,1036.4694 A2.5,2.5 0 0 1 820,1033.9694 L820,931.9694 A2.5,2.5 0 0 1 822.5,929.4694" fill="none" style="stroke:#000000;stroke-width:1.5;"/><line style="stroke:#000000;stroke-width:1.5;" x1="820" x2="953.6406" y1="953.0787" y2="953.0787"/><text fill="#000000" font-family="sans-serif" font-size="14" font-weight="bold" lengthAdjust="spacing" textLength="120.6406" x="824" y="946.0026">Services Externes</text></g><!--entity NextApp--><g class="entity" data-entity="NextApp" data-source-line="6" data-uid="ent0003" id="entity_NextApp"><rect fill="#F1F1F1" height="55.2188" rx="2.5" ry="2.5" style="stroke:#181818;stroke-width:0.5;" width="148.7617" x="931.5" y="88.6094"/><text fill="#000000" font-family="sans-serif" font-size="14" lengthAdjust="spacing" textLength="115.165" x="941.5" y="113.1426">Application Next.js</text><text fill="#000000" font-family="sans-serif" font-size="14" lengthAdjust="spacing" textLength="128.7617" x="941.5" y="130.752">(React + TypeScript)</text></g><!--entity ClientAPI--><g class="entity" data-entity="ClientAPI" data-source-line="7" data-uid="ent0004" id="entity_ClientAPI"><rect fill="#F1F1F1" height="37.6094" rx="2.5" ry="2.5" style="stroke:#181818;stroke-width:0.5;" width="125.8135" x="937" y="221.6094"/><text fill="#000000" font-family="sans-serif" font-size="14" lengthAdjust="spacing" textLength="105.8135" x="947" y="246.1426">Client API (fetch)</text></g><!--entity Storage--><g class="entity" data-entity="Storage" data-source-line="32" data-uid="ent0019" id="entity_Storage"><rect fill="#F1F1F1" height="55.2188" rx="35" ry="35" style="stroke:#181818;stroke-width:0.5;" width="143.7373" x="162" y="965.4694"/><text fill="#000000" font-family="sans-serif" font-size="14" lengthAdjust="spacing" textLength="91.0547" x="172" y="990.0026">Stockage local</text><text fill="#000000" font-family="sans-serif" font-size="14" lengthAdjust="spacing" textLength="123.7373" x="172" y="1007.612">(storage/app/public)</text></g><!--entity Port80--><g class="entity" data-entity="Port80" data-source-line="12" data-uid="ent0007" id="entity_Port80"><ellipse cx="667" cy="513.4694" fill="#F1F1F1" rx="8" ry="8" style="stroke:#181818;stroke-width:0.5;"/><text fill="#000000" font-family="sans-serif" font-size="14" lengthAdjust="spacing" textLength="45.1377" x="644.4312" y="545.0026">Port 80</text></g><!--entity Proxy--><g class="entity" data-entity="Proxy" data-source-line="13" data-uid="ent0008" id="entity_Proxy"><rect fill="#F1F1F1" height="55.2188" rx="2.5" ry="2.5" style="stroke:#181818;stroke-width:0.5;" width="144.5303" x="594.5" y="621.4694"/><text fill="#000000" font-family="sans-serif" font-size="14" lengthAdjust="spacing" textLength="102.6758" x="604.5" y="646.0026">Proxy PHP-FPM</text><text fill="#000000" font-family="sans-serif" font-size="14" lengthAdjust="spacing" textLength="124.5303" x="604.5" y="663.612">Cache statique 1 an</text></g><!--entity Laravel--><g class="entity" data-entity="Laravel" data-source-line="17" data-uid="ent0010" id="entity_Laravel"><rect fill="#F1F1F1" height="55.2188" rx="2.5" ry="2.5" style="stroke:#181818;stroke-width:0.5;" width="147.6201" x="608" y="794.4694"/><text fill="#000000" font-family="sans-serif" font-size="14" lengthAdjust="spacing" textLength="118.2959" x="618" y="819.0026">Application Laravel</text><text fill="#000000" font-family="sans-serif" font-size="14" lengthAdjust="spacing" textLength="127.6201" x="618" y="836.612">(Sanctum, Eloquent)</text></g><!--entity Jobs--><g class="entity" data-entity="Jobs" data-source-line="18" data-uid="ent0011" id="entity_Jobs"><rect fill="#F1F1F1" height="55.2188" rx="2.5" ry="2.5" style="stroke:#181818;stroke-width:0.5;" width="115.7236" x="627" y="965.4694"/><text fill="#000000" font-family="sans-serif" font-size="14" lengthAdjust="spacing" textLength="95.7236" x="637" y="990.0026">Jobs &amp; Queues</text><text fill="#000000" font-family="sans-serif" font-size="14" lengthAdjust="spacing" textLength="57.5654" x="637" y="1007.612">(Horizon)</text></g><!--entity MediaLib--><g class="entity" data-entity="MediaLib" data-source-line="19" data-uid="ent0012" id="entity_MediaLib"><rect fill="#F1F1F1" height="55.2188" rx="2.5" ry="2.5" style="stroke:#181818;stroke-width:0.5;" width="104.8135" x="467.5" y="794.4694"/><text fill="#000000" font-family="sans-serif" font-size="14" lengthAdjust="spacing" textLength="84.8135" x="477.5" y="819.0026">Media Library</text><text fill="#000000" font-family="sans-serif" font-size="14" lengthAdjust="spacing" textLength="46.6826" x="477.5" y="836.612">(spatie)</text></g><!--entity Composer--><g class="entity" data-entity="Composer" data-source-line="23" data-uid="ent0014" id="entity_Composer"><rect fill="#F1F1F1" height="37.6094" rx="2.5" ry="2.5" style="stroke:#181818;stroke-width:0.5;" width="84.5791" x="292.5" y="802.9694"/><text fill="#000000" font-family="sans-serif" font-size="14" lengthAdjust="spacing" textLength="64.5791" x="302.5" y="827.5026">Composer</text></g><!--entity Artisan--><g class="entity" data-entity="Artisan" data-source-line="24" data-uid="ent0015" id="entity_Artisan"><rect fill="#F1F1F1" height="37.6094" rx="2.5" ry="2.5" style="stroke:#181818;stroke-width:0.5;" width="63.5723" x="193" y="802.9694"/><text fill="#000000" font-family="sans-serif" font-size="14" lengthAdjust="spacing" textLength="43.5723" x="203" y="827.5026">Artisan</text></g><!--entity Node--><g class="entity" data-entity="Node" data-source-line="25" data-uid="ent0016" id="entity_Node"><rect fill="#F1F1F1" height="37.6094" rx="2.5" ry="2.5" style="stroke:#181818;stroke-width:0.5;" width="96.248" x="62" y="802.9694"/><text fill="#000000" font-family="sans-serif" font-size="14" lengthAdjust="spacing" textLength="76.248" x="72" y="827.5026">Node / NPM</text></g><!--entity MySQL--><g class="entity" data-entity="MySQL" data-source-line="29" data-uid="ent0018" id="entity_MySQL"><rect fill="#F1F1F1" height="37.6094" rx="35" ry="35" style="stroke:#181818;stroke-width:0.5;" width="69.8066" x="341" y="973.9694"/><text fill="#000000" font-family="sans-serif" font-size="14" lengthAdjust="spacing" textLength="49.8066" x="351" y="998.5026">portfolio</text></g><!--entity Mail--><g class="entity" data-entity="Mail" data-source-line="36" data-uid="ent0021" id="entity_Mail"><rect fill="#F1F1F1" height="37.6094" rx="2.5" ry="2.5" style="stroke:#181818;stroke-width:0.5;" width="119.5859" x="1057" y="973.9694"/><text fill="#000000" font-family="sans-serif" font-size="14" lengthAdjust="spacing" textLength="99.5859" x="1067" y="998.5026">SMTP / Mailhog</text></g><!--entity PaliGemma--><g class="entity" data-entity="PaliGemma" data-source-line="37" data-uid="ent0022" id="entity_PaliGemma"><rect fill="#F1F1F1" height="37.6094" rx="2.5" ry="2.5" style="stroke:#181818;stroke-width:0.5;" width="184.9512" x="836.5" y="973.9694"/><text fill="#000000" font-family="sans-serif" font-size="14" lengthAdjust="spacing" textLength="164.9512" x="846.5" y="998.5026">PaliGemma 2 (Vision 10B)</text></g><!--entity Echo--><g class="entity" data-entity="Echo" data-source-line="38" data-uid="ent0023" id="entity_Echo"><rect fill="#F1F1F1" height="55.2188" rx="2.5" ry="2.5" style="stroke:#181818;stroke-width:0.5;" width="101.7168" x="1212" y="965.4694"/><text fill="#000000" font-family="sans-serif" font-size="14" lengthAdjust="spacing" textLength="81.7168" x="1222" y="990.0026">Laravel Echo</text><text fill="#000000" font-family="sans-serif" font-size="14" lengthAdjust="spacing" textLength="80.9102" x="1222" y="1007.612">(WebSocket)</text></g><!--link NextApp to ClientAPI--><g class="link" data-entity-1="NextApp" data-entity-2="ClientAPI" data-source-line="42" data-uid="lnk24" id="link_NextApp_ClientAPI"><path d="M1004.7,143.6894 C1003.55,167.1894 1002.1944,194.8566 1001.1844,215.4166" fill="none" id="NextApp-to-ClientAPI" style="stroke:#181818;stroke-width:1;"/><polygon fill="#181818" points="1000.89,221.4094,1005.3268,212.6165,1001.1353,216.4154,997.3364,212.224,1000.89,221.4094" style="stroke:#181818;stroke-width:1;"/><text fill="#000000" font-family="sans-serif" font-size="13" lengthAdjust="spacing" textLength="41.9263" x="1004" y="188.1045">appelle</text></g><!--link ClientAPI to Nginx--><g class="link" data-entity-1="ClientAPI" data-entity-2="Nginx" data-source-line="43" data-uid="lnk25" id="link_ClientAPI_Nginx"><path d="M966.55,259.6294 C924.985,282.0144 851.77,321.4494 788.13,355.7281 C772.22,364.2978 756.9084,372.5452 742.8395,380.1234 C735.805,383.9125 729.0811,387.5343 722.7484,390.9454 C721.1653,391.7982 724.8889,409.9787 723.3559,410.8045" fill="none" id="ClientAPI-to-Nginx" style="stroke:#181818;stroke-width:1;"/><polygon fill="#181818" points="718.0735,413.6499,727.894,412.9034,722.4755,411.2787,724.1002,405.8602,718.0735,413.6499" style="stroke:#181818;stroke-width:1;"/><text fill="#000000" font-family="sans-serif" font-size="13" lengthAdjust="spacing" textLength="138.7217" x="874" y="322.1045">HTTPS (localhost:8000)</text></g><!--link Nginx to Port80--><g class="link" data-entity-1="Nginx" data-entity-2="Port80" data-source-line="44" data-uid="lnk26" id="link_Nginx_Port80"><path d="M667,422.5394 C667,424.7494 667,476.7394 667,498.3994" fill="none" id="Nginx-to-Port80" style="stroke:#181818;stroke-width:1;"/><polygon fill="#181818" points="667,504.3994,671,495.3994,667,499.3994,663,495.3994,667,504.3994" style="stroke:#181818;stroke-width:1;"/></g><!--link Port80 to Proxy--><g class="link" data-entity-1="Port80" data-entity-2="Proxy" data-source-line="45" data-uid="lnk27" id="link_Port80_Proxy"><path d="M667,522.8194 C667,542.1694 667,584.7594 667,615.3894" fill="none" id="Port80-to-Proxy" style="stroke:#181818;stroke-width:1;"/><polygon fill="#181818" points="667,621.3894,671,612.3894,667,616.3894,663,612.3894,667,621.3894" style="stroke:#181818;stroke-width:1;"/><text fill="#000000" font-family="sans-serif" font-size="13" lengthAdjust="spacing" textLength="66.479" x="668" y="587.9645">proxy_pass</text></g><!--link Proxy to Laravel--><g class="link" data-entity-1="Proxy" data-entity-2="Laravel" data-source-line="46" data-uid="lnk28" id="link_Proxy_Laravel"><path d="M669.34,676.6894 C672.16,708.8094 676.3358,756.4223 679.1458,788.4623" fill="none" id="Proxy-to-Laravel" style="stroke:#181818;stroke-width:1;"/><polygon fill="#181818" points="679.67,794.4394,682.8684,785.1243,679.2332,789.4585,674.899,785.8233,679.67,794.4394" style="stroke:#181818;stroke-width:1;"/><text fill="#000000" font-family="sans-serif" font-size="13" lengthAdjust="spacing" textLength="78.7617" x="676" y="738.9645">fastcgi (9000)</text></g><!--link Nginx to Storage--><g class="link" data-entity-1="Nginx" data-entity-2="Storage" data-source-line="47" data-uid="lnk29" id="link_Nginx_Storage"><path d="M569.704,474.6965 C569.5004,474.8768 569.2975,475.0567 569.0952,475.2363 C568.6908,475.5954 568.289,475.953 567.8899,476.3093 C564.697,479.1592 561.6754,481.9185 558.8073,484.6053 C553.0711,489.9789 547.9491,495.0625 543.2995,500.0012 C534.0003,509.8787 526.5906,519.1769 519.9363,529.0569 C506.6275,548.8169 496.34,570.9044 480,604.6094 C423.88,720.3594 478.51,783.9894 394,880.9694 C371.54,906.7394 353.6,896.2294 325,914.9694 C302.32,929.8294 283.4649,945.5981 266.1149,961.4081" fill="none" id="Nginx-to-Storage" style="stroke:#181818;stroke-width:1;"/><polygon fill="#181818" points="261.68,965.4494,271.0265,962.3441,265.3757,962.0817,265.6382,956.4309,261.68,965.4494" style="stroke:#181818;stroke-width:1;"/><text fill="#000000" font-family="sans-serif" font-size="13" lengthAdjust="spacing" textLength="96.8208" x="481" y="654.4645">fichiers statiques</text></g><!--link Laravel to MySQL--><g class="link" data-entity-1="Laravel" data-entity-2="MySQL" data-source-line="49" data-uid="lnk30" id="link_Laravel_MySQL"><path d="M641.87,849.7394 C625.98,859.9594 607.38,871.4294 590,880.9694 C566.3,893.9794 561.07,899.7994 535,906.9694 C498.84,916.9094 484.82,898.7694 451,914.9694 C423.74,928.0294 404.4216,950.5128 391.3616,968.8428" fill="none" id="Laravel-to-MySQL" style="stroke:#181818;stroke-width:1;"/><polygon fill="#181818" points="387.88,973.7294,396.3601,968.7206,390.7814,969.6573,389.8447,964.0785,387.88,973.7294" style="stroke:#181818;stroke-width:1;"/><text fill="#000000" font-family="sans-serif" font-size="13" lengthAdjust="spacing" textLength="69.3608" x="577" y="903.4645">PDO (3306)</text></g><!--link Laravel to Storage--><g class="link" data-entity-1="Laravel" data-entity-2="Storage" data-source-line="50" data-uid="lnk31" id="link_Laravel_Storage"><path d="M649.14,849.5094 C632.45,861.4094 611.24,874.2594 590,880.9694 C521.69,902.5594 497.83,869.0994 429,888.9694 C413.32,893.4994 412.53,901.9694 397,906.9694 C366.35,916.8394 354.57,902.2394 325,914.9694 C298.77,926.2594 278.5492,943.4442 261.6392,960.8642" fill="none" id="Laravel-to-Storage" style="stroke:#181818;stroke-width:1;"/><polygon fill="#181818" points="257.46,965.1694,266.5989,961.4977,260.9426,961.5817,260.8586,955.9255,257.46,965.1694" style="stroke:#181818;stroke-width:1;"/><text fill="#000000" font-family="sans-serif" font-size="13" lengthAdjust="spacing" textLength="96.8208" x="430" y="903.4645">stockage fichiers</text></g><!--link Laravel to Jobs--><g class="link" data-entity-1="Laravel" data-entity-2="Jobs" data-source-line="51" data-uid="lnk32" id="link_Laravel_Jobs"><path d="M682.48,849.7494 C683.04,881.3894 683.8637,927.7303 684.4237,959.3203" fill="none" id="Laravel-to-Jobs" style="stroke:#181818;stroke-width:1;"/><polygon fill="#181818" points="684.53,965.3194,688.3699,956.2499,684.4414,960.3202,680.3711,956.3917,684.53,965.3194" style="stroke:#181818;stroke-width:1;"/><text fill="#000000" font-family="sans-serif" font-size="13" lengthAdjust="spacing" textLength="69.6973" x="685" y="903.4645">file d'attente</text></g><!--link Laravel to Mail--><g class="link" data-entity-1="Laravel" data-entity-2="Mail" data-source-line="52" data-uid="lnk33" id="link_Laravel_Mail"><path d="M756.31,830.6294 C831.63,840.9494 949.49,864.2394 1039,914.9694 C1065.49,929.9794 1085.5728,951.6314 1099.7328,969.2614" fill="none" id="Laravel-to-Mail" style="stroke:#181818;stroke-width:1;"/><polygon fill="#181818" points="1103.49,973.9394,1100.9728,964.4176,1100.359,970.0411,1094.7355,969.4273,1103.49,973.9394" style="stroke:#181818;stroke-width:1;"/><text fill="#000000" font-family="sans-serif" font-size="13" lengthAdjust="spacing" textLength="31.0654" x="1022" y="903.4645">email</text></g><!--link Laravel to PaliGemma--><g class="link" data-entity-1="Laravel" data-entity-2="PaliGemma" data-source-line="53" data-uid="lnk34" id="link_Laravel_PaliGemma"><path d="M720.87,849.5594 C771.54,884.2294 853.8882,940.5812 897.5582,970.4612" fill="none" id="Laravel-to-PaliGemma" style="stroke:#181818;stroke-width:1;"/><polygon fill="#181818" points="902.51,973.8494,897.341,965.4659,898.3835,971.0259,892.8235,972.0684,902.51,973.8494" style="stroke:#181818;stroke-width:1;"/><text fill="#000000" font-family="sans-serif" font-size="13" lengthAdjust="spacing" textLength="73.6963" x="799" y="903.4645">API vision IA</text></g><!--link Laravel to Echo--><g class="link" data-entity-1="Laravel" data-entity-2="Echo" data-source-line="54" data-uid="lnk35" id="link_Laravel_Echo"><path d="M756.01,835.2994 C832.65,848.1894 955.84,869.2494 1062,888.9694 C1102.53,896.4994 1112.53,899.1094 1153,906.9694 C1171.65,910.5894 1178.49,905.5594 1195,914.9694 C1216.23,927.0594 1230.7372,943.3766 1242.8672,960.4666" fill="none" id="Laravel-to-Echo" style="stroke:#181818;stroke-width:1;"/><polygon fill="#181818" points="1246.34,965.3594,1244.3927,955.7049,1243.446,961.282,1237.8689,960.3353,1246.34,965.3594" style="stroke:#181818;stroke-width:1;"/><text fill="#000000" font-family="sans-serif" font-size="13" lengthAdjust="spacing" textLength="66.4727" x="1154" y="903.4645">WebSocket</text></g><!--link Workspace to Laravel--><g class="link" data-entity-1="Workspace" data-entity-2="Laravel" data-source-line="56" data-uid="lnk36" id="link_Workspace_Laravel"><path d="M403.2545,736.3736 C403.9518,736.4178 404.6492,736.462 405.3465,736.5061 C406.7411,736.5944 408.1355,736.6825 409.5295,736.7703 C412.3174,736.946 415.1035,737.1207 417.8853,737.2946 C423.4488,737.6423 428.995,737.9863 434.5041,738.3268 C445.5224,739.0077 456.3925,739.6741 466.9566,740.3259 C488.085,741.6296 507.9897,742.8749 525.4088,744.0614 C560.2469,746.4344 585.1425,748.5719 590,750.4694 C614.74,760.1294 633.9927,774.5308 651.1327,790.1308" fill="none" id="Workspace-to-Laravel" style="stroke:#181818;stroke-width:1;"/><polygon fill="#181818" points="655.57,794.1694,651.6065,785.1533,651.8723,790.8039,646.2216,791.0697,655.57,794.1694" style="stroke:#181818;stroke-width:1;"/><text fill="#000000" font-family="sans-serif" font-size="13" lengthAdjust="spacing" textLength="106.9326" x="496" y="738.9645">artisan / composer</text></g><!--link Workspace to Node--><g class="link" data-entity-1="Workspace" data-entity-2="Node" data-source-line="57" data-uid="lnk37" id="link_Workspace_Node"><path d="M211.93,650.0894 C209.47,654.2094 149.5836,754.6064 123.8636,797.7264" fill="none" id="Workspace-to-Node" style="stroke:#181818;stroke-width:1;"/><polygon fill="#181818" points="120.79,802.8794,128.8357,797.199,123.3513,798.5852,121.9651,793.1009,120.79,802.8794" style="stroke:#181818;stroke-width:1;"/><text fill="#000000" font-family="sans-serif" font-size="13" lengthAdjust="spacing" textLength="57.0845" x="169" y="738.9645">npm / npx</text></g><!--link Browser to Echo--><g class="link" data-entity-1="Browser" data-entity-2="Echo" data-source-line="59" data-uid="lnk38" id="link_Browser_Echo"><path d="M1124.3652,120.1345 C1124.8904,120.3352 1125.4371,120.5457 1126.0042,120.7662 C1127.1385,121.2071 1128.3547,121.6875 1129.6453,122.2073 C1132.2264,123.247 1135.1048,124.4441 1138.2195,125.7973 C1150.6784,131.2103 1166.9181,139.1212 1183.0337,149.4431 C1215.265,170.0869 1247,200.3744 1247,239.6094 C1247,239.6094 1247,239.6094 1247,822.9694 C1247,873.5094 1253.3327,926.2395 1258.0727,959.4695" fill="none" id="Browser-to-Echo" style="stroke:#181818;stroke-width:1;"/><polygon fill="#181818" points="1258.92,965.4094,1261.609,955.9347,1258.2139,960.4595,1253.6892,957.0644,1258.92,965.4094" style="stroke:#181818;stroke-width:1;"/><text fill="#000000" font-family="sans-serif" font-size="13" lengthAdjust="spacing" textLength="107.6626" x="1248" y="518.9645">WebSocket (6001)</text></g><rect fill="#DDDDDD" height="154.875" rx="7.5" ry="7.5" style="stroke:#000000;stroke-width:1;" width="312.2988" x="518.6819" y="1078.4694"/><text fill="#000000" font-family="sans-serif" font-size="14" font-weight="bold" lengthAdjust="spacing" textLength="70" x="527.5715" y="1100.0026">Conteneur</text><text fill="#000000" font-family="sans-serif" font-size="14" font-weight="bold" lengthAdjust="spacing" textLength="82.4482" x="605.3713" y="1100.0026">Technologie</text><text fill="#000000" font-family="sans-serif" font-size="14" lengthAdjust="spacing" textLength="33.4688" x="527.5715" y="1117.612">nginx</text><text fill="#000000" font-family="sans-serif" font-size="14" lengthAdjust="spacing" textLength="212.8711" x="605.3713" y="1117.612">nginx:alpine (port 8000 &#8594; Laravel)</text><text fill="#000000" font-family="sans-serif" font-size="14" lengthAdjust="spacing" textLength="51.3584" x="527.5715" y="1135.2213">php-fpm</text><text fill="#000000" font-family="sans-serif" font-size="14" lengthAdjust="spacing" textLength="193.3818" x="605.3713" y="1135.2213">PHP 8.3-FPM Alpine + Xdebug</text><text fill="#000000" font-family="sans-serif" font-size="14" lengthAdjust="spacing" textLength="66.917" x="527.5715" y="1152.8307">workspace</text><text fill="#000000" font-family="sans-serif" font-size="14" lengthAdjust="spacing" textLength="185.1924" x="605.3713" y="1152.8307">PHP-CLI + Composer + Node</text><text fill="#000000" font-family="sans-serif" font-size="14" lengthAdjust="spacing" textLength="15.5723" x="527.5715" y="1170.4401">db</text><text fill="#000000" font-family="sans-serif" font-size="14" lengthAdjust="spacing" textLength="142.3994" x="605.3713" y="1170.4401">MySQL 8.0 (port 3307)</text><text fill="#000000" font-family="sans-serif" font-size="14" lengthAdjust="spacing" textLength="51.3721" x="527.5715" y="1188.0495">frontend</text><text fill="#000000" font-family="sans-serif" font-size="14" lengthAdjust="spacing" textLength="216.7197" x="605.3713" y="1188.0495">Next.js 16 + Turbopack (port 3000)</text><text fill="#000000" font-family="sans-serif" font-size="14" lengthAdjust="spacing" textLength="70.0205" x="527.5715" y="1205.6588">Temps r&#233;el</text><text fill="#000000" font-family="sans-serif" font-size="14" lengthAdjust="spacing" textLength="126.8408" x="605.3713" y="1205.6588">Laravel Echo Server</text><text fill="#000000" font-family="sans-serif" font-size="14" lengthAdjust="spacing" textLength="55.248" x="527.5715" y="1223.2682">Vision IA</text><text fill="#000000" font-family="sans-serif" font-size="14" lengthAdjust="spacing" textLength="113.6064" x="605.3713" y="1223.2682">PaliGemma 2 10B</text><line style="stroke:#000000;stroke-width:1;" x1="523.6819" x2="825.9807" y1="1085.4694" y2="1085.4694"/><line style="stroke:#000000;stroke-width:1;" x1="523.6819" x2="825.9807" y1="1103.0788" y2="1103.0788"/><line style="stroke:#000000;stroke-width:1;" x1="523.6819" x2="825.9807" y1="1120.6881" y2="1120.6881"/><line style="stroke:#000000;stroke-width:1;" x1="523.6819" x2="825.9807" y1="1138.2975" y2="1138.2975"/><line style="stroke:#000000;stroke-width:1;" x1="523.6819" x2="825.9807" y1="1155.9069" y2="1155.9069"/><line style="stroke:#000000;stroke-width:1;" x1="523.6819" x2="825.9807" y1="1173.5163" y2="1173.5163"/><line style="stroke:#000000;stroke-width:1;" x1="523.6819" x2="825.9807" y1="1191.1256" y2="1191.1256"/><line style="stroke:#000000;stroke-width:1;" x1="523.6819" x2="825.9807" y1="1208.735" y2="1208.735"/><line style="stroke:#000000;stroke-width:1;" x1="523.6819" x2="825.9807" y1="1226.3444" y2="1226.3444"/><line style="stroke:#000000;stroke-width:1;" x1="523.6819" x2="523.6819" y1="1085.4694" y2="1226.3444"/><line style="stroke:#000000;stroke-width:1;" x1="601.4817" x2="601.4817" y1="1085.4694" y2="1226.3444"/><line style="stroke:#000000;stroke-width:1;" x1="825.9807" x2="825.9807" y1="1085.4694" y2="1226.3444"/><!--SRC=[RLLTRkCs47xNAGPvwChOUgCqG3Ora0BEJviKiQkjZDq2kqL1osEPZKIo9EMrk-bh3z1Rz1ozIK_I6P7oJziNcvpvXlFppOoyz3N2hHIL5Ks3i42uqOtHJYZl81tRSYKzbhwrXDBb4zf1ahWdgOmW0oWPgr3vmc_f7Kj8eQeQayI8yabK22StjIGzJCLQLi9ZQqz0EBYs-gD32vyIWFTZOsfP2Y-rWYbk_AkVtGULVe-YzF0IPbk3HMcbyOCVsPGHPC66yUrn_W3f4dsv2eWW9cdosq4W8NmOWT7MBtKjTHT957CWEwYgfDf0Qd6DrY4OgpVRGOUUTXe60wG3ECdfBRZCEXsVBxDEzJvd4yZly-7N-UI3kX7b2i5vol6N5k4CXEeYxM1aGN4Uk3ShCroQ1bAoXyjNvy4rNuBZeu8z4X5hhAbWXL14LFCvtDMQlAXOhmW8bj_gkOFFu4sBBNAHxxMLlseLaAmCi0akf817ERV2RWdc33d3WEfqfFfFs1-rVI9WYP3UF3w4eD_jP37qq5re0r7n4hEoNhfOc7WEYgccjZo5QJu93K3Ntlb2U34NnD79P5kyUQHg1IvkhwD3vxKDHJrYlKFtZ-mmXTSXbrgNWaiQDQV2c5FJpgde8QqYo8_wgq2xbYKwkDjuj0fTXwHBQF9YCiifYOcGzKfNeP9qPbKkQlaDDes0Bo1zAntJUfPTXtBlb8oCNC9TkT8KtZkS5zo-aMcMSaWluEhgYelRj2gsYMDH4aS7XiElzaD24q7fOKrJkvSn8lJw2Evdixo0jAl9IZi_kiooR904DGDZuuU_8EdQVnGcvoSZd4k2Y9Lz4YDO2kVBIaBwvRzUZFLbYAGDH5Eu6nwN9Fq3Z0oqZo2__GxIy_FiOd2atZ_aUcxx5uzmtLomDzfYYnV2Uwe37ZiYiWY13PDsgDYpD-esqJeG-30-GZ4t1DWnbYJxqJWkYWYjJxrIzkDn3Et6OGIADiGf_MwIfD-c_-S8qeiiEwEjNME5QW5pxRrkg9cUkKKeIqKxcIypB5TArxgI2C-iXx06u_z8r4OgccqJLbwMmT-__z77FOWc_UfwXhYxUF_1E9Y-X1yME6-hYDtlYmuzfAL1a7udqB5BD60NS_hPZNWCWkX-tJjUsYwN1HtZ9mJEBlZhqTgvvXdjRRZJeiqC6-F0_lKdrVqP3cSBU9WfXe1xspFAWHxCAiqe8TXfg6to3m00]--></g></svg>