<svg xmlns="http://www.w3.org/2000/svg" xmlns:xlink="http://www.w3.org/1999/xlink" contentStyleType="text/css" data-diagram-type="DESCRIPTION" height="1452px" preserveAspectRatio="none" style="width:1654px;height:1452px;background:#FFFFFF;" version="1.1" viewBox="0 0 1654 1452" width="1654px" zoomAndPan="magnify"><title>Diagramme de D&#233;ploiement (Docker)</title><defs/><g><text fill="#000000" font-family="sans-serif" font-size="14" font-weight="bold" lengthAdjust="spacing" textLength="245.0684" x="697.4658" y="24.5332">Diagramme de D&#233;ploiement (Docker)</text><rect fill="#DDDDDD" height="137.2656" rx="7.5" ry="7.5" style="stroke:#000000;stroke-width:1;" width="453.1807" x="593.4097" y="50.6094"/><text fill="#000000" font-family="sans-serif" font-size="14" font-weight="bold" lengthAdjust="spacing" textLength="77" x="602.2993" y="72.1426">Composant</text><text fill="#000000" font-family="sans-serif" font-size="14" font-weight="bold" lengthAdjust="spacing" textLength="82.4482" x="687.0786" y="72.1426">Technologie</text><text fill="#000000" font-family="sans-serif" font-size="14" font-weight="bold" lengthAdjust="spacing" textLength="30.3379" x="849.3364" y="72.1426">R&#244;le</text><text fill="#000000" font-family="sans-serif" font-size="14" lengthAdjust="spacing" textLength="33.4688" x="602.2993" y="89.752">nginx</text><text fill="#000000" font-family="sans-serif" font-size="14" lengthAdjust="spacing" textLength="74.7236" x="687.0786" y="89.752">nginx:alpine</text><text fill="#000000" font-family="sans-serif" font-size="14" lengthAdjust="spacing" textLength="188.3164" x="849.3364" y="89.752">Reverse proxy, cache statique</text><text fill="#000000" font-family="sans-serif" font-size="14" lengthAdjust="spacing" textLength="51.3584" x="602.2993" y="107.3613">php-fpm</text><text fill="#000000" font-family="sans-serif" font-size="14" lengthAdjust="spacing" textLength="129.1582" x="687.0786" y="107.3613">PHP 8.3-FPM Alpine</text><text fill="#000000" font-family="sans-serif" font-size="14" lengthAdjust="spacing" textLength="137.7236" x="849.3364" y="107.3613">Laravel, OPCache JIT</text><text fill="#000000" font-family="sans-serif" font-size="14" lengthAdjust="spacing" textLength="66.917" x="602.2993" y="124.9707">workspace</text><text fill="#000000" font-family="sans-serif" font-size="14" lengthAdjust="spacing" textLength="104.6582" x="687.0786" y="124.9707">PHP-CLI + Node</text><text fill="#000000" font-family="sans-serif" font-size="14" lengthAdjust="spacing" textLength="149.3926" x="849.3364" y="124.9707">Composer, npm, artisan</text><text fill="#000000" font-family="sans-serif" font-size="14" lengthAdjust="spacing" textLength="15.5723" x="602.2993" y="142.5801">db</text><text fill="#000000" font-family="sans-serif" font-size="14" lengthAdjust="spacing" textLength="70.0273" x="687.0786" y="142.5801">MySQL 8.0</text><text fill="#000000" font-family="sans-serif" font-size="14" lengthAdjust="spacing" textLength="188.3643" x="849.3364" y="142.5801">Base de donn&#233;es relationnelle</text><text fill="#000000" font-family="sans-serif" font-size="14" lengthAdjust="spacing" textLength="51.3721" x="602.2993" y="160.1895">frontend</text><text fill="#000000" font-family="sans-serif" font-size="14" lengthAdjust="spacing" textLength="154.4785" x="687.0786" y="160.1895">Node 22 Alpine + Next.js</text><text fill="#000000" font-family="sans-serif" font-size="14" lengthAdjust="spacing" textLength="141.627" x="849.3364" y="160.1895">Application React SSR</text><text fill="#000000" font-family="sans-serif" font-size="14" lengthAdjust="spacing" textLength="55.248" x="602.2993" y="177.7988">Vision IA</text><text fill="#000000" font-family="sans-serif" font-size="14" lengthAdjust="spacing" textLength="113.6064" x="687.0786" y="177.7988">PaliGemma 2 10B</text><text fill="#000000" font-family="sans-serif" font-size="14" lengthAdjust="spacing" textLength="144.7168" x="849.3364" y="177.7988">OCR emplois du temps</text><line style="stroke:#000000;stroke-width:1;" x1="598.4097" x2="1041.5903" y1="57.6094" y2="57.6094"/><line style="stroke:#000000;stroke-width:1;" x1="598.4097" x2="1041.5903" y1="75.2188" y2="75.2188"/><line style="stroke:#000000;stroke-width:1;" x1="598.4097" x2="1041.5903" y1="92.8281" y2="92.8281"/><line style="stroke:#000000;stroke-width:1;" x1="598.4097" x2="1041.5903" y1="110.4375" y2="110.4375"/><line style="stroke:#000000;stroke-width:1;" x1="598.4097" x2="1041.5903" y1="128.0469" y2="128.0469"/><line style="stroke:#000000;stroke-width:1;" x1="598.4097" x2="1041.5903" y1="145.6563" y2="145.6563"/><line style="stroke:#000000;stroke-width:1;" x1="598.4097" x2="1041.5903" y1="163.2656" y2="163.2656"/><line style="stroke:#000000;stroke-width:1;" x1="598.4097" x2="1041.5903" y1="180.875" y2="180.875"/><line style="stroke:#000000;stroke-width:1;" x1="598.4097" x2="598.4097" y1="57.6094" y2="180.875"/><line style="stroke:#000000;stroke-width:1;" x1="683.189" x2="683.189" y1="57.6094" y2="180.875"/><line style="stroke:#000000;stroke-width:1;" x1="845.4468" x2="845.4468" y1="57.6094" y2="180.875"/><line style="stroke:#000000;stroke-width:1;" x1="1041.5903" x2="1041.5903" y1="57.6094" y2="180.875"/><!--cluster Host--><g class="cluster" data-entity="Host" data-source-line="12" data-uid="ent0007" id="cluster_Host"><polygon fill="none" points="16,375.375,26,365.375,1091,365.375,1091,1425.875,1081,1435.875,16,1435.875,16,375.375" style="stroke:#181818;stroke-width:1;"/><line style="stroke:#181818;stroke-width:1;" x1="1081" x2="1091" y1="375.375" y2="365.375"/><line style="stroke:#181818;stroke-width:1;" x1="16" x2="1081" y1="375.375" y2="375.375"/><line style="stroke:#181818;stroke-width:1;" x1="1081" x2="1081" y1="375.375" y2="1435.875"/><text fill="#000000" font-family="sans-serif" font-size="14" font-weight="bold" lengthAdjust="spacing" textLength="31.1104" x="533.9448" y="392.9082">H&#244;te</text></g><!--cluster DockerNet--><g class="cluster" data-entity="DockerNet" data-source-line="13" data-uid="ent0008" id="cluster_DockerNet"><polygon fill="none" points="456,424.375,466,414.375,1067,414.375,1067,1267.875,1057,1277.875,456,1277.875,456,424.375" style="stroke:#181818;stroke-width:1;"/><line style="stroke:#181818;stroke-width:1;" x1="1057" x2="1067" y1="424.375" y2="414.375"/><line style="stroke:#181818;stroke-width:1;" x1="456" x2="1057" y1="424.375" y2="424.375"/><line style="stroke:#181818;stroke-width:1;" x1="1057" x2="1057" y1="424.375" y2="1277.875"/><text fill="#000000" font-family="sans-serif" font-size="14" font-weight="bold" lengthAdjust="spacing" textLength="170.3652" x="672.3174" y="441.9082">R&#233;seau Docker : portfolio</text></g><!--cluster NginxC--><g class="cluster" data-entity="NginxC" data-source-line="14" data-uid="ent0009" id="cluster_NginxC"><polygon fill="none" points="488,696.375,498,686.375,703,686.375,703,843.375,693,853.375,488,853.375,488,696.375" style="stroke:#181818;stroke-width:1;"/><line style="stroke:#181818;stroke-width:1;" x1="693" x2="703" y1="696.375" y2="686.375"/><line style="stroke:#181818;stroke-width:1;" x1="488" x2="693" y1="696.375" y2="696.375"/><line style="stroke:#181818;stroke-width:1;" x1="693" x2="693" y1="696.375" y2="853.375"/><text fill="#000000" font-family="sans-serif" font-size="14" font-weight="bold" lengthAdjust="spacing" textLength="82.4482" x="550.2759" y="713.9082">nginx:alpine</text><text fill="#000000" font-family="sans-serif" font-size="14" font-weight="bold" lengthAdjust="spacing" textLength="71.5723" x="555.7139" y="731.5176">(port 8000)</text></g><!--cluster PHPC--><g class="cluster" data-entity="PHPC" data-source-line="18" data-uid="ent0011" id="cluster_PHPC"><polygon fill="none" points="528,929.375,538,919.375,813,919.375,813,1235.875,803,1245.875,528,1245.875,528,929.375" style="stroke:#181818;stroke-width:1;"/><line style="stroke:#181818;stroke-width:1;" x1="803" x2="813" y1="929.375" y2="919.375"/><line style="stroke:#181818;stroke-width:1;" x1="528" x2="803" y1="929.375" y2="929.375"/><line style="stroke:#181818;stroke-width:1;" x1="803" x2="803" y1="929.375" y2="1245.875"/><text fill="#000000" font-family="sans-serif" font-size="14" font-weight="bold" lengthAdjust="spacing" textLength="125.2207" x="603.8896" y="946.9082">php-fpm:8.3-alpine</text></g><!--cluster WSC--><g class="cluster" data-entity="WSC" data-source-line="24" data-uid="ent0015" id="cluster_WSC"><polygon fill="none" points="743,713.875,753,703.875,1035,703.875,1035,825.875,1025,835.875,743,835.875,743,713.875" style="stroke:#181818;stroke-width:1;"/><line style="stroke:#181818;stroke-width:1;" x1="1025" x2="1035" y1="713.875" y2="703.875"/><line style="stroke:#181818;stroke-width:1;" x1="743" x2="1025" y1="713.875" y2="713.875"/><line style="stroke:#181818;stroke-width:1;" x1="1025" x2="1025" y1="713.875" y2="835.875"/><text fill="#000000" font-family="sans-serif" font-size="14" font-weight="bold" lengthAdjust="spacing" textLength="72.3721" x="848.814" y="731.4082">workspace</text><text fill="#000000" font-family="sans-serif" font-size="14" font-weight="bold" lengthAdjust="spacing" textLength="65.3242" x="852.3379" y="749.0176">(PHP-CLI)</text></g><!--cluster DBC--><g class="cluster" data-entity="DBC" data-source-line="29" data-uid="ent0018" id="cluster_DBC"><polygon fill="none" points="853,1112.375,863,1102.375,1035,1102.375,1035,1230.375,1025,1240.375,853,1240.375,853,1112.375" style="stroke:#181818;stroke-width:1;"/><line style="stroke:#181818;stroke-width:1;" x1="1025" x2="1035" y1="1112.375" y2="1102.375"/><line style="stroke:#181818;stroke-width:1;" x1="853" x2="1025" y1="1112.375" y2="1112.375"/><line style="stroke:#181818;stroke-width:1;" x1="1025" x2="1025" y1="1112.375" y2="1240.375"/><text fill="#000000" font-family="sans-serif" font-size="14" font-weight="bold" lengthAdjust="spacing" textLength="64.5859" x="907.707" y="1129.9082">mysql:8.0</text><text fill="#000000" font-family="sans-serif" font-size="14" font-weight="bold" lengthAdjust="spacing" textLength="106.6064" x="886.6968" y="1147.5176">(port 3306/3307)</text></g><!--cluster FrontC--><g class="cluster" data-entity="FrontC" data-source-line="33" data-uid="ent0020" id="cluster_FrontC"><polygon fill="none" points="760,481.375,770,471.375,944,471.375,944,610.375,934,620.375,760,620.375,760,481.375" style="stroke:#181818;stroke-width:1;"/><line style="stroke:#181818;stroke-width:1;" x1="934" x2="944" y1="481.375" y2="471.375"/><line style="stroke:#181818;stroke-width:1;" x1="760" x2="934" y1="481.375" y2="481.375"/><line style="stroke:#181818;stroke-width:1;" x1="934" x2="934" y1="481.375" y2="620.375"/><text fill="#000000" font-family="sans-serif" font-size="14" font-weight="bold" lengthAdjust="spacing" textLength="56.7656" x="819.6172" y="498.9082">frontend</text><text fill="#000000" font-family="sans-serif" font-size="14" font-weight="bold" lengthAdjust="spacing" textLength="108.1172" x="793.9414" y="516.5176">(node:22-alpine)</text></g><!--cluster Volumes--><g class="cluster" data-entity="Volumes" data-source-line="38" data-uid="ent0022" id="cluster_Volumes"><polygon fill="none" points="48,1108.375,58,1098.375,424,1098.375,424,1393.875,414,1403.875,48,1403.875,48,1108.375" style="stroke:#181818;stroke-width:1;"/><line style="stroke:#181818;stroke-width:1;" x1="414" x2="424" y1="1108.375" y2="1098.375"/><line style="stroke:#181818;stroke-width:1;" x1="48" x2="414" y1="1108.375" y2="1108.375"/><line style="stroke:#181818;stroke-width:1;" x1="414" x2="414" y1="1108.375" y2="1403.875"/><text fill="#000000" font-family="sans-serif" font-size="14" font-weight="bold" lengthAdjust="spacing" textLength="62.248" x="200.876" y="1125.9082">Stockage</text><text fill="#000000" font-family="sans-serif" font-size="14" font-weight="bold" lengthAdjust="spacing" textLength="91.7793" x="186.1104" y="1143.5176">(host volume)</text></g><!--cluster Services--><g class="cluster" data-entity="Services" data-source-line="45" data-uid="ent0026" id="cluster_Services"><polygon fill="none" points="1115,1132.875,1125,1122.875,1637,1122.875,1637,1227.875,1627,1237.875,1115,1237.875,1115,1132.875" style="stroke:#181818;stroke-width:1;"/><line style="stroke:#181818;stroke-width:1;" x1="1627" x2="1637" y1="1132.875" y2="1122.875"/><line style="stroke:#181818;stroke-width:1;" x1="1115" x2="1627" y1="1132.875" y2="1132.875"/><line style="stroke:#181818;stroke-width:1;" x1="1627" x2="1627" y1="1132.875" y2="1237.875"/><text fill="#000000" font-family="sans-serif" font-size="14" font-weight="bold" lengthAdjust="spacing" textLength="120.6406" x="1311.6797" y="1150.4082">Services Externes</text></g><!--entity NginxConf--><g class="entity" data-entity="NginxConf" data-source-line="15" data-uid="ent0010" id="entity_NginxConf"><rect fill="#F1F1F1" height="75.8281" rx="2.5" ry="2.5" style="stroke:#181818;stroke-width:0.5;" width="147.5098" x="531" y="753.375"/><polygon fill="#F1F1F1" points="661.5098,758.375,661.5098,772.375,673.5098,772.375,673.5098,764.375,667.5098,758.375,661.5098,758.375" style="stroke:#181818;stroke-width:0.5;"/><line style="stroke:#181818;stroke-width:0.5;" x1="667.5098" x2="667.5098" y1="758.375" y2="764.375"/><line style="stroke:#181818;stroke-width:0.5;" x1="673.5098" x2="667.5098" y1="764.375" y2="764.375"/><text fill="#000000" font-family="sans-serif" font-size="14" lengthAdjust="spacing" textLength="63.8203" x="541" y="780.9082">nginx.conf</text><text fill="#000000" font-family="sans-serif" font-size="14" lengthAdjust="spacing" textLength="109.6758" x="541" y="798.5176">(proxy PHP-FPM,</text><text fill="#000000" font-family="sans-serif" font-size="14" lengthAdjust="spacing" textLength="117.5098" x="541" y="816.127">cache assets 1 an)</text></g><!--entity Laravel--><g class="entity" data-entity="Laravel" data-source-line="19" data-uid="ent0012" id="entity_Laravel"><rect fill="#F1F1F1" height="58.2188" rx="2.5" ry="2.5" style="stroke:#181818;stroke-width:0.5;" width="97.3135" x="552.5" y="968.375"/><polygon fill="#F1F1F1" points="632.8135,973.375,632.8135,987.375,644.8135,987.375,644.8135,979.375,638.8135,973.375,632.8135,973.375" style="stroke:#181818;stroke-width:0.5;"/><line style="stroke:#181818;stroke-width:0.5;" x1="638.8135" x2="638.8135" y1="973.375" y2="979.375"/><line style="stroke:#181818;stroke-width:0.5;" x1="644.8135" x2="638.8135" y1="979.375" y2="979.375"/><text fill="#000000" font-family="sans-serif" font-size="14" lengthAdjust="spacing" textLength="65.3789" x="562.5" y="995.9082">Laravel 11</text><text fill="#000000" font-family="sans-serif" font-size="14" lengthAdjust="spacing" textLength="67.3135" x="562.5" y="1013.5176">+ Sanctum</text></g><!--entity Horizon--><g class="entity" data-entity="Horizon" data-source-line="20" data-uid="ent0013" id="entity_Horizon"><rect fill="#F1F1F1" height="58.2188" rx="2.5" ry="2.5" style="stroke:#181818;stroke-width:0.5;" width="85.2549" x="684.5" y="968.375"/><polygon fill="#F1F1F1" points="752.7549,973.375,752.7549,987.375,764.7549,987.375,764.7549,979.375,758.7549,973.375,752.7549,973.375" style="stroke:#181818;stroke-width:0.5;"/><line style="stroke:#181818;stroke-width:0.5;" x1="758.7549" x2="758.7549" y1="973.375" y2="979.375"/><line style="stroke:#181818;stroke-width:0.5;" x1="764.7549" x2="758.7549" y1="979.375" y2="979.375"/><text fill="#000000" font-family="sans-serif" font-size="14" lengthAdjust="spacing" textLength="48.2412" x="694.5" y="995.9082">Horizon</text><text fill="#000000" font-family="sans-serif" font-size="14" lengthAdjust="spacing" textLength="55.2549" x="694.5" y="1013.5176">(queues)</text></g><!--entity OPCache--><g class="entity" data-entity="OPCache" data-source-line="21" data-uid="ent0014" id="entity_OPCache"><rect fill="#F1F1F1" height="58.2188" rx="2.5" ry="2.5" style="stroke:#181818;stroke-width:0.5;" width="126.0928" x="552" y="1163.875"/><polygon fill="#F1F1F1" points="661.0928,1168.875,661.0928,1182.875,673.0928,1182.875,673.0928,1174.875,667.0928,1168.875,661.0928,1168.875" style="stroke:#181818;stroke-width:0.5;"/><line style="stroke:#181818;stroke-width:0.5;" x1="667.0928" x2="667.0928" y1="1168.875" y2="1174.875"/><line style="stroke:#181818;stroke-width:0.5;" x1="673.0928" x2="667.0928" y1="1174.875" y2="1174.875"/><text fill="#000000" font-family="sans-serif" font-size="14" lengthAdjust="spacing" textLength="96.0928" x="562" y="1191.4082">OPCache + JIT</text><text fill="#000000" font-family="sans-serif" font-size="14" lengthAdjust="spacing" textLength="76.248" x="562" y="1209.0176">(buffer 64M)</text></g><!--entity Composer--><g class="entity" data-entity="Composer" data-source-line="25" data-uid="ent0016" id="entity_Composer"><rect fill="#F1F1F1" height="40.6094" rx="2.5" ry="2.5" style="stroke:#181818;stroke-width:0.5;" width="106.2549" x="905" y="770.875"/><polygon fill="#F1F1F1" points="994.2549,775.875,994.2549,789.875,1006.2549,789.875,1006.2549,781.875,1000.2549,775.875,994.2549,775.875" style="stroke:#181818;stroke-width:0.5;"/><line style="stroke:#181818;stroke-width:0.5;" x1="1000.2549" x2="1000.2549" y1="775.875" y2="781.875"/><line style="stroke:#181818;stroke-width:0.5;" x1="1006.2549" x2="1000.2549" y1="781.875" y2="781.875"/><text fill="#000000" font-family="sans-serif" font-size="14" lengthAdjust="spacing" textLength="76.2549" x="915" y="798.4082">Composer 2</text></g><!--entity NodeJS--><g class="entity" data-entity="NodeJS" data-source-line="26" data-uid="ent0017" id="entity_NodeJS"><rect fill="#F1F1F1" height="40.6094" rx="2.5" ry="2.5" style="stroke:#181818;stroke-width:0.5;" width="82.9307" x="786.5" y="770.875"/><polygon fill="#F1F1F1" points="852.4307,775.875,852.4307,789.875,864.4307,789.875,864.4307,781.875,858.4307,775.875,852.4307,775.875" style="stroke:#181818;stroke-width:0.5;"/><line style="stroke:#181818;stroke-width:0.5;" x1="858.4307" x2="858.4307" y1="775.875" y2="781.875"/><line style="stroke:#181818;stroke-width:0.5;" x1="864.4307" x2="858.4307" y1="781.875" y2="781.875"/><text fill="#000000" font-family="sans-serif" font-size="14" lengthAdjust="spacing" textLength="52.9307" x="796.5" y="798.4082">Node 22</text></g><!--entity MySQL--><g class="entity" data-entity="MySQL" data-source-line="30" data-uid="ent0019" id="entity_MySQL"><path d="M918,1179.375 C918,1169.375 952.9033,1169.375 952.9033,1169.375 C952.9033,1169.375 987.8066,1169.375 987.8066,1179.375 L987.8066,1205.9844 C987.8066,1215.9844 952.9033,1215.9844 952.9033,1215.9844 C952.9033,1215.9844 918,1215.9844 918,1205.9844 L918,1179.375" fill="#F1F1F1" style="stroke:#181818;stroke-width:0.5;"/><path d="M918,1179.375 C918,1189.375 952.9033,1189.375 952.9033,1189.375 C952.9033,1189.375 987.8066,1189.375 987.8066,1179.375" fill="none" style="stroke:#181818;stroke-width:0.5;"/><text fill="#000000" font-family="sans-serif" font-size="14" lengthAdjust="spacing" textLength="49.8066" x="928" y="1207.9082">portfolio</text></g><!--entity NextJS--><g class="entity" data-entity="NextJS" data-source-line="34" data-uid="ent0021" id="entity_NextJS"><rect fill="#F1F1F1" height="58.2188" rx="2.5" ry="2.5" style="stroke:#181818;stroke-width:0.5;" width="105.4688" x="811.5" y="538.375"/><polygon fill="#F1F1F1" points="899.9688,543.375,899.9688,557.375,911.9688,557.375,911.9688,549.375,905.9688,543.375,899.9688,543.375" style="stroke:#181818;stroke-width:0.5;"/><line style="stroke:#181818;stroke-width:0.5;" x1="905.9688" x2="905.9688" y1="543.375" y2="549.375"/><line style="stroke:#181818;stroke-width:0.5;" x1="911.9688" x2="905.9688" y1="549.375" y2="549.375"/><text fill="#000000" font-family="sans-serif" font-size="14" lengthAdjust="spacing" textLength="62.248" x="821.5" y="565.9082">Next.js 16</text><text fill="#000000" font-family="sans-serif" font-size="14" lengthAdjust="spacing" textLength="75.4688" x="821.5" y="583.5176">(Turbopack)</text></g><!--entity LaravelVol--><g class="entity" data-entity="LaravelVol" data-source-line="39" data-uid="ent0023" id="entity_LaravelVol"><rect fill="#F1F1F1" height="55.2188" rx="35" ry="35" style="stroke:#181818;stroke-width:0.5;" width="135.9443" x="91" y="1165.375"/><text fill="#000000" font-family="sans-serif" font-size="14" lengthAdjust="spacing" textLength="115.9443" x="101" y="1189.9082">01-portfolio-laravel</text><text fill="#000000" font-family="sans-serif" font-size="14" lengthAdjust="spacing" textLength="66.8828" x="101" y="1207.5176">(/var/www)</text></g><!--entity FrontendVol--><g class="entity" data-entity="FrontendVol" data-source-line="40" data-uid="ent0024" id="entity_FrontendVol"><rect fill="#F1F1F1" height="55.2188" rx="35" ry="35" style="stroke:#181818;stroke-width:0.5;" width="137.5029" x="262" y="1165.375"/><text fill="#000000" font-family="sans-serif" font-size="14" lengthAdjust="spacing" textLength="117.5029" x="272" y="1189.9082">02-portfolio-nextJS</text><text fill="#000000" font-family="sans-serif" font-size="14" lengthAdjust="spacing" textLength="36.5723" x="272" y="1207.5176">(/app)</text></g><!--entity DBVol--><g class="entity" data-entity="DBVol" data-source-line="41" data-uid="ent0025" id="entity_DBVol"><rect fill="#F1F1F1" height="55.2188" rx="35" ry="35" style="stroke:#181818;stroke-width:0.5;" width="111.0068" x="103.5" y="1324.875"/><text fill="#000000" font-family="sans-serif" font-size="14" lengthAdjust="spacing" textLength="50.6064" x="113.5" y="1349.4082">db_data</text><text fill="#000000" font-family="sans-serif" font-size="14" lengthAdjust="spacing" textLength="91.0068" x="113.5" y="1367.0176">(/var/lib/mysql)</text></g><!--entity Mail--><g class="entity" data-entity="Mail" data-source-line="46" data-uid="ent0027" id="entity_Mail"><rect fill="#F1F1F1" height="40.6094" rx="2.5" ry="2.5" style="stroke:#181818;stroke-width:0.5;" width="129.5859" x="1131" y="1172.375"/><polygon fill="#F1F1F1" points="1243.5859,1177.375,1243.5859,1191.375,1255.5859,1191.375,1255.5859,1183.375,1249.5859,1177.375,1243.5859,1177.375" style="stroke:#181818;stroke-width:0.5;"/><line style="stroke:#181818;stroke-width:0.5;" x1="1249.5859" x2="1249.5859" y1="1177.375" y2="1183.375"/><line style="stroke:#181818;stroke-width:0.5;" x1="1255.5859" x2="1249.5859" y1="1183.375" y2="1183.375"/><text fill="#000000" font-family="sans-serif" font-size="14" lengthAdjust="spacing" textLength="99.5859" x="1141" y="1199.9082">SMTP / Mailhog</text></g><!--entity PaliGemma--><g class="entity" data-entity="PaliGemma" data-source-line="47" data-uid="ent0028" id="entity_PaliGemma"><rect fill="#F1F1F1" height="40.6094" rx="2.5" ry="2.5" style="stroke:#181818;stroke-width:0.5;" width="143.6064" x="1296" y="1172.375"/><polygon fill="#F1F1F1" points="1422.6064,1177.375,1422.6064,1191.375,1434.6064,1191.375,1434.6064,1183.375,1428.6064,1177.375,1422.6064,1177.375" style="stroke:#181818;stroke-width:0.5;"/><line style="stroke:#181818;stroke-width:0.5;" x1="1428.6064" x2="1428.6064" y1="1177.375" y2="1183.375"/><line style="stroke:#181818;stroke-width:0.5;" x1="1434.6064" x2="1428.6064" y1="1183.375" y2="1183.375"/><text fill="#000000" font-family="sans-serif" font-size="14" lengthAdjust="spacing" textLength="113.6064" x="1306" y="1199.9082">PaliGemma 2 10B</text></g><!--entity Echo--><g class="entity" data-entity="Echo" data-source-line="48" data-uid="ent0029" id="entity_Echo"><rect fill="#F1F1F1" height="58.2188" rx="2.5" ry="2.5" style="stroke:#181818;stroke-width:0.5;" width="145.9443" x="1475" y="1163.875"/><polygon fill="#F1F1F1" points="1603.9443,1168.875,1603.9443,1182.875,1615.9443,1182.875,1615.9443,1174.875,1609.9443,1168.875,1603.9443,1168.875" style="stroke:#181818;stroke-width:0.5;"/><line style="stroke:#181818;stroke-width:0.5;" x1="1609.9443" x2="1609.9443" y1="1168.875" y2="1174.875"/><line style="stroke:#181818;stroke-width:0.5;" x1="1615.9443" x2="1609.9443" y1="1174.875" y2="1174.875"/><text fill="#000000" font-family="sans-serif" font-size="14" lengthAdjust="spacing" textLength="81.7168" x="1485" y="1191.4082">Laravel Echo</text><text fill="#000000" font-family="sans-serif" font-size="14" lengthAdjust="spacing" textLength="115.9443" x="1485" y="1209.0176">(WebSocket 6001)</text></g><!--entity Visiteur--><g class="entity" data-entity="Visiteur" data-source-line="5" data-uid="ent0002" id="entity_Visiteur"><ellipse cx="904.8413" cy="223.375" fill="#F1F1F1" rx="8" ry="8" style="stroke:#181818;stroke-width:0.5;"/><path d="M904.8413,231.375 L904.8413,258.375 M891.8413,239.375 L917.8413,239.375 M904.8413,258.375 L891.8413,273.375 M904.8413,258.375 L917.8413,273.375" fill="none" style="stroke:#181818;stroke-width:0.5;"/><text fill="#000000" font-family="sans-serif" font-size="14" lengthAdjust="spacing" textLength="46.6826" x="881.5" y="289.4082">Visiteur</text></g><!--entity User--><g class="entity" data-entity="User" data-source-line="6" data-uid="ent0003" id="entity_User"><ellipse cx="773.0791" cy="214.875" fill="#F1F1F1" rx="8" ry="8" style="stroke:#181818;stroke-width:0.5;"/><path d="M773.0791,222.875 L773.0791,249.875 M760.0791,230.875 L786.0791,230.875 M773.0791,249.875 L760.0791,264.875 M773.0791,249.875 L786.0791,264.875" fill="none" style="stroke:#181818;stroke-width:0.5;"/><text fill="#000000" font-family="sans-serif" font-size="14" lengthAdjust="spacing" textLength="62.2412" x="740" y="280.9082">Utilisateur</text><text fill="#000000" font-family="sans-serif" font-size="14" lengthAdjust="spacing" textLength="66.1582" x="740" y="298.5176">Authentifi&#233;</text></g><!--entity Proprietaire--><g class="entity" data-entity="Proprietaire" data-source-line="7" data-uid="ent0004" id="entity_Proprietaire"><ellipse cx="625.793" cy="214.875" fill="#F1F1F1" rx="8" ry="8" style="stroke:#181818;stroke-width:0.5;"/><path d="M625.793,222.875 L625.793,249.875 M612.793,230.875 L638.793,230.875 M625.793,249.875 L612.793,264.875 M625.793,249.875 L638.793,264.875" fill="none" style="stroke:#181818;stroke-width:0.5;"/><text fill="#000000" font-family="sans-serif" font-size="14" lengthAdjust="spacing" textLength="72.3652" x="572.5" y="280.9082">Propri&#233;taire</text><text fill="#000000" font-family="sans-serif" font-size="14" lengthAdjust="spacing" textLength="106.5859" x="572.5" y="298.5176">(Baye Mor Gaye)</text></g><!--link User to Visiteur--><g class="link" data-entity-1="User" data-entity-2="Visiteur" data-source-line="9" data-uid="lnk5" id="link_User_Visiteur"><path d="M806.26,253.875 C831.33,253.875 838.4,253.875 863.47,253.875" fill="none" id="User-to-Visiteur" style="stroke:#181818;stroke-width:1;"/><polygon fill="none" points="881.47,253.875,863.47,247.875,863.47,259.875,881.47,253.875" style="stroke:#181818;stroke-width:1;"/></g><!--link Proprietaire to User--><g class="link" data-entity-1="Proprietaire" data-entity-2="User" data-source-line="10" data-uid="lnk6" id="link_Proprietaire_User"><path d="M679.69,253.875 C699.74,253.875 701.78,253.875 721.83,253.875" fill="none" id="Proprietaire-to-User" style="stroke:#181818;stroke-width:1;"/><polygon fill="none" points="739.83,253.875,721.83,247.875,721.83,259.875,739.83,253.875" style="stroke:#181818;stroke-width:1;"/></g><!--link Visiteur to FrontC--><g class="link" data-entity-1="Visiteur" data-entity-2="FrontC" data-source-line="52" data-uid="lnk30" id="link_Visiteur_FrontC"><path d="M916.66,292.925 C920.05,312.205 919.75,334.605 906,349.375 C889.15,367.475 812.77,340.175 795,357.375 C761.965,389.34 756.12,440.47 758.7025,484.1563 C758.8639,486.8866 759.0582,489.588 759.2809,492.2537 C759.3922,493.5866 759.5106,494.9105 759.6356,496.2248 C759.698,496.8819 759.7621,497.5367 759.8278,498.1888 C759.8606,498.5149 759.2766,492.8722 759.3102,493.197" fill="none" id="Visiteur-to-FrontC" style="stroke:#181818;stroke-width:1;"/><polygon fill="#181818" points="759.9274,499.1652,762.9803,489.8014,759.413,494.1917,755.0228,490.6245,759.9274,499.1652" style="stroke:#181818;stroke-width:1;"/><text fill="#000000" font-family="sans-serif" font-size="13" lengthAdjust="spacing" textLength="130.0508" x="916" y="345.8701">HTTP (localhost:3000)</text></g><!--link User to FrontC--><g class="link" data-entity-1="User" data-entity-2="FrontC" data-source-line="53" data-uid="lnk31" id="link_User_FrontC"><path d="M770.88,301.385 C770.52,311.285 770.19,321.675 770,331.375 C769.4975,357.075 769.4237,384.3581 769.5983,410.8886 C769.6855,424.1538 769.8349,437.2309 770.0237,449.8278 C770.1182,456.1263 770.2225,462.3047 770.3338,468.3266 C770.3477,469.0794 770.2484,463.8307 770.2625,464.5785" fill="none" id="User-to-FrontC" style="stroke:#181818;stroke-width:1;"/><polygon fill="#181818" points="770.3759,470.5774,774.2051,461.5034,770.2814,465.5783,766.2065,461.6546,770.3759,470.5774" style="stroke:#181818;stroke-width:1;"/><text fill="#000000" font-family="sans-serif" font-size="13" lengthAdjust="spacing" textLength="130.0508" x="771" y="345.8701">HTTP (localhost:3000)</text></g><!--link Proprietaire to FrontC--><g class="link" data-entity-1="Proprietaire" data-entity-2="FrontC" data-source-line="54" data-uid="lnk32" id="link_Proprietaire_FrontC"><path d="M622.43,301.395 C622.56,316.965 624.16,334.205 629,349.375 C646.315,403.65 681.47,457.065 712.7088,497.3187 C728.3281,517.4456 742.9684,534.2822 753.9102,546.2908 C755.2779,547.7919 756.5878,549.2175 757.8346,550.5647 C758.458,551.2383 754.9738,547.5041 755.5649,548.1381" fill="none" id="Proprietaire-to-FrontC" style="stroke:#181818;stroke-width:1;"/><polygon fill="#181818" points="759.6569,552.5263,756.4445,543.216,756.2469,548.8694,750.5935,548.6719,759.6569,552.5263" style="stroke:#181818;stroke-width:1;"/><text fill="#000000" font-family="sans-serif" font-size="13" lengthAdjust="spacing" textLength="130.0508" x="630" y="345.8701">HTTP (localhost:3000)</text></g><!--link FrontC to NginxC--><g class="link" data-entity-1="FrontC" data-entity-2="NginxC" data-source-line="56" data-uid="lnk33" id="link_FrontC_NginxC"><path d="M759.4131,569.2316 C759.2127,569.2479 759.0104,569.2645 758.8061,569.2813 C757.1719,569.4165 755.4121,569.5707 753.5351,569.7463 C749.781,570.0977 745.558,570.5351 740.9323,571.0783 C722.4297,573.2509 697.4844,577.1156 670.3387,583.9338 C616.0475,597.57 552.955,623.02 515,670.375 C512.9225,672.9675 511.0287,675.6952 509.3039,678.5317 C508.4415,679.95 507.6213,681.3955 506.8415,682.8648 C506.4517,683.5995 506.0719,684.3401 505.702,685.0863 C505.517,685.4594 507.9269,680.4228 507.7468,680.7986" fill="none" id="FrontC-to-NginxC" style="stroke:#181818;stroke-width:1;"/><polygon fill="#181818" points="505.1545,686.2097,512.6504,679.8213,507.3147,681.7005,505.4356,676.3649,505.1545,686.2097" style="stroke:#181818;stroke-width:1;"/><text fill="#000000" font-family="sans-serif" font-size="13" lengthAdjust="spacing" textLength="117.0635" x="536" y="658.8701">API (localhost:8000)</text></g><!--link NginxC to PHPC--><g class="link" data-entity-1="NginxC" data-entity-2="PHPC" data-source-line="57" data-uid="lnk34" id="link_NginxC_PHPC"><path d="M503.6768,853.6399 C503.7342,853.7604 503.7918,853.8808 503.8499,854.0009 C504.7787,855.9229 505.8021,857.7921 506.9287,859.5899 C509.182,863.1856 511.8488,866.4963 515,869.375 C571.43,920.935 609.07,886.575 685,895.375 C696.18,896.675 777.57,895.915 786,903.375 C789.8888,906.8138 793.1081,910.8144 795.764,915.1865 C796.4279,916.2796 797.0567,917.3958 797.6519,918.5323 C797.7263,918.6744 795.057,913.4806 795.1303,913.6232" fill="none" id="NginxC-to-PHPC" style="stroke:#181818;stroke-width:1;"/><polygon fill="#181818" points="797.8735,918.9595,797.3162,909.1264,795.5875,914.5126,790.2013,912.7839,797.8735,918.9595" style="stroke:#181818;stroke-width:1;"/><text fill="#000000" font-family="sans-serif" font-size="13" lengthAdjust="spacing" textLength="78.7617" x="686" y="891.8701">fastcgi (9000)</text></g><!--link NginxC to Volumes--><g class="link" data-entity-1="NginxC" data-entity-2="Volumes" data-source-line="58" data-uid="lnk35" id="link_NginxC_Volumes"><path d="M487.6366,793.4342 C487.1861,793.4927 486.7185,793.5535 486.2342,793.6167 C484.297,793.8697 482.0921,794.1609 479.6379,794.4901 C469.8213,795.807 456.0173,797.7312 439.4116,800.2392 C406.2,805.2553 361.7813,812.6069 315.64,822.1063 C223.3575,841.105 124.185,868.695 94,903.375 C52.21,951.39 42.3525,1022.03 43.1175,1081.3913 C43.3087,1096.2316 44.1639,1110.367 45.35,1123.2677 C45.943,1129.718 46.6188,1135.8597 47.3357,1141.6265 C47.5149,1143.0682 46.9127,1138.538 47.0964,1139.9318" fill="none" id="NginxC-to-Volumes" style="stroke:#181818;stroke-width:1;"/><polygon fill="#181818" points="47.8805,1145.8803,50.6701,1136.4348,47.2271,1140.9232,42.7387,1137.4802,47.8805,1145.8803" style="stroke:#181818;stroke-width:1;"/><text fill="#000000" font-family="sans-serif" font-size="13" lengthAdjust="spacing" textLength="93.2153" x="95" y="1002.8701">assets statiques</text></g><!--link NginxC to Volumes--><g class="link" data-entity-1="NginxC" data-entity-2="Volumes" data-source-line="68" data-uid="lnk42" id="link_NginxC_Volumes"><path d="M487.789,794.2101 C483.1053,795.3114 476.5753,796.9199 468.61,799.0692 C452.6794,803.3678 431.0075,809.8294 406.8825,818.7213 C358.6325,836.505 300.57,864.01 259,903.375 C213.95,946.035 237.94,983.605 193,1026.375 C150.95,1066.395 110.12,1036.155 75,1082.375 C71.3225,1087.2138 70.7456,1087.0576 68.2066,1092.6422" fill="none" id="NginxC-to-Volumes-1" style="stroke:#181818;stroke-width:1;"/><polygon fill="#181818" points="65.7233,1098.1042,73.0896,1091.5667,67.7927,1093.5525,65.8069,1088.2557,65.7233,1098.1042" style="stroke:#181818;stroke-width:1;"/><text fill="#000000" font-family="sans-serif" font-size="13" lengthAdjust="spacing" textLength="110.5381" x="260" y="1002.8701">sert fichiers publics</text></g><!--link PHPC to DBC--><g class="link" data-entity-1="PHPC" data-entity-2="DBC" data-source-line="60" data-uid="lnk36" id="link_PHPC_DBC"><path d="M813.0643,1026.2395 C813.1414,1026.5058 813.2189,1026.7737 813.2968,1027.0429 C813.6085,1028.1199 813.9269,1029.2198 814.2514,1030.3411 C819.4441,1048.2822 826.2281,1071.7219 833.0113,1095.1588 C839.7944,1118.5956 846.5766,1142.0297 851.7655,1159.9595 C852.0898,1161.0801 852.4079,1162.1793 852.7193,1163.2555 C852.7972,1163.5246 851.2067,1158.0287 851.2837,1158.2949" fill="none" id="PHPC-to-DBC" style="stroke:#181818;stroke-width:1;"/><polygon fill="#181818" points="852.9517,1164.0584,854.2921,1154.3012,851.5617,1159.2555,846.6074,1156.5251,852.9517,1164.0584" style="stroke:#181818;stroke-width:1;"/><text fill="#000000" font-family="sans-serif" font-size="13" lengthAdjust="spacing" textLength="69.3608" x="827" y="1070.8701">PDO (3306)</text></g><!--link PHPC to Volumes--><g class="link" data-entity-1="PHPC" data-entity-2="Volumes" data-source-line="61" data-uid="lnk37" id="link_PHPC_Volumes"><path d="M527.66,1068.8048 C525.2779,1068.9067 522.9045,1069.0059 520.541,1069.1026 C515.8139,1069.296 511.1263,1069.4795 506.4872,1069.6549 C497.209,1070.0057 488.125,1070.3242 479.3081,1070.6255 C444.0406,1071.8306 413.0475,1072.76 391,1074.375 C373.49,1075.655 88.29,1070.895 75,1082.375 C70.4,1086.3463 66.6444,1090.9981 63.595,1096.103 C63.2138,1096.7411 65.7406,1092.132 65.3812,1092.7838" fill="none" id="PHPC-to-Volumes" style="stroke:#181818;stroke-width:1;"/><polygon fill="#181818" points="62.4843,1098.0381,70.3325,1092.0879,64.8984,1093.6595,63.3268,1088.2253,62.4843,1098.0381" style="stroke:#181818;stroke-width:1;"/><text fill="#000000" font-family="sans-serif" font-size="13" lengthAdjust="spacing" textLength="96.8208" x="676" y="1070.8701">stockage fichiers</text></g><!--link PHPC to PaliGemma--><g class="link" data-entity-1="PHPC" data-entity-2="PaliGemma" data-source-line="62" data-uid="lnk38" id="link_PHPC_PaliGemma"><path d="M813.6383,999.0857 C813.8816,999.1061 814.1297,999.1269 814.3827,999.1482 C814.8885,999.1907 815.4135,999.2351 815.9575,999.2811 C818.1331,999.4654 820.6107,999.6778 823.3703,999.9181 C834.4085,1000.8794 849.958,1002.2876 868.7378,1004.1327 C906.2975,1007.8228 956.7788,1013.2606 1009.935,1020.3663 C1116.2475,1034.5775 1233.26,1055.46 1279,1082.375 C1315.74,1103.995 1340.7205,1141.5688 1354.8305,1166.7888" fill="none" id="PHPC-to-PaliGemma" style="stroke:#181818;stroke-width:1;"/><polygon fill="#181818" points="1357.76,1172.025,1356.8565,1162.2177,1355.3187,1167.6615,1349.8749,1166.1237,1357.76,1172.025" style="stroke:#181818;stroke-width:1;"/><text fill="#000000" font-family="sans-serif" font-size="13" lengthAdjust="spacing" textLength="67.1772" x="1260" y="1070.8701">API HTTPS</text></g><!--link PHPC to Mail--><g class="link" data-entity-1="PHPC" data-entity-2="Mail" data-source-line="63" data-uid="lnk39" id="link_PHPC_Mail"><path d="M813.2691,1001.4601 C813.5219,1001.5551 813.7801,1001.6523 814.0435,1001.7514 C815.0972,1002.1482 816.2354,1002.5776 817.454,1003.0387 C819.8911,1003.9608 822.6497,1005.0092 825.6973,1006.1745 C837.8878,1010.8359 854.7019,1017.3681 874.0563,1025.1688 C912.765,1040.77 961.635,1061.445 1004,1082.375 C1061.97,1111.015 1121.6868,1146.272 1159.2368,1169.162" fill="none" id="PHPC-to-Mail" style="stroke:#181818;stroke-width:1;"/><polygon fill="#181818" points="1164.36,1172.285,1158.7573,1164.185,1160.0907,1169.6825,1154.5932,1171.0159,1164.36,1172.285" style="stroke:#181818;stroke-width:1;"/><text fill="#000000" font-family="sans-serif" font-size="13" lengthAdjust="spacing" textLength="70.0718" x="983" y="1070.8701">SMTP (587)</text></g><!--link WSC to PHPC--><g class="link" data-entity-1="WSC" data-entity-2="PHPC" data-source-line="65" data-uid="lnk40" id="link_WSC_PHPC"><path d="M760.2314,836.2421 C760.3618,836.7634 760.4933,837.2863 760.6261,837.8105 C761.1574,839.9073 761.7084,842.0258 762.2784,844.1538 C764.5587,852.6656 767.145,861.33 770,869.375 C775.58,885.115 780.74,887.525 786,903.375 C787.61,908.2238 789.1088,913.2619 790.4996,918.3724 C790.5865,918.6918 789.1141,913.2176 789.2002,913.5375" fill="none" id="WSC-to-PHPC" style="stroke:#181818;stroke-width:1;"/><polygon fill="#181818" points="790.7591,919.3315,792.2834,909.6013,789.46,914.5032,784.5581,911.6798,790.7591,919.3315" style="stroke:#181818;stroke-width:1;"/><text fill="#000000" font-family="sans-serif" font-size="13" lengthAdjust="spacing" textLength="106.9326" x="783" y="891.8701">artisan / composer</text></g><!--link WSC to Volumes--><g class="link" data-entity-1="WSC" data-entity-2="Volumes" data-source-line="66" data-uid="lnk41" id="link_WSC_Volumes"><path d="M742.9243,811.8428 C742.7095,812.2926 742.4905,812.7472 742.2673,813.2063 C740.4812,816.8798 738.4216,820.8453 736.0888,824.9363 C726.7575,841.3 713.055,859.67 695,869.375 C677.47,878.805 535.27,872.365 516,877.375 C490.99,883.875 483.7,886.645 464,903.375 C412.57,947.055 432.01,990.275 375,1026.375 C367.84,1030.915 80.96,1076.345 75,1082.375 C70.73,1086.7 67.2231,1091.6186 64.3562,1096.9192 C64.177,1097.2505 66.7737,1092.2627 66.5995,1092.5969" fill="none" id="WSC-to-Volumes" style="stroke:#181818;stroke-width:1;"/><polygon fill="#181818" points="63.8262,1097.9175,71.5332,1091.7855,66.1373,1093.4837,64.4391,1088.0877,63.8262,1097.9175" style="stroke:#181818;stroke-width:1;"/><text fill="#000000" font-family="sans-serif" font-size="13" lengthAdjust="spacing" textLength="70.8208" x="465" y="1002.8701">code source</text></g><!--link FrontC to Echo--><g class="link" data-entity-1="FrontC" data-entity-2="Echo" data-source-line="70" data-uid="lnk43" id="link_FrontC_Echo"><path d="M782.876,620.4133 C783.3094,621.279 783.7614,622.1345 784.2329,622.9777 C785.176,624.664 786.1971,626.301 787.3027,627.872 C789.5138,631.0141 792.0625,633.8925 795,636.375 C874.59,703.645 933.35,624.655 1027,670.375 C1272.82,790.395 1468.0818,1068.5297 1526.9218,1158.7297" fill="none" id="FrontC-to-Echo" style="stroke:#181818;stroke-width:1;"/><polygon fill="#181818" points="1530.2,1163.755,1528.633,1154.0316,1527.4682,1159.5672,1521.9326,1158.4025,1530.2,1163.755" style="stroke:#181818;stroke-width:1;"/><text fill="#000000" font-family="sans-serif" font-size="13" lengthAdjust="spacing" textLength="107.6626" x="1318" y="891.8701">WebSocket (6001)</text></g><!--SRC=[XLRTJXiv5BwVfpZYPXD180cxb8r4fG1jGqKWoz3s1cdbJ9p4YyUUsXv-Tk61kEyRvCNs7DipIPf8lGaUd-yxFd_-Z1DESZWNR6POddEOuCVYhP1Qy9mh1urpdTrpqqmIUozKmH05cSuBhT2QkcSa6vuvfcQI9mdBd3RmLLZXU6c0sNeTJJjVd932CjgwK_tIpT6Dc8h5smwXlrXU8qT65mODZWd3xrJZb3rp6ABb4owQ7XuWt2EIXCZGUdc_F7FLxYtUVw8qPhapMFnmtBiPQElWlmGW66uMRvQp4aBcq8D26pVLKcYF3jjNF50gafe9zTHZiX2AWYKA7BVRxH3e5LdF8W606SmPquoq_KohAP6CVdg6qM3K-ZWQxjsfZ6LpZdJBdOKECBNg32dUssko4aKnBrhJ8kyTxn-sGYoXJeFHjiCliPiFN4AdSwTs8MKgSsNk2T6omHXe8_xL2cFzNlAIssQidz_TG5-Fpdm6k_3vuXOvut8wnO8U_JuCl6ZVJEDHctjRi8mgIUKukxm8Z6_fjZpEQ1wf-LqFgZutS5Val1j0jFwSRXwTFzll4klNhffuUDW-Ei2VTo62yzDb11Fcs9XPgllQX0oVqxykDrrFZLQEgmbwferUjnjx53n_9FEszAxuazl_1oVW29ctfHbhBCrzd0MqrMd4yy9fgSCvPJCguPpc-q7BCez7VVLh6y-oUDqG23ljJgjEf2N3223zu86PWyV7n-RgQA2BdyZT5RBoOH6N5SLAUfZz1d4o_fiAMHqanVZ0Dw6gTo2y9g_LnKsvUH0PXl_XoN6ZkFN0UfUIMXOl7TwEu026JCYvdeNsu7eDCs9IVE9vpg0BdVPfk3BLNhBjndp8vXe3_iR7AQc1WwDsknC29XF5-XkSd9pGBEQb4XbpGYjBMqcjZgtM-whfFHZSOfmDgJCcgLszGzAEA6c_ngqBtQ_nIRGJD6fJ3_gZYrMaLwyaMWdeLQG7KsPTDXFG-FDdG3LMlKgphCEyKIbiadWoWUW2zM1qVWqDkbhDfML9jt5sOIgokU36Ba7BNeM0ARzqQQRUeiLtlV77yJjCbJHZ9NngfcKAPoAhTA92B0F8QD2iBas6xyhM397dwl2WACTIP7QjhZG825pEICCFIP98FiDx04uNE5il9r6l63ws-77BixdIKiy4fy-RnGzyOLy82FwjgFx6fmO_R_W3Xi31lnvx41wDglAH6jy5N64LW5u7V66WNxc8OxrNAJBfTMJMKXou9CMevrv9NsgbtGDLv7jrQGDpCiOVBuLuO1lNfoILo9jefHPlM4N3fRyNYiiwoKeaSHdbkWfp5oeXV85-KSXugJ1_kfffUXCzqFt2xOi-HRn-it7d-km6U4x_trYObE1mZGuJEZ7q9VaV]--></g></svg>