<svg xmlns="http://www.w3.org/2000/svg" xmlns:xlink="http://www.w3.org/1999/xlink" contentStyleType="text/css" data-diagram-type="DESCRIPTION" height="2329px" preserveAspectRatio="none" style="width:1093px;height:2329px;background:#FFFFFF;" version="1.1" viewBox="0 0 1093 2329" width="1093px" zoomAndPan="magnify"><title>Diagramme de Cas d'Utilisation (Version R&#233;vis&#233;e &amp; Compl&#232;te)</title><defs/><g><text fill="#000000" font-family="sans-serif" font-size="14" font-weight="bold" lengthAdjust="spacing" textLength="412.5557" x="333.2222" y="24.5332">Diagramme de Cas d'Utilisation (Version R&#233;vis&#233;e &amp; Compl&#232;te)</text><!--cluster Espace Public (Consultation & Interactions)--><g class="cluster" data-entity="Espace Public (Consultation &amp; Interactions)" data-source-line="23" data-uid="ent0007" id="cluster_Espace Public (Consultation &amp; Interactions)"><rect fill="none" height="494" rx="7.5" ry="7.5" style="stroke:#181818;stroke-width:1;" width="932" x="155" y="1542.6094"/><text fill="#000000" font-family="sans-serif" font-size="14" font-weight="bold" lengthAdjust="spacing" textLength="290.9307" x="475.5347" y="1559.1426">Espace Public (Consultation &amp; Interactions)</text></g><!--cluster Authentification & Profil--><g class="cluster" data-entity="Authentification &amp; Profil" data-source-line="39" data-uid="ent0019" id="cluster_Authentification &amp; Profil"><rect fill="none" height="586" rx="7.5" ry="7.5" style="stroke:#181818;stroke-width:1;" width="256" x="156" y="638.6094"/><text fill="#000000" font-family="sans-serif" font-size="14" font-weight="bold" lengthAdjust="spacing" textLength="160.2139" x="203.8931" y="655.1426">Authentification &amp; Profil</text></g><!--cluster Gestion des Contenus & Administration--><g class="cluster" data-entity="Gestion des Contenus &amp; Administration" data-source-line="49" data-uid="ent0027" id="cluster_Gestion des Contenus &amp; Administration"><rect fill="none" height="270" rx="7.5" ry="7.5" style="stroke:#181818;stroke-width:1;" width="281" x="143.5" y="1248.6094"/><text fill="#000000" font-family="sans-serif" font-size="14" font-weight="bold" lengthAdjust="spacing" textLength="265.2412" x="151.3794" y="1265.1426">Gestion des Contenus &amp; Administration</text></g><!--cluster Interactions & Messagerie--><g class="cluster" data-entity="Interactions &amp; Messagerie" data-source-line="55" data-uid="ent0031" id="cluster_Interactions &amp; Messagerie"><rect fill="none" height="261" rx="7.5" ry="7.5" style="stroke:#181818;stroke-width:1;" width="244" x="162" y="45.6094"/><text fill="#000000" font-family="sans-serif" font-size="14" font-weight="bold" lengthAdjust="spacing" textLength="173.5098" x="197.2451" y="62.1426">Interactions &amp; Messagerie</text></g><!--cluster Planning, Rappels & Notifications--><g class="cluster" data-entity="Planning, Rappels &amp; Notifications" data-source-line="61" data-uid="ent0035" id="cluster_Planning, Rappels &amp; Notifications"><rect fill="none" height="254" rx="7.5" ry="7.5" style="stroke:#181818;stroke-width:1;" width="570" x="160" y="360.6094"/><text fill="#000000" font-family="sans-serif" font-size="14" font-weight="bold" lengthAdjust="spacing" textLength="224.0205" x="332.9897" y="377.1426">Planning, Rappels &amp; Notifications</text></g><g class="entity" data-entity="UCV" data-source-line="24" data-uid="ent0008" id="entity_UCV"><ellipse cx="962.6458" cy="1954.4556" fill="#F1F1F1" rx="108.6458" ry="24.3463" style="stroke:#181818;stroke-width:0.5;"/><text fill="#000000" font-family="sans-serif" font-size="12" lengthAdjust="spacing" textLength="137.4023" x="893.4397" y="1949.921">Visualiser les publications</text><text fill="#000000" font-family="sans-serif" font-size="12" lengthAdjust="spacing" textLength="57.3516" x="933.4651" y="1965.0147">avec filtres</text></g><g class="entity" data-entity="UCC" data-source-line="25" data-uid="ent0009" id="entity_UCC"><ellipse cx="632.243" cy="1832.4552" fill="#F1F1F1" rx="107.243" ry="24.3458" style="stroke:#181818;stroke-width:0.5;"/><text fill="#000000" font-family="sans-serif" font-size="12" lengthAdjust="spacing" textLength="135.4219" x="564.5037" y="1827.8242">Consulter une publication</text><text fill="#000000" font-family="sans-serif" font-size="12" lengthAdjust="spacing" textLength="38.6719" x="612.8787" y="1842.918">(D&#233;tail)</text></g><g class="entity" data-entity="UCA" data-source-line="26" data-uid="ent0010" id="entity_UCA"><ellipse cx="283.887" cy="1759.6868" fill="#F1F1F1" rx="90.887" ry="20.5774" style="stroke:#181818;stroke-width:0.5;"/><text fill="#000000" font-family="sans-serif" font-size="12" lengthAdjust="spacing" textLength="146.748" x="210.5129" y="1762.5969">Commenter une publication</text></g><g class="entity" data-entity="UCL" data-source-line="27" data-uid="ent0011" id="entity_UCL"><ellipse cx="283.7594" cy="1832.4613" fill="#F1F1F1" rx="74.7594" ry="17.3519" style="stroke:#181818;stroke-width:0.5;"/><text fill="#000000" font-family="sans-serif" font-size="12" lengthAdjust="spacing" textLength="110.0742" x="228.7223" y="1835.3714">Liker une publication</text></g><g class="entity" data-entity="UCP" data-source-line="29" data-uid="ent0012" id="entity_UCP"><ellipse cx="962.5504" cy="1683.5194" fill="#F1F1F1" rx="82.5504" ry="18.9101" style="stroke:#181818;stroke-width:0.5;"/><text fill="#000000" font-family="sans-serif" font-size="12" lengthAdjust="spacing" textLength="128.0625" x="898.5191" y="1686.4296">Consulter le profil public</text></g><g class="entity" data-entity="UCTIMELINE" data-source-line="30" data-uid="ent0013" id="entity_UCTIMELINE"><ellipse cx="632.1327" cy="1603.4552" fill="#F1F1F1" rx="92.1327" ry="24.3458" style="stroke:#181818;stroke-width:0.5;"/><text fill="#000000" font-family="sans-serif" font-size="12" lengthAdjust="spacing" textLength="114.0527" x="575.1064" y="1598.8184">Consulter le parcours</text><text fill="#000000" font-family="sans-serif" font-size="12" lengthAdjust="spacing" textLength="111.3633" x="576.4511" y="1613.9122">(Timeline interactive)</text></g><g class="entity" data-entity="UCJ" data-source-line="31" data-uid="ent0014" id="entity_UCJ"><ellipse cx="632.1887" cy="1683.7471" fill="#F1F1F1" rx="91.1887" ry="20.6377" style="stroke:#181818;stroke-width:0.5;"/><text fill="#000000" font-family="sans-serif" font-size="12" lengthAdjust="spacing" textLength="147.416" x="558.4807" y="1686.6573">Consulter un projet portfolio</text></g><g class="entity" data-entity="UCJF" data-source-line="32" data-uid="ent0015" id="entity_UCJF"><ellipse cx="284.1968" cy="1603.4552" fill="#F1F1F1" rx="74.1968" ry="24.3458" style="stroke:#181818;stroke-width:0.5;"/><text fill="#000000" font-family="sans-serif" font-size="12" lengthAdjust="spacing" textLength="88.6875" x="239.8531" y="1598.8184">Filtrer les projets</text><text fill="#000000" font-family="sans-serif" font-size="12" lengthAdjust="spacing" textLength="82.0605" x="243.1665" y="1613.9122">par technologie</text></g><g class="entity" data-entity="UCJD" data-source-line="33" data-uid="ent0016" id="entity_UCJD"><ellipse cx="284.0894" cy="1683.8272" fill="#F1F1F1" rx="89.0894" ry="20.2179" style="stroke:#181818;stroke-width:0.5;"/><text fill="#000000" font-family="sans-serif" font-size="12" lengthAdjust="spacing" textLength="142.7578" x="212.7105" y="1686.7374">Lancer une d&#233;mo en direct</text></g><g class="entity" data-entity="UCDR" data-source-line="35" data-uid="ent0017" id="entity_UCDR"><ellipse cx="284.2471" cy="1910.6588" fill="#F1F1F1" rx="113.2471" ry="25.0494" style="stroke:#181818;stroke-width:0.5;"/><text fill="#000000" font-family="sans-serif" font-size="12" lengthAdjust="spacing" textLength="148.7344" x="209.8799" y="1906.0221">T&#233;l&#233;charger des ressources</text><text fill="#000000" font-family="sans-serif" font-size="12" lengthAdjust="spacing" textLength="51.375" x="258.5596" y="1921.1158">publiques</text></g><g class="entity" data-entity="UCO" data-source-line="36" data-uid="ent0018" id="entity_UCO"><ellipse cx="284.1964" cy="1995.4552" fill="#F1F1F1" rx="91.1964" ry="24.3458" style="stroke:#181818;stroke-width:0.5;"/><text fill="#000000" font-family="sans-serif" font-size="12" lengthAdjust="spacing" textLength="112.7285" x="227.8321" y="1990.8184">Envoyer un message</text><text fill="#000000" font-family="sans-serif" font-size="12" lengthAdjust="spacing" textLength="55.3711" x="256.5108" y="2005.9122">de contact</text></g><g class="entity" data-entity="UCAUTH" data-source-line="40" data-uid="ent0020" id="entity_UCAUTH"><ellipse cx="284.0442" cy="1183.4182" fill="#F1F1F1" rx="112.0442" ry="24.8088" style="stroke:#181818;stroke-width:0.5;"/><text fill="#000000" font-family="sans-serif" font-size="12" lengthAdjust="spacing" textLength="69.668" x="249.2102" y="1178.7815">S'authentifier</text><text fill="#000000" font-family="sans-serif" font-size="12" lengthAdjust="spacing" textLength="145.418" x="211.3352" y="1193.8752">(Connexion / D&#233;connexion)</text></g><g class="entity" data-entity="UCMP" data-source-line="41" data-uid="ent0021" id="entity_UCMP"><ellipse cx="284.1877" cy="699.4552" fill="#F1F1F1" rx="108.1877" ry="24.3458" style="stroke:#181818;stroke-width:0.5;"/><text fill="#000000" font-family="sans-serif" font-size="12" lengthAdjust="spacing" textLength="86.6953" x="240.84" y="694.8184">G&#233;rer mon profil</text><text fill="#000000" font-family="sans-serif" font-size="12" lengthAdjust="spacing" textLength="136.7578" x="215.8088" y="709.9122">(bio, photo, coordonn&#233;es)</text></g><g class="entity" data-entity="UCEXP" data-source-line="42" data-uid="ent0022" id="entity_UCEXP"><ellipse cx="284.1734" cy="783.4552" fill="#F1F1F1" rx="99.6734" ry="24.3458" style="stroke:#181818;stroke-width:0.5;"/><text fill="#000000" font-family="sans-serif" font-size="12" lengthAdjust="spacing" textLength="124.7168" x="221.815" y="778.8184">G&#233;rer mes exp&#233;riences</text><text fill="#000000" font-family="sans-serif" font-size="12" lengthAdjust="spacing" textLength="86.7188" x="240.814" y="793.9122">professionnelles</text></g><g class="entity" data-entity="UCFOR" data-source-line="43" data-uid="ent0023" id="entity_UCFOR"><ellipse cx="284.0331" cy="867.4552" fill="#F1F1F1" rx="93.5331" ry="24.3458" style="stroke:#181818;stroke-width:0.5;"/><text fill="#000000" font-family="sans-serif" font-size="12" lengthAdjust="spacing" textLength="116.0332" x="226.0165" y="862.8184">G&#233;rer mes formations</text><text fill="#000000" font-family="sans-serif" font-size="12" lengthAdjust="spacing" textLength="71.3789" x="248.3437" y="877.9122">acad&#233;miques</text></g><g class="entity" data-entity="UCCER" data-source-line="44" data-uid="ent0024" id="entity_UCCER"><ellipse cx="283.9527" cy="946.3999" fill="#F1F1F1" rx="81.9527" ry="18.7905" style="stroke:#181818;stroke-width:0.5;"/><text fill="#000000" font-family="sans-serif" font-size="12" lengthAdjust="spacing" textLength="126.7031" x="220.6011" y="949.3101">G&#233;rer mes certifications</text></g><g class="entity" data-entity="UCSK" data-source-line="45" data-uid="ent0025" id="entity_UCSK"><ellipse cx="284.0165" cy="1019.8127" fill="#F1F1F1" rx="84.0165" ry="19.2033" style="stroke:#181818;stroke-width:0.5;"/><text fill="#000000" font-family="sans-serif" font-size="12" lengthAdjust="spacing" textLength="131.3848" x="218.3242" y="1022.7228">G&#233;rer mes comp&#233;tences</text></g><g class="entity" data-entity="UCDM" data-source-line="46" data-uid="ent0026" id="entity_UCDM"><ellipse cx="284.2116" cy="1098.4552" fill="#F1F1F1" rx="90.7116" ry="24.3458" style="stroke:#181818;stroke-width:0.5;"/><text fill="#000000" font-family="sans-serif" font-size="12" lengthAdjust="spacing" textLength="112.043" x="228.1901" y="1093.8184">G&#233;rer mes domaines</text><text fill="#000000" font-family="sans-serif" font-size="12" lengthAdjust="spacing" textLength="42.3164" x="263.0534" y="1108.9122">d'int&#233;r&#234;t</text></g><g class="entity" data-entity="UCRP" data-source-line="50" data-uid="ent0028" id="entity_UCRP"><ellipse cx="284.0497" cy="1477.4552" fill="#F1F1F1" rx="93.5497" ry="24.3458" style="stroke:#181818;stroke-width:0.5;"/><text fill="#000000" font-family="sans-serif" font-size="12" lengthAdjust="spacing" textLength="116.0566" x="226.0214" y="1472.8184">G&#233;rer les publications</text><text fill="#000000" font-family="sans-serif" font-size="12" lengthAdjust="spacing" textLength="70.0078" x="249.0458" y="1487.9122">(Blog CRUD)</text></g><g class="entity" data-entity="UCRJ" data-source-line="51" data-uid="ent0029" id="entity_UCRJ"><ellipse cx="284.1332" cy="1309.4552" fill="#F1F1F1" rx="75.1332" ry="24.3458" style="stroke:#181818;stroke-width:0.5;"/><text fill="#000000" font-family="sans-serif" font-size="12" lengthAdjust="spacing" textLength="88.6992" x="239.7836" y="1304.8184">G&#233;rer les projets</text><text fill="#000000" font-family="sans-serif" font-size="12" lengthAdjust="spacing" textLength="90.0117" x="239.1273" y="1319.9122">(Portfolio CRUD)</text></g><g class="entity" data-entity="UCRS" data-source-line="52" data-uid="ent0030" id="entity_UCRS"><ellipse cx="284.2352" cy="1393.4552" fill="#F1F1F1" rx="90.2352" ry="24.3458" style="stroke:#181818;stroke-width:0.5;"/><text fill="#000000" font-family="sans-serif" font-size="12" lengthAdjust="spacing" textLength="111.3691" x="228.5506" y="1388.8184">G&#233;rer les ressources</text><text fill="#000000" font-family="sans-serif" font-size="12" lengthAdjust="spacing" textLength="78.709" x="244.8807" y="1403.9122">documentaires</text></g><g class="entity" data-entity="UCMD" data-source-line="56" data-uid="ent0032" id="entity_UCMD"><ellipse cx="283.7709" cy="270.7636" fill="#F1F1F1" rx="88.7709" ry="20.1542" style="stroke:#181818;stroke-width:0.5;"/><text fill="#000000" font-family="sans-serif" font-size="12" lengthAdjust="spacing" textLength="142.0488" x="212.7465" y="273.6737">Mod&#233;rer les commentaires</text></g><g class="entity" data-entity="UCO_VIEW" data-source-line="57" data-uid="ent0033" id="entity_UCO_VIEW"><ellipse cx="284.035" cy="106.4552" fill="#F1F1F1" rx="102.035" ry="24.3458" style="stroke:#181818;stroke-width:0.5;"/><text fill="#000000" font-family="sans-serif" font-size="12" lengthAdjust="spacing" textLength="128.0566" x="220.0067" y="101.8184">Consulter les messages</text><text fill="#000000" font-family="sans-serif" font-size="12" lengthAdjust="spacing" textLength="55.3711" x="256.3495" y="116.9122">de contact</text></g><g class="entity" data-entity="UCST" data-source-line="58" data-uid="ent0034" id="entity_UCST"><ellipse cx="283.8095" cy="190.4552" fill="#F1F1F1" rx="105.8095" ry="24.3458" style="stroke:#181818;stroke-width:0.5;"/><text fill="#000000" font-family="sans-serif" font-size="12" lengthAdjust="spacing" textLength="133.3945" x="217.1122" y="185.8184">Consulter les statistiques</text><text fill="#000000" font-family="sans-serif" font-size="12" lengthAdjust="spacing" textLength="118.3711" x="224.6239" y="200.9122">et rapports d'audience</text></g><g class="entity" data-entity="UCEDT" data-source-line="62" data-uid="ent0036" id="entity_UCEDT"><ellipse cx="632.0865" cy="417.4267" fill="#F1F1F1" rx="82.0865" ry="18.8173" style="stroke:#181818;stroke-width:0.5;"/><text fill="#000000" font-family="sans-serif" font-size="12" lengthAdjust="spacing" textLength="127.0078" x="568.5826" y="420.3368">G&#233;rer l'emploi du temps</text></g><g class="entity" data-entity="UCCONV" data-source-line="63" data-uid="ent0037" id="entity_UCCONV"><ellipse cx="284.2458" cy="421.4552" fill="#F1F1F1" rx="106.7458" ry="24.3458" style="stroke:#181818;stroke-width:0.5;"/><text fill="#000000" font-family="sans-serif" font-size="12" lengthAdjust="spacing" textLength="116.7246" x="225.8835" y="416.8184">Importer un emploi du</text><text fill="#000000" font-family="sans-serif" font-size="12" lengthAdjust="spacing" textLength="134.7188" x="216.8864" y="431.9122">temps externe (Vision IA)</text></g><g class="entity" data-entity="UCRM" data-source-line="64" data-uid="ent0038" id="entity_UCRM"><ellipse cx="283.7656" cy="581.5625" fill="#F1F1F1" rx="70.2656" ry="16.4531" style="stroke:#181818;stroke-width:0.5;"/><text fill="#000000" font-family="sans-serif" font-size="12" lengthAdjust="spacing" textLength="99.3691" x="234.081" y="584.4726">G&#233;rer mes rappels</text></g><g class="entity" data-entity="UCNT" data-source-line="65" data-uid="ent0039" id="entity_UCNT"><ellipse cx="284.1722" cy="505.4554" fill="#F1F1F1" rx="108.1722" ry="24.346" style="stroke:#181818;stroke-width:0.5;"/><text fill="#000000" font-family="sans-serif" font-size="12" lengthAdjust="spacing" textLength="136.7344" x="215.4616" y="500.8884">Recevoir des notifications</text><text fill="#000000" font-family="sans-serif" font-size="12" lengthAdjust="spacing" textLength="108.0176" x="229.82" y="515.9821">(Temps r&#233;el / Email)</text></g><!--entity Visiteur--><g class="entity" data-entity="Visiteur" data-source-line="14" data-uid="ent0002" id="entity_Visiteur"><ellipse cx="51.5068" cy="2014.6094" fill="#F1F1F1" rx="8" ry="8" style="stroke:#181818;stroke-width:0.5;"/><path d="M51.5068,2022.6094 L51.5068,2049.6094 M38.5068,2030.6094 L64.5068,2030.6094 M51.5068,2049.6094 L38.5068,2064.6094 M51.5068,2049.6094 L64.5068,2064.6094" fill="none" style="stroke:#181818;stroke-width:0.5;"/><text fill="#000000" font-family="sans-serif" font-size="12" lengthAdjust="spacing" textLength="40.0137" x="31.5" y="2078.5664">Visiteur</text></g><!--entity User--><g class="entity" data-entity="User" data-source-line="15" data-uid="ent0003" id="entity_User"><ellipse cx="51.3535" cy="1760.1094" fill="#F1F1F1" rx="8" ry="8" style="stroke:#181818;stroke-width:0.5;"/><path d="M51.3535,1768.1094 L51.3535,1795.1094 M38.3535,1776.1094 L64.3535,1776.1094 M51.3535,1795.1094 L38.3535,1810.1094 M51.3535,1795.1094 L64.3535,1810.1094" fill="none" style="stroke:#181818;stroke-width:0.5;"/><text fill="#000000" font-family="sans-serif" font-size="12" lengthAdjust="spacing" textLength="53.3496" x="23" y="1824.0664">Utilisateur</text><text fill="#000000" font-family="sans-serif" font-size="12" lengthAdjust="spacing" textLength="56.707" x="23" y="1839.1602">Authentifi&#233;</text></g><!--entity Proprietaire--><g class="entity" data-entity="Proprietaire" data-source-line="16" data-uid="ent0004" id="entity_Proprietaire"><ellipse cx="51.6797" cy="789.1094" fill="#F1F1F1" rx="8" ry="8" style="stroke:#181818;stroke-width:0.5;"/><path d="M51.6797,797.1094 L51.6797,824.1094 M38.6797,805.1094 L64.6797,805.1094 M51.6797,824.1094 L38.6797,839.1094 M51.6797,824.1094 L64.6797,839.1094" fill="none" style="stroke:#181818;stroke-width:0.5;"/><text fill="#000000" font-family="sans-serif" font-size="12" lengthAdjust="spacing" textLength="62.0273" x="6" y="853.0664">Propri&#233;taire</text><text fill="#000000" font-family="sans-serif" font-size="12" lengthAdjust="spacing" textLength="91.3594" x="6" y="868.1602">(Baye Mor Gaye)</text></g><!--link User to Visiteur--><g class="link" data-entity-1="User" data-entity-2="Visiteur" data-source-line="19" data-uid="lnk5" id="link_User_Visiteur"><path d="M51.5,1841.9994 C51.5,1896.6594 51.5,1933.3194 51.5,1987.9794" fill="none" id="User-to-Visiteur" style="stroke:#181818;stroke-width:1;"/><polygon fill="none" points="51.5,2005.9794,57.5,1987.9794,45.5,1987.9794,51.5,2005.9794" style="stroke:#181818;stroke-width:1;"/></g><!--link Proprietaire to User--><g class="link" data-entity-1="Proprietaire" data-entity-2="User" data-source-line="20" data-uid="lnk6" id="link_Proprietaire_User"><path d="M51.5,870.8294 C51.5,1164.4094 51.5,1439.9894 51.5,1733.5694" fill="none" id="Proprietaire-to-User" style="stroke:#181818;stroke-width:1;"/><polygon fill="none" points="51.5,1751.5694,57.5,1733.5694,45.5,1733.5694,51.5,1751.5694" style="stroke:#181818;stroke-width:1;"/></g><!--link Visiteur to UCV--><g class="link" data-entity-1="Visiteur" data-entity-2="UCV" data-source-line="69" data-uid="lnk40" id="link_Visiteur_UCV"><path d="M71.59,2063.5494 C85.54,2076.5894 105.67,2092.4894 127,2099.6094 C420.83,2197.7294 539.4,2221.9494 824,2099.6094 C881.21,2075.0194 922.6124,2018.7189 944.1524,1984.2189" fill="none" id="Visiteur-to-UCV" style="stroke:#181818;stroke-width:1;"/><polygon fill="#181818" points="947.33,1979.1294,939.1706,1984.6452,944.682,1983.3706,945.9566,1988.882,947.33,1979.1294" style="stroke:#181818;stroke-width:1;"/></g><!--link Visiteur to UCP--><g class="link" data-entity-1="Visiteur" data-entity-2="UCP" data-source-line="70" data-uid="lnk41" id="link_Visiteur_UCP"><path d="M71.57,2046.3394 C165.37,2058.6794 582.93,2100.6394 824,1909.6094 C896.17,1852.4194 937.6269,1751.8416 953.0769,1708.4616" fill="none" id="Visiteur-to-UCP" style="stroke:#181818;stroke-width:1;"/><polygon fill="#181818" points="955.09,1702.8094,948.3023,1709.9457,953.4124,1707.5196,955.8385,1712.6297,955.09,1702.8094" style="stroke:#181818;stroke-width:1;"/></g><!--link Visiteur to UCO--><g class="link" data-entity-1="Visiteur" data-entity-2="UCO" data-source-line="71" data-uid="lnk42" id="link_Visiteur_UCO"><path d="M71.76,2039.5994 C102.21,2033.2594 157.166,2021.8228 205.756,2011.7028" fill="none" id="Visiteur-to-UCO" style="stroke:#181818;stroke-width:1;"/><polygon fill="#181818" points="211.63,2010.4794,202.0035,2008.3985,206.735,2011.4989,203.6347,2016.2304,211.63,2010.4794" style="stroke:#181818;stroke-width:1;"/></g><!--link User to UCAUTH--><g class="link" data-entity-1="User" data-entity-2="UCAUTH" data-source-line="73" data-uid="lnk43" id="link_User_UCAUTH"><path d="M54.66,1751.4294 C60.82,1638.4294 81.64,1347.0094 135.5,1268.6094 C156,1238.7694 185.1727,1220.4562 215.7427,1206.9362" fill="none" id="User-to-UCAUTH" style="stroke:#181818;stroke-width:1;"/><polygon fill="#181818" points="221.23,1204.5094,211.3812,1204.4914,216.6572,1206.5317,214.6169,1211.8078,221.23,1204.5094" style="stroke:#181818;stroke-width:1;"/></g><!--link User to UCA--><g class="link" data-entity-1="User" data-entity-2="UCA" data-source-line="74" data-uid="lnk44" id="link_User_UCA"><path d="M80.3,1792.1494 C112.03,1787.0594 159.2958,1779.4701 203.2258,1772.4201" fill="none" id="User-to-UCA" style="stroke:#181818;stroke-width:1;"/><polygon fill="#181818" points="209.15,1771.4694,199.6299,1768.946,204.2132,1772.2617,200.8975,1776.8449,209.15,1771.4694" style="stroke:#181818;stroke-width:1;"/></g><!--link User to UCL--><g class="link" data-entity-1="User" data-entity-2="UCL" data-source-line="75" data-uid="lnk45" id="link_User_UCL"><path d="M80.3,1800.9594 C115.03,1806.3794 169.5118,1814.894 215.3818,1822.054" fill="none" id="User-to-UCL" style="stroke:#181818;stroke-width:1;"/><polygon fill="#181818" points="221.31,1822.9794,213.0346,1817.6392,216.3698,1822.2082,211.8008,1825.5435,221.31,1822.9794" style="stroke:#181818;stroke-width:1;"/></g><!--link User to UCDR--><g class="link" data-entity-1="User" data-entity-2="UCDR" data-source-line="76" data-uid="lnk46" id="link_User_UCDR"><path d="M80.19,1825.5594 C95.35,1839.9694 115.15,1856.6094 135.5,1867.6094 C155.8,1878.5894 173.4573,1885.3787 195.5673,1891.7887" fill="none" id="User-to-UCDR" style="stroke:#181818;stroke-width:1;"/><polygon fill="#181818" points="201.33,1893.4594,193.7997,1887.1115,196.5277,1892.0671,191.5721,1894.7951,201.33,1893.4594" style="stroke:#181818;stroke-width:1;"/></g><!--link Proprietaire to UCMP--><g class="link" data-entity-1="Proprietaire" data-entity-2="UCMP" data-source-line="78" data-uid="lnk47" id="link_Proprietaire_UCMP"><path d="M88.98,780.3794 C102.33,766.2594 118.39,751.7394 135.5,741.6094 C155.21,729.9494 172.547,723.0142 194.547,716.7842" fill="none" id="Proprietaire-to-UCMP" style="stroke:#181818;stroke-width:1;"/><polygon fill="#181818" points="200.32,715.1494,190.5706,713.7529,195.5092,716.5117,192.7504,721.4502,200.32,715.1494" style="stroke:#181818;stroke-width:1;"/></g><!--link Proprietaire to UCEXP--><g class="link" data-entity-1="Proprietaire" data-entity-2="UCEXP" data-source-line="79" data-uid="lnk48" id="link_Proprietaire_UCEXP"><path d="M97.22,817.4694 C127.33,811.9794 161.9771,805.6643 197.5071,799.1943" fill="none" id="Proprietaire-to-UCEXP" style="stroke:#181818;stroke-width:1;"/><polygon fill="#181818" points="203.41,798.1194,193.839,795.7965,198.4909,799.0151,195.2722,803.667,203.41,798.1194" style="stroke:#181818;stroke-width:1;"/></g><!--link Proprietaire to UCFOR--><g class="link" data-entity-1="Proprietaire" data-entity-2="UCFOR" data-source-line="80" data-uid="lnk49" id="link_Proprietaire_UCFOR"><path d="M97.22,833.7594 C128.24,839.4194 164.4471,846.0142 200.7371,852.6242" fill="none" id="Proprietaire-to-UCFOR" style="stroke:#181818;stroke-width:1;"/><polygon fill="#181818" points="206.64,853.6994,198.5025,848.1514,201.7209,852.8034,197.0689,856.0219,206.64,853.6994" style="stroke:#181818;stroke-width:1;"/></g><!--link Proprietaire to UCCER--><g class="link" data-entity-1="Proprietaire" data-entity-2="UCCER" data-source-line="81" data-uid="lnk50" id="link_Proprietaire_UCCER"><path d="M88.38,870.7294 C101.8,885.0094 118.05,899.6594 135.5,909.6094 C159,923.0294 181.4647,930.3653 206.9847,935.8653" fill="none" id="Proprietaire-to-UCCER" style="stroke:#181818;stroke-width:1;"/><polygon fill="#181818" points="212.85,937.1294,204.8947,931.323,207.9622,936.076,203.2093,939.1435,212.85,937.1294" style="stroke:#181818;stroke-width:1;"/></g><!--link Proprietaire to UCSK--><g class="link" data-entity-1="Proprietaire" data-entity-2="UCSK" data-source-line="82" data-uid="lnk51" id="link_Proprietaire_UCSK"><path d="M65.18,870.8294 C77.47,906.3794 99.6,954.4494 135.5,982.6094 C155.44,998.2594 175.3061,1006.0989 199.6761,1011.3789" fill="none" id="Proprietaire-to-UCSK" style="stroke:#181818;stroke-width:1;"/><polygon fill="#181818" points="205.54,1012.6494,197.5911,1006.8344,200.6534,1011.5906,195.8971,1014.653,205.54,1012.6494" style="stroke:#181818;stroke-width:1;"/></g><!--link Proprietaire to UCDM--><g class="link" data-entity-1="Proprietaire" data-entity-2="UCDM" data-source-line="83" data-uid="lnk52" id="link_Proprietaire_UCDM"><path d="M56.69,870.6894 C63.9,922.4894 83.36,1006.6394 135.5,1055.6094 C153.29,1072.3194 171.4152,1081.0235 194.8052,1087.3035" fill="none" id="Proprietaire-to-UCDM" style="stroke:#181818;stroke-width:1;"/><polygon fill="#181818" points="200.6,1088.8594,192.9451,1082.6624,195.771,1087.5628,190.8706,1090.3888,200.6,1088.8594" style="stroke:#181818;stroke-width:1;"/></g><!--link Proprietaire to UCRP--><g class="link" data-entity-1="Proprietaire" data-entity-2="UCRP" data-source-line="84" data-uid="lnk53" id="link_Proprietaire_UCRP"><path d="M52.46,870.7594 C53.29,997.2094 62.25,1351.1294 135.5,1435.6094 C150.76,1453.2194 167.0349,1462.098 189.4649,1468.268" fill="none" id="Proprietaire-to-UCRP" style="stroke:#181818;stroke-width:1;"/><polygon fill="#181818" points="195.25,1469.8594,187.6332,1463.6156,190.4291,1468.5332,185.5114,1471.3291,195.25,1469.8594" style="stroke:#181818;stroke-width:1;"/></g><!--link Proprietaire to UCRJ--><g class="link" data-entity-1="Proprietaire" data-entity-2="UCRJ" data-source-line="85" data-uid="lnk54" id="link_Proprietaire_UCRJ"><path d="M57.22,870.7794 C67.58,962.8294 94.69,1168.2294 135.5,1224.6094 C158.9,1256.9294 193.0906,1276.4939 225.4306,1289.9539" fill="none" id="Proprietaire-to-UCRJ" style="stroke:#181818;stroke-width:1;"/><polygon fill="#181818" points="230.97,1292.2594,224.1979,1285.1082,226.3539,1290.3381,221.1239,1292.494,230.97,1292.2594" style="stroke:#181818;stroke-width:1;"/></g><!--link Proprietaire to UCRS--><g class="link" data-entity-1="Proprietaire" data-entity-2="UCRS" data-source-line="86" data-uid="lnk55" id="link_Proprietaire_UCRS"><path d="M53.56,870.6394 C57.17,984.6194 72.51,1280.5094 135.5,1351.6094 C151.48,1369.6494 168.7858,1378.6589 191.9958,1384.7389" fill="none" id="Proprietaire-to-UCRS" style="stroke:#181818;stroke-width:1;"/><polygon fill="#181818" points="197.8,1386.2594,190.1074,1380.1093,192.9632,1384.9923,188.0801,1387.8482,197.8,1386.2594" style="stroke:#181818;stroke-width:1;"/></g><!--link Proprietaire to UCMD--><g class="link" data-entity-1="Proprietaire" data-entity-2="UCMD" data-source-line="87" data-uid="lnk56" id="link_Proprietaire_UCMD"><path d="M53.1,780.5894 C55.5,669.5494 67.46,386.6194 127,317.6094 C145.57,296.0894 167.7627,285.6074 194.9727,279.1374" fill="none" id="Proprietaire-to-UCMD" style="stroke:#181818;stroke-width:1;"/><polygon fill="#181818" points="200.81,277.7494,191.1288,275.9398,195.9456,278.906,192.9794,283.7229,200.81,277.7494" style="stroke:#181818;stroke-width:1;"/></g><!--link Proprietaire to UCO_VIEW--><g class="link" data-entity-1="Proprietaire" data-entity-2="UCO_VIEW" data-source-line="88" data-uid="lnk57" id="link_Proprietaire_UCO_VIEW"><path d="M51.77,780.4594 C50.53,644.7294 53.97,243.8594 135.5,148.6094 C149.35,132.4294 163.2195,124.0375 183.6195,117.7075" fill="none" id="Proprietaire-to-UCO_VIEW" style="stroke:#181818;stroke-width:1;"/><polygon fill="#181818" points="189.35,115.9294,179.5689,114.7763,184.5746,117.4112,181.9397,122.4169,189.35,115.9294" style="stroke:#181818;stroke-width:1;"/></g><!--link Proprietaire to UCST--><g class="link" data-entity-1="Proprietaire" data-entity-2="UCST" data-source-line="89" data-uid="lnk58" id="link_Proprietaire_UCST"><path d="M52.65,780.3694 C53.98,656.2494 64.18,314.2094 135.5,232.6094 C148.99,217.1794 162.0044,209.0856 181.5844,202.7156" fill="none" id="Proprietaire-to-UCST" style="stroke:#181818;stroke-width:1;"/><polygon fill="#181818" points="187.29,200.8594,177.494,199.84,182.5353,202.4062,179.969,207.4475,187.29,200.8594" style="stroke:#181818;stroke-width:1;"/></g><!--link Proprietaire to UCEDT--><g class="link" data-entity-1="Proprietaire" data-entity-2="UCEDT" data-source-line="90" data-uid="lnk59" id="link_Proprietaire_UCEDT"><path d="M53.89,780.4694 C58.09,677.5194 74.47,430.3294 135.5,379.6094 C271.69,266.4294 502.5727,356.6226 590.9227,397.8426" fill="none" id="Proprietaire-to-UCEDT" style="stroke:#181818;stroke-width:1;"/><polygon fill="#181818" points="596.36,400.3794,589.8952,392.9493,591.8289,398.2654,586.5128,400.1991,596.36,400.3794" style="stroke:#181818;stroke-width:1;"/></g><!--link Proprietaire to UCRM--><g class="link" data-entity-1="Proprietaire" data-entity-2="UCRM" data-source-line="91" data-uid="lnk60" id="link_Proprietaire_UCRM"><path d="M66.18,780.5294 C79.15,743.9794 101.73,693.0594 135.5,658.6094 C165.33,628.1894 204.1411,609.3901 236.4411,597.1201" fill="none" id="Proprietaire-to-UCRM" style="stroke:#181818;stroke-width:1;"/><polygon fill="#181818" points="242.05,594.9894,232.2161,594.4461,237.3759,596.765,235.0571,601.9247,242.05,594.9894" style="stroke:#181818;stroke-width:1;"/></g><!--link Proprietaire to UCNT--><g class="link" data-entity-1="Proprietaire" data-entity-2="UCNT" data-source-line="92" data-uid="lnk61" id="link_Proprietaire_UCNT"><path d="M53.21,780.4294 C56.67,719.1694 72.06,610.2494 135.5,547.6094 C150.09,533.2094 163.5365,525.5012 183.1865,519.2012" fill="none" id="Proprietaire-to-UCNT" style="stroke:#181818;stroke-width:1;"/><polygon fill="#181818" points="188.9,517.3694,179.1085,516.3081,184.1387,518.8959,181.5509,523.9261,188.9,517.3694" style="stroke:#181818;stroke-width:1;"/></g><!--link UCC to UCV--><g class="link" data-entity-1="UCC" data-entity-2="UCV" data-source-line="98" data-uid="lnk62" id="link_UCC_UCV"><path d="M689.1,1853.4494 C749.48,1875.8694 839.3353,1909.2406 899.7353,1931.6706" fill="none" id="UCC-to-UCV" style="stroke:#181818;stroke-width:1;stroke-dasharray:7.0,7.0;"/><polygon fill="#181818" points="905.36,1933.7594,898.3155,1926.8764,900.6728,1932.0187,895.5305,1934.376,905.36,1933.7594" style="stroke:#181818;stroke-width:1;"/><text fill="#000000" font-family="sans-serif" font-size="13" lengthAdjust="spacing" textLength="53.4917" x="770" y="1883.1045">&#171;extend&#187;</text></g><!--link UCA to UCC--><g class="link" data-entity-1="UCA" data-entity-2="UCC" data-source-line="100" data-uid="lnk63" id="link_UCA_UCC"><path d="M350.89,1773.5194 C408.34,1785.6394 485.8992,1802.0008 546.7592,1814.8408" fill="none" id="UCA-to-UCC" style="stroke:#181818;stroke-width:1;stroke-dasharray:7.0,7.0;"/><polygon fill="#181818" points="552.63,1816.0794,544.6496,1810.3076,547.7377,1815.0472,542.9981,1818.1353,552.63,1816.0794" style="stroke:#181818;stroke-width:1;"/><text fill="#000000" font-family="sans-serif" font-size="13" lengthAdjust="spacing" textLength="53.4917" x="441" y="1791.1045">&#171;extend&#187;</text></g><!--link UCL to UCC--><g class="link" data-entity-1="UCL" data-entity-2="UCC" data-source-line="101" data-uid="lnk64" id="link_UCL_UCC"><path d="M359.23,1832.6094 C407.48,1832.6094 465.15,1832.6094 518.73,1832.6094" fill="none" id="UCL-to-UCC" style="stroke:#181818;stroke-width:1;stroke-dasharray:7.0,7.0;"/><polygon fill="#181818" points="524.73,1832.6094,515.73,1828.6094,519.73,1832.6094,515.73,1836.6094,524.73,1832.6094" style="stroke:#181818;stroke-width:1;"/><text fill="#000000" font-family="sans-serif" font-size="13" lengthAdjust="spacing" textLength="53.4917" x="441" y="1829.1045">&#171;extend&#187;</text></g><!--link UCTIMELINE to UCP--><g class="link" data-entity-1="UCTIMELINE" data-entity-2="UCP" data-source-line="104" data-uid="lnk65" id="link_UCTIMELINE_UCP"><path d="M700.67,1620.0894 C761.05,1634.7994 842.6204,1654.6598 899.2904,1668.4598" fill="none" id="UCTIMELINE-to-UCP" style="stroke:#181818;stroke-width:1;stroke-dasharray:7.0,7.0;"/><polygon fill="#181818" points="905.12,1669.8794,897.3219,1663.8635,900.262,1668.6964,895.4291,1671.6364,905.12,1669.8794" style="stroke:#181818;stroke-width:1;"/><text fill="#000000" font-family="sans-serif" font-size="13" lengthAdjust="spacing" textLength="53.4917" x="770" y="1636.1045">&#171;extend&#187;</text></g><!--link UCJ to UCP--><g class="link" data-entity-1="UCJ" data-entity-2="UCP" data-source-line="105" data-uid="lnk66" id="link_UCJ_UCP"><path d="M723.2,1683.6094 C772.2,1683.6094 826.33,1683.6094 873.93,1683.6094" fill="none" id="UCJ-to-UCP" style="stroke:#181818;stroke-width:1;stroke-dasharray:7.0,7.0;"/><polygon fill="#181818" points="879.93,1683.6094,870.93,1679.6094,874.93,1683.6094,870.93,1687.6094,879.93,1683.6094" style="stroke:#181818;stroke-width:1;"/><text fill="#000000" font-family="sans-serif" font-size="13" lengthAdjust="spacing" textLength="53.4917" x="770" y="1680.1045">&#171;extend&#187;</text></g><!--link UCJF to UCJ--><g class="link" data-entity-1="UCJF" data-entity-2="UCJ" data-source-line="106" data-uid="lnk67" id="link_UCJF_UCJ"><path d="M345.27,1617.5494 C407.61,1631.9594 498.7042,1653.0279 562.0742,1667.6779" fill="none" id="UCJF-to-UCJ" style="stroke:#181818;stroke-width:1;stroke-dasharray:7.0,7.0;"/><polygon fill="#181818" points="567.92,1669.0294,560.0522,1663.105,563.0485,1667.9032,558.2503,1670.8994,567.92,1669.0294" style="stroke:#181818;stroke-width:1;"/><text fill="#000000" font-family="sans-serif" font-size="13" lengthAdjust="spacing" textLength="53.4917" x="441" y="1638.1045">&#171;extend&#187;</text></g><!--link UCJD to UCJ--><g class="link" data-entity-1="UCJD" data-entity-2="UCJ" data-source-line="107" data-uid="lnk68" id="link_UCJD_UCJ"><path d="M373.21,1683.6094 C424.56,1683.6094 483.16,1683.6094 534.85,1683.6094" fill="none" id="UCJD-to-UCJ" style="stroke:#181818;stroke-width:1;stroke-dasharray:7.0,7.0;"/><polygon fill="#181818" points="540.85,1683.6094,531.85,1679.6094,535.85,1683.6094,531.85,1687.6094,540.85,1683.6094" style="stroke:#181818;stroke-width:1;"/><text fill="#000000" font-family="sans-serif" font-size="13" lengthAdjust="spacing" textLength="53.4917" x="441" y="1680.1045">&#171;extend&#187;</text></g><!--link UCCONV to UCEDT--><g class="link" data-entity-1="UCCONV" data-entity-2="UCEDT" data-source-line="110" data-uid="lnk69" id="link_UCCONV_UCEDT"><path d="M390.69,420.3894 C441.87,419.7994 496.3504,419.1689 543.8304,418.6189" fill="none" id="UCCONV-to-UCEDT" style="stroke:#181818;stroke-width:1;stroke-dasharray:7.0,7.0;"/><polygon fill="#181818" points="549.83,418.5494,540.7843,414.6539,544.8303,418.6073,540.8769,422.6534,549.83,418.5494" style="stroke:#181818;stroke-width:1;"/><text fill="#000000" font-family="sans-serif" font-size="13" lengthAdjust="spacing" textLength="53.4917" x="441" y="416.1045">&#171;extend&#187;</text></g><rect fill="#DDDDDD" height="69.3438" rx="7.5" ry="7.5" style="stroke:#000000;stroke-width:1;" width="710.251" x="184.3745" y="2239.9494"/><text fill="#000000" font-family="sans-serif" font-size="11" font-weight="bold" lengthAdjust="spacing" textLength="34.8477" x="192.4307" y="2258.3683">Fl&#232;che</text><text fill="#000000" font-family="sans-serif" font-size="11" font-weight="bold" lengthAdjust="spacing" textLength="88.0161" x="233.3906" y="2258.3683">Type de Relation</text><text fill="#000000" font-family="sans-serif" font-size="11" font-weight="bold" lengthAdjust="spacing" textLength="66" x="327.519" y="2258.3683">Signification</text><text fill="#000000" font-family="sans-serif" font-size="11" lengthAdjust="spacing" textLength="7.3262" x="192.4307" y="2272.2043">--</text><text fill="#000000" font-family="sans-serif" font-size="11" lengthAdjust="spacing" textLength="6.4238" x="230.3345" y="2272.2043">&gt;</text><text fill="#000000" font-family="sans-serif" font-size="11" lengthAdjust="spacing" textLength="41.5776" x="327.519" y="2272.2043">H&#233;ritage</text><text fill="#000000" font-family="sans-serif" font-size="11" lengthAdjust="spacing" textLength="203.5376" x="683.0317" y="2272.2043">L'acteur h&#233;rite de tous les droits de l'autre</text><text fill="#000000" font-family="sans-serif" font-size="11" lengthAdjust="spacing" textLength="13.75" x="192.4307" y="2286.0402">--&gt;</text><text fill="#000000" font-family="sans-serif" font-size="11" lengthAdjust="spacing" textLength="56.2515" x="233.3906" y="2286.0402">Association</text><text fill="#000000" font-family="sans-serif" font-size="11" lengthAdjust="spacing" textLength="264.6929" x="327.519" y="2286.0402">L'acteur d&#233;clenche ou interagit avec le cas d'utilisation</text><text fill="#000000" font-family="sans-serif" font-size="11" lengthAdjust="spacing" textLength="12.5361" x="192.4307" y="2299.8761">..&gt;</text><text fill="#000000" font-family="sans-serif" font-size="11" lengthAdjust="spacing" textLength="48.3076" x="233.3906" y="2299.8761">Extension</text><text fill="#000000" font-family="sans-serif" font-size="11" lengthAdjust="spacing" textLength="349.4004" x="327.519" y="2299.8761">Le cas d'utilisation source prolonge facultativement le cas cible (extend)</text><line style="stroke:#000000;stroke-width:1;" x1="189.3745" x2="889.6255" y1="2246.9494" y2="2246.9494"/><line style="stroke:#000000;stroke-width:1;" x1="189.3745" x2="889.6255" y1="2260.7853" y2="2260.7853"/><line style="stroke:#000000;stroke-width:1;" x1="189.3745" x2="889.6255" y1="2274.6212" y2="2274.6212"/><line style="stroke:#000000;stroke-width:1;" x1="189.3745" x2="889.6255" y1="2288.4572" y2="2288.4572"/><line style="stroke:#000000;stroke-width:1;" x1="189.3745" x2="889.6255" y1="2302.2931" y2="2302.2931"/><line style="stroke:#000000;stroke-width:1;" x1="189.3745" x2="189.3745" y1="2246.9494" y2="2302.2931"/><line style="stroke:#000000;stroke-width:1;" x1="230.3345" x2="230.3345" y1="2246.9494" y2="2302.2931"/><line style="stroke:#000000;stroke-width:1;" x1="324.4629" x2="324.4629" y1="2246.9494" y2="2302.2931"/><line style="stroke:#000000;stroke-width:1;" x1="679.9756" x2="679.9756" y1="2246.9494" y2="2302.2931"/><line style="stroke:#000000;stroke-width:1;" x1="889.6255" x2="889.6255" y1="2246.9494" y2="2302.2931"/><!--SRC=[TLVTRjis5BxNKn0PK3j0co4TTZCq0HpBQPF6YI4xsIu230nrR7EbI8-aZ6PptwVUQ_Z5TaXAjaIhLnOFp__FnsFBhG2IShhGj2Y0v426r92yzsYvu8PQhYJfFu4sxYFRRTVSxBP0tf2XAbPYzzt2QPBqoCN51PdQLn5kv9mlIXs4yIOnNxXSKRH0IWEe7wwLj5F-3v3pzurBogpItLShohxG1GGJ6fYbSY6WmQ1LANEcj0HDpdzjN1WB6fHzNS5mg8JIvAT1cfvVDPKBM83C3uRFaqJ0t1AhYEQBfIKvToOncZhK0RDGQkE3yrwJaoTkk2EU4CnVVQWlwsmYwLaEIhi4QVcSxxQU-z70ddEYrKhZXQLeyrdsh-Wha37UVCIFKyyUMC1pr0vzscqrjvWXhA1fkUUKatURouDFJNb_u-rNYewhxvJiCqvEHWPh0MHIlWZEI1-BRKfX0-iRSYCntTJdog2t_oR4bPnXoSdZyCbvxn9LKjIERWdqTUKLUNdpBEaQ69bpOJMOavRmq0jNvb2sbD2KnLIbFclYj2qtgEImksM7N9lvpZFVyI_TZ2tUIUGG9cUb5VfUIRKrpsx6exkR-r674DLCORKmWXalG72qo-iqhY4Av_Oe3SxgNs39IcaxLuAhIE3QIrpxd5Ofzm9e44qJ2smfSJ0M72B1D2I3IbPb8zzj2qL0LlDmb94qynAptLRijcn9zG85NJzYCGs6oC3PTCdvkupB- -15HtAjNaDK1SfWFpzBX2I6eqcTmMz9inKFWyJg_flu2iIDDtYSVVBwfpswbm4SHTU-4huwsPy9zW-hZr7Mnw7O7t7AqBj2oQhKgE65gxTajLGMVvXIEaSLY90cqZ3wewq2im9VLsvgGOQye48CcJiFX8ZJS_sGnU9pfOlzs33gYjEHr-7eI13BUSXPn3xzVCIDE8-3vRriywRZc3TN1SNsHOVo7hOmNkp-EwhQHp2-MAunCFsekJHOkK5USCcD3Sz6NC6ibRrZtEXVOGUJOVQOHddFRey4w-xlJ-g9wHISneBDBiuLAnsWE0mrSOHD4CJ8ng6JiT9nLECmOcEL7womW5ILujQ8_FbqC_hz241CFIgcFIkjiiuwn8n3RQo5QvfdYGYYwSg1Y7i0Q9dxnen3cmWg9PUBjoH3PX0kldlLRASen54wQ-Mn1xWsA4xo4f6dMCNT-d0V7ecRmdaIa60lyIoz20uEtY0UzTsJXfrqCuXhTzIPEdZRPhiFhcN0OAruW2hP3CP1ihUeSQ85GiIe20_Cj_qYW2t1UE1kFRlrQqlUlRjqJrzCcCI4XwHwglt98LRht3pSDGzfbaGlkYUF9rrKHA4kCg9B5ncneuiy_Tn5JSTTrApJNdRRIPrs1f9sKSCiT7etwmmyxIHddKxVp-hoPY2gskQz4NQTzFtMzv_vgIyqSfwVaMjHVYKUW_gVS7lJ-AOlERIaSYYepDtox9vTqIiFE-4fAldXPaCGBpqDzghKojRlXDlO1INhQgcY5RGw6XujaEP6bRWrwkpCDoJvZNpuu5NcbvVUVhqX8HA43SWWbFYXs5isJTEciiEQAs0UbZ3XuinxKIY9MyU2_M7RlbkzEY_Gi_TLUWzm_ORKcrBIsAo2_2HMVFl3Y-lgvlRe9ks-GMT-gPmPxM7C8qHIOLSGSw3N5Wn_CSYBibOL24AR2rIp-ywMu3vd-E_49RDkDqURyeKyR3OR9uFjYTlwfh7iRyXTZthK8KjFz6gimXVLrqShRaEPtEA33LxhSMeQsDLKX1La0h4VNLDbjOakk0sDX0t7_3-4il4F8IXreM_8eTzHPHTpU4BTAooKn13cb8NcMOFhlze2uo_urOTgqZQ9Ir_8Ol8_]--></g></svg>