<svg xmlns="http://www.w3.org/2000/svg" xmlns:xlink="http://www.w3.org/1999/xlink" contentStyleType="text/css" data-diagram-type="DESCRIPTION" height="2014px" preserveAspectRatio="none" style="width:1295px;height:2014px;background:#FFFFFF;" version="1.1" viewBox="0 0 1295 2014" width="1295px" zoomAndPan="magnify"><title>Diagramme de Cas d'Utilisation</title><defs/><g><text fill="#000000" font-family="sans-serif" font-size="14" font-weight="bold" lengthAdjust="spacing" textLength="209.4941" x="535.7529" y="24.5332">Diagramme de Cas d'Utilisation</text><!--cluster Consultation--><g class="cluster" data-entity="Consultation" data-source-line="14" data-uid="ent0007" id="cluster_Consultation"><rect fill="none" height="448" rx="2.5" ry="2.5" style="stroke:#181818;stroke-width:1;" width="990.5" x="298.5" y="1099.6094"/><text fill="#000000" font-family="sans-serif" font-size="14" font-weight="bold" lengthAdjust="spacing" textLength="85.5449" x="750.9775" y="1116.1426">Consultation</text></g><!--cluster Authentification--><g class="cluster" data-entity="Authentification" data-source-line="26" data-uid="ent0017" id="cluster_Authentification"><rect fill="none" height="84" rx="2.5" ry="2.5" style="stroke:#181818;stroke-width:1;" width="168" x="315" y="1571.6094"/><text fill="#000000" font-family="sans-serif" font-size="14" font-weight="bold" lengthAdjust="spacing" textLength="106.5449" x="345.7275" y="1588.1426">Authentification</text></g><!--cluster Gestion du Profil--><g class="cluster" data-entity="Gestion du Profil" data-source-line="30" data-uid="ent0019" id="cluster_Gestion du Profil"><rect fill="none" height="278" rx="2.5" ry="2.5" style="stroke:#181818;stroke-width:1;" width="639" x="279" y="797.6094"/><text fill="#000000" font-family="sans-serif" font-size="14" font-weight="bold" lengthAdjust="spacing" textLength="112.7793" x="542.1104" y="814.1426">Gestion du Profil</text></g><!--cluster Publications--><g class="cluster" data-entity="Publications" data-source-line="37" data-uid="ent0024" id="cluster_Publications"><rect fill="none" height="108" rx="2.5" ry="2.5" style="stroke:#181818;stroke-width:1;" width="520" x="7" y="45.6094"/><text fill="#000000" font-family="sans-serif" font-size="14" font-weight="bold" lengthAdjust="spacing" textLength="83.2344" x="225.3828" y="62.1426">Publications</text></g><!--cluster Projets Portfolio--><g class="cluster" data-entity="Projets Portfolio" data-source-line="42" data-uid="ent0027" id="cluster_Projets Portfolio"><rect fill="none" height="108" rx="2.5" ry="2.5" style="stroke:#181818;stroke-width:1;" width="229" x="284.5" y="309.6094"/><text fill="#000000" font-family="sans-serif" font-size="14" font-weight="bold" lengthAdjust="spacing" textLength="108.8965" x="344.5518" y="326.1426">Projets Portfolio</text></g><!--cluster Planning--><g class="cluster" data-entity="Planning" data-source-line="46" data-uid="ent0029" id="cluster_Planning"><rect fill="none" height="272" rx="2.5" ry="2.5" style="stroke:#181818;stroke-width:1;" width="609" x="275" y="471.6094"/><text fill="#000000" font-family="sans-serif" font-size="14" font-weight="bold" lengthAdjust="spacing" textLength="59.1104" x="549.9448" y="488.1426">Planning</text></g><!--cluster Ressources--><g class="cluster" data-entity="Ressources" data-source-line="53" data-uid="ent0034" id="cluster_Ressources"><rect fill="none" height="108" rx="2.5" ry="2.5" style="stroke:#181818;stroke-width:1;" width="252" x="273" y="177.6094"/><text fill="#000000" font-family="sans-serif" font-size="14" font-weight="bold" lengthAdjust="spacing" textLength="79.3789" x="359.3105" y="194.1426">Ressources</text></g><g class="entity" data-entity="UCV" data-source-line="15" data-uid="ent0008" id="entity_UCV"><ellipse cx="1158.83" cy="1380.5128" fill="#F1F1F1" rx="113.83" ry="27.9034" style="stroke:#181818;stroke-width:0.5;"/><text fill="#000000" font-family="sans-serif" font-size="14" lengthAdjust="spacing" textLength="82.4756" x="1117.5922" y="1375.4366">Visualiser les</text><text fill="#000000" font-family="sans-serif" font-size="14" lengthAdjust="spacing" textLength="144.7373" x="1086.4614" y="1393.046">publications avec filtres</text></g><g class="entity" data-entity="UCC" data-source-line="16" data-uid="ent0009" id="entity_UCC"><ellipse cx="777.6203" cy="1254.5128" fill="#F1F1F1" rx="73.1203" ry="27.9034" style="stroke:#181818;stroke-width:0.5;"/><text fill="#000000" font-family="sans-serif" font-size="14" lengthAdjust="spacing" textLength="87.165" x="734.0378" y="1249.4366">Consulter une</text><text fill="#000000" font-family="sans-serif" font-size="14" lengthAdjust="spacing" textLength="66.9375" x="744.1515" y="1267.046">publication</text></g><g class="entity" data-entity="UCA" data-source-line="17" data-uid="ent0010" id="entity_UCA"><ellipse cx="398.9639" cy="1163.5128" fill="#F1F1F1" rx="82.4639" ry="27.9034" style="stroke:#181818;stroke-width:0.5;"/><text fill="#000000" font-family="sans-serif" font-size="14" lengthAdjust="spacing" textLength="100.3789" x="348.7744" y="1158.4366">Commenter une</text><text fill="#000000" font-family="sans-serif" font-size="14" lengthAdjust="spacing" textLength="66.9375" x="365.4951" y="1176.046">publication</text></g><g class="entity" data-entity="UCL" data-source-line="18" data-uid="ent0011" id="entity_UCL"><ellipse cx="398.8172" cy="1254.5128" fill="#F1F1F1" rx="58.8172" ry="27.9034" style="stroke:#181818;stroke-width:0.5;"/><text fill="#000000" font-family="sans-serif" font-size="14" lengthAdjust="spacing" textLength="57.5928" x="370.0209" y="1249.4366">Liker une</text><text fill="#000000" font-family="sans-serif" font-size="14" lengthAdjust="spacing" textLength="66.9375" x="365.3485" y="1267.046">publication</text></g><g class="entity" data-entity="UCP" data-source-line="19" data-uid="ent0012" id="entity_UCP"><ellipse cx="1158.8084" cy="1496.5128" fill="#F1F1F1" rx="64.3084" ry="27.9034" style="stroke:#181818;stroke-width:0.5;"/><text fill="#000000" font-family="sans-serif" font-size="14" lengthAdjust="spacing" textLength="74.7031" x="1121.4568" y="1491.4366">Consulter le</text><text fill="#000000" font-family="sans-serif" font-size="14" lengthAdjust="spacing" textLength="70.8135" x="1123.4016" y="1509.046">profil public</text></g><g class="entity" data-entity="UCJ" data-source-line="20" data-uid="ent0013" id="entity_UCJ"><ellipse cx="777.7175" cy="1436.5128" fill="#F1F1F1" rx="74.2175" ry="27.9034" style="stroke:#181818;stroke-width:0.5;"/><text fill="#000000" font-family="sans-serif" font-size="14" lengthAdjust="spacing" textLength="79.3789" x="738.0281" y="1431.4366">Consulter un</text><text fill="#000000" font-family="sans-serif" font-size="14" lengthAdjust="spacing" textLength="88.7168" x="733.3591" y="1449.046">projet portfolio</text></g><g class="entity" data-entity="UCJF" data-source-line="21" data-uid="ent0014" id="entity_UCJF"><ellipse cx="399.1487" cy="1345.5128" fill="#F1F1F1" rx="84.6487" ry="27.9034" style="stroke:#181818;stroke-width:0.5;"/><text fill="#000000" font-family="sans-serif" font-size="14" lengthAdjust="spacing" textLength="103.4688" x="347.4144" y="1340.4366">Filtrer les projets</text><text fill="#000000" font-family="sans-serif" font-size="14" lengthAdjust="spacing" textLength="95.7373" x="351.2801" y="1358.046">par technologie</text></g><g class="entity" data-entity="UCJD" data-source-line="22" data-uid="ent0015" id="entity_UCJD"><ellipse cx="398.9679" cy="1436.5128" fill="#F1F1F1" rx="76.9679" ry="27.9034" style="stroke:#181818;stroke-width:0.5;"/><text fill="#000000" font-family="sans-serif" font-size="14" lengthAdjust="spacing" textLength="70.0547" x="363.9406" y="1431.4366">Lancer une</text><text fill="#000000" font-family="sans-serif" font-size="14" lengthAdjust="spacing" textLength="92.6064" x="352.6647" y="1449.046">d&#233;mo en direct</text></g><g class="entity" data-entity="UCO" data-source-line="23" data-uid="ent0016" id="entity_UCO"><ellipse cx="399.2261" cy="1515.5546" fill="#F1F1F1" rx="67.7261" ry="15.9452" style="stroke:#181818;stroke-width:0.5;"/><text fill="#000000" font-family="sans-serif" font-size="14" lengthAdjust="spacing" textLength="80.9238" x="355.7642" y="1520.0712">Me contacter</text></g><g class="entity" data-entity="UCAUTH" data-source-line="27" data-uid="ent0018" id="entity_UCAUTH"><ellipse cx="398.8456" cy="1623.5785" fill="#F1F1F1" rx="67.8456" ry="15.9691" style="stroke:#181818;stroke-width:0.5;"/><text fill="#000000" font-family="sans-serif" font-size="14" lengthAdjust="spacing" textLength="81.2793" x="355.2059" y="1628.0951">S'authentifier</text></g><g class="entity" data-entity="UCMP" data-source-line="31" data-uid="ent0020" id="entity_UCMP"><ellipse cx="777.3047" cy="861.5128" fill="#F1F1F1" rx="124.3047" ry="27.9034" style="stroke:#181818;stroke-width:0.5;"/><text fill="#000000" font-family="sans-serif" font-size="14" lengthAdjust="spacing" textLength="101.1445" x="726.7325" y="856.4366">G&#233;rer mon profil</text><text fill="#000000" font-family="sans-serif" font-size="14" lengthAdjust="spacing" textLength="159.5508" x="697.5293" y="874.046">(bio, photo, coordonn&#233;es)</text></g><g class="entity" data-entity="UCSK" data-source-line="32" data-uid="ent0021" id="entity_UCSK"><ellipse cx="399.1356" cy="855.8365" fill="#F1F1F1" rx="96.6356" ry="21.7271" style="stroke:#181818;stroke-width:0.5;"/><text fill="#000000" font-family="sans-serif" font-size="14" lengthAdjust="spacing" textLength="153.2822" x="322.4944" y="859.565">G&#233;rer mes comp&#233;tences</text></g><g class="entity" data-entity="UCDM" data-source-line="33" data-uid="ent0022" id="entity_UCDM"><ellipse cx="399.1477" cy="940.57" fill="#F1F1F1" rx="104.1477" ry="27.9606" style="stroke:#181818;stroke-width:0.5;"/><text fill="#000000" font-family="sans-serif" font-size="14" lengthAdjust="spacing" textLength="130.7168" x="330.7893" y="936.2819">G&#233;rer mes domaines</text><text fill="#000000" font-family="sans-serif" font-size="14" lengthAdjust="spacing" textLength="49.3691" x="371.4632" y="953.8913">d'int&#233;r&#234;t</text></g><g class="entity" data-entity="UCST" data-source-line="34" data-uid="ent0023" id="entity_UCST"><ellipse cx="398.9759" cy="1031.5128" fill="#F1F1F1" rx="98.9759" ry="27.9034" style="stroke:#181818;stroke-width:0.5;"/><text fill="#000000" font-family="sans-serif" font-size="14" lengthAdjust="spacing" textLength="81.7031" x="358.1244" y="1026.4366">Consulter les</text><text fill="#000000" font-family="sans-serif" font-size="14" lengthAdjust="spacing" textLength="123.7305" x="337.1107" y="1044.046">statistiques du profil</text></g><g class="entity" data-entity="UCRP" data-source-line="38" data-uid="ent0025" id="entity_UCRP"><ellipse cx="399.1817" cy="109.5128" fill="#F1F1F1" rx="112.1817" ry="27.9034" style="stroke:#181818;stroke-width:0.5;"/><text fill="#000000" font-family="sans-serif" font-size="14" lengthAdjust="spacing" textLength="104.248" x="347.0577" y="104.4366">Cr&#233;er / Modifier /</text><text fill="#000000" font-family="sans-serif" font-size="14" lengthAdjust="spacing" textLength="142.4063" x="327.9786" y="122.046">Supprimer publications</text></g><g class="entity" data-entity="UCMD" data-source-line="39" data-uid="ent0026" id="entity_UCMD"><ellipse cx="96.652" cy="109.5128" fill="#F1F1F1" rx="73.652" ry="27.9034" style="stroke:#181818;stroke-width:0.5;"/><text fill="#000000" font-family="sans-serif" font-size="14" lengthAdjust="spacing" textLength="73.917" x="59.6935" y="104.4366">Mod&#233;rer les</text><text fill="#000000" font-family="sans-serif" font-size="14" lengthAdjust="spacing" textLength="87.917" x="52.6935" y="122.046">commentaires</text></g><g class="entity" data-entity="UCRJ" data-source-line="43" data-uid="ent0028" id="entity_UCRJ"><ellipse cx="398.9249" cy="373.5128" fill="#F1F1F1" rx="98.4249" ry="27.9034" style="stroke:#181818;stroke-width:0.5;"/><text fill="#000000" font-family="sans-serif" font-size="14" lengthAdjust="spacing" textLength="104.248" x="346.8009" y="368.4366">Cr&#233;er / Modifier /</text><text fill="#000000" font-family="sans-serif" font-size="14" lengthAdjust="spacing" textLength="122.9512" x="337.4493" y="386.046">Supprimer un projet</text></g><g class="entity" data-entity="UCEDT" data-source-line="47" data-uid="ent0030" id="entity_UCEDT"><ellipse cx="777.7129" cy="535.5135" fill="#F1F1F1" rx="90.7129" ry="27.9042" style="stroke:#181818;stroke-width:0.5;"/><text fill="#000000" font-family="sans-serif" font-size="14" lengthAdjust="spacing" textLength="112.041" x="721.2093" y="530.5745">G&#233;rer mon emploi</text><text fill="#000000" font-family="sans-serif" font-size="14" lengthAdjust="spacing" textLength="57.5859" x="748.4369" y="548.1839">du temps</text></g><g class="entity" data-entity="UCCONV" data-source-line="48" data-uid="ent0031" id="entity_UCCONV"><ellipse cx="399.0964" cy="535.5884" fill="#F1F1F1" rx="108.0964" ry="27.9791" style="stroke:#181818;stroke-width:0.5;"/><text fill="#000000" font-family="sans-serif" font-size="14" lengthAdjust="spacing" textLength="136.1787" x="328.007" y="531.3003">Importer un emploi du</text><text fill="#000000" font-family="sans-serif" font-size="14" lengthAdjust="spacing" textLength="88.71" x="351.7414" y="548.9097">temps externe</text></g><g class="entity" data-entity="UCRM" data-source-line="49" data-uid="ent0032" id="entity_UCRM"><ellipse cx="399.1605" cy="708.6415" fill="#F1F1F1" rx="80.6605" ry="18.5321" style="stroke:#181818;stroke-width:0.5;"/><text fill="#000000" font-family="sans-serif" font-size="14" lengthAdjust="spacing" textLength="115.9307" x="340.4958" y="712.5732">G&#233;rer mes rappels</text></g><g class="entity" data-entity="UCNT" data-source-line="50" data-uid="ent0033" id="entity_UCNT"><ellipse cx="398.7581" cy="626.5128" fill="#F1F1F1" rx="69.2581" ry="27.9034" style="stroke:#181818;stroke-width:0.5;"/><text fill="#000000" font-family="sans-serif" font-size="14" lengthAdjust="spacing" textLength="81.7031" x="357.9066" y="621.4366">Recevoir des</text><text fill="#000000" font-family="sans-serif" font-size="14" lengthAdjust="spacing" textLength="73.9307" x="361.7928" y="639.046">notifications</text></g><g class="entity" data-entity="UCRS" data-source-line="54" data-uid="ent0035" id="entity_UCRS"><ellipse cx="398.7619" cy="241.5958" fill="#F1F1F1" rx="109.7619" ry="27.9864" style="stroke:#181818;stroke-width:0.5;"/><text fill="#000000" font-family="sans-serif" font-size="14" lengthAdjust="spacing" textLength="138.4824" x="326.5206" y="237.3077">G&#233;rer mes ressources</text><text fill="#000000" font-family="sans-serif" font-size="14" lengthAdjust="spacing" textLength="68.4824" x="361.5206" y="254.9171">documents</text></g><!--entity Visiteur--><g class="entity" data-entity="Visiteur" data-source-line="7" data-uid="ent0002" id="entity_Visiteur"><ellipse cx="96.3413" cy="1607.1094" fill="#F1F1F1" rx="8" ry="8" style="stroke:#181818;stroke-width:0.5;"/><path d="M96.3413,1615.1094 L96.3413,1642.1094 M83.3413,1623.1094 L109.3413,1623.1094 M96.3413,1642.1094 L83.3413,1657.1094 M96.3413,1642.1094 L109.3413,1657.1094" fill="none" style="stroke:#181818;stroke-width:0.5;"/><text fill="#000000" font-family="sans-serif" font-size="14" lengthAdjust="spacing" textLength="46.6826" x="73" y="1673.1426">Visiteur</text></g><!--entity User--><g class="entity" data-entity="User" data-source-line="8" data-uid="ent0003" id="entity_User"><ellipse cx="96.5791" cy="1215.6094" fill="#F1F1F1" rx="8" ry="8" style="stroke:#181818;stroke-width:0.5;"/><path d="M96.5791,1223.6094 L96.5791,1250.6094 M83.5791,1231.6094 L109.5791,1231.6094 M96.5791,1250.6094 L83.5791,1265.6094 M96.5791,1250.6094 L109.5791,1265.6094" fill="none" style="stroke:#181818;stroke-width:0.5;"/><text fill="#000000" font-family="sans-serif" font-size="14" lengthAdjust="spacing" textLength="62.2412" x="63.5" y="1281.6426">Utilisateur</text><text fill="#000000" font-family="sans-serif" font-size="14" lengthAdjust="spacing" textLength="66.1582" x="63.5" y="1299.252">Authentifi&#233;</text></g><!--entity Proprietaire--><g class="entity" data-entity="Proprietaire" data-source-line="9" data-uid="ent0004" id="entity_Proprietaire"><ellipse cx="96.293" cy="587.6094" fill="#F1F1F1" rx="8" ry="8" style="stroke:#181818;stroke-width:0.5;"/><path d="M96.293,595.6094 L96.293,622.6094 M83.293,603.6094 L109.293,603.6094 M96.293,622.6094 L83.293,637.6094 M96.293,622.6094 L109.293,637.6094" fill="none" style="stroke:#181818;stroke-width:0.5;"/><text fill="#000000" font-family="sans-serif" font-size="14" lengthAdjust="spacing" textLength="72.3652" x="43" y="653.6426">Propri&#233;taire</text><text fill="#000000" font-family="sans-serif" font-size="14" lengthAdjust="spacing" textLength="106.5859" x="43" y="671.252">(Baye Mor Gaye)</text></g><!--link User to Visiteur--><g class="link" data-entity-1="User" data-entity-2="Visiteur" data-source-line="11" data-uid="lnk5" id="link_User_Visiteur"><path d="M96.5,1302.2794 C96.5,1400.9594 96.5,1481.6494 96.5,1580.3394" fill="none" id="User-to-Visiteur" style="stroke:#181818;stroke-width:1;"/><polygon fill="none" points="96.5,1598.3394,102.5,1580.3394,90.5,1580.3394,96.5,1598.3394" style="stroke:#181818;stroke-width:1;"/></g><!--link Proprietaire to User--><g class="link" data-entity-1="Proprietaire" data-entity-2="User" data-source-line="12" data-uid="lnk6" id="link_Proprietaire_User"><path d="M96.5,674.2294 C96.5,851.8494 96.5,1011.4594 96.5,1189.0794" fill="none" id="Proprietaire-to-User" style="stroke:#181818;stroke-width:1;"/><polygon fill="none" points="96.5,1207.0794,102.5,1189.0794,90.5,1189.0794,96.5,1207.0794" style="stroke:#181818;stroke-width:1;"/></g><!--link Visiteur to UCV--><g class="link" data-entity-1="Visiteur" data-entity-2="UCV" data-source-line="58" data-uid="lnk36" id="link_Visiteur_UCV"><path d="M120.03,1641.8894 C185.01,1653.5094 378.12,1683.0194 535,1655.6094 C758.38,1616.5894 825.54,1607.2194 1015,1482.6094 C1031.29,1471.8994 1029.92,1462.9594 1045,1450.6094 C1065.27,1434.0194 1084.5888,1421.4052 1105.5988,1409.1352" fill="none" id="Visiteur-to-UCV" style="stroke:#181818;stroke-width:1;"/><polygon fill="#181818" points="1110.78,1406.1094,1100.9911,1407.194,1106.4624,1408.6309,1105.0255,1414.1022,1110.78,1406.1094" style="stroke:#181818;stroke-width:1;"/></g><!--link Visiteur to UCP--><g class="link" data-entity-1="Visiteur" data-entity-2="UCP" data-source-line="59" data-uid="lnk37" id="link_Visiteur_UCP"><path d="M120.29,1663.2094 C139.38,1682.5894 168.51,1707.6694 200,1718.6094 C542.16,1837.4894 696.99,1892.0394 1015,1718.6094 C1091.67,1676.7994 1131.5467,1579.9794 1147.8867,1530.2594" fill="none" id="Visiteur-to-UCP" style="stroke:#181818;stroke-width:1;"/><polygon fill="#181818" points="1149.76,1524.5594,1143.15,1531.8606,1148.1989,1529.3094,1150.7501,1534.3583,1149.76,1524.5594" style="stroke:#181818;stroke-width:1;"/></g><!--link Visiteur to UCO--><g class="link" data-entity-1="Visiteur" data-entity-2="UCO" data-source-line="60" data-uid="lnk38" id="link_Visiteur_UCO"><path d="M120.09,1628.4394 C172.36,1607.2194 296.3806,1556.8661 358.3606,1531.7061" fill="none" id="Visiteur-to-UCO" style="stroke:#181818;stroke-width:1;"/><polygon fill="#181818" points="363.92,1529.4494,354.0764,1529.1283,359.2872,1531.33,357.0854,1536.5408,363.92,1529.4494" style="stroke:#181818;stroke-width:1;"/></g><!--link User to UCAUTH--><g class="link" data-entity-1="User" data-entity-2="UCAUTH" data-source-line="63" data-uid="lnk39" id="link_User_UCAUTH"><path d="M115.42,1302.2694 C140.84,1364.8094 192.49,1475.1094 265,1547.6094 C293.3,1575.9094 328.8083,1594.7824 357.7783,1607.5324" fill="none" id="User-to-UCAUTH" style="stroke:#181818;stroke-width:1;"/><polygon fill="#181818" points="363.27,1609.9494,356.6438,1602.6629,358.6936,1607.9353,353.4212,1609.9851,363.27,1609.9494" style="stroke:#181818;stroke-width:1;"/></g><!--link User to UCA--><g class="link" data-entity-1="User" data-entity-2="UCA" data-source-line="64" data-uid="lnk40" id="link_User_UCA"><path d="M129.66,1244.8694 C178.94,1229.9494 268.2777,1202.8989 330.9977,1183.8989" fill="none" id="User-to-UCA" style="stroke:#181818;stroke-width:1;"/><polygon fill="#181818" points="336.74,1182.1594,326.9669,1180.9405,331.9547,1183.609,329.2862,1188.5969,336.74,1182.1594" style="stroke:#181818;stroke-width:1;"/></g><!--link User to UCL--><g class="link" data-entity-1="User" data-entity-2="UCL" data-source-line="65" data-uid="lnk41" id="link_User_UCL"><path d="M129.66,1254.6094 C179.77,1254.6094 271.24,1254.6094 333.89,1254.6094" fill="none" id="User-to-UCL" style="stroke:#181818;stroke-width:1;"/><polygon fill="#181818" points="339.89,1254.6094,330.89,1250.6094,334.89,1254.6094,330.89,1258.6094,339.89,1254.6094" style="stroke:#181818;stroke-width:1;"/></g><!--link Proprietaire to UCMP--><g class="link" data-entity-1="Proprietaire" data-entity-2="UCMP" data-source-line="68" data-uid="lnk42" id="link_Proprietaire_UCMP"><path d="M150.13,671.2794 C181.63,695.9194 223.51,725.1694 265,743.6094 C303.18,760.5794 543.2395,812.5496 679.7095,841.3696" fill="none" id="Proprietaire-to-UCMP" style="stroke:#181818;stroke-width:1;"/><polygon fill="#181818" points="685.58,842.6094,677.6007,836.8361,680.6879,841.5763,675.9477,844.6634,685.58,842.6094" style="stroke:#181818;stroke-width:1;"/></g><!--link Proprietaire to UCRP--><g class="link" data-entity-1="Proprietaire" data-entity-2="UCRP" data-source-line="69" data-uid="lnk43" id="link_Proprietaire_UCRP"><path d="M105.21,578.9594 C121.2,493.4894 165.15,312.3694 265,197.6094 C287.81,171.3994 314.9922,152.684 342.1022,137.414" fill="none" id="Proprietaire-to-UCRP" style="stroke:#181818;stroke-width:1;"/><polygon fill="#181818" points="347.33,134.4694,337.5253,135.4011,342.9735,136.9232,341.4514,142.3714,347.33,134.4694" style="stroke:#181818;stroke-width:1;"/></g><!--link Proprietaire to UCRJ--><g class="link" data-entity-1="Proprietaire" data-entity-2="UCRJ" data-source-line="70" data-uid="lnk44" id="link_Proprietaire_UCRJ"><path d="M110.19,578.7294 C124.61,533.5494 152.52,467.1594 200,428.6094 C229.98,404.2694 264.1372,391.9084 300.3572,384.3284" fill="none" id="Proprietaire-to-UCRJ" style="stroke:#181818;stroke-width:1;"/><polygon fill="#181818" points="306.23,383.0994,296.6015,381.0277,301.336,384.1236,298.2402,388.8581,306.23,383.0994" style="stroke:#181818;stroke-width:1;"/></g><!--link Proprietaire to UCEDT--><g class="link" data-entity-1="Proprietaire" data-entity-2="UCEDT" data-source-line="71" data-uid="lnk45" id="link_Proprietaire_UCEDT"><path d="M138.66,578.9494 C169.69,546.8894 215.29,507.3494 265,489.6094 C420.98,433.9494 614.1871,481.4456 711.6071,512.7156" fill="none" id="Proprietaire-to-UCEDT" style="stroke:#181818;stroke-width:1;"/><polygon fill="#181818" points="717.32,514.5494,709.9731,507.9902,712.5592,513.0213,707.5281,515.6074,717.32,514.5494" style="stroke:#181818;stroke-width:1;"/></g><!--link Proprietaire to UCRM--><g class="link" data-entity-1="Proprietaire" data-entity-2="UCRM" data-source-line="72" data-uid="lnk46" id="link_Proprietaire_UCRM"><path d="M150.19,640.9894 C205.4,656.0594 285.7817,677.9895 340.5917,692.9495" fill="none" id="Proprietaire-to-UCRM" style="stroke:#181818;stroke-width:1;"/><polygon fill="#181818" points="346.38,694.5294,338.7508,688.3007,341.5564,693.2128,336.6444,696.0184,346.38,694.5294" style="stroke:#181818;stroke-width:1;"/></g><!--link Proprietaire to UCNT--><g class="link" data-entity-1="Proprietaire" data-entity-2="UCNT" data-source-line="73" data-uid="lnk47" id="link_Proprietaire_UCNT"><path d="M150.19,626.6094 C199.93,626.6094 268.8,626.6094 323.22,626.6094" fill="none" id="Proprietaire-to-UCNT" style="stroke:#181818;stroke-width:1;"/><polygon fill="#181818" points="329.22,626.6094,320.22,622.6094,324.22,626.6094,320.22,630.6094,329.22,626.6094" style="stroke:#181818;stroke-width:1;"/></g><!--link Proprietaire to UCRS--><g class="link" data-entity-1="Proprietaire" data-entity-2="UCRS" data-source-line="74" data-uid="lnk48" id="link_Proprietaire_UCRS"><path d="M111.38,578.8294 C127.48,528.4594 157.38,448.2894 200,388.6094 C238.69,334.4394 298.1936,294.7686 343.0636,269.6686" fill="none" id="Proprietaire-to-UCRS" style="stroke:#181818;stroke-width:1;"/><polygon fill="#181818" points="348.3,266.7394,338.4926,267.6423,343.9363,269.1804,342.3982,274.6241,348.3,266.7394" style="stroke:#181818;stroke-width:1;"/></g><!--link Proprietaire to UCST--><g class="link" data-entity-1="Proprietaire" data-entity-2="UCST" data-source-line="75" data-uid="lnk49" id="link_Proprietaire_UCST"><path d="M107.12,674.1694 C124.98,750.4694 170.37,900.2994 265,985.6094 C279.88,999.0294 293.2198,1006.5508 312.1698,1013.3208" fill="none" id="Proprietaire-to-UCST" style="stroke:#181818;stroke-width:1;"/><polygon fill="#181818" points="317.82,1015.3394,310.6903,1008.5447,313.1115,1013.6572,307.9989,1016.0783,317.82,1015.3394" style="stroke:#181818;stroke-width:1;"/></g><!--link UCC to UCV--><g class="link" data-entity-1="UCC" data-entity-2="UCV" data-source-line="78" data-uid="lnk50" id="link_UCC_UCV"><path d="M833.28,1272.7994 C901.22,1295.3594 1011.3355,1331.9192 1084.7255,1356.2792" fill="none" id="UCC-to-UCV" style="stroke:#181818;stroke-width:1;stroke-dasharray:7.0,7.0;"/><polygon fill="#181818" points="1090.42,1358.1694,1083.1383,1351.5378,1085.6746,1356.5943,1080.6181,1359.1305,1090.42,1358.1694" style="stroke:#181818;stroke-width:1;"/><text fill="#000000" font-family="sans-serif" font-size="13" lengthAdjust="spacing" textLength="53.4917" x="948.0032" y="1287.1045">&#171;extend&#187;</text><text fill="#000000" font-family="sans-serif" font-size="13" lengthAdjust="spacing" textLength="79.498" x="935" y="1303.4561">{visualisation}</text></g><!--link UCA to UCC--><g class="link" data-entity-1="UCA" data-entity-2="UCC" data-source-line="79" data-uid="lnk51" id="link_UCA_UCC"><path d="M468.94,1178.8194 C513.07,1188.6894 571.5,1202.0194 623,1214.6094 C654.16,1222.2294 682.9487,1229.668 711.3987,1237.178" fill="none" id="UCA-to-UCC" style="stroke:#181818;stroke-width:1;stroke-dasharray:7.0,7.0;"/><polygon fill="#181818" points="717.2,1238.7094,709.519,1232.5448,712.3656,1237.4332,707.4772,1240.2798,717.2,1238.7094" style="stroke:#181818;stroke-width:1;"/><text fill="#000000" font-family="sans-serif" font-size="13" lengthAdjust="spacing" textLength="53.4917" x="556.2859" y="1177.1045">&#171;extend&#187;</text><text fill="#000000" font-family="sans-serif" font-size="13" lengthAdjust="spacing" textLength="78.0635" x="544" y="1193.4561">{consultation}</text></g><!--link UCL to UCC--><g class="link" data-entity-1="UCL" data-entity-2="UCC" data-source-line="80" data-uid="lnk52" id="link_UCL_UCC"><path d="M458,1254.6094 C524.22,1254.6094 626.6,1254.6094 698.24,1254.6094" fill="none" id="UCL-to-UCC" style="stroke:#181818;stroke-width:1;stroke-dasharray:7.0,7.0;"/><polygon fill="#181818" points="704.24,1254.6094,695.24,1250.6094,699.24,1254.6094,695.24,1258.6094,704.24,1254.6094" style="stroke:#181818;stroke-width:1;"/><text fill="#000000" font-family="sans-serif" font-size="13" lengthAdjust="spacing" textLength="53.4917" x="556.2859" y="1235.1045">&#171;extend&#187;</text><text fill="#000000" font-family="sans-serif" font-size="13" lengthAdjust="spacing" textLength="78.0635" x="544" y="1251.4561">{consultation}</text></g><!--link UCJ to UCP--><g class="link" data-entity-1="UCJ" data-entity-2="UCP" data-source-line="81" data-uid="lnk53" id="link_UCJ_UCP"><path d="M846.35,1447.3394 C917.98,1458.6594 1023.8835,1475.413 1092.3035,1486.223" fill="none" id="UCJ-to-UCP" style="stroke:#181818;stroke-width:1;stroke-dasharray:7.0,7.0;"/><polygon fill="#181818" points="1098.23,1487.1594,1089.9645,1481.8039,1093.2913,1486.3791,1088.716,1489.7058,1098.23,1487.1594" style="stroke:#181818;stroke-width:1;"/><text fill="#000000" font-family="sans-serif" font-size="13" lengthAdjust="spacing" textLength="53.4917" x="948" y="1458.1045">&#171;extend&#187;</text></g><!--link UCJF to UCJ--><g class="link" data-entity-1="UCJF" data-entity-2="UCJ" data-source-line="82" data-uid="lnk54" id="link_UCJF_UCJ"><path d="M467.75,1361.9894 C537.93,1378.9494 640.8279,1403.8199 708.7679,1420.2399" fill="none" id="UCJF-to-UCJ" style="stroke:#181818;stroke-width:1;stroke-dasharray:7.0,7.0;"/><polygon fill="#181818" points="714.6,1421.6494,706.7915,1415.647,709.7399,1420.4748,704.9122,1423.4232,714.6,1421.6494" style="stroke:#181818;stroke-width:1;"/><text fill="#000000" font-family="sans-serif" font-size="13" lengthAdjust="spacing" textLength="53.4917" x="556.5" y="1377.1045">&#171;extend&#187;</text></g><!--link UCJD to UCJ--><g class="link" data-entity-1="UCJD" data-entity-2="UCJ" data-source-line="83" data-uid="lnk55" id="link_UCJD_UCJ"><path d="M476.19,1436.6094 C542.48,1436.6094 631.91,1436.6094 697.3,1436.6094" fill="none" id="UCJD-to-UCJ" style="stroke:#181818;stroke-width:1;stroke-dasharray:7.0,7.0;"/><polygon fill="#181818" points="703.3,1436.6094,694.3,1432.6094,698.3,1436.6094,694.3,1440.6094,703.3,1436.6094" style="stroke:#181818;stroke-width:1;"/><text fill="#000000" font-family="sans-serif" font-size="13" lengthAdjust="spacing" textLength="53.4917" x="556.5" y="1433.1045">&#171;extend&#187;</text></g><!--link UCSK to UCMP--><g class="link" data-entity-1="UCSK" data-entity-2="UCMP" data-source-line="84" data-uid="lnk56" id="link_UCSK_UCMP"><path d="M495.49,857.1294 C543.31,857.8994 595.7808,858.7344 646.9708,859.5444" fill="none" id="UCSK-to-UCMP" style="stroke:#181818;stroke-width:1;stroke-dasharray:7.0,7.0;"/><polygon fill="#181818" points="652.97,859.6394,644.0344,855.4975,647.9706,859.5603,643.9078,863.4965,652.97,859.6394" style="stroke:#181818;stroke-width:1;"/><text fill="#000000" font-family="sans-serif" font-size="13" lengthAdjust="spacing" textLength="53.4917" x="556.5" y="855.1045">&#171;extend&#187;</text></g><!--link UCDM to UCMP--><g class="link" data-entity-1="UCDM" data-entity-2="UCMP" data-source-line="85" data-uid="lnk57" id="link_UCDM_UCMP"><path d="M481.69,923.4694 C541.82,910.8494 617.6878,894.9311 679.8578,881.8911" fill="none" id="UCDM-to-UCMP" style="stroke:#181818;stroke-width:1;stroke-dasharray:7.0,7.0;"/><polygon fill="#181818" points="685.73,880.6594,676.1005,878.5921,680.8365,881.6858,677.7428,886.4217,685.73,880.6594" style="stroke:#181818;stroke-width:1;"/><text fill="#000000" font-family="sans-serif" font-size="13" lengthAdjust="spacing" textLength="53.4917" x="556.5" y="891.1045">&#171;extend&#187;</text></g><!--link UCCONV to UCEDT--><g class="link" data-entity-1="UCCONV" data-entity-2="UCEDT" data-source-line="86" data-uid="lnk58" id="link_UCCONV_UCEDT"><path d="M507.13,535.6094 C563.98,535.6094 627.02,535.6094 680.98,535.6094" fill="none" id="UCCONV-to-UCEDT" style="stroke:#181818;stroke-width:1;stroke-dasharray:7.0,7.0;"/><polygon fill="#181818" points="686.98,535.6094,677.98,531.6094,681.98,535.6094,677.98,539.6094,686.98,535.6094" style="stroke:#181818;stroke-width:1;"/><text fill="#000000" font-family="sans-serif" font-size="13" lengthAdjust="spacing" textLength="53.4917" x="556.5" y="532.1045">&#171;extend&#187;</text></g><!--link UCMD to UCRP--><g class="link" data-entity-1="UCMD" data-entity-2="UCRP" data-source-line="89" data-uid="lnk59" id="link_UCMD_UCRP"><path d="M170.24,109.6094 C205.24,109.6094 241.97,109.6094 280.92,109.6094" fill="none" id="UCMD-to-UCRP" style="stroke:#181818;stroke-width:1;stroke-dasharray:7.0,7.0;"/><polygon fill="#181818" points="286.92,109.6094,277.92,105.6094,281.92,109.6094,277.92,113.6094,286.92,109.6094" style="stroke:#181818;stroke-width:1;"/><text fill="#000000" font-family="sans-serif" font-size="13" lengthAdjust="spacing" textLength="55.6563" x="201" y="106.1045">&#171;include&#187;</text></g><rect fill="#DDDDDD" height="84.4375" rx="7.5" ry="7.5" style="stroke:#000000;stroke-width:1;" width="259.8193" x="510.5903" y="1910.0394"/><text fill="#000000" font-family="sans-serif" font-size="14" font-weight="bold" lengthAdjust="spacing" textLength="44.3516" x="519.48" y="1931.5726">Fl&#232;che</text><text fill="#000000" font-family="sans-serif" font-size="14" font-weight="bold" lengthAdjust="spacing" textLength="33.4619" x="571.6108" y="1931.5726">Sens</text><text fill="#000000" font-family="sans-serif" font-size="14" lengthAdjust="spacing" textLength="22.1621" x="519.48" y="1949.182">---&gt;</text><text fill="#000000" font-family="sans-serif" font-size="14" lengthAdjust="spacing" textLength="82.1064" x="571.6108" y="1949.182">Acteur &#8594; cas</text><text fill="#000000" font-family="sans-serif" font-size="14" lengthAdjust="spacing" textLength="15.9551" x="519.48" y="1966.7913">..&gt;</text><text fill="#000000" font-family="sans-serif" font-size="14" lengthAdjust="spacing" textLength="129.2129" x="571.6108" y="1966.7913">&#171;extend&#187; / &#171;include&#187;</text><text fill="#000000" font-family="sans-serif" font-size="14" lengthAdjust="spacing" textLength="9.3242" x="519.48" y="1984.4007">--</text><text fill="#000000" font-family="sans-serif" font-size="14" lengthAdjust="spacing" textLength="8.1758" x="567.7212" y="1984.4007">&gt;</text><text fill="#000000" font-family="sans-serif" font-size="14" lengthAdjust="spacing" textLength="52.917" x="708.603" y="1984.4007">H&#233;ritage</text><line style="stroke:#000000;stroke-width:1;" x1="515.5903" x2="765.4097" y1="1917.0394" y2="1917.0394"/><line style="stroke:#000000;stroke-width:1;" x1="515.5903" x2="765.4097" y1="1934.6488" y2="1934.6488"/><line style="stroke:#000000;stroke-width:1;" x1="515.5903" x2="765.4097" y1="1952.2581" y2="1952.2581"/><line style="stroke:#000000;stroke-width:1;" x1="515.5903" x2="765.4097" y1="1969.8675" y2="1969.8675"/><line style="stroke:#000000;stroke-width:1;" x1="515.5903" x2="765.4097" y1="1987.4769" y2="1987.4769"/><line style="stroke:#000000;stroke-width:1;" x1="515.5903" x2="515.5903" y1="1917.0394" y2="1987.4769"/><line style="stroke:#000000;stroke-width:1;" x1="567.7212" x2="567.7212" y1="1917.0394" y2="1987.4769"/><line style="stroke:#000000;stroke-width:1;" x1="704.7134" x2="704.7134" y1="1917.0394" y2="1987.4769"/><line style="stroke:#000000;stroke-width:1;" x1="765.4097" x2="765.4097" y1="1917.0394" y2="1987.4769"/><!--SRC=[ZLLBRjim4Dth50Dlt09DWW9T5Ks0rCwdRfGOLfoLDmmriTbAf4fIGJ_kjWVeAPfUmpVfIJeaPSUYN3GhYPmt_pT3Aso1C1HihbbP8kG80sOWxq-jA8HXLYYP9EQZa1KZ1DG6IOwdIjfCV4Lu-If92hopO1LeCLzOo8L67jGOjqf3xqOOOR7MFI3BwyDQkFP3LpDvNDi5IYlknEh1ewS6DyYnLfKcWMNaOIQVlMLV45AIdD7FSmyF4FI8977AiBSyUlIvBVSIRpzn0JCvfqBq1agQkh0-xnvyIy1bp2bZc0vkd0kNJSqePB9Te9d9ghuj1FSA1jWzShWJXTLeUYtbWLTkp9DkBR6bsqOVDsXgYVm_-iAZByJ7_oB7KHI50sj54KFGQSD7dQ0z_0DQg9IsTweGAj8uzIgdlWI-GX0KNAMO1ejy8LMXvW8ZnM58Wac-pY9VFPGAK3QKQkElF3n5u4H5OWZgNlAzrSf7Cl6TxJoUNfzx8rcVRQ1TCsTed3RajQCNLIgsauQYdgqUNCObGKD5YQAtGhs0Qg4iVRXIEbTIhXxGF6_dahrlMQ2QSLLMn7IaOaGy6gOnDbSb4z9HCUyBQKcm-XqLAxlkz9tWnj6SaljKEojr4tQS_tYBtt7gauPFcfBIS43JcFiQmi5CPdL5irRIONj2sd6beUca5jBnOV70UZUZfXDCu1ACD-oB8nez9Q9QDgpis2-Ob4BEOxCdm-kuoLXMXH9Kz9f8NLRnk5zTXdNnhdIJ4dm65IhrJ7eLmCyaaT4aJ3eTrgogi8WyN8Q89iZnNWbDcvjg9zKZtpl5cw0ngjQEKd7LiexB3POoLBns7Ga6-t1uUBXPgUwGR0vxUqTkJyONu_ZYQcrcQ_i3srh-tcpOtrx1pMhhl7suM5jhlH3UH7lXUtGwtdKxsNqxsdLBPDW9JdVTNkx6Phjki-jr9YT439cRK0PwE_RtVM7XDRnvWrvsT3IJt-wRjyZt-tlYtes07CH8llMkEU35Ku6Z1ZXk0HE_wODar94C_oMXHHSaQSSSxRL_YVmi1Q6RmvQqgTSxoOkQ9g0fMBgEO1ACYI1s-0Bdf0ctobfLqX0i3-6qMFtY2tI_6T8ZldJNr1BgoHAEkIVddny_WOQbaJdZz7cCWpRDbfUDXQM7dTDO2Slcv25nlaC8oLy0]--></g></svg>