<svg xmlns="http://www.w3.org/2000/svg" xmlns:xlink="http://www.w3.org/1999/xlink" contentStyleType="text/css" data-diagram-type="SEQUENCE" height="1374px" preserveAspectRatio="none" style="width:867px;height:1374px;background:#FFFFFF;" version="1.1" viewBox="0 0 867 1374" width="867px" zoomAndPan="magnify"><title>Gestion native de l'emploi du temps</title><defs/><g><text fill="#000000" font-family="sans-serif" font-size="14" font-weight="bold" lengthAdjust="spacing" textLength="239.0391" x="310.0728" y="29.5332">Gestion native de l'emploi du temps</text><rect fill="none" height="206.4609" style="stroke:#000000;stroke-width:1.5;" width="830.1846" x="20" y="409.0313"/><rect fill="none" height="362.0547" style="stroke:#000000;stroke-width:1.5;" width="779.9746" x="10" y="673.8438"/><rect fill="none" height="216.2969" style="stroke:#000000;stroke-width:1.5;" width="712.0386" x="20" y="812.6016"/><g><title>Propri&#233;taire</title><rect fill="#000000" fill-opacity="0.00000" height="1171.1406" width="8" x="65.1826" y="121.2188"/><line style="stroke:#181818;stroke-width:0.5;stroke-dasharray:5.0,5.0;" x1="69" x2="69" y1="121.2188" y2="1292.3594"/></g><g><title>Frontend</title><rect fill="#000000" fill-opacity="0.00000" height="1171.1406" width="8" x="228.6406" y="121.2188"/><line style="stroke:#181818;stroke-width:0.5;stroke-dasharray:5.0,5.0;" x1="232.6235" x2="232.6235" y1="121.2188" y2="1292.3594"/></g><g><title>API</title><rect fill="#000000" fill-opacity="0.00000" height="1171.1406" width="8" x="472.2949" y="121.2188"/><line style="stroke:#181818;stroke-width:0.5;stroke-dasharray:5.0,5.0;" x1="476.0122" x2="476.0122" y1="121.2188" y2="1292.3594"/></g><g><title>BaseDeDonnees</title><rect fill="#000000" fill-opacity="0.00000" height="1171.1406" width="8" x="662.1147" y="121.2188"/><line style="stroke:#181818;stroke-width:0.5;stroke-dasharray:5.0,5.0;" x1="665.1909" x2="665.1909" y1="121.2188" y2="1292.3594"/></g><g class="participant participant-head" data-participant="Auth"><text fill="#000000" font-family="sans-serif" font-size="14" lengthAdjust="spacing" textLength="72.3652" x="30" y="118.1426">Propri&#233;taire</text><ellipse cx="69.1826" cy="52.1094" fill="#E2E2F0" rx="8" ry="8" style="stroke:#181818;stroke-width:0.5;"/><path d="M69.1826,60.1094 L69.1826,87.1094 M56.1826,68.1094 L82.1826,68.1094 M69.1826,87.1094 L56.1826,102.1094 M69.1826,87.1094 L82.1826,102.1094" fill="none" style="stroke:#181818;stroke-width:0.5;"/></g><g class="participant participant-tail" data-participant="Auth"><text fill="#000000" font-family="sans-serif" font-size="14" lengthAdjust="spacing" textLength="72.3652" x="30" y="1305.8926">Propri&#233;taire</text><ellipse cx="69.1826" cy="1317.4688" fill="#E2E2F0" rx="8" ry="8" style="stroke:#181818;stroke-width:0.5;"/><path d="M69.1826,1325.4688 L69.1826,1352.4688 M56.1826,1333.4688 L82.1826,1333.4688 M69.1826,1352.4688 L56.1826,1367.4688 M69.1826,1352.4688 L82.1826,1367.4688" fill="none" style="stroke:#181818;stroke-width:0.5;"/></g><g class="participant participant-head" data-participant="Front"><rect fill="#E2E2F0" height="31.6094" rx="2.5" ry="2.5" style="stroke:#181818;stroke-width:0.5;" width="70.0342" x="197.6235" y="88.6094"/><text fill="#000000" font-family="sans-serif" font-size="14" lengthAdjust="spacing" textLength="56.0342" x="204.6235" y="110.1426">Frontend</text></g><g class="participant participant-tail" data-participant="Front"><rect fill="#E2E2F0" height="31.6094" rx="2.5" ry="2.5" style="stroke:#181818;stroke-width:0.5;" width="70.0342" x="197.6235" y="1291.3594"/><text fill="#000000" font-family="sans-serif" font-size="14" lengthAdjust="spacing" textLength="56.0342" x="204.6235" y="1312.8926">Frontend</text></g><g class="participant participant-head" data-participant="API"><rect fill="#E2E2F0" height="31.6094" rx="2.5" ry="2.5" style="stroke:#181818;stroke-width:0.5;" width="36.5654" x="458.0122" y="88.6094"/><text fill="#000000" font-family="sans-serif" font-size="14" lengthAdjust="spacing" textLength="22.5654" x="465.0122" y="110.1426">API</text></g><g class="participant participant-tail" data-participant="API"><rect fill="#E2E2F0" height="31.6094" rx="2.5" ry="2.5" style="stroke:#181818;stroke-width:0.5;" width="36.5654" x="458.0122" y="1291.3594"/><text fill="#000000" font-family="sans-serif" font-size="14" lengthAdjust="spacing" textLength="22.5654" x="465.0122" y="1312.8926">API</text></g><g class="participant participant-head" data-participant="BD"><text fill="#000000" font-family="sans-serif" font-size="14" lengthAdjust="spacing" textLength="105.8477" x="610.1909" y="118.1426">BaseDeDonnees</text><path d="M648.1147,67.6094 C648.1147,57.6094 666.1147,57.6094 666.1147,57.6094 C666.1147,57.6094 684.1147,57.6094 684.1147,67.6094 L684.1147,93.6094 C684.1147,103.6094 666.1147,103.6094 666.1147,103.6094 C666.1147,103.6094 648.1147,103.6094 648.1147,93.6094 L648.1147,67.6094" fill="#E2E2F0" style="stroke:#181818;stroke-width:1.5;"/><path d="M648.1147,67.6094 C648.1147,77.6094 666.1147,77.6094 666.1147,77.6094 C666.1147,77.6094 684.1147,77.6094 684.1147,67.6094" fill="none" style="stroke:#181818;stroke-width:1.5;"/></g><g class="participant participant-tail" data-participant="BD"><text fill="#000000" font-family="sans-serif" font-size="14" lengthAdjust="spacing" textLength="105.8477" x="610.1909" y="1305.8926">BaseDeDonnees</text><path d="M648.1147,1318.9688 C648.1147,1308.9688 666.1147,1308.9688 666.1147,1308.9688 C666.1147,1308.9688 684.1147,1308.9688 684.1147,1318.9688 L684.1147,1344.9688 C684.1147,1354.9688 666.1147,1354.9688 666.1147,1354.9688 C666.1147,1354.9688 648.1147,1354.9688 648.1147,1344.9688 L648.1147,1318.9688" fill="#E2E2F0" style="stroke:#181818;stroke-width:1.5;"/><path d="M648.1147,1318.9688 C648.1147,1328.9688 666.1147,1328.9688 666.1147,1328.9688 C666.1147,1328.9688 684.1147,1328.9688 684.1147,1318.9688" fill="none" style="stroke:#181818;stroke-width:1.5;"/></g><rect fill="#EEEEEE" height="3" style="stroke:#EEEEEE;stroke-width:1;" width="860.1846" x="0" y="152.3945"/><line style="stroke:#000000;stroke-width:1;" x1="0" x2="860.1846" y1="152.3945" y2="152.3945"/><line style="stroke:#000000;stroke-width:1;" x1="0" x2="860.1846" y1="155.3945" y2="155.3945"/><rect fill="#EEEEEE" height="24.3516" style="stroke:#000000;stroke-width:2;" width="99.9536" x="380.1155" y="141.2188"/><text fill="#000000" font-family="sans-serif" font-size="13" font-weight="bold" lengthAdjust="spacing" textLength="82.3418" x="386.1155" y="158.7139">Cr&#233;ation EDT</text><g class="message" data-participant-1="Auth" data-participant-2="Front"><polygon fill="#181818" points="220.6406,193.9219,230.6406,197.9219,220.6406,201.9219,224.6406,197.9219" style="stroke:#181818;stroke-width:1;"/><line style="stroke:#181818;stroke-width:1;" x1="69.1826" x2="226.6406" y1="197.9219" y2="197.9219"/><text fill="#000000" font-family="sans-serif" font-size="13" lengthAdjust="spacing" textLength="139.458" x="76.1826" y="193.0654">Nouvel emploi du temps</text></g><g class="message" data-participant-1="Front" data-participant-2="API"><polygon fill="#181818" points="464.2949,224.2734,474.2949,228.2734,464.2949,232.2734,468.2949,228.2734" style="stroke:#181818;stroke-width:1;"/><line style="stroke:#181818;stroke-width:1;" x1="232.6406" x2="470.2949" y1="228.2734" y2="228.2734"/><text fill="#000000" font-family="sans-serif" font-size="13" lengthAdjust="spacing" textLength="166.8926" x="239.6406" y="223.417">POST /api/emplois-du-temps</text></g><g class="message" data-participant-1="API" data-participant-2="BD"><polygon fill="#181818" points="654.1147,254.625,664.1147,258.625,654.1147,262.625,658.1147,258.625" style="stroke:#181818;stroke-width:1;"/><line style="stroke:#181818;stroke-width:1;" x1="476.2949" x2="660.1147" y1="258.625" y2="258.625"/><text fill="#000000" font-family="sans-serif" font-size="13" lengthAdjust="spacing" textLength="47.6709" x="483.2949" y="253.7686">INSERT</text></g><g class="message" data-participant-1="BD" data-participant-2="API"><polygon fill="#181818" points="487.2949,284.9766,477.2949,288.9766,487.2949,292.9766,483.2949,288.9766" style="stroke:#181818;stroke-width:1;"/><line style="stroke:#181818;stroke-width:1;stroke-dasharray:2.0,2.0;" x1="481.2949" x2="665.1147" y1="288.9766" y2="288.9766"/><text fill="#000000" font-family="sans-serif" font-size="13" lengthAdjust="spacing" textLength="54.9009" x="493.2949" y="284.1201">EDT cr&#233;&#233;</text></g><g class="message" data-participant-1="API" data-participant-2="Front"><polygon fill="#181818" points="243.6406,315.3281,233.6406,319.3281,243.6406,323.3281,239.6406,319.3281" style="stroke:#181818;stroke-width:1;"/><line style="stroke:#181818;stroke-width:1;stroke-dasharray:2.0,2.0;" x1="237.6406" x2="475.2949" y1="319.3281" y2="319.3281"/><text fill="#000000" font-family="sans-serif" font-size="13" lengthAdjust="spacing" textLength="73.6963" x="249.6406" y="314.4717">Confirmation</text></g><g class="message" data-participant-1="Front" data-participant-2="Auth"><polygon fill="#181818" points="80.1826,345.6797,70.1826,349.6797,80.1826,353.6797,76.1826,349.6797" style="stroke:#181818;stroke-width:1;"/><line style="stroke:#181818;stroke-width:1;stroke-dasharray:2.0,2.0;" x1="74.1826" x2="231.6406" y1="349.6797" y2="349.6797"/><text fill="#000000" font-family="sans-serif" font-size="13" lengthAdjust="spacing" textLength="52.0127" x="86.1826" y="344.8232">EDT pr&#234;t</text></g><rect fill="#EEEEEE" height="3" style="stroke:#EEEEEE;stroke-width:1;" width="860.1846" x="0" y="378.8555"/><line style="stroke:#000000;stroke-width:1;" x1="0" x2="860.1846" y1="378.8555" y2="378.8555"/><line style="stroke:#000000;stroke-width:1;" x1="0" x2="860.1846" y1="381.8555" y2="381.8555"/><rect fill="#EEEEEE" height="24.3516" style="stroke:#000000;stroke-width:2;" width="159.9707" x="350.1069" y="367.6797"/><text fill="#000000" font-family="sans-serif" font-size="13" font-weight="bold" lengthAdjust="spacing" textLength="142.3589" x="356.1069" y="385.1748">Saisie des &#233;v&#233;nements</text><path d="M20,409.0313 L92.4346,409.0313 L92.4346,417.3828 L82.4346,427.3828 L20,427.3828 L20,409.0313" fill="#EEEEEE" style="stroke:#000000;stroke-width:1.5;"/><rect fill="none" height="206.4609" style="stroke:#000000;stroke-width:1.5;" width="830.1846" x="20" y="409.0313"/><text fill="#000000" font-family="sans-serif" font-size="13" font-weight="bold" lengthAdjust="spacing" textLength="27.4346" x="35" y="423.5264">loop</text><text fill="#000000" font-family="sans-serif" font-size="11" font-weight="bold" lengthAdjust="spacing" textLength="133.8584" x="107.4346" y="422.4502">[pour chaque &#233;v&#233;nement]</text><g class="message" data-participant-1="Auth" data-participant-2="Front"><polygon fill="#181818" points="220.6406,445.7344,230.6406,449.7344,220.6406,453.7344,224.6406,449.7344" style="stroke:#181818;stroke-width:1;"/><line style="stroke:#181818;stroke-width:1;" x1="69.1826" x2="226.6406" y1="449.7344" y2="449.7344"/><text fill="#000000" font-family="sans-serif" font-size="13" lengthAdjust="spacing" textLength="133.6626" x="76.1826" y="444.8779">Saisir titre, jour, heures</text></g><g class="message" data-participant-1="Front" data-participant-2="API"><polygon fill="#181818" points="464.2949,476.0859,474.2949,480.0859,464.2949,484.0859,468.2949,480.0859" style="stroke:#181818;stroke-width:1;"/><line style="stroke:#181818;stroke-width:1;" x1="232.6406" x2="470.2949" y1="480.0859" y2="480.0859"/><text fill="#000000" font-family="sans-serif" font-size="13" lengthAdjust="spacing" textLength="124.2744" x="239.6406" y="475.2295">POST .../evenements</text></g><g class="message" data-participant-1="API" data-participant-2="BD"><polygon fill="#181818" points="654.1147,509.4375,664.1147,513.4375,654.1147,517.4375,658.1147,513.4375" style="stroke:#181818;stroke-width:1;"/><line style="stroke:#181818;stroke-width:1;" x1="476.2949" x2="660.1147" y1="513.4375" y2="513.4375"/><text fill="#000000" font-family="sans-serif" font-size="13" lengthAdjust="spacing" textLength="47.6709" x="483.2949" y="508.5811">INSERT</text></g><path d="M671,493.0859 L671,519.0859 L835,519.0859 L835,503.0859 L825,493.0859 L671,493.0859" fill="#FEFFDD" style="stroke:#181818;stroke-width:0.5;"/><path d="M825,493.0859 L825,503.0859 L835,503.0859 L825,493.0859" fill="#FEFFDD" style="stroke:#181818;stroke-width:0.5;"/><text fill="#000000" font-family="sans-serif" font-size="13" lengthAdjust="spacing" textLength="143.0698" x="677" y="511.5811">V&#233;rifier chevauchements</text><g class="message" data-participant-1="BD" data-participant-2="API"><polygon fill="#181818" points="487.2949,542.7891,477.2949,546.7891,487.2949,550.7891,483.2949,546.7891" style="stroke:#181818;stroke-width:1;"/><line style="stroke:#181818;stroke-width:1;stroke-dasharray:2.0,2.0;" x1="481.2949" x2="665.1147" y1="546.7891" y2="546.7891"/><text fill="#000000" font-family="sans-serif" font-size="13" lengthAdjust="spacing" textLength="94.6626" x="493.2949" y="541.9326">&#201;v&#233;nement cr&#233;&#233;</text></g><g class="message" data-participant-1="API" data-participant-2="Front"><polygon fill="#181818" points="243.6406,573.1406,233.6406,577.1406,243.6406,581.1406,239.6406,577.1406" style="stroke:#181818;stroke-width:1;"/><line style="stroke:#181818;stroke-width:1;stroke-dasharray:2.0,2.0;" x1="237.6406" x2="475.2949" y1="577.1406" y2="577.1406"/><text fill="#000000" font-family="sans-serif" font-size="13" lengthAdjust="spacing" textLength="127.8799" x="249.6406" y="572.2842">Mise &#224; jour temps r&#233;el</text></g><g class="message" data-participant-1="Front" data-participant-2="Auth"><polygon fill="#181818" points="80.1826,603.4922,70.1826,607.4922,80.1826,611.4922,76.1826,607.4922" style="stroke:#181818;stroke-width:1;"/><line style="stroke:#181818;stroke-width:1;stroke-dasharray:2.0,2.0;" x1="74.1826" x2="231.6406" y1="607.4922" y2="607.4922"/><text fill="#000000" font-family="sans-serif" font-size="13" lengthAdjust="spacing" textLength="89.6035" x="86.1826" y="602.6357">Cr&#233;neau visible</text></g><rect fill="#EEEEEE" height="3" style="stroke:#EEEEEE;stroke-width:1;" width="860.1846" x="0" y="643.668"/><line style="stroke:#000000;stroke-width:1;" x1="0" x2="860.1846" y1="643.668" y2="643.668"/><line style="stroke:#000000;stroke-width:1;" x1="0" x2="860.1846" y1="646.668" y2="646.668"/><rect fill="#EEEEEE" height="24.3516" style="stroke:#000000;stroke-width:2;" width="168.0513" x="346.0667" y="632.4922"/><text fill="#000000" font-family="sans-serif" font-size="13" font-weight="bold" lengthAdjust="spacing" textLength="150.4395" x="352.0667" y="649.9873">Import d'un EDT externe</text><path d="M10,673.8438 L75.2109,673.8438 L75.2109,682.1953 L65.2109,692.1953 L10,692.1953 L10,673.8438" fill="#EEEEEE" style="stroke:#000000;stroke-width:1.5;"/><rect fill="none" height="362.0547" style="stroke:#000000;stroke-width:1.5;" width="779.9746" x="10" y="673.8438"/><text fill="#000000" font-family="sans-serif" font-size="13" font-weight="bold" lengthAdjust="spacing" textLength="20.2109" x="25" y="688.3389">opt</text><text fill="#000000" font-family="sans-serif" font-size="11" font-weight="bold" lengthAdjust="spacing" textLength="103.2808" x="90.2109" y="687.2627">[upload image/PDF]</text><g class="message" data-participant-1="Auth" data-participant-2="Front"><polygon fill="#181818" points="220.6406,710.5469,230.6406,714.5469,220.6406,718.5469,224.6406,714.5469" style="stroke:#181818;stroke-width:1;"/><line style="stroke:#181818;stroke-width:1;" x1="69.1826" x2="226.6406" y1="714.5469" y2="714.5469"/><text fill="#000000" font-family="sans-serif" font-size="13" lengthAdjust="spacing" textLength="109.0972" x="76.1826" y="709.6904">Upload fichier EDT</text></g><g class="message" data-participant-1="Front" data-participant-2="API"><polygon fill="#181818" points="464.2949,740.8984,474.2949,744.8984,464.2949,748.8984,468.2949,744.8984" style="stroke:#181818;stroke-width:1;"/><line style="stroke:#181818;stroke-width:1;" x1="232.6406" x2="470.2949" y1="744.8984" y2="744.8984"/><text fill="#000000" font-family="sans-serif" font-size="13" lengthAdjust="spacing" textLength="125.7026" x="239.6406" y="740.042">POST .../convertir-edt</text></g><g class="message" data-participant-1="API" data-participant-2="API"><line style="stroke:#181818;stroke-width:1;" x1="476.2949" x2="518.2949" y1="779.9258" y2="779.9258"/><line style="stroke:#181818;stroke-width:1;" x1="518.2949" x2="518.2949" y1="779.9258" y2="792.9258"/><line style="stroke:#181818;stroke-width:1;" x1="477.2949" x2="518.2949" y1="792.9258" y2="792.9258"/><polygon fill="#181818" points="487.2949,788.9258,477.2949,792.9258,487.2949,796.9258,483.2949,792.9258" style="stroke:#181818;stroke-width:1;"/><text fill="#000000" font-family="sans-serif" font-size="13" lengthAdjust="spacing" textLength="115.5972" x="483.2949" y="775.0693">Analyser via Ollama</text></g><path d="M610.5972,757.8984 L610.5972,799.8984 L774.5972,799.8984 L774.5972,767.8984 L764.5972,757.8984 L610.5972,757.8984" fill="#FEFFDD" style="stroke:#181818;stroke-width:0.5;"/><path d="M764.5972,757.8984 L764.5972,767.8984 L774.5972,767.8984 L764.5972,757.8984" fill="#FEFFDD" style="stroke:#181818;stroke-width:0.5;"/><text fill="#000000" font-family="sans-serif" font-size="13" lengthAdjust="spacing" textLength="143.0825" x="616.5972" y="776.3936">Reconnaissance visuelle</text><text fill="#000000" font-family="sans-serif" font-size="13" lengthAdjust="spacing" textLength="87.4072" x="616.5972" y="792.7451">(Ollama / llava)</text><path d="M20,812.6016 L80.1709,812.6016 L80.1709,820.9531 L70.1709,830.9531 L20,830.9531 L20,812.6016" fill="#EEEEEE" style="stroke:#000000;stroke-width:1.5;"/><rect fill="none" height="216.2969" style="stroke:#000000;stroke-width:1.5;" width="712.0386" x="20" y="812.6016"/><text fill="#000000" font-family="sans-serif" font-size="13" font-weight="bold" lengthAdjust="spacing" textLength="15.1709" x="35" y="827.0967">alt</text><text fill="#000000" font-family="sans-serif" font-size="11" font-weight="bold" lengthAdjust="spacing" textLength="86.5015" x="95.1709" y="826.0205">[confiance &gt; 0.7]</text><g class="message" data-participant-1="API" data-participant-2="BD"><polygon fill="#181818" points="654.1147,849.3047,664.1147,853.3047,654.1147,857.3047,658.1147,853.3047" style="stroke:#181818;stroke-width:1;"/><line style="stroke:#181818;stroke-width:1;" x1="476.2949" x2="660.1147" y1="853.3047" y2="853.3047"/><text fill="#000000" font-family="sans-serif" font-size="13" lengthAdjust="spacing" textLength="114.8926" x="483.2949" y="848.4482">Ins&#233;rer &#233;v&#233;nements</text></g><g class="message" data-participant-1="BD" data-participant-2="API"><polygon fill="#181818" points="487.2949,879.6563,477.2949,883.6563,487.2949,887.6563,483.2949,883.6563" style="stroke:#181818;stroke-width:1;"/><line style="stroke:#181818;stroke-width:1;stroke-dasharray:2.0,2.0;" x1="481.2949" x2="665.1147" y1="883.6563" y2="883.6563"/><text fill="#000000" font-family="sans-serif" font-size="13" lengthAdjust="spacing" textLength="75.1309" x="493.2949" y="878.7998">Import r&#233;ussi</text></g><g class="message" data-participant-1="API" data-participant-2="Front"><polygon fill="#181818" points="243.6406,910.0078,233.6406,914.0078,243.6406,918.0078,239.6406,914.0078" style="stroke:#181818;stroke-width:1;"/><line style="stroke:#181818;stroke-width:1;stroke-dasharray:2.0,2.0;" x1="237.6406" x2="475.2949" y1="914.0078" y2="914.0078"/><text fill="#000000" font-family="sans-serif" font-size="13" lengthAdjust="spacing" textLength="110.9316" x="249.6406" y="909.1514">Aper&#231;u + validation</text></g><g class="message" data-participant-1="Front" data-participant-2="Auth"><polygon fill="#181818" points="80.1826,940.3594,70.1826,944.3594,80.1826,948.3594,76.1826,944.3594" style="stroke:#181818;stroke-width:1;"/><line style="stroke:#181818;stroke-width:1;stroke-dasharray:2.0,2.0;" x1="74.1826" x2="231.6406" y1="944.3594" y2="944.3594"/><text fill="#000000" font-family="sans-serif" font-size="13" lengthAdjust="spacing" textLength="125.7217" x="86.1826" y="939.5029">&#201;v&#233;nements import&#233;s</text></g><line style="stroke:#000000;stroke-width:1;stroke-dasharray:2.0,2.0;" x1="20" x2="732.0386" y1="953.3594" y2="953.3594"/><text fill="#000000" font-family="sans-serif" font-size="11" font-weight="bold" lengthAdjust="spacing" textLength="38.5161" x="25" y="964.7783">[&#233;chec]</text><g class="message" data-participant-1="API" data-participant-2="Front"><polygon fill="#181818" points="243.6406,986.5469,233.6406,990.5469,243.6406,994.5469,239.6406,990.5469" style="stroke:#181818;stroke-width:1;"/><line style="stroke:#181818;stroke-width:1;stroke-dasharray:2.0,2.0;" x1="237.6406" x2="475.2949" y1="990.5469" y2="990.5469"/><text fill="#000000" font-family="sans-serif" font-size="13" lengthAdjust="spacing" textLength="36.1182" x="249.6406" y="985.6904">Erreur</text></g><g class="message" data-participant-1="Front" data-participant-2="Auth"><polygon fill="#181818" points="80.1826,1016.8984,70.1826,1020.8984,80.1826,1024.8984,76.1826,1020.8984" style="stroke:#181818;stroke-width:1;"/><line style="stroke:#181818;stroke-width:1;stroke-dasharray:2.0,2.0;" x1="74.1826" x2="231.6406" y1="1020.8984" y2="1020.8984"/><text fill="#000000" font-family="sans-serif" font-size="13" lengthAdjust="spacing" textLength="117.0635" x="86.1826" y="1016.042">Format non reconnu</text></g><rect fill="#EEEEEE" height="3" style="stroke:#EEEEEE;stroke-width:1;" width="860.1846" x="0" y="1064.0742"/><line style="stroke:#000000;stroke-width:1;" x1="0" x2="860.1846" y1="1064.0742" y2="1064.0742"/><line style="stroke:#000000;stroke-width:1;" x1="0" x2="860.1846" y1="1067.0742" y2="1067.0742"/><rect fill="#EEEEEE" height="24.3516" style="stroke:#000000;stroke-width:2;" width="162.0718" x="349.0564" y="1052.8984"/><text fill="#000000" font-family="sans-serif" font-size="13" font-weight="bold" lengthAdjust="spacing" textLength="144.46" x="355.0564" y="1070.3936">Affichage dans le Front</text><g class="message" data-participant-1="Front" data-participant-2="API"><polygon fill="#181818" points="464.2949,1105.6016,474.2949,1109.6016,464.2949,1113.6016,468.2949,1109.6016" style="stroke:#181818;stroke-width:1;"/><line style="stroke:#181818;stroke-width:1;" x1="232.6406" x2="470.2949" y1="1109.6016" y2="1109.6016"/><text fill="#000000" font-family="sans-serif" font-size="13" lengthAdjust="spacing" textLength="219.6543" x="239.6406" y="1104.7451">GET /api/emplois-du-temps/{semaine}</text></g><g class="message" data-participant-1="API" data-participant-2="BD"><polygon fill="#181818" points="654.1147,1135.9531,664.1147,1139.9531,654.1147,1143.9531,658.1147,1139.9531" style="stroke:#181818;stroke-width:1;"/><line style="stroke:#181818;stroke-width:1;" x1="476.2949" x2="660.1147" y1="1139.9531" y2="1139.9531"/><text fill="#000000" font-family="sans-serif" font-size="13" lengthAdjust="spacing" textLength="165.8198" x="483.2949" y="1135.0967">SELECT EDT + &#233;v&#233;nements</text></g><g class="message" data-participant-1="BD" data-participant-2="API"><polygon fill="#181818" points="487.2949,1166.3047,477.2949,1170.3047,487.2949,1174.3047,483.2949,1170.3047" style="stroke:#181818;stroke-width:1;"/><line style="stroke:#181818;stroke-width:1;stroke-dasharray:2.0,2.0;" x1="481.2949" x2="665.1147" y1="1170.3047" y2="1170.3047"/><text fill="#000000" font-family="sans-serif" font-size="13" lengthAdjust="spacing" textLength="52.0381" x="493.2949" y="1165.4482">Donn&#233;es</text></g><g class="message" data-participant-1="API" data-participant-2="Front"><polygon fill="#181818" points="243.6406,1196.6563,233.6406,1200.6563,243.6406,1204.6563,239.6406,1200.6563" style="stroke:#181818;stroke-width:1;"/><line style="stroke:#181818;stroke-width:1;stroke-dasharray:2.0,2.0;" x1="237.6406" x2="475.2949" y1="1200.6563" y2="1200.6563"/><text fill="#000000" font-family="sans-serif" font-size="13" lengthAdjust="spacing" textLength="88.8545" x="249.6406" y="1195.7998">JSON structur&#233;</text></g><g class="message" data-participant-1="Front" data-participant-2="Front"><line style="stroke:#181818;stroke-width:1;" x1="232.6406" x2="274.6406" y1="1231.0078" y2="1231.0078"/><line style="stroke:#181818;stroke-width:1;" x1="274.6406" x2="274.6406" y1="1231.0078" y2="1244.0078"/><line style="stroke:#181818;stroke-width:1;" x1="233.6406" x2="274.6406" y1="1244.0078" y2="1244.0078"/><polygon fill="#181818" points="243.6406,1240.0078,233.6406,1244.0078,243.6406,1248.0078,239.6406,1244.0078" style="stroke:#181818;stroke-width:1;"/><text fill="#000000" font-family="sans-serif" font-size="13" lengthAdjust="spacing" textLength="145.9771" x="239.6406" y="1226.1514">Rendu natif (grille hebdo)</text></g><g class="message" data-participant-1="Front" data-participant-2="Auth"><polygon fill="#181818" points="80.1826,1270.3594,70.1826,1274.3594,80.1826,1278.3594,76.1826,1274.3594" style="stroke:#181818;stroke-width:1;"/><line style="stroke:#181818;stroke-width:1;stroke-dasharray:2.0,2.0;" x1="74.1826" x2="231.6406" y1="1274.3594" y2="1274.3594"/><text fill="#000000" font-family="sans-serif" font-size="13" lengthAdjust="spacing" textLength="138.7344" x="86.1826" y="1269.5029">Emploi du temps affich&#233;</text></g><!--SRC=[TLHDRzf04BtxLymjYHAWjqgHY0GnYQZQ10NQKo-3FOIjrhlkVbYjglw0_elUAkTl-8zrTWsn8Sa54FlcpPltPjS99mbkoJgX5IXqeYB82UG95QNK0d8FZd_Q9C7CQGCBeqiZcjgXC0HeOUBTDYdHE9694fM36wEL8vM7m_Zxu7IocCUgnJp9qU4QBS6KFr9AjL94DfnEqoGPZ-7QD3L6ORDq1UDn4dh1uAgblOGxxIkISAmqdWOODxc4nVro1ICinQZ5sK7k1oqmQ67ODBs4-Trozh1AfYaCzeMXPyOAche5TdsljTe8KqHf-swXYjMrPQLfdbmSOOd2Yk2eXQQkcbfHGShPC8pKkeHIUmFP5hzxwWCIWADP8v419voX2_Z6PHUm9M_8ClQLYOV3uOWgslKBV2-61L3Q4HZnkEK6NvhQY8sW88SgzFovB-sxqlnv5hbtPyVTQVqaEDJcRrJPPWAC9DafVNOhHAm8FLGytbfImeiJZPiNfJOEyXFVfay_71b5mJXTEl0S9UOW2doaqIAzUMdOvnQn4Tas3CKSRnkLQLKHxwWPKEuwho9eeb3-jCnG2OHxAR708-SUYEiLvsDHPHGcyIGbVLMdBHn6mDyLdd4TIhOjh4-4Ni6xuNl-zp0TPJaARjXVc0Zgvx3pX-tpregEepDWKf9f_dauXmgboDjj3RZZ37gHMdOqy3Prw4Wov5Zp9cIlDPWPmmluAkMD3jU3NL9WeZi-q76q-tWdcn0CXmSvAWly1hKK7EzXHhUpDsxlw9Ub0eMYt_rxl9nzd5sluiQS7nhODoyyDRoGzlXYVrZUtu5rncVEixETbDtv0yltyPNSmEcZ4PmoNy9rhizUFWE7Zn9W79Wv_mC0]--></g></svg>