<svg xmlns="http://www.w3.org/2000/svg" xmlns:xlink="http://www.w3.org/1999/xlink" contentStyleType="text/css" data-diagram-type="SEQUENCE" height="1365px" preserveAspectRatio="none" style="width:867px;height:1365px;background:#FFFFFF;" version="1.1" viewBox="0 0 867 1365" width="867px" zoomAndPan="magnify"><title>Gestion native de l'emploi du temps</title><defs/><g><text fill="#000000" font-family="sans-serif" font-size="14" font-weight="bold" lengthAdjust="spacing" textLength="239.0391" x="310.0728" y="29.5332">Gestion native de l'emploi du temps</text><rect fill="none" height="206.4609" style="stroke:#000000;stroke-width:1.5;" width="830.1846" x="20" y="409.0313"/><rect fill="none" height="352.7031" style="stroke:#000000;stroke-width:1.5;" width="806.7046" x="10" y="673.8438"/><rect fill="none" height="216.2969" style="stroke:#000000;stroke-width:1.5;" width="712.0386" x="20" y="803.25"/><g><title>Propri&#233;taire</title><rect fill="#000000" fill-opacity="0.00000" height="1161.7891" width="8" x="65.1826" y="121.2188"/><line style="stroke:#181818;stroke-width:0.5;stroke-dasharray:5.0,5.0;" x1="69" x2="69" y1="121.2188" y2="1283.0078"/></g><g><title>Frontend</title><rect fill="#000000" fill-opacity="0.00000" height="1161.7891" width="8" x="228.6406" y="121.2188"/><line style="stroke:#181818;stroke-width:0.5;stroke-dasharray:5.0,5.0;" x1="232.6235" x2="232.6235" y1="121.2188" y2="1283.0078"/></g><g><title>API</title><rect fill="#000000" fill-opacity="0.00000" height="1161.7891" width="8" x="472.2949" y="121.2188"/><line style="stroke:#181818;stroke-width:0.5;stroke-dasharray:5.0,5.0;" x1="476.0122" x2="476.0122" y1="121.2188" y2="1283.0078"/></g><g><title>BaseDeDonnees</title><rect fill="#000000" fill-opacity="0.00000" height="1161.7891" width="8" x="662.1147" y="121.2188"/><line style="stroke:#181818;stroke-width:0.5;stroke-dasharray:5.0,5.0;" x1="665.1909" x2="665.1909" y1="121.2188" y2="1283.0078"/></g><g class="participant participant-head" data-participant="Auth"><text fill="#000000" font-family="sans-serif" font-size="14" lengthAdjust="spacing" textLength="72.3652" x="30" y="118.1426">Propri&#233;taire</text><ellipse cx="69.1826" cy="52.1094" fill="#E2E2F0" rx="8" ry="8" style="stroke:#181818;stroke-width:0.5;"/><path d="M69.1826,60.1094 L69.1826,87.1094 M56.1826,68.1094 L82.1826,68.1094 M69.1826,87.1094 L56.1826,102.1094 M69.1826,87.1094 L82.1826,102.1094" fill="none" style="stroke:#181818;stroke-width:0.5;"/></g><g class="participant participant-tail" data-participant="Auth"><text fill="#000000" font-family="sans-serif" font-size="14" lengthAdjust="spacing" textLength="72.3652" x="30" y="1296.541">Propri&#233;taire</text><ellipse cx="69.1826" cy="1308.1172" fill="#E2E2F0" rx="8" ry="8" style="stroke:#181818;stroke-width:0.5;"/><path d="M69.1826,1316.1172 L69.1826,1343.1172 M56.1826,1324.1172 L82.1826,1324.1172 M69.1826,1343.1172 L56.1826,1358.1172 M69.1826,1343.1172 L82.1826,1358.1172" fill="none" style="stroke:#181818;stroke-width:0.5;"/></g><g class="participant participant-head" data-participant="Front"><rect fill="#E2E2F0" height="31.6094" rx="2.5" ry="2.5" style="stroke:#181818;stroke-width:0.5;" width="70.0342" x="197.6235" y="88.6094"/><text fill="#000000" font-family="sans-serif" font-size="14" lengthAdjust="spacing" textLength="56.0342" x="204.6235" y="110.1426">Frontend</text></g><g class="participant participant-tail" data-participant="Front"><rect fill="#E2E2F0" height="31.6094" rx="2.5" ry="2.5" style="stroke:#181818;stroke-width:0.5;" width="70.0342" x="197.6235" y="1282.0078"/><text fill="#000000" font-family="sans-serif" font-size="14" lengthAdjust="spacing" textLength="56.0342" x="204.6235" y="1303.541">Frontend</text></g><g class="participant participant-head" data-participant="API"><rect fill="#E2E2F0" height="31.6094" rx="2.5" ry="2.5" style="stroke:#181818;stroke-width:0.5;" width="36.5654" x="458.0122" y="88.6094"/><text fill="#000000" font-family="sans-serif" font-size="14" lengthAdjust="spacing" textLength="22.5654" x="465.0122" y="110.1426">API</text></g><g class="participant participant-tail" data-participant="API"><rect fill="#E2E2F0" height="31.6094" rx="2.5" ry="2.5" style="stroke:#181818;stroke-width:0.5;" width="36.5654" x="458.0122" y="1282.0078"/><text fill="#000000" font-family="sans-serif" font-size="14" lengthAdjust="spacing" textLength="22.5654" x="465.0122" y="1303.541">API</text></g><g class="participant participant-head" data-participant="BD"><text fill="#000000" font-family="sans-serif" font-size="14" lengthAdjust="spacing" textLength="105.8477" x="610.1909" y="118.1426">BaseDeDonnees</text><path d="M648.1147,67.6094 C648.1147,57.6094 666.1147,57.6094 666.1147,57.6094 C666.1147,57.6094 684.1147,57.6094 684.1147,67.6094 L684.1147,93.6094 C684.1147,103.6094 666.1147,103.6094 666.1147,103.6094 C666.1147,103.6094 648.1147,103.6094 648.1147,93.6094 L648.1147,67.6094" fill="#E2E2F0" style="stroke:#181818;stroke-width:1.5;"/><path d="M648.1147,67.6094 C648.1147,77.6094 666.1147,77.6094 666.1147,77.6094 C666.1147,77.6094 684.1147,77.6094 684.1147,67.6094" fill="none" style="stroke:#181818;stroke-width:1.5;"/></g><g class="participant participant-tail" data-participant="BD"><text fill="#000000" font-family="sans-serif" font-size="14" lengthAdjust="spacing" textLength="105.8477" x="610.1909" y="1296.541">BaseDeDonnees</text><path d="M648.1147,1309.6172 C648.1147,1299.6172 666.1147,1299.6172 666.1147,1299.6172 C666.1147,1299.6172 684.1147,1299.6172 684.1147,1309.6172 L684.1147,1335.6172 C684.1147,1345.6172 666.1147,1345.6172 666.1147,1345.6172 C666.1147,1345.6172 648.1147,1345.6172 648.1147,1335.6172 L648.1147,1309.6172" fill="#E2E2F0" style="stroke:#181818;stroke-width:1.5;"/><path d="M648.1147,1309.6172 C648.1147,1319.6172 666.1147,1319.6172 666.1147,1319.6172 C666.1147,1319.6172 684.1147,1319.6172 684.1147,1309.6172" fill="none" style="stroke:#181818;stroke-width:1.5;"/></g><rect fill="#EEEEEE" height="3" style="stroke:#EEEEEE;stroke-width:1;" width="860.1846" x="0" y="152.3945"/><line style="stroke:#000000;stroke-width:1;" x1="0" x2="860.1846" y1="152.3945" y2="152.3945"/><line style="stroke:#000000;stroke-width:1;" x1="0" x2="860.1846" y1="155.3945" y2="155.3945"/><rect fill="#EEEEEE" height="24.3516" style="stroke:#000000;stroke-width:2;" width="99.9536" x="380.1155" y="141.2188"/><text fill="#000000" font-family="sans-serif" font-size="13" font-weight="bold" lengthAdjust="spacing" textLength="82.3418" x="386.1155" y="158.7139">Cr&#233;ation EDT</text><g class="message" data-participant-1="Auth" data-participant-2="Front"><polygon fill="#181818" points="220.6406,193.9219,230.6406,197.9219,220.6406,201.9219,224.6406,197.9219" style="stroke:#181818;stroke-width:1;"/><line style="stroke:#181818;stroke-width:1;" x1="69.1826" x2="226.6406" y1="197.9219" y2="197.9219"/><text fill="#000000" font-family="sans-serif" font-size="13" lengthAdjust="spacing" textLength="139.458" x="76.1826" y="193.0654">Nouvel emploi du temps</text></g><g class="message" data-participant-1="Front" data-participant-2="API"><polygon fill="#181818" points="464.2949,224.2734,474.2949,228.2734,464.2949,232.2734,468.2949,228.2734" style="stroke:#181818;stroke-width:1;"/><line style="stroke:#181818;stroke-width:1;" x1="232.6406" x2="470.2949" y1="228.2734" y2="228.2734"/><text fill="#000000" font-family="sans-serif" font-size="13" lengthAdjust="spacing" textLength="166.8926" x="239.6406" y="223.417">POST /api/emplois-du-temps</text></g><g class="message" data-participant-1="API" data-participant-2="BD"><polygon fill="#181818" points="654.1147,254.625,664.1147,258.625,654.1147,262.625,658.1147,258.625" style="stroke:#181818;stroke-width:1;"/><line style="stroke:#181818;stroke-width:1;" x1="476.2949" x2="660.1147" y1="258.625" y2="258.625"/><text fill="#000000" font-family="sans-serif" font-size="13" lengthAdjust="spacing" textLength="47.6709" x="483.2949" y="253.7686">INSERT</text></g><g class="message" data-participant-1="BD" data-participant-2="API"><polygon fill="#181818" points="487.2949,284.9766,477.2949,288.9766,487.2949,292.9766,483.2949,288.9766" style="stroke:#181818;stroke-width:1;"/><line style="stroke:#181818;stroke-width:1;stroke-dasharray:2.0,2.0;" x1="481.2949" x2="665.1147" y1="288.9766" y2="288.9766"/><text fill="#000000" font-family="sans-serif" font-size="13" lengthAdjust="spacing" textLength="54.9009" x="493.2949" y="284.1201">EDT cr&#233;&#233;</text></g><g class="message" data-participant-1="API" data-participant-2="Front"><polygon fill="#181818" points="243.6406,315.3281,233.6406,319.3281,243.6406,323.3281,239.6406,319.3281" style="stroke:#181818;stroke-width:1;"/><line style="stroke:#181818;stroke-width:1;stroke-dasharray:2.0,2.0;" x1="237.6406" x2="475.2949" y1="319.3281" y2="319.3281"/><text fill="#000000" font-family="sans-serif" font-size="13" lengthAdjust="spacing" textLength="73.6963" x="249.6406" y="314.4717">Confirmation</text></g><g class="message" data-participant-1="Front" data-participant-2="Auth"><polygon fill="#181818" points="80.1826,345.6797,70.1826,349.6797,80.1826,353.6797,76.1826,349.6797" style="stroke:#181818;stroke-width:1;"/><line style="stroke:#181818;stroke-width:1;stroke-dasharray:2.0,2.0;" x1="74.1826" x2="231.6406" y1="349.6797" y2="349.6797"/><text fill="#000000" font-family="sans-serif" font-size="13" lengthAdjust="spacing" textLength="52.0127" x="86.1826" y="344.8232">EDT pr&#234;t</text></g><rect fill="#EEEEEE" height="3" style="stroke:#EEEEEE;stroke-width:1;" width="860.1846" x="0" y="378.8555"/><line style="stroke:#000000;stroke-width:1;" x1="0" x2="860.1846" y1="378.8555" y2="378.8555"/><line style="stroke:#000000;stroke-width:1;" x1="0" x2="860.1846" y1="381.8555" y2="381.8555"/><rect fill="#EEEEEE" height="24.3516" style="stroke:#000000;stroke-width:2;" width="159.9707" x="350.1069" y="367.6797"/><text fill="#000000" font-family="sans-serif" font-size="13" font-weight="bold" lengthAdjust="spacing" textLength="142.3589" x="356.1069" y="385.1748">Saisie des &#233;v&#233;nements</text><path d="M20,409.0313 L92.4346,409.0313 L92.4346,417.3828 L82.4346,427.3828 L20,427.3828 L20,409.0313" fill="#EEEEEE" style="stroke:#000000;stroke-width:1.5;"/><rect fill="none" height="206.4609" style="stroke:#000000;stroke-width:1.5;" width="830.1846" x="20" y="409.0313"/><text fill="#000000" font-family="sans-serif" font-size="13" font-weight="bold" lengthAdjust="spacing" textLength="27.4346" x="35" y="423.5264">loop</text><text fill="#000000" font-family="sans-serif" font-size="11" font-weight="bold" lengthAdjust="spacing" textLength="133.8584" x="107.4346" y="422.4502">[pour chaque &#233;v&#233;nement]</text><g class="message" data-participant-1="Auth" data-participant-2="Front"><polygon fill="#181818" points="220.6406,445.7344,230.6406,449.7344,220.6406,453.7344,224.6406,449.7344" style="stroke:#181818;stroke-width:1;"/><line style="stroke:#181818;stroke-width:1;" x1="69.1826" x2="226.6406" y1="449.7344" y2="449.7344"/><text fill="#000000" font-family="sans-serif" font-size="13" lengthAdjust="spacing" textLength="133.6626" x="76.1826" y="444.8779">Saisir titre, jour, heures</text></g><g class="message" data-participant-1="Front" data-participant-2="API"><polygon fill="#181818" points="464.2949,476.0859,474.2949,480.0859,464.2949,484.0859,468.2949,480.0859" style="stroke:#181818;stroke-width:1;"/><line style="stroke:#181818;stroke-width:1;" x1="232.6406" x2="470.2949" y1="480.0859" y2="480.0859"/><text fill="#000000" font-family="sans-serif" font-size="13" lengthAdjust="spacing" textLength="124.2744" x="239.6406" y="475.2295">POST .../evenements</text></g><g class="message" data-participant-1="API" data-participant-2="BD"><polygon fill="#181818" points="654.1147,509.4375,664.1147,513.4375,654.1147,517.4375,658.1147,513.4375" style="stroke:#181818;stroke-width:1;"/><line style="stroke:#181818;stroke-width:1;" x1="476.2949" x2="660.1147" y1="513.4375" y2="513.4375"/><text fill="#000000" font-family="sans-serif" font-size="13" lengthAdjust="spacing" textLength="47.6709" x="483.2949" y="508.5811">INSERT</text></g><path d="M671,493.0859 L671,519.0859 L835,519.0859 L835,503.0859 L825,493.0859 L671,493.0859" fill="#FEFFDD" style="stroke:#181818;stroke-width:0.5;"/><path d="M825,493.0859 L825,503.0859 L835,503.0859 L825,493.0859" fill="#FEFFDD" style="stroke:#181818;stroke-width:0.5;"/><text fill="#000000" font-family="sans-serif" font-size="13" lengthAdjust="spacing" textLength="143.0698" x="677" y="511.5811">V&#233;rifier chevauchements</text><g class="message" data-participant-1="BD" data-participant-2="API"><polygon fill="#181818" points="487.2949,542.7891,477.2949,546.7891,487.2949,550.7891,483.2949,546.7891" style="stroke:#181818;stroke-width:1;"/><line style="stroke:#181818;stroke-width:1;stroke-dasharray:2.0,2.0;" x1="481.2949" x2="665.1147" y1="546.7891" y2="546.7891"/><text fill="#000000" font-family="sans-serif" font-size="13" lengthAdjust="spacing" textLength="94.6626" x="493.2949" y="541.9326">&#201;v&#233;nement cr&#233;&#233;</text></g><g class="message" data-participant-1="API" data-participant-2="Front"><polygon fill="#181818" points="243.6406,573.1406,233.6406,577.1406,243.6406,581.1406,239.6406,577.1406" style="stroke:#181818;stroke-width:1;"/><line style="stroke:#181818;stroke-width:1;stroke-dasharray:2.0,2.0;" x1="237.6406" x2="475.2949" y1="577.1406" y2="577.1406"/><text fill="#000000" font-family="sans-serif" font-size="13" lengthAdjust="spacing" textLength="127.8799" x="249.6406" y="572.2842">Mise &#224; jour temps r&#233;el</text></g><g class="message" data-participant-1="Front" data-participant-2="Auth"><polygon fill="#181818" points="80.1826,603.4922,70.1826,607.4922,80.1826,611.4922,76.1826,607.4922" style="stroke:#181818;stroke-width:1;"/><line style="stroke:#181818;stroke-width:1;stroke-dasharray:2.0,2.0;" x1="74.1826" x2="231.6406" y1="607.4922" y2="607.4922"/><text fill="#000000" font-family="sans-serif" font-size="13" lengthAdjust="spacing" textLength="89.6035" x="86.1826" y="602.6357">Cr&#233;neau visible</text></g><rect fill="#EEEEEE" height="3" style="stroke:#EEEEEE;stroke-width:1;" width="860.1846" x="0" y="643.668"/><line style="stroke:#000000;stroke-width:1;" x1="0" x2="860.1846" y1="643.668" y2="643.668"/><line style="stroke:#000000;stroke-width:1;" x1="0" x2="860.1846" y1="646.668" y2="646.668"/><rect fill="#EEEEEE" height="24.3516" style="stroke:#000000;stroke-width:2;" width="168.0513" x="346.0667" y="632.4922"/><text fill="#000000" font-family="sans-serif" font-size="13" font-weight="bold" lengthAdjust="spacing" textLength="150.4395" x="352.0667" y="649.9873">Import d'un EDT externe</text><path d="M10,673.8438 L75.2109,673.8438 L75.2109,682.1953 L65.2109,692.1953 L10,692.1953 L10,673.8438" fill="#EEEEEE" style="stroke:#000000;stroke-width:1.5;"/><rect fill="none" height="352.7031" style="stroke:#000000;stroke-width:1.5;" width="806.7046" x="10" y="673.8438"/><text fill="#000000" font-family="sans-serif" font-size="13" font-weight="bold" lengthAdjust="spacing" textLength="20.2109" x="25" y="688.3389">opt</text><text fill="#000000" font-family="sans-serif" font-size="11" font-weight="bold" lengthAdjust="spacing" textLength="103.2808" x="90.2109" y="687.2627">[upload image/PDF]</text><g class="message" data-participant-1="Auth" data-participant-2="Front"><polygon fill="#181818" points="220.6406,710.5469,230.6406,714.5469,220.6406,718.5469,224.6406,714.5469" style="stroke:#181818;stroke-width:1;"/><line style="stroke:#181818;stroke-width:1;" x1="69.1826" x2="226.6406" y1="714.5469" y2="714.5469"/><text fill="#000000" font-family="sans-serif" font-size="13" lengthAdjust="spacing" textLength="109.0972" x="76.1826" y="709.6904">Upload fichier EDT</text></g><g class="message" data-participant-1="Front" data-participant-2="API"><polygon fill="#181818" points="464.2949,740.8984,474.2949,744.8984,464.2949,748.8984,468.2949,744.8984" style="stroke:#181818;stroke-width:1;"/><line style="stroke:#181818;stroke-width:1;" x1="232.6406" x2="470.2949" y1="744.8984" y2="744.8984"/><text fill="#000000" font-family="sans-serif" font-size="13" lengthAdjust="spacing" textLength="125.7026" x="239.6406" y="740.042">POST .../convertir-edt</text></g><g class="message" data-participant-1="API" data-participant-2="API"><line style="stroke:#181818;stroke-width:1;" x1="476.2949" x2="518.2949" y1="775.25" y2="775.25"/><line style="stroke:#181818;stroke-width:1;" x1="518.2949" x2="518.2949" y1="775.25" y2="788.25"/><line style="stroke:#181818;stroke-width:1;" x1="477.2949" x2="518.2949" y1="788.25" y2="788.25"/><polygon fill="#181818" points="487.2949,784.25,477.2949,788.25,487.2949,792.25,483.2949,788.25" style="stroke:#181818;stroke-width:1;"/><text fill="#000000" font-family="sans-serif" font-size="13" lengthAdjust="spacing" textLength="142.3271" x="483.2949" y="770.3936">Analyser via PaliGemma</text></g><path d="M637.3271,761.3984 L637.3271,787.3984 L801.3271,787.3984 L801.3271,771.3984 L791.3271,761.3984 L637.3271,761.3984" fill="#FEFFDD" style="stroke:#181818;stroke-width:0.5;"/><path d="M791.3271,761.3984 L791.3271,771.3984 L801.3271,771.3984 L791.3271,761.3984" fill="#FEFFDD" style="stroke:#181818;stroke-width:0.5;"/><text fill="#000000" font-family="sans-serif" font-size="13" lengthAdjust="spacing" textLength="143.0825" x="643.3271" y="779.8936">Reconnaissance visuelle</text><path d="M20,803.25 L80.1709,803.25 L80.1709,811.6016 L70.1709,821.6016 L20,821.6016 L20,803.25" fill="#EEEEEE" style="stroke:#000000;stroke-width:1.5;"/><rect fill="none" height="216.2969" style="stroke:#000000;stroke-width:1.5;" width="712.0386" x="20" y="803.25"/><text fill="#000000" font-family="sans-serif" font-size="13" font-weight="bold" lengthAdjust="spacing" textLength="15.1709" x="35" y="817.7451">alt</text><text fill="#000000" font-family="sans-serif" font-size="11" font-weight="bold" lengthAdjust="spacing" textLength="86.5015" x="95.1709" y="816.6689">[confiance &gt; 0.7]</text><g class="message" data-participant-1="API" data-participant-2="BD"><polygon fill="#181818" points="654.1147,839.9531,664.1147,843.9531,654.1147,847.9531,658.1147,843.9531" style="stroke:#181818;stroke-width:1;"/><line style="stroke:#181818;stroke-width:1;" x1="476.2949" x2="660.1147" y1="843.9531" y2="843.9531"/><text fill="#000000" font-family="sans-serif" font-size="13" lengthAdjust="spacing" textLength="114.8926" x="483.2949" y="839.0967">Ins&#233;rer &#233;v&#233;nements</text></g><g class="message" data-participant-1="BD" data-participant-2="API"><polygon fill="#181818" points="487.2949,870.3047,477.2949,874.3047,487.2949,878.3047,483.2949,874.3047" style="stroke:#181818;stroke-width:1;"/><line style="stroke:#181818;stroke-width:1;stroke-dasharray:2.0,2.0;" x1="481.2949" x2="665.1147" y1="874.3047" y2="874.3047"/><text fill="#000000" font-family="sans-serif" font-size="13" lengthAdjust="spacing" textLength="75.1309" x="493.2949" y="869.4482">Import r&#233;ussi</text></g><g class="message" data-participant-1="API" data-participant-2="Front"><polygon fill="#181818" points="243.6406,900.6563,233.6406,904.6563,243.6406,908.6563,239.6406,904.6563" style="stroke:#181818;stroke-width:1;"/><line style="stroke:#181818;stroke-width:1;stroke-dasharray:2.0,2.0;" x1="237.6406" x2="475.2949" y1="904.6563" y2="904.6563"/><text fill="#000000" font-family="sans-serif" font-size="13" lengthAdjust="spacing" textLength="110.9316" x="249.6406" y="899.7998">Aper&#231;u + validation</text></g><g class="message" data-participant-1="Front" data-participant-2="Auth"><polygon fill="#181818" points="80.1826,931.0078,70.1826,935.0078,80.1826,939.0078,76.1826,935.0078" style="stroke:#181818;stroke-width:1;"/><line style="stroke:#181818;stroke-width:1;stroke-dasharray:2.0,2.0;" x1="74.1826" x2="231.6406" y1="935.0078" y2="935.0078"/><text fill="#000000" font-family="sans-serif" font-size="13" lengthAdjust="spacing" textLength="125.7217" x="86.1826" y="930.1514">&#201;v&#233;nements import&#233;s</text></g><line style="stroke:#000000;stroke-width:1;stroke-dasharray:2.0,2.0;" x1="20" x2="732.0386" y1="944.0078" y2="944.0078"/><text fill="#000000" font-family="sans-serif" font-size="11" font-weight="bold" lengthAdjust="spacing" textLength="38.5161" x="25" y="955.4268">[&#233;chec]</text><g class="message" data-participant-1="API" data-participant-2="Front"><polygon fill="#181818" points="243.6406,977.1953,233.6406,981.1953,243.6406,985.1953,239.6406,981.1953" style="stroke:#181818;stroke-width:1;"/><line style="stroke:#181818;stroke-width:1;stroke-dasharray:2.0,2.0;" x1="237.6406" x2="475.2949" y1="981.1953" y2="981.1953"/><text fill="#000000" font-family="sans-serif" font-size="13" lengthAdjust="spacing" textLength="36.1182" x="249.6406" y="976.3389">Erreur</text></g><g class="message" data-participant-1="Front" data-participant-2="Auth"><polygon fill="#181818" points="80.1826,1007.5469,70.1826,1011.5469,80.1826,1015.5469,76.1826,1011.5469" style="stroke:#181818;stroke-width:1;"/><line style="stroke:#181818;stroke-width:1;stroke-dasharray:2.0,2.0;" x1="74.1826" x2="231.6406" y1="1011.5469" y2="1011.5469"/><text fill="#000000" font-family="sans-serif" font-size="13" lengthAdjust="spacing" textLength="117.0635" x="86.1826" y="1006.6904">Format non reconnu</text></g><rect fill="#EEEEEE" height="3" style="stroke:#EEEEEE;stroke-width:1;" width="860.1846" x="0" y="1054.7227"/><line style="stroke:#000000;stroke-width:1;" x1="0" x2="860.1846" y1="1054.7227" y2="1054.7227"/><line style="stroke:#000000;stroke-width:1;" x1="0" x2="860.1846" y1="1057.7227" y2="1057.7227"/><rect fill="#EEEEEE" height="24.3516" style="stroke:#000000;stroke-width:2;" width="162.0718" x="349.0564" y="1043.5469"/><text fill="#000000" font-family="sans-serif" font-size="13" font-weight="bold" lengthAdjust="spacing" textLength="144.46" x="355.0564" y="1061.042">Affichage dans le Front</text><g class="message" data-participant-1="Front" data-participant-2="API"><polygon fill="#181818" points="464.2949,1096.25,474.2949,1100.25,464.2949,1104.25,468.2949,1100.25" style="stroke:#181818;stroke-width:1;"/><line style="stroke:#181818;stroke-width:1;" x1="232.6406" x2="470.2949" y1="1100.25" y2="1100.25"/><text fill="#000000" font-family="sans-serif" font-size="13" lengthAdjust="spacing" textLength="219.6543" x="239.6406" y="1095.3936">GET /api/emplois-du-temps/{semaine}</text></g><g class="message" data-participant-1="API" data-participant-2="BD"><polygon fill="#181818" points="654.1147,1126.6016,664.1147,1130.6016,654.1147,1134.6016,658.1147,1130.6016" style="stroke:#181818;stroke-width:1;"/><line style="stroke:#181818;stroke-width:1;" x1="476.2949" x2="660.1147" y1="1130.6016" y2="1130.6016"/><text fill="#000000" font-family="sans-serif" font-size="13" lengthAdjust="spacing" textLength="165.8198" x="483.2949" y="1125.7451">SELECT EDT + &#233;v&#233;nements</text></g><g class="message" data-participant-1="BD" data-participant-2="API"><polygon fill="#181818" points="487.2949,1156.9531,477.2949,1160.9531,487.2949,1164.9531,483.2949,1160.9531" style="stroke:#181818;stroke-width:1;"/><line style="stroke:#181818;stroke-width:1;stroke-dasharray:2.0,2.0;" x1="481.2949" x2="665.1147" y1="1160.9531" y2="1160.9531"/><text fill="#000000" font-family="sans-serif" font-size="13" lengthAdjust="spacing" textLength="52.0381" x="493.2949" y="1156.0967">Donn&#233;es</text></g><g class="message" data-participant-1="API" data-participant-2="Front"><polygon fill="#181818" points="243.6406,1187.3047,233.6406,1191.3047,243.6406,1195.3047,239.6406,1191.3047" style="stroke:#181818;stroke-width:1;"/><line style="stroke:#181818;stroke-width:1;stroke-dasharray:2.0,2.0;" x1="237.6406" x2="475.2949" y1="1191.3047" y2="1191.3047"/><text fill="#000000" font-family="sans-serif" font-size="13" lengthAdjust="spacing" textLength="88.8545" x="249.6406" y="1186.4482">JSON structur&#233;</text></g><g class="message" data-participant-1="Front" data-participant-2="Front"><line style="stroke:#181818;stroke-width:1;" x1="232.6406" x2="274.6406" y1="1221.6563" y2="1221.6563"/><line style="stroke:#181818;stroke-width:1;" x1="274.6406" x2="274.6406" y1="1221.6563" y2="1234.6563"/><line style="stroke:#181818;stroke-width:1;" x1="233.6406" x2="274.6406" y1="1234.6563" y2="1234.6563"/><polygon fill="#181818" points="243.6406,1230.6563,233.6406,1234.6563,243.6406,1238.6563,239.6406,1234.6563" style="stroke:#181818;stroke-width:1;"/><text fill="#000000" font-family="sans-serif" font-size="13" lengthAdjust="spacing" textLength="145.9771" x="239.6406" y="1216.7998">Rendu natif (grille hebdo)</text></g><g class="message" data-participant-1="Front" data-participant-2="Auth"><polygon fill="#181818" points="80.1826,1261.0078,70.1826,1265.0078,80.1826,1269.0078,76.1826,1265.0078" style="stroke:#181818;stroke-width:1;"/><line style="stroke:#181818;stroke-width:1;stroke-dasharray:2.0,2.0;" x1="74.1826" x2="231.6406" y1="1265.0078" y2="1265.0078"/><text fill="#000000" font-family="sans-serif" font-size="13" lengthAdjust="spacing" textLength="138.7344" x="86.1826" y="1260.1514">Emploi du temps affich&#233;</text></g><!--SRC=[TLJDRjf04BxxAUQMLWdGMwL8H09i45MRe41x7-mXR6NlkljZjQhw07sBtYhtDVnYdLr3R22v88kP-UQRxvjPAsnEi21ZXP8WqOgA82F8hwWeSoKWSs3vqqGHfbPfM6bLQj7K5eKcG0CJP_THYTgAL9GeBSorafPaveFX-oGwMIr3rMePPMXnYuPWoZynnKfA8kEZqpYAncEOwQR6G2o9Dp0UHxuN3EvQs5kuLwwY7CwPXgXFuoQti7fORs24fHYrUMQGkK6RwBbmsZI-XUNzEddSHDCO1iT2tpDb1atT9dPzPqhkX2u2jMCtNyNish9ID_zi666DmWYlg86chffQKa7I6ZzChbG9fN8QqZr-SzHFY03EPWr06gomccxWAvVTm9wS9iEvBqmy70v7LD6XdyUx61P0AakWnTEU6tnfQYrsWZmTgj3nxx6qhqhp-vdaKPq3TiVras1Jcp-1PUi9S2Rb7TDdjRp5aj11nUDjSufuSO9mow9Ksa9svLhtwRibBSaBfqeBZgt434I1JpHQnVDBmJwt6JkHxlrGZF6wKAcI5V6EwW5bjjCg94qavZyC8rG2OOMvM51Hu9buZyGGaYqoA5FompZAUHe0p5adloyXS0VlXk_vtrCxf67jkKD_Gq9IN_Y38AoNCqPq6Dt4av9qyzV1DLHCCslNq-UTYzxpqB247hUfVKVAlN4rMv- -r23HcZVkHSYvylV0caZGGGlduTZBev-JdNU2tO8CfG5-T5e8zlFKb4NoohcEVXegK4ZwrJ_STV8ncMt2YboV2jWNpxyjl87c_98_h1_kmLZjKkjOsOxA8Vx8z5ru5dVmvaaBzfIlRfkfjvTtV_eA0OQ16VC_]--></g></svg>