<svg xmlns="http://www.w3.org/2000/svg" xmlns:xlink="http://www.w3.org/1999/xlink" contentStyleType="text/css" data-diagram-type="SEQUENCE" height="968px" preserveAspectRatio="none" style="width:834px;height:968px;background:#FFFFFF;" version="1.1" viewBox="0 0 834 968" width="834px" zoomAndPan="magnify"><title>Notification et Rappel Syst&#232;me</title><defs/><g><text fill="#000000" font-family="sans-serif" font-size="14" font-weight="bold" lengthAdjust="spacing" textLength="205.3789" x="310.6995" y="29.5332">Notification et Rappel Syst&#232;me</text><rect fill="none" height="284" style="stroke:#000000;stroke-width:1.5;" width="754.7334" x="10" y="467.7344"/><rect fill="none" height="192.4609" style="stroke:#000000;stroke-width:1.5;" width="734.7334" x="20" y="493.0859"/><g><title>Propri&#233;taire</title><rect fill="#000000" fill-opacity="0.00000" height="765.5703" width="8" x="65.1826" y="121.2188"/><line style="stroke:#181818;stroke-width:0.5;stroke-dasharray:5.0,5.0;" x1="69" x2="69" y1="121.2188" y2="886.7891"/></g><g><title>Planificateur</title><rect fill="#000000" fill-opacity="0.00000" height="765.5703" width="8" x="155.8857" y="121.2188"/><line style="stroke:#181818;stroke-width:0.5;stroke-dasharray:5.0,5.0;" x1="159.3652" x2="159.3652" y1="121.2188" y2="886.7891"/></g><g><title>Frontend</title><rect fill="#000000" fill-opacity="0.00000" height="765.5703" width="8" x="242.4233" y="121.2188"/><line style="stroke:#181818;stroke-width:0.5;stroke-dasharray:5.0,5.0;" x1="246.4063" x2="246.4063" y1="121.2188" y2="886.7891"/></g><g><title>API</title><rect fill="#000000" fill-opacity="0.00000" height="765.5703" width="8" x="361.8159" y="121.2188"/><line style="stroke:#181818;stroke-width:0.5;stroke-dasharray:5.0,5.0;" x1="365.5332" x2="365.5332" y1="121.2188" y2="886.7891"/></g><g><title>File d'attente</title><rect fill="#000000" fill-opacity="0.00000" height="765.5703" width="8" x="511.6685" y="121.2188"/><line style="stroke:#181818;stroke-width:0.5;stroke-dasharray:5.0,5.0;" x1="514.8081" x2="514.8081" y1="121.2188" y2="886.7891"/></g><g><title>BaseDeDonnees</title><rect fill="#000000" fill-opacity="0.00000" height="765.5703" width="8" x="624.4526" y="121.2188"/><line style="stroke:#181818;stroke-width:0.5;stroke-dasharray:5.0,5.0;" x1="627.5288" x2="627.5288" y1="121.2188" y2="886.7891"/></g><g class="participant participant-head" data-participant="Auth"><text fill="#000000" font-family="sans-serif" font-size="14" lengthAdjust="spacing" textLength="72.3652" x="30" y="118.1426">Propri&#233;taire</text><ellipse cx="69.1826" cy="52.1094" fill="#E2E2F0" rx="8" ry="8" style="stroke:#181818;stroke-width:0.5;"/><path d="M69.1826,60.1094 L69.1826,87.1094 M56.1826,68.1094 L82.1826,68.1094 M69.1826,87.1094 L56.1826,102.1094 M69.1826,87.1094 L82.1826,102.1094" fill="none" style="stroke:#181818;stroke-width:0.5;"/></g><g class="participant participant-tail" data-participant="Auth"><text fill="#000000" font-family="sans-serif" font-size="14" lengthAdjust="spacing" textLength="72.3652" x="30" y="900.3223">Propri&#233;taire</text><ellipse cx="69.1826" cy="911.8984" fill="#E2E2F0" rx="8" ry="8" style="stroke:#181818;stroke-width:0.5;"/><path d="M69.1826,919.8984 L69.1826,946.8984 M56.1826,927.8984 L82.1826,927.8984 M69.1826,946.8984 L56.1826,961.8984 M69.1826,946.8984 L82.1826,961.8984" fill="none" style="stroke:#181818;stroke-width:0.5;"/></g><g class="participant participant-head" data-participant="Cron"><text fill="#000000" font-family="sans-serif" font-size="14" lengthAdjust="spacing" textLength="77.041" x="118.3652" y="118.1426">Planificateur</text><ellipse cx="159.8857" cy="52.1094" fill="#E2E2F0" rx="8" ry="8" style="stroke:#181818;stroke-width:0.5;"/><path d="M159.8857,60.1094 L159.8857,87.1094 M146.8857,68.1094 L172.8857,68.1094 M159.8857,87.1094 L146.8857,102.1094 M159.8857,87.1094 L172.8857,102.1094" fill="none" style="stroke:#181818;stroke-width:0.5;"/></g><g class="participant participant-tail" data-participant="Cron"><text fill="#000000" font-family="sans-serif" font-size="14" lengthAdjust="spacing" textLength="77.041" x="118.3652" y="900.3223">Planificateur</text><ellipse cx="159.8857" cy="911.8984" fill="#E2E2F0" rx="8" ry="8" style="stroke:#181818;stroke-width:0.5;"/><path d="M159.8857,919.8984 L159.8857,946.8984 M146.8857,927.8984 L172.8857,927.8984 M159.8857,946.8984 L146.8857,961.8984 M159.8857,946.8984 L172.8857,961.8984" fill="none" style="stroke:#181818;stroke-width:0.5;"/></g><g class="participant participant-head" data-participant="Front"><rect fill="#E2E2F0" height="31.6094" rx="2.5" ry="2.5" style="stroke:#181818;stroke-width:0.5;" width="70.0342" x="211.4063" y="88.6094"/><text fill="#000000" font-family="sans-serif" font-size="14" lengthAdjust="spacing" textLength="56.0342" x="218.4063" y="110.1426">Frontend</text></g><g class="participant participant-tail" data-participant="Front"><rect fill="#E2E2F0" height="31.6094" rx="2.5" ry="2.5" style="stroke:#181818;stroke-width:0.5;" width="70.0342" x="211.4063" y="885.7891"/><text fill="#000000" font-family="sans-serif" font-size="14" lengthAdjust="spacing" textLength="56.0342" x="218.4063" y="907.3223">Frontend</text></g><g class="participant participant-head" data-participant="API"><rect fill="#E2E2F0" height="31.6094" rx="2.5" ry="2.5" style="stroke:#181818;stroke-width:0.5;" width="36.5654" x="347.5332" y="88.6094"/><text fill="#000000" font-family="sans-serif" font-size="14" lengthAdjust="spacing" textLength="22.5654" x="354.5332" y="110.1426">API</text></g><g class="participant participant-tail" data-participant="API"><rect fill="#E2E2F0" height="31.6094" rx="2.5" ry="2.5" style="stroke:#181818;stroke-width:0.5;" width="36.5654" x="347.5332" y="885.7891"/><text fill="#000000" font-family="sans-serif" font-size="14" lengthAdjust="spacing" textLength="22.5654" x="354.5332" y="907.3223">API</text></g><g class="participant participant-head" data-participant="Queue"><rect fill="#E2E2F0" height="31.6094" rx="2.5" ry="2.5" style="stroke:#181818;stroke-width:0.5;" width="93.7207" x="468.8081" y="88.6094"/><text fill="#000000" font-family="sans-serif" font-size="14" lengthAdjust="spacing" textLength="79.7207" x="475.8081" y="110.1426">File d'attente</text></g><g class="participant participant-tail" data-participant="Queue"><rect fill="#E2E2F0" height="31.6094" rx="2.5" ry="2.5" style="stroke:#181818;stroke-width:0.5;" width="93.7207" x="468.8081" y="885.7891"/><text fill="#000000" font-family="sans-serif" font-size="14" lengthAdjust="spacing" textLength="79.7207" x="475.8081" y="907.3223">File d'attente</text></g><g class="participant participant-head" data-participant="BD"><text fill="#000000" font-family="sans-serif" font-size="14" lengthAdjust="spacing" textLength="105.8477" x="572.5288" y="118.1426">BaseDeDonnees</text><path d="M610.4526,67.6094 C610.4526,57.6094 628.4526,57.6094 628.4526,57.6094 C628.4526,57.6094 646.4526,57.6094 646.4526,67.6094 L646.4526,93.6094 C646.4526,103.6094 628.4526,103.6094 628.4526,103.6094 C628.4526,103.6094 610.4526,103.6094 610.4526,93.6094 L610.4526,67.6094" fill="#E2E2F0" style="stroke:#181818;stroke-width:1.5;"/><path d="M610.4526,67.6094 C610.4526,77.6094 628.4526,77.6094 628.4526,77.6094 C628.4526,77.6094 646.4526,77.6094 646.4526,67.6094" fill="none" style="stroke:#181818;stroke-width:1.5;"/></g><g class="participant participant-tail" data-participant="BD"><text fill="#000000" font-family="sans-serif" font-size="14" lengthAdjust="spacing" textLength="105.8477" x="572.5288" y="900.3223">BaseDeDonnees</text><path d="M610.4526,913.3984 C610.4526,903.3984 628.4526,903.3984 628.4526,903.3984 C628.4526,903.3984 646.4526,903.3984 646.4526,913.3984 L646.4526,939.3984 C646.4526,949.3984 628.4526,949.3984 628.4526,949.3984 C628.4526,949.3984 610.4526,949.3984 610.4526,939.3984 L610.4526,913.3984" fill="#E2E2F0" style="stroke:#181818;stroke-width:1.5;"/><path d="M610.4526,913.3984 C610.4526,923.3984 628.4526,923.3984 628.4526,923.3984 C628.4526,923.3984 646.4526,923.3984 646.4526,913.3984" fill="none" style="stroke:#181818;stroke-width:1.5;"/></g><rect fill="#EEEEEE" height="3" style="stroke:#EEEEEE;stroke-width:1;" width="827.7778" x="0" y="152.3945"/><line style="stroke:#000000;stroke-width:1;" x1="0" x2="827.7778" y1="152.3945" y2="152.3945"/><line style="stroke:#000000;stroke-width:1;" x1="0" x2="827.7778" y1="155.3945" y2="155.3945"/><rect fill="#EEEEEE" height="24.3516" style="stroke:#000000;stroke-width:2;" width="112.9663" x="357.4058" y="141.2188"/><text fill="#000000" font-family="sans-serif" font-size="13" font-weight="bold" lengthAdjust="spacing" textLength="95.3545" x="363.4058" y="158.7139">Cr&#233;ation rappel</text><g class="message" data-participant-1="Auth" data-participant-2="API"><polygon fill="#181818" points="353.8159,193.9219,363.8159,197.9219,353.8159,201.9219,357.8159,197.9219" style="stroke:#181818;stroke-width:1;"/><line style="stroke:#181818;stroke-width:1;" x1="69.1826" x2="359.8159" y1="197.9219" y2="197.9219"/><text fill="#000000" font-family="sans-serif" font-size="13" lengthAdjust="spacing" textLength="106.2153" x="76.1826" y="193.0654">POST /api/rappels</text></g><g class="message" data-participant-1="API" data-participant-2="BD"><polygon fill="#181818" points="616.4526,227.2734,626.4526,231.2734,616.4526,235.2734,620.4526,231.2734" style="stroke:#181818;stroke-width:1;"/><line style="stroke:#181818;stroke-width:1;" x1="365.8159" x2="622.4526" y1="231.2734" y2="231.2734"/><text fill="#000000" font-family="sans-serif" font-size="13" lengthAdjust="spacing" textLength="47.6709" x="372.8159" y="226.417">INSERT</text></g><path d="M633,210.9219 L633,236.9219 L740,236.9219 L740,220.9219 L730,210.9219 L633,210.9219" fill="#FEFFDD" style="stroke:#181818;stroke-width:0.5;"/><path d="M730,210.9219 L730,220.9219 L740,220.9219 L730,210.9219" fill="#FEFFDD" style="stroke:#181818;stroke-width:0.5;"/><text fill="#000000" font-family="sans-serif" font-size="13" lengthAdjust="spacing" textLength="86.0107" x="639" y="229.417">Validation date</text><g class="message" data-participant-1="BD" data-participant-2="API"><polygon fill="#181818" points="376.8159,260.625,366.8159,264.625,376.8159,268.625,372.8159,264.625" style="stroke:#181818;stroke-width:1;"/><line style="stroke:#181818;stroke-width:1;stroke-dasharray:2.0,2.0;" x1="370.8159" x2="627.4526" y1="264.625" y2="264.625"/><text fill="#000000" font-family="sans-serif" font-size="13" lengthAdjust="spacing" textLength="70.0972" x="382.8159" y="259.7686">Rappel cr&#233;&#233;</text></g><g class="message" data-participant-1="API" data-participant-2="Auth"><polygon fill="#181818" points="80.1826,290.9766,70.1826,294.9766,80.1826,298.9766,76.1826,294.9766" style="stroke:#181818;stroke-width:1;"/><line style="stroke:#181818;stroke-width:1;stroke-dasharray:2.0,2.0;" x1="74.1826" x2="364.8159" y1="294.9766" y2="294.9766"/><text fill="#000000" font-family="sans-serif" font-size="13" lengthAdjust="spacing" textLength="73.6963" x="86.1826" y="290.1201">Confirmation</text></g><rect fill="#EEEEEE" height="3" style="stroke:#EEEEEE;stroke-width:1;" width="827.7778" x="0" y="324.1523"/><line style="stroke:#000000;stroke-width:1;" x1="0" x2="827.7778" y1="324.1523" y2="324.1523"/><line style="stroke:#000000;stroke-width:1;" x1="0" x2="827.7778" y1="327.1523" y2="327.1523"/><rect fill="#EEEEEE" height="24.3516" style="stroke:#000000;stroke-width:2;" width="158.4663" x="334.6558" y="312.9766"/><text fill="#000000" font-family="sans-serif" font-size="13" font-weight="bold" lengthAdjust="spacing" textLength="140.8545" x="340.6558" y="330.4717">V&#233;rification p&#233;riodique</text><g class="message" data-participant-1="Cron" data-participant-2="API"><polygon fill="#181818" points="353.8159,365.6797,363.8159,369.6797,353.8159,373.6797,357.8159,369.6797" style="stroke:#181818;stroke-width:1;"/><line style="stroke:#181818;stroke-width:1;" x1="159.8857" x2="359.8159" y1="369.6797" y2="369.6797"/><text fill="#000000" font-family="sans-serif" font-size="13" lengthAdjust="spacing" textLength="166.9053" x="166.8857" y="364.8232">executer (toutes les minutes)</text></g><g class="message" data-participant-1="API" data-participant-2="BD"><polygon fill="#181818" points="616.4526,407.207,626.4526,411.207,616.4526,415.207,620.4526,411.207" style="stroke:#181818;stroke-width:1;"/><line style="stroke:#181818;stroke-width:1;" x1="365.8159" x2="622.4526" y1="411.207" y2="411.207"/><text fill="#000000" font-family="sans-serif" font-size="13" lengthAdjust="spacing" textLength="121.3926" x="372.8159" y="406.3506">SELECT rappels dus</text></g><path d="M633,382.6797 L633,424.6797 L817,424.6797 L817,392.6797 L807,382.6797 L633,382.6797" fill="#FEFFDD" style="stroke:#181818;stroke-width:0.5;"/><path d="M807,382.6797 L807,392.6797 L817,392.6797 L807,382.6797" fill="#FEFFDD" style="stroke:#181818;stroke-width:0.5;"/><text fill="#000000" font-family="sans-serif" font-size="13" lengthAdjust="spacing" textLength="101.5435" x="639" y="401.1748">est_envoye=false</text><text fill="#000000" font-family="sans-serif" font-size="13" lengthAdjust="spacing" textLength="163.3252" x="639" y="417.5264">et rappel_le &lt;= maintenant()</text><g class="message" data-participant-1="BD" data-participant-2="API"><polygon fill="#181818" points="376.8159,448.7344,366.8159,452.7344,376.8159,456.7344,372.8159,452.7344" style="stroke:#181818;stroke-width:1;"/><line style="stroke:#181818;stroke-width:1;stroke-dasharray:2.0,2.0;" x1="370.8159" x2="627.4526" y1="452.7344" y2="452.7344"/><text fill="#000000" font-family="sans-serif" font-size="13" lengthAdjust="spacing" textLength="73.709" x="382.8159" y="447.8779">Liste rappels</text></g><path d="M10,467.7344 L70.1709,467.7344 L70.1709,476.0859 L60.1709,486.0859 L10,486.0859 L10,467.7344" fill="#EEEEEE" style="stroke:#000000;stroke-width:1.5;"/><rect fill="none" height="284" style="stroke:#000000;stroke-width:1.5;" width="754.7334" x="10" y="467.7344"/><text fill="#000000" font-family="sans-serif" font-size="13" font-weight="bold" lengthAdjust="spacing" textLength="15.1709" x="25" y="482.2295">alt</text><text fill="#000000" font-family="sans-serif" font-size="11" font-weight="bold" lengthAdjust="spacing" textLength="101.4653" x="85.1709" y="481.1533">[rappels en attente]</text><path d="M20,493.0859 L92.4346,493.0859 L92.4346,501.4375 L82.4346,511.4375 L20,511.4375 L20,493.0859" fill="#EEEEEE" style="stroke:#000000;stroke-width:1.5;"/><rect fill="none" height="192.4609" style="stroke:#000000;stroke-width:1.5;" width="734.7334" x="20" y="493.0859"/><text fill="#000000" font-family="sans-serif" font-size="13" font-weight="bold" lengthAdjust="spacing" textLength="27.4346" x="35" y="507.5811">loop</text><text fill="#000000" font-family="sans-serif" font-size="11" font-weight="bold" lengthAdjust="spacing" textLength="109.3984" x="107.4346" y="506.5049">[pour chaque rappel]</text><g class="message" data-participant-1="API" data-participant-2="Queue"><polygon fill="#181818" points="503.6685,529.7891,513.6685,533.7891,503.6685,537.7891,507.6685,533.7891" style="stroke:#181818;stroke-width:1;"/><line style="stroke:#181818;stroke-width:1;" x1="365.8159" x2="509.6685" y1="533.7891" y2="533.7891"/><text fill="#000000" font-family="sans-serif" font-size="13" lengthAdjust="spacing" textLength="76.5845" x="372.8159" y="528.9326">Distribuer job</text></g><g class="message" data-participant-1="Queue" data-participant-2="API"><polygon fill="#181818" points="376.8159,560.1406,366.8159,564.1406,376.8159,568.1406,372.8159,564.1406" style="stroke:#181818;stroke-width:1;"/><line style="stroke:#181818;stroke-width:1;" x1="370.8159" x2="514.6685" y1="564.1406" y2="564.1406"/><text fill="#000000" font-family="sans-serif" font-size="13" lengthAdjust="spacing" textLength="37.5591" x="382.8159" y="559.2842">Traiter</text></g><g class="message" data-participant-1="API" data-participant-2="BD"><polygon fill="#181818" points="616.4526,593.4922,626.4526,597.4922,616.4526,601.4922,620.4526,597.4922" style="stroke:#181818;stroke-width:1;"/><line style="stroke:#181818;stroke-width:1;" x1="365.8159" x2="622.4526" y1="597.4922" y2="597.4922"/><text fill="#000000" font-family="sans-serif" font-size="13" lengthAdjust="spacing" textLength="93.939" x="372.8159" y="592.6357">Marquer envoy&#233;</text></g><path d="M633,577.1406 L633,603.1406 L739,603.1406 L739,587.1406 L729,577.1406 L633,577.1406" fill="#FEFFDD" style="stroke:#181818;stroke-width:0.5;"/><path d="M729,577.1406 L729,587.1406 L739,587.1406 L729,577.1406" fill="#FEFFDD" style="stroke:#181818;stroke-width:0.5;"/><text fill="#000000" font-family="sans-serif" font-size="13" lengthAdjust="spacing" textLength="85.2808" x="639" y="595.6357">&#201;vite doublons</text><g class="message" data-participant-1="API" data-participant-2="Front"><polygon fill="#181818" points="257.4233,643.1953,247.4233,647.1953,257.4233,651.1953,253.4233,647.1953" style="stroke:#181818;stroke-width:1;"/><line style="stroke:#181818;stroke-width:1;" x1="251.4233" x2="364.8159" y1="647.1953" y2="647.1953"/><text fill="#000000" font-family="sans-serif" font-size="13" lengthAdjust="spacing" textLength="95.3926" x="263.4233" y="625.9873">Push notification</text><text fill="#000000" font-family="sans-serif" font-size="13" lengthAdjust="spacing" textLength="75.1309" x="263.4233" y="642.3389">(WebSocket)</text></g><g class="message" data-participant-1="Front" data-participant-2="Auth"><polygon fill="#181818" points="80.1826,673.5469,70.1826,677.5469,80.1826,681.5469,76.1826,677.5469" style="stroke:#181818;stroke-width:1;"/><line style="stroke:#181818;stroke-width:1;stroke-dasharray:2.0,2.0;" x1="74.1826" x2="245.4233" y1="677.5469" y2="677.5469"/><text fill="#000000" font-family="sans-serif" font-size="13" lengthAdjust="spacing" textLength="109.8335" x="86.1826" y="672.6904">Afficher notification</text></g><line style="stroke:#000000;stroke-width:1;stroke-dasharray:2.0,2.0;" x1="10" x2="764.7334" y1="693.5469" y2="693.5469"/><text fill="#000000" font-family="sans-serif" font-size="11" font-weight="bold" lengthAdjust="spacing" textLength="75.7861" x="15" y="704.9658">[aucun rappel]</text><g class="message" data-participant-1="API" data-participant-2="API"><line style="stroke:#181818;stroke-width:1;" x1="365.8159" x2="407.8159" y1="730.7344" y2="730.7344"/><line style="stroke:#181818;stroke-width:1;" x1="407.8159" x2="407.8159" y1="730.7344" y2="743.7344"/><line style="stroke:#181818;stroke-width:1;" x1="366.8159" x2="407.8159" y1="743.7344" y2="743.7344"/><polygon fill="#181818" points="376.8159,739.7344,366.8159,743.7344,376.8159,747.7344,372.8159,743.7344" style="stroke:#181818;stroke-width:1;"/><text fill="#000000" font-family="sans-serif" font-size="13" lengthAdjust="spacing" textLength="135.8525" x="372.8159" y="725.8779">Attendre prochain cycle</text></g><rect fill="#EEEEEE" height="3" style="stroke:#EEEEEE;stroke-width:1;" width="827.7778" x="0" y="779.9102"/><line style="stroke:#000000;stroke-width:1;" x1="0" x2="827.7778" y1="779.9102" y2="779.9102"/><line style="stroke:#000000;stroke-width:1;" x1="0" x2="827.7778" y1="782.9102" y2="782.9102"/><rect fill="#EEEEEE" height="24.3516" style="stroke:#000000;stroke-width:2;" width="86.2554" x="370.7612" y="768.7344"/><text fill="#000000" font-family="sans-serif" font-size="13" font-weight="bold" lengthAdjust="spacing" textLength="68.6436" x="376.7612" y="786.2295">Temps r&#233;el</text><g class="message" data-participant-1="Front" data-participant-2="Auth"><polygon fill="#181818" points="80.1826,821.4375,70.1826,825.4375,80.1826,829.4375,76.1826,825.4375" style="stroke:#181818;stroke-width:1;"/><line style="stroke:#181818;stroke-width:1;stroke-dasharray:2.0,2.0;" x1="74.1826" x2="245.4233" y1="825.4375" y2="825.4375"/><text fill="#000000" font-family="sans-serif" font-size="13" lengthAdjust="spacing" textLength="73.3662" x="86.1826" y="820.5811">Badge + son</text></g><g class="message" data-participant-1="Auth" data-participant-2="Auth"><line style="stroke:#181818;stroke-width:1;" x1="69.1826" x2="111.1826" y1="855.7891" y2="855.7891"/><line style="stroke:#181818;stroke-width:1;" x1="111.1826" x2="111.1826" y1="855.7891" y2="868.7891"/><line style="stroke:#181818;stroke-width:1;" x1="70.1826" x2="111.1826" y1="868.7891" y2="868.7891"/><polygon fill="#181818" points="80.1826,864.7891,70.1826,868.7891,80.1826,872.7891,76.1826,868.7891" style="stroke:#181818;stroke-width:1;"/><text fill="#000000" font-family="sans-serif" font-size="13" lengthAdjust="spacing" textLength="55.6372" x="76.1826" y="850.9326">Consulter</text></g><!--SRC=[NLDBRjim4Dtp58DiQgC8iZUg0hRb00RIr8sDT1CWeAHnp9Oc6Nw2-WYzINqENQmpbEp8MUZxvitCUpECAcg4UnlLLjKoAci08pn8vr33-X1Y-s-FGiWwMWyhRvrNxJ5AvH5aW6cAknEcfUboOFACpRqrmaaVLQsSD15kwKT4qp2Oto_GwMgPCwwM5x-lRXNrrtoIaQWHhpZcHyA4ef5HLZ8WpEXMOccDGGoCpqeXYe8QQ8-T8j_9AGh13SFrLoupWTNtzGPkf5CtNK0Gt0IXit82o_lruc4ZZ8q8NhtiuWGUfLPDbv4UA6ObN9zozOxLLBCzTdaOed8Jc5kpLNwVcRcpn_Ret_rs_6KRzPgGMsJVpYtY7wnJH0-ZQEaPGDErLuRVnyDsrukxnNpJAmtGf73HEeRuZERD7h3OIXtmoT2Kk-1dylTB0NkfU3ha-MXyeUnE1SxJEoIaZkSgQA2VYm3GrZfmbePVxoHhwQ880UWRpOERG4aPlQeIoVfbgnoGaRFgZPUAH0-fhF6RzAzCoaB8POQ78jk_RqI3ngPAMnE6zBnlDF4KTamvc_zaHZ-nMjlwDyPn9kJ8mV2cMuhTKTKXZI9faGLvGCSWrScyY-qBPXrJDgUXe-Ay9LEKWVfGQnJCvJtOuDu5e9NfblDZwPbiNX0-Gw22vyKzRLH8cYtw3m00]--></g></svg>