<svg xmlns="http://www.w3.org/2000/svg" xmlns:xlink="http://www.w3.org/1999/xlink" contentStyleType="text/css" data-diagram-type="SEQUENCE" height="710px" preserveAspectRatio="none" style="width:670px;height:710px;background:#FFFFFF;" version="1.1" viewBox="0 0 670 710" width="670px" zoomAndPan="magnify"><title>Formulaire de contact</title><defs/><g><text fill="#000000" font-family="sans-serif" font-size="14" font-weight="bold" lengthAdjust="spacing" textLength="146.2549" x="258.3289" y="29.5332">Formulaire de contact</text><rect fill="none" height="269" style="stroke:#000000;stroke-width:1.5;" width="643.9126" x="10" y="342.6797"/><g><title>Visiteur</title><rect fill="#000000" fill-opacity="0.00000" height="507.4609" width="8" x="42.3413" y="121.2188"/><line style="stroke:#181818;stroke-width:0.5;stroke-dasharray:5.0,5.0;" x1="46" x2="46" y1="121.2188" y2="628.6797"/></g><g><title>Frontend</title><rect fill="#000000" fill-opacity="0.00000" height="507.4609" width="8" x="264.2866" y="121.2188"/><line style="stroke:#181818;stroke-width:0.5;stroke-dasharray:5.0,5.0;" x1="268.2695" x2="268.2695" y1="121.2188" y2="628.6797"/></g><g><title>API</title><rect fill="#000000" fill-opacity="0.00000" height="507.4609" width="8" x="393.7783" y="121.2188"/><line style="stroke:#181818;stroke-width:0.5;stroke-dasharray:5.0,5.0;" x1="397.4956" x2="397.4956" y1="121.2188" y2="628.6797"/></g><g><title>BaseDeDonnees</title><rect fill="#000000" fill-opacity="0.00000" height="507.4609" width="8" x="531.9473" y="121.2188"/><line style="stroke:#181818;stroke-width:0.5;stroke-dasharray:5.0,5.0;" x1="535.0234" x2="535.0234" y1="121.2188" y2="628.6797"/></g><g class="participant participant-head" data-participant="User"><text fill="#000000" font-family="sans-serif" font-size="14" lengthAdjust="spacing" textLength="46.6826" x="20" y="118.1426">Visiteur</text><ellipse cx="46.3413" cy="52.1094" fill="#E2E2F0" rx="8" ry="8" style="stroke:#181818;stroke-width:0.5;"/><path d="M46.3413,60.1094 L46.3413,87.1094 M33.3413,68.1094 L59.3413,68.1094 M46.3413,87.1094 L33.3413,102.1094 M46.3413,87.1094 L59.3413,102.1094" fill="none" style="stroke:#181818;stroke-width:0.5;"/></g><g class="participant participant-tail" data-participant="User"><text fill="#000000" font-family="sans-serif" font-size="14" lengthAdjust="spacing" textLength="46.6826" x="20" y="642.2129">Visiteur</text><ellipse cx="46.3413" cy="653.7891" fill="#E2E2F0" rx="8" ry="8" style="stroke:#181818;stroke-width:0.5;"/><path d="M46.3413,661.7891 L46.3413,688.7891 M33.3413,669.7891 L59.3413,669.7891 M46.3413,688.7891 L33.3413,703.7891 M46.3413,688.7891 L59.3413,703.7891" fill="none" style="stroke:#181818;stroke-width:0.5;"/></g><g class="participant participant-head" data-participant="Front"><rect fill="#E2E2F0" height="31.6094" rx="2.5" ry="2.5" style="stroke:#181818;stroke-width:0.5;" width="70.0342" x="233.2695" y="88.6094"/><text fill="#000000" font-family="sans-serif" font-size="14" lengthAdjust="spacing" textLength="56.0342" x="240.2695" y="110.1426">Frontend</text></g><g class="participant participant-tail" data-participant="Front"><rect fill="#E2E2F0" height="31.6094" rx="2.5" ry="2.5" style="stroke:#181818;stroke-width:0.5;" width="70.0342" x="233.2695" y="627.6797"/><text fill="#000000" font-family="sans-serif" font-size="14" lengthAdjust="spacing" textLength="56.0342" x="240.2695" y="649.2129">Frontend</text></g><g class="participant participant-head" data-participant="API"><rect fill="#E2E2F0" height="31.6094" rx="2.5" ry="2.5" style="stroke:#181818;stroke-width:0.5;" width="36.5654" x="379.4956" y="88.6094"/><text fill="#000000" font-family="sans-serif" font-size="14" lengthAdjust="spacing" textLength="22.5654" x="386.4956" y="110.1426">API</text></g><g class="participant participant-tail" data-participant="API"><rect fill="#E2E2F0" height="31.6094" rx="2.5" ry="2.5" style="stroke:#181818;stroke-width:0.5;" width="36.5654" x="379.4956" y="627.6797"/><text fill="#000000" font-family="sans-serif" font-size="14" lengthAdjust="spacing" textLength="22.5654" x="386.4956" y="649.2129">API</text></g><g class="participant participant-head" data-participant="BD"><text fill="#000000" font-family="sans-serif" font-size="14" lengthAdjust="spacing" textLength="105.8477" x="480.0234" y="118.1426">BaseDeDonnees</text><path d="M517.9473,67.6094 C517.9473,57.6094 535.9473,57.6094 535.9473,57.6094 C535.9473,57.6094 553.9473,57.6094 553.9473,67.6094 L553.9473,93.6094 C553.9473,103.6094 535.9473,103.6094 535.9473,103.6094 C535.9473,103.6094 517.9473,103.6094 517.9473,93.6094 L517.9473,67.6094" fill="#E2E2F0" style="stroke:#181818;stroke-width:1.5;"/><path d="M517.9473,67.6094 C517.9473,77.6094 535.9473,77.6094 535.9473,77.6094 C535.9473,77.6094 553.9473,77.6094 553.9473,67.6094" fill="none" style="stroke:#181818;stroke-width:1.5;"/></g><g class="participant participant-tail" data-participant="BD"><text fill="#000000" font-family="sans-serif" font-size="14" lengthAdjust="spacing" textLength="105.8477" x="480.0234" y="642.2129">BaseDeDonnees</text><path d="M517.9473,655.2891 C517.9473,645.2891 535.9473,645.2891 535.9473,645.2891 C535.9473,645.2891 553.9473,645.2891 553.9473,655.2891 L553.9473,681.2891 C553.9473,691.2891 535.9473,691.2891 535.9473,691.2891 C535.9473,691.2891 517.9473,691.2891 517.9473,681.2891 L517.9473,655.2891" fill="#E2E2F0" style="stroke:#181818;stroke-width:1.5;"/><path d="M517.9473,655.2891 C517.9473,665.2891 535.9473,665.2891 535.9473,665.2891 C535.9473,665.2891 553.9473,665.2891 553.9473,655.2891" fill="none" style="stroke:#181818;stroke-width:1.5;"/></g><rect fill="#EEEEEE" height="3" style="stroke:#EEEEEE;stroke-width:1;" width="663.9126" x="0" y="152.3945"/><line style="stroke:#000000;stroke-width:1;" x1="0" x2="663.9126" y1="152.3945" y2="152.3945"/><line style="stroke:#000000;stroke-width:1;" x1="0" x2="663.9126" y1="155.3945" y2="155.3945"/><rect fill="#EEEEEE" height="24.3516" style="stroke:#000000;stroke-width:2;" width="55.1963" x="304.3582" y="141.2188"/><text fill="#000000" font-family="sans-serif" font-size="13" font-weight="bold" lengthAdjust="spacing" textLength="37.5845" x="310.3582" y="158.7139">Saisie</text><g class="message" data-participant-1="User" data-participant-2="Front"><polygon fill="#181818" points="256.2866,210.2734,266.2866,214.2734,256.2866,218.2734,260.2866,214.2734" style="stroke:#181818;stroke-width:1;"/><line style="stroke:#181818;stroke-width:1;" x1="46.3413" x2="262.2866" y1="214.2734" y2="214.2734"/><text fill="#000000" font-family="sans-serif" font-size="13" lengthAdjust="spacing" textLength="58.5317" x="53.3413" y="193.0654">Acc&#233;der &#224;</text><text fill="#000000" font-family="sans-serif" font-size="13" lengthAdjust="spacing" textLength="84.373" x="53.3413" y="209.417">"Me contacter"</text></g><g class="message" data-participant-1="Front" data-participant-2="User"><polygon fill="#181818" points="57.3413,240.625,47.3413,244.625,57.3413,248.625,53.3413,244.625" style="stroke:#181818;stroke-width:1;"/><line style="stroke:#181818;stroke-width:1;stroke-dasharray:2.0,2.0;" x1="51.3413" x2="267.2866" y1="244.625" y2="244.625"/><text fill="#000000" font-family="sans-serif" font-size="13" lengthAdjust="spacing" textLength="197.9453" x="63.3413" y="239.7686">Formulaire (nom, email, message)</text></g><g class="message" data-participant-1="User" data-participant-2="Front"><polygon fill="#181818" points="256.2866,270.9766,266.2866,274.9766,256.2866,278.9766,260.2866,274.9766" style="stroke:#181818;stroke-width:1;"/><line style="stroke:#181818;stroke-width:1;" x1="46.3413" x2="262.2866" y1="274.9766" y2="274.9766"/><text fill="#000000" font-family="sans-serif" font-size="13" lengthAdjust="spacing" textLength="120.6499" x="53.3413" y="270.1201">Remplir et soumettre</text></g><g class="message" data-participant-1="Front" data-participant-2="API"><polygon fill="#181818" points="385.7783,312.5039,395.7783,316.5039,385.7783,320.5039,389.7783,316.5039" style="stroke:#181818;stroke-width:1;"/><line style="stroke:#181818;stroke-width:1;" x1="268.2866" x2="391.7783" y1="316.5039" y2="316.5039"/><text fill="#000000" font-family="sans-serif" font-size="13" lengthAdjust="spacing" textLength="105.4917" x="275.2866" y="311.6475">POST /api/contact</text></g><path d="M402,287.9766 L402,329.9766 L555,329.9766 L555,297.9766 L545,287.9766 L402,287.9766" fill="#FEFFDD" style="stroke:#181818;stroke-width:0.5;"/><path d="M545,287.9766 L545,297.9766 L555,297.9766 L545,287.9766" fill="#FEFFDD" style="stroke:#181818;stroke-width:0.5;"/><text fill="#000000" font-family="sans-serif" font-size="13" lengthAdjust="spacing" textLength="132.2407" x="408" y="306.4717">Validation cot&#233; serveur</text><text fill="#000000" font-family="sans-serif" font-size="13" lengthAdjust="spacing" textLength="117.0381" x="408" y="322.8232">(sanitize, anti-spam)</text><path d="M10,342.6797 L70.1709,342.6797 L70.1709,351.0313 L60.1709,361.0313 L10,361.0313 L10,342.6797" fill="#EEEEEE" style="stroke:#000000;stroke-width:1.5;"/><rect fill="none" height="269" style="stroke:#000000;stroke-width:1.5;" width="643.9126" x="10" y="342.6797"/><text fill="#000000" font-family="sans-serif" font-size="13" font-weight="bold" lengthAdjust="spacing" textLength="15.1709" x="25" y="357.1748">alt</text><text fill="#000000" font-family="sans-serif" font-size="11" font-weight="bold" lengthAdjust="spacing" textLength="78.2246" x="85.1709" y="356.0986">[validation OK]</text><g class="message" data-participant-1="API" data-participant-2="BD"><polygon fill="#181818" points="523.9473,382.3828,533.9473,386.3828,523.9473,390.3828,527.9473,386.3828" style="stroke:#181818;stroke-width:1;"/><line style="stroke:#181818;stroke-width:1;" x1="397.7783" x2="529.9473" y1="386.3828" y2="386.3828"/><text fill="#000000" font-family="sans-serif" font-size="13" lengthAdjust="spacing" textLength="96.0845" x="404.7783" y="381.5264">INSERT Contact</text></g><path d="M540,366.0313 L540,392.0313 L637,392.0313 L637,376.0313 L627,366.0313 L540,366.0313" fill="#FEFFDD" style="stroke:#181818;stroke-width:0.5;"/><path d="M627,366.0313 L627,376.0313 L637,376.0313 L627,366.0313" fill="#FEFFDD" style="stroke:#181818;stroke-width:0.5;"/><text fill="#000000" font-family="sans-serif" font-size="13" lengthAdjust="spacing" textLength="76.9653" x="546" y="384.5264">est_lu = false</text><g class="message" data-participant-1="BD" data-participant-2="API"><polygon fill="#181818" points="408.7783,415.7344,398.7783,419.7344,408.7783,423.7344,404.7783,419.7344" style="stroke:#181818;stroke-width:1;"/><line style="stroke:#181818;stroke-width:1;stroke-dasharray:2.0,2.0;" x1="402.7783" x2="534.9473" y1="419.7344" y2="419.7344"/><text fill="#000000" font-family="sans-serif" font-size="13" lengthAdjust="spacing" textLength="114.1689" x="414.7783" y="414.8779">Message enregistr&#233;</text></g><g class="message" data-participant-1="API" data-participant-2="BD"><polygon fill="#181818" points="523.9473,446.0859,533.9473,450.0859,523.9473,454.0859,527.9473,450.0859" style="stroke:#181818;stroke-width:1;"/><line style="stroke:#181818;stroke-width:1;" x1="397.7783" x2="529.9473" y1="450.0859" y2="450.0859"/><text fill="#000000" font-family="sans-serif" font-size="13" lengthAdjust="spacing" textLength="110.5444" x="404.7783" y="445.2295">Notifier propri&#233;taire</text></g><g class="message" data-participant-1="API" data-participant-2="Front"><polygon fill="#181818" points="279.2866,476.4375,269.2866,480.4375,279.2866,484.4375,275.2866,480.4375" style="stroke:#181818;stroke-width:1;"/><line style="stroke:#181818;stroke-width:1;stroke-dasharray:2.0,2.0;" x1="273.2866" x2="396.7783" y1="480.4375" y2="480.4375"/><text fill="#000000" font-family="sans-serif" font-size="13" lengthAdjust="spacing" textLength="98.2808" x="285.2866" y="475.5811">Message envoy&#233;</text></g><g class="message" data-participant-1="Front" data-participant-2="User"><polygon fill="#181818" points="57.3413,523.1406,47.3413,527.1406,57.3413,531.1406,53.3413,527.1406" style="stroke:#181818;stroke-width:1;"/><line style="stroke:#181818;stroke-width:1;stroke-dasharray:2.0,2.0;" x1="51.3413" x2="267.2866" y1="527.1406" y2="527.1406"/><text fill="#000000" font-family="sans-serif" font-size="13" lengthAdjust="spacing" textLength="141.2607" x="63.3413" y="505.9326">Confirmation + message</text><text fill="#000000" font-family="sans-serif" font-size="13" lengthAdjust="spacing" textLength="97.5381" x="63.3413" y="522.2842">de remerciement</text></g><line style="stroke:#000000;stroke-width:1;stroke-dasharray:2.0,2.0;" x1="10" x2="653.9126" y1="536.1406" y2="536.1406"/><text fill="#000000" font-family="sans-serif" font-size="11" font-weight="bold" lengthAdjust="spacing" textLength="39.123" x="15" y="547.5596">[erreur]</text><g class="message" data-participant-1="API" data-participant-2="Front"><polygon fill="#181818" points="279.2866,569.3281,269.2866,573.3281,279.2866,577.3281,275.2866,573.3281" style="stroke:#181818;stroke-width:1;"/><line style="stroke:#181818;stroke-width:1;stroke-dasharray:2.0,2.0;" x1="273.2866" x2="396.7783" y1="573.3281" y2="573.3281"/><text fill="#000000" font-family="sans-serif" font-size="13" lengthAdjust="spacing" textLength="94.6563" x="285.2866" y="568.4717">Erreur validation</text></g><g class="message" data-participant-1="Front" data-participant-2="User"><polygon fill="#181818" points="57.3413,599.6797,47.3413,603.6797,57.3413,607.6797,53.3413,603.6797" style="stroke:#181818;stroke-width:1;"/><line style="stroke:#181818;stroke-width:1;stroke-dasharray:2.0,2.0;" x1="51.3413" x2="267.2866" y1="603.6797" y2="603.6797"/><text fill="#000000" font-family="sans-serif" font-size="13" lengthAdjust="spacing" textLength="122.0908" x="63.3413" y="598.8232">Corriger le formulaire</text></g><!--SRC=[RLBDJW913BxFKpIUC4Auawo9k9eG0nXHJoIcBWMRxCniEeL4dyOhpx4lPdSHGVJIsKmxtzzMMKk2soX-NI8BmOAWY46nKEUiH85dJgoq5i04Jud4LIZA1LSO56x5XYaiccRx_QjxTJzg6dQu1Ig-OY8OMiafZo4GfQOxp9tBCfYXyH1acMj8e7Uvmnl0LL7KsuLTrP_pS3R-qKTovjeHwDbmysXmRAGJeky2UUIo2vvImXMTkrFm1_9LoGAaaEBQawhG7lMo4Jw0- -di4VfOSNyVJ8XA8BnwCu1dBDcySGocI-ij6Fx6qfg7JiB0oX_K1Sk2Uwb2RmAmLDWS7atl7BGv6Tqm7y1eChjvU8JhRog0Op9A-bAk8OCbbeciESnRywtEySuZK11QSLAfjx-X9r5voMQ_abW9rrjjWjhF738v06tYUmjo6hEfMxBudOEBVRhpOCiZv4aAjcgxGAOIICJo-4jpqzuVPV4laPXrasnBklpvjyuMpdq1]--></g></svg>