<svg xmlns="http://www.w3.org/2000/svg" xmlns:xlink="http://www.w3.org/1999/xlink" contentStyleType="text/css" data-diagram-type="SEQUENCE" height="1273px" preserveAspectRatio="none" style="width:617px;height:1273px;background:#FFFFFF;" version="1.1" viewBox="0 0 617 1273" width="617px" zoomAndPan="magnify"><title>Gestion des domaines d'int&#233;r&#234;t</title><defs/><g><text fill="#000000" font-family="sans-serif" font-size="14" font-weight="bold" lengthAdjust="spacing" textLength="207.9287" x="200.8682" y="29.5332">Gestion des domaines d'int&#233;r&#234;t</text><rect fill="none" height="239.1641" style="stroke:#000000;stroke-width:1.5;" width="590.665" x="10" y="425.3828"/><rect fill="none" height="170.1094" style="stroke:#000000;stroke-width:1.5;" width="590.665" x="10" y="722.8984"/><rect fill="none" height="222.8125" style="stroke:#000000;stroke-width:1.5;" width="590.665" x="10" y="951.3594"/><g><title>Propri&#233;taire</title><rect fill="#000000" fill-opacity="0.00000" height="1069.9531" width="8" x="55.1826" y="121.2188"/><line style="stroke:#181818;stroke-width:0.5;stroke-dasharray:5.0,5.0;" x1="59" x2="59" y1="121.2188" y2="1191.1719"/></g><g><title>Frontend</title><rect fill="#000000" fill-opacity="0.00000" height="1069.9531" width="8" x="209.957" y="121.2188"/><line style="stroke:#181818;stroke-width:0.5;stroke-dasharray:5.0,5.0;" x1="213.9399" x2="213.9399" y1="121.2188" y2="1191.1719"/></g><g><title>API</title><rect fill="#000000" fill-opacity="0.00000" height="1069.9531" width="8" x="381.3687" y="121.2188"/><line style="stroke:#181818;stroke-width:0.5;stroke-dasharray:5.0,5.0;" x1="385.0859" x2="385.0859" y1="121.2188" y2="1191.1719"/></g><g><title>BaseDeDonnees</title><rect fill="#000000" fill-opacity="0.00000" height="1069.9531" width="8" x="530.7412" y="121.2188"/><line style="stroke:#181818;stroke-width:0.5;stroke-dasharray:5.0,5.0;" x1="533.8174" x2="533.8174" y1="121.2188" y2="1191.1719"/></g><g class="participant participant-head" data-participant="Auth"><text fill="#000000" font-family="sans-serif" font-size="14" lengthAdjust="spacing" textLength="72.3652" x="20" y="118.1426">Propri&#233;taire</text><ellipse cx="59.1826" cy="52.1094" fill="#E2E2F0" rx="8" ry="8" style="stroke:#181818;stroke-width:0.5;"/><path d="M59.1826,60.1094 L59.1826,87.1094 M46.1826,68.1094 L72.1826,68.1094 M59.1826,87.1094 L46.1826,102.1094 M59.1826,87.1094 L72.1826,102.1094" fill="none" style="stroke:#181818;stroke-width:0.5;"/></g><g class="participant participant-tail" data-participant="Auth"><text fill="#000000" font-family="sans-serif" font-size="14" lengthAdjust="spacing" textLength="72.3652" x="20" y="1204.7051">Propri&#233;taire</text><ellipse cx="59.1826" cy="1216.2813" fill="#E2E2F0" rx="8" ry="8" style="stroke:#181818;stroke-width:0.5;"/><path d="M59.1826,1224.2813 L59.1826,1251.2813 M46.1826,1232.2813 L72.1826,1232.2813 M59.1826,1251.2813 L46.1826,1266.2813 M59.1826,1251.2813 L72.1826,1266.2813" fill="none" style="stroke:#181818;stroke-width:0.5;"/></g><g class="participant participant-head" data-participant="Front"><rect fill="#E2E2F0" height="31.6094" rx="2.5" ry="2.5" style="stroke:#181818;stroke-width:0.5;" width="70.0342" x="178.9399" y="88.6094"/><text fill="#000000" font-family="sans-serif" font-size="14" lengthAdjust="spacing" textLength="56.0342" x="185.9399" y="110.1426">Frontend</text></g><g class="participant participant-tail" data-participant="Front"><rect fill="#E2E2F0" height="31.6094" rx="2.5" ry="2.5" style="stroke:#181818;stroke-width:0.5;" width="70.0342" x="178.9399" y="1190.1719"/><text fill="#000000" font-family="sans-serif" font-size="14" lengthAdjust="spacing" textLength="56.0342" x="185.9399" y="1211.7051">Frontend</text></g><g class="participant participant-head" data-participant="API"><rect fill="#E2E2F0" height="31.6094" rx="2.5" ry="2.5" style="stroke:#181818;stroke-width:0.5;" width="36.5654" x="367.0859" y="88.6094"/><text fill="#000000" font-family="sans-serif" font-size="14" lengthAdjust="spacing" textLength="22.5654" x="374.0859" y="110.1426">API</text></g><g class="participant participant-tail" data-participant="API"><rect fill="#E2E2F0" height="31.6094" rx="2.5" ry="2.5" style="stroke:#181818;stroke-width:0.5;" width="36.5654" x="367.0859" y="1190.1719"/><text fill="#000000" font-family="sans-serif" font-size="14" lengthAdjust="spacing" textLength="22.5654" x="374.0859" y="1211.7051">API</text></g><g class="participant participant-head" data-participant="BD"><text fill="#000000" font-family="sans-serif" font-size="14" lengthAdjust="spacing" textLength="105.8477" x="478.8174" y="118.1426">BaseDeDonnees</text><path d="M516.7412,67.6094 C516.7412,57.6094 534.7412,57.6094 534.7412,57.6094 C534.7412,57.6094 552.7412,57.6094 552.7412,67.6094 L552.7412,93.6094 C552.7412,103.6094 534.7412,103.6094 534.7412,103.6094 C534.7412,103.6094 516.7412,103.6094 516.7412,93.6094 L516.7412,67.6094" fill="#E2E2F0" style="stroke:#181818;stroke-width:1.5;"/><path d="M516.7412,67.6094 C516.7412,77.6094 534.7412,77.6094 534.7412,77.6094 C534.7412,77.6094 552.7412,77.6094 552.7412,67.6094" fill="none" style="stroke:#181818;stroke-width:1.5;"/></g><g class="participant participant-tail" data-participant="BD"><text fill="#000000" font-family="sans-serif" font-size="14" lengthAdjust="spacing" textLength="105.8477" x="478.8174" y="1204.7051">BaseDeDonnees</text><path d="M516.7412,1217.7813 C516.7412,1207.7813 534.7412,1207.7813 534.7412,1207.7813 C534.7412,1207.7813 552.7412,1207.7813 552.7412,1217.7813 L552.7412,1243.7813 C552.7412,1253.7813 534.7412,1253.7813 534.7412,1253.7813 C534.7412,1253.7813 516.7412,1253.7813 516.7412,1243.7813 L516.7412,1217.7813" fill="#E2E2F0" style="stroke:#181818;stroke-width:1.5;"/><path d="M516.7412,1217.7813 C516.7412,1227.7813 534.7412,1227.7813 534.7412,1227.7813 C534.7412,1227.7813 552.7412,1227.7813 552.7412,1217.7813" fill="none" style="stroke:#181818;stroke-width:1.5;"/></g><rect fill="#EEEEEE" height="3" style="stroke:#EEEEEE;stroke-width:1;" width="610.665" x="0" y="152.3945"/><line style="stroke:#000000;stroke-width:1;" x1="0" x2="610.665" y1="152.3945" y2="152.3945"/><line style="stroke:#000000;stroke-width:1;" x1="0" x2="610.665" y1="155.3945" y2="155.3945"/><rect fill="#EEEEEE" height="24.3516" style="stroke:#000000;stroke-width:2;" width="117.3081" x="246.6785" y="141.2188"/><text fill="#000000" font-family="sans-serif" font-size="13" font-weight="bold" lengthAdjust="spacing" textLength="99.6963" x="252.6785" y="158.7139">Lister domaines</text><g class="message" data-participant-1="Auth" data-participant-2="Front"><polygon fill="#181818" points="201.957,210.2734,211.957,214.2734,201.957,218.2734,205.957,214.2734" style="stroke:#181818;stroke-width:1;"/><line style="stroke:#181818;stroke-width:1;" x1="59.1826" x2="207.957" y1="214.2734" y2="214.2734"/><text fill="#000000" font-family="sans-serif" font-size="13" lengthAdjust="spacing" textLength="58.5317" x="66.1826" y="193.0654">Acc&#233;der &#224;</text><text fill="#000000" font-family="sans-serif" font-size="13" lengthAdjust="spacing" textLength="93.7676" x="66.1826" y="209.417">"Mes domaines"</text></g><g class="message" data-participant-1="Front" data-participant-2="API"><polygon fill="#181818" points="373.3687,240.625,383.3687,244.625,373.3687,248.625,377.3687,244.625" style="stroke:#181818;stroke-width:1;"/><line style="stroke:#181818;stroke-width:1;" x1="213.957" x2="379.3687" y1="244.625" y2="244.625"/><text fill="#000000" font-family="sans-serif" font-size="13" lengthAdjust="spacing" textLength="111.2744" x="220.957" y="239.7686">GET /api/domaines</text></g><g class="message" data-participant-1="API" data-participant-2="BD"><polygon fill="#181818" points="522.7412,270.9766,532.7412,274.9766,522.7412,278.9766,526.7412,274.9766" style="stroke:#181818;stroke-width:1;"/><line style="stroke:#181818;stroke-width:1;" x1="385.3687" x2="528.7412" y1="274.9766" y2="274.9766"/><text fill="#000000" font-family="sans-serif" font-size="13" lengthAdjust="spacing" textLength="50.5718" x="392.3687" y="270.1201">SELECT</text></g><g class="message" data-participant-1="BD" data-participant-2="API"><polygon fill="#181818" points="396.3687,301.3281,386.3687,305.3281,396.3687,309.3281,392.3687,305.3281" style="stroke:#181818;stroke-width:1;"/><line style="stroke:#181818;stroke-width:1;stroke-dasharray:2.0,2.0;" x1="390.3687" x2="533.7412" y1="305.3281" y2="305.3281"/><text fill="#000000" font-family="sans-serif" font-size="13" lengthAdjust="spacing" textLength="106.209" x="402.3687" y="300.4717">Domains existants</text></g><g class="message" data-participant-1="API" data-participant-2="Front"><polygon fill="#181818" points="224.957,331.6797,214.957,335.6797,224.957,339.6797,220.957,335.6797" style="stroke:#181818;stroke-width:1;"/><line style="stroke:#181818;stroke-width:1;stroke-dasharray:2.0,2.0;" x1="218.957" x2="384.3687" y1="335.6797" y2="335.6797"/><text fill="#000000" font-family="sans-serif" font-size="13" lengthAdjust="spacing" textLength="114.8799" x="230.957" y="330.8232">Liste (nom, couleur)</text></g><g class="message" data-participant-1="Front" data-participant-2="Auth"><polygon fill="#181818" points="70.1826,362.0313,60.1826,366.0313,70.1826,370.0313,66.1826,366.0313" style="stroke:#181818;stroke-width:1;"/><line style="stroke:#181818;stroke-width:1;stroke-dasharray:2.0,2.0;" x1="64.1826" x2="212.957" y1="366.0313" y2="366.0313"/><text fill="#000000" font-family="sans-serif" font-size="13" lengthAdjust="spacing" textLength="41.1899" x="76.1826" y="361.1748">Aper&#231;u</text></g><rect fill="#EEEEEE" height="3" style="stroke:#EEEEEE;stroke-width:1;" width="610.665" x="0" y="395.207"/><line style="stroke:#000000;stroke-width:1;" x1="0" x2="610.665" y1="395.207" y2="395.207"/><line style="stroke:#000000;stroke-width:1;" x1="0" x2="610.665" y1="398.207" y2="398.207"/><rect fill="#EEEEEE" height="24.3516" style="stroke:#000000;stroke-width:2;" width="108.6436" x="251.0107" y="384.0313"/><text fill="#000000" font-family="sans-serif" font-size="13" font-weight="bold" lengthAdjust="spacing" textLength="91.0317" x="257.0107" y="401.5264">Cr&#233;er domaine</text><path d="M10,425.3828 L75.2109,425.3828 L75.2109,433.7344 L65.2109,443.7344 L10,443.7344 L10,425.3828" fill="#EEEEEE" style="stroke:#000000;stroke-width:1.5;"/><rect fill="none" height="239.1641" style="stroke:#000000;stroke-width:1.5;" width="590.665" x="10" y="425.3828"/><text fill="#000000" font-family="sans-serif" font-size="13" font-weight="bold" lengthAdjust="spacing" textLength="20.2109" x="25" y="439.8779">opt</text><text fill="#000000" font-family="sans-serif" font-size="11" font-weight="bold" lengthAdjust="spacing" textLength="52.5562" x="90.2109" y="438.8018">[nouveau]</text><g class="message" data-participant-1="Auth" data-participant-2="Front"><polygon fill="#181818" points="201.957,478.4375,211.957,482.4375,201.957,486.4375,205.957,482.4375" style="stroke:#181818;stroke-width:1;"/><line style="stroke:#181818;stroke-width:1;" x1="59.1826" x2="207.957" y1="482.4375" y2="482.4375"/><text fill="#000000" font-family="sans-serif" font-size="13" lengthAdjust="spacing" textLength="96.0908" x="66.1826" y="461.2295">Saisir nom, slug,</text><text fill="#000000" font-family="sans-serif" font-size="13" lengthAdjust="spacing" textLength="112.728" x="66.1826" y="477.5811">description, couleur</text></g><g class="message" data-participant-1="Front" data-participant-2="API"><polygon fill="#181818" points="373.3687,519.9648,383.3687,523.9648,373.3687,527.9648,377.3687,523.9648" style="stroke:#181818;stroke-width:1;"/><line style="stroke:#181818;stroke-width:1;" x1="213.957" x2="379.3687" y1="523.9648" y2="523.9648"/><text fill="#000000" font-family="sans-serif" font-size="13" lengthAdjust="spacing" textLength="119.9453" x="220.957" y="519.1084">POST /api/domaines</text></g><path d="M390,495.4375 L390,537.4375 L504,537.4375 L504,505.4375 L494,495.4375 L390,495.4375" fill="#FEFFDD" style="stroke:#181818;stroke-width:0.5;"/><path d="M494,495.4375 L494,505.4375 L504,505.4375 L494,495.4375" fill="#FEFFDD" style="stroke:#181818;stroke-width:0.5;"/><text fill="#000000" font-family="sans-serif" font-size="13" lengthAdjust="spacing" textLength="93.2344" x="396" y="513.9326">G&#233;n&#233;ration auto</text><text fill="#000000" font-family="sans-serif" font-size="13" lengthAdjust="spacing" textLength="41.9199" x="396" y="530.2842">du slug</text><g class="message" data-participant-1="API" data-participant-2="BD"><polygon fill="#181818" points="522.7412,561.4922,532.7412,565.4922,522.7412,569.4922,526.7412,565.4922" style="stroke:#181818;stroke-width:1;"/><line style="stroke:#181818;stroke-width:1;" x1="385.3687" x2="528.7412" y1="565.4922" y2="565.4922"/><text fill="#000000" font-family="sans-serif" font-size="13" lengthAdjust="spacing" textLength="47.6709" x="392.3687" y="560.6357">INSERT</text></g><g class="message" data-participant-1="BD" data-participant-2="API"><polygon fill="#181818" points="396.3687,591.8438,386.3687,595.8438,396.3687,599.8438,392.3687,595.8438" style="stroke:#181818;stroke-width:1;"/><line style="stroke:#181818;stroke-width:1;stroke-dasharray:2.0,2.0;" x1="390.3687" x2="533.7412" y1="595.8438" y2="595.8438"/><text fill="#000000" font-family="sans-serif" font-size="13" lengthAdjust="spacing" textLength="80.9263" x="402.3687" y="590.9873">Domaine cr&#233;&#233;</text></g><g class="message" data-participant-1="API" data-participant-2="Front"><polygon fill="#181818" points="224.957,622.1953,214.957,626.1953,224.957,630.1953,220.957,626.1953" style="stroke:#181818;stroke-width:1;"/><line style="stroke:#181818;stroke-width:1;stroke-dasharray:2.0,2.0;" x1="218.957" x2="384.3687" y1="626.1953" y2="626.1953"/><text fill="#000000" font-family="sans-serif" font-size="13" lengthAdjust="spacing" textLength="73.6963" x="230.957" y="621.3389">Confirmation</text></g><g class="message" data-participant-1="Front" data-participant-2="Auth"><polygon fill="#181818" points="70.1826,652.5469,60.1826,656.5469,70.1826,660.5469,66.1826,656.5469" style="stroke:#181818;stroke-width:1;"/><line style="stroke:#181818;stroke-width:1;stroke-dasharray:2.0,2.0;" x1="64.1826" x2="212.957" y1="656.5469" y2="656.5469"/><text fill="#000000" font-family="sans-serif" font-size="13" lengthAdjust="spacing" textLength="88.1626" x="76.1826" y="651.6904">Ajout&#233; &#224; la liste</text></g><rect fill="#EEEEEE" height="3" style="stroke:#EEEEEE;stroke-width:1;" width="610.665" x="0" y="692.7227"/><line style="stroke:#000000;stroke-width:1;" x1="0" x2="610.665" y1="692.7227" y2="692.7227"/><line style="stroke:#000000;stroke-width:1;" x1="0" x2="610.665" y1="695.7227" y2="695.7227"/><rect fill="#EEEEEE" height="24.3516" style="stroke:#000000;stroke-width:2;" width="68.1646" x="271.2502" y="681.5469"/><text fill="#000000" font-family="sans-serif" font-size="13" font-weight="bold" lengthAdjust="spacing" textLength="50.5527" x="277.2502" y="699.042">Modifier</text><path d="M10,722.8984 L75.2109,722.8984 L75.2109,731.25 L65.2109,741.25 L10,741.25 L10,722.8984" fill="#EEEEEE" style="stroke:#000000;stroke-width:1.5;"/><rect fill="none" height="170.1094" style="stroke:#000000;stroke-width:1.5;" width="590.665" x="10" y="722.8984"/><text fill="#000000" font-family="sans-serif" font-size="13" font-weight="bold" lengthAdjust="spacing" textLength="20.2109" x="25" y="737.3936">opt</text><text fill="#000000" font-family="sans-serif" font-size="11" font-weight="bold" lengthAdjust="spacing" textLength="43.377" x="90.2109" y="736.3174">[&#233;dition]</text><g class="message" data-participant-1="Auth" data-participant-2="Front"><polygon fill="#181818" points="201.957,759.6016,211.957,763.6016,201.957,767.6016,205.957,763.6016" style="stroke:#181818;stroke-width:1;"/><line style="stroke:#181818;stroke-width:1;" x1="59.1826" x2="207.957" y1="763.6016" y2="763.6016"/><text fill="#000000" font-family="sans-serif" font-size="13" lengthAdjust="spacing" textLength="95.3672" x="66.1826" y="758.7451">Modifier champs</text></g><g class="message" data-participant-1="Front" data-participant-2="API"><polygon fill="#181818" points="373.3687,789.9531,383.3687,793.9531,373.3687,797.9531,377.3687,793.9531" style="stroke:#181818;stroke-width:1;"/><line style="stroke:#181818;stroke-width:1;" x1="213.957" x2="379.3687" y1="793.9531" y2="793.9531"/><text fill="#000000" font-family="sans-serif" font-size="13" lengthAdjust="spacing" textLength="132.9644" x="220.957" y="789.0967">PUT /api/domaines/{id}</text></g><g class="message" data-participant-1="API" data-participant-2="BD"><polygon fill="#181818" points="522.7412,820.3047,532.7412,824.3047,522.7412,828.3047,526.7412,824.3047" style="stroke:#181818;stroke-width:1;"/><line style="stroke:#181818;stroke-width:1;" x1="385.3687" x2="528.7412" y1="824.3047" y2="824.3047"/><text fill="#000000" font-family="sans-serif" font-size="13" lengthAdjust="spacing" textLength="52.73" x="392.3687" y="819.4482">UPDATE</text></g><g class="message" data-participant-1="BD" data-participant-2="API"><polygon fill="#181818" points="396.3687,850.6563,386.3687,854.6563,396.3687,858.6563,392.3687,854.6563" style="stroke:#181818;stroke-width:1;"/><line style="stroke:#181818;stroke-width:1;stroke-dasharray:2.0,2.0;" x1="390.3687" x2="533.7412" y1="854.6563" y2="854.6563"/><text fill="#000000" font-family="sans-serif" font-size="13" lengthAdjust="spacing" textLength="56.3481" x="402.3687" y="849.7998">Mis &#224; jour</text></g><g class="message" data-participant-1="API" data-participant-2="Front"><polygon fill="#181818" points="224.957,881.0078,214.957,885.0078,224.957,889.0078,220.957,885.0078" style="stroke:#181818;stroke-width:1;"/><line style="stroke:#181818;stroke-width:1;stroke-dasharray:2.0,2.0;" x1="218.957" x2="384.3687" y1="885.0078" y2="885.0078"/><text fill="#000000" font-family="sans-serif" font-size="13" lengthAdjust="spacing" textLength="42.6309" x="230.957" y="880.1514">Succ&#232;s</text></g><rect fill="#EEEEEE" height="3" style="stroke:#EEEEEE;stroke-width:1;" width="610.665" x="0" y="921.1836"/><line style="stroke:#000000;stroke-width:1;" x1="0" x2="610.665" y1="921.1836" y2="921.1836"/><line style="stroke:#000000;stroke-width:1;" x1="0" x2="610.665" y1="924.1836" y2="924.1836"/><rect fill="#EEEEEE" height="24.3516" style="stroke:#000000;stroke-width:2;" width="82.6245" x="264.0203" y="910.0078"/><text fill="#000000" font-family="sans-serif" font-size="13" font-weight="bold" lengthAdjust="spacing" textLength="65.0127" x="270.0203" y="927.5029">Supprimer</text><path d="M10,951.3594 L75.2109,951.3594 L75.2109,959.7109 L65.2109,969.7109 L10,969.7109 L10,951.3594" fill="#EEEEEE" style="stroke:#000000;stroke-width:1.5;"/><rect fill="none" height="222.8125" style="stroke:#000000;stroke-width:1.5;" width="590.665" x="10" y="951.3594"/><text fill="#000000" font-family="sans-serif" font-size="13" font-weight="bold" lengthAdjust="spacing" textLength="20.2109" x="25" y="965.8545">opt</text><text fill="#000000" font-family="sans-serif" font-size="11" font-weight="bold" lengthAdjust="spacing" textLength="38.5054" x="90.2109" y="964.7783">[retrait]</text><g class="message" data-participant-1="Auth" data-participant-2="Front"><polygon fill="#181818" points="201.957,999.2383,211.957,1003.2383,201.957,1007.2383,205.957,1003.2383" style="stroke:#181818;stroke-width:1;"/><line style="stroke:#181818;stroke-width:1;" x1="59.1826" x2="207.957" y1="1003.2383" y2="1003.2383"/><text fill="#000000" font-family="sans-serif" font-size="13" lengthAdjust="spacing" textLength="130.7744" x="66.1826" y="998.3818">Confirmer suppression</text></g><path d="M218,974.7109 L218,1016.7109 L338,1016.7109 L338,984.7109 L328,974.7109 L218,974.7109" fill="#FEFFDD" style="stroke:#181818;stroke-width:0.5;"/><path d="M328,974.7109 L328,984.7109 L338,984.7109 L328,974.7109" fill="#FEFFDD" style="stroke:#181818;stroke-width:0.5;"/><text fill="#000000" font-family="sans-serif" font-size="13" lengthAdjust="spacing" textLength="78.0254" x="224" y="993.2061">Dissocier des</text><text fill="#000000" font-family="sans-serif" font-size="13" lengthAdjust="spacing" textLength="99.0044" x="224" y="1009.5576">publications li&#233;es</text><g class="message" data-participant-1="Front" data-participant-2="API"><polygon fill="#181818" points="373.3687,1040.7656,383.3687,1044.7656,373.3687,1048.7656,377.3687,1044.7656" style="stroke:#181818;stroke-width:1;"/><line style="stroke:#181818;stroke-width:1;" x1="213.957" x2="379.3687" y1="1044.7656" y2="1044.7656"/><text fill="#000000" font-family="sans-serif" font-size="13" lengthAdjust="spacing" textLength="147.4116" x="220.957" y="1039.9092">DELETE .../domaines/{id}</text></g><g class="message" data-participant-1="API" data-participant-2="BD"><polygon fill="#181818" points="522.7412,1071.1172,532.7412,1075.1172,522.7412,1079.1172,526.7412,1075.1172" style="stroke:#181818;stroke-width:1;"/><line style="stroke:#181818;stroke-width:1;" x1="385.3687" x2="528.7412" y1="1075.1172" y2="1075.1172"/><text fill="#000000" font-family="sans-serif" font-size="13" lengthAdjust="spacing" textLength="125.3726" x="392.3687" y="1070.2607">Supprimer + d&#233;tacher</text></g><g class="message" data-participant-1="BD" data-participant-2="API"><polygon fill="#181818" points="396.3687,1101.4688,386.3687,1105.4688,396.3687,1109.4688,392.3687,1105.4688" style="stroke:#181818;stroke-width:1;"/><line style="stroke:#181818;stroke-width:1;stroke-dasharray:2.0,2.0;" x1="390.3687" x2="533.7412" y1="1105.4688" y2="1105.4688"/><text fill="#000000" font-family="sans-serif" font-size="13" lengthAdjust="spacing" textLength="55.6372" x="402.3687" y="1100.6123">Supprim&#233;</text></g><g class="message" data-participant-1="API" data-participant-2="Front"><polygon fill="#181818" points="224.957,1131.8203,214.957,1135.8203,224.957,1139.8203,220.957,1135.8203" style="stroke:#181818;stroke-width:1;"/><line style="stroke:#181818;stroke-width:1;stroke-dasharray:2.0,2.0;" x1="218.957" x2="384.3687" y1="1135.8203" y2="1135.8203"/><text fill="#000000" font-family="sans-serif" font-size="13" lengthAdjust="spacing" textLength="73.6963" x="230.957" y="1130.9639">Confirmation</text></g><g class="message" data-participant-1="Front" data-participant-2="Auth"><polygon fill="#181818" points="70.1826,1162.1719,60.1826,1166.1719,70.1826,1170.1719,66.1826,1166.1719" style="stroke:#181818;stroke-width:1;"/><line style="stroke:#181818;stroke-width:1;stroke-dasharray:2.0,2.0;" x1="64.1826" x2="212.957" y1="1166.1719" y2="1166.1719"/><text fill="#000000" font-family="sans-serif" font-size="13" lengthAdjust="spacing" textLength="34.6772" x="76.1826" y="1161.3154">Retir&#233;</text></g><!--SRC=[dPDDRjim48NtFCKWcwPeOkyDk81jgOQ1k1KYPUSDGp7n118fyASeKFGktRNgDNIn3XdPYYMWYsu4GNoS-TwRaKDNITXAwr0hAAM5KjSSLNXvXyfrhUd-ECQuSDf0PdHZi6iTHoE1MrXvTsGDDmu5Dbmv-6IqSbALuJ2-NvokibsybUrOoHr_v5R2cXw9JBHIafhIwJfXRBc4ExHEcW5dkMIX6zn-V2syW9KGNLkIfljvK5VxD-nNB4g2bdejO9iMCESDpay25aZeT9qi84_lqat1rWdSdlH9b5cGtmY2m7lzq3h2mRNIzGq8xIlfpVjJpr24G8claQRxvQERZUdQmKqmeni7Ilkladi6CBAMSxHe8DQtbN- -EIYQZJ3OX3cTUzB5IwFPbtpi5AWAiHfyFbBXRTSgcYcFu-RUQIhiOui0COIo-vodzmLzcyOYGP2PhZrT6AWtMZsXgMFn0Mt8uqLxMYWQ5rGSgX0XerM9-UnrYKz82VN9q62nBpEAvgmKHrutTXh1moY1-NSiVrowUyYILP6EtEtH1ZI2D5DhkQTb-stFlBblw4-e1s0ZdU7efhnzAAIquOwqzjNMswaaQAqMmHHD-Q0Q_rYXY35QoeasPsepeQqjKfZDPlyoEc1-W3Byj-8epSXth_cFWTvBXxGACPI_]--></g></svg>