<svg xmlns="http://www.w3.org/2000/svg" xmlns:xlink="http://www.w3.org/1999/xlink" contentStyleType="text/css" data-diagram-type="SEQUENCE" height="1568px" preserveAspectRatio="none" style="width:848px;height:1568px;background:#FFFFFF;" version="1.1" viewBox="0 0 848 1568" width="848px" zoomAndPan="magnify"><title>Gestion des ressources / documents</title><defs/><g><text fill="#000000" font-family="sans-serif" font-size="14" font-weight="bold" lengthAdjust="spacing" textLength="245.082" x="297.8435" y="29.5332">Gestion des ressources / documents</text><rect fill="none" height="510.3281" style="stroke:#000000;stroke-width:1.5;" width="821.769" x="10" y="425.3828"/><rect fill="none" height="186.4609" style="stroke:#000000;stroke-width:1.5;" width="704.6768" x="10" y="994.0625"/><rect fill="none" height="230.8125" style="stroke:#000000;stroke-width:1.5;" width="704.6768" x="10" y="1238.875"/><g><title>Propri&#233;taire</title><rect fill="#000000" fill-opacity="0.00000" height="1365.4688" width="8" x="55.1826" y="121.2188"/><line style="stroke:#181818;stroke-width:0.5;stroke-dasharray:5.0,5.0;" x1="59" x2="59" y1="121.2188" y2="1486.6875"/></g><g><title>Frontend</title><rect fill="#000000" fill-opacity="0.00000" height="1365.4688" width="8" x="238.1533" y="121.2188"/><line style="stroke:#181818;stroke-width:0.5;stroke-dasharray:5.0,5.0;" x1="242.1362" x2="242.1362" y1="121.2188" y2="1486.6875"/></g><g><title>API</title><rect fill="#000000" fill-opacity="0.00000" height="1365.4688" width="8" x="416.7759" y="121.2188"/><line style="stroke:#181818;stroke-width:0.5;stroke-dasharray:5.0,5.0;" x1="420.4932" x2="420.4932" y1="121.2188" y2="1486.6875"/></g><g><title>Stockage</title><rect fill="#000000" fill-opacity="0.00000" height="1365.4688" width="8" x="542.6431" y="121.2188"/><line style="stroke:#181818;stroke-width:0.5;stroke-dasharray:5.0,5.0;" x1="546.457" x2="546.457" y1="121.2188" y2="1486.6875"/></g><g><title>BaseDeDonnees</title><rect fill="#000000" fill-opacity="0.00000" height="1365.4688" width="8" x="644.7529" y="121.2188"/><line style="stroke:#181818;stroke-width:0.5;stroke-dasharray:5.0,5.0;" x1="647.8291" x2="647.8291" y1="121.2188" y2="1486.6875"/></g><g class="participant participant-head" data-participant="Auth"><text fill="#000000" font-family="sans-serif" font-size="14" lengthAdjust="spacing" textLength="72.3652" x="20" y="118.1426">Propri&#233;taire</text><ellipse cx="59.1826" cy="52.1094" fill="#E2E2F0" rx="8" ry="8" style="stroke:#181818;stroke-width:0.5;"/><path d="M59.1826,60.1094 L59.1826,87.1094 M46.1826,68.1094 L72.1826,68.1094 M59.1826,87.1094 L46.1826,102.1094 M59.1826,87.1094 L72.1826,102.1094" fill="none" style="stroke:#181818;stroke-width:0.5;"/></g><g class="participant participant-tail" data-participant="Auth"><text fill="#000000" font-family="sans-serif" font-size="14" lengthAdjust="spacing" textLength="72.3652" x="20" y="1500.2207">Propri&#233;taire</text><ellipse cx="59.1826" cy="1511.7969" fill="#E2E2F0" rx="8" ry="8" style="stroke:#181818;stroke-width:0.5;"/><path d="M59.1826,1519.7969 L59.1826,1546.7969 M46.1826,1527.7969 L72.1826,1527.7969 M59.1826,1546.7969 L46.1826,1561.7969 M59.1826,1546.7969 L72.1826,1561.7969" fill="none" style="stroke:#181818;stroke-width:0.5;"/></g><g class="participant participant-head" data-participant="Front"><rect fill="#E2E2F0" height="31.6094" rx="2.5" ry="2.5" style="stroke:#181818;stroke-width:0.5;" width="70.0342" x="207.1362" y="88.6094"/><text fill="#000000" font-family="sans-serif" font-size="14" lengthAdjust="spacing" textLength="56.0342" x="214.1362" y="110.1426">Frontend</text></g><g class="participant participant-tail" data-participant="Front"><rect fill="#E2E2F0" height="31.6094" rx="2.5" ry="2.5" style="stroke:#181818;stroke-width:0.5;" width="70.0342" x="207.1362" y="1485.6875"/><text fill="#000000" font-family="sans-serif" font-size="14" lengthAdjust="spacing" textLength="56.0342" x="214.1362" y="1507.2207">Frontend</text></g><g class="participant participant-head" data-participant="API"><rect fill="#E2E2F0" height="31.6094" rx="2.5" ry="2.5" style="stroke:#181818;stroke-width:0.5;" width="36.5654" x="402.4932" y="88.6094"/><text fill="#000000" font-family="sans-serif" font-size="14" lengthAdjust="spacing" textLength="22.5654" x="409.4932" y="110.1426">API</text></g><g class="participant participant-tail" data-participant="API"><rect fill="#E2E2F0" height="31.6094" rx="2.5" ry="2.5" style="stroke:#181818;stroke-width:0.5;" width="36.5654" x="402.4932" y="1485.6875"/><text fill="#000000" font-family="sans-serif" font-size="14" lengthAdjust="spacing" textLength="22.5654" x="409.4932" y="1507.2207">API</text></g><g class="participant participant-head" data-participant="Storage"><rect fill="#E2E2F0" height="31.6094" rx="2.5" ry="2.5" style="stroke:#181818;stroke-width:0.5;" width="72.3721" x="510.457" y="88.6094"/><text fill="#000000" font-family="sans-serif" font-size="14" lengthAdjust="spacing" textLength="58.3721" x="517.457" y="110.1426">Stockage</text></g><g class="participant participant-tail" data-participant="Storage"><rect fill="#E2E2F0" height="31.6094" rx="2.5" ry="2.5" style="stroke:#181818;stroke-width:0.5;" width="72.3721" x="510.457" y="1485.6875"/><text fill="#000000" font-family="sans-serif" font-size="14" lengthAdjust="spacing" textLength="58.3721" x="517.457" y="1507.2207">Stockage</text></g><g class="participant participant-head" data-participant="BD"><text fill="#000000" font-family="sans-serif" font-size="14" lengthAdjust="spacing" textLength="105.8477" x="592.8291" y="118.1426">BaseDeDonnees</text><path d="M630.7529,67.6094 C630.7529,57.6094 648.7529,57.6094 648.7529,57.6094 C648.7529,57.6094 666.7529,57.6094 666.7529,67.6094 L666.7529,93.6094 C666.7529,103.6094 648.7529,103.6094 648.7529,103.6094 C648.7529,103.6094 630.7529,103.6094 630.7529,93.6094 L630.7529,67.6094" fill="#E2E2F0" style="stroke:#181818;stroke-width:1.5;"/><path d="M630.7529,67.6094 C630.7529,77.6094 648.7529,77.6094 648.7529,77.6094 C648.7529,77.6094 666.7529,77.6094 666.7529,67.6094" fill="none" style="stroke:#181818;stroke-width:1.5;"/></g><g class="participant participant-tail" data-participant="BD"><text fill="#000000" font-family="sans-serif" font-size="14" lengthAdjust="spacing" textLength="105.8477" x="592.8291" y="1500.2207">BaseDeDonnees</text><path d="M630.7529,1513.2969 C630.7529,1503.2969 648.7529,1503.2969 648.7529,1503.2969 C648.7529,1503.2969 666.7529,1503.2969 666.7529,1513.2969 L666.7529,1539.2969 C666.7529,1549.2969 648.7529,1549.2969 648.7529,1549.2969 C648.7529,1549.2969 630.7529,1549.2969 630.7529,1539.2969 L630.7529,1513.2969" fill="#E2E2F0" style="stroke:#181818;stroke-width:1.5;"/><path d="M630.7529,1513.2969 C630.7529,1523.2969 648.7529,1523.2969 648.7529,1523.2969 C648.7529,1523.2969 666.7529,1523.2969 666.7529,1513.2969" fill="none" style="stroke:#181818;stroke-width:1.5;"/></g><rect fill="#EEEEEE" height="3" style="stroke:#EEEEEE;stroke-width:1;" width="841.769" x="0" y="152.3945"/><line style="stroke:#000000;stroke-width:1;" x1="0" x2="841.769" y1="152.3945" y2="152.3945"/><line style="stroke:#000000;stroke-width:1;" x1="0" x2="841.769" y1="155.3945" y2="155.3945"/><rect fill="#EEEEEE" height="24.3516" style="stroke:#000000;stroke-width:2;" width="126.0044" x="357.8823" y="141.2188"/><text fill="#000000" font-family="sans-serif" font-size="13" font-weight="bold" lengthAdjust="spacing" textLength="108.3926" x="363.8823" y="158.7139">Lister ressources</text><g class="message" data-participant-1="Auth" data-participant-2="Front"><polygon fill="#181818" points="230.1533,210.2734,240.1533,214.2734,230.1533,218.2734,234.1533,214.2734" style="stroke:#181818;stroke-width:1;"/><line style="stroke:#181818;stroke-width:1;" x1="59.1826" x2="236.1533" y1="214.2734" y2="214.2734"/><text fill="#000000" font-family="sans-serif" font-size="13" lengthAdjust="spacing" textLength="58.5317" x="66.1826" y="193.0654">Acc&#233;der &#224;</text><text fill="#000000" font-family="sans-serif" font-size="13" lengthAdjust="spacing" textLength="100.9785" x="66.1826" y="209.417">"Mes ressources"</text></g><g class="message" data-participant-1="Front" data-participant-2="API"><polygon fill="#181818" points="408.7759,240.625,418.7759,244.625,408.7759,248.625,412.7759,244.625" style="stroke:#181818;stroke-width:1;"/><line style="stroke:#181818;stroke-width:1;" x1="242.1533" x2="414.7759" y1="244.625" y2="244.625"/><text fill="#000000" font-family="sans-serif" font-size="13" lengthAdjust="spacing" textLength="118.4854" x="249.1533" y="239.7686">GET /api/ressources</text></g><g class="message" data-participant-1="API" data-participant-2="BD"><polygon fill="#181818" points="636.7529,270.9766,646.7529,274.9766,636.7529,278.9766,640.7529,274.9766" style="stroke:#181818;stroke-width:1;"/><line style="stroke:#181818;stroke-width:1;" x1="420.7759" x2="642.7529" y1="274.9766" y2="274.9766"/><text fill="#000000" font-family="sans-serif" font-size="13" lengthAdjust="spacing" textLength="50.5718" x="427.7759" y="270.1201">SELECT</text></g><g class="message" data-participant-1="BD" data-participant-2="API"><polygon fill="#181818" points="431.7759,301.3281,421.7759,305.3281,431.7759,309.3281,427.7759,305.3281" style="stroke:#181818;stroke-width:1;"/><line style="stroke:#181818;stroke-width:1;stroke-dasharray:2.0,2.0;" x1="425.7759" x2="647.7529" y1="305.3281" y2="305.3281"/><text fill="#000000" font-family="sans-serif" font-size="13" lengthAdjust="spacing" textLength="130.7808" x="437.7759" y="300.4717">Ressources existantes</text></g><g class="message" data-participant-1="API" data-participant-2="Front"><polygon fill="#181818" points="253.1533,331.6797,243.1533,335.6797,253.1533,339.6797,249.1533,335.6797" style="stroke:#181818;stroke-width:1;"/><line style="stroke:#181818;stroke-width:1;stroke-dasharray:2.0,2.0;" x1="247.1533" x2="419.7759" y1="335.6797" y2="335.6797"/><text fill="#000000" font-family="sans-serif" font-size="13" lengthAdjust="spacing" textLength="125.7217" x="259.1533" y="330.8232">Liste (titre, type, date)</text></g><g class="message" data-participant-1="Front" data-participant-2="Auth"><polygon fill="#181818" points="70.1826,362.0313,60.1826,366.0313,70.1826,370.0313,66.1826,366.0313" style="stroke:#181818;stroke-width:1;"/><line style="stroke:#181818;stroke-width:1;stroke-dasharray:2.0,2.0;" x1="64.1826" x2="241.1533" y1="366.0313" y2="366.0313"/><text fill="#000000" font-family="sans-serif" font-size="13" lengthAdjust="spacing" textLength="92.8218" x="76.1826" y="361.1748">Vue d'ensemble</text></g><rect fill="#EEEEEE" height="3" style="stroke:#EEEEEE;stroke-width:1;" width="841.769" x="0" y="395.207"/><line style="stroke:#000000;stroke-width:1;" x1="0" x2="841.769" y1="395.207" y2="395.207"/><line style="stroke:#000000;stroke-width:1;" x1="0" x2="841.769" y1="398.207" y2="398.207"/><rect fill="#EEEEEE" height="24.3516" style="stroke:#000000;stroke-width:2;" width="61.6646" x="390.0522" y="384.0313"/><text fill="#000000" font-family="sans-serif" font-size="13" font-weight="bold" lengthAdjust="spacing" textLength="44.0527" x="396.0522" y="401.5264">Upload</text><path d="M10,425.3828 L75.2109,425.3828 L75.2109,433.7344 L65.2109,443.7344 L10,443.7344 L10,425.3828" fill="#EEEEEE" style="stroke:#000000;stroke-width:1.5;"/><rect fill="none" height="510.3281" style="stroke:#000000;stroke-width:1.5;" width="821.769" x="10" y="425.3828"/><text fill="#000000" font-family="sans-serif" font-size="13" font-weight="bold" lengthAdjust="spacing" textLength="20.2109" x="25" y="439.8779">opt</text><text fill="#000000" font-family="sans-serif" font-size="11" font-weight="bold" lengthAdjust="spacing" textLength="88.623" x="90.2109" y="438.8018">[nouveau fichier]</text><g class="message" data-participant-1="Auth" data-participant-2="Front"><polygon fill="#181818" points="230.1533,462.0859,240.1533,466.0859,230.1533,470.0859,234.1533,466.0859" style="stroke:#181818;stroke-width:1;"/><line style="stroke:#181818;stroke-width:1;" x1="59.1826" x2="236.1533" y1="466.0859" y2="466.0859"/><text fill="#000000" font-family="sans-serif" font-size="13" lengthAdjust="spacing" textLength="110.5571" x="66.1826" y="461.2295">S&#233;lectionner fichier</text></g><g class="message" data-participant-1="Front" data-participant-2="API"><polygon fill="#181818" points="408.7759,503.6133,418.7759,507.6133,408.7759,511.6133,412.7759,507.6133" style="stroke:#181818;stroke-width:1;"/><line style="stroke:#181818;stroke-width:1;" x1="242.1533" x2="414.7759" y1="507.6133" y2="507.6133"/><text fill="#000000" font-family="sans-serif" font-size="13" lengthAdjust="spacing" textLength="111.2744" x="249.1533" y="502.7568">GET /api/domaines</text></g><path d="M425,479.0859 L425,521.0859 L526,521.0859 L526,489.0859 L516,479.0859 L425,479.0859" fill="#FEFFDD" style="stroke:#181818;stroke-width:0.5;"/><path d="M516,479.0859 L516,489.0859 L526,489.0859 L516,479.0859" fill="#FEFFDD" style="stroke:#181818;stroke-width:0.5;"/><text fill="#000000" font-family="sans-serif" font-size="13" lengthAdjust="spacing" textLength="73.6963" x="431" y="497.5811">Charger liste</text><text fill="#000000" font-family="sans-serif" font-size="13" lengthAdjust="spacing" textLength="80.939" x="431" y="513.9326">des domaines</text><g class="message" data-participant-1="API" data-participant-2="BD"><polygon fill="#181818" points="636.7529,545.1406,646.7529,549.1406,636.7529,553.1406,640.7529,549.1406" style="stroke:#181818;stroke-width:1;"/><line style="stroke:#181818;stroke-width:1;" x1="420.7759" x2="642.7529" y1="549.1406" y2="549.1406"/><text fill="#000000" font-family="sans-serif" font-size="13" lengthAdjust="spacing" textLength="50.5718" x="427.7759" y="544.2842">SELECT</text></g><g class="message" data-participant-1="BD" data-participant-2="API"><polygon fill="#181818" points="431.7759,575.4922,421.7759,579.4922,431.7759,583.4922,427.7759,579.4922" style="stroke:#181818;stroke-width:1;"/><line style="stroke:#181818;stroke-width:1;stroke-dasharray:2.0,2.0;" x1="425.7759" x2="647.7529" y1="579.4922" y2="579.4922"/><text fill="#000000" font-family="sans-serif" font-size="13" lengthAdjust="spacing" textLength="127.1816" x="437.7759" y="574.6357">Domaines disponibles</text></g><g class="message" data-participant-1="API" data-participant-2="Front"><polygon fill="#181818" points="253.1533,605.8438,243.1533,609.8438,253.1533,613.8438,249.1533,609.8438" style="stroke:#181818;stroke-width:1;"/><line style="stroke:#181818;stroke-width:1;stroke-dasharray:2.0,2.0;" x1="247.1533" x2="419.7759" y1="609.8438" y2="609.8438"/><text fill="#000000" font-family="sans-serif" font-size="13" lengthAdjust="spacing" textLength="87.439" x="259.1533" y="604.9873">Liste domaines</text></g><g class="message" data-participant-1="Front" data-participant-2="Auth"><polygon fill="#181818" points="70.1826,636.1953,60.1826,640.1953,70.1826,644.1953,66.1826,640.1953" style="stroke:#181818;stroke-width:1;"/><line style="stroke:#181818;stroke-width:1;stroke-dasharray:2.0,2.0;" x1="64.1826" x2="241.1533" y1="640.1953" y2="640.1953"/><text fill="#000000" font-family="sans-serif" font-size="13" lengthAdjust="spacing" textLength="158.9707" x="76.1826" y="635.3389">Choisir domaine (optionnel)</text></g><g class="message" data-participant-1="Auth" data-participant-2="Front"><polygon fill="#181818" points="230.1533,666.5469,240.1533,670.5469,230.1533,674.5469,234.1533,670.5469" style="stroke:#181818;stroke-width:1;"/><line style="stroke:#181818;stroke-width:1;" x1="59.1826" x2="236.1533" y1="670.5469" y2="670.5469"/><text fill="#000000" font-family="sans-serif" font-size="13" lengthAdjust="spacing" textLength="121.3989" x="66.1826" y="665.6904">Associer un domaine</text></g><g class="message" data-participant-1="Front" data-participant-2="API"><polygon fill="#181818" points="408.7759,708.0742,418.7759,712.0742,408.7759,716.0742,412.7759,712.0742" style="stroke:#181818;stroke-width:1;"/><line style="stroke:#181818;stroke-width:1;" x1="242.1533" x2="414.7759" y1="712.0742" y2="712.0742"/><text fill="#000000" font-family="sans-serif" font-size="13" lengthAdjust="spacing" textLength="127.1563" x="249.1533" y="707.2178">POST /api/ressources</text></g><path d="M425,683.5469 L425,725.5469 L555,725.5469 L555,693.5469 L545,683.5469 L425,683.5469" fill="#FEFFDD" style="stroke:#181818;stroke-width:0.5;"/><path d="M545,683.5469 L545,693.5469 L555,693.5469 L545,683.5469" fill="#FEFFDD" style="stroke:#181818;stroke-width:0.5;"/><text fill="#000000" font-family="sans-serif" font-size="13" lengthAdjust="spacing" textLength="109.0908" x="431" y="702.042">Multipart/form-data</text><text fill="#000000" font-family="sans-serif" font-size="13" lengthAdjust="spacing" textLength="78.4189" x="431" y="718.3936">+ domaine_id</text><g class="message" data-participant-1="API" data-participant-2="Storage"><polygon fill="#181818" points="534.6431,749.6016,544.6431,753.6016,534.6431,757.6016,538.6431,753.6016" style="stroke:#181818;stroke-width:1;"/><line style="stroke:#181818;stroke-width:1;" x1="420.7759" x2="540.6431" y1="753.6016" y2="753.6016"/><text fill="#000000" font-family="sans-serif" font-size="13" lengthAdjust="spacing" textLength="101.8672" x="427.7759" y="748.7451">Enregistrer fichier</text></g><g class="message" data-participant-1="Storage" data-participant-2="API"><polygon fill="#181818" points="431.7759,779.9531,421.7759,783.9531,431.7759,787.9531,427.7759,783.9531" style="stroke:#181818;stroke-width:1;"/><line style="stroke:#181818;stroke-width:1;stroke-dasharray:2.0,2.0;" x1="425.7759" x2="545.6431" y1="783.9531" y2="783.9531"/><text fill="#000000" font-family="sans-serif" font-size="13" lengthAdjust="spacing" textLength="100.439" x="437.7759" y="779.0967">Chemin stockage</text></g><g class="message" data-participant-1="API" data-participant-2="BD"><polygon fill="#181818" points="636.7529,821.4805,646.7529,825.4805,636.7529,829.4805,640.7529,825.4805" style="stroke:#181818;stroke-width:1;"/><line style="stroke:#181818;stroke-width:1;" x1="420.7759" x2="642.7529" y1="825.4805" y2="825.4805"/><text fill="#000000" font-family="sans-serif" font-size="13" lengthAdjust="spacing" textLength="113.4199" x="427.7759" y="820.624">INSERT Ressource</text></g><path d="M653,796.9531 L653,838.9531 L816,838.9531 L816,806.9531 L806,796.9531 L653,796.9531" fill="#FEFFDD" style="stroke:#181818;stroke-width:0.5;"/><path d="M806,796.9531 L806,806.9531 L816,806.9531 L806,796.9531" fill="#FEFFDD" style="stroke:#181818;stroke-width:0.5;"/><text fill="#000000" font-family="sans-serif" font-size="13" lengthAdjust="spacing" textLength="142.0161" x="659" y="815.4482">est_publique = true/false</text><text fill="#000000" font-family="sans-serif" font-size="13" lengthAdjust="spacing" textLength="134.7988" x="659" y="831.7998">domaine_id = optionnel</text><g class="message" data-participant-1="BD" data-participant-2="API"><polygon fill="#181818" points="431.7759,863.0078,421.7759,867.0078,431.7759,871.0078,427.7759,867.0078" style="stroke:#181818;stroke-width:1;"/><line style="stroke:#181818;stroke-width:1;stroke-dasharray:2.0,2.0;" x1="425.7759" x2="647.7529" y1="867.0078" y2="867.0078"/><text fill="#000000" font-family="sans-serif" font-size="13" lengthAdjust="spacing" textLength="98.2681" x="437.7759" y="862.1514">Ressource cr&#233;&#233;e</text></g><g class="message" data-participant-1="API" data-participant-2="Front"><polygon fill="#181818" points="253.1533,893.3594,243.1533,897.3594,253.1533,901.3594,249.1533,897.3594" style="stroke:#181818;stroke-width:1;"/><line style="stroke:#181818;stroke-width:1;stroke-dasharray:2.0,2.0;" x1="247.1533" x2="419.7759" y1="897.3594" y2="897.3594"/><text fill="#000000" font-family="sans-serif" font-size="13" lengthAdjust="spacing" textLength="68.2817" x="259.1533" y="892.5029">URL + infos</text></g><g class="message" data-participant-1="Front" data-participant-2="Auth"><polygon fill="#181818" points="70.1826,923.7109,60.1826,927.7109,70.1826,931.7109,66.1826,927.7109" style="stroke:#181818;stroke-width:1;"/><line style="stroke:#181818;stroke-width:1;stroke-dasharray:2.0,2.0;" x1="64.1826" x2="241.1533" y1="927.7109" y2="927.7109"/><text fill="#000000" font-family="sans-serif" font-size="13" lengthAdjust="spacing" textLength="124.2935" x="76.1826" y="922.8545">Ressource disponible</text></g><rect fill="#EEEEEE" height="3" style="stroke:#EEEEEE;stroke-width:1;" width="841.769" x="0" y="963.8867"/><line style="stroke:#000000;stroke-width:1;" x1="0" x2="841.769" y1="963.8867" y2="963.8867"/><line style="stroke:#000000;stroke-width:1;" x1="0" x2="841.769" y1="966.8867" y2="966.8867"/><rect fill="#EEEEEE" height="24.3516" style="stroke:#000000;stroke-width:2;" width="85.519" x="378.125" y="952.7109"/><text fill="#000000" font-family="sans-serif" font-size="13" font-weight="bold" lengthAdjust="spacing" textLength="67.9072" x="384.125" y="970.2061">Mise &#224; jour</text><path d="M10,994.0625 L75.2109,994.0625 L75.2109,1002.4141 L65.2109,1012.4141 L10,1012.4141 L10,994.0625" fill="#EEEEEE" style="stroke:#000000;stroke-width:1.5;"/><rect fill="none" height="186.4609" style="stroke:#000000;stroke-width:1.5;" width="704.6768" x="10" y="994.0625"/><text fill="#000000" font-family="sans-serif" font-size="13" font-weight="bold" lengthAdjust="spacing" textLength="20.2109" x="25" y="1008.5576">opt</text><text fill="#000000" font-family="sans-serif" font-size="11" font-weight="bold" lengthAdjust="spacing" textLength="72.7139" x="90.2109" y="1007.4814">[modification]</text><g class="message" data-participant-1="Auth" data-participant-2="Front"><polygon fill="#181818" points="230.1533,1047.1172,240.1533,1051.1172,230.1533,1055.1172,234.1533,1051.1172" style="stroke:#181818;stroke-width:1;"/><line style="stroke:#181818;stroke-width:1;" x1="59.1826" x2="236.1533" y1="1051.1172" y2="1051.1172"/><text fill="#000000" font-family="sans-serif" font-size="13" lengthAdjust="spacing" textLength="145.2217" x="66.1826" y="1029.9092">Modifier titre, description,</text><text fill="#000000" font-family="sans-serif" font-size="13" lengthAdjust="spacing" textLength="102.6035" x="66.1826" y="1046.2607">visibilit&#233;, domaine</text></g><g class="message" data-participant-1="Front" data-participant-2="API"><polygon fill="#181818" points="408.7759,1077.4688,418.7759,1081.4688,408.7759,1085.4688,412.7759,1081.4688" style="stroke:#181818;stroke-width:1;"/><line style="stroke:#181818;stroke-width:1;" x1="242.1533" x2="414.7759" y1="1081.4688" y2="1081.4688"/><text fill="#000000" font-family="sans-serif" font-size="13" lengthAdjust="spacing" textLength="130.0508" x="249.1533" y="1076.6123">PUT .../ressources/{id}</text></g><g class="message" data-participant-1="API" data-participant-2="BD"><polygon fill="#181818" points="636.7529,1107.8203,646.7529,1111.8203,636.7529,1115.8203,640.7529,1111.8203" style="stroke:#181818;stroke-width:1;"/><line style="stroke:#181818;stroke-width:1;" x1="420.7759" x2="642.7529" y1="1111.8203" y2="1111.8203"/><text fill="#000000" font-family="sans-serif" font-size="13" lengthAdjust="spacing" textLength="52.73" x="427.7759" y="1106.9639">UPDATE</text></g><g class="message" data-participant-1="BD" data-participant-2="API"><polygon fill="#181818" points="431.7759,1138.1719,421.7759,1142.1719,431.7759,1146.1719,427.7759,1142.1719" style="stroke:#181818;stroke-width:1;"/><line style="stroke:#181818;stroke-width:1;stroke-dasharray:2.0,2.0;" x1="425.7759" x2="647.7529" y1="1142.1719" y2="1142.1719"/><text fill="#000000" font-family="sans-serif" font-size="13" lengthAdjust="spacing" textLength="56.3481" x="437.7759" y="1137.3154">Mis &#224; jour</text></g><g class="message" data-participant-1="API" data-participant-2="Front"><polygon fill="#181818" points="253.1533,1168.5234,243.1533,1172.5234,253.1533,1176.5234,249.1533,1172.5234" style="stroke:#181818;stroke-width:1;"/><line style="stroke:#181818;stroke-width:1;stroke-dasharray:2.0,2.0;" x1="247.1533" x2="419.7759" y1="1172.5234" y2="1172.5234"/><text fill="#000000" font-family="sans-serif" font-size="13" lengthAdjust="spacing" textLength="42.6309" x="259.1533" y="1167.667">Succ&#232;s</text></g><rect fill="#EEEEEE" height="3" style="stroke:#EEEEEE;stroke-width:1;" width="841.769" x="0" y="1208.6992"/><line style="stroke:#000000;stroke-width:1;" x1="0" x2="841.769" y1="1208.6992" y2="1208.6992"/><line style="stroke:#000000;stroke-width:1;" x1="0" x2="841.769" y1="1211.6992" y2="1211.6992"/><rect fill="#EEEEEE" height="24.3516" style="stroke:#000000;stroke-width:2;" width="96.3481" x="372.7104" y="1197.5234"/><text fill="#000000" font-family="sans-serif" font-size="13" font-weight="bold" lengthAdjust="spacing" textLength="78.7363" x="378.7104" y="1215.0186">Suppression</text><path d="M10,1238.875 L75.2109,1238.875 L75.2109,1247.2266 L65.2109,1257.2266 L10,1257.2266 L10,1238.875" fill="#EEEEEE" style="stroke:#000000;stroke-width:1.5;"/><rect fill="none" height="230.8125" style="stroke:#000000;stroke-width:1.5;" width="704.6768" x="10" y="1238.875"/><text fill="#000000" font-family="sans-serif" font-size="13" font-weight="bold" lengthAdjust="spacing" textLength="20.2109" x="25" y="1253.3701">opt</text><text fill="#000000" font-family="sans-serif" font-size="11" font-weight="bold" lengthAdjust="spacing" textLength="38.5054" x="90.2109" y="1252.2939">[retrait]</text><g class="message" data-participant-1="Auth" data-participant-2="Front"><polygon fill="#181818" points="230.1533,1275.5781,240.1533,1279.5781,230.1533,1283.5781,234.1533,1279.5781" style="stroke:#181818;stroke-width:1;"/><line style="stroke:#181818;stroke-width:1;" x1="59.1826" x2="236.1533" y1="1279.5781" y2="1279.5781"/><text fill="#000000" font-family="sans-serif" font-size="13" lengthAdjust="spacing" textLength="130.7744" x="66.1826" y="1274.7217">Confirmer suppression</text></g><g class="message" data-participant-1="Front" data-participant-2="API"><polygon fill="#181818" points="408.7759,1305.9297,418.7759,1309.9297,408.7759,1313.9297,412.7759,1309.9297" style="stroke:#181818;stroke-width:1;"/><line style="stroke:#181818;stroke-width:1;" x1="242.1533" x2="414.7759" y1="1309.9297" y2="1309.9297"/><text fill="#000000" font-family="sans-serif" font-size="13" lengthAdjust="spacing" textLength="154.6226" x="249.1533" y="1305.0732">DELETE .../ressources/{id}</text></g><g class="message" data-participant-1="API" data-participant-2="BD"><polygon fill="#181818" points="636.7529,1336.2813,646.7529,1340.2813,636.7529,1344.2813,640.7529,1340.2813" style="stroke:#181818;stroke-width:1;"/><line style="stroke:#181818;stroke-width:1;" x1="420.7759" x2="642.7529" y1="1340.2813" y2="1340.2813"/><text fill="#000000" font-family="sans-serif" font-size="13" lengthAdjust="spacing" textLength="62.1563" x="427.7759" y="1335.4248">Soft delete</text></g><g class="message" data-participant-1="API" data-participant-2="Storage"><polygon fill="#181818" points="534.6431,1366.6328,544.6431,1370.6328,534.6431,1374.6328,538.6431,1370.6328" style="stroke:#181818;stroke-width:1;"/><line style="stroke:#181818;stroke-width:1;" x1="420.7759" x2="540.6431" y1="1370.6328" y2="1370.6328"/><text fill="#000000" font-family="sans-serif" font-size="13" lengthAdjust="spacing" textLength="98.2554" x="427.7759" y="1365.7764">Supprimer fichier</text></g><g class="message" data-participant-1="BD" data-participant-2="API"><polygon fill="#181818" points="431.7759,1396.9844,421.7759,1400.9844,431.7759,1404.9844,427.7759,1400.9844" style="stroke:#181818;stroke-width:1;"/><line style="stroke:#181818;stroke-width:1;stroke-dasharray:2.0,2.0;" x1="425.7759" x2="647.7529" y1="1400.9844" y2="1400.9844"/><text fill="#000000" font-family="sans-serif" font-size="13" lengthAdjust="spacing" textLength="55.6372" x="437.7759" y="1396.1279">Supprim&#233;</text></g><g class="message" data-participant-1="API" data-participant-2="Front"><polygon fill="#181818" points="253.1533,1427.3359,243.1533,1431.3359,253.1533,1435.3359,249.1533,1431.3359" style="stroke:#181818;stroke-width:1;"/><line style="stroke:#181818;stroke-width:1;stroke-dasharray:2.0,2.0;" x1="247.1533" x2="419.7759" y1="1431.3359" y2="1431.3359"/><text fill="#000000" font-family="sans-serif" font-size="13" lengthAdjust="spacing" textLength="73.6963" x="259.1533" y="1426.4795">Confirmation</text></g><g class="message" data-participant-1="Front" data-participant-2="Auth"><polygon fill="#181818" points="70.1826,1457.6875,60.1826,1461.6875,70.1826,1465.6875,66.1826,1461.6875" style="stroke:#181818;stroke-width:1;"/><line style="stroke:#181818;stroke-width:1;stroke-dasharray:2.0,2.0;" x1="64.1826" x2="241.1533" y1="1461.6875" y2="1461.6875"/><text fill="#000000" font-family="sans-serif" font-size="13" lengthAdjust="spacing" textLength="102.5972" x="76.1826" y="1456.8311">Ressource retir&#233;e</text></g><!--SRC=[XLJDRjf04BxxAKQvD548t96e1DYDa4ABOkW9ALhi0QQrTztTTTIgwhlaM3-7NoopheqnJjGBMZ4_-_sjBTa4uHwD9IKXHWCQZL6vZlWuWbX5UOhI6iyJaLKQLbfbcih22j88mi0qjqSl4zfIH9cG5Zvf9ItAs1MhSwSwNIsggTMYytTeLVHT7AgDVDPyz69XnKuOX1d_-EWhAP51SSVCzxp911x8MDJdW2SJp-61ku__hXx3D8hA8kQkycKhhvOTVbTUrUIw6SyOxeCrZ4H6exR5StYvFlF740OFmNpjpNouQoOUswln9wDXAirC2w622TUMhCO1s5yP_p8tl6ckTziOzHY-vWZn1vG6qrs25STDbYWHEs8gio1L_emYXpr5HqBj0LpG3SiYmSXvAPbps_OEqLYbWYH31bxD83KTZhnbVXJwmFE9GxwLBXLddNr90Cv5yUjMYCbaIX9JEOrTgdAszbAC-L6H8Tsqm3KBKF5ARlgyf-n3n5GXbyr0Z_NgIzZtjqjycIUMN2v7UwNJEvV0hRnjDZvHtDAlKpg6G6eyC1dT4RmkjwhCZvYI15C7lQlZudCOFAxRE5t0ujVvbEMxX7vmG2PWTOwZlKYCy-O4ZGidXIuSEUs5I9T5MM3VZitZ0zm2oRrwoujsGUkfns-yYkYI-8sMB_2DEvgWfYec5aCuF7stbbMLzQhV10SiqbI17spbCzk-euHiMGpUDtEpXk5mU6Rbw3V5VxgoRbR-T1rSYC5m6xHz6SASlnT_pObRc6UPky9z76jg6gqMPFkivahkIQTCoxHJFU0-Fvbry7_ieTfR5YP1Ys-4hi95QITovoJhUbdqATOm6slUjvg9adPXSMAy0W00]--></g></svg>