<svg xmlns="http://www.w3.org/2000/svg" xmlns:xlink="http://www.w3.org/1999/xlink" contentStyleType="text/css" data-diagram-type="SEQUENCE" height="1028px" preserveAspectRatio="none" style="width:702px;height:1028px;background:#FFFFFF;" version="1.1" viewBox="0 0 702 1028" width="702px" zoomAndPan="magnify"><title>Filtrage des projets par technologie</title><defs/><g><text fill="#000000" font-family="sans-serif" font-size="14" font-weight="bold" lengthAdjust="spacing" textLength="237.2686" x="228.5181" y="29.5332">Filtrage des projets par technologie</text><rect fill="none" height="200.4609" style="stroke:#000000;stroke-width:1.5;" width="675.3047" x="10" y="729.25"/><g><title>Visiteur</title><rect fill="#000000" fill-opacity="0.00000" height="825.4922" width="8" x="42.3413" y="121.2188"/><line style="stroke:#181818;stroke-width:0.5;stroke-dasharray:5.0,5.0;" x1="46" x2="46" y1="121.2188" y2="946.7109"/></g><g><title>Frontend</title><rect fill="#000000" fill-opacity="0.00000" height="825.4922" width="8" x="187.7275" y="121.2188"/><line style="stroke:#181818;stroke-width:0.5;stroke-dasharray:5.0,5.0;" x1="191.7104" x2="191.7104" y1="121.2188" y2="946.7109"/></g><g><title>API</title><rect fill="#000000" fill-opacity="0.00000" height="825.4922" width="8" x="420.9336" y="121.2188"/><line style="stroke:#181818;stroke-width:0.5;stroke-dasharray:5.0,5.0;" x1="424.6509" x2="424.6509" y1="121.2188" y2="946.7109"/></g><g><title>BaseDeDonnees</title><rect fill="#000000" fill-opacity="0.00000" height="825.4922" width="8" x="615.3809" y="121.2188"/><line style="stroke:#181818;stroke-width:0.5;stroke-dasharray:5.0,5.0;" x1="618.457" x2="618.457" y1="121.2188" y2="946.7109"/></g><g class="participant participant-head" data-participant="User"><text fill="#000000" font-family="sans-serif" font-size="14" lengthAdjust="spacing" textLength="46.6826" x="20" y="118.1426">Visiteur</text><ellipse cx="46.3413" cy="52.1094" fill="#E2E2F0" rx="8" ry="8" style="stroke:#181818;stroke-width:0.5;"/><path d="M46.3413,60.1094 L46.3413,87.1094 M33.3413,68.1094 L59.3413,68.1094 M46.3413,87.1094 L33.3413,102.1094 M46.3413,87.1094 L59.3413,102.1094" fill="none" style="stroke:#181818;stroke-width:0.5;"/></g><g class="participant participant-tail" data-participant="User"><text fill="#000000" font-family="sans-serif" font-size="14" lengthAdjust="spacing" textLength="46.6826" x="20" y="960.2441">Visiteur</text><ellipse cx="46.3413" cy="971.8203" fill="#E2E2F0" rx="8" ry="8" style="stroke:#181818;stroke-width:0.5;"/><path d="M46.3413,979.8203 L46.3413,1006.8203 M33.3413,987.8203 L59.3413,987.8203 M46.3413,1006.8203 L33.3413,1021.8203 M46.3413,1006.8203 L59.3413,1021.8203" fill="none" style="stroke:#181818;stroke-width:0.5;"/></g><g class="participant participant-head" data-participant="Front"><rect fill="#E2E2F0" height="31.6094" rx="2.5" ry="2.5" style="stroke:#181818;stroke-width:0.5;" width="70.0342" x="156.7104" y="88.6094"/><text fill="#000000" font-family="sans-serif" font-size="14" lengthAdjust="spacing" textLength="56.0342" x="163.7104" y="110.1426">Frontend</text></g><g class="participant participant-tail" data-participant="Front"><rect fill="#E2E2F0" height="31.6094" rx="2.5" ry="2.5" style="stroke:#181818;stroke-width:0.5;" width="70.0342" x="156.7104" y="945.7109"/><text fill="#000000" font-family="sans-serif" font-size="14" lengthAdjust="spacing" textLength="56.0342" x="163.7104" y="967.2441">Frontend</text></g><g class="participant participant-head" data-participant="API"><rect fill="#E2E2F0" height="31.6094" rx="2.5" ry="2.5" style="stroke:#181818;stroke-width:0.5;" width="36.5654" x="406.6509" y="88.6094"/><text fill="#000000" font-family="sans-serif" font-size="14" lengthAdjust="spacing" textLength="22.5654" x="413.6509" y="110.1426">API</text></g><g class="participant participant-tail" data-participant="API"><rect fill="#E2E2F0" height="31.6094" rx="2.5" ry="2.5" style="stroke:#181818;stroke-width:0.5;" width="36.5654" x="406.6509" y="945.7109"/><text fill="#000000" font-family="sans-serif" font-size="14" lengthAdjust="spacing" textLength="22.5654" x="413.6509" y="967.2441">API</text></g><g class="participant participant-head" data-participant="BD"><text fill="#000000" font-family="sans-serif" font-size="14" lengthAdjust="spacing" textLength="105.8477" x="563.457" y="118.1426">BaseDeDonnees</text><path d="M601.3809,67.6094 C601.3809,57.6094 619.3809,57.6094 619.3809,57.6094 C619.3809,57.6094 637.3809,57.6094 637.3809,67.6094 L637.3809,93.6094 C637.3809,103.6094 619.3809,103.6094 619.3809,103.6094 C619.3809,103.6094 601.3809,103.6094 601.3809,93.6094 L601.3809,67.6094" fill="#E2E2F0" style="stroke:#181818;stroke-width:1.5;"/><path d="M601.3809,67.6094 C601.3809,77.6094 619.3809,77.6094 619.3809,77.6094 C619.3809,77.6094 637.3809,77.6094 637.3809,67.6094" fill="none" style="stroke:#181818;stroke-width:1.5;"/></g><g class="participant participant-tail" data-participant="BD"><text fill="#000000" font-family="sans-serif" font-size="14" lengthAdjust="spacing" textLength="105.8477" x="563.457" y="960.2441">BaseDeDonnees</text><path d="M601.3809,973.3203 C601.3809,963.3203 619.3809,963.3203 619.3809,963.3203 C619.3809,963.3203 637.3809,963.3203 637.3809,973.3203 L637.3809,999.3203 C637.3809,1009.3203 619.3809,1009.3203 619.3809,1009.3203 C619.3809,1009.3203 601.3809,1009.3203 601.3809,999.3203 L601.3809,973.3203" fill="#E2E2F0" style="stroke:#181818;stroke-width:1.5;"/><path d="M601.3809,973.3203 C601.3809,983.3203 619.3809,983.3203 619.3809,983.3203 C619.3809,983.3203 637.3809,983.3203 637.3809,973.3203" fill="none" style="stroke:#181818;stroke-width:1.5;"/></g><rect fill="#EEEEEE" height="3" style="stroke:#EEEEEE;stroke-width:1;" width="695.3047" x="0" y="152.3945"/><line style="stroke:#000000;stroke-width:1;" x1="0" x2="695.3047" y1="152.3945" y2="152.3945"/><line style="stroke:#000000;stroke-width:1;" x1="0" x2="695.3047" y1="155.3945" y2="155.3945"/><rect fill="#EEEEEE" height="24.3516" style="stroke:#000000;stroke-width:2;" width="84.0654" x="305.6196" y="141.2188"/><text fill="#000000" font-family="sans-serif" font-size="13" font-weight="bold" lengthAdjust="spacing" textLength="66.4536" x="311.6196" y="158.7139">Navigation</text><g class="message" data-participant-1="User" data-participant-2="Front"><polygon fill="#181818" points="179.7275,210.2734,189.7275,214.2734,179.7275,218.2734,183.7275,214.2734" style="stroke:#181818;stroke-width:1;"/><line style="stroke:#181818;stroke-width:1;" x1="46.3413" x2="185.7275" y1="214.2734" y2="214.2734"/><text fill="#000000" font-family="sans-serif" font-size="13" lengthAdjust="spacing" textLength="104.7935" x="53.3413" y="193.0654">Acc&#233;der &#224; la page</text><text fill="#000000" font-family="sans-serif" font-size="13" lengthAdjust="spacing" textLength="49.6895" x="53.3413" y="209.417">"Projets"</text></g><g class="message" data-participant-1="Front" data-participant-2="API"><polygon fill="#181818" points="412.9336,243.625,422.9336,247.625,412.9336,251.625,416.9336,247.625" style="stroke:#181818;stroke-width:1;"/><line style="stroke:#181818;stroke-width:1;" x1="191.7275" x2="418.9336" y1="247.625" y2="247.625"/><text fill="#000000" font-family="sans-serif" font-size="13" lengthAdjust="spacing" textLength="93.9263" x="198.7275" y="242.7686">GET /api/projets</text></g><path d="M429,227.2734 L429,253.2734 L546,253.2734 L546,237.2734 L536,227.2734 L429,227.2734" fill="#FEFFDD" style="stroke:#181818;stroke-width:0.5;"/><path d="M536,227.2734 L536,237.2734 L546,237.2734 L536,227.2734" fill="#FEFFDD" style="stroke:#181818;stroke-width:0.5;"/><text fill="#000000" font-family="sans-serif" font-size="13" lengthAdjust="spacing" textLength="96.4844" x="435" y="245.7686">est_publie = true</text><g class="message" data-participant-1="API" data-participant-2="BD"><polygon fill="#181818" points="607.3809,276.9766,617.3809,280.9766,607.3809,284.9766,611.3809,280.9766" style="stroke:#181818;stroke-width:1;"/><line style="stroke:#181818;stroke-width:1;" x1="424.9336" x2="613.3809" y1="280.9766" y2="280.9766"/><text fill="#000000" font-family="sans-serif" font-size="13" lengthAdjust="spacing" textLength="76.2163" x="431.9336" y="276.1201">SELECT + tri</text></g><g class="message" data-participant-1="BD" data-participant-2="API"><polygon fill="#181818" points="435.9336,307.3281,425.9336,311.3281,435.9336,315.3281,431.9336,311.3281" style="stroke:#181818;stroke-width:1;"/><line style="stroke:#181818;stroke-width:1;stroke-dasharray:2.0,2.0;" x1="429.9336" x2="618.3809" y1="311.3281" y2="311.3281"/><text fill="#000000" font-family="sans-serif" font-size="13" lengthAdjust="spacing" textLength="70.0908" x="441.9336" y="306.4717">Liste projets</text></g><g class="message" data-participant-1="API" data-participant-2="Front"><polygon fill="#181818" points="202.7275,337.6797,192.7275,341.6797,202.7275,345.6797,198.7275,341.6797" style="stroke:#181818;stroke-width:1;"/><line style="stroke:#181818;stroke-width:1;stroke-dasharray:2.0,2.0;" x1="196.7275" x2="423.9336" y1="341.6797" y2="341.6797"/><text fill="#000000" font-family="sans-serif" font-size="13" lengthAdjust="spacing" textLength="128.2734" x="208.7275" y="336.8232">Projets + technologies</text></g><g class="message" data-participant-1="Front" data-participant-2="User"><polygon fill="#181818" points="57.3413,368.0313,47.3413,372.0313,57.3413,376.0313,53.3413,372.0313" style="stroke:#181818;stroke-width:1;"/><line style="stroke:#181818;stroke-width:1;stroke-dasharray:2.0,2.0;" x1="51.3413" x2="190.7275" y1="372.0313" y2="372.0313"/><text fill="#000000" font-family="sans-serif" font-size="13" lengthAdjust="spacing" textLength="97.5381" x="63.3413" y="367.1748">Grille des projets</text></g><rect fill="#EEEEEE" height="3" style="stroke:#EEEEEE;stroke-width:1;" width="695.3047" x="0" y="401.207"/><line style="stroke:#000000;stroke-width:1;" x1="0" x2="695.3047" y1="401.207" y2="401.207"/><line style="stroke:#000000;stroke-width:1;" x1="0" x2="695.3047" y1="404.207" y2="404.207"/><rect fill="#EEEEEE" height="24.3516" style="stroke:#000000;stroke-width:2;" width="64.5654" x="315.3696" y="390.0313"/><text fill="#000000" font-family="sans-serif" font-size="13" font-weight="bold" lengthAdjust="spacing" textLength="46.9536" x="321.3696" y="407.5264">Filtrage</text><g class="message" data-participant-1="User" data-participant-2="Front"><polygon fill="#181818" points="179.7275,459.0859,189.7275,463.0859,179.7275,467.0859,183.7275,463.0859" style="stroke:#181818;stroke-width:1;"/><line style="stroke:#181818;stroke-width:1;" x1="46.3413" x2="185.7275" y1="463.0859" y2="463.0859"/><text fill="#000000" font-family="sans-serif" font-size="13" lengthAdjust="spacing" textLength="80.9263" x="53.3413" y="441.8779">Cliquer sur un</text><text fill="#000000" font-family="sans-serif" font-size="13" lengthAdjust="spacing" textLength="95.4053" x="53.3413" y="458.2295">technologie / tag</text></g><g class="message" data-participant-1="Front" data-participant-2="API"><polygon fill="#181818" points="412.9336,500.6133,422.9336,504.6133,412.9336,508.6133,416.9336,504.6133" style="stroke:#181818;stroke-width:1;"/><line style="stroke:#181818;stroke-width:1;" x1="191.7275" x2="418.9336" y1="504.6133" y2="504.6133"/><text fill="#000000" font-family="sans-serif" font-size="13" lengthAdjust="spacing" textLength="209.2061" x="198.7275" y="499.7568">GET /api/projets?technologie=React</text></g><path d="M429,476.0859 L429,518.0859 L568,518.0859 L568,486.0859 L558,476.0859 L429,476.0859" fill="#FEFFDD" style="stroke:#181818;stroke-width:0.5;"/><path d="M558,476.0859 L558,486.0859 L568,486.0859 L558,476.0859" fill="#FEFFDD" style="stroke:#181818;stroke-width:0.5;"/><text fill="#000000" font-family="sans-serif" font-size="13" lengthAdjust="spacing" textLength="118.4917" x="435" y="494.5811">Filtrage c&#244;t&#233; serveur</text><text fill="#000000" font-family="sans-serif" font-size="13" lengthAdjust="spacing" textLength="82.3481" x="435" y="510.9326">(JSON / LIKE)</text><g class="message" data-participant-1="API" data-participant-2="BD"><polygon fill="#181818" points="607.3809,558.4922,617.3809,562.4922,607.3809,566.4922,611.3809,562.4922" style="stroke:#181818;stroke-width:1;"/><line style="stroke:#181818;stroke-width:1;" x1="424.9336" x2="613.3809" y1="562.4922" y2="562.4922"/><text fill="#000000" font-family="sans-serif" font-size="13" lengthAdjust="spacing" textLength="102.5718" x="431.9336" y="541.2842">SELECT WHERE</text><text fill="#000000" font-family="sans-serif" font-size="13" lengthAdjust="spacing" textLength="170.4473" x="431.9336" y="557.6357">technologies LIKE '%React%'</text></g><g class="message" data-participant-1="BD" data-participant-2="API"><polygon fill="#181818" points="435.9336,588.8438,425.9336,592.8438,435.9336,596.8438,431.9336,592.8438" style="stroke:#181818;stroke-width:1;"/><line style="stroke:#181818;stroke-width:1;stroke-dasharray:2.0,2.0;" x1="429.9336" x2="618.3809" y1="592.8438" y2="592.8438"/><text fill="#000000" font-family="sans-serif" font-size="13" lengthAdjust="spacing" textLength="75.1309" x="441.9336" y="587.9873">Projets filtr&#233;s</text></g><g class="message" data-participant-1="API" data-participant-2="Front"><polygon fill="#181818" points="202.7275,619.1953,192.7275,623.1953,202.7275,627.1953,198.7275,623.1953" style="stroke:#181818;stroke-width:1;"/><line style="stroke:#181818;stroke-width:1;stroke-dasharray:2.0,2.0;" x1="196.7275" x2="423.9336" y1="623.1953" y2="623.1953"/><text fill="#000000" font-family="sans-serif" font-size="13" lengthAdjust="spacing" textLength="54.1899" x="208.7275" y="618.3389">R&#233;sultats</text></g><g class="message" data-participant-1="Front" data-participant-2="User"><polygon fill="#181818" points="57.3413,665.8984,47.3413,669.8984,57.3413,673.8984,53.3413,669.8984" style="stroke:#181818;stroke-width:1;"/><line style="stroke:#181818;stroke-width:1;stroke-dasharray:2.0,2.0;" x1="51.3413" x2="190.7275" y1="669.8984" y2="669.8984"/><text fill="#000000" font-family="sans-serif" font-size="13" lengthAdjust="spacing" textLength="100.4199" x="63.3413" y="648.6904">Projets mis &#224; jour</text><text fill="#000000" font-family="sans-serif" font-size="13" lengthAdjust="spacing" textLength="121.3862" x="63.3413" y="665.042">(animation transition)</text></g><rect fill="#EEEEEE" height="3" style="stroke:#EEEEEE;stroke-width:1;" width="695.3047" x="0" y="699.0742"/><line style="stroke:#000000;stroke-width:1;" x1="0" x2="695.3047" y1="699.0742" y2="699.0742"/><line style="stroke:#000000;stroke-width:1;" x1="0" x2="695.3047" y1="702.0742" y2="702.0742"/><rect fill="#EEEEEE" height="24.3516" style="stroke:#000000;stroke-width:2;" width="136.77" x="279.2673" y="687.8984"/><text fill="#000000" font-family="sans-serif" font-size="13" font-weight="bold" lengthAdjust="spacing" textLength="119.1582" x="285.2673" y="705.3936">Consultation projet</text><path d="M10,729.25 L75.2109,729.25 L75.2109,737.6016 L65.2109,747.6016 L10,747.6016 L10,729.25" fill="#EEEEEE" style="stroke:#000000;stroke-width:1.5;"/><rect fill="none" height="200.4609" style="stroke:#000000;stroke-width:1.5;" width="675.3047" x="10" y="729.25"/><text fill="#000000" font-family="sans-serif" font-size="13" font-weight="bold" lengthAdjust="spacing" textLength="20.2109" x="25" y="743.7451">opt</text><text fill="#000000" font-family="sans-serif" font-size="11" font-weight="bold" lengthAdjust="spacing" textLength="55.0107" x="90.2109" y="742.6689">[s&#233;lection]</text><g class="message" data-participant-1="User" data-participant-2="Front"><polygon fill="#181818" points="179.7275,765.9531,189.7275,769.9531,179.7275,773.9531,183.7275,769.9531" style="stroke:#181818;stroke-width:1;"/><line style="stroke:#181818;stroke-width:1;" x1="46.3413" x2="185.7275" y1="769.9531" y2="769.9531"/><text fill="#000000" font-family="sans-serif" font-size="13" lengthAdjust="spacing" textLength="117.0571" x="53.3413" y="765.0967">Cliquer sur un projet</text></g><g class="message" data-participant-1="Front" data-participant-2="API"><polygon fill="#181818" points="412.9336,796.3047,422.9336,800.3047,412.9336,804.3047,416.9336,800.3047" style="stroke:#181818;stroke-width:1;"/><line style="stroke:#181818;stroke-width:1;" x1="191.7275" x2="418.9336" y1="800.3047" y2="800.3047"/><text fill="#000000" font-family="sans-serif" font-size="13" lengthAdjust="spacing" textLength="119.9453" x="198.7275" y="795.4482">GET .../projets/{slug}</text></g><g class="message" data-participant-1="API" data-participant-2="BD"><polygon fill="#181818" points="607.3809,826.6563,617.3809,830.6563,607.3809,834.6563,611.3809,830.6563" style="stroke:#181818;stroke-width:1;"/><line style="stroke:#181818;stroke-width:1;" x1="424.9336" x2="613.3809" y1="830.6563" y2="830.6563"/><text fill="#000000" font-family="sans-serif" font-size="13" lengthAdjust="spacing" textLength="107.2944" x="431.9336" y="825.7998">SELECT + m&#233;dias</text></g><g class="message" data-participant-1="BD" data-participant-2="API"><polygon fill="#181818" points="435.9336,857.0078,425.9336,861.0078,435.9336,865.0078,431.9336,861.0078" style="stroke:#181818;stroke-width:1;"/><line style="stroke:#181818;stroke-width:1;stroke-dasharray:2.0,2.0;" x1="429.9336" x2="618.3809" y1="861.0078" y2="861.0078"/><text fill="#000000" font-family="sans-serif" font-size="13" lengthAdjust="spacing" textLength="69.3672" x="441.9336" y="856.1514">D&#233;tail projet</text></g><g class="message" data-participant-1="API" data-participant-2="Front"><polygon fill="#181818" points="202.7275,887.3594,192.7275,891.3594,202.7275,895.3594,198.7275,891.3594" style="stroke:#181818;stroke-width:1;"/><line style="stroke:#181818;stroke-width:1;stroke-dasharray:2.0,2.0;" x1="196.7275" x2="423.9336" y1="891.3594" y2="891.3594"/><text fill="#000000" font-family="sans-serif" font-size="13" lengthAdjust="spacing" textLength="138.0171" x="208.7275" y="886.5029">Projet + m&#233;dias + d&#233;mo</text></g><g class="message" data-participant-1="Front" data-participant-2="User"><polygon fill="#181818" points="57.3413,917.7109,47.3413,921.7109,57.3413,925.7109,53.3413,921.7109" style="stroke:#181818;stroke-width:1;"/><line style="stroke:#181818;stroke-width:1;stroke-dasharray:2.0,2.0;" x1="51.3413" x2="190.7275" y1="921.7109" y2="921.7109"/><text fill="#000000" font-family="sans-serif" font-size="13" lengthAdjust="spacing" textLength="73.0107" x="63.3413" y="916.8545">Page d&#233;di&#233;e</text></g><!--SRC=[XLF1Rjim3BthAuW2HLSCJUu1lA69tQrRq1Lfjrq23AhDkImKoPFeNeRzoww-xm_yOwFik4wGOBjOWXx9z_X8Cx51k2B3NfS81GQel7j2bbDxOCmVhJEk95HAv-myVA50ZBK77U1pGAyaZYcdIbk6A-yieoqYsDttqClRwmZ8eGhD-a47XBbyKaoTjIZSWivJfP84RlGpbPh9MKWI5OdWuarVSmQNUTusXJorly5eKLhYsfxSzi9FL1SLmuLf1k-oUvZgYgRRnfHrZE2fV9HA6FXRLJyOGaY0VOqgYfJKUJg3ksoPBUxXjG2avYbS32MN5AJ4KA_B6CLjPSIqqRqmY9Aus8p8ycJCdkDTto-ZEEnwOUX7BIz1pA_jskwKXocmBl_J-DkTX6I5CiuzArwOy_OFjmq8-RFCUMrVVRZxT2CCo-kFsVaHVxw-prRPdfpGnSBPQSToUhPdtk3FzyZNDWV-hUIjDgpvqBCXTKCXZlx9TVAqfKs_AQBVodRAzRmpS-5iNog2lGlHLrSnXBOnc4T00VpJw6sYX1tQEvbC1dUdFuEforyITco3DhAlf8EWkrQaRSEQpCXmT9N6TBaLRRDnevRHckxtZM5jWqf-GVKN]--></g></svg>