<svg xmlns="http://www.w3.org/2000/svg" xmlns:xlink="http://www.w3.org/1999/xlink" contentStyleType="text/css" data-diagram-type="SEQUENCE" height="1240px" preserveAspectRatio="none" style="width:1009px;height:1240px;background:#FFFFFF;" version="1.1" viewBox="0 0 1009 1240" width="1009px" zoomAndPan="magnify"><title>Gestion des exp&#233;riences professionnelles</title><defs/><g><text fill="#000000" font-family="sans-serif" font-size="14" font-weight="bold" lengthAdjust="spacing" textLength="280.1094" x="358.1443" y="29.5332">Gestion des exp&#233;riences professionnelles</text><g><title>Visiteur</title><rect fill="#000000" fill-opacity="0.00000" height="1037.25" width="8" x="27.3413" y="121.2188"/><line style="stroke:#181818;stroke-width:0.5;stroke-dasharray:5.0,5.0;" x1="31" x2="31" y1="121.2188" y2="1158.4688"/></g><g><title>Proprietaire</title><rect fill="#000000" fill-opacity="0.00000" height="1037.25" width="8" x="102.8652" y="121.2188"/><line style="stroke:#181818;stroke-width:0.5;stroke-dasharray:5.0,5.0;" x1="106.6826" x2="106.6826" y1="121.2188" y2="1158.4688"/></g><g><title>Front</title><rect fill="#000000" fill-opacity="0.00000" height="1037.25" width="8" x="279.3423" y="121.2188"/><line style="stroke:#181818;stroke-width:0.5;stroke-dasharray:5.0,5.0;" x1="282.8423" x2="282.8423" y1="121.2188" y2="1158.4688"/></g><g><title>API</title><rect fill="#000000" fill-opacity="0.00000" height="1037.25" width="8" x="554.0747" y="121.2188"/><line style="stroke:#181818;stroke-width:0.5;stroke-dasharray:5.0,5.0;" x1="558.0747" x2="558.0747" y1="121.2188" y2="1158.4688"/></g><g><title>BD</title><rect fill="#000000" fill-opacity="0.00000" height="1037.25" width="8" x="970.3979" y="121.2188"/><line style="stroke:#181818;stroke-width:0.5;stroke-dasharray:5.0,5.0;" x1="974.3979" x2="974.3979" y1="121.2188" y2="1158.4688"/></g><g class="participant participant-head" data-participant="V"><text fill="#000000" font-family="sans-serif" font-size="14" lengthAdjust="spacing" textLength="46.6826" x="5" y="118.1426">Visiteur</text><ellipse cx="31.3413" cy="52.1094" fill="#E2E2F0" rx="8" ry="8" style="stroke:#181818;stroke-width:0.5;"/><path d="M31.3413,60.1094 L31.3413,87.1094 M18.3413,68.1094 L44.3413,68.1094 M31.3413,87.1094 L18.3413,102.1094 M31.3413,87.1094 L44.3413,102.1094" fill="none" style="stroke:#181818;stroke-width:0.5;"/></g><g class="participant participant-tail" data-participant="V"><text fill="#000000" font-family="sans-serif" font-size="14" lengthAdjust="spacing" textLength="46.6826" x="5" y="1172.002">Visiteur</text><ellipse cx="31.3413" cy="1183.5781" fill="#E2E2F0" rx="8" ry="8" style="stroke:#181818;stroke-width:0.5;"/><path d="M31.3413,1191.5781 L31.3413,1218.5781 M18.3413,1199.5781 L44.3413,1199.5781 M31.3413,1218.5781 L18.3413,1233.5781 M31.3413,1218.5781 L44.3413,1233.5781" fill="none" style="stroke:#181818;stroke-width:0.5;"/></g><g class="participant participant-head" data-participant="Auth"><text fill="#000000" font-family="sans-serif" font-size="14" lengthAdjust="spacing" textLength="72.3652" x="67.6826" y="118.1426">Proprietaire</text><ellipse cx="106.8652" cy="52.1094" fill="#E2E2F0" rx="8" ry="8" style="stroke:#181818;stroke-width:0.5;"/><path d="M106.8652,60.1094 L106.8652,87.1094 M93.8652,68.1094 L119.8652,68.1094 M106.8652,87.1094 L93.8652,102.1094 M106.8652,87.1094 L119.8652,102.1094" fill="none" style="stroke:#181818;stroke-width:0.5;"/></g><g class="participant participant-tail" data-participant="Auth"><text fill="#000000" font-family="sans-serif" font-size="14" lengthAdjust="spacing" textLength="72.3652" x="67.6826" y="1172.002">Proprietaire</text><ellipse cx="106.8652" cy="1183.5781" fill="#E2E2F0" rx="8" ry="8" style="stroke:#181818;stroke-width:0.5;"/><path d="M106.8652,1191.5781 L106.8652,1218.5781 M93.8652,1199.5781 L119.8652,1199.5781 M106.8652,1218.5781 L93.8652,1233.5781 M106.8652,1218.5781 L119.8652,1233.5781" fill="none" style="stroke:#181818;stroke-width:0.5;"/></g><g class="participant participant-head" data-participant="F"><text fill="#000000" font-family="sans-serif" font-size="14" lengthAdjust="spacing" textLength="32.6758" x="264.0044" y="118.1426">Front</text><path d="M262.8423,75.6094 L262.8423,99.6094 M262.8423,87.6094 L279.8423,87.6094" fill="none" style="stroke:#181818;stroke-width:0.5;"/><ellipse cx="291.8423" cy="87.6094" fill="#E2E2F0" rx="12" ry="12" style="stroke:#181818;stroke-width:0.5;"/></g><g class="participant participant-tail" data-participant="F"><text fill="#000000" font-family="sans-serif" font-size="14" lengthAdjust="spacing" textLength="32.6758" x="264.0044" y="1172.002">Front</text><path d="M262.8423,1179.0781 L262.8423,1203.0781 M262.8423,1191.0781 L279.8423,1191.0781" fill="none" style="stroke:#181818;stroke-width:0.5;"/><ellipse cx="291.8423" cy="1191.0781" fill="#E2E2F0" rx="12" ry="12" style="stroke:#181818;stroke-width:0.5;"/></g><g class="participant participant-head" data-participant="API"><text fill="#000000" font-family="sans-serif" font-size="14" lengthAdjust="spacing" textLength="22.5654" x="543.792" y="118.1426">API</text><ellipse cx="558.0747" cy="87.6094" fill="#E2E2F0" rx="12" ry="12" style="stroke:#181818;stroke-width:0.5;"/><polygon fill="#181818" points="554.0747,75.6094,560.0747,70.6094,558.0747,75.6094,560.0747,80.6094,554.0747,75.6094" style="stroke:#181818;stroke-width:1;"/></g><g class="participant participant-tail" data-participant="API"><text fill="#000000" font-family="sans-serif" font-size="14" lengthAdjust="spacing" textLength="22.5654" x="543.792" y="1172.002">API</text><ellipse cx="558.0747" cy="1191.0781" fill="#E2E2F0" rx="12" ry="12" style="stroke:#181818;stroke-width:0.5;"/><polygon fill="#181818" points="554.0747,1179.0781,560.0747,1174.0781,558.0747,1179.0781,560.0747,1184.0781,554.0747,1179.0781" style="stroke:#181818;stroke-width:1;"/></g><g class="participant participant-head" data-participant="BD"><text fill="#000000" font-family="sans-serif" font-size="14" lengthAdjust="spacing" textLength="19.4482" x="961.6738" y="118.1426">BD</text><path d="M956.3979,67.6094 C956.3979,57.6094 974.3979,57.6094 974.3979,57.6094 C974.3979,57.6094 992.3979,57.6094 992.3979,67.6094 L992.3979,93.6094 C992.3979,103.6094 974.3979,103.6094 974.3979,103.6094 C974.3979,103.6094 956.3979,103.6094 956.3979,93.6094 L956.3979,67.6094" fill="#E2E2F0" style="stroke:#181818;stroke-width:1.5;"/><path d="M956.3979,67.6094 C956.3979,77.6094 974.3979,77.6094 974.3979,77.6094 C974.3979,77.6094 992.3979,77.6094 992.3979,67.6094" fill="none" style="stroke:#181818;stroke-width:1.5;"/></g><g class="participant participant-tail" data-participant="BD"><text fill="#000000" font-family="sans-serif" font-size="14" lengthAdjust="spacing" textLength="19.4482" x="961.6738" y="1172.002">BD</text><path d="M956.3979,1185.0781 C956.3979,1175.0781 974.3979,1175.0781 974.3979,1175.0781 C974.3979,1175.0781 992.3979,1175.0781 992.3979,1185.0781 L992.3979,1211.0781 C992.3979,1221.0781 974.3979,1221.0781 974.3979,1221.0781 C974.3979,1221.0781 956.3979,1221.0781 956.3979,1211.0781 L956.3979,1185.0781" fill="#E2E2F0" style="stroke:#181818;stroke-width:1.5;"/><path d="M956.3979,1185.0781 C956.3979,1195.0781 974.3979,1195.0781 974.3979,1195.0781 C974.3979,1195.0781 992.3979,1195.0781 992.3979,1185.0781" fill="none" style="stroke:#181818;stroke-width:1.5;"/></g><rect fill="#EEEEEE" height="3" style="stroke:#EEEEEE;stroke-width:1;" width="997.3979" x="0" y="152.3945"/><line style="stroke:#000000;stroke-width:1;" x1="0" x2="997.3979" y1="152.3945" y2="152.3945"/><line style="stroke:#000000;stroke-width:1;" x1="0" x2="997.3979" y1="155.3945" y2="155.3945"/><rect fill="#EEEEEE" height="24.3516" style="stroke:#000000;stroke-width:2;" width="163.4746" x="416.9617" y="141.2188"/><text fill="#000000" font-family="sans-serif" font-size="13" font-weight="bold" lengthAdjust="spacing" textLength="145.8628" x="422.9617" y="158.7139">Consultation (publique)</text><g class="message" data-participant-1="V" data-participant-2="F"><polygon fill="#181818" points="271.3423,193.9219,281.3423,197.9219,271.3423,201.9219,275.3423,197.9219" style="stroke:#181818;stroke-width:1;"/><line style="stroke:#181818;stroke-width:1;" x1="31.3413" x2="277.3423" y1="197.9219" y2="197.9219"/><text fill="#000000" font-family="sans-serif" font-size="13" lengthAdjust="spacing" textLength="186.7607" x="38.3413" y="193.0654">Navigation page d'accueil / profil</text></g><g class="message" data-participant-1="F" data-participant-2="API"><polygon fill="#181818" points="546.0747,227.2734,556.0747,231.2734,546.0747,235.2734,550.0747,231.2734" style="stroke:#181818;stroke-width:1;"/><line style="stroke:#181818;stroke-width:1;" x1="283.3423" x2="552.0747" y1="231.2734" y2="231.2734"/><text fill="#000000" font-family="sans-serif" font-size="13" lengthAdjust="spacing" textLength="125.0044" x="290.3423" y="226.417">GET /api/experiences</text></g><path d="M563,210.9219 L563,236.9219 L647,236.9219 L647,220.9219 L637,210.9219 L563,210.9219" fill="#FEFFDD" style="stroke:#181818;stroke-width:0.5;"/><path d="M637,210.9219 L637,220.9219 L647,220.9219 L637,210.9219" fill="#FEFFDD" style="stroke:#181818;stroke-width:0.5;"/><text fill="#000000" font-family="sans-serif" font-size="13" lengthAdjust="spacing" textLength="63.5781" x="569" y="229.417">Acc&#232;s libre</text><g class="message" data-participant-1="API" data-participant-2="BD"><polygon fill="#181818" points="962.3979,260.625,972.3979,264.625,962.3979,268.625,966.3979,264.625" style="stroke:#181818;stroke-width:1;"/><line style="stroke:#181818;stroke-width:1;" x1="558.0747" x2="968.3979" y1="264.625" y2="264.625"/><text fill="#000000" font-family="sans-serif" font-size="13" lengthAdjust="spacing" textLength="392.3232" x="565.0747" y="259.7686">SELECT * FROM experiences ORDER BY ordre, date_debut DESC</text></g><g class="message" data-participant-1="BD" data-participant-2="API"><polygon fill="#181818" points="569.0747,290.9766,559.0747,294.9766,569.0747,298.9766,565.0747,294.9766" style="stroke:#181818;stroke-width:1;"/><line style="stroke:#181818;stroke-width:1;stroke-dasharray:2.0,2.0;" x1="563.0747" x2="973.3979" y1="294.9766" y2="294.9766"/><text fill="#000000" font-family="sans-serif" font-size="13" lengthAdjust="spacing" textLength="125.7407" x="575.0747" y="290.1201">Liste des exp&#233;riences</text></g><g class="message" data-participant-1="API" data-participant-2="F"><polygon fill="#181818" points="294.3423,321.3281,284.3423,325.3281,294.3423,329.3281,290.3423,325.3281" style="stroke:#181818;stroke-width:1;"/><line style="stroke:#181818;stroke-width:1;stroke-dasharray:2.0,2.0;" x1="288.3423" x2="557.0747" y1="325.3281" y2="325.3281"/><text fill="#000000" font-family="sans-serif" font-size="13" lengthAdjust="spacing" textLength="231.2388" x="300.3423" y="320.4717">JSON [{titre, entreprise, date_debut, ...}]</text></g><g class="message" data-participant-1="F" data-participant-2="V"><polygon fill="#181818" points="42.3413,351.6797,32.3413,355.6797,42.3413,359.6797,38.3413,355.6797" style="stroke:#181818;stroke-width:1;"/><line style="stroke:#181818;stroke-width:1;stroke-dasharray:2.0,2.0;" x1="36.3413" x2="282.3423" y1="355.6797" y2="355.6797"/><text fill="#000000" font-family="sans-serif" font-size="13" lengthAdjust="spacing" textLength="102.6099" x="48.3413" y="350.8232">Affichage timeline</text></g><rect fill="#EEEEEE" height="3" style="stroke:#EEEEEE;stroke-width:1;" width="997.3979" x="0" y="384.8555"/><line style="stroke:#000000;stroke-width:1;" x1="0" x2="997.3979" y1="384.8555" y2="384.8555"/><line style="stroke:#000000;stroke-width:1;" x1="0" x2="997.3979" y1="387.8555" y2="387.8555"/><rect fill="#EEEEEE" height="24.3516" style="stroke:#000000;stroke-width:2;" width="144" x="426.699" y="373.6797"/><text fill="#000000" font-family="sans-serif" font-size="13" font-weight="bold" lengthAdjust="spacing" textLength="126.3882" x="432.699" y="391.1748">Gestion (authentifi&#233;)</text><g class="message" data-participant-1="Auth" data-participant-2="F"><polygon fill="#181818" points="271.3423,426.3828,281.3423,430.3828,271.3423,434.3828,275.3423,430.3828" style="stroke:#181818;stroke-width:1;"/><line style="stroke:#181818;stroke-width:1;" x1="106.8652" x2="277.3423" y1="430.3828" y2="430.3828"/><text fill="#000000" font-family="sans-serif" font-size="13" lengthAdjust="spacing" textLength="137.3062" x="113.8652" y="425.5264">Dashboard exp&#233;riences</text></g><g class="message" data-participant-1="F" data-participant-2="API"><polygon fill="#181818" points="546.0747,459.7344,556.0747,463.7344,546.0747,467.7344,550.0747,463.7344" style="stroke:#181818;stroke-width:1;"/><line style="stroke:#181818;stroke-width:1;" x1="283.3423" x2="552.0747" y1="463.7344" y2="463.7344"/><text fill="#000000" font-family="sans-serif" font-size="13" lengthAdjust="spacing" textLength="125.0044" x="290.3423" y="458.8779">GET /api/experiences</text></g><path d="M563,443.3828 L563,469.3828 L722,469.3828 L722,453.3828 L712,443.3828 L563,443.3828" fill="#FEFFDD" style="stroke:#181818;stroke-width:0.5;"/><path d="M712,443.3828 L712,453.3828 L722,453.3828 L712,443.3828" fill="#FEFFDD" style="stroke:#181818;stroke-width:0.5;"/><text fill="#000000" font-family="sans-serif" font-size="13" lengthAdjust="spacing" textLength="138.7471" x="569" y="461.8779">Proprietaire uniquement</text><g class="message" data-participant-1="API" data-participant-2="BD"><polygon fill="#181818" points="962.3979,493.0859,972.3979,497.0859,962.3979,501.0859,966.3979,497.0859" style="stroke:#181818;stroke-width:1;"/><line style="stroke:#181818;stroke-width:1;" x1="558.0747" x2="968.3979" y1="497.0859" y2="497.0859"/><text fill="#000000" font-family="sans-serif" font-size="13" lengthAdjust="spacing" textLength="65.019" x="565.0747" y="492.2295">SELECT ...</text></g><g class="message" data-participant-1="BD" data-participant-2="API"><polygon fill="#181818" points="569.0747,523.4375,559.0747,527.4375,569.0747,531.4375,565.0747,527.4375" style="stroke:#181818;stroke-width:1;"/><line style="stroke:#181818;stroke-width:1;stroke-dasharray:2.0,2.0;" x1="563.0747" x2="973.3979" y1="527.4375" y2="527.4375"/><text fill="#000000" font-family="sans-serif" font-size="13" lengthAdjust="spacing" textLength="83.8208" x="575.0747" y="522.5811">Liste compl&#232;te</text></g><g class="message" data-participant-1="API" data-participant-2="F"><polygon fill="#181818" points="294.3423,553.7891,284.3423,557.7891,294.3423,561.7891,290.3423,557.7891" style="stroke:#181818;stroke-width:1;"/><line style="stroke:#181818;stroke-width:1;stroke-dasharray:2.0,2.0;" x1="288.3423" x2="557.0747" y1="557.7891" y2="557.7891"/><text fill="#000000" font-family="sans-serif" font-size="13" lengthAdjust="spacing" textLength="34.6709" x="300.3423" y="552.9326">JSON</text></g><g class="message" data-participant-1="F" data-participant-2="Auth"><polygon fill="#181818" points="117.8652,584.1406,107.8652,588.1406,117.8652,592.1406,113.8652,588.1406" style="stroke:#181818;stroke-width:1;"/><line style="stroke:#181818;stroke-width:1;stroke-dasharray:2.0,2.0;" x1="111.8652" x2="282.3423" y1="588.1406" y2="588.1406"/><text fill="#000000" font-family="sans-serif" font-size="13" lengthAdjust="spacing" textLength="125.728" x="123.8652" y="583.2842">Formulaire de gestion</text></g><g class="message" data-participant-1="Auth" data-participant-2="F"><polygon fill="#181818" points="271.3423,614.4922,281.3423,618.4922,271.3423,622.4922,275.3423,618.4922" style="stroke:#181818;stroke-width:1;"/><line style="stroke:#181818;stroke-width:1;" x1="106.8652" x2="277.3423" y1="618.4922" y2="618.4922"/><text fill="#000000" font-family="sans-serif" font-size="13" lengthAdjust="spacing" textLength="125.0171" x="113.8652" y="613.6357">Cr&#233;er une exp&#233;rience</text></g><g class="message" data-participant-1="F" data-participant-2="API"><polygon fill="#181818" points="546.0747,647.8438,556.0747,651.8438,546.0747,655.8438,550.0747,651.8438" style="stroke:#181818;stroke-width:1;"/><line style="stroke:#181818;stroke-width:1;" x1="283.3423" x2="552.0747" y1="651.8438" y2="651.8438"/><text fill="#000000" font-family="sans-serif" font-size="13" lengthAdjust="spacing" textLength="250.7324" x="290.3423" y="646.9873">POST /api/experiences {titre, entreprise, ...}</text></g><path d="M563,631.4922 L563,657.4922 L736,657.4922 L736,641.4922 L726,631.4922 L563,631.4922" fill="#FEFFDD" style="stroke:#181818;stroke-width:0.5;"/><path d="M726,631.4922 L726,641.4922 L736,641.4922 L726,631.4922" fill="#FEFFDD" style="stroke:#181818;stroke-width:0.5;"/><text fill="#000000" font-family="sans-serif" font-size="13" lengthAdjust="spacing" textLength="152.4644" x="569" y="649.9873">Auth requis (Bearer token)</text><g class="message" data-participant-1="API" data-participant-2="BD"><polygon fill="#181818" points="962.3979,681.1953,972.3979,685.1953,962.3979,689.1953,966.3979,685.1953" style="stroke:#181818;stroke-width:1;"/><line style="stroke:#181818;stroke-width:1;" x1="558.0747" x2="968.3979" y1="685.1953" y2="685.1953"/><text fill="#000000" font-family="sans-serif" font-size="13" lengthAdjust="spacing" textLength="156.0444" x="565.0747" y="680.3389">INSERT INTO experiences</text></g><g class="message" data-participant-1="BD" data-participant-2="API"><polygon fill="#181818" points="569.0747,711.5469,559.0747,715.5469,569.0747,719.5469,565.0747,715.5469" style="stroke:#181818;stroke-width:1;"/><line style="stroke:#181818;stroke-width:1;stroke-dasharray:2.0,2.0;" x1="563.0747" x2="973.3979" y1="715.5469" y2="715.5469"/><text fill="#000000" font-family="sans-serif" font-size="13" lengthAdjust="spacing" textLength="117.7935" x="575.0747" y="710.6904">Nouvelle exp&#233;rience</text></g><g class="message" data-participant-1="API" data-participant-2="F"><polygon fill="#181818" points="294.3423,741.8984,284.3423,745.8984,294.3423,749.8984,290.3423,745.8984" style="stroke:#181818;stroke-width:1;"/><line style="stroke:#181818;stroke-width:1;stroke-dasharray:2.0,2.0;" x1="288.3423" x2="557.0747" y1="745.8984" y2="745.8984"/><text fill="#000000" font-family="sans-serif" font-size="13" lengthAdjust="spacing" textLength="71.5508" x="300.3423" y="741.042">201 Created</text></g><g class="message" data-participant-1="F" data-participant-2="Auth"><polygon fill="#181818" points="117.8652,772.25,107.8652,776.25,117.8652,780.25,113.8652,776.25" style="stroke:#181818;stroke-width:1;"/><line style="stroke:#181818;stroke-width:1;stroke-dasharray:2.0,2.0;" x1="111.8652" x2="282.3423" y1="776.25" y2="776.25"/><text fill="#000000" font-family="sans-serif" font-size="13" lengthAdjust="spacing" textLength="73.6963" x="123.8652" y="771.3936">Confirmation</text></g><g class="message" data-participant-1="Auth" data-participant-2="F"><polygon fill="#181818" points="271.3423,802.6016,281.3423,806.6016,271.3423,810.6016,275.3423,806.6016" style="stroke:#181818;stroke-width:1;"/><line style="stroke:#181818;stroke-width:1;" x1="106.8652" x2="277.3423" y1="806.6016" y2="806.6016"/><text fill="#000000" font-family="sans-serif" font-size="13" lengthAdjust="spacing" textLength="138.7471" x="113.8652" y="801.7451">Modifier une exp&#233;rience</text></g><g class="message" data-participant-1="F" data-participant-2="API"><polygon fill="#181818" points="546.0747,832.9531,556.0747,836.9531,546.0747,840.9531,550.0747,836.9531" style="stroke:#181818;stroke-width:1;"/><line style="stroke:#181818;stroke-width:1;" x1="283.3423" x2="552.0747" y1="836.9531" y2="836.9531"/><text fill="#000000" font-family="sans-serif" font-size="13" lengthAdjust="spacing" textLength="198.7197" x="290.3423" y="832.0967">PUT /api/experiences/{id} {titre, ...}</text></g><g class="message" data-participant-1="API" data-participant-2="BD"><polygon fill="#181818" points="962.3979,863.3047,972.3979,867.3047,962.3979,871.3047,966.3979,867.3047" style="stroke:#181818;stroke-width:1;"/><line style="stroke:#181818;stroke-width:1;" x1="558.0747" x2="968.3979" y1="867.3047" y2="867.3047"/><text fill="#000000" font-family="sans-serif" font-size="13" lengthAdjust="spacing" textLength="126.439" x="565.0747" y="862.4482">UPDATE experiences</text></g><g class="message" data-participant-1="BD" data-participant-2="API"><polygon fill="#181818" points="569.0747,893.6563,559.0747,897.6563,569.0747,901.6563,565.0747,897.6563" style="stroke:#181818;stroke-width:1;"/><line style="stroke:#181818;stroke-width:1;stroke-dasharray:2.0,2.0;" x1="563.0747" x2="973.3979" y1="897.6563" y2="897.6563"/><text fill="#000000" font-family="sans-serif" font-size="13" lengthAdjust="spacing" textLength="117.7871" x="575.0747" y="892.7998">Exp&#233;rience modifi&#233;e</text></g><g class="message" data-participant-1="API" data-participant-2="F"><polygon fill="#181818" points="294.3423,924.0078,284.3423,928.0078,294.3423,932.0078,290.3423,928.0078" style="stroke:#181818;stroke-width:1;"/><line style="stroke:#181818;stroke-width:1;stroke-dasharray:2.0,2.0;" x1="288.3423" x2="557.0747" y1="928.0078" y2="928.0078"/><text fill="#000000" font-family="sans-serif" font-size="13" lengthAdjust="spacing" textLength="44.0845" x="300.3423" y="923.1514">200 OK</text></g><g class="message" data-participant-1="F" data-participant-2="Auth"><polygon fill="#181818" points="117.8652,954.3594,107.8652,958.3594,117.8652,962.3594,113.8652,958.3594" style="stroke:#181818;stroke-width:1;"/><line style="stroke:#181818;stroke-width:1;stroke-dasharray:2.0,2.0;" x1="111.8652" x2="282.3423" y1="958.3594" y2="958.3594"/><text fill="#000000" font-family="sans-serif" font-size="13" lengthAdjust="spacing" textLength="73.6963" x="123.8652" y="953.5029">Confirmation</text></g><g class="message" data-participant-1="Auth" data-participant-2="F"><polygon fill="#181818" points="271.3423,984.7109,281.3423,988.7109,271.3423,992.7109,275.3423,988.7109" style="stroke:#181818;stroke-width:1;"/><line style="stroke:#181818;stroke-width:1;" x1="106.8652" x2="277.3423" y1="988.7109" y2="988.7109"/><text fill="#000000" font-family="sans-serif" font-size="13" lengthAdjust="spacing" textLength="152.4771" x="113.8652" y="983.8545">Supprimer une exp&#233;rience</text></g><g class="message" data-participant-1="F" data-participant-2="API"><polygon fill="#181818" points="546.0747,1015.0625,556.0747,1019.0625,546.0747,1023.0625,550.0747,1019.0625" style="stroke:#181818;stroke-width:1;"/><line style="stroke:#181818;stroke-width:1;" x1="283.3423" x2="552.0747" y1="1019.0625" y2="1019.0625"/><text fill="#000000" font-family="sans-serif" font-size="13" lengthAdjust="spacing" textLength="171.2661" x="290.3423" y="1014.2061">DELETE /api/experiences/{id}</text></g><g class="message" data-participant-1="API" data-participant-2="BD"><polygon fill="#181818" points="962.3979,1045.4141,972.3979,1049.4141,962.3979,1053.4141,966.3979,1049.4141" style="stroke:#181818;stroke-width:1;"/><line style="stroke:#181818;stroke-width:1;" x1="558.0747" x2="968.3979" y1="1049.4141" y2="1049.4141"/><text fill="#000000" font-family="sans-serif" font-size="13" lengthAdjust="spacing" textLength="166.1626" x="565.0747" y="1044.5576">DELETE FROM experiences</text></g><g class="message" data-participant-1="BD" data-participant-2="API"><polygon fill="#181818" points="569.0747,1075.7656,559.0747,1079.7656,569.0747,1083.7656,565.0747,1079.7656" style="stroke:#181818;stroke-width:1;"/><line style="stroke:#181818;stroke-width:1;stroke-dasharray:2.0,2.0;" x1="563.0747" x2="973.3979" y1="1079.7656" y2="1079.7656"/><text fill="#000000" font-family="sans-serif" font-size="13" lengthAdjust="spacing" textLength="18.7827" x="575.0747" y="1074.9092">OK</text></g><g class="message" data-participant-1="API" data-participant-2="F"><polygon fill="#181818" points="294.3423,1106.1172,284.3423,1110.1172,294.3423,1114.1172,290.3423,1110.1172" style="stroke:#181818;stroke-width:1;"/><line style="stroke:#181818;stroke-width:1;stroke-dasharray:2.0,2.0;" x1="288.3423" x2="557.0747" y1="1110.1172" y2="1110.1172"/><text fill="#000000" font-family="sans-serif" font-size="13" lengthAdjust="spacing" textLength="91.0635" x="300.3423" y="1105.2607">204 No Content</text></g><g class="message" data-participant-1="F" data-participant-2="Auth"><polygon fill="#181818" points="117.8652,1136.4688,107.8652,1140.4688,117.8652,1144.4688,113.8652,1140.4688" style="stroke:#181818;stroke-width:1;"/><line style="stroke:#181818;stroke-width:1;stroke-dasharray:2.0,2.0;" x1="111.8652" x2="282.3423" y1="1140.4688" y2="1140.4688"/><text fill="#000000" font-family="sans-serif" font-size="13" lengthAdjust="spacing" textLength="73.6963" x="123.8652" y="1135.6123">Confirmation</text></g><!--SRC=[bPFTRjf048NlzodchgHA8ArwXKGbm7P4cs041Acggcfj3x3gskliJzGgolk4v-35Ecj8QmE9sYlRwvazvpkpQuML25Teh505P6W0VvRRZHPOfFHHQhL4O-XVWLAYOOodLcbO22CiEWtSm6A_Dj6gf3xBXKQ_tdTspHBbYephNn1fLLY_7B6KthIIq9-Cghh9Y6NSyeGRX47WbmO1OxqU35LXdBIyyjOgNIB5dSCpwFNO0Yu-GjI5CRyNgrr1oLS8sHkUfWw5X4vbNaWM-L8IwS9LE8SEBqM7676Fo0fb4RHOhMqN-ccwVJ8WHQAHUNlKEGYwC0klm-4Sta8qZM-WrWtnD0YdCFW2IcSQpu50y7k6YRCGXBCX8vwBP_bhOKZgCEETpexcqomUmzS7AwpV2oacf4XDOzzpQBVRZzyy5ZKjoFHoATArXxSYHoaAhC9xdccBqnneAx4KsqsLdH_CFhw0ctMYkCwQbluZiiRKNU47b9FQYVJ8zeauKfMNSljayJ27FQ0tsuL8wTp9IYD3MEtGM9ragBSRrEG0woWraaayEqQ1KrdxV9l7mijel7F2G6k0N9EGLJ-mEAjZZiQpS3gdnpok7v46yrYvUt-H6XvhuEyltn49qh2p1Z_TXANGEJ_2lb4P3VPryDjZxiw3o1x_m5V0DPBRIT2VXoz2X7zb8A_qAVecnIN4d_yDOEPAYZr_bI2W0qH-JaBKVU_h3YzfmppvQZZzG3Fnxgm_j2yv_Wq0]--></g></svg>